<svg width="24" height="24" viewBox="0 0 24 24" fill="none" xmlns="http://www.w3.org/2000/svg">
<path fill-rule="evenodd" clip-rule="evenodd" d="M12 22C17.5228 22 22 17.5228 22 12C22 6.47715 17.5228 2 12 2C6.47715 2 2 6.47715 2 12C2 17.5228 6.47715 22 12 22ZM16 12.0033C16 15.0777 14.4898 17 12 17C9.5102 17 8 15.0777 8 12.0033V11.99C8 8.91561 9.5102 7 12 7C14.4898 7 16 8.91561 16 11.99V12.0033ZM10.0748 12.0033C10.0748 14.1266 10.7755 15.3791 12 15.3791C13.2245 15.3791 13.9252 14.1266 13.9252 12.0033V11.99C13.9252 9.86671 13.2245 8.6209 12 8.6209C10.7755 8.6209 10.0748 9.86671 10.0748 11.99V12.0033Z" fill="black"/>
</svg>
