<svg width="24" height="24" viewBox="0 0 24 24" fill="none" xmlns="http://www.w3.org/2000/svg">
<path fill-rule="evenodd" clip-rule="evenodd" d="M4.04531 16H5.68047V8H4.03984L2 9.4359V10.9217L4.0125 9.53569H4.04531V16ZM8.33441 16H14.16V14.6921H10.528V14.6267L12.2052 13.1226C13.588 11.8747 14.0489 11.2534 14.0489 10.2997V10.2888C14.0489 8.94823 12.8827 8 11.1889 8C9.49508 8 8.24 9.04087 8.24 10.5232V10.5668H9.79497L9.80053 10.5177C9.82274 9.80926 10.3781 9.28065 11.2 9.28065C11.9108 9.28065 12.4107 9.73842 12.4162 10.3815V10.3924C12.4162 10.9373 12.1996 11.3243 11.1667 12.2725L8.33441 14.8719V16ZM22 13.6852C22 15.0676 20.7553 16 18.8828 16C17.0658 16 15.8767 15.0784 15.7656 13.7441L15.76 13.6745H17.3603L17.3714 13.7334C17.4436 14.2853 18.0104 14.6979 18.8772 14.6979C19.7385 14.6979 20.2941 14.2532 20.2941 13.6209V13.6102C20.2941 12.8707 19.7218 12.4635 18.755 12.4635H17.8381V11.3115H18.7328C19.5718 11.3115 20.1163 10.8828 20.1163 10.2559V10.2451C20.1163 9.61822 19.6551 9.24313 18.8661 9.24313C18.0826 9.24313 17.5492 9.63429 17.4825 10.2344L17.477 10.2827H15.9378L15.9434 10.2184C16.0545 8.87877 17.1825 8 18.8661 8C20.5942 8 21.7055 8.81447 21.7055 10.0308V10.0415C21.7055 11.006 20.972 11.633 20.033 11.8205V11.8526C21.2221 11.9598 22 12.6242 22 13.6745V13.6852Z" fill="black"/>
</svg>
