<svg width="24" height="24" viewBox="0 0 24 24" fill="none" xmlns="http://www.w3.org/2000/svg">
<path fill-rule="evenodd" clip-rule="evenodd" d="M4 12C4 7.58172 7.58172 4 12 4C16.4183 4 20 7.58172 20 12C20 16.4183 16.4183 20 12 20C7.58172 20 4 16.4183 4 12ZM12 2C6.47715 2 2 6.47715 2 12C2 17.5228 6.47715 22 12 22C17.5228 22 22 17.5228 22 12C22 6.47715 17.5228 2 12 2ZM15.7 17H8.41806V15.5899L11.9584 12.3406C13.2496 11.1553 13.5203 10.6717 13.5203 9.99046V9.97684C13.5134 9.17302 12.8886 8.60082 12 8.60082C10.9727 8.60082 10.2785 9.26158 10.2507 10.1471L10.2438 10.2084H8.30005V10.154C8.30005 8.30109 9.8689 7 11.9862 7C14.1034 7 15.5612 8.18529 15.5612 9.86104V9.87466C15.5612 11.0668 14.985 11.8433 13.2565 13.4033L11.1601 15.2834V15.3651H15.7V17Z" fill="black"/>
</svg>
