<svg width="24" height="24" viewBox="0 0 24 24" fill="none" xmlns="http://www.w3.org/2000/svg">
<path fill-rule="evenodd" clip-rule="evenodd" d="M5 3C3.89543 3 3 3.89543 3 5V19C3 20.1046 3.89543 21 5 21H19C20.1046 21 21 20.1046 21 19V5C21 3.89543 20.1046 3 19 3H5ZM5 5H19V19H5V5ZM15.7 17H8.41806V15.5899L11.9584 12.3406C13.2496 11.1553 13.5203 10.6717 13.5203 9.99046V9.97684C13.5134 9.17302 12.8886 8.60082 12 8.60082C10.9727 8.60082 10.2785 9.26158 10.2507 10.1471L10.2438 10.2084H8.30005V10.154C8.30005 8.30109 9.8689 7 11.9862 7C14.1034 7 15.5612 8.18529 15.5612 9.86104V9.87466C15.5612 11.0668 14.985 11.8433 13.2565 13.4033L11.1601 15.2834V15.3651H15.7V17Z" fill="black"/>
</svg>
