<svg width="24" height="24" viewBox="0 0 24 24" fill="none" xmlns="http://www.w3.org/2000/svg">
<path fill-rule="evenodd" clip-rule="evenodd" d="M3 5C3 3.89543 3.89543 3 5 3H19C20.1046 3 21 3.89543 21 5V19C21 20.1046 20.1046 21 19 21H5C3.89543 21 3 20.1046 3 19V5ZM15.7 17H8.41801V15.5899L11.9583 12.3406C13.2495 11.1553 13.5203 10.6717 13.5203 9.99046V9.97684C13.5133 9.17302 12.8886 8.60082 12 8.60082C10.9726 8.60082 10.2784 9.26158 10.2507 10.1471L10.2437 10.2084H8.3V10.154C8.3 8.30109 9.86886 7 11.9861 7C14.1034 7 15.5612 8.18529 15.5612 9.86104V9.87466C15.5612 11.0668 14.985 11.8433 13.2565 13.4033L11.16 15.2834V15.3651H15.7V17Z" fill="black"/>
</svg>
