<svg width="24" height="24" viewBox="0 0 24 24" fill="none" xmlns="http://www.w3.org/2000/svg">
<path fill-rule="evenodd" clip-rule="evenodd" d="M4 12C4 7.58172 7.58172 4 12 4C16.4183 4 20 7.58172 20 12C20 16.4183 16.4183 20 12 20C7.58172 20 4 16.4183 4 12ZM12 2C6.47715 2 2 6.47715 2 12C2 17.5228 6.47715 22 12 22C17.5228 22 22 17.5228 22 12C22 6.47715 17.5228 2 12 2ZM15.9 14.1065C15.9 15.8346 14.3441 17 12.0034 17C9.73221 17 8.24583 15.848 8.10692 14.1802L8.09998 14.0931H10.1003L10.1142 14.1668C10.2045 14.8567 10.913 15.3724 11.9965 15.3724C13.0731 15.3724 13.7677 14.8165 13.7677 14.0261V14.0127C13.7677 13.0884 13.0522 12.5794 11.8437 12.5794H10.6977V11.1393H11.8159C12.8647 11.1393 13.5454 10.6035 13.5454 9.81983V9.80643C13.5454 9.02277 12.9689 8.55392 11.9826 8.55392C11.0033 8.55392 10.3365 9.04287 10.2531 9.79303L10.2462 9.85332H8.32224L8.32918 9.77294C8.4681 8.09846 9.87807 7 11.9826 7C14.1427 7 15.5319 8.01808 15.5319 9.53851V9.55191C15.5319 10.7575 14.615 11.5412 13.4412 11.7756V11.8158C14.9276 11.9498 15.9 12.7803 15.9 14.0931V14.1065Z" fill="black"/>
</svg>
