<svg width="24" height="24" viewBox="0 0 24 24" fill="none" xmlns="http://www.w3.org/2000/svg">
<path fill-rule="evenodd" clip-rule="evenodd" d="M3 5C3 3.89543 3.89543 3 5 3H19C20.1046 3 21 3.89543 21 5V19C21 20.1046 20.1046 21 19 21H5C3.89543 21 3 20.1046 3 19V5ZM15.9 14.1065C15.9 15.8346 14.3442 17 12.0035 17C9.73223 17 8.24586 15.848 8.10694 14.1802L8.1 14.0931H10.1004L10.1142 14.1668C10.2045 14.8567 10.913 15.3724 11.9965 15.3724C13.0731 15.3724 13.7677 14.8165 13.7677 14.0261V14.0127C13.7677 13.0884 13.0523 12.5794 11.8437 12.5794H10.6977V11.1393H11.8159C12.8647 11.1393 13.5454 10.6035 13.5454 9.81983V9.80643C13.5454 9.02277 12.9689 8.55392 11.9826 8.55392C11.0033 8.55392 10.3365 9.04287 10.2532 9.79303L10.2462 9.85332H8.32226L8.32921 9.77294C8.46812 8.09846 9.87809 7 11.9826 7C14.1427 7 15.5319 8.01808 15.5319 9.53851V9.55191C15.5319 10.7575 14.615 11.5412 13.4412 11.7756V11.8158C14.9276 11.9498 15.9 12.7803 15.9 14.0931V14.1065Z" fill="black"/>
</svg>
