<svg width="24" height="24" viewBox="0 0 24 24" fill="none" xmlns="http://www.w3.org/2000/svg">
<path fill-rule="evenodd" clip-rule="evenodd" d="M4 12C4 7.58172 7.58172 4 12 4C16.4183 4 20 7.58172 20 12C20 16.4183 16.4183 20 12 20C7.58172 20 4 16.4183 4 12ZM12 2C6.47715 2 2 6.47715 2 12C2 17.5228 6.47715 22 12 22C17.5228 22 22 17.5228 22 12C22 6.47715 17.5228 2 12 2ZM14.2963 17H12.3269V15.1635H7.40002V13.4172L11.3731 7H14.2963V13.4934H15.6V15.1635H14.2963V17ZM9.20471 13.4934V13.5489H12.3681V8.51074H12.32L9.20471 13.4934Z" fill="black"/>
</svg>
