<svg width="24" height="24" viewBox="0 0 24 24" fill="none" xmlns="http://www.w3.org/2000/svg">
<path fill-rule="evenodd" clip-rule="evenodd" d="M12 22C17.5228 22 22 17.5228 22 12C22 6.47715 17.5228 2 12 2C6.47715 2 2 6.47715 2 12C2 17.5228 6.47715 22 12 22ZM15.8 13.5463C15.8 15.6035 14.2233 17 11.9412 17C9.76979 17 8.33139 15.7534 8.20692 14.1117L8.2 14.0095H10.1294L10.1432 14.0572C10.2884 14.7997 10.9869 15.3719 11.9481 15.3719C13.0408 15.3719 13.8084 14.6362 13.8084 13.5872V13.5736C13.8015 12.5381 13.0338 11.8093 11.9551 11.8093C11.4433 11.8093 11.0076 11.9591 10.6688 12.2248C10.4682 12.3747 10.3092 12.5654 10.1916 12.7698H8.37288L8.8293 7H15.1984V8.63488H10.489L10.247 11.4005H10.2884C10.7034 10.7398 11.5263 10.3379 12.5359 10.3379C14.4308 10.3379 15.8 11.6798 15.8 13.5327V13.5463Z" fill="black"/>
</svg>
