<svg width="24" height="24" viewBox="0 0 24 24" fill="none" xmlns="http://www.w3.org/2000/svg">
<path fill-rule="evenodd" clip-rule="evenodd" d="M4 12C4 7.58172 7.58172 4 12 4C16.4183 4 20 7.58172 20 12C20 16.4183 16.4183 20 12 20C7.58172 20 4 16.4183 4 12ZM12 2C6.47715 2 2 6.47715 2 12C2 17.5228 6.47715 22 12 22C17.5228 22 22 17.5228 22 12C22 6.47715 17.5228 2 12 2ZM15.8 13.5463C15.8 15.6035 14.2232 17 11.9412 17C9.76974 17 8.33134 15.7534 8.20687 14.1117L8.19995 14.0095H10.1293L10.1432 14.0572C10.2884 14.7997 10.9868 15.3719 11.9481 15.3719C13.0407 15.3719 13.8083 14.6362 13.8083 13.5872V13.5736C13.8014 12.5381 13.0338 11.8093 11.955 11.8093C11.4433 11.8093 11.0076 11.9591 10.6687 12.2248C10.4682 12.3747 10.3091 12.5654 10.1916 12.7698H8.37284L8.82925 7H15.1983V8.63488H10.4889L10.2469 11.4005H10.2884C10.7033 10.7398 11.5262 10.3379 12.5359 10.3379C14.4307 10.3379 15.8 11.6798 15.8 13.5327V13.5463Z" fill="black"/>
</svg>
