<svg width="24" height="24" viewBox="0 0 24 24" fill="none" xmlns="http://www.w3.org/2000/svg">
<path fill-rule="evenodd" clip-rule="evenodd" d="M4 12C4 7.58172 7.58172 4 12 4C16.4183 4 20 7.58172 20 12C20 16.4183 16.4183 20 12 20C7.58172 20 4 16.4183 4 12ZM12 2C6.47715 2 2 6.47715 2 12C2 17.5228 6.47715 22 12 22C17.5228 22 22 17.5228 22 12C22 6.47715 17.5228 2 12 2ZM16 13.6499C16 15.6653 14.3765 17.1 12.1589 17.1C9.75475 17.1 8 15.4262 8 12.0854V12.0718C8 8.84028 9.58204 6.90002 12.1796 6.90002C14.1071 6.90002 15.5579 7.99996 15.8549 9.52347L15.8687 9.59179H13.81L13.7893 9.5303C13.5406 8.93593 12.9879 8.53284 12.1727 8.53284C10.715 8.53284 10.0794 9.90605 10.0035 11.6482C9.99655 11.7848 9.98964 11.9215 9.98964 12.0239H10.0311C10.4249 11.1085 11.4059 10.4389 12.753 10.4389C14.6805 10.4389 16 11.7917 16 13.6363V13.6499ZM10.3074 13.6841V13.6977C10.3074 14.6884 11.1088 15.4604 12.1313 15.4604C13.1468 15.4604 13.9689 14.6952 13.9689 13.7251V13.7114C13.9689 12.6866 13.1883 11.9624 12.152 11.9624C11.1088 11.9624 10.3074 12.6798 10.3074 13.6841Z" fill="black"/>
</svg>
