<svg width="24" height="24" viewBox="0 0 24 24" fill="none" xmlns="http://www.w3.org/2000/svg">
<path fill-rule="evenodd" clip-rule="evenodd" d="M3 4.99963C3 3.89506 3.89543 2.99963 5 2.99963H19C20.1046 2.99963 21 3.89506 21 4.99963V18.9996C21 20.1042 20.1046 20.9996 19 20.9996H5C3.89543 20.9996 3 20.1042 3 18.9996V4.99963ZM16 13.6499C16 15.6653 14.3765 17.1 12.1589 17.1C9.75475 17.1 8 15.4262 8 12.0854V12.0718C8 8.84028 9.58204 6.90002 12.1796 6.90002C14.1071 6.90002 15.5579 7.99996 15.8549 9.52347L15.8687 9.59179H13.81L13.7893 9.5303C13.5406 8.93593 12.9879 8.53284 12.1727 8.53284C10.715 8.53284 10.0794 9.90605 10.0035 11.6482C9.99655 11.7848 9.98964 11.9215 9.98964 12.0239H10.0311C10.4249 11.1085 11.4059 10.4389 12.753 10.4389C14.6805 10.4389 16 11.7917 16 13.6363V13.6499ZM10.3074 13.6841V13.6977C10.3074 14.6884 11.1088 15.4604 12.1313 15.4604C13.1468 15.4604 13.9689 14.6952 13.9689 13.7251V13.7114C13.9689 12.6866 13.1883 11.9624 12.152 11.9624C11.1088 11.9624 10.3074 12.6798 10.3074 13.6841Z" fill="black"/>
</svg>
