<svg width="24" height="24" viewBox="0 0 24 24" fill="none" xmlns="http://www.w3.org/2000/svg">
<path fill-rule="evenodd" clip-rule="evenodd" d="M4 12C4 7.58172 7.58172 4 12 4C16.4183 4 20 7.58172 20 12C20 16.4183 16.4183 20 12 20C7.58172 20 4 16.4183 4 12ZM12 2C6.47715 2 2 6.47715 2 12C2 17.5228 6.47715 22 12 22C17.5228 22 22 17.5228 22 12C22 6.47715 17.5228 2 12 2ZM16 14.2375C16 15.9318 14.3697 17.1 12.0034 17.1C9.63715 17.1 8 15.9318 8 14.2375V14.2238C8 12.9462 8.95615 12.0034 10.2906 11.7438V11.7028C9.14187 11.4227 8.36457 10.5961 8.36457 9.54396V9.5303C8.36457 8.00679 9.85727 6.90002 12.0034 6.90002C14.1427 6.90002 15.6423 8.00679 15.6423 9.5303V9.54396C15.6423 10.5961 14.8581 11.4227 13.7163 11.7028V11.7438C15.0439 12.0034 16 12.9462 16 14.2238V14.2375ZM10.4144 9.73526C10.4144 10.5278 11.0679 11.0811 12.0034 11.0811C12.939 11.0811 13.5856 10.5278 13.5856 9.73526V9.72159C13.5856 8.93593 12.9321 8.38937 12.0034 8.38937C11.0748 8.38937 10.4144 8.93593 10.4144 9.72159V9.73526ZM10.1531 14.1008C10.1531 14.9685 10.9166 15.597 12.0034 15.597C13.0834 15.597 13.8469 14.9685 13.8469 14.1008V14.0872C13.8469 13.2127 13.0972 12.5773 12.0034 12.5773C10.9097 12.5773 10.1531 13.2127 10.1531 14.0872V14.1008Z" fill="black"/>
</svg>
