<svg width="24" height="24" viewBox="0 0 24 24" fill="none" xmlns="http://www.w3.org/2000/svg">
<path fill-rule="evenodd" clip-rule="evenodd" d="M12 22C17.5228 22 22 17.5228 22 12C22 6.47715 17.5228 2 12 2C6.47715 2 2 6.47715 2 12C2 17.5228 6.47715 22 12 22ZM8 10.3333C8 8.31786 9.62349 6.89 11.8411 6.89C14.2452 6.89 16 8.55698 16 11.8978V11.9114C16 15.1429 14.418 17.09 11.8204 17.09C9.89292 17.09 8.44214 15.9832 8.14508 14.4597L8.13126 14.3982H10.19L10.2107 14.4529C10.4594 15.0473 11.0121 15.4503 11.8273 15.4503C13.285 15.4503 13.9206 14.0771 13.9965 12.335C14.0035 12.2052 14.0104 12.0686 14.0035 11.9593H13.9689C13.5751 12.8747 12.5941 13.5443 11.247 13.5443C9.31952 13.5443 8 12.1984 8 10.3469V10.3333ZM10.0311 10.2786C10.0311 11.3034 10.8117 12.0207 11.848 12.0207C12.8912 12.0207 13.6926 11.3034 13.6926 10.2991V10.2923C13.6926 9.29482 12.8912 8.52965 11.8687 8.52965C10.8532 8.52965 10.0311 9.28799 10.0311 10.2649V10.2786Z" fill="black"/>
</svg>
