<svg width="24" height="24" viewBox="0 0 24 24" fill="none" xmlns="http://www.w3.org/2000/svg">
<path fill-rule="evenodd" clip-rule="evenodd" d="M7.5 4H6.057L6.56367 5.35112L7.557 8H6.01326C4.98129 8 4.11876 7.21484 4.02206 6.18741L4 6H2V11C2 13.2091 3.79086 15 6 15H7.88197L5.38197 20H10.1093C10.9597 20 11.7702 19.639 12.3392 19.0069L15.9454 15H20C21.1046 15 22 14.1046 22 13C22 10.2386 19.7614 8 17 8H15L12.9 5.2C12.3334 4.44458 11.4443 4 10.5 4H7.5ZM12.5 8L11.3 6.4C11.1111 6.14819 10.8148 6 10.5 6H8.943L9.693 8H12.5ZM6.01326 10C5.28194 10 4.59316 9.80284 4 9.45683V11C4 12.1046 4.89543 13 6 13H11.118L8.61803 18H10.1093C10.3928 18 10.6629 17.8797 10.8526 17.669L15.0546 13H20C20 11.3431 18.6569 10 17 10H6.01326Z" fill="black"/>
</svg>
