<svg width="24" height="24" viewBox="0 0 24 24" fill="none" xmlns="http://www.w3.org/2000/svg">
<path fill-rule="evenodd" clip-rule="evenodd" d="M20.2675 7.26776C21.2438 6.29146 21.2438 4.70854 20.2675 3.73224C19.2912 2.75592 17.7083 2.75592 16.732 3.73224C15.6008 4.86337 14.5255 5.93877 13.4644 7L6.51596 5.83733C5.29972 5.63382 4.08283 6.19529 3.44838 7.2527L3 8L9.46489 11L6.5 15H3L8.99994 21V17.5L13 14.536L16 21L16.7557 20.5466C17.8089 19.9146 18.3706 18.7046 18.1733 17.4923L17.0356 10.5C18.0851 9.45032 19.149 8.3863 20.2675 7.26776Z" fill="black"/>
</svg>
