<svg width="24" height="24" viewBox="0 0 24 24" fill="none" xmlns="http://www.w3.org/2000/svg">
<path fill-rule="evenodd" clip-rule="evenodd" d="M20.2675 3.73224C21.2438 4.70854 21.2438 6.29146 20.2675 7.26776L17.0356 10.5L17.6603 14.3397L18.2499 13.7501C18.6642 13.3359 19.3357 13.3359 19.7499 13.7501C20.1642 14.1643 20.1642 14.8359 19.7499 15.2501L18.0802 16.9199L18.1733 17.4923C18.3706 18.7046 17.8089 19.9146 16.7557 20.5466L16 21L13 14.536L8.99994 17.5L9 21L3 15H6.5L9.46489 11L3 8L3.44838 7.2527C4.02759 6.28735 5.09224 5.73534 6.19866 5.80139L7.74994 4.25011C8.16415 3.8359 8.83573 3.8359 9.24994 4.25011C9.66415 4.66433 9.66415 5.3359 9.24994 5.75011L8.78333 6.21672L13.4644 7L16.732 3.73224C17.7083 2.75592 19.2912 2.75592 20.2675 3.73224Z" fill="black"/>
</svg>
