<svg width="24" height="24" viewBox="0 0 24 24" fill="none" xmlns="http://www.w3.org/2000/svg">
<path fill-rule="evenodd" clip-rule="evenodd" d="M18.5387 5.29289C18.1489 4.90262 17.5171 4.90233 17.1269 5.29224L13.8492 8.56821L6.57148 7.28227C6.10482 7.19981 5.6487 7.45687 5.47296 7.8898L11.606 10.6034L7.09164 16.2536L7.75914 16.92L13.4007 12.4009L16.1137 18.5441C16.545 18.3675 16.8007 17.9115 16.7185 17.445L15.4334 10.1535L18.7094 6.87933C19.1 6.48891 19.1003 5.85524 18.71 5.46447L18.5387 5.29289ZM9.017 18.4737L9 21L3 15L5.54084 14.993L8.42542 11.3827L3 9L3.54167 7.36102C3.99534 5.92716 5.4393 5.05131 6.91861 5.3127L13.1733 6.41788L15.7158 3.87673C16.8862 2.70699 18.7818 2.70787 19.9511 3.87868L20.1224 4.05025C21.2933 5.22259 21.2924 7.12358 20.1205 8.29484L17.5814 10.8326L18.6855 17.0974C18.9462 18.5765 18.0743 20.0207 16.6452 20.477L15 21L12.623 15.5852L9.017 18.4737Z" fill="black"/>
</svg>
