<svg width="24" height="24" viewBox="0 0 24 24" fill="none" xmlns="http://www.w3.org/2000/svg">
<path fill-rule="evenodd" clip-rule="evenodd" d="M17.1269 5.29224C17.5171 4.90233 18.1489 4.90262 18.5387 5.29289L18.71 5.46447C19.1003 5.85524 19.1 6.48891 18.7094 6.87933L15.4334 10.1535L16.7185 17.445C16.8007 17.9115 16.545 18.3675 16.1137 18.5441L13.4007 12.4009L7.75914 16.92L7.09164 16.2536L11.606 10.6034L5.47296 7.8898C5.6487 7.45687 6.10482 7.19981 6.57148 7.28227L13.8492 8.56821L17.1269 5.29224ZM9 21L9.017 18.4737L12.623 15.5852L15 21L16.6452 20.477C18.0743 20.0207 18.9462 18.5765 18.6855 17.0974L18.5682 16.4318L19.75 15.25C20.1642 14.8358 20.1642 14.1642 19.75 13.75C19.3358 13.3358 18.6642 13.3358 18.25 13.75L18.1187 13.8813L17.5814 10.8326L20.1205 8.29484C21.2924 7.12358 21.2933 5.22259 20.1224 4.05025L19.9511 3.87868C18.7818 2.70787 16.8862 2.70699 15.7158 3.87673L13.1733 6.41788L10.1214 5.87862L10.25 5.74999C10.6642 5.33578 10.6642 4.6642 10.25 4.24999C9.83579 3.83578 9.16421 3.83578 8.75 4.24999L7.57186 5.42813L6.91861 5.3127C5.4393 5.05131 3.99534 5.92716 3.54167 7.36102L3 9L8.42542 11.3827L5.54084 14.993L3 15L9 21Z" fill="black"/>
</svg>
