<svg width="24" height="24" viewBox="0 0 24 24" fill="none" xmlns="http://www.w3.org/2000/svg">
<path fill-rule="evenodd" clip-rule="evenodd" d="M8.28166 2.71414C5.74955 3.729 3.729 5.74955 2.71414 8.28166C2.26393 7.63453 2 6.84809 2 6C2 3.79086 3.79086 2 6 2C6.84809 2 7.63453 2.26393 8.28166 2.71414ZM21.2859 8.28167C20.271 5.74955 18.2505 3.729 15.7183 2.71414C16.3655 2.26393 17.1519 2 18 2C20.2091 2 22 3.79086 22 6C22 6.84809 21.7361 7.63453 21.2859 8.28167ZM21 12C21 16.9706 16.9706 21 12 21C7.02944 21 3 16.9706 3 12C3 7.02944 7.02944 3 12 3C16.9706 3 21 7.02944 21 12ZM11 11.5858V8H13V12V12.4142L12.7071 12.7071L9.70711 15.7071L8.29289 14.2929L11 11.5858Z" fill="black"/>
</svg>
