<svg width="24" height="24" viewBox="0 0 24 24" fill="none" xmlns="http://www.w3.org/2000/svg">
<path fill-rule="evenodd" clip-rule="evenodd" d="M4 5.5C4 4.67157 4.67157 4 5.5 4C6.32843 4 7 4.67157 7 5.5C7 6.32843 6.32843 7 5.5 7C4.67157 7 4 6.32843 4 5.5ZM5.5 2C3.567 2 2 3.567 2 5.5C2 6.57986 2.48904 7.5455 3.25772 8.18752C3.05798 9.2844 3 10.5552 3 12C3 16.9706 7.02944 21 12 21C16.9706 21 21 16.9706 21 12C21 10.5552 20.942 9.2844 20.7423 8.18752C21.511 7.54549 22 6.57986 22 5.5C22 3.567 20.433 2 18.5 2C17.3958 2 16.4111 2.51131 15.7696 3.31007C14.7287 3.10336 13.4849 3 12 3C10.5151 3 9.27135 3.10336 8.2304 3.31007C7.58893 2.51131 6.60418 2 5.5 2ZM18.5 4C17.6716 4 17 4.67157 17 5.5C17 6.32843 17.6716 7 18.5 7C19.3284 7 20 6.32843 20 5.5C20 4.67157 19.3284 4 18.5 4ZM11 8V11.5858L8.29289 14.2929L9.70711 15.7071L12.7071 12.7071L13 12.4142V12V8H11Z" fill="black"/>
</svg>
