<svg width="24" height="24" viewBox="0 0 24 24" fill="none" xmlns="http://www.w3.org/2000/svg">
<path fill-rule="evenodd" clip-rule="evenodd" d="M5.5 4C4.67157 4 4 4.67157 4 5.5C4 6.32843 4.67157 7 5.5 7C6.32843 7 7 6.32843 7 5.5C7 4.67157 6.32843 4 5.5 4ZM2 5.5C2 3.567 3.567 2 5.5 2C6.77649 2 7.89337 2.68335 8.50479 3.70418C9.58015 3.25061 10.7617 3 12 3C13.2383 3 14.4198 3.25062 15.4952 3.70418C16.1066 2.68335 17.2235 2 18.5 2C20.433 2 22 3.567 22 5.5C22 6.77649 21.3167 7.89337 20.2958 8.50479C20.7494 9.58016 21 10.7617 21 12C21 14.6655 19.8412 17.0604 18 18.7083V22H16V20.0645C14.795 20.6633 13.4368 21 12 21C10.5632 21 9.20496 20.6633 8 20.0645V22H6V18.7083C4.15875 17.0604 3 14.6655 3 12C3 10.7617 3.25061 9.58015 3.70418 8.50479C2.68335 7.89337 2 6.77649 2 5.5ZM5.67542 8.99568C7.46881 8.90716 8.90716 7.46881 8.99568 5.67542C9.90521 5.24248 10.9232 5 12 5C13.0768 5 14.0948 5.24248 15.0043 5.67542C15.0928 7.46881 16.5312 8.90716 18.3246 8.99568C18.7575 9.90521 19 10.9232 19 12C19 15.866 15.866 19 12 19C8.13401 19 5 15.866 5 12C5 10.9232 5.24248 9.90521 5.67542 8.99568ZM17 5.5C17 4.67157 17.6716 4 18.5 4C19.3284 4 20 4.67157 20 5.5C20 6.32843 19.3284 7 18.5 7C17.6716 7 17 6.32843 17 5.5ZM11 8V11.5858L8.29289 14.2929L9.70711 15.7071L12.7071 12.7071L13 12.4142V12V8H11Z" fill="black"/>
</svg>
