<svg width="24" height="24" viewBox="0 0 24 24" fill="none" xmlns="http://www.w3.org/2000/svg">
<path fill-rule="evenodd" clip-rule="evenodd" d="M4 5.5C4 4.67157 4.67157 4 5.5 4C6.32843 4 7 4.67157 7 5.5C7 6.32843 6.32843 7 5.5 7C4.67157 7 4 6.32843 4 5.5ZM5.5 2C3.567 2 2 3.567 2 5.5C2 6.77639 2.68324 7.8932 3.70395 8.50465C3.25062 9.5793 3 10.7604 3 12C3 14.6655 4.15875 17.0604 6 18.7083V22H8V20.0645C9.20496 20.6633 10.5632 21 12 21C13.4368 21 14.795 20.6633 16 20.0645V22H18V18.7083C19.8412 17.0604 21 14.6655 21 12C21 10.7604 20.7494 9.5793 20.296 8.50465C21.3168 7.89321 22 6.77639 22 5.5C22 3.567 20.433 2 18.5 2C17.2236 2 16.1068 2.68324 15.4953 3.70395C14.4207 3.25062 13.2396 3 12 3C10.7604 3 9.5793 3.25062 8.50465 3.70395C7.8932 2.68324 6.77639 2 5.5 2ZM18.5 4C17.6716 4 17 4.67157 17 5.5C17 6.32843 17.6716 7 18.5 7C19.3284 7 20 6.32843 20 5.5C20 4.67157 19.3284 4 18.5 4ZM11 11.5858V8H13V12V12.4142L12.7071 12.7071L9.70711 15.7071L8.29289 14.2929L11 11.5858Z" fill="black"/>
</svg>
