<svg width="24" height="24" viewBox="0 0 24 24" fill="none" xmlns="http://www.w3.org/2000/svg">
<path fill-rule="evenodd" clip-rule="evenodd" d="M5.5 4C4.67157 4 4 4.67157 4 5.5C4 6.32843 4.67157 7 5.5 7C6.32843 7 7 6.32843 7 5.5C7 4.67157 6.32843 4 5.5 4ZM2 5.5C2 3.567 3.567 2 5.5 2C6.75556 2 7.8567 2.66112 8.4743 3.65423C8.5523 3.62304 8.63448 3.59158 8.72076 3.56021C9.4995 3.27703 10.6155 3 12 3C13.3845 3 14.5005 3.27703 15.2792 3.56021C15.3655 3.59158 15.4477 3.62304 15.5257 3.65424C16.1433 2.66112 17.2444 2 18.5 2C20.433 2 22 3.567 22 5.5C22 6.45365 21.6186 7.31822 21 7.94949V12C21 16.9706 16.9706 21 12 21C7.02944 21 3 16.9706 3 12V7.94949C2.38141 7.31822 2 6.45365 2 5.5ZM9.40424 5.43979C9.24883 5.49631 9.11322 5.55232 8.99849 5.60369C8.94365 7.48873 7.39831 9 5.5 9C5.33024 9 5.1633 8.98791 5 8.96456V12C5 15.866 8.13401 19 12 19C15.866 19 19 15.866 19 12V8.96456C18.8367 8.98791 18.6698 9 18.5 9C16.6017 9 15.0564 7.48873 15.0015 5.60369C14.8868 5.55232 14.7512 5.49631 14.5958 5.43979C13.9995 5.22297 13.1155 5 12 5C10.8845 5 10.0005 5.22297 9.40424 5.43979ZM17 5.5C17 4.67157 17.6716 4 18.5 4C19.3284 4 20 4.67157 20 5.5C20 6.32843 19.3284 7 18.5 7C17.6716 7 17 6.32843 17 5.5ZM11 8V11.5858L8.29289 14.2929L9.70711 15.7071L12.7071 12.7071L13 12.4142V12V8H11Z" fill="black"/>
</svg>
