<svg width="24" height="24" viewBox="0 0 24 24" fill="none" xmlns="http://www.w3.org/2000/svg">
<path fill-rule="evenodd" clip-rule="evenodd" d="M8.28166 2.71414C5.74955 3.729 3.729 5.74955 2.71414 8.28166C2.26393 7.63453 2 6.84809 2 6C2 3.79086 3.79086 2 6 2C6.84809 2 7.63453 2.26393 8.28166 2.71414ZM21.2859 8.28167C20.271 5.74955 18.2505 3.729 15.7183 2.71414C16.3655 2.26393 17.1519 2 18 2C20.2091 2 22 3.79086 22 6C22 6.84809 21.7361 7.63453 21.2859 8.28167ZM7.7998 6.39952C8.0947 6.79129 8.0638 7.35041 7.70711 7.70711C7.35041 8.0638 6.79129 8.0947 6.39952 7.7998C5.70912 8.71862 5.24013 9.81207 5.07045 11.0024C5.58986 11.0386 6 11.4714 6 12C6 12.5286 5.58986 12.9614 5.07046 12.9976C5.24013 14.1879 5.70912 15.2814 6.39952 16.2002C6.79129 15.9053 7.35041 15.9362 7.70711 16.2929C8.0638 16.6496 8.0947 17.2087 7.7998 17.6005C8.71862 18.2909 9.81206 18.7599 11.0024 18.9295C11.0386 18.4101 11.4714 18 12 18C12.5286 18 12.9614 18.4101 12.9976 18.9295C14.1879 18.7599 15.2814 18.2909 16.2002 17.6005C15.9053 17.2087 15.9362 16.6496 16.2929 16.2929C16.6496 15.9362 17.2087 15.9053 17.6005 16.2002C18.2909 15.2814 18.7599 14.1879 18.9295 12.9976C18.4101 12.9614 18 12.5286 18 12C18 11.4714 18.4101 11.0386 18.9295 11.0024C18.7599 9.81206 18.2909 8.71862 17.6005 7.7998C17.2087 8.0947 16.6496 8.0638 16.2929 7.70711C15.9362 7.35041 15.9053 6.79129 16.2002 6.39952C15.2814 5.70912 14.1879 5.24013 12.9976 5.07045C12.9614 5.58986 12.5286 6 12 6C11.4714 6 11.0386 5.58986 11.0024 5.07045C9.81207 5.24013 8.71862 5.70912 7.7998 6.39952ZM5.63604 5.63604C7.26362 4.00845 9.515 3 12 3C14.485 3 16.7364 4.00845 18.364 5.63604C19.9915 7.26362 21 9.515 21 12C21 14.485 19.9915 16.7364 18.364 18.364C16.7364 19.9915 14.485 21 12 21C9.515 21 7.26362 19.9915 5.63604 18.364C4.00845 16.7364 3 14.485 3 12C3 9.515 4.00845 7.26362 5.63604 5.63604ZM11 11.5858V8H13V12V12.4142L12.7071 12.7071L9.70711 15.7071L8.29289 14.2929L11 11.5858Z" fill="black"/>
</svg>
