<svg width="24" height="24" viewBox="0 0 24 24" fill="none" xmlns="http://www.w3.org/2000/svg">
<path fill-rule="evenodd" clip-rule="evenodd" d="M16 6C16 4.89543 16.8954 4 18 4C19.1046 4 20 4.89543 20 6C20 7.10457 19.1046 8 18 8C16.8954 8 16 7.10457 16 6ZM18 2C15.7909 2 14 3.79086 14 6C14 8.20914 15.7909 10 18 10C20.2091 10 22 8.20914 22 6C22 3.79086 20.2091 2 18 2ZM6 4C4.89543 4 4 4.89543 4 6V18C4 19.1046 4.89543 20 6 20H18C19.1046 20 20 19.1046 20 18V12H18V18H6V6H12V4H6Z" fill="black"/>
</svg>
