<svg width="24" height="24" viewBox="0 0 24 24" fill="none" xmlns="http://www.w3.org/2000/svg">
<path fill-rule="evenodd" clip-rule="evenodd" d="M3 3H9.9949V4.99854H6.41173L10.9994 9.58682L10.2928 10.2934L9.58618 11L4.99854 6.41173V9.9949H3V3ZM20.9994 21H14.0045V19.0015H17.5877L13 14.4132L13.7066 13.7066L14.4132 13L19.0008 17.5883V14.0051H20.9994V21ZM20.9994 3H14.0045V4.99854H17.5877L13 9.58682L13.7066 10.2934L14.4132 11L19.0008 6.41173V9.9949H20.9994V3ZM3 21H9.9949V19.0015H6.41173L10.9994 14.4132L10.2928 13.7066L9.58618 13L4.99854 17.5883V14.0051H3V21Z" fill="black"/>
</svg>
