<svg width="24" height="24" viewBox="0 0 24 24" fill="none" xmlns="http://www.w3.org/2000/svg">
<path fill-rule="evenodd" clip-rule="evenodd" d="M4 12C4 7.58172 7.58172 4 12 4C16.4183 4 20 7.58172 20 12C20 16.4183 16.4183 20 12 20C7.58172 20 4 16.4183 4 12ZM12 2C6.47715 2 2 6.47715 2 12C2 17.5228 6.47715 22 12 22C17.5228 22 22 17.5228 22 12C22 6.47715 17.5228 2 12 2ZM17.0172 11.0526L10.8459 10.9987L13.4541 8.4356L12.0523 7.0091L7.00887 11.9653L11.965 17.0088L13.3915 15.607L10.8284 12.9987L16.9998 13.0525L17.0172 11.0526Z" fill="black"/>
</svg>
