<svg width="24" height="24" viewBox="0 0 24 24" fill="none" xmlns="http://www.w3.org/2000/svg">
<path fill-rule="evenodd" clip-rule="evenodd" d="M11.9999 2L15.9999 6L14.5857 7.41421L12.9999 5.82843L13 9.00002H11L10.9999 5.82843L9.41415 7.41421L7.99994 6L11.9999 2ZM5.82843 13L7.41421 14.5858L6 16L2 12L6 8L7.41421 9.41421L5.82843 11L8.99996 11V13L5.82843 13ZM18.1715 11L16.5857 9.41421L17.9999 8L21.9999 12L17.9999 16L16.5857 14.5858L18.1715 13L15 13V11L18.1715 11ZM10.9999 18.1716L11 15H13L12.9999 18.1716L14.5857 16.5858L15.9999 18L11.9999 22L7.99993 18L9.41415 16.5858L10.9999 18.1716Z" fill="black"/>
</svg>
