<svg width="24" height="24" viewBox="0 0 24 24" fill="none" xmlns="http://www.w3.org/2000/svg">
<path fill-rule="evenodd" clip-rule="evenodd" d="M22 2H17L18.7929 3.79289L17.3836 5.20223C16.8301 4.94449 16.2237 4.7998 15.6 4.7998C13.3925 4.7998 12 6 12 6C12 6 10.6836 4.7998 8.4 4.7998C6 4.7998 4 6.75855 4 9.1748C4 10.1597 4.29756 11.0686 4.79971 11.7998C5.10128 12.2389 6.38372 13.5788 7.78486 15H5L4 16L5.5 17H3L2 18L5 19L6 22L7 21V18.5L8 20L9 19V16.2242C10.5842 17.8107 12.0031 19.1998 12.0031 19.1998C12.0031 19.1998 18.4702 12.8626 19.2 11.8002C19.7023 11.069 20 10.1599 20 9.1748C20 8.14708 19.6103 7.18958 18.9802 6.43397L20.2071 5.20711L22 7V2ZM10.5092 14.905L13.7071 11.7071C14.0976 11.3166 14.0976 10.6834 13.7071 10.2929C13.3166 9.90237 12.6834 9.90237 12.2929 10.2929L9.10032 13.4855C8.17339 12.5439 7.31178 11.6491 6.80704 11.0868C6.31433 10.538 6 9.93857 6 9.1748C6 7.88269 7.0849 6.7998 8.4 6.7998C9.96938 6.7998 10.8697 7.67597 11.9627 8.67249C13.0734 7.71524 14.045 6.7998 15.6 6.7998C16.8455 6.7998 18 7.93541 18 9.1748C18 10.4132 17.117 11.1887 16.3201 12.0245C15.0678 13.3379 13.2502 15.1544 12.0024 16.3911C11.5597 15.9527 11.0453 15.4416 10.5092 14.905Z" fill="black"/>
</svg>
