<svg width="24" height="24" viewBox="0 0 24 24" fill="none" xmlns="http://www.w3.org/2000/svg">
<path fill-rule="evenodd" clip-rule="evenodd" d="M17 2H22V7L20.2071 5.20711L18.9802 6.43397C19.6103 7.18958 20 8.14708 20 9.1748C20 10.1599 19.7023 11.069 19.2 11.8002C18.4702 12.8626 12.0031 19.1998 12.0031 19.1998C12.0031 19.1998 11.206 18.4194 10.1396 17.3604L13.75 13.75C14.7165 12.7835 14.7165 11.2165 13.75 10.25C12.7835 9.2835 11.2165 9.2835 10.25 10.25L6.6557 13.8443C5.74296 12.8996 5.01691 12.1161 4.79971 11.7998C4.29756 11.0686 4 10.1597 4 9.1748C4 6.75855 6 4.7998 8.4 4.7998C10.6836 4.7998 12 6 12 6C12 6 13.3925 4.7998 15.6 4.7998C16.2237 4.7998 16.8301 4.94449 17.3836 5.20223L18.7929 3.79289L17 2ZM9 16.4142L12.7071 12.7071C13.0976 12.3166 13.0976 11.6834 12.7071 11.2929C12.3166 10.9024 11.6834 10.9024 11.2929 11.2929L7.58579 15H5L4 16L5.5 17H3L2 18L5 19L6 22L7 21V18.5L8 20L9 19V16.4142Z" fill="black"/>
</svg>
