<svg width="24" height="24" viewBox="0 0 24 24" fill="none" xmlns="http://www.w3.org/2000/svg">
<path fill-rule="evenodd" clip-rule="evenodd" d="M12 5C8.13401 5 5 8.13401 5 12C5 15.866 8.13401 19 12 19C13.2767 19 14.4707 18.6591 15.4993 18.0641L16.5007 19.7953C15.1759 20.5617 13.6376 21 12 21C7.02944 21 3 16.9706 3 12C3 7.02944 7.02944 3 12 3C16.9706 3 21 7.02944 21 12V14C21 15.6569 19.6569 17 18 17C16.9334 17 15.9968 16.4434 15.4649 15.6048C14.5662 16.4688 13.3451 17 12 17C9.23858 17 7 14.7614 7 12C7 9.23858 9.23858 7 12 7C13.3814 7 14.6336 7.56153 15.5375 8.46638L14.1225 9.87983C13.5784 9.33516 12.8293 9 12 9C10.3431 9 9 10.3431 9 12C9 13.6569 10.3431 15 12 15C13.6569 15 15 13.6569 15 12V11H17V14C17 14.5523 17.4477 15 18 15C18.5523 15 19 14.5523 19 14V12C19 8.13401 15.866 5 12 5Z" fill="black"/>
</svg>
