<svg width="24" height="24" viewBox="0 0 24 24" fill="none" xmlns="http://www.w3.org/2000/svg">
<path fill-rule="evenodd" clip-rule="evenodd" d="M9.31995 2.98706C10.8643 1.67098 13.1357 1.67098 14.68 2.98706L14.8462 3.12866L15.0638 3.14602C17.0864 3.30743 18.6926 4.91356 18.854 6.93618L18.8713 7.1538L19.0129 7.31995C20.329 8.8643 20.329 11.1357 19.0129 12.68L18.8713 12.8462L18.854 13.0638C18.7733 14.0751 18.3314 14.9823 17.6569 15.6569L20 18L16 22L12 18L8 22L4 18L6.34315 15.6569C5.66861 14.9823 5.22673 14.0751 5.14602 13.0638L5.12866 12.8462L4.98706 12.68C3.67098 11.1357 3.67098 8.8643 4.98706 7.31995L5.12866 7.1538L5.14602 6.93618C5.30743 4.91356 6.91356 3.30743 8.93618 3.14602L9.1538 3.12866L9.31995 2.98706ZM16 10C16 12.2091 14.2091 14 12 14C9.79086 14 8 12.2091 8 10C8 7.79086 9.79086 6 12 6C14.2091 6 16 7.79086 16 10ZM18 10C18 13.3137 15.3137 16 12 16C8.68629 16 6 13.3137 6 10C6 6.68629 8.68629 4 12 4C15.3137 4 18 6.68629 18 10Z" fill="black"/>
</svg>
