<svg width="24" height="24" viewBox="0 0 24 24" fill="none" xmlns="http://www.w3.org/2000/svg">
<path fill-rule="evenodd" clip-rule="evenodd" d="M9.3581 2.98654C10.8954 1.67115 13.1565 1.67115 14.6938 2.98654L14.8592 3.12806L15.0758 3.14541C17.0892 3.30674 18.688 4.91201 18.8487 6.93356L18.866 7.15106L19.0069 7.31713C20.317 8.86065 20.317 11.1309 19.0069 12.6744L18.866 12.8405L18.8487 13.058C18.7766 13.9652 18.4148 14.7886 17.8559 15.4353L20 17.5881L15.6059 22L12.1113 18.4912H11.9363L8.39653 21.995L4 17.5807L6.18962 15.4279C5.63432 14.7824 5.27502 13.9618 5.20318 13.058L5.1859 12.8405L5.04494 12.6744C3.73486 11.1309 3.73486 8.86065 5.04494 7.31713L5.1859 7.15106L5.20318 6.93356C5.36385 4.91201 6.96267 3.30674 8.97607 3.14541L9.1927 3.12806L9.3581 2.98654ZM7.84981 16.5934L6.83042 17.5956L8.40655 19.1781L10.0938 17.5081C9.83553 17.37 9.58867 17.2023 9.3581 17.005L9.1927 16.8635L8.97607 16.8461C8.58224 16.8145 8.20426 16.7277 7.84981 16.5934ZM13.9513 17.5117L15.6059 19.1731L17.1845 17.5881L16.196 16.5957C15.8433 16.7287 15.4674 16.8147 15.0758 16.8461L14.8592 16.8635L14.6938 17.005C14.4612 17.204 14.212 17.3729 13.9513 17.5117ZM10.0251 4.73884C11.178 3.75231 12.8738 3.75231 14.0268 4.73884L14.1509 4.84498L14.3133 4.858C15.8234 4.97899 17.0225 6.18295 17.143 7.69911L17.156 7.86224L17.2617 7.98679C18.2442 9.14443 18.2442 10.8471 17.2617 12.0047L17.156 12.1293L17.143 12.2924C17.0225 13.8086 15.8234 15.0125 14.3133 15.1335L14.1509 15.1465L14.0268 15.2527C12.8738 16.2392 11.178 16.2392 10.0251 15.2527L9.90101 15.1465L9.73854 15.1335C8.22848 15.0125 7.02937 13.8086 6.90887 12.2924L6.89591 12.1293L6.79019 12.0047C5.80763 10.8471 5.80763 9.14443 6.79019 7.98679L6.89591 7.86224L6.90887 7.69911C7.02937 6.18295 8.22848 4.97899 9.73854 4.858L9.90101 4.84498L10.0251 4.73884ZM15.944 9.27949C15.2167 8.49064 14.1765 7.99682 13.0214 7.99682C10.8223 7.99682 9.0396 9.78673 9.0396 11.9947C9.0396 12.2392 9.06146 12.4786 9.10333 12.711C8.44595 11.998 8.04416 11.044 8.04416 9.99576C8.04416 7.78779 9.82686 5.99788 12.0259 5.99788C13.9815 5.99788 15.6078 7.41332 15.944 9.27949Z" fill="black"/>
</svg>
