<svg width="24" height="24" viewBox="0 0 24 24" fill="none" xmlns="http://www.w3.org/2000/svg">
<path fill-rule="evenodd" clip-rule="evenodd" d="M8.7335 3C8.04392 3 7.40298 3.35524 7.0375 3.94L2 12L7.0375 20.06C7.40298 20.6448 8.04392 21 8.73349 21H19C20.1046 21 21 20.1046 21 19V5C21 3.89543 20.1046 3 19 3H8.7335ZM8.7335 5L19 5V19H8.7335L4.3585 12L8.7335 5ZM9 14.5901L11.5887 12L9 9.40988L10.4135 8L13 10.5879L15.5865 8L17 9.40988L14.4113 12L17 14.5901L15.5865 16L13 13.4121L10.4135 16L9 14.5901Z" fill="black"/>
</svg>
