<svg width="24" height="24" viewBox="0 0 24 24" fill="none" xmlns="http://www.w3.org/2000/svg">
<path fill-rule="evenodd" clip-rule="evenodd" d="M15.2665 3C15.9561 3 16.597 3.35524 16.9625 3.94L22 12L16.9625 20.06C16.597 20.6448 15.9561 21 15.2665 21H5C3.89543 21 3 20.1046 3 19V5C3 3.89543 3.89543 3 5 3H15.2665ZM15.2665 5H5V19H15.2665L19.6415 12L15.2665 5ZM6.99999 14.5901L9.58867 12L6.99999 9.40988L8.41352 8L11 10.5879L13.5865 8L15 9.40988L12.4113 12L15 14.5901L13.5865 16L11 13.4121L8.41352 16L6.99999 14.5901Z" fill="black"/>
</svg>
