<svg width="24" height="24" viewBox="0 0 24 24" fill="none" xmlns="http://www.w3.org/2000/svg">
<path fill-rule="evenodd" clip-rule="evenodd" d="M12 4C10.8954 4 10 4.89543 10 6H14C14 4.89543 13.1046 4 12 4ZM12 2C9.79086 2 8 3.79086 8 6H3L3.86986 19.2137C3.982 20.7837 5.28832 22 6.86224 22H17.1378C18.7117 22 20.018 20.7837 20.1301 19.2137L21 6H16C16 3.79086 14.2091 2 12 2ZM5.14795 8L5.86478 19.0713C5.90216 19.5946 6.3376 20 6.86224 20H17.1378C17.6624 20 18.0978 19.5946 18.1352 19.0713L18.852 8H5.14795ZM12 17C12 17 9.30404 14.4049 8.99996 14.0002C8.79066 13.7216 8.66663 13.3753 8.66663 13C8.66663 12.0796 9.41282 11.3334 10.3333 11.3334C10.7086 11.3334 11.0549 11.4574 11.3335 11.6667C11.5622 11.8386 12.003 12.2342 12.003 12.2342C12.003 12.2342 12.4377 11.8386 12.6665 11.6667C12.945 11.4574 13.2914 11.3334 13.6666 11.3334C14.5871 11.3334 15.3333 12.0796 15.3333 13C15.3333 13.3753 15.2093 13.7216 15 14.0002C14.6959 14.4049 12 17 12 17Z" fill="black"/>
</svg>
