<svg width="24" height="24" viewBox="0 0 24 24" fill="none" xmlns="http://www.w3.org/2000/svg">
<path fill-rule="evenodd" clip-rule="evenodd" d="M12 4C10.8954 4 10 4.89543 10 6H14C14 4.89543 13.1046 4 12 4ZM12 2C9.79086 2 8 3.79086 8 6H3L3.8242 19.1871C3.92301 20.7682 5.23416 22 6.81835 22H17.1816C18.7658 22 20.077 20.7682 20.1758 19.1871L21 6H16C16 3.79086 14.2091 2 12 2ZM14.2928 10.293L12 12.5859L9.70706 10.293L8.29285 11.7072L10.5857 14.0001L8.29285 16.293L9.70706 17.7072L12 15.4143L14.2928 17.7072L15.7071 16.293L13.4142 14.0001L15.7071 11.7072L14.2928 10.293Z" fill="black"/>
</svg>
