<svg width="24" height="24" viewBox="0 0 24 24" fill="none" xmlns="http://www.w3.org/2000/svg">
<path fill-rule="evenodd" clip-rule="evenodd" d="M12 4C10.8954 4 10 4.89543 10 6H14C14 4.89543 13.1046 4 12 4ZM12 2C9.79086 2 8 3.79086 8 6H3L3.86986 19.2137C3.982 20.7837 5.28832 22 6.86224 22H17.1378C18.7117 22 20.018 20.7837 20.1301 19.2137L21 6H16C16 3.79086 14.2091 2 12 2ZM5.14795 8L5.86478 19.0713C5.90216 19.5946 6.3376 20 6.86224 20H17.1378C17.6624 20 18.0978 19.5946 18.1352 19.0713L18.852 8H5.14795ZM8 16.5901L10.5887 14L8 11.4099L9.41354 10L12 12.5879L14.5865 10L16 11.4099L13.4113 14L16 16.5901L14.5865 18L12 15.4121L9.41354 18L8 16.5901Z" fill="black"/>
</svg>
