<svg width="24" height="24" viewBox="0 0 24 24" fill="none" xmlns="http://www.w3.org/2000/svg">
<path fill-rule="evenodd" clip-rule="evenodd" d="M12 4C10.8954 4 10 4.89543 10 6H14C14 4.89543 13.1046 4 12 4ZM12 2C9.79086 2 8 3.79086 8 6H3L3.8242 19.1871C3.92301 20.7682 5.23416 22 6.81835 22H17.1816C18.7658 22 20.077 20.7682 20.1758 19.1871L21 6H16C16 3.79086 14.2091 2 12 2ZM10 10C10 11.1046 10.8954 12 12 12C13.1046 12 14 11.1046 14 10V9H16V10C16 12.2091 14.2091 14 12 14C9.79086 14 8 12.2091 8 10V9H10V10Z" fill="black"/>
</svg>
