<svg width="24" height="24" viewBox="0 0 24 24" fill="none" xmlns="http://www.w3.org/2000/svg">
<path fill-rule="evenodd" clip-rule="evenodd" d="M12 4C10.8954 4 10 4.89543 10 6H14C14 4.89543 13.1046 4 12 4ZM12 2C9.79086 2 8 3.79086 8 6H3L3.8242 19.1871C3.92301 20.7682 5.23416 22 6.81835 22H17.1816C18.7658 22 20.077 20.7682 20.1758 19.1871L21 6H16C16 3.79086 14.2091 2 12 2ZM12.003 16.78C12.003 16.78 9.30408 14.4049 9 14.0002C8.7907 13.7216 8.66667 13.3753 8.66667 13C8.66667 12.0795 9.41286 11.3333 10.3333 11.3333C10.7086 11.3333 11.0549 11.4574 11.3335 11.6667C11.5623 11.8385 12.003 12.2341 12.003 12.2341C12.003 12.2341 12.4377 11.8385 12.6665 11.6667C12.9451 11.4574 13.2914 11.3333 13.6667 11.3333C14.5871 11.3333 15.3333 12.0795 15.3333 13C15.3333 13.3753 15.2093 13.7216 15 14.0002C14.6959 14.4049 12.003 16.78 12.003 16.78Z" fill="black"/>
</svg>
