<svg width="24" height="24" viewBox="0 0 24 24" fill="none" xmlns="http://www.w3.org/2000/svg">
<path fill-rule="evenodd" clip-rule="evenodd" d="M3 6.55556C3 4.03959 5.03959 2 7.55556 2C9.04021 2 10.3382 2.60191 11.2218 3.15036C11.5219 3.33665 11.7838 3.5227 12 3.68835C12.2162 3.5227 12.4781 3.33665 12.7782 3.15036C13.6618 2.60191 14.9598 2 16.4444 2C18.9604 2 21 4.03959 21 6.55556C21 8.99913 19.3076 11.0146 17.5987 12.5919C16.7428 13.3818 15.8159 14.1201 14.9742 14.7905L14.9742 14.7905L14.9741 14.7906L14.9086 14.8428C14.3218 15.3102 13.7867 15.7381 13.3266 16.1381C13.4338 16.3299 13.5294 16.5295 13.6115 16.728C13.8315 17.26 13.9999 17.8931 13.9999 18.5C13.9999 19.3942 13.658 20.2917 12.9748 20.9749C11.608 22.3417 9.39191 22.3417 8.02507 20.9749L9.43928 19.5607C10.0251 20.1464 10.9748 20.1464 11.5606 19.5607C11.8537 19.2676 11.9999 18.8854 11.9999 18.5C11.9999 18.2341 11.9184 17.8672 11.7633 17.4924C11.6062 17.1123 11.419 16.8333 11.2928 16.7071L11.2928 16.7071C10.7251 16.1479 9.9656 15.5391 9.09144 14.8428L9.0259 14.7906C8.18416 14.1202 7.25721 13.3819 6.40131 12.5919C4.69239 11.0146 3 8.99913 3 6.55556ZM8.93564 6.06396C8.0081 6.27798 7.27798 7.0081 7.06396 7.93564C6.4482 7.74886 6 7.17677 6 6.5C6 5.67157 6.67157 5 7.5 5C8.17677 5 8.74886 5.4482 8.93564 6.06396Z" fill="black"/>
</svg>
