<svg width="24" height="24" viewBox="0 0 24 24" fill="none" xmlns="http://www.w3.org/2000/svg">
<path fill-rule="evenodd" clip-rule="evenodd" d="M16.7743 14.2392C15.8833 15.1555 14.8015 15.926 13.7564 16.6167C13.9041 16.7465 14.0436 16.8816 14.1714 17.0226C14.6361 17.5352 15 18.187 15 19C15 20.2918 14.0276 22 12 22V20C12.3622 20 12.5893 19.8608 12.7415 19.6832C12.9136 19.4824 13 19.2154 13 19C13 18.834 12.9379 18.6398 12.6895 18.3658C12.4259 18.0748 12.0195 17.7695 11.4572 17.406C11.218 17.2515 10.9513 17.0878 10.667 16.9133L10.667 16.9133L10.667 16.9133C9.65935 16.2949 8.43012 15.5405 7.41978 14.573C6.06249 13.2733 5 11.517 5 9C5 5.13401 8.13401 2 12 2C15.866 2 19 5.13401 19 9C19 11.2494 18.057 12.9204 16.7743 14.2392ZM10.0397 11.3667C10.3247 9.11169 12.1117 7.32475 14.3667 7.03972C13.8049 6.4022 12.9823 6 12.0658 6C10.3726 6 9 7.37259 9 9.06577C9 9.98231 9.4022 10.8049 10.0397 11.3667Z" fill="black"/>
</svg>
