<svg width="24" height="24" viewBox="0 0 24 24" fill="none" xmlns="http://www.w3.org/2000/svg">
<path fill-rule="evenodd" clip-rule="evenodd" d="M5 6.55556C5 5.14416 6.14416 4 7.55556 4C8.51534 4 9.43959 4.39809 10.1671 4.84964C10.8638 5.28208 11.4233 5.83772 12 6.41421C12.5761 5.83808 13.1353 5.28264 13.8329 4.84964C14.5604 4.39809 15.4847 4 16.4444 4C17.8558 4 19 5.14416 19 6.55556C19 8.07775 17.9197 9.57398 16.2422 11.1222C14.8903 12.37 13.3859 13.4342 12 14.6415C10.6141 13.4342 9.10969 12.37 7.75779 11.1222C6.08034 9.57397 5 8.07775 5 6.55556ZM13.3266 16.1381C14.724 14.9234 16.2366 13.8491 17.5987 12.5919C19.3076 11.0146 21 8.99913 21 6.55556C21 4.03959 18.9604 2 16.4444 2C14.8199 2 13.2711 2.71445 12 3.68835C10.7289 2.71445 9.18006 2 7.55556 2C5.03959 2 3 4.03959 3 6.55556C3 8.99913 4.69239 11.0146 6.40131 12.5919C7.96773 14.0377 9.77681 15.213 11.2949 16.7091C11.7193 17.1368 12 17.9036 12 18.5C12 19.7893 10.3732 20.4946 9.43934 19.5607L8.02513 20.9749C9.39196 22.3417 11.608 22.3417 12.9749 20.9749C13.6581 20.2917 14 19.3942 14 18.5C14 17.6782 13.7259 16.8517 13.3266 16.1381ZM7.06396 7.93564C7.27798 7.0081 8.0081 6.27798 8.93564 6.06396C8.74886 5.4482 8.17677 5 7.5 5C6.67157 5 6 5.67157 6 6.5C6 7.17677 6.4482 7.74886 7.06396 7.93564Z" fill="black"/>
</svg>
