<svg width="24" height="24" viewBox="0 0 24 24" fill="none" xmlns="http://www.w3.org/2000/svg">
<path fill-rule="evenodd" clip-rule="evenodd" d="M20.464 3.53738C18.4154 1.48798 15.0941 1.48748 13.0449 3.53626L3.53714 13.042C1.48805 15.0907 1.48756 18.4133 3.53603 20.4626C5.58462 22.512 8.9059 22.5125 10.9551 20.4637L20.4629 10.958C22.5119 8.90934 22.5124 5.58665 20.464 3.53738ZM12.0503 6.94978L17.0503 11.9498L18.4646 10.5356L13.4646 5.53557L12.0503 6.94978ZM12.4646 16.5356L7.46455 11.5356L6.05034 12.9498L11.0503 17.9498L12.4646 16.5356ZM13.2574 9.74268C13.2574 10.295 12.8097 10.7427 12.2574 10.7427C11.7052 10.7427 11.2574 10.295 11.2574 9.74268C11.2574 9.19039 11.7052 8.74268 12.2574 8.74268C12.8097 8.74268 13.2574 9.19039 13.2574 9.74268ZM14.2574 12.7427C14.8097 12.7427 15.2574 12.295 15.2574 11.7427C15.2574 11.1904 14.8097 10.7427 14.2574 10.7427C13.7052 10.7427 13.2574 11.1904 13.2574 11.7427C13.2574 12.295 13.7052 12.7427 14.2574 12.7427ZM13.2574 13.7427C13.2574 14.295 12.8097 14.7427 12.2574 14.7427C11.7052 14.7427 11.2574 14.295 11.2574 13.7427C11.2574 13.1904 11.7052 12.7427 12.2574 12.7427C12.8097 12.7427 13.2574 13.1904 13.2574 13.7427ZM10.2574 12.7427C10.8097 12.7427 11.2574 12.295 11.2574 11.7427C11.2574 11.1904 10.8097 10.7427 10.2574 10.7427C9.70516 10.7427 9.25745 11.1904 9.25745 11.7427C9.25745 12.295 9.70516 12.7427 10.2574 12.7427Z" fill="black"/>
</svg>
