<svg width="24" height="24" viewBox="0 0 24 24" fill="none" xmlns="http://www.w3.org/2000/svg">
<path fill-rule="evenodd" clip-rule="evenodd" d="M14.4574 4.96556C15.7251 3.69817 17.7796 3.69848 19.0469 4.96625C20.3137 6.23356 20.3134 8.28838 19.0462 9.55531L18.0077 10.5936L13.4185 6.00428L14.4574 4.96556ZM12.0041 7.41834L7.41783 12.0036L12.0071 16.5929L16.5934 12.0076L12.0041 7.41834ZM10.5927 18.007L6.00347 13.4177L4.94965 14.4713C3.68246 15.7382 3.68215 17.793 4.94896 19.0604C6.21624 20.3281 8.2708 20.3284 9.53846 19.0611L10.5927 18.007ZM20.4619 3.55068C18.4133 1.50128 15.092 1.50078 13.0428 3.54957L3.53507 13.0553C1.48598 15.104 1.48548 18.4267 3.53395 20.4759C5.58255 22.5253 8.90383 22.5258 10.953 20.477L20.4608 10.9713C22.5099 8.92264 22.5104 5.59996 20.4619 3.55068ZM11 10C11 10.5523 11.4477 11 12 11C12.5523 11 13 10.5523 13 10C13 9.44775 12.5523 9.00003 12 9.00003C11.4477 9.00003 11 9.44775 11 10ZM15 12C15 12.5523 14.5523 13 14 13C13.4477 13 13 12.5523 13 12C13 11.4477 13.4477 11 14 11C14.5523 11 15 11.4477 15 12ZM11 14C11 14.5523 11.4477 15 12 15C12.5523 15 13 14.5523 13 14C13 13.4477 12.5523 13 12 13C11.4477 13 11 13.4477 11 14ZM11 12C11 12.5523 10.5523 13 10 13C9.44772 13 9 12.5523 9 12C9 11.4477 9.44772 11 10 11C10.5523 11 11 11.4477 11 12Z" fill="black"/>
</svg>
