<svg width="24" height="24" viewBox="0 0 24 24" fill="none" xmlns="http://www.w3.org/2000/svg">
<path fill-rule="evenodd" clip-rule="evenodd" d="M19 5.88889V4H20L19.5 3L20 2H17V4.77778L12 2L3 7L3.77208 9.31623C3.8202 9.46061 3.89909 9.58838 4 9.69323V17C4 18.1046 3.10457 19 2 19V21H22V19C20.8954 19 20 18.1046 20 17V9.69323C20.1009 9.58838 20.1798 9.46061 20.2279 9.31623L21 7L19 5.88889ZM18 10H16V19H18.5351C18.5173 18.9691 18.4998 18.938 18.4828 18.9066C18.1749 18.3399 18 17.6904 18 17V10ZM14 10H10V19H14V10ZM8 10H6V17C6 17.7286 5.80521 18.4117 5.46487 19H8V10ZM13 6C13 6.55228 12.5523 7 12 7C11.4477 7 11 6.55228 11 6C11 5.44772 11.4477 5 12 5C12.5523 5 13 5.44772 13 6Z" fill="black"/>
</svg>
