<svg width="24" height="24" viewBox="0 0 24 24" fill="none" xmlns="http://www.w3.org/2000/svg">
<path fill-rule="evenodd" clip-rule="evenodd" d="M12 1.99849L17 4.38198V2.00001H20L19.5 3.00001L20 4.00001H19V5.38198L21.3416 6.5528L20 9.23608V17C20 18.1046 20.8954 19 22 19V21H2V19C3.10457 19 4 18.1046 4 17V9.23608L2.65836 6.5528L12 1.99849ZM16 19V10H18V17C18 17.7286 18.1948 18.4117 18.5351 19H16ZM10 10H14V19H10V10ZM6 10H8V19H5.46487C5.80521 18.4117 6 17.7286 6 17V10ZM12 4.11805L5.34164 7.44723L5.61803 8.00001H18.382L18.6584 7.44723L12 4.11805ZM13 6.00001C13 6.5523 12.5523 7.00001 12 7.00001C11.4477 7.00001 11 6.5523 11 6.00001C11 5.44773 11.4477 5.00001 12 5.00001C12.5523 5.00001 13 5.44773 13 6.00001Z" fill="black"/>
</svg>
