<svg width="24" height="24" viewBox="0 0 24 24" fill="none" xmlns="http://www.w3.org/2000/svg">
<path fill-rule="evenodd" clip-rule="evenodd" d="M20 9.54854V11.583C19.3503 12.0559 18.895 12.7852 18.7887 13.6345L18.2267 18.1266C18.1642 18.6266 17.7388 19.0018 17.2344 19.0018H6.76556C6.26124 19.0018 5.83584 18.6266 5.77329 18.1266L5.21127 13.6345C5.105 12.7852 4.64969 12.0559 4 11.583V9.54854H20ZM17.7625 7.55034H6.25199L8.70255 4.07549L7.01695 3L3.80793 7.55034H2V13.0072H2.23444C2.73876 13.0072 3.16416 13.3824 3.22671 13.8824L3.78873 18.3745C3.97639 19.8744 5.25259 21 6.76556 21H17.2344C18.7474 21 20.0236 19.8744 20.2113 18.3745L20.7733 13.8824C20.8358 13.3824 21.2612 13.0072 21.7656 13.0072H22V7.55034H20.1983L17.0252 3.00523L15.333 4.07026L17.7625 7.55034ZM7 13.0012V16.9976H9V13.0012H7ZM11 13.0012V16.9976H13V13.0012H11ZM15 13.0012V16.9976H17V13.0012H15Z" fill="black"/>
</svg>
