<svg width="24" height="24" viewBox="0 0 24 24" fill="none" xmlns="http://www.w3.org/2000/svg">
<path fill-rule="evenodd" clip-rule="evenodd" d="M22 8H19.6056L16.9912 2.99854L15.2187 3.92506L17.3489 8H6.6509L8.77691 3.93167L7.00435 3.00537L4.39427 8H2V13.2053L4.82111 19.7878C5.13626 20.5232 5.85934 21 6.6594 21H17.3406C18.1407 21 18.8637 20.5232 19.1789 19.7878L22 13.2053V8ZM4 10V12.7947L6.6594 19H17.3406L20 12.7947V10H4ZM7 12V16H9V12H7ZM11 12V17H13V12H11ZM15 12V16H17V12H15Z" fill="black"/>
</svg>
