<svg width="24" height="24" viewBox="0 0 24 24" fill="none" xmlns="http://www.w3.org/2000/svg">
<path fill-rule="evenodd" clip-rule="evenodd" d="M4.4524 7H3H2V8V12V13H3H3.21922L4.65113 18.7276C4.985 20.0631 6.18495 21 7.56155 21H16.4384C17.8151 21 19.015 20.0631 19.3489 18.7276L20.7808 13H21H22V12V8V7H21H19.5484L17.0009 3.00433L15.3145 4.07952L17.1765 7H6.82613L8.69241 4.08054L7.0073 3.00333L4.4524 7ZM18.7192 13H15V17H13V13H11V17H9V13H5.28078L6.59141 18.2425C6.7027 18.6877 7.10268 19 7.56155 19H16.4384C16.8973 19 17.2973 18.6877 17.4086 18.2425L18.7192 13ZM4 11V9H20V11H4Z" fill="black"/>
</svg>
