<svg width="24" height="24" viewBox="0 0 24 24" fill="none" xmlns="http://www.w3.org/2000/svg">
<path fill-rule="evenodd" clip-rule="evenodd" d="M7.28422 7.33325C7.97109 5.38991 9.8245 4 12 4C13.786 4 15.355 4.93687 16.2396 6.34769L7.0083 15.5796C6.25944 15.4225 5.57076 15.2209 4.87488 14.9742C5.37725 13.902 5.76142 12.7714 6.06108 11.6701C6.17629 11.2466 6.2839 10.8302 6.39018 10.419C6.66195 9.36742 6.92501 8.34956 7.28422 7.33325ZM5.40179 17.1862L3 19.5881L3.70646 20.2953L4.41292 21.0024L7.70397 17.7111C8.19909 17.7942 8.70014 17.8579 9.20842 17.8991C9.0739 18.24 9 18.6114 9 19C9 20.6569 10.3431 22 12 22C13.6569 22 15 20.6569 15 19C15 18.6114 14.9261 18.24 14.7916 17.8991C17.319 17.6941 19.6674 16.9331 22 16C21.0734 14.4556 20.3448 12.8945 19.8687 11.145C19.7679 10.7745 19.6686 10.3901 19.567 9.99698C19.297 8.95216 19.0111 7.84587 18.6393 6.77504L21 4.41421L20.2935 3.70711L19.5871 3L17.6795 4.9077C16.4087 3.14693 14.339 2 12 2C8.95056 2 6.35901 3.94932 5.39854 6.66675C5.00818 7.77117 4.71207 8.91701 4.43293 9.99714C4.33136 10.3902 4.23203 10.7745 4.13123 11.145C3.65522 12.8945 2.92662 14.4556 2 16C3.12419 16.4497 4.25202 16.8594 5.40179 17.1862ZM17.0506 8.36391C17.2535 9.04035 17.4297 9.72224 17.6098 10.4189C17.7161 10.8302 17.8237 11.2466 17.9389 11.6701C18.2386 12.7715 18.6227 13.902 19.1251 14.9742C17.1825 15.6628 15.2959 16 12 16C11.063 16 10.2399 15.9727 9.49704 15.9179L17.0506 8.36391ZM11 19C11 18.4477 11.4477 18 12 18C12.5523 18 13 18.4477 13 19C13 19.5523 12.5523 20 12 20C11.4477 20 11 19.5523 11 19Z" fill="black"/>
</svg>
