<svg width="24" height="24" viewBox="0 0 24 24" fill="none" xmlns="http://www.w3.org/2000/svg">
<path fill-rule="evenodd" clip-rule="evenodd" d="M12 4C9.8245 4 7.97109 5.38991 7.28422 7.33325C6.78453 8.747 6.47091 10.1638 6.06108 11.6701C5.76142 12.7714 5.37725 13.902 4.87488 14.9742C6.81749 15.6628 8.70399 16 12 16C15.2959 16 17.1825 15.6628 19.1251 14.9742C18.6227 13.902 18.2386 12.7715 17.9389 11.6701C17.5291 10.1638 17.2154 8.74703 16.7157 7.33325C16.0288 5.38991 14.1754 4 12 4ZM5.39854 6.66675C6.35901 3.94932 8.95056 2 12 2C15.0494 2 17.6409 3.94932 18.6014 6.66675C19.1338 8.17308 19.4909 9.7564 19.8687 11.145C20.3448 12.8945 21.0734 14.4556 22 16C19.6674 16.9331 17.319 17.6941 14.7916 17.8991C14.9261 18.24 15 18.6114 15 19C15 20.6569 13.6569 22 12 22C10.3431 22 9 20.6569 9 19C9 18.6114 9.0739 18.24 9.20842 17.8991C6.68098 17.6941 4.33264 16.9331 2 16C2.92662 14.4556 3.65522 12.8945 4.13123 11.145C4.50903 9.75642 4.86614 8.17306 5.39854 6.66675ZM12 18C11.4477 18 11 18.4477 11 19C11 19.5523 11.4477 20 12 20C12.5523 20 13 19.5523 13 19C13 18.4477 12.5523 18 12 18ZM11.0555 8.66623C11.1935 8.27579 11.5674 8 11.9999 8C12.2768 8 12.5283 8.11191 12.7116 8.29655L14.1311 6.88767C13.5866 6.33907 12.8298 6 11.9999 6C10.7007 6 9.58388 6.82831 9.16984 7.99974C8.70379 9.31832 8.39713 10.6856 8.0343 12.0346L9.96566 12.5541C10.3151 11.255 10.6067 9.93599 11.0555 8.66623Z" fill="black"/>
</svg>
