<svg width="24" height="24" viewBox="0 0 24 24" fill="none" xmlns="http://www.w3.org/2000/svg">
<path fill-rule="evenodd" clip-rule="evenodd" d="M7.76377 17.6513C8.24733 17.7325 8.73468 17.7998 9.22711 17.8529C9.08076 18.2063 9 18.5937 9 19C9 20.6569 10.3431 22 12 22C13.6569 22 15 20.6569 15 19C15 18.5909 14.9181 18.2009 14.7698 17.8455C17.2495 17.566 19.5801 16.9187 22 16L21.3574 14.9855C20.6811 13.8582 20.2573 12.5732 19.8687 11.145C19.7679 10.7745 19.6685 10.3902 19.567 9.9971L19.5669 9.99702C19.2969 8.95221 19.011 7.84594 18.6393 6.77508L21 4.41421L20.2935 3.70711L19.5871 3L3 19.5881L3.70646 20.2953L4.41292 21.0024L7.76377 17.6513ZM16.4715 3.61429C15.2591 2.60641 13.7007 2 11.9999 2C8.9505 2 6.35895 3.94932 5.39848 6.66675C5.00811 7.7712 4.71201 8.917 4.43287 9.99712L4.43287 9.99715L4.43284 9.99726C4.33127 10.3903 4.23196 10.7746 4.13117 11.145C3.74259 12.5732 3.31883 13.8582 2.64246 14.9855L2 16C2.50809 16.2032 3.01448 16.3917 3.52077 16.565L16.4715 3.61429ZM12 18C11.4477 18 11 18.4477 11 19C11 19.5523 11.4477 20 12 20C12.5523 20 13 19.5523 13 19C13 18.4477 12.5523 18 12 18Z" fill="black"/>
</svg>
