<svg width="24" height="24" viewBox="0 0 24 24" fill="none" xmlns="http://www.w3.org/2000/svg">
<path fill-rule="evenodd" clip-rule="evenodd" d="M8.80509 6.06599C8.3752 7.19658 7.28143 8 6 8C4.34315 8 3 6.65685 3 5C3 3.34315 4.34315 2 6 2C7.30622 2 8.41746 2.83481 8.82929 4H14.2676C14.6134 3.4022 15.2597 3 16 3C17.1046 3 18 3.89543 18 5C18 6.10457 17.1046 7 16 7C15.2597 7 14.6134 6.5978 14.2676 6H12.0302C12.1918 6.26439 12.3249 6.54386 12.4345 6.8315C13.0007 8.31782 13.0003 10.2224 13 11.8823L13 12C13 13.813 13.0141 15.3531 13.4345 16.4565C13.6307 16.9717 13.8964 17.331 14.2501 17.5717C14.4784 17.7271 14.7818 17.8592 15.1949 17.934C15.6248 16.8034 16.7186 16 18 16C19.6569 16 21 17.3431 21 19C21 20.6569 19.6569 22 18 22C16.6938 22 15.5825 21.1652 15.1707 20H9.73244C9.38663 20.5978 8.74028 21 8 21C6.89543 21 6 20.1046 6 19C6 17.8954 6.89543 17 8 17C8.74028 17 9.38663 17.4022 9.73244 18H11.9698C11.8082 17.7356 11.6751 17.4561 11.5655 17.1685C10.9993 15.6822 10.9997 13.7776 11 12.1177L11 12C11 10.187 10.9859 8.64693 10.5655 7.5435C10.3693 7.02832 10.1036 6.66902 9.74988 6.42828C9.52155 6.27289 9.21819 6.14084 8.80509 6.06599Z" fill="black"/>
</svg>
