<svg width="24" height="24" viewBox="0 0 24 24" fill="none" xmlns="http://www.w3.org/2000/svg">
<path fill-rule="evenodd" clip-rule="evenodd" d="M13.9789 9.2548C13.4508 9.71871 12.7582 10 12 10C11.2418 10 10.5492 9.71871 10.0211 9.2548C9.91356 9.30147 9.8006 9.35535 9.68276 9.41708C9.12068 9.7115 8.51432 10.1499 7.95711 10.7071C7.01836 11.6458 6.28198 12.8544 6.0652 14.1946C7.19621 14.6243 8 15.7183 8 17C8 18.6569 6.65685 20 5 20C3.34315 20 2 18.6569 2 17C2 15.6748 2.8593 14.5502 4.05111 14.1532C4.28995 12.1794 5.33559 10.5002 6.54289 9.29289C7.0486 8.78719 7.59472 8.35138 8.14467 8H5.73244C5.38663 8.5978 4.74028 9 4 9C2.89543 9 2 8.10457 2 7C2 5.89543 2.89543 5 4 5C4.74028 5 5.38663 5.4022 5.73244 6H9.17071C9.58254 4.83481 10.6938 4 12 4C13.3062 4 14.4175 4.83481 14.8293 6H18.2676C18.6134 5.4022 19.2597 5 20 5C21.1046 5 22 5.89543 22 7C22 8.10457 21.1046 9 20 9C19.2597 9 18.6134 8.5978 18.2676 8H15.8553C16.4053 8.35138 16.9514 8.78719 17.4571 9.29289C18.6644 10.5002 19.71 12.1794 19.9489 14.1532C21.1407 14.5502 22 15.6748 22 17C22 18.6569 20.6569 20 19 20C17.3431 20 16 18.6569 16 17C16 15.7183 16.8038 14.6243 17.9348 14.1946C17.718 12.8544 16.9816 11.6458 16.0429 10.7071C15.4857 10.1499 14.8793 9.7115 14.3172 9.41708C14.1994 9.35535 14.0864 9.30147 13.9789 9.2548Z" fill="black"/>
</svg>
