<svg width="24" height="24" viewBox="0 0 24 24" fill="none" xmlns="http://www.w3.org/2000/svg">
<path fill-rule="evenodd" clip-rule="evenodd" d="M5 5C5 4.44772 5.44772 4 6 4C6.55228 4 7 4.44772 7 5C7 5.55228 6.55228 6 6 6C5.44772 6 5 5.55228 5 5ZM6 2C4.34315 2 3 3.34315 3 5C3 6.65685 4.34315 8 6 8C7.28143 8 8.3752 7.19658 8.80509 6.06599C9.21819 6.14084 9.52155 6.27289 9.74988 6.42828C10.1036 6.66902 10.3693 7.02832 10.5655 7.5435C10.9859 8.64693 11 10.187 11 12L11 12.1177C10.9997 13.7776 10.9993 15.6822 11.5655 17.1685C11.6751 17.4561 11.8082 17.7356 11.9698 18H9.73244C9.38663 17.4022 8.74028 17 8 17C6.89543 17 6 17.8954 6 19C6 20.1046 6.89543 21 8 21C8.74028 21 9.38663 20.5978 9.73244 20H15.1707C15.5825 21.1652 16.6938 22 18 22C19.6569 22 21 20.6569 21 19C21 17.3431 19.6569 16 18 16C16.7186 16 15.6248 16.8034 15.1949 17.934C14.7818 17.8592 14.4784 17.7271 14.2501 17.5717C13.8964 17.331 13.6307 16.9717 13.4345 16.4565C13.0141 15.3531 13 13.813 13 12L13 11.8823C13.0003 10.2224 13.0007 8.31782 12.4345 6.8315C12.3249 6.54386 12.1918 6.26439 12.0302 6H14.2676C14.6134 6.5978 15.2597 7 16 7C17.1046 7 18 6.10457 18 5C18 3.89543 17.1046 3 16 3C15.2597 3 14.6134 3.4022 14.2676 4H8.82929C8.41746 2.83481 7.30622 2 6 2ZM18 18C17.4477 18 17 18.4477 17 19C17 19.5523 17.4477 20 18 20C18.5523 20 19 19.5523 19 19C19 18.4477 18.5523 18 18 18Z" fill="black"/>
</svg>
