<svg width="24" height="24" viewBox="0 0 24 24" fill="none" xmlns="http://www.w3.org/2000/svg">
<path fill-rule="evenodd" clip-rule="evenodd" d="M13 4L12.1056 5.44721L14.382 10H8.61803L7.61803 8H9V6H6H3.5V8H5.38197L6.38944 10.0149C6.26092 10.005 6.13105 10 6 10C3.23858 10 1 12.2386 1 15C1 17.7614 3.23858 20 6 20C8.41896 20 10.4367 18.2822 10.9 16H13.1C13.5633 18.2822 15.581 20 18 20C20.7614 20 23 17.7614 23 15C23 12.2386 20.7614 10 18 10C17.5514 10 17.1166 10.0591 16.703 10.1699L14.618 6H17.5C17.7761 6 18 6.22386 18 6.5C18 6.77614 17.7761 7 17.5 7H17V9H17.5C18.8807 9 20 7.88071 20 6.5C20 5.11929 18.8807 4 17.5 4H13ZM15.8407 12.9174L17.1056 15.4472C17.3526 15.9412 17.9532 16.1414 18.4472 15.8944C18.9412 15.6474 19.1414 15.0468 18.8944 14.5528L17.6294 12.0227C17.7508 12.0077 17.8745 12 18 12C19.6569 12 21 13.3431 21 15C21 16.6569 19.6569 18 18 18C16.3431 18 15 16.6569 15 15C15 14.1911 15.3202 13.457 15.8407 12.9174ZM10.0004 12H13.9996C13.5629 12.5814 13.25 13.2611 13.1 14H10.9C10.75 13.2611 10.4371 12.5814 10.0004 12ZM8.82929 14H6C5.44772 14 5 14.4477 5 15C5 15.5523 5.44772 16 6 16H8.82929C8.41746 17.1652 7.30622 18 6 18C4.34315 18 3 16.6569 3 15C3 13.3431 4.34315 12 6 12C7.30622 12 8.41746 12.8348 8.82929 14Z" fill="black"/>
</svg>
