<svg width="24" height="24" viewBox="0 0 24 24" fill="none" xmlns="http://www.w3.org/2000/svg">
<path fill-rule="evenodd" clip-rule="evenodd" d="M19.9995 16.5482L19.9343 15.928C19.6756 14.823 18.6839 14 17.5 14C16.1193 14 15 15.1193 15 16.5C15 17.8807 16.1193 19 17.5 19C18.8646 19 19.9739 17.9066 19.9995 16.5482ZM17.5 21C15.0147 21 13 18.9853 13 16.5V13C13 12.4477 12.5523 12 12 12C11.4477 12 11 12.4477 11 13V16.5C11 18.9853 8.98528 21 6.5 21C4.01472 21 2 18.9853 2 16.5C2 16.1947 2.0304 15.8965 2.08834 15.6083L2.81701 8.68595C2.94877 7.43418 3.8379 6.42959 5 6.10824V6C5 4.34315 6.34315 3 8 3C9.65685 3 11 4.34315 11 6H13C13 4.34315 14.3431 3 16 3C17.6569 3 19 4.34315 19 6V6.10824C20.1621 6.42959 21.0512 7.43418 21.183 8.68595L21.9117 15.6083C21.9696 15.8965 22 16.1947 22 16.5C22 18.9853 19.9853 21 17.5 21ZM6.5 14C7.88071 14 9 15.1193 9 16.5C9 17.8807 7.88071 19 6.5 19C5.13538 19 4.02612 17.9066 4.00045 16.5482L4.06573 15.928C4.32438 14.823 5.31608 14 6.5 14Z" fill="black"/>
</svg>
