<svg width="24" height="24" viewBox="0 0 24 24" fill="none" xmlns="http://www.w3.org/2000/svg">
<path fill-rule="evenodd" clip-rule="evenodd" d="M8 5C7.44772 5 7 5.44772 7 6V8H5.80052C5.28876 8 4.85959 8.38637 4.80602 8.89531L4.42601 12.5054C5.04665 12.1825 5.75201 12 6.5 12C7.42903 12 8.29229 12.2815 9.00915 12.7639C9.12954 11.2174 10.4226 10 12 10C13.5774 10 14.8705 11.2174 14.9908 12.7639C15.7077 12.2815 16.571 12 17.5 12C18.248 12 18.9533 12.1825 19.574 12.5054L19.194 8.89532C19.1404 8.38637 18.7112 8 18.1995 8H17V6C17 5.44772 16.5523 5 16 5C15.4477 5 15 5.44772 15 6V8H9V6C9 5.44772 8.55228 5 8 5ZM21.9117 15.6083L21.183 8.68595C21.0512 7.43418 20.1621 6.42959 19 6.10824V6C19 4.34315 17.6569 3 16 3C14.3431 3 13 4.34315 13 6H11C11 4.34315 9.65685 3 8 3C6.34315 3 5 4.34315 5 6V6.10824C3.8379 6.42959 2.94877 7.43418 2.81701 8.68595L2.08834 15.6083C2.0304 15.8965 2 16.1947 2 16.5C2 18.9853 4.01472 21 6.5 21C8.98528 21 11 18.9853 11 16.5V13C11 12.4477 11.4477 12 12 12C12.5523 12 13 12.4477 13 13V16.5C13 18.9853 15.0147 21 17.5 21C19.9853 21 22 18.9853 22 16.5C22 16.1947 21.9696 15.8965 21.9117 15.6083ZM19.9343 15.928L19.9995 16.5482C19.9739 17.9066 18.8646 19 17.5 19C16.1193 19 15 17.8807 15 16.5C15 15.1193 16.1193 14 17.5 14C18.6839 14 19.6756 14.823 19.9343 15.928ZM4.06573 15.928L4.00045 16.5482C4.02612 17.9066 5.13538 19 6.5 19C7.88071 19 9 17.8807 9 16.5C9 15.1193 7.88071 14 6.5 14C5.31608 14 4.32438 14.823 4.06573 15.928Z" fill="black"/>
</svg>
