<svg width="24" height="24" viewBox="0 0 24 24" fill="none" xmlns="http://www.w3.org/2000/svg">
<path fill-rule="evenodd" clip-rule="evenodd" d="M5 7C5 6.44772 5.44772 6 6 6C6.55228 6 7 6.44772 7 7V16H5V7ZM4 18V20H6V18H18V20H20V18H22V16H21V7C21 5.34315 19.6569 4 18 4C17.2316 4 16.5308 4.28885 16 4.7639C15.4692 4.28885 14.7684 4 14 4C13.2316 4 12.5308 4.28885 12 4.7639C11.4692 4.28885 10.7684 4 10 4C9.23165 4 8.53076 4.28885 8 4.76389C7.46924 4.28885 6.76835 4 6 4C4.34315 4 3 5.34315 3 7V16H2V18H4ZM19 16V7C19 6.44772 18.5523 6 18 6C17.4477 6 17 6.44772 17 7V16H19ZM15 16V7C15 6.44772 14.5523 6 14 6C13.4477 6 13 6.44772 13 7V16H15ZM11 16V7C11 6.44772 10.5523 6 10 6C9.44772 6 9 6.44772 9 7V16H11Z" fill="black"/>
</svg>
