<svg width="24" height="24" viewBox="0 0 24 24" fill="none" xmlns="http://www.w3.org/2000/svg">
<path fill-rule="evenodd" clip-rule="evenodd" d="M12.0089 4.38823C15.0645 3.00003 18.0561 3.00015 19.9608 3.00022L21 3.00023L21 20H20C17.9966 20 15.2146 20.3927 12.4472 21.7764L12 22L11.5528 21.7764C8.78541 20.3927 6.00336 20 4 20H3V3.00022L4.2714 3.00005C6.572 2.99786 9.08072 2.99548 12.0089 4.38823ZM5 14.0051C6.63277 14.0297 8.76894 14.1709 11 14.9834V6.12409C8.84204 5.13127 6.96579 5.01467 5 5.00167V14.0051ZM13 14.9834C15.2311 14.1709 17.3673 14.0297 19 14.0051V5.00632C17.2703 5.03509 15.1466 5.19938 13 6.13607V14.9834ZM17 9C17 9.55229 16.5523 10 16 10C15.4477 10 15 9.55229 15 9C15 8.44772 15.4477 8 16 8C16.5523 8 17 8.44772 17 9ZM5 18.0051V16.0061C6.87815 16.0373 9.22068 16.2284 11.5528 17.3944L12 17.618L12.4472 17.3944C14.7793 16.2284 17.1219 16.0373 19 16.0061V18.0051C17.1245 18.0333 14.5848 18.5975 12 19.7741C9.41522 18.5975 6.87551 18.0333 5 18.0051Z" fill="black"/>
</svg>
