<svg width="24" height="24" viewBox="0 0 24 24" fill="none" xmlns="http://www.w3.org/2000/svg">
<path fill-rule="evenodd" clip-rule="evenodd" d="M11.3861 4.10973C8.72434 2.99568 6.39749 2.99797 4.27336 3.00006L3 3.00024V20.0001H4C6.00336 20.0001 8.78548 20.3927 11.5529 21.7764L12.0001 22L12.4473 21.7764C15.2147 20.3927 17.9966 20.0001 20 20.0001H21L21 3.00024L19.9608 3.00024C18.0561 3.00016 15.0645 3.00005 12.009 4.38823C11.7996 4.28858 11.592 4.19591 11.3861 4.10973ZM12.0001 15.3922C14.5848 14.2157 17.1245 14.0335 19 14.0053L19 5.00633C17.1219 5.03757 14.7793 5.22859 12.4472 6.39464L12.0054 6.61556C12.0013 8.89775 12.0003 13.2476 12.0001 15.3922ZM12.4472 17.3946C14.7793 16.2285 17.1219 16.0375 19 16.0062V18.0053C17.1245 18.0335 14.5849 18.5975 12.0001 19.7741C9.41529 18.5975 6.87551 18.0335 5 18.0053V16.0062C6.87815 16.0375 9.22068 16.2285 11.5528 17.3946L12 17.6182L12.4472 17.3946ZM17 9.00014C17 9.55243 16.5523 10.0001 16 10.0001C15.4477 10.0001 15 9.55243 15 9.00014C15 8.44786 15.4477 8.00014 16 8.00014C16.5523 8.00014 17 8.44786 17 9.00014Z" fill="black"/>
</svg>
