<svg width="24" height="24" viewBox="0 0 24 24" fill="none" xmlns="http://www.w3.org/2000/svg">
<path fill-rule="evenodd" clip-rule="evenodd" d="M7 5C7 4.44772 7.44772 4 8 4H16C16.5523 4 17 4.44772 17 5V19L12 16.8333L7 19V5ZM8 2C6.34315 2 5 3.34315 5 5V22L12 19L19 22V5C19 3.34315 17.6569 2 16 2H8ZM8.97546 9.40566L10.572 10.9974L8.9956 12.5801L10.4035 13.9904L11.9832 12.4044L13.5725 13.989L14.9755 12.5737L13.3895 10.9925L14.9724 9.4032L13.5646 7.99287L11.9783 9.5855L10.3784 7.99042L8.97546 9.40566Z" fill="black"/>
</svg>
