<svg width="24" height="24" viewBox="0 0 24 24" fill="none" xmlns="http://www.w3.org/2000/svg">
<path fill-rule="evenodd" clip-rule="evenodd" d="M8 2C6.34315 2 5 3.34315 5 5V22L12 19L19 22V5C19 3.34315 17.6569 2 16 2H8ZM10.25 8C11.2158 8 12 9.14894 12 9.14894C12 9.14894 12.7842 8 13.75 8C14.7165 8 15.5 8.85733 15.5 9.91489C15.5 10.3461 15.3698 10.7439 15.15 11.064C14.8307 11.529 12 14 12 14C12 14 9.16915 11.5289 8.84987 11.0638C8.63018 10.7438 8.5 10.346 8.5 9.91489C8.5 8.85733 9.2835 8 10.25 8Z" fill="black"/>
</svg>
