<svg width="24" height="24" viewBox="0 0 24 24" fill="none" xmlns="http://www.w3.org/2000/svg">
<path fill-rule="evenodd" clip-rule="evenodd" d="M3 3.00025V20.0002H4C6.00336 20.0002 8.78541 20.3927 11.5528 21.7764L12 22L12.4472 21.7764C15.2146 20.3927 17.9966 20.0002 20 20.0002H21L21 3.00025C17.9235 3.00024 14.868 3.08931 12.009 4.38824C9.14116 3.02364 6.09827 2.99981 3 3.00025ZM12.4472 17.3946C14.7793 16.2285 17.1219 16.0375 19 16.0063V18.0053C17.1245 18.0335 14.5848 18.5975 12 19.7741C9.41522 18.5975 6.87551 18.0335 5 18.0053V16.0063C6.87815 16.0375 9.22068 16.2285 11.5528 17.3946L12 17.6182L12.4472 17.3946ZM18 9.00004C18 10.1046 17.1046 11 16 11C14.8954 11 14 10.1046 14 9.00004C14 7.89547 14.8954 7.00004 16 7.00004C17.1046 7.00004 18 7.89547 18 9.00004Z" fill="black"/>
</svg>
