<svg width="24" height="24" viewBox="0 0 24 24" fill="none" xmlns="http://www.w3.org/2000/svg">
<path fill-rule="evenodd" clip-rule="evenodd" d="M17 4.61805C17.3069 4.34339 17.5 3.94425 17.5 3.5C17.5 2.67157 16.8284 2 16 2C15.1716 2 14.5 2.67157 14.5 3.5C14.5 3.94425 14.6931 4.34339 15 4.61805V7H9C5.13401 7 2 10.134 2 14C2 17.866 5.13401 21 9 21H15C18.866 21 22 17.866 22 14C22 10.829 19.8915 8.15043 17 7.28988V4.61805ZM4.5 13C4.36294 13 4.22795 13.0078 4.0954 13.023C4.03281 13.339 4 13.6657 4 14C4 16.1412 5.34595 17.9681 7.23795 18.6807C7.71561 18.082 8 17.3244 8 16.5C8 14.567 6.433 13 4.5 13ZM14.6 19H9.40004C9.78341 18.25 10 17.4002 10 16.5C10 13.6255 7.79486 11.266 4.98395 11.021C5.89514 9.79462 7.35477 9 9 9H15C16.6452 9 18.1049 9.79462 19.0161 11.021C16.2051 11.266 14 13.6255 14 16.5C14 17.4002 14.2166 18.25 14.6 19ZM19.5 13C19.6371 13 19.7721 13.0078 19.9046 13.023C19.9672 13.339 20 13.6657 20 14C20 16.1412 18.654 17.9681 16.762 18.6807C16.2844 18.082 16 17.3244 16 16.5C16 14.567 17.567 13 19.5 13ZM9.5 11C10.4328 11.8325 11.0699 12.797 11.5 14H12.5C12.9301 12.797 13.5672 11.8325 14.5 11H9.5Z" fill="black"/>
</svg>
