<svg width="25" height="24" viewBox="0 0 25 24" fill="none" xmlns="http://www.w3.org/2000/svg">
<path fill-rule="evenodd" clip-rule="evenodd" d="M17.52 3.5C17.52 3.94425 17.3269 4.34339 17.02 4.61805V7.28988C18.9912 7.87654 20.5986 9.30814 21.422 11.1647C20.9722 11.057 20.5028 11 20.02 11C16.7063 11 14.02 13.6863 14.02 17C14.02 18.5278 14.5911 19.9223 15.5314 20.9816C15.3625 20.9938 15.192 21 15.02 21H9.02002C8.84804 21 8.6775 20.9938 8.50863 20.9816C9.44895 19.9223 10.02 18.5278 10.02 17C10.02 13.6863 7.33373 11 4.02002 11C3.53725 11 3.0678 11.057 2.61803 11.1647C3.70619 8.7113 6.16326 7 9.02002 7H15.02V4.61805C14.7131 4.34339 14.52 3.94425 14.52 3.5C14.52 2.67157 15.1916 2 16.02 2C16.8484 2 17.52 2.67157 17.52 3.5ZM6.14987 20.3864C3.71513 19.2905 2.02002 16.8432 2.02002 14C2.02002 13.8407 2.02534 13.6827 2.03581 13.526C2.62058 13.1913 3.29795 13 4.02002 13C6.22916 13 8.02002 14.7909 8.02002 17C8.02002 18.4263 7.2735 19.6782 6.14987 20.3864ZM20.02 13C20.7421 13 21.4195 13.1913 22.0042 13.526C22.0147 13.6827 22.02 13.8407 22.02 14C22.02 16.8432 20.3249 19.2905 17.8902 20.3864C16.7665 19.6782 16.02 18.4263 16.02 17C16.02 14.7909 17.8109 13 20.02 13ZM8.84326 10C10.0201 10.5 11.3764 11.7841 12.0201 13C12.6638 11.7841 14.0201 10.5 15.1969 10H8.84326Z" fill="black"/>
</svg>
