<svg width="24" height="24" viewBox="0 0 24 24" fill="none" xmlns="http://www.w3.org/2000/svg">
<path fill-rule="evenodd" clip-rule="evenodd" d="M5 3C3.89543 3 3 3.89543 3 5V19C3 20.1046 3.89543 21 5 21H19C20.1046 21 21 20.1046 21 19V5C21 3.89543 20.1046 3 19 3H5ZM5 5H19V19H5V5ZM12.6793 17H8V7H12.5987C14.5905 7 15.8427 7.9702 15.8427 9.50866V9.52252C15.8427 10.6175 14.964 11.553 13.7996 11.6985V11.7401C15.2715 11.8441 16.3333 12.8281 16.3333 14.1379V14.1518C16.3333 15.9051 14.9347 17 12.6793 17ZM13.6678 9.80665C13.6678 9.0097 13.06 8.55232 12.0275 8.55232H10.2115V11.1788H11.7566C13.0015 11.1788 13.6678 10.6868 13.6678 9.82051V9.80665ZM14.0779 14.0062C14.0779 13.0915 13.3749 12.5994 12.0202 12.5994H10.2115V15.4407H12.1154C13.3822 15.4407 14.0779 14.9487 14.0779 14.0201V14.0062Z" fill="black"/>
</svg>
