<svg width="24" height="24" viewBox="0 0 24 24" fill="none" xmlns="http://www.w3.org/2000/svg">
<path fill-rule="evenodd" clip-rule="evenodd" d="M12 20C7.58172 20 4 16.4183 4 12C4 7.58172 7.58172 4 12 4C16.1172 4 19.5091 7.11098 19.9511 11.1099C19.9834 11.4018 20 11.6988 20 12V13H18L21 16L24 13H22V12C22 11.6252 21.9793 11.2549 21.939 10.8901C21.3862 5.88912 17.148 2 12 2C6.47715 2 2 6.47715 2 12C2 17.5228 6.47715 22 12 22C14.7747 22 17.2871 20.8686 19.0977 19.0444L17.6782 17.6355C16.2277 19.0969 14.2202 20 12 20ZM8 17H10.0918V13.3756H11.768L13.6312 17H16L13.8944 13.0638C15.0026 12.6272 15.7022 11.5322 15.7022 10.2155V10.2017C15.7022 8.19196 14.3723 7 12.1281 7H8V17ZM10.0918 11.7886V8.63548H11.8719C12.9039 8.63548 13.5619 9.24532 13.5619 10.2017V10.2155C13.5619 11.1996 12.9385 11.7886 11.8996 11.7886H10.0918Z" fill="black"/>
</svg>
