<svg width="24" height="24" viewBox="0 0 24 24" fill="none" xmlns="http://www.w3.org/2000/svg">
<path fill-rule="evenodd" clip-rule="evenodd" d="M5 3V4H7V3H5ZM3 6V4H4V6H3ZM20 4H21V6H20V4ZM8 4V3H10V4H8ZM11 3V4H13V3H11ZM14 4V3H16V4H14ZM17 3V4H19V3H17ZM3 15V13H4V15H3ZM21 13H20V15H21V13ZM3 9V7H4V9H3ZM21 7H20V9H21V7ZM3 12V10H4V12H3ZM7 11.5H5V12.5H7V11.5ZM8 11.5H10V12.5H8V11.5ZM13 11.5H11V12.5H13V11.5ZM14 11.5H16V12.5H14V11.5ZM11.5 8V10H12.5V8H11.5ZM11.5 7V5H12.5V7H11.5ZM12.5 14H11.5V16H12.5V14ZM11.5 17H12.5V19H21V21H3V19H11.5V17ZM19 11.5H17V12.5H19V11.5ZM20 12V10H21V12H20ZM3 16V18H4V16H3ZM20 16H21V18H20V16Z" fill="black"/>
</svg>
