<svg width="24" height="24" viewBox="0 0 24 24" fill="none" xmlns="http://www.w3.org/2000/svg">
<path fill-rule="evenodd" clip-rule="evenodd" d="M6 3H4V4H6V3ZM4 20V21H6V20H4ZM3 5H4V7H3V5ZM4 8H3V10H4V8ZM3 11H4V13H3V11ZM4 14H3V16H4V14ZM3 17H4V19H3V17ZM15 3H13V4H15V3ZM13 21V20H15V21H13ZM9 3H7V4H9V3ZM7 21V20H9V21H7ZM12 3H10V4H12V3ZM11.5 7V5H12.5V7H11.5ZM11.5 8V10H12.5V8H11.5ZM11.5 13V11H12.5V13H11.5ZM11.5 14V16H12.5V14H11.5ZM8 11.5H10V12.5H8V11.5ZM7 11.5H5V12.5H7V11.5ZM14 12.5V11.5H16V12.5H14ZM17 11.5V12.5H19V21H21V3H19V11.5H17ZM11.5 19V17H12.5V19H11.5ZM12 20H10V21H12V20ZM16 3H18V4H16V3ZM16 20V21H18V20H16Z" fill="black"/>
</svg>
