<svg width="24" height="24" viewBox="0 0 24 24" fill="none" xmlns="http://www.w3.org/2000/svg">
<path fill-rule="evenodd" clip-rule="evenodd" d="M3 3V21H5V12.5H7V11.5H5V3H3ZM9 3H11V4H9V3ZM18 3H20V4H18V3ZM20 20V21H18V20H20ZM21 5H20V7H21V5ZM20 8H21V10H20V8ZM21 11H20V13H21V11ZM20 14H21V16H20V14ZM21 17H20V19H21V17ZM11 20H9V21H11V20ZM15 3H17V4H15V3ZM17 21V20H15V21H17ZM12 3H14V4H12V3ZM12.5 7V5H11.5V7H12.5ZM12.5 8V10H11.5V8H12.5ZM12.5 13V11H11.5V13H12.5ZM12.5 14V16H11.5V14H12.5ZM16 12.5V11.5H14V12.5H16ZM19 11.5V12.5H17V11.5H19ZM10 11.5H8V12.5H10V11.5ZM12.5 19V17H11.5V19H12.5ZM12 20H14V21H12V20ZM8 3H6V4H8V3ZM6 20H8V21H6V20Z" fill="black"/>
</svg>
