<svg width="24" height="24" viewBox="0 0 24 24" fill="none" xmlns="http://www.w3.org/2000/svg">
<path fill-rule="evenodd" clip-rule="evenodd" d="M17 3H19V4H17V3ZM17 20H19V21H17V20ZM4 5H3V7H4V5ZM20 5H21V7H20V5ZM4 8H3V10H4V8ZM20 8H21V10H20V8ZM4 11H3V13H4V11ZM20 11H21V13H20V11ZM4 14H3V16H4V14ZM20 14H21V16H20V14ZM4 17H3V19H4V17ZM20 17H21V19H20V17ZM10 3H8V4H10V3ZM8 20H10V21H8V20ZM16 3H14V4H16V3ZM14 20H16V21H14V20ZM13 3H11V4H13V3ZM11.5 5H12.5V7H11.5V5ZM12.5 8H11.5V10H12.5V8ZM11.5 11H12.5V13H11.5V11ZM12.5 14H11.5V16H12.5V14ZM14 11.5H16V12.5H14V11.5ZM19 11.5H17V12.5H19V11.5ZM8 11.5H10V12.5H8V11.5ZM7 11.5H5V12.5H7V11.5ZM11.5 17H12.5V19H11.5V17ZM13 20H11V21H13V20ZM5 3H7V4H5V3ZM7 20H5V21H7V20Z" fill="black"/>
</svg>
