<svg width="24" height="24" viewBox="0 0 24 24" fill="none" xmlns="http://www.w3.org/2000/svg">
<path fill-rule="evenodd" clip-rule="evenodd" d="M5 4V3H7V4H5ZM3 7V5H4V7H3ZM20 7V5H21V7H20ZM5 20V21H7V20H5ZM8 20V21H10V20H8ZM8 4V3H10V4H8ZM11 20V21H13V20H11ZM11 4V3H13V4H11ZM14 20V21H16V20H14ZM14 4V3H16V4H14ZM17 20V21H19V20H17ZM17 4V3H19V4H17ZM3 14V16H4V14H3ZM20 16V14H21V16H20ZM3 8V10H4V8H3ZM20 10V8H21V10H20ZM11.5 8V10H12.5V8H11.5ZM11.5 7V5H12.5V7H11.5ZM11.5 14V16H12.5V14H11.5ZM11.5 19V17H12.5V19H11.5ZM3 17V19H4V17H3ZM20 19V17H21V19H20ZM3 13H21V11H3V13Z" fill="black"/>
</svg>
