<svg width="24" height="24" viewBox="0 0 24 24" fill="none" xmlns="http://www.w3.org/2000/svg">
<path fill-rule="evenodd" clip-rule="evenodd" d="M12.5 5H21V3H3V5H11.5V7H12.5V5ZM12.5 10H11.5V8H12.5V10ZM3 9V11H4V9H3ZM3 18V20H4V18H3ZM20 20H21V18H20V20ZM5 21V20H7V21H5ZM8 20V21H10V20H8ZM11 21V20H13V21H11ZM14 20V21H16V20H14ZM17 21V20H19V21H17ZM20 11V9H21V11H20ZM3 15V17H4V15H3ZM21 17H20V15H21V17ZM3 12V14H4V12H3ZM7 12.5H5V11.5H7V12.5ZM8 12.5H10V11.5H8V12.5ZM13 12.5H11V11.5H13V12.5ZM14 12.5H16V11.5H14V12.5ZM12.5 16H11.5V14H12.5V16ZM11.5 19H12.5V17H11.5V19ZM19 12.5H17V11.5H19V12.5ZM20 12V14H21V12H20ZM3 8V6H4V8H3ZM20 6V8H21V6H20Z" fill="black"/>
</svg>
