<svg width="24" height="24" viewBox="0 0 24 24" fill="none" xmlns="http://www.w3.org/2000/svg">
<path fill-rule="evenodd" clip-rule="evenodd" d="M6 7.82929V16.1707C6.85241 16.472 7.52801 17.1476 7.82929 18H16.1707C16.472 17.1476 17.1476 16.472 18 16.1707V7.82929C17.1476 7.52801 16.472 6.85241 16.1707 6H7.82929C7.52801 6.85241 6.85241 7.52801 6 7.82929ZM7.82929 4C7.41746 2.83481 6.30622 2 5 2C3.34315 2 2 3.34315 2 5C2 6.30622 2.83481 7.41746 4 7.82929V16.1707C2.83481 16.5825 2 17.6938 2 19C2 20.6569 3.34315 22 5 22C6.30622 22 7.41746 21.1652 7.82929 20H16.1707C16.5825 21.1652 17.6938 22 19 22C20.6569 22 22 20.6569 22 19C22 17.6938 21.1652 16.5825 20 16.1707V7.82929C21.1652 7.41746 22 6.30622 22 5C22 3.34315 20.6569 2 19 2C17.6938 2 16.5825 2.83481 16.1707 4H7.82929Z" fill="black"/>
</svg>
