<svg width="24" height="24" viewBox="0 0 24 24" fill="none" xmlns="http://www.w3.org/2000/svg">
<path fill-rule="evenodd" clip-rule="evenodd" d="M18.0002 8L12 2L6 8L7.41421 9.41421L11 5.82843L10.9999 16H12.9999L13 5.82843L16.5859 9.41421L18.0002 8ZM8.00007 12.0002L3 11.9999L3.00004 18C3.00005 19.6569 4.34319 21 6.00004 21H21V15.0001C21 13.3433 19.657 12.0002 18.0002 12.0001L16.0001 12L15.9999 14L18.0001 14.0001C18.5523 14.0002 19 14.4479 19 15.0001V19H6.00004C5.44775 19 5.00004 18.5523 5.00004 18L5.00001 14.0001L7.99994 14.0002L8.00007 12.0002Z" fill="black"/>
</svg>
