<svg width="24" height="24" viewBox="0 0 24 24" fill="none" xmlns="http://www.w3.org/2000/svg">
<path fill-rule="evenodd" clip-rule="evenodd" d="M8.00007 11.9998L3 12.0001L3.00004 5.99998C3.00005 4.34313 4.34319 3 6.00004 3H21V8.99988C21 10.6567 19.657 11.9998 18.0002 11.9999L16.0001 12L15.9999 10L18.0001 9.99988C18.5523 9.99984 19 9.55214 19 8.99988V5H6.00004C5.44775 5 5.00004 5.44771 5.00004 5.99999L5.00001 9.99994L7.99994 9.99976L8.00007 11.9998ZM18.0002 16L12 22L6 16L7.41421 14.5858L11 18.1716L10.9999 7.99998H12.9999L13 18.1716L16.5859 14.5858L18.0002 16Z" fill="black"/>
</svg>
