<svg width="24" height="24" viewBox="0 0 24 24" fill="none" xmlns="http://www.w3.org/2000/svg">
<path fill-rule="evenodd" clip-rule="evenodd" d="M12.0003 15.9999L12 21L18.0001 21C19.6569 21 21.0001 19.6568 21.0001 18V3H15.0002C13.3434 3 12.0003 4.34303 12.0002 5.99982L12.0001 7.99994L14.0001 8.00006L14.0002 5.99994C14.0002 5.44768 14.4479 5 15.0002 5H19.0001V18C19.0001 18.5523 18.5523 19 18.0001 19L14.0001 19L14.0003 16.0001L12.0003 15.9999ZM8 5.99992L2 12.0001L8 18.0001L9.41421 16.5859L5.82843 13.0001L16 13.0002V11.0002L5.82843 11.0001L9.41421 7.41413L8 5.99992Z" fill="black"/>
</svg>
