<svg width="24" height="24" viewBox="0 0 24 24" fill="none" xmlns="http://www.w3.org/2000/svg">
<path fill-rule="evenodd" clip-rule="evenodd" d="M9.00373 2L2 6.63567L4.01001 11.7122L4.00994 18.5714L12 22L19.99 18.5714L19.99 11.7122L22 6.63567L14.9962 2L12 3.5L9.00373 2ZM6.00744 17.2526L6.00751 13.0166L11.0013 15.1594L11.0012 19.3955L6.00744 17.2526ZM12.9987 19.3955L12.9988 15.1594L17.9925 13.0166L17.9925 17.2526L12.9987 19.3955ZM19.4906 7.36437L18.2377 10.7354L12 13.4121L5.76231 10.7354L4.50937 7.36437L9.14723 4.30791L12 5.73607L14.8527 4.30791L19.4906 7.36437ZM12 12.0001C12 12.0001 9.30658 9.68893 9.00288 9.28421C8.79384 9.00563 8.66996 8.65932 8.66996 8.28405C8.66996 7.36357 9.41522 6.61738 10.3345 6.61738C10.7094 6.61738 11.0552 6.74141 11.3335 6.95071C11.5619 7.12259 12.0021 7.51817 12.0021 7.51817C12.0021 7.51817 12.4363 7.12259 12.6648 6.95071C12.943 6.74141 13.2889 6.61738 13.6637 6.61738C14.583 6.61738 15.3283 7.36357 15.3283 8.28405C15.3283 8.65932 15.2044 9.00563 14.9954 9.28421C14.6917 9.68893 12 12.0001 12 12.0001Z" fill="black"/>
</svg>
