<svg width="24" height="24" viewBox="0 0 24 24" fill="none" xmlns="http://www.w3.org/2000/svg">
<path fill-rule="evenodd" clip-rule="evenodd" d="M8.99984 2L12.0029 3.5L14.9998 2L22 6.5L20 12.1497V18.9375L13 22V13.5L18.2277 11.2129L19.4875 7.2287L14.8562 4.30791L12.0029 5.73607L9.14353 4.30791L4.5125 7.2287L5.77226 11.2129L11 13.5V22L4 18.9375V12.1497L2 6.5L8.99984 2ZM8.99696 9.3025C9.30104 9.70723 12 12 12 12C12 12 14.6929 9.70723 14.997 9.3025C15.2063 9.02392 15.3303 8.67762 15.3303 8.30234C15.3303 7.38187 14.5841 6.63567 13.6636 6.63567C13.2884 6.63567 12.942 6.7597 12.6635 6.96901C12.4347 7.14088 12 7.53647 12 7.53647C12 7.53647 11.5592 7.14088 11.3305 6.96901C11.0519 6.7597 10.7056 6.63567 10.3303 6.63567C9.40982 6.63567 8.66363 7.38187 8.66363 8.30234C8.66363 8.67762 8.78766 9.02392 8.99696 9.3025Z" fill="black"/>
</svg>
