<svg width="24" height="24" viewBox="0 0 24 24" fill="none" xmlns="http://www.w3.org/2000/svg">
<path fill-rule="evenodd" clip-rule="evenodd" d="M4 18.5V11L2 6L9 2L12 5L15 2L22 6L20 11V18.5L12 22L4 18.5ZM4.50329 6.87305L8.66596 4.49438L11.1716 7H12.8284L15.334 4.49438L19.4967 6.87305L17.8866 10.8331L12 13.4085L6.08381 10.8202L4.50329 6.87305ZM13 15.154L18 12.9665V17.192L13 19.3795V15.154ZM6 12.9665L11 15.154V19.3795L6 17.192V12.9665ZM12 11.5L8 10C8 10 9.5628 8.8279 11.3069 8.5559C11.5359 8.5202 11.7679 8.5 12 8.5C12.2321 8.5 12.4641 8.5202 12.6931 8.5559C14.4372 8.8279 16 10 16 10L12 11.5Z" fill="black"/>
</svg>
