<svg width="24" height="24" viewBox="0 0 24 24" fill="none" xmlns="http://www.w3.org/2000/svg">
<path fill-rule="evenodd" clip-rule="evenodd" d="M12 9.13909L8.5 7.23V9.95182L12 11.8609L15.5 9.95182V7.23L12 9.13909ZM17.5 10L22 12.5V19L16.5 22L12 19.5L7.5 22L2 19V12.5L6.5 10V5L12 2L17.5 5V10ZM14.3675 5.56954L12 4.27818L9.63249 5.56954L12 6.86091L14.3675 5.56954ZM7.54343 11.7082L5.1126 13.0587L7.49558 14.3585L9.92641 13.008L7.54343 11.7082ZM11 14.6995L7.50442 16.6415L4 14.73V17.8127L7.49115 19.717L11 17.7676V14.6995ZM13 17.7676L16.5088 19.717L20 17.8127V14.73L16.4956 16.6415L13 14.6995V17.7676ZM14.0736 13.008L16.5044 14.3585L18.8874 13.0587L16.4566 11.7082L14.0736 13.008Z" fill="black"/>
</svg>
