<svg width="24" height="24" viewBox="0 0 24 24" fill="none" xmlns="http://www.w3.org/2000/svg">
<path fill-rule="evenodd" clip-rule="evenodd" d="M5 6C5 3.79086 6.79086 2 9 2H10V4H9C7.89543 4 7 4.89543 7 6V9C7 10.1947 6.47624 11.2671 5.64582 12C6.47624 12.7329 7 13.8053 7 15V18C7 19.1046 7.89543 20 9 20H10V22H9C6.79086 22 5 20.2091 5 18V15C5 13.8954 4.10457 13 3 13V11C4.10457 11 5 10.1046 5 9V6ZM19 6C19 3.79086 17.2091 2 15 2H14V4H15C16.1046 4 17 4.89543 17 6V9C17 10.1947 17.5238 11.2671 18.3542 12C17.5238 12.7329 17 13.8053 17 15V18C17 19.1046 16.1046 20 15 20H14V22H15C17.2091 22 19 20.2091 19 18V15C19 13.8954 19.8954 13 21 13V11C19.8954 11 19 10.1046 19 9V6ZM11 8V10.268L9.03589 9.13397L8.03589 10.866L9.99999 12L8.03589 13.134L9.03589 14.866L11 13.732V16H13V13.7321L14.9641 14.866L15.9641 13.134L14 12L15.9641 10.866L14.9641 9.13397L13 10.2679V8H11Z" fill="black"/>
</svg>
