<svg width="24" height="24" viewBox="0 0 24 24" fill="none" xmlns="http://www.w3.org/2000/svg">
<path fill-rule="evenodd" clip-rule="evenodd" d="M9 2C6.79086 2 5 3.79086 5 6V9C5 10.1046 4.10457 11 3 11V13C4.10457 13 5 13.8954 5 15V18C5 20.2091 6.79086 22 9 22H10V20H9C7.89543 20 7 19.1046 7 18V15C7 13.8053 6.47624 12.7329 5.64582 12C6.47624 11.2671 7 10.1947 7 9V6C7 4.89543 7.89543 4 9 4H10V2H9ZM15 2C17.2091 2 19 3.79086 19 6V9C19 10.1046 19.8954 11 21 11V13C19.8954 13 19 13.8954 19 15V18C19 20.2091 17.2091 22 15 22H14V20H15C16.1046 20 17 19.1046 17 18V15C17 13.8053 17.5238 12.7329 18.3542 12C17.5238 11.2671 17 10.1947 17 9V6C17 4.89543 16.1046 4 15 4H14V2H15Z" fill="black"/>
</svg>
