<svg width="24" height="24" viewBox="0 0 24 24" fill="none" xmlns="http://www.w3.org/2000/svg">
<path fill-rule="evenodd" clip-rule="evenodd" d="M3 6C3 4.89543 3.89543 4 5 4H19C20.1046 4 21 4.89543 21 6V9C21 10.1046 20.1046 11 19 11V14C20.1046 14 21 14.8954 21 16V19C21 20.1046 20.1046 21 19 21H5C3.89543 21 3 20.1046 3 19V16C3 14.8954 3.89543 14 5 14V11C3.89543 11 3 10.1046 3 9V6ZM5 16V19H8V16H5ZM10 16V19H14V16H10ZM16 16V19H19V16H16ZM17 11H13V14H17V11ZM11 14V11H7V14H11ZM19 9V6H16V9H19ZM14 9V6H10V9H14ZM8 9V6H5V9H8Z" fill="black"/>
</svg>
