<svg width="24" height="24" viewBox="0 0 24 24" fill="none" xmlns="http://www.w3.org/2000/svg">
<path fill-rule="evenodd" clip-rule="evenodd" d="M7.10002 7H2V18C2 19.6569 3.34315 21 5 21H19C20.6569 21 22 19.6569 22 18V7H16.9C16.4367 4.71776 14.419 3 12 3C9.58104 3 7.56329 4.71776 7.10002 7ZM9.17071 7H14.8293C14.4175 5.83481 13.3062 5 12 5C10.6938 5 9.58254 5.83481 9.17071 7ZM4 13V18C4 18.5523 4.44772 19 5 19H19C19.5523 19 20 18.5523 20 18V13H14C14 14.1046 13.1046 15 12 15C10.8954 15 10 14.1046 10 13H4ZM20 11H4V9H20V11Z" fill="black"/>
</svg>
