<svg width="24" height="24" viewBox="0 0 24 24" fill="none" xmlns="http://www.w3.org/2000/svg">
<path fill-rule="evenodd" clip-rule="evenodd" d="M10.6605 6.11181C11.0966 6.03821 11.5442 6 12 6C12.4557 6 12.9033 6.03821 13.3395 6.11181L13.0067 8.08393C12.68 8.02881 12.3437 8 12 8C11.6562 8 11.3199 8.02881 10.9932 8.08393L10.6605 6.11181ZM16.6303 7.47551C17.3628 7.99621 18.0037 8.63712 18.5244 9.36967L16.8943 10.5284C16.5033 9.97825 16.0217 9.4967 15.4716 9.10565L16.6303 7.47551ZM5.47546 9.36967C5.99617 8.63712 6.63707 7.99621 7.36962 7.47551L8.52834 9.10565C7.9782 9.4967 7.49665 9.97825 7.10561 10.5284L5.47546 9.36967ZM8.01295 13.675C8.17837 11.6179 9.90022 10 11.9999 10C14.0997 10 15.8215 11.6179 15.9869 13.675C17.1235 13.4828 18.245 13.2017 19.3514 12.8224L20 14.7143C17.4103 15.6022 14.74 16 12 16C9.25997 16 6.58973 15.6021 4 14.7143L4.64865 12.8224C5.75498 13.2017 6.87646 13.4828 8.01295 13.675Z" fill="black"/>
</svg>
