<svg width="24" height="24" viewBox="0 0 24 24" fill="none" xmlns="http://www.w3.org/2000/svg">
<path fill-rule="evenodd" clip-rule="evenodd" d="M19.934 8.91216L17.5553 10.7401C17.1818 10.2541 16.7459 9.81824 16.2599 9.44476L18.0879 7.066C18.7806 7.59836 19.4017 8.2194 19.934 8.91216ZM13.3061 5.08452L12.9181 8.05932C12.6189 8.0203 12.3126 8 12 8C11.6875 8 11.3811 8.0203 11.082 8.05932L10.6939 5.08452C11.1214 5.02876 11.5574 5 12 5C12.4427 5 12.8787 5.02876 13.3061 5.08452ZM5.91219 7.06601L7.74017 9.44476C7.25416 9.81824 6.81827 10.2541 6.44479 10.7401L4.06604 8.91216C4.59839 8.21941 5.21943 7.59836 5.91219 7.06601ZM14.1213 12.8787C12.9497 11.7071 11.0502 11.7071 9.87867 12.8787C9.57776 13.1796 9.35429 13.5278 9.20802 13.8995C10.1341 13.9679 11.0652 14 12 14C12.0576 13.9996 12.1152 13.9995 12.1727 13.9996C13.0495 13.9959 13.9229 13.9637 14.792 13.8995C14.6457 13.5278 14.4222 13.1796 14.1213 12.8787ZM16.8255 13.6883C16.6048 12.8738 16.1746 12.1036 15.5355 11.4645C13.5829 9.51184 10.4171 9.51184 8.46445 11.4645C7.82533 12.1036 7.39517 12.8738 7.17443 13.6883C5.62295 13.479 4.08788 13.1573 2.5747 12.7034L2 14.619C5.19427 15.5773 8.48191 15.985 11.8141 15.9996C11.8803 16.0003 11.9447 16.0004 12.007 16C15.4004 15.9994 18.7486 15.5944 22 14.619L21.4253 12.7034C19.9121 13.1573 18.377 13.479 16.8255 13.6883Z" fill="black"/>
</svg>
