<svg width="24" height="24" viewBox="0 0 24 24" fill="none" xmlns="http://www.w3.org/2000/svg">
<path fill-rule="evenodd" clip-rule="evenodd" d="M12 4C11.5443 4 11.0967 4.03821 10.6605 4.11181L10.9933 6.08393C11.32 6.02881 11.6562 6 12 6C12.3438 6 12.68 6.02881 13.0067 6.08393L13.3395 4.11181C12.9033 4.03821 12.4557 4 12 4ZM18.5245 7.36967C18.0038 6.63712 17.3629 5.99621 16.6303 5.47551L15.4716 7.10565C16.0218 7.4967 16.5033 7.97825 16.8943 8.52839L18.5245 7.36967ZM7.36967 5.47551C6.63712 5.99621 5.99621 6.63712 5.47551 7.36967L7.10565 8.52839C7.4967 7.97825 7.97825 7.4967 8.52839 7.10565L7.36967 5.47551ZM20 12C20 11.5443 19.9618 11.0967 19.8882 10.6605L17.9161 10.9933C17.9712 11.32 18 11.6562 18 12C18 12.3438 17.9712 12.68 17.9161 13.0067L19.8882 13.3395C19.9618 12.9033 20 12.4557 20 12ZM4.11181 10.6605C4.03821 11.0967 4 11.5443 4 12C4 12.4557 4.03821 12.9033 4.11181 13.3395L6.08393 13.0067C6.02881 12.68 6 12.3438 6 12C6 11.6562 6.02881 11.32 6.08393 10.9933L4.11181 10.6605ZM5.47551 16.6303C5.99621 17.3629 6.63712 18.0038 7.36967 18.5245L8.52839 16.8943C7.97825 16.5033 7.4967 16.0218 7.10565 15.4716L5.47551 16.6303ZM16.6303 18.5245C17.3629 18.0038 18.0038 17.3629 18.5245 16.6303L16.8943 15.4716C16.5033 16.0218 16.0218 16.5033 15.4716 16.8943L16.6303 18.5245ZM10.6605 19.8882C11.0967 19.9618 11.5443 20 12 20C12.4557 20 12.9033 19.9618 13.3395 19.8882L13.0067 17.9161C12.68 17.9712 12.3438 18 12 18C11.6562 18 11.32 17.9712 10.9933 17.9161L10.6605 19.8882ZM10 12C10 10.8954 10.8954 10 12 10C13.1046 10 14 10.8954 14 12C14 13.1046 13.1046 14 12 14C10.8954 14 10 13.1046 10 12ZM12 8C9.79086 8 8 9.79086 8 12C8 14.2091 9.79086 16 12 16C14.2091 16 16 14.2091 16 12C16 9.79086 14.2091 8 12 8Z" fill="black"/>
</svg>
