<svg width="24" height="24" viewBox="0 0 24 24" fill="none" xmlns="http://www.w3.org/2000/svg">
<path fill-rule="evenodd" clip-rule="evenodd" d="M18.9407 12.9181L21.9155 13.3061C21.9712 12.8786 22 12.4427 22 12C22 11.5573 21.9712 11.1214 21.9155 10.6939L18.9407 11.0819C18.9797 11.3811 19 11.6874 19 12C19 12.3126 18.9797 12.6189 18.9407 12.9181ZM17.5552 7.74014L19.934 5.91216C19.4016 5.2194 18.7806 4.59836 18.0878 4.06601L16.2599 6.44476C16.7459 6.81824 17.1818 7.25413 17.5552 7.74014ZM12.9181 5.05932L13.3061 2.08452C12.8786 2.02876 12.4427 2 12 2C11.5573 2 11.1214 2.02876 10.6939 2.08452L11.0819 5.05932C11.3811 5.0203 11.6874 5 12 5C12.3126 5 12.6189 5.0203 12.9181 5.05932ZM7.74014 6.44476L5.91216 4.06601C5.2194 4.59836 4.59836 5.21941 4.06601 5.91216L6.44476 7.74014C6.81824 7.25413 7.25413 6.81824 7.74014 6.44476ZM2 12C2 11.5573 2.02876 11.1214 2.08452 10.6939L5.05932 11.0819C5.0203 11.3811 5 11.6874 5 12C5 12.3126 5.0203 12.6189 5.05932 12.9181L2.08452 13.3061C2.02876 12.8786 2 12.4427 2 12ZM6.44476 16.2599L4.06601 18.0878C4.59836 18.7806 5.21941 19.4016 5.91216 19.934L7.74014 17.5552C7.25413 17.1818 6.81824 16.7459 6.44476 16.2599ZM11.0819 18.9407L10.6939 21.9155C11.1214 21.9712 11.5573 22 12 22C12.4427 22 12.8786 21.9712 13.3061 21.9155L12.9181 18.9407C12.6189 18.9797 12.3126 19 12 19C11.6874 19 11.3811 18.9797 11.0819 18.9407ZM16.2599 17.5552L18.0878 19.934C18.7806 19.4016 19.4016 18.7806 19.934 18.0878L17.5552 16.2599C17.1818 16.7459 16.7459 17.1818 16.2599 17.5552ZM12 17C14.7614 17 17 14.7614 17 12C17 9.23858 14.7614 7 12 7C9.23858 7 7 9.23858 7 12C7 14.7614 9.23858 17 12 17Z" fill="black"/>
</svg>
