<svg width="24" height="24" viewBox="0 0 24 24" fill="none" xmlns="http://www.w3.org/2000/svg">
<path fill-rule="evenodd" clip-rule="evenodd" d="M19.934 9.91216L17.5553 11.7401C17.1818 11.2541 16.7459 10.8182 16.2599 10.4448L18.0879 8.066C18.7806 8.59836 19.4017 9.2194 19.934 9.91216ZM13.3061 6.08452L12.9181 9.05932C12.6189 9.0203 12.3126 9 12 9C11.6875 9 11.3811 9.0203 11.082 9.05932L10.6939 6.08452C11.1214 6.02876 11.5574 6 12 6C12.4427 6 12.8787 6.02876 13.3061 6.08452ZM5.91219 8.06601L7.74017 10.4448C7.25416 10.8182 6.81827 11.2541 6.44479 11.7401L4.06604 9.91216C4.59839 9.21941 5.21943 8.59836 5.91219 8.06601ZM16.8255 14.6883C16.6048 13.8738 16.1746 13.1036 15.5355 12.4645C13.5829 10.5118 10.4171 10.5118 8.46445 12.4645C7.82533 13.1036 7.39517 13.8738 7.17443 14.6883C5.62295 14.479 4.08788 14.1573 2.5747 13.7034L2 15.619C5.23212 16.5887 8.63545 17.0223 12.007 17C15.4004 16.9994 18.7486 16.5944 22 15.619L21.4253 13.7034C19.9121 14.1573 18.377 14.479 16.8255 14.6883Z" fill="black"/>
</svg>
