<svg width="24" height="24" viewBox="0 0 24 24" fill="none" xmlns="http://www.w3.org/2000/svg">
<path fill-rule="evenodd" clip-rule="evenodd" d="M6.41421 17.5858C3.29002 14.4617 3.29002 9.53847 6.41421 6.41427L5 5.00006C3.0473 6.95276 1.99992 9.44069 2 12C2.00008 14.5591 3.04745 17.0475 5 19.0001L6.41421 17.5858ZM17.5858 6.41427C20.71 9.53847 20.71 14.4617 17.5858 17.5858L19 19.0001C20.9525 17.0475 21.9999 14.5591 22 12C22.0001 9.44069 20.9527 6.95276 19 5.00006L17.5858 6.41427ZM9.17157 14.8281C7.60948 13.266 7.60948 10.7334 9.17157 9.17129L7.75736 7.75708C5.41421 10.1002 5.41421 13.8992 7.75736 16.2424L9.17157 14.8281ZM14.8284 9.17129C16.3905 10.7334 16.3905 13.266 14.8284 14.8281L16.2426 16.2424C18.5858 13.8992 18.5858 10.1002 16.2426 7.75708L14.8284 9.17129ZM12 14C13.1046 14 14 13.1046 14 12C14 10.8954 13.1046 10 12 10C10.8954 10 10 10.8954 10 12C10 13.1046 10.8954 14 12 14Z" fill="black"/>
</svg>
