<svg width="24" height="24" viewBox="0 0 24 24" fill="none" xmlns="http://www.w3.org/2000/svg">
<path fill-rule="evenodd" clip-rule="evenodd" d="M6.34313 6.34286C3.21893 9.46706 3.21893 14.5324 6.34313 17.6566L4.99996 19.0708C3.03827 17.1091 1.99082 14.5532 1.99994 12C2.00897 9.47046 3.05644 6.94361 4.99999 5.00006L6.34313 6.34286ZM17.6568 17.6566C20.781 14.5324 20.781 9.46706 17.6568 6.34286L19 5.00006C20.9435 6.94361 21.9909 9.47046 21.9999 12C22.009 14.5532 20.9617 17.1091 19 19.0708L17.6568 17.6566ZM9.17155 9.17129C7.60946 10.7334 7.60946 13.266 9.17155 14.8281L7.75734 16.2424C5.4142 13.8992 5.4142 10.1002 7.75734 7.75708L9.17155 9.17129ZM14.8284 14.8281C16.3905 13.266 16.3905 10.7334 14.8284 9.17129L16.2426 7.75708C18.5858 10.1002 18.5858 13.8992 16.2426 16.2424L14.8284 14.8281ZM13 13.7324C13.5978 13.3866 14 12.7403 14 12C14 10.8954 13.1046 10 12 10C10.8954 10 9.99998 10.8954 9.99998 12C9.99998 12.7403 10.4022 13.3866 11 13.7324V22H13V13.7324Z" fill="black"/>
</svg>
