<svg width="24" height="24" viewBox="0 0 24 24" fill="none" xmlns="http://www.w3.org/2000/svg">
<path fill-rule="evenodd" clip-rule="evenodd" d="M16.5789 2.99988L9.12951 10.4612C8.42391 11.1662 8.05079 12.0776 8.01013 13L8.00625 13C6.82201 13 5.75701 13.5164 5.02634 14.3331C4.48306 14.9403 4.09695 15.6458 3.73666 16.3711C3.25773 17.3352 2.66272 18.1604 2 19.0008L2.95121 19.5909C4.45732 20.5237 6.23845 21 8.00625 21C10.2144 21 12.0045 19.2091 12.0045 17L12.0045 16.9962C12.9288 16.9567 13.8421 16.5848 14.5491 15.8787L14.5501 15.8777L22 8.41587C22 6.93348 21.5211 5.60817 20.4544 4.54283C19.3873 3.47711 18.061 2.99988 16.5789 2.99988ZM10.0054 17C10.0054 18.1046 9.11032 19 8.00625 19C6.81047 19 5.70637 18.664 4.95024 18.3521C5.47536 17.4611 5.81847 16.4465 6.51594 15.6669C6.88342 15.2561 7.41427 15 8.00625 15C9.03617 15 10.0054 15.9654 10.0054 17ZM11.4446 14.9575C12.0364 15.0869 12.6782 14.9209 13.1363 14.4637L13.9702 13.6284C13.8699 13.0567 13.5465 12.4569 13.0469 11.9571C12.5492 11.4592 11.9522 11.1361 11.3827 11.0345L10.5429 11.8756L10.5419 11.8766C10.085 12.3329 9.91909 12.971 10.0469 13.5595C10.6213 13.9013 11.1029 14.3829 11.4446 14.9575ZM12.9509 9.46376L17.373 5.03452C17.9446 5.13649 18.5432 5.46008 19.042 5.95825C19.5407 6.45632 19.8641 7.05339 19.9662 7.6229L15.5404 12.0558C15.2679 11.4892 14.8921 10.9747 14.4605 10.5429C14.0295 10.1117 13.5162 9.73629 12.9509 9.46376Z" fill="black"/>
</svg>
