<svg width="24" height="24" viewBox="0 0 24 24" fill="none" xmlns="http://www.w3.org/2000/svg">
<path fill-rule="evenodd" clip-rule="evenodd" d="M16.5765 3L9.12378 10.4613C8.4179 11.1663 8.04461 12.0777 8.00391 13L8.00007 13C6.81531 13 5.74982 13.5164 5.01883 14.3331C3.71905 15.7853 4 17 2 19C3 20 5.61993 21 8.00007 21C10.2092 21 12.0001 19.2091 12.0001 17L12.0001 16.9963C12.9248 16.9568 13.8385 16.5849 14.5458 15.8788L14.5468 15.8778L22 8.41599C22 6.93361 21.5209 5.60829 20.4537 4.54295C19.3862 3.47724 18.0593 3 16.5765 3ZM11.4401 14.9576C12.032 15.087 12.6741 14.921 13.1324 14.4638L13.9667 13.6285C13.8663 13.0568 13.5427 12.4569 13.0429 11.9571C12.545 11.4592 11.9478 11.1362 11.378 11.0345L10.5378 11.8757L10.5368 11.8767C10.0798 12.333 9.91374 12.971 10.0416 13.5595C10.6163 13.9012 11.0982 14.383 11.4401 14.9576ZM12.9469 9.46381L17.371 5.03464C17.9428 5.13661 18.5417 5.4602 19.0407 5.95837C19.5396 6.45644 19.8632 7.05351 19.9653 7.62302L15.5375 12.0559C15.2649 11.4893 14.889 10.9748 14.4571 10.5429C14.0259 10.1117 13.5124 9.73633 12.9469 9.46381Z" fill="black"/>
</svg>
