<svg width="24" height="24" viewBox="0 0 24 24" fill="none" xmlns="http://www.w3.org/2000/svg">
<path fill-rule="evenodd" clip-rule="evenodd" d="M9.12951 10.4613L16.5789 3C18.061 3 19.3873 3.47724 20.4544 4.54295C21.5211 5.60829 22 6.93361 22 8.41599L14.5501 15.8778L14.5491 15.8788C13.8421 16.5849 12.9288 16.9568 12.0045 16.9963L12.0045 17.0001C12.0045 17.7286 11.8098 18.4117 11.4696 19H21V21H8.03781C8.0273 21.0001 8.01678 21.0001 8.00625 21.0001C6.23845 21.0001 4.45732 20.5238 2.95121 19.591L2 19.0009C2.66272 18.1605 3.25773 17.3353 3.73666 16.3712C4.09695 15.6459 4.48306 14.9405 5.02634 14.3332C5.75701 13.5165 6.82201 13.0001 8.00625 13.0001L8.01013 13.0001C8.05079 12.0778 8.42391 11.1663 9.12951 10.4613ZM8.02856 19H8V19.0001C7.64816 18.9998 7.3043 18.9704 6.97495 18.9211C6.99149 18.7831 7 18.6427 7 18.5003C7 17.6108 6.66818 16.7987 6.12156 16.1813C6.24089 16.0018 6.37074 15.8293 6.51594 15.667C6.88342 15.2563 7.41427 15.0001 8.00625 15.0001C9.03617 15.0001 10.0054 15.9656 10.0054 17.0001C10.0054 18.0972 9.12236 18.988 8.02856 19ZM13.1363 14.4638C12.6782 14.9211 12.0364 15.087 11.4446 14.9576C11.1029 14.383 10.6213 13.9014 10.0469 13.5596C9.91909 12.9711 10.085 12.333 10.5419 11.8767L10.5429 11.8757L11.3827 11.0346C11.9522 11.1363 12.5492 11.4593 13.0469 11.9572C13.5465 12.457 13.8699 13.0568 13.9702 13.6286L13.1363 14.4638ZM17.373 5.03464L12.9509 9.46388C13.5162 9.73641 14.0295 10.1118 14.4605 10.543C14.8921 10.9749 15.2679 11.4893 15.5404 12.0559L19.9662 7.62302C19.8641 7.05351 19.5407 6.45644 19.042 5.95837C18.5432 5.4602 17.9446 5.13661 17.373 5.03464Z" fill="black"/>
</svg>
