<svg width="24" height="24" viewBox="0 0 24 24" fill="none" xmlns="http://www.w3.org/2000/svg">
<path fill-rule="evenodd" clip-rule="evenodd" d="M9.12951 10.4613L16.5789 3C18.061 3 19.3873 3.47724 20.4544 4.54295C21.5211 5.60829 22 6.93361 22 8.41599L14.5501 15.8778L14.5491 15.8788C13.8421 16.5849 12.9288 16.9568 12.0045 16.9963L12.0045 17.0001C12.0045 17.7286 11.8098 18.4117 11.4696 19H21V21H8.03781C8.0273 21.0001 8.01678 21.0001 8.00625 21.0001C5.75839 21.0001 3.86167 20.1558 2 19.0009C2.66272 18.1605 3.25773 17.3353 3.73666 16.3712C4.09695 15.6459 4.48306 14.9405 5.02634 14.3332C5.75701 13.5165 6.82201 13.0001 8.00625 13.0001L8.01013 13.0001C8.05079 12.0778 8.42391 11.1663 9.12951 10.4613ZM8.02856 19H8C7.64816 18.9997 7.3043 18.9704 6.97495 18.9211C6.99149 18.7831 7 18.6427 7 18.5003C7 17.6108 6.66818 16.7987 6.12156 16.1813C6.24089 16.0018 6.37074 15.8293 6.51594 15.667C6.88342 15.2563 7.41427 15.0001 8.00625 15.0001C9.03617 15.0001 10.0054 15.9656 10.0054 17.0001C10.0054 18.0972 9.12236 18.988 8.02856 19Z" fill="black"/>
</svg>
