<svg width="24" height="24" viewBox="0 0 24 24" fill="none" xmlns="http://www.w3.org/2000/svg">
<path fill-rule="evenodd" clip-rule="evenodd" d="M12 4C11.4477 4 11 4.44772 11 5V7.015C11.3285 7.00508 11.6623 7 12 7C12.3377 7 12.6715 7.00508 13 7.015V5C13 4.44772 12.5523 4 12 4ZM9 5V7.14046C7.91559 7.24608 6.93079 7.4081 6.10061 7.61564C5.33439 7.8072 4.64339 8.0512 4.11985 8.36064C3.66326 8.63052 3 9.15203 3 10C3 10.194 3.03473 10.371 3.09377 10.5318L5.00506 19.1325C5.0547 19.7787 5.46124 20.2555 5.85254 20.5639C6.2814 20.9019 6.84 21.1625 7.44113 21.3629C8.65384 21.7671 10.2656 22 12 22C13.7344 22 15.3462 21.7671 16.5589 21.3629C17.16 21.1625 17.7186 20.9019 18.1475 20.5639C18.5388 20.2555 18.9453 19.7787 18.9949 19.1325L20.9062 10.5318C20.9653 10.371 21 10.194 21 10C21 9.15203 20.3367 8.63052 19.8801 8.36064C19.3566 8.0512 18.6656 7.8072 17.8994 7.61564C17.0692 7.4081 16.0844 7.24608 15 7.14046V5C15 3.34315 13.6569 2 12 2C10.3431 2 9 3.34315 9 5ZM12 9C12.3397 9 12.6734 9.00546 13 9.01597V10.984C12.6734 10.9945 12.3397 11 12 11C9.848 11 7.93329 10.781 6.58568 10.4441C6.01319 10.3009 5.58249 10.1461 5.28975 10C5.58249 9.85388 6.01319 9.69905 6.58568 9.55593C7.93329 9.21903 9.848 9 12 9ZM17.4143 9.55593C16.7384 9.38694 15.9197 9.2476 15 9.1507V10.8493C15.9197 10.7524 16.7384 10.6131 17.4143 10.4441C17.9868 10.3009 18.4175 10.1461 18.7102 10C18.4175 9.85388 17.9868 9.69905 17.4143 9.55593ZM13 14.3819V12.985C12.6715 12.9949 12.3377 13 12 13C9.73373 13 7.64843 12.7713 6.10061 12.3844C5.90094 12.3344 5.70637 12.281 5.51855 12.2237L7 18.9123C7.01773 18.9312 7.04625 18.9582 7.09048 18.9931C7.26885 19.1336 7.58893 19.304 8.07359 19.4655C9.03245 19.7852 10.4207 20 12 20C13.5793 20 14.9675 19.7852 15.9264 19.4655C16.4111 19.304 16.7311 19.1336 16.9095 18.9931C16.9537 18.9582 16.9823 18.9312 17 18.9123V18.8902L18.4815 12.2237C18.2936 12.281 18.0991 12.3344 17.8994 12.3844C17.0692 12.5919 16.0844 12.7539 15 12.8595V14.3819C15.3069 14.6566 15.5 15.0557 15.5 15.5C15.5 16.3284 14.8284 17 14 17C13.1716 17 12.5 16.3284 12.5 15.5C12.5 15.0557 12.6931 14.6566 13 14.3819Z" fill="black"/>
</svg>
