<svg width="24" height="24" viewBox="0 0 24 24" fill="none" xmlns="http://www.w3.org/2000/svg">
<path fill-rule="evenodd" clip-rule="evenodd" d="M11 5C11 4.44772 11.4477 4 12 4C12.5523 4 13 4.44772 13 5V7.015C12.6715 7.00508 12.3377 7 12 7C11.6623 7 11.3285 7.00508 11 7.015V5ZM15 5V7.14046C16.0844 7.24608 17.0692 7.4081 17.8994 7.61564C18.6656 7.8072 19.3566 8.0512 19.8801 8.36064C20.3367 8.63052 21 9.15203 21 10C21 10.194 20.9653 10.371 20.9062 10.5318L18.9949 19.1325C18.9453 19.7787 18.5388 20.2555 18.1475 20.5639C17.7186 20.9019 17.16 21.1625 16.5589 21.3629C15.3462 21.7671 13.7344 22 12 22C10.2656 22 8.65384 21.7671 7.44113 21.3629C6.84 21.1625 6.2814 20.9019 5.85254 20.5639C5.46124 20.2555 5.0547 19.7787 5.00506 19.1325L3.09377 10.5318C3.03473 10.371 3 10.194 3 10C3 9.15203 3.66326 8.63052 4.11985 8.36064C4.64339 8.0512 5.33439 7.8072 6.10061 7.61564C6.93079 7.4081 7.91559 7.24608 9 7.14046V5C9 3.34315 10.3431 2 12 2C13.6569 2 15 3.34315 15 5ZM12 9C12.3397 9 12.6734 9.00546 13 9.01597V10.984C12.6734 10.9945 12.3397 11 12 11C9.848 11 7.93329 10.781 6.58568 10.4441C6.01319 10.3009 5.58249 10.1461 5.28975 10C5.58249 9.85388 6.01319 9.69905 6.58568 9.55593C7.93329 9.21903 9.848 9 12 9ZM17.4143 9.55593C16.7384 9.38694 15.9197 9.2476 15 9.1507V10.8493C15.9197 10.7524 16.7384 10.6131 17.4143 10.4441C17.9868 10.3009 18.4175 10.1461 18.7102 10C18.4175 9.85388 17.9868 9.69905 17.4143 9.55593ZM13 12.985V14.3819C12.6931 14.6566 12.5 15.0557 12.5 15.5C12.5 16.3284 13.1716 17 14 17C14.8284 17 15.5 16.3284 15.5 15.5C15.5 15.0557 15.3069 14.6566 15 14.3819V12.8595C14.3639 12.9215 13.6935 12.964 13 12.985ZM4.93492 9.76855C4.93545 9.76848 4.93931 9.7724 4.94491 9.78049C4.93719 9.77266 4.93439 9.76861 4.93492 9.76855ZM19.0651 9.76855C19.0656 9.76861 19.0628 9.77266 19.0551 9.78049C19.0607 9.7724 19.0646 9.76848 19.0651 9.76855Z" fill="black"/>
</svg>
