<svg width="24" height="24" viewBox="0 0 24 24" fill="none" xmlns="http://www.w3.org/2000/svg">
<path fill-rule="evenodd" clip-rule="evenodd" d="M8.89443 2.55276C8.64744 2.05878 8.04676 1.85856 7.55279 2.10555C7.05881 2.35254 6.85858 2.95321 7.10557 3.44719L7.75952 4.75508C7.13221 5.38172 6.64296 6.14654 6.34131 6.99998H8.4999C9.59276 6.99998 11.4999 7.99998 11.9999 8.99998C12.4999 7.99998 14.407 6.99998 15.4999 6.99998H17.6585C17.3569 6.1466 16.8677 5.38183 16.2404 4.75521L16.8944 3.44719C17.1414 2.95321 16.9412 2.35254 16.4472 2.10555C15.9532 1.85856 15.3526 2.05878 15.1056 2.55276L14.589 3.58582C13.8052 3.21029 12.9271 2.99997 11.9999 2.99997C11.0728 2.99997 10.1947 3.21026 9.41092 3.58575L8.89443 2.55276ZM3 6.99997V7.99997C3 9.65683 4.34315 11 6 11V13H3V15H6V16C6 16.3407 6.0284 16.6748 6.08296 17H6C4.34315 17 3 18.3431 3 20V21H5V20C5 19.4477 5.44772 19 6 19H6.80269C7.84012 20.7934 9.77915 22 12 22C14.2208 22 16.1599 20.7934 17.1973 19H18C18.5523 19 19 19.4477 19 20V21H21V20C21 18.3431 19.6569 17 18 17H17.917C17.9716 16.6748 18 16.3407 18 16V15H21V13H18V11C19.6569 11 21 9.65683 21 7.99997V6.99997H19V7.99997C19 8.55226 18.5523 8.99997 18 8.99997H16C14.3431 8.99997 13 10.3431 13 12V17H11V12C11 10.3431 9.65685 8.99997 8 8.99997H6C5.44772 8.99997 5 8.55226 5 7.99997V6.99997H3Z" fill="black"/>
</svg>
