<svg width="24" height="24" viewBox="0 0 24 24" fill="none" xmlns="http://www.w3.org/2000/svg">
<path fill-rule="evenodd" clip-rule="evenodd" d="M7.55279 2.10555C8.04676 1.85856 8.64744 2.05878 8.89443 2.55276L9.41094 3.58578C10.1948 3.21028 11.0728 2.99997 12 2.99997C12.9272 2.99997 13.8052 3.21028 14.5891 3.58578L15.1056 2.55276C15.3526 2.05878 15.9532 1.85856 16.4472 2.10555C16.9412 2.35254 17.1414 2.95321 16.8944 3.44719L16.2404 4.75514C17.3275 5.8411 18 7.34201 18 8.99997C18.5523 8.99998 19 8.55226 19 7.99998V6.99998H21V7.99998C21 9.65683 19.6569 11 18 11V13H21V15H18V16C18 16.3407 17.9716 16.6748 17.917 17H18C19.6569 17 21 18.3431 21 20V21H19V20C19 19.4477 18.5523 19 18 19H17.1973C16.1599 20.7934 14.2208 22 12 22C9.77915 22 7.84012 20.7934 6.80269 19H6C5.44772 19 5 19.4477 5 20V21H3V20C3 18.3431 4.34315 17 6 17H6.08296C6.0284 16.6748 6 16.3407 6 16V15H3V13H6V11C4.34315 11 3 9.65683 3 7.99998V6.99998H5V7.99998C5 8.55226 5.44772 8.99998 6 8.99998C6 7.34201 6.67248 5.8411 7.75955 4.75514L7.10557 3.44719C6.85858 2.95321 7.05881 2.35254 7.55279 2.10555ZM8 8.99998C8 6.79084 9.79086 4.99997 12 4.99997C14.2091 4.99997 16 6.79084 16 8.99997L15 8.99998C13.8053 8.99998 12.7329 9.52373 12 10.3542C11.2671 9.52373 10.1947 8.99998 9 8.99998H8ZM15 11H16V16C16 18.2091 14.2091 20 12 20C9.79086 20 8 18.2091 8 16V11H9C10.1046 11 11 11.8954 11 13V17H13V13C13 11.8954 13.8954 11 15 11Z" fill="black"/>
</svg>
