<svg width="24" height="24" viewBox="0 0 24 24" fill="none" xmlns="http://www.w3.org/2000/svg">
<path fill-rule="evenodd" clip-rule="evenodd" d="M11 2L4 5.5V22H8V18H10V22H12.5V17.5C12.5 16.9477 12.9477 16.5 13.5 16.5V16C13.5 15.2816 13.6684 14.6025 13.9678 14H12V12H14V13.9364C14.7481 12.4892 16.2585 11.5 18 11.5V5.5L11 2ZM8 8H10V10H8V8ZM8 12H10V14H8V12ZM14 8H12V10H14V8ZM18 15C17.4477 15 17 15.4477 17 16V18H19V16C19 15.4477 18.5523 15 18 15ZM21 18V16C21 14.3431 19.6569 13 18 13C16.3431 13 15 14.3431 15 16V18H14V19V20V22H22V20V19V18H21Z" fill="black"/>
</svg>
