<svg width="24" height="24" viewBox="0 0 24 24" fill="none" xmlns="http://www.w3.org/2000/svg">
<path fill-rule="evenodd" clip-rule="evenodd" d="M11 2L4 5.5V22.0004H10V19.0004H11.6891C11.5656 18.5209 11.5 18.0182 11.5 17.5002C11.5 17.3319 11.5069 17.1652 11.5205 17.0004H8V20.0004H6V6.73607L11 4.23607L16 6.73607V11.6893C16.4794 11.5659 16.9821 11.5002 17.5 11.5002C17.6684 11.5002 17.8351 11.5072 18 11.5208V5.5L11 2ZM10 8H8V10H10V8ZM10 12H8V14H10V12ZM12 8H14V10H12V8ZM14 12V12.626C13.4711 13.0066 13.0066 13.4711 12.626 14H12V12H14ZM22 17.5C22 19.9853 19.9853 22 17.5 22C15.0147 22 13 19.9853 13 17.5C13 15.0147 15.0147 13 17.5 13C19.9853 13 22 15.0147 22 17.5ZM20 18.25H15V16.75H20V18.25Z" fill="black"/>
</svg>
