<svg width="24" height="24" viewBox="0 0 24 24" fill="none" xmlns="http://www.w3.org/2000/svg">
<path fill-rule="evenodd" clip-rule="evenodd" d="M11 2L4 5.5V22H8V18H10V22H13.5313C12.2856 20.9006 11.5 19.292 11.5 17.5C11.5 16.1938 11.9174 14.9851 12.626 14H12V12H14V12.626C14.9851 11.9174 16.1938 11.5 17.5 11.5C17.6684 11.5 17.8351 11.5069 18 11.5205V5.5L11 2ZM8 8H10V10H8V8ZM8 12H10V14H8V12ZM14 8H12V10H14V8ZM16.5291 13.3604L16.7032 13.5083C16.8546 13.7952 17.155 13.9892 17.5 13.9892C17.845 13.9892 18.1454 13.7952 18.2968 13.5083L18.4709 13.3604L18.8273 13.2883C19.4816 13.49 20.0717 13.8366 20.5604 14.29L20.8336 14.5436L20.6353 14.8592C20.463 15.1337 20.4454 15.4905 20.6177 15.789C20.7902 16.0877 21.1083 16.2509 21.4324 16.2386L21.8055 16.2244L21.8883 16.5886C21.9614 16.9108 22 17.2458 22 17.5892C22 17.9325 21.9615 18.2673 21.8883 18.5894L21.8056 18.9536L21.4324 18.9394C21.1083 18.9271 20.7902 19.0903 20.6177 19.389C20.4453 19.6876 20.463 20.0444 20.6355 20.3189L20.8338 20.6346L20.5605 20.8882C20.0718 21.3417 19.4817 21.6884 18.8273 21.8901L18.4709 22L18.2968 21.6701C18.1454 21.3831 17.845 21.1892 17.5 21.1892C17.155 21.1892 16.8546 21.3831 16.7032 21.6701L16.5291 22L16.1727 21.8901C15.5183 21.6884 14.9282 21.3417 14.4395 20.8882L14.1662 20.6346L14.3646 20.3189C14.5371 20.0444 14.5547 19.6876 14.3823 19.389C14.2099 19.0903 13.8917 18.9271 13.5676 18.9394L13.1944 18.9536L13.1117 18.5894C13.0385 18.2673 13 17.9325 13 17.5892C13 17.2458 13.0386 16.9108 13.1117 16.5886L13.1945 16.2244L13.5676 16.2386C13.8918 16.2509 14.2099 16.0877 14.3823 15.789C14.5547 15.4905 14.5371 15.1337 14.3647 14.8592L14.1664 14.5436L14.4396 14.29C14.9283 13.8366 15.5184 13.49 16.1727 13.2883L16.5291 13.3604ZM19.3 17.5888C19.3 18.583 18.4941 19.3888 17.5 19.3888C16.5059 19.3888 15.7 18.583 15.7 17.5888C15.7 16.5947 16.5059 15.7888 17.5 15.7888C18.4941 15.7888 19.3 16.5947 19.3 17.5888Z" fill="black"/>
</svg>
