<svg width="24" height="24" viewBox="0 0 24 24" fill="none" xmlns="http://www.w3.org/2000/svg">
<path fill-rule="evenodd" clip-rule="evenodd" d="M11 2L4 5.5V22H8V18H10V22H13.5313C12.2856 20.9006 11.5 19.292 11.5 17.5C11.5 16.1938 11.9174 14.9851 12.626 14H12V12H14V12.626C14.9851 11.9174 16.1938 11.5 17.5 11.5C17.6684 11.5 17.8351 11.5069 18 11.5205V5.5L11 2ZM8 8H10V10H8V8ZM8 12H10V14H8V12ZM14 8H12V10H14V8ZM22 17.5C22 19.9853 19.9853 22 17.5 22C15.0147 22 13 19.9853 13 17.5C13 15.0147 15.0147 13 17.5 13C19.9853 13 22 15.0147 22 17.5ZM16.4393 17.5L14.9697 16.0303L16.0303 14.9697L17.5 16.4393L18.9697 14.9697L20.0303 16.0303L18.5607 17.5L20.0303 18.9697L18.9697 20.0303L17.5 18.5607L16.0303 20.0303L14.9697 18.9697L16.4393 17.5Z" fill="black"/>
</svg>
