<svg width="24" height="24" viewBox="0 0 24 24" fill="none" xmlns="http://www.w3.org/2000/svg">
<path fill-rule="evenodd" clip-rule="evenodd" d="M15 1.88196L18 3.38196V1.99999H20V4.38196L22 5.38196V22H16V19H14V22H2V8.38196L6 6.38196L8 7.38196V5.38196L15 1.88196ZM8 9.61803L6 8.61803L4 9.61803V20H8V9.61803ZM10 20H12V17H18V20H20V6.61803L15 4.11803L10 6.61803V20ZM14 7.99999H12V9.99999H14V7.99999ZM14 12H12V14H14V12ZM16 7.99999H18V9.99999H16V7.99999ZM18 12H16V14H18V12ZM5 14V12H7V14H5ZM5 18V16H7V18H5Z" fill="black"/>
</svg>
