<svg width="24" height="24" viewBox="0 0 24 24" fill="none" xmlns="http://www.w3.org/2000/svg">
<path fill-rule="evenodd" clip-rule="evenodd" d="M11 2L4 5.5V22.0004H10V19.0004H11.6891C11.5656 18.5209 11.5 18.0182 11.5 17.5002C11.5 17.3319 11.5069 17.1652 11.5205 17.0004H8V20.0004H6V6.73607L11 4.23607L16 6.73607V11.6893C16.4794 11.5659 16.9821 11.5002 17.5 11.5002C17.6684 11.5002 17.8351 11.5072 18 11.5208V5.5L11 2ZM10 8H8V10H10V8ZM10 12H8V14H10V12ZM12 8H14V10H12V8ZM14 12V12.626C13.4711 13.0066 13.0066 13.4711 12.626 14H12V12H14ZM16.5291 13.1803L16.7032 13.5102C16.8546 13.7972 17.155 13.9911 17.5 13.9911C17.845 13.9911 18.1454 13.7972 18.2968 13.5102L18.4709 13.1803L18.8273 13.2902C19.4816 13.4919 20.0717 13.8385 20.5604 14.292L20.8336 14.5455L20.6353 14.8612C20.463 15.1356 20.4454 15.4924 20.6177 15.7909C20.7902 16.0896 21.1083 16.2528 21.4324 16.2405L21.8055 16.2264L21.8883 16.5905C21.9614 16.9127 22 17.2477 22 17.5911C22 17.9344 21.9615 18.2692 21.8883 18.5913L21.8056 18.9555L21.4324 18.9413C21.1083 18.929 20.7902 19.0922 20.6177 19.3909C20.4453 19.6895 20.463 20.0463 20.6355 20.3209L20.8338 20.6365L20.5605 20.8901C20.0718 21.3437 19.4817 21.6903 18.8273 21.892L18.4709 22.0019L18.2968 21.672C18.1454 21.3851 17.845 21.1911 17.5 21.1911C17.155 21.1911 16.8546 21.3851 16.7032 21.672L16.5291 22.0019L16.1727 21.892C15.5183 21.6903 14.9282 21.3437 14.4395 20.8901L14.1662 20.6365L14.3646 20.3209C14.5371 20.0464 14.5547 19.6895 14.3823 19.3909C14.2099 19.0922 13.8917 18.929 13.5676 18.9413L13.1944 18.9555L13.1117 18.5913C13.0385 18.2692 13 17.9344 13 17.5911C13 17.2477 13.0386 16.9127 13.1117 16.5905L13.1945 16.2264L13.5676 16.2405C13.8918 16.2528 14.2099 16.0896 14.3823 15.7909C14.5547 15.4924 14.5371 15.1356 14.3647 14.8611L14.1664 14.5455L14.4396 14.292C14.9283 13.8385 15.5184 13.4919 16.1727 13.2902L16.5291 13.1803ZM19.3 17.5908C19.3 18.5849 18.4941 19.3908 17.5 19.3908C16.5059 19.3908 15.7 18.5849 15.7 17.5908C15.7 16.5967 16.5059 15.7908 17.5 15.7908C18.4941 15.7908 19.3 16.5967 19.3 17.5908Z" fill="black"/>
</svg>
