<svg width="24" height="24" viewBox="0 0 24 24" fill="none" xmlns="http://www.w3.org/2000/svg">
<path fill-rule="evenodd" clip-rule="evenodd" d="M4 5.5L11 2L18 5.5V11.5208C17.8351 11.5072 17.6684 11.5002 17.5 11.5002C16.9821 11.5002 16.4794 11.5659 16 11.6893V6.73607L11 4.23607L6 6.73607V20.0004H8V17.0004H11.5205C11.5069 17.1652 11.5 17.3319 11.5 17.5002C11.5 18.0182 11.5656 18.5209 11.6891 19.0004H10V22.0004H4V5.5ZM8 8H10V10H8V8ZM8 12H10V14H8V12ZM14 8H12V10H14V8ZM14 12.626V12H12V14H12.626C13.0066 13.4711 13.4711 13.0066 14 12.626ZM13 22V20V19V18H14V16C14 14.3431 15.3431 13 17 13C18.6569 13 20 14.3431 20 16V18H21V19V20V22H13ZM16 16C16 15.4477 16.4477 15 17 15C17.5523 15 18 15.4477 18 16V18H16V16Z" fill="black"/>
</svg>
