<svg width="24" height="24" viewBox="0 0 24 24" fill="none" xmlns="http://www.w3.org/2000/svg">
<path fill-rule="evenodd" clip-rule="evenodd" d="M6.00005 7.27072V11.6426C10.0948 12.2673 13.9053 12.2673 18.0001 11.6426V7.27069C13.6934 8.24309 10.3067 8.2431 6.00005 7.27072ZM20.0001 5V11.2927C20.4237 11.2094 20.8512 11.1198 21.2831 11.0238L21.8714 12.9285L21.2573 13.1741C20.498 13.4779 20.0001 14.2133 20.0001 15.0311L20 21C20 21.5523 19.5523 22 19 22H17V20H7V22H5C4.44772 22 4 21.5523 4 21L4.00005 15.0311C4.00005 14.2133 3.50215 13.4779 2.74283 13.1741L2.12866 12.9285L2.71698 11.0238C3.14888 11.1198 3.57638 11.2094 4.00005 11.2927V5C4.00005 3.34315 5.3432 2 7.00005 2H17.0001C18.6569 2 20.0001 3.34315 20.0001 5ZM9 16C9 16.5523 8.55228 17 8 17C7.44772 17 7 16.5523 7 16C7 15.4477 7.44772 15 8 15C8.55228 15 9 15.4477 9 16ZM16 17C16.5523 17 17 16.5523 17 16C17 15.4477 16.5523 15 16 15C15.4477 15 15 15.4477 15 16C15 16.5523 15.4477 17 16 17ZM9 4.00003H15V6.00003H9V4.00003Z" fill="black"/>
</svg>
