<svg width="24" height="24" viewBox="0 0 24 24" fill="none" xmlns="http://www.w3.org/2000/svg">
<path fill-rule="evenodd" clip-rule="evenodd" d="M6.00005 5C6.00005 4.44772 6.44777 4 7.00005 4H17.0001C17.5523 4 18.0001 4.44772 18.0001 5V5.61566C13.6416 6.12811 10.3585 6.12811 6.00005 5.61566V5ZM6.00005 7.62905C10.3232 8.12365 13.6769 8.12365 18.0001 7.62905V11.6426C13.9053 12.2673 10.0948 12.2673 6.00005 11.6426V7.62905ZM20.0001 5V11.2927C20.4237 11.2094 20.8512 11.1198 21.2831 11.0238L21.8714 12.9285L21.2573 13.1741C20.498 13.4779 20.0001 14.2133 20.0001 15.0311V21C20.0001 21.5523 19.5523 22 19.0001 22H17.0001V20H7.00005V22H5.00005C4.44777 22 4.00005 21.5523 4.00005 21V15.0311C4.00005 14.2133 3.50215 13.4779 2.74283 13.1741L2.12866 12.9285L2.71698 11.0238C3.14888 11.1198 3.57638 11.2094 4.00005 11.2927V5C4.00005 3.34315 5.3432 2 7.00005 2H17.0001C18.6569 2 20.0001 3.34315 20.0001 5ZM6.00005 18H8.00005H16.0001H18.0001V16V15.0311C18.0001 14.542 18.0891 14.0677 18.2545 13.6268C13.9924 14.2725 10.0077 14.2725 5.74561 13.6268C5.91102 14.0677 6.00005 14.542 6.00005 15.0311V16V18ZM18.0001 16L16.9744 16.3419C16.6758 16.4414 16.4415 16.6757 16.3419 16.9743L16.0001 18L15.6582 16.9743C15.5586 16.6757 15.3243 16.4414 15.0257 16.3419L14.0001 16L15.0257 15.6581C15.3243 15.5586 15.5586 15.3243 15.6582 15.0257L16.0001 14L16.3419 15.0257C16.4415 15.3243 16.6758 15.5586 16.9744 15.6581L18.0001 16ZM7.02571 16.3419L6.00005 16L7.02571 15.6581C7.32432 15.5586 7.55863 15.3243 7.65817 15.0257L8.00005 14L8.34194 15.0257C8.44147 15.3243 8.67579 15.5586 8.97439 15.6581L10.0001 16L8.97439 16.3419C8.67579 16.4414 8.44147 16.6757 8.34194 16.9743L8.00005 18L7.65817 16.9743C7.55863 16.6757 7.32432 16.4414 7.02571 16.3419Z" fill="black"/>
</svg>
