<svg width="24" height="24" viewBox="0 0 24 24" fill="none" xmlns="http://www.w3.org/2000/svg">
<path fill-rule="evenodd" clip-rule="evenodd" d="M5 3C3.89543 3 3 3.89543 3 5V19C3 20.1046 3.89543 21 5 21H19C20.1046 21 21 20.1046 21 19V5C21 3.89543 20.1046 3 19 3H5ZM5 5H19V19H5V5ZM16.4932 13.5065C16.302 15.6038 14.5744 17.1 12.1912 17.1C9.30956 17.1 7.5 15.1734 7.5 11.9966V11.9898C7.5 8.81295 9.31639 6.90002 12.1912 6.90002C14.5812 6.90002 16.2951 8.40987 16.4863 10.5004L16.4932 10.5619H14.4856L14.4583 10.4458C14.2261 9.3595 13.4203 8.64899 12.1912 8.64899C10.6138 8.64899 9.60319 9.91972 9.60319 11.9829V11.9898C9.60319 14.0667 10.6138 15.3511 12.1912 15.3511C13.3794 15.3511 14.2124 14.6679 14.4788 13.4996L14.4924 13.4313H16.5L16.4932 13.5065Z" fill="black"/>
</svg>
