<svg width="25" height="24" viewBox="0 0 25 24" fill="none" xmlns="http://www.w3.org/2000/svg">
<path fill-rule="evenodd" clip-rule="evenodd" d="M6.02002 2C4.91545 2 4.02002 2.89543 4.02002 4V20C4.02002 21.1046 4.91545 22 6.02002 22H18.02C19.1246 22 20.02 21.1046 20.02 20V4C20.02 2.89543 19.1246 2 18.02 2H6.02002ZM9.02002 17H7.02002V19H9.02002V17ZM7.02002 13H9.02002V15H7.02002V13ZM13.02 17H11.02V19H13.02V17ZM11.02 13H13.02V15H11.02V13ZM17.02 17H15.02V19H17.02V17ZM15.02 13H17.02V15H15.02V13ZM17.02 5H7.02002V11H17.02V5Z" fill="black"/>
</svg>
