<svg width="24" height="24" viewBox="0 0 24 24" fill="none" xmlns="http://www.w3.org/2000/svg">
<path fill-rule="evenodd" clip-rule="evenodd" d="M7 4V2H9V4H15V2H17V4H21V8H3V4H7ZM21 10H3V19C3 20.6569 4.34315 22 6 22H18C19.6569 22 21 20.6569 21 19V10ZM6 17.7586H7.04134L7.3994 16.6044H9.07473L9.43279 17.7586H10.4741L8.82179 13H7.65563L6 17.7586ZM8.22721 13.9234H8.24692L8.84479 15.8591H7.62935L8.22721 13.9234ZM11.9589 17.8312C12.4911 17.8312 12.8524 17.5806 13.0331 17.1749H13.0528V17.7586H14.012V14.2235H13.0528V16.2549C13.0528 16.7166 12.7802 17.0331 12.3498 17.0331C11.9195 17.0331 11.7027 16.766 11.7027 16.3043V14.2235H10.7435V16.5055C10.7435 17.3332 11.1837 17.8312 11.9589 17.8312ZM18 17.6597C18 18.4479 17.3397 18.9854 16.282 18.9854C15.3129 18.9854 14.7019 18.5468 14.6099 17.9796L14.6066 17.9499H15.5396L15.5494 17.973C15.625 18.1478 15.8812 18.2995 16.282 18.2995C16.778 18.2995 17.0408 18.0423 17.0408 17.6465V17.1057H17.0211C16.8371 17.475 16.4429 17.7092 15.9338 17.7092C15.0534 17.7092 14.5081 17.0496 14.5081 15.9515V15.9482C14.5081 14.8204 15.06 14.1509 15.9502 14.1509C16.4462 14.1509 16.8306 14.4147 17.0211 14.827H17.0408V14.2235H18V17.6597ZM15.4837 15.9746C15.4837 16.611 15.7859 17.0035 16.2655 17.0035C16.7353 17.0035 17.0441 16.6077 17.0441 15.9746V15.9713C17.0441 15.3414 16.732 14.949 16.2655 14.949C15.7892 14.949 15.4837 15.3381 15.4837 15.9713V15.9746Z" fill="black"/>
</svg>
