<svg width="24" height="24" viewBox="0 0 24 24" fill="none" xmlns="http://www.w3.org/2000/svg">
<path fill-rule="evenodd" clip-rule="evenodd" d="M7 2V4H4H3V5V19C3 20.6569 4.34315 22 6 22H18C19.6569 22 21 20.6569 21 19V5V4H20H17V2H15V4H9V2H7ZM5 19V10H19V19C19 19.5523 18.5523 20 18 20H6C5.44772 20 5 19.5523 5 19ZM5 8H19V6H5V8ZM8.97548 13.4057L10.572 14.9975L8.99561 16.5802L10.4035 17.9905L11.9832 16.4045L13.5725 17.989L14.9755 16.5738L13.3895 14.9925L14.9725 13.4033L13.5646 11.9929L11.9783 13.5856L10.3784 11.9905L8.97548 13.4057Z" fill="black"/>
</svg>
