<svg width="24" height="24" viewBox="0 0 24 24" fill="none" xmlns="http://www.w3.org/2000/svg">
<path fill-rule="evenodd" clip-rule="evenodd" d="M5 4V2H7V4H17V2H19V4H20H21V5V19C21 20.6569 19.6569 22 18 22H6C4.34315 22 3 20.6569 3 19V5V4H4H5ZM5 19V6H19V19C19 19.5523 18.5523 20 18 20H6C5.44772 20 5 19.5523 5 19ZM17 10H7V8H17V10ZM11.4431 14.0255C11.4431 12.8399 12.3839 12 13.6689 12C15.062 12 16.0788 12.9806 16.0788 14.9457V14.9538C16.0788 16.8547 15.1621 18 13.6569 18C12.54 18 11.6993 17.349 11.5272 16.4528L11.5192 16.4166H12.7122L12.7242 16.4488C12.8683 16.7984 13.1885 17.0355 13.6609 17.0355C14.5056 17.0355 14.8739 16.2277 14.9179 15.2029C14.9219 15.1266 14.9259 15.0462 14.9219 14.9819H14.9019C14.6737 15.5204 14.1053 15.9143 13.3246 15.9143C12.2077 15.9143 11.4431 15.1226 11.4431 14.0335V14.0255ZM12.6201 13.9933C12.6201 14.5961 13.0724 15.0181 13.6729 15.0181C14.2774 15.0181 14.7418 14.5961 14.7418 14.0054V14.0013C14.7418 13.4146 14.2774 12.9645 13.6849 12.9645C13.0965 12.9645 12.6201 13.4106 12.6201 13.9853V13.9933ZM10.1941 17.8995H8.99719V13.2137H8.97317L7.5 14.2184V13.1413L8.99319 12.1005H10.1941V17.8995Z" fill="black"/>
</svg>
