<svg width="24" height="24" viewBox="0 0 24 24" fill="none" xmlns="http://www.w3.org/2000/svg">
<path fill-rule="evenodd" clip-rule="evenodd" d="M5 4V2H7V4H17V2H19V4H20H21V5V19C21 20.6569 19.6569 22 18 22H6C4.34315 22 3 20.6569 3 19V5V4H4H5ZM5 19V6H19V19C19 19.5523 18.5523 20 18 20H6C5.44772 20 5 19.5523 5 19ZM17 10H7V8H17V10ZM8.97548 13.4057L10.572 14.9975L8.99561 16.5802L10.4035 17.9905L11.9832 16.4045L13.5725 17.989L14.9755 16.5738L13.3895 14.9925L14.9725 13.4033L13.5646 11.9929L11.9783 13.5856L10.3784 11.9905L8.97548 13.4057Z" fill="black"/>
</svg>
