<svg width="25" height="24" viewBox="0 0 25 24" fill="none" xmlns="http://www.w3.org/2000/svg">
<path fill-rule="evenodd" clip-rule="evenodd" d="M7.02454 6V7H9.02454V6H15.0245V7H17.0245V6H19.0245V9H5.02454V6H7.02454ZM9.02454 4H15.0245V3H17.0245V4H20.0245H21.0245V5V18C21.0245 19.6569 19.6814 21 18.0245 21H6.02454C4.36768 21 3.02454 19.6569 3.02454 18V5V4H4.02454H7.02454V3H9.02454V4ZM5.02454 18V11H19.0245V18C19.0245 18.5523 18.5768 19 18.0245 19H6.02454C5.47225 19 5.02454 18.5523 5.02454 18ZM17.0245 16V13H13.0245V16H17.0245Z" fill="black"/>
</svg>
