<svg width="24" height="24" viewBox="0 0 24 24" fill="none" xmlns="http://www.w3.org/2000/svg">
<path fill-rule="evenodd" clip-rule="evenodd" d="M7 2V4H4H3V5V19C3 20.6569 4.34315 22 6 22H18C19.6569 22 21 20.6569 21 19V5V4H20H17V2H15V4H9V2H7ZM5 19V10H19V19C19 19.5523 18.5523 20 18 20H6C5.44772 20 5 19.5523 5 19ZM5 8H19V6H5V8ZM15.5 12.502C15.5 12.7761 15.2789 13.004 14.9928 13.004C14.7067 13.004 14.4856 12.7761 14.4856 12.502C14.4856 12.2279 14.7067 12 14.9928 12C15.2789 12 15.5 12.2279 15.5 12.502ZM15.4675 13.4597V17H14.5181V13.4597H15.4675ZM8.5 17H9.48188V15.1242H11.3904V14.3349H9.48188V13.0568H11.5725V12.2345H8.5V17ZM12.0732 17H13.0225V15.0185C13.0225 14.5033 13.2956 14.2193 13.7638 14.2193C13.9004 14.2193 14.0304 14.2391 14.1085 14.2721V13.4234C14.0369 13.4036 13.9394 13.3871 13.8353 13.3871C13.4289 13.3871 13.1461 13.6413 13.042 14.0773H13.0225V13.4597H12.0732V17Z" fill="black"/>
</svg>
