<svg width="24" height="24" viewBox="0 0 24 24" fill="none" xmlns="http://www.w3.org/2000/svg">
<path fill-rule="evenodd" clip-rule="evenodd" d="M5 4V2H7V4H17V2H19V4H21V19C21 20.6569 19.6569 22 18 22H6C4.34315 22 3 20.6569 3 19V4H5ZM7 9H17V7H7V9ZM12.003 17.78C12.003 17.78 9.30408 15.4049 9 15.0002C8.7907 14.7216 8.66667 14.3753 8.66667 14C8.66667 13.0795 9.41286 12.3333 10.3333 12.3333C10.7086 12.3333 11.0549 12.4574 11.3335 12.6667C11.5623 12.8385 12.003 13.2341 12.003 13.2341C12.003 13.2341 12.4377 12.8385 12.6665 12.6667C12.9451 12.4574 13.2914 12.3333 13.6667 12.3333C14.5871 12.3333 15.3333 13.0795 15.3333 14C15.3333 14.3753 15.2093 14.7216 15 15.0002C14.6959 15.4049 12.003 17.78 12.003 17.78Z" fill="black"/>
</svg>
