<svg width="24" height="24" viewBox="0 0 24 24" fill="none" xmlns="http://www.w3.org/2000/svg">
<path fill-rule="evenodd" clip-rule="evenodd" d="M7 4V2H9V4H15V2H17V4H21V8H3V4H7ZM21 10H3V19C3 20.6569 4.34315 22 6 22H18C19.6569 22 21 20.6569 21 19V10ZM12.003 18.78C12.003 18.78 9.30408 16.4049 9 16.0002C8.7907 15.7216 8.66667 15.3753 8.66667 15C8.66667 14.0795 9.41286 13.3333 10.3333 13.3333C10.7086 13.3333 11.0549 13.4574 11.3335 13.6667C11.5623 13.8385 12.003 14.2341 12.003 14.2341C12.003 14.2341 12.4377 13.8385 12.6665 13.6667C12.9451 13.4574 13.2914 13.3333 13.6667 13.3333C14.5871 13.3333 15.3333 14.0795 15.3333 15C15.3333 15.3753 15.2093 15.7216 15 16.0002C14.6959 16.4049 12.003 18.78 12.003 18.78Z" fill="black"/>
</svg>
