<svg width="24" height="24" viewBox="0 0 24 24" fill="none" xmlns="http://www.w3.org/2000/svg">
<path fill-rule="evenodd" clip-rule="evenodd" d="M7 4V2H9V4H15V2H17V4H21V8H3V4H7ZM21 10H3V19C3 20.6569 4.34315 22 6 22H18C19.6569 22 21 20.6569 21 19V10ZM15.5 13.502C15.5 13.7761 15.2789 14.004 14.9928 14.004C14.7067 14.004 14.4856 13.7761 14.4856 13.502C14.4856 13.2279 14.7067 13 14.9928 13C15.2789 13 15.5 13.2279 15.5 13.502ZM15.4675 18H14.5181V14.4597H15.4675V18ZM8.5 18H9.48188V16.1242H11.3904V15.3349H9.48188V14.0568H11.5725V13.2345H8.5V18ZM12.0732 18H13.0225V16.0185C13.0225 15.5033 13.2956 15.2193 13.7638 15.2193C13.9004 15.2193 14.0304 15.2391 14.1085 15.2721V14.4234C14.0369 14.4036 13.9394 14.3871 13.8353 14.3871C13.4289 14.3871 13.1461 14.6413 13.042 15.0773H13.0225V14.4597H12.0732V18Z" fill="black"/>
</svg>
