<svg width="24" height="24" viewBox="0 0 24 24" fill="none" xmlns="http://www.w3.org/2000/svg">
<path fill-rule="evenodd" clip-rule="evenodd" d="M7 4V2H9V4H15V2H17V4H21V8H3V4H7ZM21 10H3V19C3 20.6569 4.34315 22 6 22H18C19.6569 22 21 20.6569 21 19V10ZM11.4431 15.0255C11.4431 13.8399 12.3839 13 13.6689 13C15.062 13 16.0788 13.9806 16.0788 15.9457V15.9538C16.0788 17.8547 15.1621 19 13.6569 19C12.54 19 11.6993 18.349 11.5272 17.4528L11.5192 17.4166H12.7122L12.7242 17.4488C12.8683 17.7984 13.1885 18.0355 13.6609 18.0355C14.5056 18.0355 14.8739 17.2277 14.9179 16.2029C14.9219 16.1266 14.9259 16.0462 14.9219 15.9819H14.9019C14.6737 16.5204 14.1053 16.9143 13.3246 16.9143C12.2077 16.9143 11.4431 16.1226 11.4431 15.0335V15.0255ZM12.6201 14.9933C12.6201 15.5961 13.0724 16.0181 13.6729 16.0181C14.2774 16.0181 14.7418 15.5961 14.7418 15.0054V15.0013C14.7418 14.4146 14.2774 13.9645 13.6849 13.9645C13.0965 13.9645 12.6201 14.4106 12.6201 14.9853V14.9933ZM10.1941 18.8995H8.99719V14.2137H8.97317L7.5 15.2184V14.1413L8.99319 13.1005H10.1941V18.8995Z" fill="black"/>
</svg>
