<svg width="24" height="24" viewBox="0 0 24 24" fill="none" xmlns="http://www.w3.org/2000/svg">
<path fill-rule="evenodd" clip-rule="evenodd" d="M5 4V2H7V4H17V2H19V4H20H21V5V19C21 20.6569 19.6569 22 18 22H6C4.34315 22 3 20.6569 3 19V5V4H4H5ZM5 19V6H19V19C19 19.5523 18.5523 20 18 20H6C5.44772 20 5 19.5523 5 19ZM17 10H7V8H17V10ZM6 16.7586H7.04134L7.3994 15.6044H9.07473L9.43279 16.7586H10.4741L8.82179 12H7.65563L6 16.7586ZM8.22721 12.9234H8.24692L8.84479 14.8591H7.62935L8.22721 12.9234ZM11.9589 16.8312C12.4911 16.8312 12.8524 16.5806 13.0331 16.1749H13.0528V16.7586H14.012V13.2235H13.0528V15.2549C13.0528 15.7166 12.7802 16.0331 12.3498 16.0331C11.9195 16.0331 11.7027 15.766 11.7027 15.3043V13.2235H10.7435V15.5055C10.7435 16.3332 11.1837 16.8312 11.9589 16.8312ZM18 16.6597C18 17.4479 17.3397 17.9854 16.282 17.9854C15.3129 17.9854 14.7019 17.5468 14.6099 16.9796L14.6066 16.9499H15.5396L15.5494 16.973C15.625 17.1478 15.8812 17.2995 16.282 17.2995C16.778 17.2995 17.0408 17.0423 17.0408 16.6465V16.1057H17.0211C16.8371 16.475 16.4429 16.7092 15.9338 16.7092C15.0534 16.7092 14.5081 16.0496 14.5081 14.9515V14.9482C14.5081 13.8204 15.06 13.1509 15.9502 13.1509C16.4462 13.1509 16.8306 13.4147 17.0211 13.827H17.0408V13.2235H18V16.6597ZM15.4837 14.9746C15.4837 15.611 15.7859 16.0035 16.2655 16.0035C16.7353 16.0035 17.0441 15.6077 17.0441 14.9746V14.9713C17.0441 14.3414 16.732 13.949 16.2655 13.949C15.7892 13.949 15.4837 14.3381 15.4837 14.9713V14.9746Z" fill="black"/>
</svg>
