<svg width="24" height="24" viewBox="0 0 24 24" fill="none" xmlns="http://www.w3.org/2000/svg">
<path fill-rule="evenodd" clip-rule="evenodd" d="M7 2V4H3V19C3 20.6569 4.34315 22 6 22H18C19.6569 22 21 20.6569 21 19V4H17V2H15V4H9V2H7ZM5 19V10H19V19C19 19.5523 18.5523 20 18 20H6C5.44772 20 5 19.5523 5 19ZM5 8H19V6H5V8ZM12 18C12 18 9.30404 15.4049 8.99996 15.0002C8.79066 14.7216 8.66663 14.3753 8.66663 14C8.66663 13.0796 9.41282 12.3334 10.3333 12.3334C10.7086 12.3334 11.0549 12.4574 11.3335 12.6667C11.5622 12.8386 12.003 13.2342 12.003 13.2342C12.003 13.2342 12.4377 12.8386 12.6665 12.6667C12.945 12.4574 13.2914 12.3334 13.6666 12.3334C14.5871 12.3334 15.3333 13.0796 15.3333 14C15.3333 14.3753 15.2093 14.7216 15 15.0002C14.6959 15.4049 12 18 12 18Z" fill="black"/>
</svg>
