<svg width="24" height="24" viewBox="0 0 24 24" fill="none" xmlns="http://www.w3.org/2000/svg">
<path fill-rule="evenodd" clip-rule="evenodd" d="M3.39295 18.1907L1.99683 19.5869L2.70329 20.294L3.40975 21.0011L5.41082 18.9999H15C16.1046 18.9999 17 18.1045 17 16.9999V14.7661L20.4855 16.8574L22 17.7661V15.9999V7.99994V6.23375L20.4855 7.14245L17 9.23375V7.41003L19.9968 4.41299L19.2904 3.70589L18.5839 2.99878L16.1903 5.39255C15.8577 5.14586 15.4459 4.99994 15 4.99994H4.99998C3.89541 4.99994 2.99998 5.89537 2.99998 6.99994V16.9999C2.99998 17.446 3.14604 17.858 3.39295 18.1907ZM7.41069 16.9999H15V13.5661V12.9999V10.9999V10.4337V9.41016L7.41069 16.9999ZM14.583 6.99994L4.99998 16.5836V6.99994H14.583ZM17 12.4337V11.5661L20 9.76613V14.2337L17 12.4337Z" fill="black"/>
</svg>
