<svg width="24" height="24" viewBox="0 0 24 24" fill="none" xmlns="http://www.w3.org/2000/svg">
<path fill-rule="evenodd" clip-rule="evenodd" d="M6.00006 6C6.55235 6 7.00006 5.55228 7.00006 5C7.00006 4.44772 6.55235 4 6.00006 4C5.44778 4 5.00006 4.44772 5.00006 5C5.00006 5.55228 5.44778 6 6.00006 6ZM6.00006 8C7.65692 8 9.00006 6.65685 9.00006 5C9.00006 3.34315 7.65692 2 6.00006 2C4.34321 2 3.00006 3.34315 3.00006 5C3.00006 6.65685 4.34321 8 6.00006 8ZM13.0001 6C13.5523 6 14.0001 5.55228 14.0001 5C14.0001 4.44772 13.5523 4 13.0001 4C12.4478 4 12.0001 4.44772 12.0001 5C12.0001 5.55228 12.4478 6 13.0001 6ZM13.0001 8C14.6569 8 16.0001 6.65685 16.0001 5C16.0001 3.34315 14.6569 2 13.0001 2C11.3432 2 10.0001 3.34315 10.0001 5C10.0001 6.65685 11.3432 8 13.0001 8ZM2.00006 11C2.00006 9.89543 2.89549 9 4.00006 9H15.0001C16.1046 9 17.0001 9.89543 17.0001 11V13L22.0001 9.5V19.5L17.0001 16V18C17.0001 19.1046 16.1046 20 15.0001 20H4.00006C2.89549 20 2.00006 19.1046 2.00006 18V11Z" fill="black"/>
</svg>
