<svg width="24" height="24" viewBox="0 0 24 24" fill="none" xmlns="http://www.w3.org/2000/svg">
<path fill-rule="evenodd" clip-rule="evenodd" d="M6.00012 6C6.55241 6 7.00012 5.55228 7.00012 5C7.00012 4.44772 6.55241 4 6.00012 4C5.44784 4 5.00012 4.44772 5.00012 5C5.00012 5.55228 5.44784 6 6.00012 6ZM6.00012 8C7.65698 8 9.00012 6.65685 9.00012 5C9.00012 3.34315 7.65698 2 6.00012 2C4.34327 2 3.00012 3.34315 3.00012 5C3.00012 6.65685 4.34327 8 6.00012 8ZM4 9C2.89543 9 2 9.89543 2 11V18C2 19.1046 2.89543 20 4 20H15C16.1046 20 17 19.1046 17 18V16.7661L22.0001 20V9L17 12.2339V11C17 9.89543 16.1046 9 15 9H4ZM4 11H15V18H4V11ZM20.0001 16.4676L17.1104 14.5L20.0001 12.5324V16.4676ZM14.0001 5C14.0001 5.55228 13.5524 6 13.0001 6C12.4478 6 12.0001 5.55228 12.0001 5C12.0001 4.44772 12.4478 4 13.0001 4C13.5524 4 14.0001 4.44772 14.0001 5ZM16.0001 5C16.0001 6.65685 14.657 8 13.0001 8C11.3433 8 10.0001 6.65685 10.0001 5C10.0001 3.34315 11.3433 2 13.0001 2C14.657 2 16.0001 3.34315 16.0001 5Z" fill="black"/>
</svg>
