<svg width="24" height="24" viewBox="0 0 24 24" fill="none" xmlns="http://www.w3.org/2000/svg">
<path fill-rule="evenodd" clip-rule="evenodd" d="M8 6C8 7.10457 7.10457 8 6 8C4.89543 8 4 7.10457 4 6C4 4.89543 4.89543 4 6 4C7.10457 4 8 4.89543 8 6ZM16 6C16 6.97964 15.6478 7.87702 15.0632 8.57246C16.2239 9.27263 17 10.5457 17 12L22 8.5V19.5L17 16V18C17 19.1046 16.1046 20 15 20H4C2.89543 20 2 19.1046 2 18V10C2 9.34579 2.31411 8.76494 2.79974 8.40005C2.29757 7.73151 2 6.90051 2 6C2 3.79086 3.79086 2 6 2C7.19469 2 8.26706 2.52376 9 3.35418C9.73295 2.52376 10.8053 2 12 2C14.2091 2 16 3.79086 16 6ZM10 6C10 7.10457 10.8954 8 12 8C13.1046 8 14 7.10457 14 6C14 4.89543 13.1046 4 12 4C10.8954 4 10 4.89543 10 6Z" fill="black"/>
</svg>
