<svg width="24" height="24" viewBox="0 0 24 24" fill="none" xmlns="http://www.w3.org/2000/svg">
<path fill-rule="evenodd" clip-rule="evenodd" d="M6 8C7.10457 8 8 7.10457 8 6C8 4.89543 7.10457 4 6 4C4.89543 4 4 4.89543 4 6C4 7.10457 4.89543 8 6 8ZM9 3.35418C8.26706 2.52376 7.19469 2 6 2C3.79086 2 2 3.79086 2 6C2 6.90051 2.29757 7.73151 2.79974 8.40005C2.31411 8.76494 2 9.34579 2 10V18C2 19.1046 2.89543 20 4 20H15C16.1046 20 17 19.1046 17 18V16.7661L22.0001 19.7662V8.23381L16.7359 11.3923C16.3823 10.3502 15.6943 9.46245 14.7998 8.85678C15.5405 8.1308 16 7.11907 16 6C16 3.79086 14.2091 2 12 2C10.8053 2 9.73295 2.52376 9 3.35418ZM10 6C10 4.89543 10.8954 4 12 4C13.1046 4 14 4.89543 14 6C14 7.10457 13.1046 8 12 8C10.8954 8 10 7.10457 10 6ZM12 10H4V18H15V13C15 11.3431 13.6569 10 12 10ZM17.0001 14.4338V13.5662L20.0001 11.7662V16.2338L17.0001 14.4338Z" fill="black"/>
</svg>
