<svg width="24" height="24" viewBox="0 0 24 24" fill="none" xmlns="http://www.w3.org/2000/svg">
<path fill-rule="evenodd" clip-rule="evenodd" d="M7.41421 7H4L4 18H20V7H16.5858C15.3619 5.7761 13.7569 5 12 5C10.244 5 8.63801 5.77748 7.41421 7ZM12 3C13.9505 3 15.885 3.75607 17.3798 5H20C21.1046 5 22 5.89543 22 7V18C22 19.1046 21.1046 20 20 20H4C2.89806 20 2 19.1092 2 18.002V6.99958C2 5.89446 2.89598 5 4 5H6.62022C8.11524 3.75587 10.0475 3 12 3ZM12 9C10.3431 9 9 10.3431 9 12C9 13.6569 10.3431 15 12 15C13.6569 15 15 13.6569 15 12C15 10.3431 13.6569 9 12 9ZM7 12C7 9.23858 9.23858 7 12 7C14.7614 7 17 9.23858 17 12C17 14.7614 14.7614 17 12 17C9.23858 17 7 14.7614 7 12ZM18 10C18.5523 10 19 9.55228 19 9C19 8.44771 18.5523 8 18 8C17.4477 8 17 8.44771 17 9C17 9.55228 17.4477 10 18 10Z" fill="black"/>
</svg>
