<svg width="24" height="24" viewBox="0 0 24 24" fill="none" xmlns="http://www.w3.org/2000/svg">
<path fill-rule="evenodd" clip-rule="evenodd" d="M6 4C4.89543 4 4 4.89543 4 6V18H20.0001V6H8.82929H8.12212L7.88645 5.33325C7.61142 4.5551 6.86925 4 6 4ZM2 6C2 3.79086 3.79086 2 6 2C7.48168 2 8.77343 2.8052 9.46457 4H20.0001C21.1046 4 22.0001 4.89543 22.0001 6V18C22.0001 19.1046 21.1046 20 20.0001 20H4C2.89543 20 2 19.1046 2 18V6ZM12 9C10.3431 9 9 10.3431 9 12C9 13.6569 10.3431 15 12 15C13.6569 15 15 13.6569 15 12C15 10.3431 13.6569 9 12 9ZM7 12C7 9.23858 9.23858 7 12 7C14.7614 7 17 9.23858 17 12C17 14.7614 14.7614 17 12 17C9.23858 17 7 14.7614 7 12ZM6 7C6.55228 7 7 6.55228 7 6C7 5.44772 6.55228 5 6 5C5.44772 5 5 5.44772 5 6C5 6.55228 5.44772 7 6 7Z" fill="black"/>
</svg>
