<svg width="24" height="24" viewBox="0 0 24 24" fill="none" xmlns="http://www.w3.org/2000/svg">
<path fill-rule="evenodd" clip-rule="evenodd" d="M16.2665 4.73757C15.2807 3.75028 13.6828 3.74906 12.6955 4.73487L8.80115 8.62175C8.87215 9.33188 9.17069 10.1947 10.0037 11.0277C10.8142 11.8382 11.653 12.1427 12.3518 12.224L16.2638 8.31945C17.2533 7.33153 17.2545 5.72699 16.2665 4.73757ZM11.2881 3.32113C13.0542 1.55773 15.9126 1.5599 17.676 3.32597C19.4432 5.09583 19.441 7.96601 17.6712 9.73319L9.71186 17.6789C7.94578 19.4423 5.08739 19.4401 3.32397 17.674C1.55678 15.9042 1.55895 13.034 3.32882 11.2668L11.2881 3.32113ZM16 18C16 16.8954 16.8954 16 18 16C19.1046 16 20 16.8954 20 18C20 19.1046 19.1046 20 18 20C16.8954 20 16 19.1046 16 18ZM18 14C15.7909 14 14 15.7909 14 18C14 20.2091 15.7909 22 18 22C20.2091 22 22 20.2091 22 18C22 15.7909 20.2091 14 18 14Z" fill="black"/>
</svg>
