<svg width="24" height="24" viewBox="0 0 24 24" fill="none" xmlns="http://www.w3.org/2000/svg">
<path fill-rule="evenodd" clip-rule="evenodd" d="M14.6918 5.70716C15.6791 4.72135 17.2771 4.72257 18.2629 5.70986C19.2508 6.69928 19.2496 8.30382 18.2602 9.29174L13.3482 14.1963C12.6493 14.115 11.8105 13.8105 11 13C10.167 12.167 9.86849 11.3042 9.79749 10.594L14.6918 5.70716ZM19.6724 4.29826C17.9089 2.53219 15.0506 2.53003 13.2845 4.29342L4.32516 13.2391C2.55529 15.0063 2.55312 17.8765 4.32031 19.6463C6.08372 21.4124 8.94212 21.4146 10.7082 19.6512L19.6675 10.7055C21.4374 8.9383 21.4396 6.06812 19.6724 4.29826Z" fill="black"/>
</svg>
