<svg width="24" height="24" viewBox="0 0 24 24" fill="none" xmlns="http://www.w3.org/2000/svg">
<path fill-rule="evenodd" clip-rule="evenodd" d="M7.17409 7.25722C7.47782 6.4979 8.21324 6 9.03105 6H14.9688C15.7867 6 16.5221 6.4979 16.8258 7.25722L17.8137 9.72706C13.9375 10.2391 10.0624 10.2391 6.18616 9.72706L7.17409 7.25722ZM18.6828 6.51444L19.8419 9.41241C20.4889 9.29714 21.1359 9.16761 21.783 9.02381L22.4472 10.8944L21.5527 11.3416C21.214 11.511 20.9999 11.8573 20.9999 12.2361V19C20.9999 19.5523 20.5522 20 19.9999 20H17.9999V17.9997H5.99995V20H3.99995C3.44766 20 2.99995 19.5523 2.99995 19V12.2361C2.99995 11.8573 2.78595 11.511 2.44716 11.3416L1.55273 10.8944L2.21688 9.02381C2.86395 9.16761 3.51097 9.29714 4.15795 9.41241L5.31714 6.51444C5.92459 4.9958 7.39543 4 9.03105 4H14.9688C16.6045 4 18.0753 4.9958 18.6828 6.51444ZM16 13C15.4477 13 15 13.4477 15 14V15H17C17.5523 15 18 14.5523 18 14V13H16ZM9.00001 14C9.00001 13.4477 8.55229 13 8.00001 13H6.00001V14C6.00001 14.5523 6.44772 15 7.00001 15H9.00001V14Z" fill="black"/>
</svg>
