<svg width="24" height="24" viewBox="0 0 24 24" fill="none" xmlns="http://www.w3.org/2000/svg">
<path fill-rule="evenodd" clip-rule="evenodd" d="M7.17418 6.25722C7.47791 5.4979 8.21333 5 9.03114 5H14.9689C15.7867 5 16.5222 5.4979 16.8259 6.25722L17.6237 8.25176C13.8743 8.73089 10.1258 8.73089 6.37637 8.25176L7.17418 6.25722ZM18.6828 5.51444L19.6552 7.9453C20.3644 7.82195 20.8598 7.72849 21.5692 7.57086L22.003 9.52323C21.4488 9.64381 20.8945 9.75437 20.3402 9.85491C20.7348 11.1981 21 12.5967 21 14V19C21 19.5523 20.5523 20 20 20H18V18H6.00004V20H4.00004C3.44775 20 3.00004 19.5523 3.00004 19V14C3.00004 12.5967 3.26531 11.1981 3.65986 9.85491C3.10776 9.75477 2.5557 9.64469 2.00366 9.52467L2.43752 7.5723C3.14689 7.72993 3.63563 7.82195 4.34488 7.9453L5.31723 5.51444C5.92468 3.9958 7.39552 3 9.03114 3H14.9689C16.6046 3 18.0754 3.9958 18.6828 5.51444ZM5.00004 16H19V14C19 12.7029 18.731 11.4085 18.3471 10.1732C14.1162 10.7571 9.88392 10.7571 5.65294 10.1732C5.26903 11.4085 5.00004 12.7029 5.00004 14V16ZM8.00004 11L8.34192 12.0257C8.44146 12.3243 8.67577 12.5586 8.97438 12.6581L10 13L8.97438 13.3419C8.67577 13.4414 8.44146 13.6757 8.34192 13.9743L8.00004 15L7.65815 13.9743C7.55862 13.6757 7.3243 13.4414 7.0257 13.3419L6.00004 13L7.0257 12.6581C7.3243 12.5586 7.55862 12.3243 7.65815 12.0257L8.00004 11ZM16.3419 12.0257L16 11L15.6582 12.0257C15.5586 12.3243 15.3243 12.5586 15.0257 12.6581L14 13L15.0257 13.3419C15.3243 13.4414 15.5586 13.6757 15.6582 13.9743L16 15L16.3419 13.9743C16.4415 13.6757 16.6758 13.4414 16.9744 13.3419L18 13L16.9744 12.6581C16.6758 12.5586 16.4415 12.3243 16.3419 12.0257Z" fill="black"/>
</svg>
