<svg width="24" height="24" viewBox="0 0 24 24" fill="none" xmlns="http://www.w3.org/2000/svg">
<path fill-rule="evenodd" clip-rule="evenodd" d="M4 4C2.89543 4 2 4.89543 2 6V18C2 19.1046 2.89543 20 4 20H20C21.1046 20 22 19.1046 22 18V6C22 4.89543 21.1046 4 20 4H4ZM10 13C10 13.8393 9.48296 14.5579 8.75 14.8546V15.9798C8.91127 15.9131 9.07059 15.8454 9.22843 15.7783C10.0863 15.4137 10.9009 15.0675 11.75 15.0088V14.7993C11.3016 14.54 11 14.0552 11 13.5C11 12.6716 11.6716 10 12.5 10C13.3284 10 14 12.6716 14 13.5C14 14.0552 13.6984 14.54 13.25 14.7993V15.1858C14.9487 15.7039 16 17.1793 16 17.97V17.9998H4V16.4489C5.234 16.8195 6.29169 16.7487 7.25 16.5016V14.8546C6.51704 14.5579 6 13.8393 6 13C6 11.8954 6.89543 8 8 8C9.10457 8 10 11.8954 10 13ZM18 9C18 9.55228 17.5523 10 17 10C16.4477 10 16 9.55228 16 9C16 8.44772 16.4477 8 17 8C17.5523 8 18 8.44772 18 9Z" fill="black"/>
</svg>
