<svg width="24" height="24" viewBox="0 0 24 24" fill="none" xmlns="http://www.w3.org/2000/svg">
<path fill-rule="evenodd" clip-rule="evenodd" d="M4 4C2.89543 4 2 4.89543 2 6V18C2 19.1046 2.89543 20 4 20H20C21.1046 20 22 19.1046 22 18V6C22 4.89543 21.1046 4 20 4H4ZM15.5 9C15.5 9.82843 16.1716 10.5 17 10.5C17.8284 10.5 18.5 9.82843 18.5 9C18.5 8.17157 17.8284 7.5 17 7.5C16.1716 7.5 15.5 8.17157 15.5 9ZM4 17.9999V12.9999L7 9.99993L9 11.9999L7.5 15.4999L10.5 12.4999L12.5 10.4999L20 17.9999H4Z" fill="black"/>
</svg>
