<svg width="24" height="24" viewBox="0 0 24 24" fill="none" xmlns="http://www.w3.org/2000/svg">
<path fill-rule="evenodd" clip-rule="evenodd" d="M4 4C2.89543 4 2 4.89543 2 6V18C2 19.1046 2.89543 20 4 20H20C21.1046 20 22 19.1046 22 18V6C22 4.89543 21.1046 4 20 4H4ZM4 6L20 6V16.5858L12.5 9.08579L9.99998 11.5858L6.99998 8.58579L4 11.5858V6ZM4 14.4142V18H18.5858L12.5 11.9142L8.20709 16.2071L6.79288 14.7929L8.58577 13L6.99998 11.4142L4 14.4142ZM18 9C18 9.55228 17.5523 10 17 10C16.4477 10 16 9.55228 16 9C16 8.44772 16.4477 8 17 8C17.5523 8 18 8.44772 18 9Z" fill="black"/>
</svg>
