<svg width="24" height="24" viewBox="0 0 24 24" fill="none" xmlns="http://www.w3.org/2000/svg">
<path fill-rule="evenodd" clip-rule="evenodd" d="M4 4C2.89543 4 2 4.89543 2 6V18C2 19.1046 2.89543 20 4 20H20C21.1046 20 22 19.1046 22 18V6C22 4.89543 21.1046 4 20 4H4ZM4 6L20 6V18H18C18 16.8744 17.2996 15.6279 16.3055 14.7047C15.6461 14.0924 14.8014 13.5664 13.8108 13.2666C13.9313 13.0608 14 12.8238 14 12.5714C14 11.7825 13.3284 9 12.5 9C11.6716 9 11 11.7825 11 12.5714C11 12.7479 11.0336 12.9169 11.0951 13.073C10.6986 13.136 10.3239 13.2351 9.96938 13.3506C9.98951 13.2368 10 13.1196 10 13C10 11.8954 9.10458 8 8.00001 8C6.89544 8 6.00001 11.8954 6.00001 13C6.00001 13.6273 6.2888 14.1871 6.74068 14.5538C5.81695 14.7762 4.8859 14.6977 4 14.3521V6ZM4 16.4571V18H16C16 17.6256 15.7004 16.8721 14.9446 16.1703C14.2263 15.5033 13.2115 15 12 15C10.6598 15 9.44233 15.7441 8.21675 16.1898C6.84843 16.6874 5.41403 16.8455 4 16.4571ZM18 9C18 9.55228 17.5523 10 17 10C16.4477 10 16 9.55228 16 9C16 8.44772 16.4477 8 17 8C17.5523 8 18 8.44772 18 9Z" fill="black"/>
</svg>
