<svg width="24" height="24" viewBox="0 0 24 24" fill="none" xmlns="http://www.w3.org/2000/svg">
<path fill-rule="evenodd" clip-rule="evenodd" d="M15.9999 4L16 20C12.9482 17.5766 9.51814 14.827 6.00093 12.0008L6 12L6.00093 11.9992C9.51814 9.17298 12.948 6.42342 15.9999 4ZM14.7572 2.43288C15.0985 2.16188 15.5304 2 16 2C17.1046 2 18 2.89543 18 4V20C18 21.1046 17.1046 22 16 22C15.5304 22 15.0985 21.8381 14.7572 21.5671C11.7004 19.1397 8.26641 16.3869 4.74819 13.5599C4.292 13.1933 4 12.6308 4 12C4 11.3692 4.292 10.8067 4.74819 10.4401C8.26641 7.61312 11.7004 4.86026 14.7572 2.43288Z" fill="black"/>
</svg>
