<svg width="24" height="24" viewBox="0 0 24 24" fill="none" xmlns="http://www.w3.org/2000/svg">
<path fill-rule="evenodd" clip-rule="evenodd" d="M8.00013 4L8 20C11.0518 17.5766 14.4819 14.827 17.9991 12.0008L18 12L17.9991 11.9992C14.4819 9.17298 11.052 6.42342 8.00013 4ZM9.24276 2.43288C8.90148 2.16188 8.46964 2 8 2C6.89543 2 6 2.89543 6 4V20C6 21.1046 6.89543 22 8 22C8.46964 22 8.90148 21.8381 9.24276 21.5671C12.2996 19.1397 15.7336 16.3869 19.2518 13.5599C19.708 13.1933 20 12.6308 20 12C20 11.3692 19.708 10.8067 19.2518 10.4401C15.7336 7.61312 12.2996 4.86026 9.24276 2.43288Z" fill="black"/>
</svg>
