<svg width="24" height="24" viewBox="0 0 24 24" fill="none" xmlns="http://www.w3.org/2000/svg">
<path fill-rule="evenodd" clip-rule="evenodd" d="M20 15.9999L4 16C6.42342 12.9482 9.17298 9.51814 11.9992 6.00093L12 6L12.0008 6.00093C14.827 9.51814 17.5766 12.948 20 15.9999ZM21.5671 14.7572C21.8381 15.0985 22 15.5304 22 16C22 17.1046 21.1046 18 20 18H4C2.89543 18 2 17.1046 2 16C2 15.5304 2.16188 15.0985 2.43288 14.7572C4.86026 11.7004 7.61312 8.26641 10.4401 4.74819C10.8067 4.292 11.3692 4 12 4C12.6308 4 13.1933 4.292 13.5599 4.74819C16.3869 8.26641 19.1397 11.7004 21.5671 14.7572Z" fill="black"/>
</svg>
