<svg width="24" height="24" viewBox="0 0 24 24" fill="none" xmlns="http://www.w3.org/2000/svg">
<path fill-rule="evenodd" clip-rule="evenodd" d="M4 8.00013L20 8C17.5766 11.0518 14.827 14.4819 12.0008 17.9991L12 18L11.9992 17.9991C9.17298 14.4819 6.42342 11.052 4 8.00013ZM2.43288 9.24276C2.16188 8.90148 2 8.46964 2 8C2 6.89543 2.89543 6 4 6H20C21.1046 6 22 6.89543 22 8C22 8.46964 21.8381 8.90148 21.5671 9.24276C19.1397 12.2996 16.3869 15.7336 13.5599 19.2518C13.1933 19.708 12.6308 20 12 20C11.3692 20 10.8067 19.708 10.4401 19.2518C7.61312 15.7336 4.86026 12.2996 2.43288 9.24276Z" fill="black"/>
</svg>
