<svg width="24" height="24" viewBox="0 0 24 24" fill="none" xmlns="http://www.w3.org/2000/svg">
<path fill-rule="evenodd" clip-rule="evenodd" d="M15 4L13 2L9 6H20L16.5 2.5L15 4ZM2 5H5.17532L5.98229 15.2358C6.03638 15.9219 6.31839 16.5389 6.75047 17.0151C6.28342 17.544 6 18.2389 6 19C6 20.6569 7.34315 22 9 22C10.6569 22 12 20.6569 12 19C12 18.6494 11.9398 18.3128 11.8293 18H15.1707C15.0602 18.3128 15 18.6494 15 19C15 20.6569 16.3431 22 18 22C19.6569 22 21 20.6569 21 19C21 18.2931 20.7555 17.6433 20.3465 17.1306C20.8093 16.672 21.1251 16.0616 21.2113 15.3721L22 8H7.41804L7.02385 3H2V5ZM18.2344 16C18.7388 16 19.1642 15.6245 19.2267 15.124L19.3672 14H17V16H18.2344ZM17 12H19.6172L19.8672 10H17V12ZM12 10H15V12H12V10ZM7.57572 10H10V12H7.73339L7.57572 10ZM7.9761 15.0786L7.89107 14H10V16H8.97301C8.45121 16 8.01711 15.5988 7.9761 15.0786ZM15 16H12V14H15V16ZM18 18C17.4477 18 17 18.4477 17 19C17 19.5523 17.4477 20 18 20C18.5523 20 19 19.5523 19 19C19 18.4477 18.5523 18 18 18ZM9 18C8.44772 18 8 18.4477 8 19C8 19.5523 8.44772 20 9 20C9.55228 20 10 19.5523 10 19C10 18.4477 9.55228 18 9 18Z" fill="black"/>
</svg>
