<svg width="24" height="24" viewBox="0 0 24 24" fill="none" xmlns="http://www.w3.org/2000/svg">
<path fill-rule="evenodd" clip-rule="evenodd" d="M2 4H5.06888L5.86986 15.2137C5.92162 15.9384 6.22784 16.5878 6.69737 17.0769C6.26202 17.5976 6 18.2682 6 19C6 20.6569 7.34315 22 9 22C10.6569 22 12 20.6569 12 19C12 18.6494 11.9398 18.3128 11.8293 18H14.1707C14.0602 18.3128 14 18.6494 14 19C14 20.6569 15.3431 22 17 22C18.6569 22 20 20.6569 20 19C20 18.2705 19.7396 17.6018 19.3067 17.0818C19.7757 16.5954 20.0829 15.9495 20.1379 15.2278L21 4H7.07398L6.93112 2H2V4ZM17 18C16.4477 18 16 18.4477 16 19C16 19.5523 16.4477 20 17 20C17.5523 20 18 19.5523 18 19C18 18.4477 17.5523 18 17 18ZM9 18C8.44772 18 8 18.4477 8 19C8 19.5523 8.44772 20 9 20C9.55229 20 10 19.5523 10 19C10 18.4477 9.55229 18 9 18ZM10 12H16V10H10V12Z" fill="black"/>
</svg>
