<svg width="24" height="24" viewBox="0 0 24 24" fill="none" xmlns="http://www.w3.org/2000/svg">
<path fill-rule="evenodd" clip-rule="evenodd" d="M15 4L13 2L9 6H20L16.5 2.5L15 4ZM5.17532 5H2V3H7.02385L7.41804 8H22L21.2113 15.3721C21.1251 16.0616 20.8093 16.672 20.3465 17.1306C20.7555 17.6433 21 18.2931 21 19C21 20.6569 19.6569 22 18 22C16.3431 22 15 20.6569 15 19C15 18.6494 15.0602 18.3128 15.1707 18H11.8293C11.9398 18.3128 12 18.6494 12 19C12 20.6569 10.6569 22 9 22C7.34315 22 6 20.6569 6 19C6 18.2389 6.28342 17.544 6.75047 17.0151C6.31839 16.5389 6.03638 15.9219 5.98229 15.2358L5.17532 5ZM18.2344 16H8.97301C8.45121 16 8.01711 15.5988 7.9761 15.0786L7.57572 10H19.7344L19.2267 15.124C19.1642 15.6245 18.7388 16 18.2344 16ZM17 19C17 18.4477 17.4477 18 18 18C18.5523 18 19 18.4477 19 19C19 19.5523 18.5523 20 18 20C17.4477 20 17 19.5523 17 19ZM8 19C8 18.4477 8.44772 18 9 18C9.55228 18 10 18.4477 10 19C10 19.5523 9.55228 20 9 20C8.44772 20 8 19.5523 8 19Z" fill="black"/>
</svg>
