<svg width="24" height="24" viewBox="0 0 24 24" fill="none" xmlns="http://www.w3.org/2000/svg">
<path fill-rule="evenodd" clip-rule="evenodd" d="M5.06888 4H2V2H6.93112L7.07398 4H21L20.1379 15.2278C20.0829 15.9495 19.7757 16.5954 19.3067 17.0818C19.7396 17.6018 20 18.2705 20 19C20 20.6569 18.6569 22 17 22C15.3431 22 14 20.6569 14 19C14 18.6494 14.0602 18.3128 14.1707 18H11.8293C11.9398 18.3128 12 18.6494 12 19C12 20.6569 10.6569 22 9 22C7.34315 22 6 20.6569 6 19C6 18.2682 6.26202 17.5976 6.69737 17.0769C6.22784 16.5878 5.92162 15.9384 5.86986 15.2137L5.06888 4ZM18.1436 15.0759C18.1039 15.5973 17.6694 16 17.1465 16H8.86224C8.3376 16 7.90216 15.5946 7.86478 15.0712L7.21683 6H18.8419L18.1436 15.0759ZM16 19C16 18.4477 16.4477 18 17 18C17.5523 18 18 18.4477 18 19C18 19.5523 17.5523 20 17 20C16.4477 20 16 19.5523 16 19ZM8 19C8 18.4477 8.44772 18 9 18C9.55228 18 10 18.4477 10 19C10 19.5523 9.55228 20 9 20C8.44772 20 8 19.5523 8 19ZM9.97548 9.40566L11.572 10.9974L9.99561 12.5801L11.4035 13.9904L12.9832 12.4044L14.5725 13.989L15.9755 12.5737L14.3895 10.9925L15.9725 9.4032L14.5646 7.99287L12.9783 9.5855L11.3784 7.99042L9.97548 9.40566Z" fill="black"/>
</svg>
