<svg width="24" height="24" viewBox="0 0 24 24" fill="none" xmlns="http://www.w3.org/2000/svg">
<path fill-rule="evenodd" clip-rule="evenodd" d="M2 4H5.06888L5.86986 15.2137C5.90438 15.6969 6.05202 16.1466 6.28577 16.5377C5.50853 17.0798 5 17.9805 5 19C5 20.6569 6.34315 22 8 22C9.65685 22 11 20.6569 11 19C11 18.6494 10.9398 18.3128 10.8293 18H14.1707C14.0602 18.3128 14 18.6494 14 19C14 20.6569 15.3431 22 17 22C18.6569 22 20 20.6569 20 19C20 17.3431 18.6569 16 17 16H8.86224C8.3376 16 7.90216 15.5946 7.86478 15.0712L7.78826 14H15.7016C18.3247 14 20.502 11.9728 20.6888 9.35623L21 5H7.1454L6.93112 2H2V4ZM17 18C16.4477 18 16 18.4477 16 19C16 19.5523 16.4477 20 17 20C17.5523 20 18 19.5523 18 19C18 18.4477 17.5523 18 17 18ZM7.30955 7L7.68308 12H15.7016C17.2755 12 18.5818 10.7837 18.6939 9.21374L18.8521 7H7.30955ZM7 19C7 18.4477 7.44772 18 8 18C8.55228 18 9 18.4477 9 19C9 19.5523 8.55228 20 8 20C7.44772 20 7 19.5523 7 19Z" fill="black"/>
</svg>
