<svg width="24" height="24" viewBox="0 0 24 24" fill="none" xmlns="http://www.w3.org/2000/svg">
<path fill-rule="evenodd" clip-rule="evenodd" d="M3 4H6.06888L6.86986 15.2137C6.90438 15.6969 7.05202 16.1466 7.28577 16.5377C6.50853 17.0798 6 17.9805 6 19C6 20.6569 7.34315 22 9 22C10.6569 22 12 20.6569 12 19C12 18.6494 11.9398 18.3128 11.8293 18H15.1707C15.0602 18.3128 15 18.6494 15 19C15 20.6569 16.3431 22 18 22C19.6569 22 21 20.6569 21 19C21 17.3431 19.6569 16 18 16H9.86224C9.3376 16 8.90216 15.5946 8.86478 15.0712L8.78826 14H16.7016C19.3247 14 21.502 11.9728 21.6888 9.35623L22 5H8.1454L7.93112 2H3V4ZM18 18C17.4477 18 17 18.4477 17 19C17 19.5523 17.4477 20 18 20C18.5523 20 19 19.5523 19 19C19 18.4477 18.5523 18 18 18ZM9 18C8.44772 18 8 18.4477 8 19C8 19.5523 8.44772 20 9 20C9.55228 20 10 19.5523 10 19C10 18.4477 9.55228 18 9 18Z" fill="black"/>
</svg>
