<svg width="24" height="24" viewBox="0 0 24 24" fill="none" xmlns="http://www.w3.org/2000/svg">
<path fill-rule="evenodd" clip-rule="evenodd" d="M22 6H2V18H22V6ZM12 16C14.2091 16 16 14.2091 16 12C16 9.79086 14.2091 8 12 8C9.79086 8 8 9.79086 8 12C8 14.2091 9.79086 16 12 16ZM6 12C6 12.5523 5.55228 13 5 13C4.44772 13 4 12.5523 4 12C4 11.4477 4.44772 11 5 11C5.55228 11 6 11.4477 6 12ZM19 13C19.5523 13 20 12.5523 20 12C20 11.4477 19.5523 11 19 11C18.4477 11 18 11.4477 18 12C18 12.5523 18.4477 13 19 13ZM9.31565 12.6C9.58942 13.8302 10.6873 14.75 12 14.75C12.7477 14.75 13.4269 14.4506 13.9219 13.9669L12.8736 12.8941C12.6474 13.1151 12.3402 13.25 12 13.25C11.5271 13.25 11.1155 12.9874 10.9031 12.6H12V11.4H10.9031C11.1155 11.0126 11.5271 10.75 12 10.75C12.3402 10.75 12.6474 10.8849 12.8736 11.1059L13.9219 10.0331C13.4269 9.54937 12.7477 9.25 12 9.25C10.6873 9.25 9.58942 10.1698 9.31565 11.4H9V12.6H9.31565Z" fill="black"/>
</svg>
