<svg width="24" height="24" viewBox="0 0 24 24" fill="none" xmlns="http://www.w3.org/2000/svg">
<path fill-rule="evenodd" clip-rule="evenodd" d="M2 6H22V18H2V6ZM16 12C16 14.2091 14.2091 16 12 16C9.79086 16 8 14.2091 8 12C8 9.79086 9.79086 8 12 8C14.2091 8 16 9.79086 16 12ZM5 13C5.55228 13 6 12.5523 6 12C6 11.4477 5.55228 11 5 11C4.44772 11 4 11.4477 4 12C4 12.5523 4.44772 13 5 13ZM20 12C20 12.5523 19.5523 13 19 13C18.4477 13 18 12.5523 18 12C18 11.4477 18.4477 11 19 11C19.5523 11 20 11.4477 20 12ZM12.5 9.85389C13.2936 10.0219 13.6484 10.5947 13.6484 11.1758V11.2656H12.5C12.5 11 12.285 10.8867 12 10.8867C11.7305 10.8867 11.5977 11.0195 11.625 11.1758C11.6494 11.3154 11.889 11.3732 12.352 11.4848L12.352 11.4848C12.4073 11.4982 12.4657 11.5123 12.5273 11.5274C13.293 11.7148 13.7031 12.1875 13.7031 12.875C13.7031 13.5197 13.2891 14.0109 12.5 14.1533V14.5H11.5V14.1452C10.585 13.9477 10.2969 13.21 10.2969 12.7227V12.6406H11.4688C11.4688 13 11.712 13.1133 12.0273 13.1133C12.2734 13.1133 12.4857 13.0274 12.4922 12.875C12.5 12.6914 12.3633 12.5899 11.7812 12.4688C11.1161 12.3304 10.4062 12.0469 10.4062 11.2227C10.4062 10.406 10.9393 10.007 11.5 9.86613V9.5H12.5V9.85389Z" fill="black"/>
</svg>
