<svg width="24" height="24" viewBox="0 0 24 24" fill="none" xmlns="http://www.w3.org/2000/svg">
<path fill-rule="evenodd" clip-rule="evenodd" d="M2 3H3H12H21H22V4V12V13H21H12H3H2V12V4V3ZM16.0004 11H20V9C19.4477 9 19 8.55228 19 8C19 7.44772 19.4477 7 20 7V5H16.0004C16.6281 5.83566 17 6.87439 17 8C17 9.12561 16.6281 10.1643 16.0004 11ZM12 5C10.3431 5 9 6.34315 9 8C9 9.65685 10.3431 11 12 11C13.6569 11 15 9.65685 15 8C15 6.34315 13.6569 5 12 5ZM7.99963 5C7.37194 5.83566 7 6.87439 7 8C7 9.12561 7.37194 10.1643 7.99963 11H4V9C4.55228 9 5 8.55228 5 8C5 7.44772 4.55228 7 4 7V5H7.99963ZM3 15H2V17H3H21H22V15H21H3ZM3 19H2V21H3H21H22V19H21H3ZM10.5655 8.49987C10.7857 9.3226 11.5364 9.92843 12.4286 9.92843H13V8.92843H12.4286C12.0998 8.92843 11.811 8.7576 11.646 8.49987H12.5V7.49987H11.646C11.811 7.24213 12.0998 7.07129 12.4286 7.07129H13V6.07129H12.4286C11.5364 6.07129 10.7857 6.67713 10.5655 7.49987H10V8.49987H10.5655Z" fill="black"/>
</svg>
