<svg width="24" height="24" viewBox="0 0 24 24" fill="none" xmlns="http://www.w3.org/2000/svg">
<path fill-rule="evenodd" clip-rule="evenodd" d="M3 6H2V7V17V18H3H12H21H22V17V7V6H21H12H3ZM7.52779 8H4V11C4.55228 11 5 11.4477 5 12C5 12.5523 4.55228 13 4 13V16H7.52779C6.57771 14.9385 6 13.5367 6 12C6 10.4633 6.57771 9.06151 7.52779 8ZM12 16C9.79086 16 8 14.2091 8 12C8 9.79086 9.79086 8 12 8C14.2091 8 16 9.79086 16 12C16 14.2091 14.2091 16 12 16ZM16.4722 16C17.4223 14.9385 18 13.5367 18 12C18 10.4633 17.4223 9.06151 16.4722 8H20V11C19.4477 11 19 11.4477 19 12C19 12.5523 19.4477 13 20 13V16H16.4722ZM10.9031 12.6C11.1155 12.9874 11.5271 13.25 12 13.25C12.3402 13.25 12.6474 13.1151 12.8736 12.8941L13.9219 13.9669C13.4269 14.4506 12.7477 14.75 12 14.75C10.6873 14.75 9.58942 13.8302 9.31565 12.6H9V11.4H9.31565C9.58942 10.1698 10.6873 9.25 12 9.25C12.7477 9.25 13.4269 9.54937 13.9219 10.0331L12.8736 11.1059C12.6474 10.8849 12.3402 10.75 12 10.75C11.5271 10.75 11.1155 11.0126 10.9031 11.4H12V12.6H10.9031Z" fill="black"/>
</svg>
