<svg width="24" height="24" viewBox="0 0 24 24" fill="none" xmlns="http://www.w3.org/2000/svg">
<path fill-rule="evenodd" clip-rule="evenodd" d="M2 4H22V12H15.4185C14.2317 9.06817 11.3574 7 8 7C5.61062 7 3.46589 8.04751 2 9.70835V4ZM15.9381 14H22V16H15.9381C15.979 15.6724 16 15.3387 16 15C16 14.6613 15.979 14.3276 15.9381 14ZM15.4185 18H22V20H14.2454C14.7276 19.3984 15.1247 18.7257 15.4185 18ZM8 9C4.68629 9 2 11.6863 2 15C2 18.3137 4.68629 21 8 21C11.3137 21 14 18.3137 14 15C14 11.6863 11.3137 9 8 9ZM8.7695 14.0412L8.75203 13.8605C8.71614 13.4891 8.37627 13.3629 8.04381 13.3629C7.78091 13.3629 7.39096 13.4411 7.39096 13.7721V13.7791C7.37985 14.0925 7.84673 14.2002 8.07852 14.2534L8.55406 14.3701C9.04375 14.4828 9.46877 14.6697 9.78331 14.957C10.1113 15.2567 10.2957 15.6712 10.2995 16.1645L10.2995 16.1671C10.2957 16.8983 9.90333 17.4861 9.22578 17.783C9.15315 17.8145 9.0777 17.8426 8.9995 17.8671V18.5004H6.9995V17.842C6.94541 17.8234 6.89248 17.8032 6.84072 17.7813C6.11107 17.4703 5.71725 16.7955 5.70006 16.0162L5.69556 15.8118H7.17336L7.18573 15.9985C7.21539 16.4464 7.60857 16.6337 8.02566 16.6337C8.31531 16.6337 8.76665 16.5278 8.76665 16.1634C8.76665 15.8558 8.32831 15.7511 8.0733 15.6903C8.05312 15.6855 8.03409 15.6809 8.01652 15.6766L8.01464 15.6761C7.95362 15.6604 7.89229 15.645 7.83083 15.6295L7.83062 15.6295C7.28064 15.4914 6.72079 15.3508 6.2911 14.9569C5.98434 14.6757 5.83827 14.2988 5.83999 13.8493C5.83651 13.1197 6.2784 12.5226 6.93189 12.2254C6.95429 12.2152 6.97686 12.2054 6.99962 12.1959V11.5H8.99962V12.1558C9.05728 12.1771 9.11358 12.2007 9.1685 12.2265C9.82057 12.5317 10.2154 13.1218 10.2269 13.838L10.2301 14.0412H8.7695Z" fill="black"/>
</svg>
