<svg width="24" height="24" viewBox="0 0 24 24" fill="none" xmlns="http://www.w3.org/2000/svg">
<path fill-rule="evenodd" clip-rule="evenodd" d="M3 3H2V4V12V13H3H21H22V12V4V3H21H3ZM4 7V5H12C10.3431 5 9 6.34315 9 8C9 9.65685 10.3431 11 12 11H4V9C4.55228 9 5 8.55228 5 8C5 7.44772 4.55228 7 4 7ZM20 9V11H12C13.6569 11 15 9.65685 15 8C15 6.34315 13.6569 5 12 5H20V7C19.4477 7 19 7.44772 19 8C19 8.55228 19.4477 9 20 9ZM11 8C11 7.44772 11.4477 7 12 7C12.5523 7 13 7.44772 13 8C13 8.55228 12.5523 9 12 9C11.4477 9 11 8.55228 11 8ZM3 15H2V17H3H21H22V15H21H3ZM3 19H2V21H3H21H22V19H21H3Z" fill="black"/>
</svg>
