<svg width="24" height="24" viewBox="0 0 24 24" fill="none" xmlns="http://www.w3.org/2000/svg">
<path fill-rule="evenodd" clip-rule="evenodd" d="M2 3H3H17H18V4V7H21H22V8V16V17H21H15.3264C14.2029 19.3649 11.7924 21 9 21C5.13401 21 2 17.866 2 14V4V3ZM20 15H15.9291C15.9758 14.6734 16 14.3395 16 14C16 12.0413 15.1955 10.2705 13.899 9H20V15ZM16 7H9C7.04131 7 5.27052 7.80447 4 9.10102V5H16V7ZM9 9C6.23858 9 4 11.2386 4 14C4 16.7614 6.23858 19 9 19C11.7614 19 14 16.7614 14 14C14 11.2386 11.7614 9 9 9ZM9.7695 13.0412L9.75203 12.8605C9.71614 12.4891 9.37627 12.3629 9.04381 12.3629C8.78091 12.3629 8.39096 12.4411 8.39096 12.7721V12.7791C8.37985 13.0925 8.84673 13.2002 9.07852 13.2534L9.55406 13.3701C10.0438 13.4828 10.4688 13.6697 10.7833 13.957C11.1113 14.2567 11.2957 14.6712 11.2995 15.1645L11.2995 15.1671C11.2957 15.8983 10.9033 16.4861 10.2258 16.783C10.1531 16.8145 10.0777 16.8426 9.9995 16.8671V17.5004H7.9995V16.842C7.94541 16.8234 7.89248 16.8032 7.84072 16.7813C7.11107 16.4703 6.71725 15.7955 6.70006 15.0162L6.69556 14.8118H8.17336L8.18573 14.9985C8.21539 15.4464 8.60857 15.6337 9.02566 15.6337C9.31531 15.6337 9.76665 15.5278 9.76665 15.1634C9.76665 14.8558 9.32831 14.7511 9.0733 14.6903C9.05312 14.6855 9.03409 14.6809 9.01652 14.6766L9.01464 14.6761C8.95362 14.6604 8.89229 14.645 8.83083 14.6295L8.83062 14.6295C8.28064 14.4914 7.72079 14.3508 7.2911 13.9569C6.98434 13.6757 6.83827 13.2988 6.83999 12.8493C6.83651 12.1197 7.2784 11.5226 7.93189 11.2254C7.95429 11.2152 7.97686 11.2054 7.99962 11.1959V10.5H9.99962V11.1558C10.0573 11.1771 10.1136 11.2007 10.1685 11.2265C10.8206 11.5317 11.2154 12.1218 11.2269 12.838L11.2301 13.0412H9.7695Z" fill="black"/>
</svg>
