<svg width="24" height="24" viewBox="0 0 24 24" fill="none" xmlns="http://www.w3.org/2000/svg">
<path fill-rule="evenodd" clip-rule="evenodd" d="M3 6H2V7V17V18H3H21H22V17V7V6H21H3ZM4 10V8H20V10C18.8954 10 18 10.8954 18 12C18 13.1046 18.8954 14 20 14V16H4V14C5.10457 14 6 13.1046 6 12C6 10.8954 5.10457 10 4 10ZM13 12C13 12.5523 12.5523 13 12 13C11.4477 13 11 12.5523 11 12C11 11.4477 11.4477 11 12 11C12.5523 11 13 11.4477 13 12ZM15 12C15 13.6569 13.6569 15 12 15C10.3431 15 9 13.6569 9 12C9 10.3431 10.3431 9 12 9C13.6569 9 15 10.3431 15 12Z" fill="black"/>
</svg>
