<svg width="24" height="24" viewBox="0 0 24 24" fill="none" xmlns="http://www.w3.org/2000/svg">
<path fill-rule="evenodd" clip-rule="evenodd" d="M3 3H2V4V12V13H3H12H21H22V12V4V3H21H12H3ZM7.99963 5H4V7C4.55228 7 5 7.44772 5 8C5 8.55228 4.55228 9 4 9V11H7.99963C7.37194 10.1643 7 9.12561 7 8C7 6.87439 7.37194 5.83566 7.99963 5ZM12 11C13.6569 11 15 9.65685 15 8C15 6.34315 13.6569 5 12 5C10.3431 5 9 6.34315 9 8C9 9.65685 10.3431 11 12 11ZM16.0004 11C16.6281 10.1643 17 9.12561 17 8C17 6.87439 16.6281 5.83566 16.0004 5H20V7C19.4477 7 19 7.44772 19 8C19 8.55228 19.4477 9 20 9V11H16.0004ZM13.3737 7.31316C13.3737 6.82891 13.078 6.35157 12.4167 6.21157V5.91667H11.5833V6.22177C11.1161 6.33919 10.6719 6.67165 10.6719 7.35221C10.6719 8.03906 11.2634 8.2753 11.8177 8.39063C12.3027 8.49154 12.4167 8.57618 12.4101 8.72917C12.4047 8.85617 12.2279 8.92774 12.0228 8.92774C11.76 8.92774 11.5573 8.83333 11.5573 8.53385H10.5807V8.60222C10.5807 9.00832 10.8208 9.62305 11.5833 9.78766V10.0833H12.4167V9.7944C13.0742 9.67578 13.4193 9.26646 13.4193 8.72917C13.4193 8.15625 13.0775 7.76237 12.4394 7.60613C12.3887 7.59371 12.3406 7.58211 12.2951 7.57113L12.2946 7.57099L12.2933 7.57069L12.2933 7.57068C11.9075 7.47764 11.7078 7.42948 11.6875 7.31316C11.6647 7.18295 11.7754 7.07227 12 7.07227C12.2375 7.07227 12.4167 7.16667 12.4167 7.38802H13.3737V7.31316ZM2 15H3H21H22V17H21H3H2V15ZM3 19H2V21H3H21H22V19H21H3Z" fill="black"/>
</svg>
