<svg width="24" height="24" viewBox="0 0 24 24" fill="none" xmlns="http://www.w3.org/2000/svg">
<path fill-rule="evenodd" clip-rule="evenodd" d="M2 4H22V12H15.4185C14.2317 9.06817 11.3574 7 8 7C5.61061 7 3.46589 8.04751 2 9.70835V4ZM15.9381 14H22V16H15.9381C15.979 15.6724 16 15.3387 16 15C16 14.6613 15.979 14.3276 15.9381 14ZM15.4185 18H22V20H14.2454C14.7276 19.3984 15.1247 18.7257 15.4185 18ZM8 9C4.68629 9 2 11.6863 2 15C2 18.3137 4.68629 21 8 21C11.3137 21 14 18.3137 14 15C14 11.6863 11.3137 9 8 9ZM8 18.25C6.46321 18.25 5.17555 17.1833 4.83697 15.75H4.25V14.25H4.83697C5.17555 12.8167 6.46321 11.75 8 11.75C8.88366 11.75 9.68624 12.1037 10.2714 12.6755L9.22299 13.7483C8.90675 13.4392 8.47623 13.25 8 13.25C7.3019 13.25 6.69927 13.6588 6.41841 14.25H8V15.75H6.41841C6.69927 16.3412 7.3019 16.75 8 16.75C8.47623 16.75 8.90675 16.5608 9.22299 16.2517L10.2714 17.3245C9.68624 17.8963 8.88366 18.25 8 18.25Z" fill="black"/>
</svg>
