<svg width="24" height="24" viewBox="0 0 24 24" fill="none" xmlns="http://www.w3.org/2000/svg">
<path fill-rule="evenodd" clip-rule="evenodd" d="M2 3H3H17H18V4V7H21H22V8V16V17H21H15.3264C14.2029 19.3649 11.7924 21 9 21C5.13401 21 2 17.866 2 14V4V3ZM20 15H15.9291C15.9758 14.6734 16 14.3395 16 14C16 12.0413 15.1955 10.2705 13.899 9H20V15ZM16 7H9C7.04131 7 5.27052 7.80447 4 9.10102V5H16V7ZM9 9C6.23858 9 4 11.2386 4 14C4 16.7614 6.23858 19 9 19C11.7614 19 14 16.7614 14 14C14 11.2386 11.7614 9 9 9ZM9 17.25C7.46321 17.25 6.17555 16.1833 5.83697 14.75H5.25V13.25H5.83697C6.17555 11.8167 7.46321 10.75 9 10.75C9.88366 10.75 10.6862 11.1037 11.2714 11.6755L10.223 12.7483C9.90675 12.4392 9.47623 12.25 9 12.25C8.3019 12.25 7.69927 12.6588 7.41841 13.25H9V14.75H7.41841C7.69927 15.3412 8.3019 15.75 9 15.75C9.47623 15.75 9.90675 15.5608 10.223 15.2517L11.2714 16.3245C10.6862 16.8963 9.88366 17.25 9 17.25Z" fill="black"/>
</svg>
