<svg width="24" height="24" viewBox="0 0 24 24" fill="none" xmlns="http://www.w3.org/2000/svg">
<path fill-rule="evenodd" clip-rule="evenodd" d="M2 3H22V13H2V3ZM15 8C15 9.65685 13.6569 11 12 11C10.3431 11 9 9.65685 9 8C9 6.34315 10.3431 5 12 5C13.6569 5 15 6.34315 15 8ZM5 9C5.55228 9 6 8.55228 6 8C6 7.44772 5.55228 7 5 7C4.44772 7 4 7.44772 4 8C4 8.55228 4.44772 9 5 9ZM20 8C20 8.55228 19.5523 9 19 9C18.4477 9 18 8.55228 18 8C18 7.44772 18.4477 7 19 7C19.5523 7 20 7.44772 20 8ZM3 15H2V17H3H21H22V15H21H3ZM3 19H2V21H3H21H22V19H21H3ZM10.5655 8.49987C10.7857 9.3226 11.5364 9.92843 12.4286 9.92843H13V8.92843H12.4286C12.0998 8.92843 11.811 8.7576 11.646 8.49987H12.5V7.49987H11.646C11.811 7.24213 12.0998 7.07129 12.4286 7.07129H13V6.07129H12.4286C11.5364 6.07129 10.7857 6.67713 10.5655 7.49987H10V8.49987H10.5655Z" fill="black"/>
</svg>
