<svg width="24" height="24" viewBox="0 0 24 24" fill="none" xmlns="http://www.w3.org/2000/svg">
<path fill-rule="evenodd" clip-rule="evenodd" d="M22 3H2V13H22V3ZM12 11C13.6569 11 15 9.65685 15 8C15 6.34315 13.6569 5 12 5C10.3431 5 9 6.34315 9 8C9 9.65685 10.3431 11 12 11ZM6 8C6 8.55228 5.55228 9 5 9C4.44772 9 4 8.55228 4 8C4 7.44772 4.44772 7 5 7C5.55228 7 6 7.44772 6 8ZM19 9C19.5523 9 20 8.55228 20 8C20 7.44772 19.5523 7 19 7C18.4477 7 18 7.44772 18 8C18 8.55228 18.4477 9 19 9ZM2 15H3H21H22V17H21H3H2V15ZM2 19H3H21H22V21H21H3H2V19ZM12.4167 6.21153C13.078 6.35153 13.3737 6.82887 13.3737 7.31312V7.38798H12.4167C12.4167 7.16663 12.2375 7.07223 12 7.07223C11.7754 7.07223 11.6647 7.18291 11.6875 7.31312C11.7079 7.42943 11.9075 7.4776 12.2933 7.57064L12.2933 7.57064C12.3394 7.58175 12.3881 7.5935 12.4395 7.60608C13.0775 7.76233 13.4193 8.15621 13.4193 8.72913C13.4193 9.26642 13.0742 9.67574 12.4167 9.79436V10.0833H11.5833V9.78762C10.8208 9.62301 10.5807 9.00828 10.5807 8.60218V8.53381H11.5573C11.5573 8.83329 11.76 8.9277 12.0228 8.9277C12.2279 8.9277 12.4048 8.85613 12.4102 8.72913C12.4167 8.57614 12.3027 8.4915 11.8177 8.39059C11.2634 8.27526 10.6719 8.03902 10.6719 7.35217C10.6719 6.67161 11.1161 6.33915 11.5833 6.22173V5.91663H12.4167V6.21153Z" fill="black"/>
</svg>
