<svg width="24" height="24" viewBox="0 0 24 24" fill="none" xmlns="http://www.w3.org/2000/svg">
<path fill-rule="evenodd" clip-rule="evenodd" d="M4 4C2.89543 4 2 4.89543 2 6V18C2 19.1046 2.89543 20 4 20H20C21.1046 20 22 19.1046 22 18V6C22 4.89543 21.1046 4 20 4H4ZM4 6L20 6V18H18L16 16H8L6 18H4V6ZM6.75 11C6.75 10.3096 7.30964 9.75 8 9.75C8.69036 9.75 9.25 10.3096 9.25 11C9.25 11.6904 8.69036 12.25 8 12.25C7.30964 12.25 6.75 11.6904 6.75 11ZM5.25 11C5.25 12.5188 6.48122 13.75 8 13.75H16C17.5188 13.75 18.75 12.5188 18.75 11C18.75 9.48122 17.5188 8.25 16 8.25H8C6.48122 8.25 5.25 9.48122 5.25 11ZM10.4501 12.25H13.5499C13.3581 11.875 13.25 11.4501 13.25 11C13.25 10.5499 13.3581 10.125 13.5499 9.75H10.4501C10.6419 10.125 10.75 10.5499 10.75 11C10.75 11.4501 10.6419 11.875 10.4501 12.25ZM17.25 11C17.25 11.6904 16.6904 12.25 16 12.25C15.3096 12.25 14.75 11.6904 14.75 11C14.75 10.3096 15.3096 9.75 16 9.75C16.6904 9.75 17.25 10.3096 17.25 11Z" fill="black"/>
</svg>
