<svg width="24" height="24" viewBox="0 0 24 24" fill="none" xmlns="http://www.w3.org/2000/svg">
<path fill-rule="evenodd" clip-rule="evenodd" d="M12 22C17.5228 22 22 17.5228 22 12C22 6.47715 17.5228 2 12 2C6.47715 2 2 6.47715 2 12C2 17.5228 6.47715 22 12 22ZM11.7045 12.9039C11.5896 14.1623 10.5514 15.06 9.11922 15.06C7.38747 15.06 6.3 13.9041 6.3 11.998V11.9939C6.3 10.0878 7.39158 8.94001 9.11922 8.94001C10.5555 8.94001 11.5855 9.84592 11.7004 11.1003L11.7045 11.1371H10.4981L10.4816 11.0675C10.3421 10.4157 9.85788 9.98939 9.11922 9.98939C8.17127 9.98939 7.56393 10.7518 7.56393 11.9898V11.9939C7.56393 13.24 8.17127 14.0106 9.11922 14.0106C9.83326 14.0106 10.3339 13.6007 10.494 12.8998L10.5022 12.8588H11.7086L11.7045 12.9039ZM17.6959 12.9039C17.581 14.1623 16.5428 15.06 15.1106 15.06C13.3788 15.06 12.2914 13.9041 12.2914 11.998V11.9939C12.2914 10.0878 13.3829 8.94001 15.1106 8.94001C16.5469 8.94001 17.5769 9.84592 17.6918 11.1003L17.6959 11.1371H16.4894L16.473 11.0675C16.3335 10.4157 15.8492 9.98939 15.1106 9.98939C14.1626 9.98939 13.5553 10.7518 13.5553 11.9898V11.9939C13.5553 13.24 14.1626 14.0106 15.1106 14.0106C15.8246 14.0106 16.3253 13.6007 16.4853 12.8998L16.4935 12.8588H17.7L17.6959 12.9039Z" fill="black"/>
</svg>
