<svg width="24" height="24" viewBox="0 0 24 24" fill="none" xmlns="http://www.w3.org/2000/svg">
<path fill-rule="evenodd" clip-rule="evenodd" d="M3 4.99957C3 3.895 3.89543 2.99957 5 2.99957H19C20.1046 2.99957 21 3.895 21 4.99957V18.9996C21 20.1041 20.1046 20.9996 19 20.9996H5C3.89543 20.9996 3 20.1041 3 18.9996V4.99957ZM11.7045 12.9039C11.5896 14.1623 10.5514 15.06 9.11923 15.06C7.38748 15.06 6.3 13.904 6.3 11.998V11.9939C6.3 10.0878 7.39158 8.94 9.11923 8.94C10.5555 8.94 11.5855 9.84591 11.7004 11.1002L11.7045 11.1371H10.4981L10.4816 11.0675C10.3421 10.4157 9.85789 9.98938 9.11923 9.98938C8.17128 9.98938 7.56393 10.7518 7.56393 11.9898V11.9939C7.56393 13.24 8.17128 14.0106 9.11923 14.0106C9.83326 14.0106 10.3339 13.6007 10.494 12.8998L10.5022 12.8588H11.7086L11.7045 12.9039ZM17.6959 12.9039C17.581 14.1623 16.5428 15.06 15.1106 15.06C13.3788 15.06 12.2914 13.904 12.2914 11.998V11.9939C12.2914 10.0878 13.3829 8.94 15.1106 8.94C16.5469 8.94 17.5769 9.84591 17.6918 11.1002L17.6959 11.1371H16.4894L16.473 11.0675C16.3335 10.4157 15.8492 9.98938 15.1106 9.98938C14.1626 9.98938 13.5553 10.7518 13.5553 11.9898V11.9939C13.5553 13.24 14.1626 14.0106 15.1106 14.0106C15.8246 14.0106 16.3253 13.6007 16.4853 12.8998L16.4935 12.8588H17.7L17.6959 12.9039Z" fill="black"/>
</svg>
