<svg width="24" height="24" viewBox="0 0 24 24" fill="none" xmlns="http://www.w3.org/2000/svg">
<path fill-rule="evenodd" clip-rule="evenodd" d="M5 3C3.89543 3 3 3.89543 3 5V19C3 20.1046 3.89543 21 5 21H19C20.1046 21 21 20.1046 21 19V5C21 3.89543 20.1046 3 19 3H5ZM5 5H19V19H5V5ZM11.7046 12.9039C11.5897 14.1623 10.5515 15.06 9.11927 15.06C7.38752 15.06 6.30005 13.904 6.30005 11.998V11.9939C6.30005 10.0878 7.39163 8.94 9.11927 8.94C10.5556 8.94 11.5856 9.84591 11.7005 11.1002L11.7046 11.1371H10.4981L10.4817 11.0675C10.3422 10.4157 9.85793 9.98938 9.11927 9.98938C8.17132 9.98938 7.56398 10.7518 7.56398 11.9898V11.9939C7.56398 13.24 8.17132 14.0106 9.11927 14.0106C9.83331 14.0106 10.334 13.6007 10.494 12.8998L10.5022 12.8588H11.7087L11.7046 12.9039ZM17.6959 12.9039C17.581 14.1623 16.5428 15.06 15.1106 15.06C13.3789 15.06 12.2914 13.904 12.2914 11.998V11.9939C12.2914 10.0878 13.383 8.94 15.1106 8.94C16.5469 8.94 17.5769 9.84591 17.6918 11.1002L17.6959 11.1371H16.4895L16.4731 11.0675C16.3335 10.4157 15.8493 9.98938 15.1106 9.98938C14.1627 9.98938 13.5553 10.7518 13.5553 11.9898V11.9939C13.5553 13.24 14.1627 14.0106 15.1106 14.0106C15.8247 14.0106 16.3253 13.6007 16.4854 12.8998L16.4936 12.8588H17.7L17.6959 12.9039Z" fill="black"/>
</svg>
