<svg width="24" height="24" viewBox="0 0 24 24" fill="none" xmlns="http://www.w3.org/2000/svg">
<path fill-rule="evenodd" clip-rule="evenodd" d="M4 12C4 8.24148 7.46774 5 12 5C16.5323 5 20 8.24148 20 12C20 15.7585 16.5323 19 12 19H5.39167L6.13533 16.7904L5.73948 16.3556C4.64052 15.1484 4 13.6337 4 12ZM2.60833 21H4H12C17.4089 21 22 17.078 22 12C22 6.92196 17.4089 3 12 3C6.59113 3 2 6.92196 2 12C2 13.9676 2.70102 15.7782 3.87177 17.246L2.60833 21ZM8 9V11H16V9H8ZM8 15H14V13H8V15Z" fill="black"/>
</svg>
