<svg width="24" height="24" viewBox="0 0 24 24" fill="none" xmlns="http://www.w3.org/2000/svg">
<path fill-rule="evenodd" clip-rule="evenodd" d="M4 12C4 8.24148 7.46774 5 12 5C16.5323 5 20 8.24148 20 12C20 15.7585 16.5323 19 12 19H5.39167L6.13533 16.7904L5.73948 16.3556C4.64052 15.1484 4 13.6337 4 12ZM2.60833 21H4H12C17.4089 21 22 17.078 22 12C22 6.92196 17.4089 3 12 3C6.59113 3 2 6.92196 2 12C2 13.9676 2.70102 15.7782 3.87177 17.246L2.60833 21ZM12 16C12 16 9.30404 13.4049 8.99996 13.0002C8.79066 12.7216 8.66663 12.3753 8.66663 12C8.66663 11.0796 9.41282 10.3334 10.3333 10.3334C10.7086 10.3334 11.0549 10.4574 11.3335 10.6667C11.5622 10.8386 12.003 11.2342 12.003 11.2342C12.003 11.2342 12.4377 10.8386 12.6665 10.6667C12.945 10.4574 13.2914 10.3334 13.6666 10.3334C14.5871 10.3334 15.3333 11.0796 15.3333 12C15.3333 12.3753 15.2093 12.7216 15 13.0002C14.6959 13.4049 12 16 12 16Z" fill="black"/>
</svg>
