<svg width="24" height="24" viewBox="0 0 24 24" fill="none" xmlns="http://www.w3.org/2000/svg">
<path d="M12 14C12 14 9.30404 11.4049 8.99996 11.0002C8.79066 10.7216 8.66663 10.3753 8.66663 10C8.66663 9.07957 9.41282 8.33337 10.3333 8.33337C10.7086 8.33337 11.0549 8.4574 11.3335 8.66671C11.5622 8.83858 12.003 9.23417 12.003 9.23417C12.003 9.23417 12.4377 8.83858 12.6665 8.66671C12.945 8.4574 13.2914 8.33337 13.6666 8.33337C14.5871 8.33337 15.3333 9.07957 15.3333 10C15.3333 10.3753 15.2093 10.7216 15 11.0002C14.6959 11.4049 12 14 12 14Z" fill="black"/>
<path fill-rule="evenodd" clip-rule="evenodd" d="M18.8787 19.8787L21 22V6C21 4.34315 19.6569 3 18 3H3V16C3 17.6569 4.34315 19 6 19H16.7574C17.553 19 18.3161 19.3161 18.8787 19.8787ZM18 5H5V16C5 16.5523 5.44771 17 6 17H16.7574C17.5434 17 18.3104 17.1851 19 17.5312V6C19 5.44772 18.5523 5 18 5Z" fill="black"/>
</svg>
