<svg width="24" height="24" viewBox="0 0 24 24" fill="none" xmlns="http://www.w3.org/2000/svg">
<path fill-rule="evenodd" clip-rule="evenodd" d="M6 3C3.79086 3 2 4.79086 2 7V19H9L12 22L15 19H18C20.2091 19 22 17.2091 22 15V3H6ZM9 11C9 11.8284 8.32843 12.5 7.5 12.5C6.67157 12.5 6 11.8284 6 11C6 10.1716 6.67157 9.5 7.5 9.5C8.32843 9.5 9 10.1716 9 11ZM12 12.5C12.8284 12.5 13.5 11.8284 13.5 11C13.5 10.1716 12.8284 9.5 12 9.5C11.1716 9.5 10.5 10.1716 10.5 11C10.5 11.8284 11.1716 12.5 12 12.5ZM16.5 12.5C17.3284 12.5 18 11.8284 18 11C18 10.1716 17.3284 9.5 16.5 9.5C15.6716 9.5 15 10.1716 15 11C15 11.8284 15.6716 12.5 16.5 12.5Z" fill="black"/>
</svg>
