<svg width="24" height="24" viewBox="0 0 24 24" fill="none" xmlns="http://www.w3.org/2000/svg">
<path fill-rule="evenodd" clip-rule="evenodd" d="M18.8787 19.8787L21 22V6C21 4.34315 19.6569 3 18 3H3V16C3 17.6569 4.34315 19 6 19H16.7574C17.553 19 18.3161 19.3161 18.8787 19.8787ZM18 5H5V16C5 16.5523 5.44771 17 6 17H16.7574C17.5434 17 18.3104 17.1851 19 17.5312V6C19 5.44772 18.5523 5 18 5ZM11 10C11 11.5 10.5 13 9 14V12C7.89543 12 7 11.1046 7 10C7 8.89543 7.89543 8 9 8C10.1046 8 11 8.89543 11 10ZM17 10C17 11.5 16.5 13 15 14V12C13.8954 12 13 11.1046 13 10C13 8.89543 13.8954 8 15 8C16.1046 8 17 8.89543 17 10Z" fill="black"/>
</svg>
