<svg width="24" height="24" viewBox="0 0 24 24" fill="none" xmlns="http://www.w3.org/2000/svg">
<path fill-rule="evenodd" clip-rule="evenodd" d="M18.0037 3.00012C19.6606 3.00006 21 4.34323 21 6.00013V22.0005L18.8787 19.8792C18.3161 19.3166 17.5558 19.0005 16.7602 19.0005L5.99762 19.0001C4.34081 19.0001 3 17.6608 3 16.004V3.00049C7.51795 3.00049 14.1792 3.00027 18.0037 3.00012ZM12.003 13.7801C12.003 13.7801 9.30408 11.405 9 11.0003C8.7907 10.7217 8.66667 10.3754 8.66667 10.0001C8.66667 9.07965 9.41286 8.33345 10.3333 8.33345C10.7086 8.33345 11.0549 8.45748 11.3335 8.66679C11.5623 8.83866 12.003 9.23425 12.003 9.23425C12.003 9.23425 12.4377 8.83866 12.6665 8.66679C12.9451 8.45748 13.2914 8.33345 13.6667 8.33345C14.5871 8.33345 15.3333 9.07965 15.3333 10.0001C15.3333 10.3754 15.2093 10.7217 15 11.0003C14.6959 11.405 12.003 13.7801 12.003 13.7801Z" fill="black"/>
</svg>
