<svg width="24" height="24" viewBox="0 0 24 24" fill="none" xmlns="http://www.w3.org/2000/svg">
<path fill-rule="evenodd" clip-rule="evenodd" d="M3.87177 17.246L2.5 21H12C17.4089 21 22 17.078 22 12C22 6.92196 17.4089 3 12 3C6.59113 3 2 6.92196 2 12C2 13.9676 2.70102 15.7782 3.87177 17.246ZM12.003 14.78C12.003 14.78 9.30408 12.4049 9 12.0002C8.7907 11.7216 8.66667 11.3753 8.66667 11C8.66667 10.0795 9.41286 9.33333 10.3333 9.33333C10.7086 9.33333 11.0549 9.45736 11.3335 9.66667C11.5623 9.83854 12.003 10.2341 12.003 10.2341C12.003 10.2341 12.4377 9.83854 12.6665 9.66667C12.9451 9.45736 13.2914 9.33333 13.6667 9.33333C14.5871 9.33333 15.3333 10.0795 15.3333 11C15.3333 11.3753 15.2093 11.7216 15 12.0002C14.6959 12.4049 12.003 14.78 12.003 14.78Z" fill="black"/>
</svg>
