<svg width="24" height="24" viewBox="0 0 24 24" fill="none" xmlns="http://www.w3.org/2000/svg">
<path fill-rule="evenodd" clip-rule="evenodd" d="M4 12C4 8.24148 7.46774 5 12 5C16.5323 5 20 8.24148 20 12C20 15.7585 16.5323 19 12 19H5.39167L6.13533 16.7904L5.73948 16.3556C4.64052 15.1484 4 13.6337 4 12ZM2.60833 21H4H12C17.4089 21 22 17.078 22 12C22 6.92196 17.4089 3 12 3C6.59113 3 2 6.92196 2 12C2 13.9676 2.70102 15.7782 3.87177 17.246L2.60833 21ZM9 12C9 12.8284 8.32843 13.5 7.5 13.5C6.67157 13.5 6 12.8284 6 12C6 11.1716 6.67157 10.5 7.5 10.5C8.32843 10.5 9 11.1716 9 12ZM12 13.5C12.8284 13.5 13.5 12.8284 13.5 12C13.5 11.1716 12.8284 10.5 12 10.5C11.1716 10.5 10.5 11.1716 10.5 12C10.5 12.8284 11.1716 13.5 12 13.5ZM16.5 13.5C17.3284 13.5 18 12.8284 18 12C18 11.1716 17.3284 10.5 16.5 10.5C15.6716 10.5 15 11.1716 15 12C15 12.8284 15.6716 13.5 16.5 13.5Z" fill="black"/>
</svg>
