<svg width="24" height="24" viewBox="0 0 24 24" fill="none" xmlns="http://www.w3.org/2000/svg">
<path fill-rule="evenodd" clip-rule="evenodd" d="M5.12132 19.8787L3 22V6C3 4.34315 4.34315 3 6 3H21V16C21 17.6569 19.6569 19 18 19H7.24264C6.44699 19 5.68393 19.3161 5.12132 19.8787ZM6 5H19V16C19 16.5523 18.5523 17 18 17H7.24264C6.45659 17 5.68962 17.1851 5 17.5312V6C5 5.44772 5.44772 5 6 5ZM11 10C11 11.5 10.5 13 9 14V12C7.89543 12 7 11.1046 7 10C7 8.89543 7.89543 8 9 8C10.1046 8 11 8.89543 11 10ZM17 10C17 11.5 16.5 13 15 14V12C13.8954 12 13 11.1046 13 10C13 8.89543 13.8954 8 15 8C16.1046 8 17 8.89543 17 10Z" fill="black"/>
</svg>
