<svg width="24" height="24" viewBox="0 0 24 24" fill="none" xmlns="http://www.w3.org/2000/svg">
<path fill-rule="evenodd" clip-rule="evenodd" d="M18.0037 3C19.6606 2.99994 21 4.34311 21 6.00001V22.0004L18.8787 19.879C18.3161 19.3164 17.5558 19.0004 16.7602 19.0004L5.99762 19C4.34081 18.9999 3 17.6607 3 16.0039V3.00037C7.51795 3.00037 14.1792 3.00014 18.0037 3ZM11 10C11 11.5 10.5 13 9 14V12C7.89543 12 7 11.1046 7 10C7 8.89543 7.89543 8 9 8C10.1046 8 11 8.89543 11 10ZM17 10C17 11.5 16.5 13 15 14V12C13.8954 12 13 11.1046 13 10C13 8.89543 13.8954 8 15 8C16.1046 8 17 8.89543 17 10Z" fill="black"/>
</svg>
