<svg width="24" height="24" viewBox="0 0 24 24" fill="none" xmlns="http://www.w3.org/2000/svg">
<path fill-rule="evenodd" clip-rule="evenodd" d="M3.87177 17.246L2.5 21H12C17.4089 21 22 17.078 22 12C22 6.92196 17.4089 3 12 3C6.59113 3 2 6.92196 2 12C2 13.9676 2.70102 15.7782 3.87177 17.246ZM11 11C11 12.5 10.5 14 9 15V13C7.89543 13 7 12.1046 7 11C7 9.89543 7.89543 9 9 9C10.1046 9 11 9.89543 11 11ZM17 11C17 12.5 16.5 14 15 15V13C13.8954 13 13 12.1046 13 11C13 9.89543 13.8954 9 15 9C16.1046 9 17 9.89543 17 11Z" fill="black"/>
</svg>
