<svg width="24" height="24" viewBox="0 0 24 24" fill="none" xmlns="http://www.w3.org/2000/svg">
<path fill-rule="evenodd" clip-rule="evenodd" d="M22 16C22 17.6569 20.6569 19 19 19H15L12 22L9 19H2V6C2 4.34315 3.34315 3 5 3H22V16ZM14.1716 17L12 19.1716L9.82843 17H4V6C4 5.44772 4.44772 5 5 5H20V16C20 16.5523 19.5523 17 19 17H14.1716ZM11 10C11 11.5 10.5 13 9 14V12C7.89543 12 7 11.1046 7 10C7 8.89543 7.89543 8 9 8C10.1046 8 11 8.89543 11 10ZM17 10C17 11.5 16.5 13 15 14V12C13.8954 12 13 11.1046 13 10C13 8.89543 13.8954 8 15 8C16.1046 8 17 8.89543 17 10Z" fill="black"/>
</svg>
