<svg width="24" height="24" viewBox="0 0 24 24" fill="none" xmlns="http://www.w3.org/2000/svg">
<path fill-rule="evenodd" clip-rule="evenodd" d="M6.00001 3C4.34316 3 3.00001 4.33843 3.00001 5.99528L3 22L5.12132 19.8787C5.68393 19.3161 6.44603 19 7.24168 19H18.0035C19.6604 19 21 17.6569 21 16V3H6.00001ZM11 10C11 11.5 10.5 13 9 14V12C7.89543 12 7 11.1046 7 10C7 8.89543 7.89543 8 9 8C10.1046 8 11 8.89543 11 10ZM17 10C17 11.5 16.5 13 15 14V12C13.8954 12 13 11.1046 13 10C13 8.89543 13.8954 8 15 8C16.1046 8 17 8.89543 17 10Z" fill="black"/>
</svg>
