<svg width="24" height="24" viewBox="0 0 24 24" fill="none" xmlns="http://www.w3.org/2000/svg">
<path fill-rule="evenodd" clip-rule="evenodd" d="M18.0037 3C19.6606 2.99994 21 4.34311 21 6.00001V22.0004L18.8787 19.879C18.3161 19.3164 17.5558 19.0004 16.7602 19.0004L5.99762 19C4.34081 18.9999 3 17.6607 3 16.0039V3.00037C7.51795 3.00037 14.1792 3.00014 18.0037 3ZM9 10.999C9 11.8275 8.32843 12.499 7.5 12.499C6.67157 12.499 6 11.8275 6 10.999C6 10.1706 6.67157 9.49902 7.5 9.49902C8.32843 9.49902 9 10.1706 9 10.999ZM12 12.499C12.8284 12.499 13.5 11.8275 13.5 10.999C13.5 10.1706 12.8284 9.49902 12 9.49902C11.1716 9.49902 10.5 10.1706 10.5 10.999C10.5 11.8275 11.1716 12.499 12 12.499ZM16.5 12.499C17.3284 12.499 18 11.8275 18 10.999C18 10.1706 17.3284 9.49902 16.5 9.49902C15.6716 9.49902 15 10.1706 15 10.999C15 11.8275 15.6716 12.499 16.5 12.499Z" fill="black"/>
</svg>
