<svg width="24" height="24" viewBox="0 0 24 24" fill="none" xmlns="http://www.w3.org/2000/svg">
<path fill-rule="evenodd" clip-rule="evenodd" d="M6.00001 3C4.34316 3 3.00001 4.33843 3.00001 5.99528L3 22L5.12132 19.8787C5.68393 19.3161 6.44603 19 7.24168 19H18.0035C19.6604 19 21 17.6569 21 16V3H6.00001ZM9 11.5C9 12.3284 8.32843 13 7.5 13C6.67157 13 6 12.3284 6 11.5C6 10.6716 6.67157 10 7.5 10C8.32843 10 9 10.6716 9 11.5ZM12 13C12.8284 13 13.5 12.3284 13.5 11.5C13.5 10.6716 12.8284 10 12 10C11.1716 10 10.5 10.6716 10.5 11.5C10.5 12.3284 11.1716 13 12 13ZM16.5 13C17.3284 13 18 12.3284 18 11.5C18 10.6716 17.3284 10 16.5 10C15.6716 10 15 10.6716 15 11.5C15 12.3284 15.6716 13 16.5 13Z" fill="black"/>
</svg>
