<svg width="24" height="24" viewBox="0 0 24 24" fill="none" xmlns="http://www.w3.org/2000/svg">
<path fill-rule="evenodd" clip-rule="evenodd" d="M6 3C3.79086 3 2 4.79086 2 7V19H9L12 22L15 19H18C20.2091 19 22 17.2091 22 15V3H6ZM12.003 13.78C12.003 13.78 9.30408 11.4049 9 11.0002C8.7907 10.7216 8.66667 10.3753 8.66667 10C8.66667 9.07953 9.41286 8.33333 10.3333 8.33333C10.7086 8.33333 11.0549 8.45736 11.3335 8.66667C11.5623 8.83854 12.003 9.23412 12.003 9.23412C12.003 9.23412 12.4377 8.83854 12.6665 8.66667C12.9451 8.45736 13.2914 8.33333 13.6667 8.33333C14.5871 8.33333 15.3333 9.07953 15.3333 10C15.3333 10.3753 15.2093 10.7216 15 11.0002C14.6959 11.4049 12.003 13.78 12.003 13.78Z" fill="black"/>
</svg>
