<svg width="24" height="24" viewBox="0 0 24 24" fill="none" xmlns="http://www.w3.org/2000/svg">
<path fill-rule="evenodd" clip-rule="evenodd" d="M4 12C4 7.58172 7.58172 4 12 4C13.279 4 14.4852 4.2994 15.555 4.83103L16.445 3.04001C15.1049 2.37401 13.5947 2 12 2C6.47715 2 2 6.47715 2 12C2 17.5228 6.47715 22 12 22C17.5228 22 22 17.5228 22 12H20C20 16.4183 16.4183 20 12 20C7.58172 20 4 16.4183 4 12ZM12.4019 16.004L22 6.41421L20.5869 5L12.4019 13.1756L8.41307 9.12104L7 10.5353L12.4019 16.004Z" fill="black"/>
</svg>
