<svg width="24" height="24" viewBox="0 0 24 24" fill="none" xmlns="http://www.w3.org/2000/svg">
<path fill-rule="evenodd" clip-rule="evenodd" d="M8 7C8 8.10457 8.89543 9 10 9H14C15.1046 9 16 8.10457 16 7V5H17C17.5523 5 18 5.44772 18 6V19C18 19.5523 17.5523 20 17 20H7C6.44772 20 6 19.5523 6 19V6C6 5.44772 6.44772 5 7 5H8V7ZM16 2V3H17C18.6569 3 20 4.34315 20 6V19C20 20.6569 18.6569 22 17 22H7C5.34315 22 4 20.6569 4 19V6C4 4.34315 5.34315 3 7 3H8V2H10V3H14V2H16ZM14 5H10V7H14V5ZM10.7115 14.2372L11 13.3717L11.2885 14.2372L12.2885 17.2372H13.7115L14.5406 14.75H16V13.25H14H13.4594L13.2885 13.7628L13 14.6283L12.7115 13.7628L11.7115 10.7628H10.2885L9.45943 13.25H8V14.75H10H10.5406L10.7115 14.2372Z" fill="black"/>
</svg>
