<svg width="24" height="24" viewBox="0 0 24 24" fill="none" xmlns="http://www.w3.org/2000/svg">
<path fill-rule="evenodd" clip-rule="evenodd" d="M19 6H17C17 4.89543 16.1046 4 15 4C15 2.89543 14.1046 2 13 2H11C9.89543 2 9 2.89543 9 4C7.89543 4 7 4.89543 7 6H5C3.34315 6 2 7.34315 2 9V19C2 20.6569 3.34315 22 5 22H19C20.6569 22 22 20.6569 22 19V9C22 7.34315 20.6569 6 19 6ZM9 8V6H10H11V5V4H13V5V6H14H15V8H9ZM12.003 17.78C12.003 17.78 9.30408 15.4049 9 15.0002C8.7907 14.7216 8.66667 14.3753 8.66667 14C8.66667 13.0795 9.41286 12.3333 10.3333 12.3333C10.7086 12.3333 11.0549 12.4574 11.3335 12.6667C11.5623 12.8385 12.003 13.2341 12.003 13.2341C12.003 13.2341 12.4377 12.8385 12.6665 12.6667C12.9451 12.4574 13.2914 12.3333 13.6667 12.3333C14.5871 12.3333 15.3333 13.0795 15.3333 14C15.3333 14.3753 15.2093 14.7216 15 15.0002C14.6959 15.4049 12.003 17.78 12.003 17.78Z" fill="black"/>
</svg>
