<svg width="24" height="24" viewBox="0 0 24 24" fill="none" xmlns="http://www.w3.org/2000/svg">
<path fill-rule="evenodd" clip-rule="evenodd" d="M10 9C8.89543 9 8 8.10457 8 7V5H7C6.44772 5 6 5.44772 6 6V19C6 19.5523 6.44772 20 7 20H17C17.5523 20 18 19.5523 18 19V6C18 5.44772 17.5523 5 17 5H16V7C16 8.10457 15.1046 9 14 9H10ZM16 3V2H14V3H10V2H8V3H7C5.34315 3 4 4.34315 4 6V19C4 20.6569 5.34315 22 7 22H17C18.6569 22 20 20.6569 20 19V6C20 4.34315 18.6569 3 17 3H16ZM10 5H14V7H10V5Z" fill="black"/>
</svg>
