<svg width="24" height="24" viewBox="0 0 24 24" fill="none" xmlns="http://www.w3.org/2000/svg">
<path fill-rule="evenodd" clip-rule="evenodd" d="M7 10H8H16H17V9V8H19C19.5523 8 20 8.44772 20 9V19C20 19.5523 19.5523 20 19 20H5C4.44772 20 4 19.5523 4 19V9C4 8.44772 4.44772 8 5 8H7V9V10ZM19 6H17C17 4.89543 16.1046 4 15 4C15 2.89543 14.1046 2 13 2H11C9.89543 2 9 2.89543 9 4C7.89543 4 7 4.89543 7 6H5C3.34315 6 2 7.34315 2 9V19C2 20.6569 3.34315 22 5 22H19C20.6569 22 22 20.6569 22 19V9C22 7.34315 20.6569 6 19 6ZM9 8V6H10H11V5V4H13V5V6H14H15V8H9ZM8.97559 13.4057L10.5721 14.9974L8.99572 16.5801L10.4036 17.9904L11.9833 16.4044L13.5726 17.989L14.9756 16.5737L13.3896 14.9925L14.9726 13.4032L13.5647 11.9929L11.9784 13.5855L10.3785 11.9904L8.97559 13.4057Z" fill="black"/>
</svg>
