<svg width="24" height="24" viewBox="0 0 24 24" fill="none" xmlns="http://www.w3.org/2000/svg">
<path fill-rule="evenodd" clip-rule="evenodd" d="M19 6H17C17 4.89543 16.1046 4 15 4C15 2.89543 14.1046 2 13 2H11C9.89543 2 9 2.89543 9 4C7.89543 4 7 4.89543 7 6H5C3.34315 6 2 7.34315 2 9V19C2 20.6569 3.34315 22 5 22H19C20.6569 22 22 20.6569 22 19V9C22 7.34315 20.6569 6 19 6ZM9 8V6H10H11V5V4H13V5V6H14H15V8H9ZM13.7929 11.7929L12 13.5858L10.2071 11.7929L8.79289 13.2071L10.5858 15L8.79289 16.7929L10.2071 18.2071L12 16.4142L13.7929 18.2071L15.2071 16.7929L13.4142 15L15.2071 13.2071L13.7929 11.7929Z" fill="black"/>
</svg>
