<svg width="24" height="24" viewBox="0 0 24 24" fill="none" xmlns="http://www.w3.org/2000/svg">
<path fill-rule="evenodd" clip-rule="evenodd" d="M3.99988 4.99988C3.99988 3.34302 5.34302 1.99988 6.99988 1.99988H7.99988V5.99988C7.99988 7.10445 8.89531 7.99988 9.99988 7.99988H13.9999C15.1044 7.99988 15.9999 7.10445 15.9999 5.99988V1.99988H16.9999C18.6567 1.99988 19.9999 3.34302 19.9999 4.99988V18.9999C19.9999 20.6567 18.6567 21.9999 16.9999 21.9999H6.99988C5.34302 21.9999 3.99988 20.6567 3.99988 18.9999V4.99988ZM9.99988 5.99988V1.99988H13.9999V5.99988H9.99988ZM13.7928 10.7928L11.9999 12.5857L10.207 10.7928L8.79277 12.207L10.5857 13.9999L8.79277 15.7928L10.207 17.207L11.9999 15.4141L13.7928 17.207L15.207 15.7928L13.4141 13.9999L15.207 12.207L13.7928 10.7928Z" fill="black"/>
</svg>
