<svg width="24" height="24" viewBox="0 0 24 24" fill="none" xmlns="http://www.w3.org/2000/svg">
<path fill-rule="evenodd" clip-rule="evenodd" d="M4 5C4 3.34315 5.34315 2 7 2H8V6C8 7.10457 8.89543 8 10 8H14C15.1046 8 16 7.10457 16 6V2H17C18.6569 2 20 3.34315 20 5V19C20 20.6569 18.6569 22 17 22H7C5.34315 22 4 20.6569 4 19V5ZM10 6V2H14V6H10ZM12.003 17.78C12.003 17.78 9.30408 15.4049 9 15.0002C8.7907 14.7216 8.66667 14.3753 8.66667 14C8.66667 13.0795 9.41286 12.3333 10.3333 12.3333C10.7086 12.3333 11.0549 12.4574 11.3335 12.6667C11.5623 12.8385 12.003 13.2341 12.003 13.2341C12.003 13.2341 12.4377 12.8385 12.6665 12.6667C12.9451 12.4574 13.2914 12.3333 13.6667 12.3333C14.5871 12.3333 15.3333 13.0795 15.3333 14C15.3333 14.3753 15.2093 14.7216 15 15.0002C14.6959 15.4049 12.003 17.78 12.003 17.78Z" fill="black"/>
</svg>
