<svg width="24" height="24" viewBox="0 0 24 24" fill="none" xmlns="http://www.w3.org/2000/svg">
<path fill-rule="evenodd" clip-rule="evenodd" d="M8 7C8 8.10457 8.89543 9 10 9H14C15.1046 9 16 8.10457 16 7V5H17C17.5523 5 18 5.44772 18 6V19C18 19.5523 17.5523 20 17 20H7C6.44772 20 6 19.5523 6 19V6C6 5.44772 6.44772 5 7 5H8V7ZM16 2V3H17C18.6569 3 20 4.34315 20 6V19C20 20.6569 18.6569 22 17 22H7C5.34315 22 4 20.6569 4 19V6C4 4.34315 5.34315 3 7 3H8V2H10V3H14V2H16ZM14 5H10V7H14V5ZM8.97546 12.4057L10.572 13.9974L8.9956 15.5801L10.4035 16.9904L11.9832 15.4044L13.5725 16.989L14.9755 15.5737L13.3895 13.9925L14.9724 12.4032L13.5646 10.9929L11.9783 12.5855L10.3784 10.9904L8.97546 12.4057Z" fill="black"/>
</svg>
