<svg width="24" height="24" viewBox="0 0 24 24" fill="none" xmlns="http://www.w3.org/2000/svg">
<path fill-rule="evenodd" clip-rule="evenodd" d="M7 10H17V8H19C19.5523 8 20 8.44772 20 9V19C20 19.5523 19.5523 20 19 20H5C4.44772 20 4 19.5523 4 19V9C4 8.44772 4.44772 8 5 8H7V10ZM19 6H17C17 4.89543 16.1046 4 15 4C15 2.89543 14.1046 2 13 2H11C9.89543 2 9 2.89543 9 4C7.89543 4 7 4.89543 7 6H5C3.34315 6 2 7.34315 2 9V19C2 20.6569 3.34315 22 5 22H19C20.6569 22 22 20.6569 22 19V9C22 7.34315 20.6569 6 19 6ZM9 8V6H11V4H13V6H15V8H9ZM12 18C12 18 9.30404 15.4049 8.99996 15.0002C8.79066 14.7216 8.66663 14.3753 8.66663 14C8.66663 13.0796 9.41282 12.3334 10.3333 12.3334C10.7086 12.3334 11.0549 12.4574 11.3335 12.6667C11.5622 12.8386 12.003 13.2342 12.003 13.2342C12.003 13.2342 12.4377 12.8386 12.6665 12.6667C12.945 12.4574 13.2914 12.3334 13.6666 12.3334C14.5871 12.3334 15.3333 13.0796 15.3333 14C15.3333 14.3753 15.2093 14.7216 15 15.0002C14.6959 15.4049 12 18 12 18Z" fill="black"/>
</svg>
