<svg width="24" height="24" viewBox="0 0 24 24" fill="none" xmlns="http://www.w3.org/2000/svg">
<path fill-rule="evenodd" clip-rule="evenodd" d="M4 5.00012C4 3.34327 5.34315 2.00012 7 2.00012H8V6.00012C8 7.10469 8.89543 8.00012 10 8.00012H14C15.1046 8.00012 16 7.10469 16 6.00012V2.00012H17C18.6569 2.00012 20 3.34327 20 5.00012V19.0001C20 20.657 18.6569 22.0001 17 22.0001H7C5.34315 22.0001 4 20.657 4 19.0001V5.00012ZM10 6.00012V2.00012H14V6.00012H10ZM10.7115 14.2373L11 13.3718L11.2885 14.2373L12.2885 17.2373H13.7115L14.5406 14.7501H16V13.2501H14H13.4594L13.2885 13.763L13 14.6284L12.7115 13.763L11.7115 10.763H10.2885L9.45943 13.2501H8V14.7501H10H10.5406L10.7115 14.2373Z" fill="black"/>
</svg>
