<svg width="24" height="24" viewBox="0 0 24 24" fill="none" xmlns="http://www.w3.org/2000/svg">
<path fill-rule="evenodd" clip-rule="evenodd" d="M8 7C8 8.10457 8.89543 9 10 9H14C15.1046 9 16 8.10457 16 7V5H17C17.5523 5 18 5.44772 18 6V19C18 19.5523 17.5523 20 17 20H7C6.44772 20 6 19.5523 6 19V6C6 5.44772 6.44772 5 7 5H8V7ZM16 2V3H17C18.6569 3 20 4.34315 20 6V19C20 20.6569 18.6569 22 17 22H7C5.34315 22 4 20.6569 4 19V6C4 4.34315 5.34315 3 7 3H8V2H10V3H14V2H16ZM14 5H10V7H14V5ZM11.4585 16.9918L16.0499 12.3856L14.6334 10.9736L11.4563 14.161L9.41824 12.125L8.00391 13.5391L11.4585 16.9918Z" fill="black"/>
</svg>
