<svg width="24" height="24" viewBox="0 0 24 24" fill="none" xmlns="http://www.w3.org/2000/svg">
<path fill-rule="evenodd" clip-rule="evenodd" d="M8 7C8 8.10457 8.89543 9 10 9H14C15.1046 9 16 8.10457 16 7V5H17C17.5523 5 18 5.44772 18 6V19C18 19.5523 17.5523 20 17 20H7C6.44772 20 6 19.5523 6 19V6C6 5.44772 6.44772 5 7 5H8V7ZM16 2V3H17C18.6569 3 20 4.34315 20 6V19C20 20.6569 18.6569 22 17 22H7C5.34315 22 4 20.6569 4 19V6C4 4.34315 5.34315 3 7 3H8V2H10V3H14V2H16ZM14 5H10V7H14V5ZM12 18C12 18 9.30404 15.4049 8.99996 15.0002C8.79066 14.7216 8.66663 14.3753 8.66663 14C8.66663 13.0796 9.41282 12.3334 10.3333 12.3334C10.7086 12.3334 11.0549 12.4574 11.3335 12.6667C11.5622 12.8386 12.003 13.2342 12.003 13.2342C12.003 13.2342 12.4377 12.8386 12.6665 12.6667C12.945 12.4574 13.2914 12.3334 13.6666 12.3334C14.5871 12.3334 15.3333 13.0796 15.3333 14C15.3333 14.3753 15.2093 14.7216 15 15.0002C14.6959 15.4049 12 18 12 18Z" fill="black"/>
</svg>
