<svg width="24" height="24" viewBox="0 0 24 24" fill="none" xmlns="http://www.w3.org/2000/svg">
<path fill-rule="evenodd" clip-rule="evenodd" d="M6.99988 1.99988C5.34302 1.99988 3.99988 3.34302 3.99988 4.99988V18.9999C3.99988 20.6567 5.34302 21.9999 6.99988 21.9999H16.9999C18.6567 21.9999 19.9999 20.6567 19.9999 18.9999V4.99988C19.9999 3.34302 18.6567 1.99988 16.9999 1.99988H15.9999V5.99988C15.9999 7.10445 15.1044 7.99988 13.9999 7.99988H9.99988C8.89531 7.99988 7.99988 7.10445 7.99988 5.99988V1.99988H6.99988ZM9.99988 1.99988V5.99988H13.9999V1.99988H9.99988ZM15.9594 12.4545L16.207 12.207L14.7928 10.7928L11.4999 14.0857L9.70698 12.2928L9.65005 12.3497L9.41044 12.1119L8.00157 13.5314L10.7987 16.3075L11.5065 17.0101L12.211 16.3041L16.0058 12.5009L15.9594 12.4545Z" fill="black"/>
</svg>
