<svg width="24" height="24" viewBox="0 0 24 24" fill="none" xmlns="http://www.w3.org/2000/svg">
<path fill-rule="evenodd" clip-rule="evenodd" d="M17 6H19C20.6569 6 22 7.34315 22 9V19C22 20.6569 20.6569 22 19 22H5C3.34315 22 2 20.6569 2 19V9C2 7.34315 3.34315 6 5 6H7C7 4.89543 7.89543 4 9 4C9 2.89543 9.89543 2 11 2H13C14.1046 2 15 2.89543 15 4C16.1046 4 17 4.89543 17 6ZM9 6V8H15V6H14H13V5V4H11V5V6H10H9ZM15.9595 13.4547L16.2071 13.2071L14.7929 11.7929L11.5 15.0858L9.70711 13.2929L9.65017 13.3498L9.41056 13.112L8.00169 14.5316L10.7988 17.3076L11.5067 18.0102L12.2111 17.3042L16.006 13.501L15.9595 13.4547Z" fill="black"/>
</svg>
