<svg width="24" height="24" viewBox="0 0 24 24" fill="none" xmlns="http://www.w3.org/2000/svg">
<path fill-rule="evenodd" clip-rule="evenodd" d="M7.70711 6.29289L7.0943 5.68009C8.20118 4.81943 9.53919 4.24382 11 4.06183V5C11 5.55228 11.4477 6 12 6C12.5523 6 13 5.55228 13 5V4.06183C14.4608 4.24382 15.7988 4.81943 16.9057 5.68009L16.2929 6.29289C15.9024 6.68342 15.9024 7.31658 16.2929 7.70711C16.6834 8.09763 17.3166 8.09763 17.7071 7.70711L18.3199 7.0943C19.1806 8.20118 19.7562 9.53919 19.9382 11H19C18.4477 11 18 11.4477 18 12C18 12.5523 18.4477 13 19 13H19.9382C19.7562 14.4608 19.1806 15.7988 18.3199 16.9057L17.7071 16.2929C17.3166 15.9024 16.6834 15.9024 16.2929 16.2929C15.9024 16.6834 15.9024 17.3166 16.2929 17.7071L16.9057 18.3199C15.7988 19.1806 14.4608 19.7562 13 19.9382V19C13 18.4477 12.5523 18 12 18C11.4477 18 11 18.4477 11 19V19.9382C9.53919 19.7562 8.20118 19.1806 7.0943 18.3199L7.70711 17.7071C8.09763 17.3166 8.09763 16.6834 7.70711 16.2929C7.31658 15.9024 6.68342 15.9024 6.29289 16.2929L5.68009 16.9057C4.81943 15.7988 4.24382 14.4608 4.06183 13H5C5.55228 13 6 12.5523 6 12C6 11.4477 5.55228 11 5 11H4.06183C4.24382 9.53919 4.81943 8.20118 5.68009 7.0943L6.29289 7.70711C6.68342 8.09763 7.31658 8.09763 7.70711 7.70711C8.09763 7.31658 8.09763 6.68342 7.70711 6.29289ZM12 2C9.23885 2 6.73748 3.12038 4.92893 4.92893C3.12038 6.73748 2 9.23885 2 12C2 14.7611 3.12038 17.2625 4.92893 19.0711C6.73748 20.8796 9.23885 22 12 22C14.7611 22 17.2625 20.8796 19.0711 19.0711C20.8796 17.2625 22 14.7611 22 12C22 9.23885 20.8796 6.73748 19.0711 4.92893C17.2625 3.12038 14.7611 2 12 2ZM11 8V11.5858L8.29289 14.2929L9.70711 15.7071L13 12.4142V8H11Z" fill="black"/>
</svg>
