<svg width="24" height="24" viewBox="0 0 24 24" fill="none" xmlns="http://www.w3.org/2000/svg">
<path fill-rule="evenodd" clip-rule="evenodd" d="M20 12C20 7.58172 16.4183 4 12 4C11.5156 4 11.2149 4.03906 11.2149 4.03906L11.0196 2.04688C11.0196 2.04688 11.4922 2 12 2C17.5228 2 22 6.47715 22 12C22 17.5228 17.5228 22 12 22C9.26479 22 6.78442 20.9006 4.98 19.1218C4.74724 18.8923 4.52572 18.6515 4.31624 18.4003L5.85234 17.1195C6.02199 17.323 6.20156 17.5179 6.39031 17.7036C7.83518 19.1248 9.8144 20 12 20C16.4183 20 20 16.4183 20 12ZM9.67653 4.3423C9.17113 4.49542 8.68676 4.6973 8.22885 4.94257L7.28454 3.17954C7.85731 2.87275 8.46363 2.62 9.09661 2.42822L9.67653 4.3423ZM6.92522 5.81524C6.52008 6.14811 6.14818 6.52001 5.81531 6.92514L4.27 5.65549C4.68556 5.14971 5.14978 4.68549 5.65556 4.26993L6.92522 5.81524ZM4.94264 8.22877C4.69737 8.68669 4.4955 9.17106 4.34238 9.67645L2.4283 9.09654C2.62007 8.46355 2.87283 7.85723 3.17961 7.28446L4.94264 8.22877ZM4.03803 11.2143C3.98751 11.7334 3.98779 12.2748 4.03883 12.7937L2.04844 12.9895C1.98468 12.3413 1.98434 11.669 2.04744 11.0206L4.03803 11.2143ZM4.34959 14.3471C4.50593 14.8574 4.71201 15.3461 4.96229 15.8076L3.20418 16.761C2.89114 16.1838 2.63314 15.5721 2.43733 14.933L4.34959 14.3471ZM13 12.4142V8H11V11.5858L8.29291 14.2929L9.70713 15.7071L13 12.4142Z" fill="black"/>
</svg>
