<svg width="24" height="24" viewBox="0 0 24 24" fill="none" xmlns="http://www.w3.org/2000/svg">
<path fill-rule="evenodd" clip-rule="evenodd" d="M12 17.5C12 17.2239 11.7761 17 11.5 17C11.2239 17 11 17.2239 11 17.5V18.634L10.018 18.067C9.77884 17.9289 9.47304 18.0109 9.33497 18.25C9.1969 18.4891 9.27884 18.7949 9.51798 18.933L10.5 19.5L9.51798 20.067C9.27884 20.2051 9.1969 20.5109 9.33497 20.75C9.47304 20.9891 9.77884 21.0711 10.018 20.933L11 20.366V21.5C11 21.7761 11.2239 22 11.5 22C11.7761 22 12 21.7761 12 21.5V20.366L12.9821 20.933C13.2212 21.0711 13.527 20.9891 13.6651 20.75C13.8032 20.5109 13.7212 20.2051 13.4821 20.067L12.5 19.5L13.4821 18.933C13.7212 18.7949 13.8032 18.4891 13.6651 18.25C13.527 18.0109 13.2212 17.9289 12.9821 18.067L12 18.634V17.5ZM4.10557 19.5528L5.60557 16.5528L7.39443 17.4472L5.89443 20.4472C5.64744 20.9412 5.04676 21.1414 4.55279 20.8944C4.05881 20.6474 3.85858 20.0468 4.10557 19.5528ZM15.6056 19.5528L17.1056 16.5528L18.8944 17.4472L17.3944 20.4472C17.1474 20.9412 16.5468 21.1414 16.0528 20.8944C15.5588 20.6474 15.3586 20.0468 15.6056 19.5528ZM7 15C4.23858 15 2 12.7614 2 10C2 7.23857 4.23858 5 7 5C7.17058 5 7.33916 5.00854 7.50534 5.02522C8.60462 3.7831 10.2109 3 12 3C14.6176 3 16.8438 4.67628 17.6635 7.01396C17.7744 7.00471 17.8867 7 18 7C20.2091 7 22 8.79086 22 11C22 13.2091 20.2091 15 18 15H7Z" fill="black"/>
</svg>
