<svg width="24" height="24" viewBox="0 0 24 24" fill="none" xmlns="http://www.w3.org/2000/svg">
<path fill-rule="evenodd" clip-rule="evenodd" d="M9 10H2L2 11V12H9V10ZM2 16H12V14H2L2 16ZM20 20V18L4 18V20L20 20ZM7 6C5.36423 6 3.91192 6.7855 2.99971 7.99989L8.00019 8C9.65704 8 11.0002 9.34315 11.0002 11C11.0002 11.3506 10.94 11.6872 10.8295 12H11C12.6568 12 14 13.3431 14 15C14 15.3506 13.9398 15.6872 13.8293 16H18C20.2091 16 22 14.2091 22 12C22 9.79086 20.2091 8 18 8C17.8867 8 17.7744 8.00471 17.6635 8.01396C16.8438 5.67628 14.6176 4 12 4C10.2109 4 8.60462 4.7831 7.50534 6.02522C7.33916 6.00854 7.17058 6 7 6Z" fill="black"/>
</svg>
