<svg width="24" height="24" viewBox="0 0 24 24" fill="none" xmlns="http://www.w3.org/2000/svg">
<path fill-rule="evenodd" clip-rule="evenodd" d="M3.41293 3L21 20.5881L19.5871 22.0024L16.5849 19H7.5C4.46244 19 2 16.5376 2 13.5C2 11.1629 3.45698 9.16827 5.5107 8.37108C5.55326 8.26615 5.59828 8.16248 5.64571 8.06015L2 4.41421L3.41293 3ZM20.6388 17.7246L8.10028 5.18607C9.21445 4.43715 10.5559 4 12 4C15.61 4 18.5817 6.73264 18.9595 10.2422C20.7286 10.8486 22 12.5251 22 14.5C22 15.7645 21.4785 16.9071 20.6388 17.7246Z" fill="black"/>
</svg>
