<svg width="24" height="24" viewBox="0 0 24 24" fill="none" xmlns="http://www.w3.org/2000/svg">
<path fill-rule="evenodd" clip-rule="evenodd" d="M5.5107 7.37108C6.54983 4.80874 9.06253 3 12 3C15.61 3 18.5817 5.73264 18.9595 9.24222C20.7286 9.84856 22 11.5251 22 13.5C22 15.9853 19.9853 18 17.5 18H13L13.0036 11.8304L15.5858 14.4142L17 13L12.0036 8.00199L7 13L8.41421 14.4142L11.0036 11.8304L11 18H7.5C4.46244 18 2 15.5376 2 12.5C2 10.1629 3.45698 8.16827 5.5107 7.37108ZM11 18H13V22H11V18Z" fill="black"/>
</svg>
