<svg width="24" height="24" viewBox="0 0 24 24" fill="none" xmlns="http://www.w3.org/2000/svg">
<path fill-rule="evenodd" clip-rule="evenodd" d="M9 10H2V12H9V10ZM2 16H12V14H2V16ZM20 20V18H4V20H20ZM12.0002 4C10.2103 4 8.60369 4.78449 7.50552 6.0253C7.33913 6.00856 7.17054 6 7.00018 6H4.00036L4.00002 8H7.00018C7.46046 8 7.90271 8.12962 8.34718 8.23444L8.73695 7.68601C9.46355 6.66366 10.6544 6 12.0002 6C13.9342 6 15.5496 7.37356 15.9201 9.19893L16.0828 10H18.0002C19.1048 10 20.0002 10.8954 20.0002 12C20.0002 13.1046 19.1048 14 18.0002 14H14.0001V16H18.0002C20.2093 16 22.0002 14.2091 22.0002 12C22.0002 9.79086 20.2093 8 18.0002 8H17.6585C16.8347 5.66969 14.6133 4 12.0002 4Z" fill="black"/>
</svg>
