<svg width="24" height="24" viewBox="0 0 24 24" fill="none" xmlns="http://www.w3.org/2000/svg">
<path fill-rule="evenodd" clip-rule="evenodd" d="M8.10557 16.5528L6.10557 20.5528C5.85858 21.0468 6.05881 21.6474 6.55279 21.8944C7.04676 22.1414 7.64744 21.9412 7.89443 21.4472L9.89443 17.4472L8.10557 16.5528ZM15.1056 16.5528L13.1056 20.5528C12.8586 21.0468 13.0588 21.6474 13.5528 21.8944C14.0468 22.1414 14.6474 21.9412 14.8944 21.4472L16.8944 17.4472L15.1056 16.5528ZM6 18C6 18.5523 5.55228 19 5 19C4.44772 19 4 18.5523 4 18C4 17.4477 4.44772 17 5 17C5.55228 17 6 17.4477 6 18ZM7 15C4.23858 15 2 12.7614 2 10C2 7.23857 4.23858 5 7 5C7.17058 5 7.33916 5.00854 7.50534 5.02522C8.60462 3.7831 10.2109 3 12 3C14.6176 3 16.8438 4.67628 17.6635 7.01396C17.7744 7.00471 17.8867 7 18 7C20.2091 7 22 8.79086 22 11C22 13.2091 20.2091 15 18 15H7ZM12 19C12.5523 19 13 18.5523 13 18C13 17.4477 12.5523 17 12 17C11.4477 17 11 17.4477 11 18C11 18.5523 11.4477 19 12 19ZM20 18C20 18.5523 19.5523 19 19 19C18.4477 19 18 18.5523 18 18C18 17.4477 18.4477 17 19 17C19.5523 17 20 17.4477 20 18Z" fill="black"/>
</svg>
