<svg width="24" height="24" viewBox="0 0 24 24" fill="none" xmlns="http://www.w3.org/2000/svg">
<path fill-rule="evenodd" clip-rule="evenodd" d="M6.57152 16.6286L5.57152 19.1286C5.36641 19.6414 5.61583 20.2233 6.12861 20.4285C6.64139 20.6336 7.22336 20.3842 7.42848 19.8714L8.42848 17.3714L6.57152 16.6286ZM15.5715 16.6286L14.5715 19.1286C14.3664 19.6414 14.6158 20.2233 15.1286 20.4285C15.6414 20.6336 16.2234 20.3842 16.4285 19.8714L17.4285 17.3714L15.5715 16.6286ZM11.0715 18.1286L10.0715 20.6286C9.86641 21.1414 10.1158 21.7233 10.6286 21.9285C11.1414 22.1336 11.7234 21.8842 11.9285 21.3714L12.9285 18.8714L11.0715 18.1286ZM2 9.99998C2 12.7614 4.23858 15 7 15L18 15C20.2091 15 22 13.2091 22 11C22 8.79084 20.2091 6.99998 18 6.99998C17.8867 6.99998 17.7744 7.00469 17.6635 7.01394C16.8438 4.67626 14.6176 2.99998 12 2.99998C10.2109 2.99998 8.60462 3.78307 7.50534 5.0252C7.33916 5.00852 7.17058 4.99998 7 4.99998C4.23858 4.99998 2 7.23855 2 9.99998Z" fill="black"/>
</svg>
