<svg width="24" height="24" viewBox="0 0 24 24" fill="none" xmlns="http://www.w3.org/2000/svg">
<path fill-rule="evenodd" clip-rule="evenodd" d="M5.6 18C5.9924 18 6.18191 17.6951 6.39572 17.4057C6.98168 16.6115 7.77268 16 8.8 16C9.84488 16 10.5881 16.5701 11.181 17.3741C11.3901 17.6576 11.6047 18 12 18C12.4064 18 12.5996 17.6716 12.819 17.3741C13.4119 16.5701 14.1551 16 15.2 16C16.2449 16 16.9881 16.5701 17.581 17.3741C17.7901 17.6576 18.0047 18 18.4 18C18.6204 18 18.9428 17.7146 19 17.5C18.9995 17.5032 19 17.4775 19 17.5H21C21 18.807 19.669 20 18.4 20C17.3551 20 16.6119 19.4299 16.019 18.6258C15.7996 18.3284 15.6064 18 15.2 18C14.8047 18 14.5901 18.3424 14.381 18.6258C13.7881 19.4299 13.0449 20 12 20C10.9727 20 10.1817 19.3884 9.59573 18.5942C9.38191 18.3049 9.1924 18 8.8 18C8.4047 18 8.1901 18.3424 7.98097 18.6258C7.38815 19.4299 6.64488 20 5.6 20C4.33103 20 3 18.807 3 17.5H5C5 17.4941 5.255 18 5.6 18ZM15 14C13.8744 14 12.8357 14.3719 12 14.9996C11.1643 14.3719 10.1256 14 9 14C7.50935 14 6.17105 14.6523 5.255 15.6871C3.35404 14.979 2 13.1477 2 11C2 8.23857 4.23858 6 7 6C7.17058 6 7.33916 6.00854 7.50534 6.02522C8.60462 4.7831 10.2109 4 12 4C14.6176 4 16.8438 5.67628 17.6635 8.01396C17.7744 8.00471 17.8867 8 18 8C20.2091 8 22 9.79086 22 12C22 13.8931 20.6849 15.479 18.9185 15.894C18.0026 14.7401 16.5877 14 15 14Z" fill="black"/>
</svg>
