<svg width="24" height="24" viewBox="0 0 24 24" fill="none" xmlns="http://www.w3.org/2000/svg">
<path fill-rule="evenodd" clip-rule="evenodd" d="M4.88686 7.33031C6.21818 4.75802 8.90525 3 12.0035 3C15.6123 3 18.6635 5.38544 19.6638 8.66426C19.0752 8.49251 18.4526 8.40039 17.8085 8.40039C14.1602 8.40039 11.2028 11.3553 11.2028 15.0004C11.2028 15.2133 11.2128 15.4238 11.2326 15.6315C11.5172 12.9168 13.8151 10.8008 16.6076 10.8008C19.469 10.8008 21.8111 13.0226 21.9999 15.8337C21.829 18.1632 19.8833 20 17.5083 20H7.4996C4.53996 20 2.12585 17.6663 2 14.7402C2.13675 11.2157 5.03965 8.40039 8.60067 8.40039C9.18454 8.40039 9.75072 8.47608 10.2899 8.61817C9.16482 7.7302 7.74365 7.2002 6.19857 7.2002C5.74946 7.2002 5.31081 7.24498 4.88686 7.33031Z" fill="black"/>
</svg>
