<svg width="24" height="24" viewBox="0 0 24 24" fill="none" xmlns="http://www.w3.org/2000/svg">
<path fill-rule="evenodd" clip-rule="evenodd" d="M12 2C10.2101 2 8.60351 2.78449 7.50534 4.0253C7.33895 4.00856 7.17036 4 7 4C4.23858 4 2 6.23858 2 9C2 11.7614 4.23858 14 7 14H11V18.1716L8.91421 16.0858L7.5 17.5L12 22L16.5 17.5L15.0858 16.0858L13 18.1716V14H18C20.2091 14 22 12.2091 22 10C22 7.79086 20.2091 6 18 6H17.6583C16.8345 3.66969 14.6131 2 12 2ZM13 12H18C19.1046 12 20 11.1046 20 10C20 8.89543 19.1046 8 18 8H16.0826L15.92 7.19893C15.5494 5.37356 13.934 4 12 4C10.6542 4 9.46337 4.66366 8.73677 5.68601L8.34699 6.23444L7.69213 6.08C7.47092 6.02783 7.23935 6 7 6C5.34315 6 4 7.34315 4 9C4 10.6569 5.34315 12 7 12H11V8H13V12Z" fill="black"/>
</svg>
