<svg width="24" height="24" viewBox="0 0 24 24" fill="none" xmlns="http://www.w3.org/2000/svg">
<path fill-rule="evenodd" clip-rule="evenodd" d="M7.50534 8.0253C8.60351 6.78449 10.2101 6 12 6C14.6131 6 16.8345 7.66969 17.6583 10H18C20.2091 10 22 11.7909 22 14C22 16.2091 20.2091 18 18 18H7C4.23858 18 2 15.7614 2 13C2 10.2386 4.23858 8 7 8C7.17036 8 7.33895 8.00856 7.50534 8.0253ZM12 8C10.6542 8 9.46337 8.66366 8.73677 9.68601L8.34699 10.2344L7.69213 10.08C7.47092 10.0278 7.23935 10 7 10C5.34315 10 4 11.3431 4 13C4 14.6569 5.34315 16 7 16H18C19.1046 16 20 15.1046 20 14C20 12.8954 19.1046 12 18 12H16.0826L15.92 11.1989C15.5494 9.37356 13.934 8 12 8Z" fill="black"/>
</svg>
