<svg width="24" height="24" viewBox="0 0 24 24" fill="none" xmlns="http://www.w3.org/2000/svg">
<path fill-rule="evenodd" clip-rule="evenodd" d="M12 17C12.2761 17 12.5 17.2239 12.5 17.5V18.634L13.482 18.067C13.7212 17.9289 14.027 18.0109 14.1651 18.25C14.3031 18.4891 14.2212 18.7949 13.982 18.933L13 19.5L13.982 20.067C14.2212 20.2051 14.3031 20.5109 14.1651 20.75C14.027 20.9891 13.7212 21.0711 13.482 20.933L12.5 20.366V21.5C12.5 21.7761 12.2761 22 12 22C11.7238 22 11.5 21.7761 11.5 21.5V20.366L10.5179 20.933C10.2788 21.0711 9.973 20.9891 9.83493 20.75C9.69686 20.5109 9.7788 20.2051 10.0179 20.067L11 19.5L10.0179 18.933C9.7788 18.7949 9.69686 18.4891 9.83493 18.25C9.973 18.0109 10.2788 17.9289 10.5179 18.067L11.5 18.634V17.5C11.5 17.2239 11.7238 17 12 17ZM6.49996 16.5C6.49996 16.2239 6.2761 16 5.99996 16C5.72382 16 5.49996 16.2239 5.49996 16.5L5.49996 17.634L4.51794 17.067C4.2788 16.9289 3.973 17.0109 3.83493 17.25C3.69686 17.4891 3.7788 17.7949 4.01794 17.933L5 18.5L4.01794 19.067C3.7788 19.2051 3.69686 19.5109 3.83493 19.75C3.973 19.9891 4.2788 20.0711 4.51794 19.933L5.49996 19.366V20.5C5.49996 20.7761 5.72382 21 5.99996 21C6.2761 21 6.49996 20.7761 6.49996 20.5V19.366L7.48205 19.933C7.72119 20.0711 8.02699 19.9891 8.16506 19.75C8.30313 19.5109 8.22119 19.2051 7.98205 19.067L7 18.5L7.98205 17.933C8.22119 17.7949 8.30313 17.4891 8.16506 17.25C8.02699 17.0109 7.72119 16.9289 7.48205 17.067L6.49996 17.634V16.5ZM2 10C2 12.7614 4.23858 15 7 15L18 15C20.2091 15 22 13.2091 22 11C22 8.79086 20.2091 7 18 7C17.8867 7 17.7744 7.00471 17.6635 7.01396C16.8438 4.67628 14.6176 3 12 3C10.2109 3 8.60462 3.7831 7.50534 5.02522C7.33916 5.00854 7.17058 5 7 5C4.23858 5 2 7.23857 2 10ZM18.5 16.5C18.5 16.2239 18.2761 16 18 16C17.7238 16 17.5 16.2239 17.5 16.5V17.634L16.5179 17.067C16.2788 16.9289 15.973 17.0109 15.8349 17.25C15.6969 17.4891 15.7788 17.7949 16.0179 17.933L17 18.5L16.0179 19.067C15.7788 19.2051 15.6969 19.5109 15.8349 19.75C15.973 19.9891 16.2788 20.0711 16.5179 19.933L17.5 19.366V20.5C17.5 20.7761 17.7238 21 18 21C18.2761 21 18.5 20.7761 18.5 20.5V19.366L19.482 19.933C19.7212 20.0711 20.027 19.9891 20.1651 19.75C20.3031 19.5109 20.2212 19.2051 19.982 19.067L19 18.5L19.982 17.933C20.2212 17.7949 20.3031 17.4891 20.1651 17.25C20.027 17.0109 19.7212 16.9289 19.482 17.067L18.5 17.634V16.5Z" fill="black"/>
</svg>
