<svg width="24" height="24" viewBox="0 0 24 24" fill="none" xmlns="http://www.w3.org/2000/svg">
<path fill-rule="evenodd" clip-rule="evenodd" d="M7 20C4.23858 20 2 17.7614 2 15C2 12.2386 4.23858 10 7 10C7.17058 10 7.33916 10.0085 7.50534 10.0252C8.3984 9.01612 9.62604 8.30997 11.0145 8.08054C11.1262 6.53431 11.8751 5.16508 13 4.23368C14.3546 3.11207 15.8364 3.00715 17.5 3C17.1126 3.89092 16.6128 4.77818 16.6128 5.77431C16.6128 7.71618 18.187 9.29037 20.1289 9.29037H22.0064C21.6087 10.5745 21.2042 11.7075 20.1548 12.6294C21.2645 13.3404 22 14.5843 22 16C22 18.2091 20.2091 20 18 20H7ZM13 8.48395C13 7.24127 13.6451 6.14856 14.6185 5.5232C14.6147 5.60646 14.6128 5.69018 14.6128 5.77431C14.6128 8.37172 16.4081 10.5498 18.8255 11.1355C18.2073 11.6743 17.3993 12 16.5161 12C14.5742 12 13 10.4258 13 8.48395Z" fill="black"/>
</svg>
