<svg width="24" height="24" viewBox="0 0 24 24" fill="none" xmlns="http://www.w3.org/2000/svg">
<path fill-rule="evenodd" clip-rule="evenodd" d="M8.7992 6.60058C9.53066 5.62676 10.692 5 12 5C13.639 5 15.05 5.98593 15.668 7.40117L15.9232 7.98563L16.5607 8.00072C17.9131 8.03272 19 9.13958 19 10.5C19 11.0754 18.8062 11.6053 18.4787 12.0284C18.212 11.9965 17.933 11.9915 17.6635 12.014C16.8438 9.67628 14.6176 8 12 8C10.2109 8 8.60462 8.7831 7.50534 10.0252C6.6641 9.9408 5.80412 10.0703 5.02691 10.4044C5.00917 10.2723 5 10.1373 5 10C5 8.34324 6.343 7.00015 7.99972 7L8.49922 6.99996L8.7992 6.60058ZM3.28152 11.6573C3.09912 11.1381 3 10.58 3 10C3 7.40513 4.97668 5.27194 7.50642 5.02405C8.60448 3.78402 10.2108 3 12 3C14.2465 3 16.2029 4.23454 17.2308 6.05909C19.3687 6.40833 21 8.26354 21 10.5C21 11.3336 20.773 12.1143 20.3782 12.7835C21.3621 13.5122 22 14.6816 22 16C22 18.2091 20.2091 20 18 20H7C4.23858 20 2 17.7614 2 15C2 13.7149 2.48482 12.543 3.28152 11.6573Z" fill="black"/>
</svg>
