<svg width="24" height="24" viewBox="0 0 24 24" fill="none" xmlns="http://www.w3.org/2000/svg">
<path fill-rule="evenodd" clip-rule="evenodd" d="M5.10557 16.5528L3.10557 20.5528C2.85858 21.0468 3.05881 21.6474 3.55279 21.8944C4.04676 22.1414 4.64744 21.9412 4.89443 21.4472L6.89443 17.4472L5.10557 16.5528ZM9.10557 16.5528L7.10557 20.5528C6.85858 21.0468 7.05881 21.6474 7.55279 21.8944C8.04676 22.1414 8.64744 21.9412 8.89443 21.4472L10.8944 17.4472L9.10557 16.5528ZM13.1056 16.5528L11.1056 20.5528C10.8586 21.0468 11.0588 21.6474 11.5528 21.8944C12.0468 22.1414 12.6474 21.9412 12.8944 21.4472L14.8944 17.4472L13.1056 16.5528ZM17.1056 16.5528L15.1056 20.5528C14.8586 21.0468 15.0588 21.6474 15.5528 21.8944C16.0468 22.1414 16.6474 21.9412 16.8944 21.4472L18.8944 17.4472L17.1056 16.5528ZM12 3C10.2101 3 8.60351 3.78449 7.50534 5.0253C7.33895 5.00856 7.17036 5 7 5C4.23858 5 2 7.23858 2 10C2 12.7614 4.23858 15 7 15H18C20.2091 15 22 13.2091 22 11C22 8.79086 20.2091 7 18 7H17.6583C16.8345 4.66969 14.6131 3 12 3ZM8.73677 6.68601C9.46337 5.66366 10.6542 5 12 5C13.934 5 15.5494 6.37356 15.92 8.19893L16.0826 9H18C19.1046 9 20 9.89543 20 11C20 12.1046 19.1046 13 18 13H7C5.34315 13 4 11.6569 4 10C4 8.34315 5.34315 7 7 7C7.23935 7 7.47092 7.02783 7.69213 7.08L8.34699 7.23444L8.73677 6.68601Z" fill="black"/>
</svg>
