<svg width="24" height="24" viewBox="0 0 24 24" fill="none" xmlns="http://www.w3.org/2000/svg">
<path fill-rule="evenodd" clip-rule="evenodd" d="M8.7992 6.60058C9.53066 5.62676 10.692 5 12 5C13.639 5 15.05 5.98593 15.668 7.40117L15.9232 7.98563L16.5607 8.00072C17.9131 8.03272 19 9.13958 19 10.5C19 11.0754 18.8062 11.6053 18.4787 12.0284C18.206 11.9958 17.9324 12 17.6583 12C16.8345 9.66969 14.6131 8 12 8C10.2101 8 8.60351 8.78449 7.50534 10.0253C7.33895 10.0086 7.17036 10 7 10C6.29929 10 5.63225 10.1441 5.02691 10.4044C5.00917 10.2723 5 10.1373 5 10C5 8.34324 6.343 7.00015 7.99972 7L8.49922 6.99996L8.7992 6.60058ZM3.28152 11.6573C3.09912 11.1381 3 10.58 3 10C3 7.40513 4.97668 5.27194 7.50642 5.02405C8.60448 3.78402 10.2108 3 12 3C14.2465 3 16.2029 4.23454 17.2308 6.05909C19.3687 6.40833 21 8.26354 21 10.5C21 11.3336 20.773 12.1143 20.3782 12.7835C21.3621 13.5121 22 14.6816 22 16C22 18.2091 20.2091 20 18 20H7C4.23858 20 2 17.7614 2 15C2 13.7149 2.48482 12.5431 3.28152 11.6573ZM8.73677 11.686C9.46337 10.6637 10.6542 10 12 10C13.934 10 15.5494 11.3736 15.92 13.1989L16.0826 14H18C19.1046 14 20 14.8954 20 16C20 17.1046 19.1046 18 18 18H7C5.34315 18 4 16.6569 4 15C4 13.3431 5.34315 12 7 12C7.46028 12 7.90253 12.1296 8.34699 12.2344L8.73677 11.686Z" fill="black"/>
</svg>
