<svg width="24" height="24" viewBox="0 0 24 24" fill="none" xmlns="http://www.w3.org/2000/svg">
<path fill-rule="evenodd" clip-rule="evenodd" d="M4.03692 10.2269C2.79906 11.2314 2.00621 12.7629 2.00004 14.4798L2 14.5C2 17.5376 4.46243 20 7.5 20H17.5C19.9853 20 22 17.9853 22 15.5C22 15.0169 21.9239 14.5517 21.7831 14.1157C21.4647 13.1301 20.8156 12.2931 19.9666 11.7356C19.9887 11.4932 20 11.2478 20 11C20 6.58172 16.4183 3 12 3C7.8425 3 4.42604 6.17108 4.03692 10.2269ZM17.9999 11.0275C18 11.0183 18 11.0092 18 11C18 7.68629 15.3137 5 12 5C9.3385 5 7.08151 6.73315 6.29636 9.13211C6.68374 9.04562 7.08655 9 7.5 9C8.14104 9 8.75854 9.11009 9.33325 9.31322C10.1098 9.5877 10.8052 10.0309 11.3759 10.5978L9.96645 12.0167C9.60187 11.6546 9.159 11.3729 8.66675 11.1989C8.30313 11.0704 7.91086 11 7.5 11C5.63606 11 4.11242 12.457 4.00594 14.2943C4.002 14.3624 4 14.4309 4 14.5C4 16.433 5.567 18 7.5 18H17.5C18.8807 18 20 16.8807 20 15.5C20 15.2429 19.9612 14.9947 19.889 14.7611C19.5739 13.7411 18.6235 13 17.5 13C16.1193 13 15 14.1193 15 15.5H13C13 13.0147 15.0147 11 17.5 11C17.669 11 17.8358 11.0093 17.9999 11.0275Z" fill="black"/>
</svg>
