<svg width="24" height="24" viewBox="0 0 24 24" fill="none" xmlns="http://www.w3.org/2000/svg">
<path fill-rule="evenodd" clip-rule="evenodd" d="M5.10557 16.5528L4.10557 18.5528C3.85858 19.0468 4.05881 19.6475 4.55279 19.8945C5.04676 20.1414 5.64744 19.9412 5.89443 19.4472L6.89443 17.4472L5.10557 16.5528ZM10.8944 17.4472L9.10557 16.5528L7.10557 20.5528C6.85858 21.0468 7.05881 21.6475 7.55279 21.8945C8.04676 22.1414 8.64744 21.9412 8.89443 21.4472L10.8944 17.4472ZM13.1056 16.5528L12.1056 18.5528C11.8586 19.0468 12.0588 19.6475 12.5528 19.8945C13.0468 20.1414 13.6474 19.9412 13.8944 19.4472L14.8944 17.4472L13.1056 16.5528ZM18.8944 17.4472L17.1056 16.5528L15.1056 20.5528C14.8586 21.0468 15.0588 21.6475 15.5528 21.8945C16.0468 22.1414 16.6474 21.9412 16.8944 21.4472L18.8944 17.4472ZM2 10C2 12.7615 4.23858 15 7 15L18 15C20.2091 15 22 13.2092 22 11C22 8.79089 20.2091 7.00002 18 7.00002C17.8867 7.00002 17.7744 7.00474 17.6635 7.01399C16.8438 4.67631 14.6176 3.00002 12 3.00002C10.2109 3.00002 8.60462 3.78312 7.50534 5.02525C7.33916 5.00857 7.17058 5.00002 7 5.00002C4.23858 5.00002 2 7.2386 2 10Z" fill="black"/>
</svg>
