<svg width="24" height="24" viewBox="0 0 24 24" fill="none" xmlns="http://www.w3.org/2000/svg">
<path fill-rule="evenodd" clip-rule="evenodd" d="M12 3C7.84247 3 4.42599 6.17113 4.03691 10.227C2.79572 11.2342 2 12.774 2 14.5C2 17.5376 4.46243 20 7.5 20H17.5C19.9853 20 22 17.9853 22 15.5C22 13.9242 21.1902 12.5392 19.9665 11.7358C19.9887 11.4933 20 11.2479 20 11C20 6.58172 16.4183 3 12 3ZM11.9996 8.00374L8 12L9.41421 13.4142L10.9996 11.8322V16H12.9996V11.8322L14.5858 13.4142L16 12L11.9996 8.00374Z" fill="black"/>
</svg>
