<svg width="24" height="24" viewBox="0 0 24 24" fill="none" xmlns="http://www.w3.org/2000/svg">
<path fill-rule="evenodd" clip-rule="evenodd" d="M12 3C9.06253 3 6.54983 4.80874 5.5107 7.37108C3.45698 8.16827 2 10.1629 2 12.5C2 15.5376 4.46244 18 7.5 18H9V16H7.5C5.56701 16 4 14.433 4 12.5C4 10.8957 5.08019 9.54119 6.55481 9.12885L7.07332 8.98387L7.23775 8.4712C7.88394 6.45639 9.77321 5 12 5C14.7614 5 17 7.23857 17 10L16.9999 10.0303L16.9954 10.902L17.8583 11.0254C19.069 11.1985 20 12.2414 20 13.5C20 14.8807 18.8807 16 17.5 16H15V18H17.5C19.9853 18 22 15.9853 22 13.5C22 11.5251 20.7286 9.84856 18.9595 9.24222C18.5817 5.73264 15.61 3 12 3ZM12 8L7.5 12.5L8.91421 13.9142L11 11.8284V22H13V11.8284L15.0858 13.9142L16.5 12.5L12 8Z" fill="black"/>
</svg>
