<svg width="24" height="24" viewBox="0 0 24 24" fill="none" xmlns="http://www.w3.org/2000/svg">
<path fill-rule="evenodd" clip-rule="evenodd" d="M18.0487 11L22 10.5554C21.951 10.1393 21.8738 9.72159 21.7674 9.30426C21.6609 8.88694 21.5283 8.4827 21.3716 8.09281L17.6693 9.51289C17.7632 9.74672 17.8434 9.99068 17.9081 10.2445C17.9729 10.4983 18.0193 10.7505 18.0487 11ZM15.8358 7.09386L18.3096 4.05058C17.6293 3.52262 16.8808 3.08311 16.0843 2.74407L14.4957 6.30706C14.9753 6.51119 15.4263 6.77599 15.8358 7.09386ZM11.4491 5.86093L10.9942 2C10.5683 2.04791 10.1408 2.12327 9.71371 2.22732C9.28662 2.33137 8.87293 2.46096 8.47392 2.614L9.92723 6.2317C10.1665 6.13992 10.4162 6.06159 10.6759 5.99831C10.9357 5.93503 11.1938 5.88966 11.4491 5.86093ZM7.45159 8.0232L4.33709 5.60601C3.79677 6.27072 3.34698 7.00219 3 7.78041L6.64637 9.33266C6.85528 8.86411 7.12628 8.42341 7.45159 8.0232ZM16.9984 12.1264C16.9995 12.0844 17 12.0423 17 12C17 9.23859 14.7614 7 12 7C9.9433 7 8.17664 8.24179 7.40887 10.0165C7.27405 10.0056 7.1377 10 7 10C4.23859 10 2 12.2386 2 15C2 17.7614 4.23859 20 7 20H18C20.2092 20 22 18.2091 22 16C22 13.7909 20.2092 12 18 12C17.6541 12 17.3185 12.0439 16.9984 12.1264Z" fill="black"/>
</svg>
