<svg width="24" height="24" viewBox="0 0 24 24" fill="none" xmlns="http://www.w3.org/2000/svg">
<path fill-rule="evenodd" clip-rule="evenodd" d="M4.10557 20.5528L6.10557 16.5528L7.89443 17.4472L5.89443 21.4472C5.64744 21.9412 5.04676 22.1414 4.55279 21.8944C4.05881 21.6474 3.85858 21.0468 4.10557 20.5528ZM15.1056 20.5528L17.1056 16.5528L18.8944 17.4472L16.8944 21.4472C16.6474 21.9412 16.0468 22.1414 15.5528 21.8944C15.0588 21.6474 14.8586 21.0468 15.1056 20.5528ZM7.50534 5.0253C8.60351 3.78449 10.2101 3 12 3C14.6131 3 16.8345 4.66969 17.6583 7H18C20.2091 7 22 8.79086 22 11C22 13.2091 20.2091 15 18 15H7C4.23858 15 2 12.7614 2 10C2 7.23858 4.23858 5 7 5C7.17036 5 7.33895 5.00856 7.50534 5.0253ZM12 5C10.6542 5 9.46337 5.66366 8.73677 6.68601L8.34699 7.23444L7.69213 7.08C7.47092 7.02783 7.23935 7 7 7C5.34315 7 4 8.34315 4 10C4 11.6569 5.34315 13 7 13H18C19.1046 13 20 12.1046 20 11C20 9.89543 19.1046 9 18 9H16.0826L15.92 8.19893C15.5494 6.37356 13.934 5 12 5ZM12.5 16H11.5L9 20H11L10.5 22H11.5L14 18H12L12.5 16Z" fill="black"/>
</svg>
