<svg width="24" height="24" viewBox="0 0 24 24" fill="none" xmlns="http://www.w3.org/2000/svg">
<path fill-rule="evenodd" clip-rule="evenodd" d="M4.10557 20.5528L6.10557 16.5528L7.89443 17.4472L5.89443 21.4472C5.64744 21.9412 5.04676 22.1414 4.55279 21.8945C4.05881 21.6475 3.85858 21.0468 4.10557 20.5528ZM15.1056 20.5528L17.1056 16.5528L18.8944 17.4472L16.8944 21.4472C16.6474 21.9412 16.0468 22.1414 15.5528 21.8945C15.0588 21.6475 14.8586 21.0468 15.1056 20.5528ZM7 15C4.23858 15 2 12.7615 2 10C2 7.2386 4.23858 5.00002 7 5.00002C7.17058 5.00002 7.33916 5.00857 7.50534 5.02525C8.60462 3.78312 10.2109 3.00002 12 3.00002C14.6176 3.00002 16.8438 4.67631 17.6635 7.01399C17.7744 7.00474 17.8867 7.00002 18 7.00002C20.2091 7.00002 22 8.79089 22 11C22 13.2092 20.2091 15 18 15L7 15ZM12.5 16H11.5L9 20H11L10.5 22H11.5L14 18H12L12.5 16Z" fill="black"/>
</svg>
