<svg width="24" height="24" viewBox="0 0 24 24" fill="none" xmlns="http://www.w3.org/2000/svg">
<path fill-rule="evenodd" clip-rule="evenodd" d="M19.1139 18.7019L21 20.5881L19.5871 22.0024L16.5849 19H7.5C4.46244 19 2 16.5376 2 13.5C2 11.1629 3.45698 9.16827 5.5107 8.37108C5.55326 8.26615 5.59828 8.16248 5.64571 8.06015L2 4.41421L3.41293 3L6.76541 6.35269C8.04726 4.90967 9.91682 4 12 4C15.61 4 18.5817 6.73264 18.9595 10.2422C20.7286 10.8486 22 12.5251 22 14.5C22 16.4165 20.8019 18.0532 19.1139 18.7019ZM17.4121 17H17.5C18.8807 17 20 15.8807 20 14.5C20 13.2414 19.069 12.1985 17.8583 12.0254L16.9954 11.902L16.9999 11.0303L17 11C17 8.23857 14.7614 6 12 6C10.4706 6 9.10037 6.68703 8.18278 7.77015L17.4121 17ZM7.19377 9.6083L7.07332 9.98387L6.55481 10.1289C5.08019 10.5412 4 11.8957 4 13.5C4 15.433 5.56701 17 7.5 17H14.585L7.19377 9.6083Z" fill="black"/>
</svg>
