<svg width="24" height="24" viewBox="0 0 24 24" fill="none" xmlns="http://www.w3.org/2000/svg">
<path fill-rule="evenodd" clip-rule="evenodd" d="M7.50534 4.0253C8.60351 2.78449 10.2101 2 12 2C14.6131 2 16.8345 3.66969 17.6583 6H18C20.2091 6 22 7.79086 22 10C22 12.2091 20.2091 14 18 14H13V8H11V14H7C4.23858 14 2 11.7614 2 9C2 6.23858 4.23858 4 7 4C7.17036 4 7.33895 4.00856 7.50534 4.0253ZM11 14V18.1716L8.91421 16.0858L7.5 17.5L12 22L16.5 17.5L15.0858 16.0858L13 18.1716V14H11Z" fill="black"/>
</svg>
