<svg width="24" height="24" viewBox="0 0 24 24" fill="none" xmlns="http://www.w3.org/2000/svg">
<path fill-rule="evenodd" clip-rule="evenodd" d="M5.6 18C5.81019 18 5.90527 17.9477 5.97847 17.892C6.46604 17.5206 6.71054 16.8972 7.20971 16.517C7.62886 16.1977 8.14907 16 8.8 16C9.45093 16 9.97114 16.1977 10.3903 16.517C10.8909 16.8983 11.1333 17.5201 11.6215 17.892C11.6947 17.9477 11.7898 18 12 18C12.2102 18 12.3053 17.9477 12.3785 17.892C12.866 17.5206 13.1105 16.8972 13.6097 16.517C14.0289 16.1977 14.5491 16 15.2 16C15.8509 16 16.3711 16.1977 16.7903 16.517C17.2909 16.8983 17.5333 17.5201 18.0215 17.892C18.0947 17.9477 18.1898 18 18.4 18C18.6204 18 18.9428 17.7146 19 17.5H21C21 18.1277 20.6437 18.7366 20.2577 19.1445C19.8484 19.5769 19.2032 20 18.4 20C17.7491 20 17.2289 19.8023 16.8097 19.483C16.3105 19.1028 16.066 18.4794 15.5785 18.108C15.5053 18.0523 15.4102 18 15.2 18C14.9898 18 14.8947 18.0523 14.8215 18.108C14.3333 18.4799 14.0909 19.1017 13.5903 19.483C13.1711 19.8023 12.6509 20 12 20C11.3491 20 10.8289 19.8023 10.4097 19.483C9.90907 19.1017 9.66673 18.4799 9.17847 18.108C9.10527 18.0523 9.01019 18 8.8 18C8.58981 18 8.49473 18.0523 8.42153 18.108C7.93327 18.4799 7.69093 19.1017 7.19029 19.483C6.77114 19.8023 6.25093 20 5.6 20C4.33103 20 3 18.8071 3 17.5H5C5.13328 17.7019 5.32502 18 5.6 18ZM12 3C10.2101 3 8.60351 3.78449 7.50534 5.0253C7.33895 5.00856 7.17036 5 7 5C4.23858 5 2 7.23858 2 10H4C4 8.34315 5.34315 7 7 7C7.46028 7 7.90253 7.12962 8.34699 7.23444L8.73677 6.68601C9.46337 5.66366 10.6542 5 12 5C13.934 5 15.5494 6.37356 15.92 8.19893L16.0826 9H18C19.1046 9 20 9.89543 20 11C20 12.0661 19.1658 12.9374 18.1146 12.9968C17.9624 12.9846 17.884 12.9395 17.8215 12.892C17.3333 12.5201 17.0909 11.8983 16.5903 11.517C16.1711 11.1977 15.6509 11 15 11C14.3491 11 13.8289 11.1977 13.4097 11.517C12.9091 11.8983 12.6667 12.5201 12.1785 12.892C11.9763 13.0459 11.6237 13.0459 11.4215 12.892C10.9333 12.5201 10.6909 11.8983 10.1903 11.517C9.77114 11.1977 9.25093 11 8.6 11C7.79681 11 7.15156 11.4231 6.7423 11.8555C6.35633 12.2634 6 12.8723 6 13.5C6.20997 13.5 7.99759 13.5385 7.99759 13.5385C8.00078 13.5265 8.07131 13.3609 8.19496 13.2302C8.36479 13.0508 8.51953 13 8.6 13C8.81019 13 8.90527 13.0523 8.97847 13.108C9.46672 13.4799 9.70907 14.1017 10.2097 14.483C10.6289 14.8023 11.1491 15 11.8 15C12.4509 15 12.9711 14.8023 13.3903 14.483C13.8909 14.1017 14.1333 13.4799 14.6215 13.108C14.6947 13.0523 14.7898 13 15 13C15.2102 13 15.3053 13.0523 15.3785 13.108C15.8667 13.4799 16.1091 14.1017 16.6097 14.483C17.0681 14.8322 17.6291 15 18.2 15V14.9951C20.3162 14.8909 22 13.1421 22 11C22 8.79086 20.2091 7 18 7H17.6583C16.8345 4.66969 14.6131 3 12 3Z" fill="black"/>
</svg>
