<svg width="24" height="24" viewBox="0 0 24 24" fill="none" xmlns="http://www.w3.org/2000/svg">
<path fill-rule="evenodd" clip-rule="evenodd" d="M5.6 19C6.00641 19 6.19959 19.3284 6.41904 19.6259C7.01185 20.4299 7.75512 21 8.8 21C9.86594 21 10.6023 20.4102 11.2043 19.5943C11.4181 19.3049 11.6076 19 12 19C12.3924 19 12.5819 19.3049 12.7957 19.5943C13.3977 20.4102 14.1341 21 15.2 21C16.2449 21 16.9881 20.4299 17.581 19.6259C17.7901 19.3424 18.0047 19 18.4 19C18.6744 19 18.8676 19.2977 19 19.5H21C21 18.8723 20.6437 18.2634 20.2577 17.8555C19.8484 17.4231 19.2032 17 18.4 17C17.3551 17 16.6119 17.5701 16.019 18.3741C15.7996 18.6716 15.6064 19 15.2 19C14.8047 19 14.5901 18.6576 14.381 18.3741C13.7881 17.5701 13.0449 17 12 17C10.9727 17 10.1817 17.6116 9.59573 18.4057C9.38191 18.6951 9.1924 19 8.8 19C8.4047 19 8.1901 18.6576 7.98097 18.3741C7.38815 17.5701 6.64488 17 5.6 17C4.33103 17 3 18.1929 3 19.5H5C5 19.5 5.19359 19 5.6 19ZM2 10C2 12.7614 4.23858 15 7 15L18 15C20.2091 15 22 13.2091 22 11C22 8.79086 20.2091 7 18 7C17.8867 7 17.7744 7.00471 17.6635 7.01396C16.8438 4.67628 14.6176 3 12 3C10.2109 3 8.60462 3.7831 7.50534 5.02522C7.33916 5.00854 7.17058 5 7 5C4.23858 5 2 7.23857 2 10Z" fill="black"/>
</svg>
