<svg width="24" height="24" viewBox="0 0 24 24" fill="none" xmlns="http://www.w3.org/2000/svg">
<path fill-rule="evenodd" clip-rule="evenodd" d="M12.5 18L13 16H12L9.5 20H11.5L11 22H12L14.5 18H12.5ZM12 3C10.2101 3 8.60351 3.78449 7.50534 5.0253C7.33895 5.00856 7.17036 5 7 5C4.23858 5 2 7.23858 2 10C2 12.7614 4.23858 15 7 15H18C20.2091 15 22 13.2091 22 11C22 8.79086 20.2091 7 18 7H17.6583C16.8345 4.66969 14.6131 3 12 3ZM8.73677 6.68601C9.46337 5.66366 10.6542 5 12 5C13.934 5 15.5494 6.37356 15.92 8.19893L16.0826 9H18C19.1046 9 20 9.89543 20 11C20 12.1046 19.1046 13 18 13H7C5.34315 13 4 11.6569 4 10C4 8.34315 5.34315 7 7 7C7.23935 7 7.47092 7.02783 7.69213 7.08L8.34699 7.23444L8.73677 6.68601Z" fill="black"/>
</svg>
