<svg width="24" height="24" viewBox="0 0 24 24" fill="none" xmlns="http://www.w3.org/2000/svg">
<path fill-rule="evenodd" clip-rule="evenodd" d="M11.0145 8.0806C9.62543 8.31028 8.39757 9.01718 7.50534 10.0253C7.33895 10.0086 7.17036 10 7 10C4.23858 10 2 12.2386 2 15C2 17.7614 4.23858 20 7 20H18C20.2091 20 22 18.2091 22 16C22 14.5843 21.2645 13.3404 20.1548 12.6294C21.2052 11.7067 21.6074 10.5769 22 9.29037H20.1289C18.187 9.29037 16.6128 7.71618 16.6128 5.77431C16.6128 4.77818 17.1126 3.89092 17.5 3C15.3268 3.00933 13.3566 3.38582 12 5.31572C11.4424 6.10902 11.0885 7.05595 11.0145 8.0806ZM11.2325 10.0735C9.917 10.3289 9.0845 11.1968 8.34699 12.2344C7.90253 12.1296 7.46028 12 7 12C5.34315 12 4 13.3431 4 15C4 16.6569 5.34315 18 7 18H18C19.1046 18 20 17.1046 20 16C20 14.8954 19.1046 14 18 14C17.3535 14 16.6984 14.0344 16.0532 13.9809C14.8586 13.8817 13.7723 13.4019 12.9156 12.663C12.1306 11.9861 11.5384 11.0917 11.2325 10.0735ZM16.5161 12C14.5742 12 13 10.4258 13 8.48395C13 7.24127 13.6451 6.14856 14.6185 5.5232C14.6147 5.60646 14.6128 5.69018 14.6128 5.77431C14.6128 8.37172 16.4081 10.5498 18.8255 11.1355C18.2073 11.6743 17.3993 12 16.5161 12Z" fill="black"/>
</svg>
