<svg width="24" height="24" viewBox="0 0 24 24" fill="none" xmlns="http://www.w3.org/2000/svg">
<path fill-rule="evenodd" clip-rule="evenodd" d="M6.57152 16.6286L5.57152 19.1286C5.36641 19.6414 5.61583 20.2234 6.12861 20.4285C6.64139 20.6336 7.22336 20.3842 7.42848 19.8714L8.42848 17.3714L6.57152 16.6286ZM15.5715 16.6286L14.5715 19.1286C14.3664 19.6414 14.6158 20.2234 15.1286 20.4285C15.6414 20.6336 16.2234 20.3842 16.4285 19.8714L17.4285 17.3714L15.5715 16.6286ZM11.0715 18.1286L10.0715 20.6286C9.86641 21.1414 10.1158 21.7234 10.6286 21.9285C11.1414 22.1336 11.7234 21.8842 11.9285 21.3714L12.9285 18.8714L11.0715 18.1286ZM12 3C10.2101 3 8.60351 3.78449 7.50534 5.0253C7.33895 5.00856 7.17036 5 7 5C4.23858 5 2 7.23858 2 10C2 12.7614 4.23858 15 7 15H18C20.2091 15 22 13.2091 22 11C22 8.79086 20.2091 7 18 7H17.6583C16.8345 4.66969 14.6131 3 12 3ZM8.73677 6.68601C9.46337 5.66366 10.6542 5 12 5C13.934 5 15.5494 6.37356 15.92 8.19893L16.0826 9H18C19.1046 9 20 9.89543 20 11C20 12.1046 19.1046 13 18 13H7C5.34315 13 4 11.6569 4 10C4 8.34315 5.34315 7 7 7C7.46028 7 7.90253 7.12962 8.34699 7.23444L8.73677 6.68601Z" fill="black"/>
</svg>
