<svg width="24" height="24" viewBox="0 0 24 24" fill="none" xmlns="http://www.w3.org/2000/svg">
<path fill-rule="evenodd" clip-rule="evenodd" d="M4 20H20V18H4V20ZM12 4C10.2101 4 8.60351 4.78449 7.50534 6.0253C7.33895 6.00856 7.17036 6 7 6C4.23858 6 2 8.23858 2 11C2 13.7614 4.23858 16 7 16H18C20.2091 16 22 14.2091 22 12C22 9.79086 20.2091 8 18 8H17.6583C16.8345 5.66969 14.6131 4 12 4ZM8.73677 7.68601C9.46337 6.66366 10.6542 6 12 6C13.934 6 15.5494 7.37356 15.92 9.19893L16.0826 10H18C19.1046 10 20 10.8954 20 12C20 13.1046 19.1046 14 18 14H7C5.34315 14 4 12.6569 4 11C4 9.34315 5.34315 8 7 8C7.23935 8 7.47092 8.02783 7.69213 8.08L8.34699 8.23444L8.73677 7.68601Z" fill="black"/>
</svg>
