<svg width="24" height="24" viewBox="0 0 24 24" fill="none" xmlns="http://www.w3.org/2000/svg">
<path fill-rule="evenodd" clip-rule="evenodd" d="M12 3C7.84247 3 4.42599 6.17113 4.03691 10.227C2.79572 11.2342 2 12.774 2 14.5C2 17.5376 4.46243 20 7.5 20H17.5C19.9853 20 22 17.9853 22 15.5C22 13.9242 21.1902 12.5392 19.9665 11.7358C19.9887 11.4933 20 11.2479 20 11C20 6.58172 16.4183 3 12 3ZM6.00362 10.7893C6.11425 7.57354 8.75679 5 12 5C15.3137 5 18 7.68629 18 11C18 11.64 17.8698 12.2604 17.7538 12.8865L18.4872 13.2022C19.3788 13.586 20 14.4716 20 15.5C20 16.8807 18.8807 18 17.5 18H7.5C5.567 18 4 16.433 4 14.5C4 13.2861 4.61718 12.2159 5.55953 11.5866L5.98599 11.3018L6.00362 10.7893ZM9 11V13H15V11H9Z" fill="black"/>
</svg>
