<svg width="24" height="24" viewBox="0 0 24 24" fill="none" xmlns="http://www.w3.org/2000/svg">
<path fill-rule="evenodd" clip-rule="evenodd" d="M5.19496 19.2302C5.36479 19.0508 5.51953 19 5.6 19C5.81019 19 5.90527 19.0523 5.97847 19.108C6.46604 19.4794 6.71054 20.1028 7.20971 20.483C7.62886 20.8023 8.14907 21 8.8 21C9.45093 21 9.97114 20.8023 10.3903 20.483C10.7522 20.2074 11.0108 19.8566 11.181 19.6259C11.3901 19.3424 11.6047 19 12 19C12.3953 19 12.6099 19.3424 12.819 19.6259C12.9892 19.8566 13.2478 20.2074 13.6097 20.483C14.0289 20.8023 14.5491 21 15.2 21C15.8509 21 16.3711 20.8023 16.7903 20.483C17.2708 20.1171 17.7409 19 18.4 19C18.6505 19 18.9384 19.269 19 19.5C18.9995 19.4968 19.0005 19.5032 19 19.5H21C21 18.1929 19.669 17 18.4 17C17.3551 17 16.6119 17.5701 16.019 18.3741C15.7996 18.6716 15.6064 19 15.2 19C14.8047 19 14.5901 18.6576 14.381 18.3741C13.7881 17.5701 13.0449 17 12 17C11.3491 17 10.8289 17.1977 10.4097 17.517C9.91054 17.8972 9.66604 18.5206 9.17847 18.892C9.10527 18.9477 9.01019 19 8.8 19C8.58981 19 8.49473 18.9477 8.42153 18.892C7.93327 18.5201 7.69093 17.8983 7.19029 17.517C6.77114 17.1977 6.25093 17 5.6 17C4.79681 17 4.15156 17.4231 3.7423 17.8555C3.35633 18.2634 3 18.8723 3 19.5H5C5 19.5625 5.136 19.2925 5.19496 19.2302ZM12 3C10.2101 3 8.60351 3.78449 7.50534 5.0253C7.33895 5.00856 7.17036 5 7 5C4.23858 5 2 7.23858 2 10C2 12.7614 4.23858 15 7 15H18C20.2091 15 22 13.2091 22 11C22 8.79086 20.2091 7 18 7H17.6583C16.8345 4.66969 14.6131 3 12 3ZM8.73677 6.68601C9.46337 5.66366 10.6542 5 12 5C13.934 5 15.5494 6.37356 15.92 8.19893L16.0826 9H18C19.1046 9 20 9.89543 20 11C20 12.1046 19.1046 13 18 13H7C5.34315 13 4 11.6569 4 10C4 8.34315 5.34315 7 7 7C7.23935 7 7.47092 7.02783 7.69213 7.08L8.34699 7.23444L8.73677 6.68601Z" fill="black"/>
</svg>
