<svg width="24" height="24" viewBox="0 0 24 24" fill="none" xmlns="http://www.w3.org/2000/svg">
<path fill-rule="evenodd" clip-rule="evenodd" d="M3 5C3 3.89543 3.89543 3 5 3H19C20.1046 3 21 3.89543 21 5V19C21 20.1046 20.1046 21 19 21H5C3.89543 21 3 20.1046 3 19V5ZM19 5H5V19H19V5ZM17.3321 12.5547L14.6654 16.5547L13.0013 15.4453L15.2981 12L13.0013 8.5547L14.6654 7.4453L17.3321 11.4453L17.7019 12L17.3321 12.5547ZM9.3347 16.5547L6.66803 12.5547L6.29823 12L6.66803 11.4453L9.3347 7.4453L10.9988 8.5547L8.70193 12L10.9988 15.4453L9.3347 16.5547Z" fill="black"/>
</svg>
