<svg width="24" height="24" viewBox="0 0 24 24" fill="none" xmlns="http://www.w3.org/2000/svg">
<path fill-rule="evenodd" clip-rule="evenodd" d="M12 4C7.58172 4 4 7.58172 4 12C4 16.4183 7.58172 20 12 20C16.4183 20 20 16.4183 20 12C20 7.58172 16.4183 4 12 4ZM2 12C2 6.47715 6.47715 2 12 2C17.5228 2 22 6.47715 22 12C22 17.5228 17.5228 22 12 22C6.47715 22 2 17.5228 2 12ZM12 5.5C8.41015 5.5 5.5 8.41015 5.5 12C5.5 15.5899 8.41015 18.5 12 18.5C15.5899 18.5 18.5 15.5899 18.5 12C18.5 8.41015 15.5899 5.5 12 5.5ZM4.5 12C4.5 7.85786 7.85786 4.5 12 4.5C16.1421 4.5 19.5 7.85786 19.5 12C19.5 16.1421 16.1421 19.5 12 19.5C7.85786 19.5 4.5 16.1421 4.5 12ZM12.25 16.5C10.1084 16.5 8.31624 15.004 7.86151 13H7V11H7.86151C8.31624 8.99601 10.1084 7.5 12.25 7.5C13.4735 7.5 14.5847 7.98964 15.395 8.78144L13.9971 10.2118C13.5454 9.77041 12.9303 9.5 12.25 9.5C11.2248 9.5 10.3438 10.117 9.95802 11H12.25V13H9.95802C10.3438 13.883 11.2248 14.5 12.25 14.5C12.9303 14.5 13.5454 14.2296 13.9971 13.7882L15.395 15.2186C14.5847 16.0104 13.4735 16.5 12.25 16.5Z" fill="black"/>
</svg>
