<svg width="24" height="24" viewBox="0 0 24 24" fill="none" xmlns="http://www.w3.org/2000/svg">
<path fill-rule="evenodd" clip-rule="evenodd" d="M22 12C22 17.5228 17.5228 22 12 22C6.47715 22 2 17.5228 2 12C2 6.47715 6.47715 2 12 2C17.5228 2 22 6.47715 22 12ZM20 12C20 16.4183 16.4183 20 12 20C7.58172 20 4 16.4183 4 12C4 7.58172 7.58172 4 12 4C16.4183 4 20 7.58172 20 12ZM12 19C15.866 19 19 15.866 19 12C19 8.13401 15.866 5 12 5C8.13401 5 5 8.13401 5 12C5 15.866 8.13401 19 12 19ZM12.25 16.25C10.1587 16.25 8.4202 14.7395 8.06597 12.75H7V11.25H8.06597C8.4202 9.26049 10.1587 7.75 12.25 7.75C13.4056 7.75 14.4548 8.21224 15.2203 8.96024L14.1719 10.033C13.6753 9.54781 12.9982 9.25 12.25 9.25C10.9912 9.25 9.92998 10.0957 9.60352 11.25H12.25V12.75H9.60352C9.92998 13.9043 10.9912 14.75 12.25 14.75C12.9982 14.75 13.6753 14.4522 14.1719 13.967L15.2203 15.0398C14.4548 15.7878 13.4056 16.25 12.25 16.25Z" fill="black"/>
</svg>
