<svg width="24" height="24" viewBox="0 0 24 24" fill="none" xmlns="http://www.w3.org/2000/svg">
<path fill-rule="evenodd" clip-rule="evenodd" d="M12 4C7.58172 4 4 7.58172 4 12C4 16.4183 7.58172 20 12 20C16.4183 20 20 16.4183 20 12C20 7.58172 16.4183 4 12 4ZM2 12C2 6.47715 6.47715 2 12 2C17.5228 2 22 6.47715 22 12C22 17.5228 17.5228 22 12 22C6.47715 22 2 17.5228 2 12ZM12 5.5C8.41015 5.5 5.5 8.41015 5.5 12C5.5 15.5899 8.41015 18.5 12 18.5C15.5899 18.5 18.5 15.5899 18.5 12C18.5 8.41015 15.5899 5.5 12 5.5ZM4.5 12C4.5 7.85786 7.85786 4.5 12 4.5C16.1421 4.5 19.5 7.85786 19.5 12C19.5 16.1421 16.1421 19.5 12 19.5C7.85786 19.5 4.5 16.1421 4.5 12ZM10.9999 7V7.74812C9.81256 8.00919 8.80319 8.78835 8.79593 10.1803L8.79595 10.1829C8.80373 11.2057 9.3808 11.9371 10.2756 12.3471C10.6724 12.5288 11.0964 12.6325 11.5202 12.7361L11.5202 12.7362C11.9261 12.8354 12.3317 12.9346 12.7129 13.1023C13.0624 13.254 13.1815 13.4364 13.1815 13.6637C13.1815 14.2362 12.5028 14.4214 12.037 14.4214C11.4049 14.4214 10.798 14.1379 10.7514 13.4339V13.2646H8.79593L8.80005 13.4515C8.81304 14.0406 8.95253 14.5495 9.22958 14.9675C9.64673 15.5866 10.2973 15.9297 10.9999 16.0888V17.0005H12.9999V16.0999C14.1855 15.838 15.1928 15.0591 15.2 13.6685L15.2 13.666C15.1922 12.6432 14.6151 11.9117 13.7203 11.5018C13.2606 11.2912 12.7532 11.1647 12.2578 11.0412L12.2578 11.0412C12.1556 11.0157 12.0539 10.9904 11.9533 10.9644L11.9514 10.964L11.887 10.9482C11.4755 10.848 10.8145 10.687 10.8145 10.1852C10.8145 9.60343 11.4879 9.42746 11.9589 9.42746C12.6004 9.42746 13.1991 9.72957 13.2445 10.415V10.5842H15.2L15.1959 10.3974C15.1645 8.97189 14.2339 8.08778 12.9999 7.77534V7H10.9999Z" fill="black"/>
</svg>
