<svg width="24" height="24" viewBox="0 0 24 24" fill="none" xmlns="http://www.w3.org/2000/svg">
<path fill-rule="evenodd" clip-rule="evenodd" d="M22 12C22 17.5228 17.5228 22 12 22C6.47715 22 2 17.5228 2 12C2 6.47715 6.47715 2 12 2C17.5228 2 22 6.47715 22 12ZM13.3593 10.3459C13.3296 10.0393 13.2025 9.80113 12.9778 9.63138C12.7531 9.46163 12.4481 9.37675 12.063 9.37675C11.8012 9.37675 11.5802 9.41475 11.4 9.49076C11.2198 9.56424 11.0815 9.66685 10.9852 9.7986C10.8914 9.93035 10.8444 10.0798 10.8444 10.2471C10.8395 10.3864 10.8679 10.508 10.9296 10.6119C10.9938 10.7158 11.0815 10.8057 11.1926 10.8817C11.3037 10.9552 11.4321 11.0198 11.5778 11.0756C11.7235 11.1288 11.879 11.1744 12.0444 11.2124L12.7259 11.3796C13.0568 11.4556 13.3605 11.557 13.637 11.6836C13.9136 11.8103 14.1531 11.9661 14.3556 12.1511C14.558 12.3361 14.7148 12.5539 14.8259 12.8048C14.9395 13.0556 14.9975 13.3432 15 13.6675C14.9975 14.1438 14.879 14.5568 14.6444 14.9064C14.4123 15.2535 14.0765 15.5234 13.637 15.7159C13.4425 15.8005 13.2301 15.8663 12.9999 15.9132V17.0005H10.9999V15.8881C10.8073 15.843 10.6259 15.7843 10.4556 15.7121C10.0037 15.5196 9.65062 15.2345 9.3963 14.857C9.14444 14.477 9.01235 14.007 9 13.4471H10.5519C10.5691 13.708 10.642 13.9259 10.7704 14.1007C10.9012 14.273 11.0753 14.4035 11.2926 14.4922C11.5123 14.5783 11.7605 14.6214 12.037 14.6214C12.3086 14.6214 12.5444 14.5809 12.7444 14.4998C12.9469 14.4187 13.1037 14.306 13.2148 14.1615C13.3259 14.0171 13.3815 13.8512 13.3815 13.6637C13.3815 13.4889 13.3309 13.3419 13.2296 13.2228C13.1309 13.1037 12.9852 13.0024 12.7926 12.9188C12.6025 12.8352 12.3691 12.7592 12.0926 12.6908L11.2667 12.4779C10.6272 12.3183 10.1222 12.0688 9.75185 11.7292C9.38148 11.3897 9.19753 10.9324 9.2 10.3573C9.19753 9.88601 9.31975 9.47429 9.56667 9.12212C9.81605 8.76994 10.158 8.49504 10.5926 8.29741C10.723 8.2381 10.8588 8.18769 10.9999 8.14618V7H12.9999V8.10518C13.1945 8.15288 13.3773 8.21696 13.5481 8.29741C13.9704 8.49504 14.2988 8.76994 14.5333 9.12212C14.7679 9.47429 14.8889 9.88221 14.8963 10.3459H13.3593ZM12 20C16.4183 20 20 16.4183 20 12C20 7.58172 16.4183 4 12 4C7.58172 4 4 7.58172 4 12C4 16.4183 7.58172 20 12 20ZM19 12C19 15.866 15.866 19 12 19C8.13401 19 5 15.866 5 12C5 8.13401 8.13401 5 12 5C15.866 5 19 8.13401 19 12Z" fill="black"/>
</svg>
