<svg width="24" height="24" viewBox="0 0 24 24" fill="none" xmlns="http://www.w3.org/2000/svg">
<path fill-rule="evenodd" clip-rule="evenodd" d="M12 4C11.8781 4 11.7723 4.08383 11.7444 4.20246L10.6155 9H13.3845L12.2556 4.20246C12.2277 4.08383 12.1219 4 12 4ZM13.855 11H10.145L9.43907 14H14.5609L13.855 11ZM15.0315 16H8.96849L8.2626 19H15.7374L15.0315 16ZM17.792 19L14.2025 3.74438C13.962 2.72232 13.05 2 12 2C10.95 2 10.038 2.72233 9.79754 3.74438L6.20799 19H3V21H21V19H17.792Z" fill="black"/>
</svg>
