<svg width="24" height="24" viewBox="0 0 24 24" fill="none" xmlns="http://www.w3.org/2000/svg">
<path fill-rule="evenodd" clip-rule="evenodd" d="M12 4C11.8685 4 11.7537 4.08914 11.7211 4.21656L10.7799 7.89726C11.1632 7.96374 11.5727 8.00018 12 8.00018C12.4273 8.00018 12.8368 7.96375 13.2201 7.89727L12.2789 4.21656C12.2463 4.08914 12.1315 4 12 4ZM13.7167 9.83954C13.1707 9.94456 12.5939 10.0002 12 10.0002C11.4061 10.0002 10.8293 9.94455 10.2832 9.83952L9.54903 12.7108C10.2723 12.893 11.1052 12.9995 12 12.9995C12.8949 12.9995 13.7277 12.893 14.451 12.7109L13.7167 9.83954ZM8.33958 17.4407L9.05355 14.6485C9.9528 14.8756 10.9536 14.9995 12 14.9995C13.0464 14.9995 14.0472 14.8756 14.9464 14.6485L15.6604 17.4407L17.152 18L12 19.864L6.84799 18L8.33958 17.4407ZM9.78342 3.72109C10.0424 2.70841 10.9547 2 12 2C13.0452 2 13.9576 2.70841 14.2166 3.72109L17.3396 15.9343L20 17V19L12 22L4 19V17L6.6604 15.9343L9.78342 3.72109Z" fill="black"/>
</svg>
