<svg width="24" height="24" viewBox="0 0 24 24" fill="none" xmlns="http://www.w3.org/2000/svg">
<path fill-rule="evenodd" clip-rule="evenodd" d="M12 2C11.1184 2 10.35 2.59997 10.1362 3.45521L9.1587 7.36519C9.87463 7.74478 10.8675 8 12 8C13.1325 8 14.1254 7.74478 14.8413 7.36519L13.8638 3.45521C13.65 2.59997 12.8816 2 12 2ZM15.3363 9.34503C14.3693 9.76676 13.215 10 12 10C10.785 10 9.63074 9.76676 8.66374 9.34503L7.97402 12.1039C8.04578 12.1448 8.12253 12.1859 8.20457 12.2269C9.12424 12.6867 10.4647 13 12 13C13.5353 13 14.8758 12.6867 15.7954 12.2269C15.8775 12.1859 15.9542 12.1448 16.026 12.1039L15.3363 9.34503ZM6.9375 16.25L7.476 14.096C8.70682 14.6722 10.299 15 12 15C13.701 15 15.2932 14.6722 16.524 14.096L17.0625 16.25L21 18L12 22L3 18L6.9375 16.25Z" fill="black"/>
</svg>
