<svg width="24" height="24" viewBox="0 0 24 24" fill="none" xmlns="http://www.w3.org/2000/svg">
<path fill-rule="evenodd" clip-rule="evenodd" d="M7 6C5.34315 6 4 7.34315 4 9V18H7.58579L9.29289 16.2929L9.58579 16H10H14H14.4142L14.7071 16.2929L16.4142 18H20V9C20 7.34315 18.6569 6 17 6H7ZM2 9C2 6.23858 4.23858 4 7 4H17C19.7614 4 22 6.23858 22 9V19V20H21H16H15.5858L15.2929 19.7071L13.5858 18H10.4142L8.70711 19.7071L8.41421 20H8H3H2V19V9ZM7 8H9V10H11V12H9V14H7V12H5V10H7V8ZM17 9C17 9.55228 16.5523 10 16 10C15.4477 10 15 9.55228 15 9C15 8.44771 15.4477 8 16 8C16.5523 8 17 8.44771 17 9ZM15 11C15 11.5523 14.5523 12 14 12C13.4477 12 13 11.5523 13 11C13 10.4477 13.4477 10 14 10C14.5523 10 15 10.4477 15 11ZM16 14C16.5523 14 17 13.5523 17 13C17 12.4477 16.5523 12 16 12C15.4477 12 15 12.4477 15 13C15 13.5523 15.4477 14 16 14ZM19 11C19 11.5523 18.5523 12 18 12C17.4477 12 17 11.5523 17 11C17 10.4477 17.4477 10 18 10C18.5523 10 19 10.4477 19 11Z" fill="black"/>
</svg>
