<svg width="24" height="24" viewBox="0 0 24 24" fill="none" xmlns="http://www.w3.org/2000/svg">
<path fill-rule="evenodd" clip-rule="evenodd" d="M4 20C2.89543 20 2 19.1046 2 18V6C2 4.89543 2.89543 4 4 4H20C21.1046 4 22 4.89543 22 6V18C22 19.1046 21.1046 20 20 20H4ZM6.5 14C5.67157 14 5 14.6716 5 15.5C5 16.3284 5.67157 17 6.5 17C7.32843 17 8 16.3284 8 15.5C8 16.3284 8.67157 17 9.5 17C10.3284 17 11 16.3284 11 15.5C11 14.6716 10.3284 14 9.5 14C8.67157 14 8 14.6716 8 15.5C8 14.6716 7.32843 14 6.5 14ZM20 8H4V11H20V8Z" fill="black"/>
</svg>
