<svg width="24" height="24" viewBox="0 0 24 24" fill="none" xmlns="http://www.w3.org/2000/svg">
<path fill-rule="evenodd" clip-rule="evenodd" d="M14.1802 2L13.3703 6.04955C12.9261 6.01692 12.4675 6 12 6C10.2656 6 8.65384 6.23287 7.44113 6.6371C6.37323 6.99307 5 7.6921 5 9C5 9.09747 5.00811 9.19135 5.02318 9.28163L6.00094 19.0593C6.02047 19.6712 6.33998 20.1591 6.70582 20.505C7.08129 20.8601 7.57094 21.1338 8.09308 21.3427C9.1429 21.7626 10.5246 22 12 22C13.4754 22 14.8571 21.7626 15.9069 21.3427C16.4291 21.1338 16.9187 20.8601 17.2942 20.505C17.66 20.1591 17.9795 19.6712 17.9991 19.0593L18.9768 9.28164C18.9919 9.19135 19 9.09748 19 9C19 8.28613 18.5651 7.7652 18.1475 7.4361C17.3582 6.81407 16.3265 6.51921 15.356 6.31892L15.8198 4H20V2H14.1802ZM12.9747 8.02782C12.6598 8.00962 12.3342 8 12 8C10.4207 8 9.03245 8.21485 8.07359 8.53447C7.59686 8.69338 7.27937 8.86078 7.09935 9C7.27937 9.13922 7.59686 9.30662 8.07359 9.46553C9.03245 9.78515 10.4207 10 12 10C12.1972 10 12.3914 9.99665 12.5822 9.99017L12.9747 8.02782ZM14.6643 9.77777L14.9638 8.28012C15.3184 8.35372 15.6414 8.43946 15.9264 8.53447C16.4031 8.69338 16.7206 8.86078 16.9006 9C16.7206 9.13922 16.4031 9.30662 15.9264 9.46553C15.563 9.58665 15.138 9.69273 14.6643 9.77777Z" fill="black"/>
</svg>
