<svg width="24" height="24" viewBox="0 0 24 24" fill="none" xmlns="http://www.w3.org/2000/svg">
<path fill-rule="evenodd" clip-rule="evenodd" d="M15 2H14.1802L14.0195 2.80388L13.3703 6.04955C12.9261 6.01692 12.4675 6 12 6C10.2656 6 8.65384 6.23287 7.44113 6.6371C6.84 6.83748 6.2814 7.09812 5.85254 7.4361C5.43495 7.7652 5 8.28613 5 9C5 9.09747 5.00811 9.19135 5.02318 9.28163L6.00094 19.0593C6.02047 19.6712 6.33998 20.1591 6.70582 20.505C7.08129 20.8601 7.57094 21.1338 8.09308 21.3427C9.1429 21.7626 10.5246 22 12 22C13.4754 22 14.8571 21.7626 15.9069 21.3427C16.4291 21.1338 16.9187 20.8601 17.2942 20.505C17.66 20.1591 17.9795 19.6712 17.9991 19.0593L18.9768 9.28164C18.9919 9.19135 19 9.09748 19 9C19 8.28613 18.5651 7.7652 18.1475 7.4361C17.7186 7.09812 17.16 6.83748 16.5589 6.6371C16.1919 6.51478 15.7884 6.40816 15.356 6.31892L15.8198 4H20V2H15ZM12.9747 8.02782C12.6598 8.00962 12.3342 8 12 8C10.4207 8 9.03245 8.21485 8.07359 8.53447C7.59686 8.69338 7.27937 8.86078 7.09935 9C7.27937 9.13922 7.59686 9.30662 8.07359 9.46553C9.03245 9.78515 10.4207 10 12 10C12.1972 10 12.3914 9.99665 12.5822 9.99017L12.9747 8.02782ZM14.6643 9.77777L14.9638 8.28012C15.3184 8.35372 15.6414 8.43946 15.9264 8.53447C16.4031 8.69338 16.7206 8.86078 16.9006 9C16.7206 9.13922 16.4031 9.30662 15.9264 9.46553C15.563 9.58665 15.138 9.69273 14.6643 9.77777ZM12.1804 11.9992L11.0194 17.8039L12.9806 18.1961L14.2471 11.8635C15.1075 11.755 15.8933 11.5848 16.5589 11.3629C16.6285 11.3397 16.6976 11.3157 16.7659 11.2908L16.005 18.9005L16 18.9501V18.9618C15.9889 18.9787 15.9656 19.0088 15.92 19.0519C15.7894 19.1754 15.5468 19.3327 15.1641 19.4857C14.4043 19.7897 13.2861 20 12 20C10.7139 20 9.59568 19.7897 8.83586 19.4857C8.45317 19.3327 8.21059 19.1754 8.08003 19.0519C8.0344 19.0088 8.01109 18.9787 8 18.9618V18.9501L7.99504 18.9005L7.23407 11.2908C7.30243 11.3157 7.37149 11.3397 7.44113 11.3629C8.65384 11.7671 10.2656 12 12 12C12.0603 12 12.1204 11.9997 12.1804 11.9992ZM17.0218 8.88654C17.0241 8.88209 17.0257 8.87988 17.0259 8.8799C17.0261 8.87991 17.025 8.88214 17.0218 8.88654ZM6.9782 8.88654C6.97504 8.88214 6.9739 8.87991 6.97412 8.8799C6.97433 8.87988 6.97591 8.88209 6.9782 8.88654ZM16.0089 18.9454C16.009 18.9454 16.0089 18.9457 16.0087 18.9462C16.0084 18.947 16.0078 18.9485 16.0067 18.9506L16.0078 18.9476C16.0084 18.9462 16.0088 18.9454 16.0089 18.9454ZM7.99108 18.9454C7.99124 18.9454 7.99216 18.9472 7.99334 18.9507C7.99151 18.9472 7.99092 18.9454 7.99108 18.9454Z" fill="black"/>
</svg>
