<svg width="24" height="24" viewBox="0 0 24 24" fill="none" xmlns="http://www.w3.org/2000/svg">
<path fill-rule="evenodd" clip-rule="evenodd" d="M4.00002 4H20C21.1046 4 22 4.89543 22 6V9.5C22 10.1295 21.7036 10.7223 21.2 11.1L17.8054 13.646C17.4931 14.9418 16.8203 16.0972 15.899 17L18.7575 17.0299L19 19C18.1493 19.2117 17.5288 19.3423 16.6644 19.4864C15.135 19.7413 13.0756 20 11 20C8.92443 20 6.86506 19.7413 5.33562 19.4864C4.47288 19.3426 3.8494 19.2098 3 19L2.99592 18.999L3.23782 17.0287L6.10104 17C4.80449 15.7295 4.00002 13.9587 4.00002 12V4ZM18 6V11L20 9.5V6H18ZM12 10C11.4797 9.48515 11.2031 8.74138 11.0804 8H10.9289C10.8155 8.74466 10.5481 9.47817 10 10C9.49742 10.4785 8.7376 10.7684 8.00002 10.9051V11.0804C8.7414 11.2031 9.48515 11.4797 10 12C10.5053 12.5107 10.7868 13.2602 10.9145 14H11.0799C11.202 13.2585 11.4781 12.5153 12 12C12.5103 11.4962 13.2603 11.2143 14 11.086V10.9145C13.2602 10.7868 12.5107 10.5054 12 10Z" fill="black"/>
</svg>
