<svg width="24" height="24" viewBox="0 0 24 24" fill="none" xmlns="http://www.w3.org/2000/svg">
<path fill-rule="evenodd" clip-rule="evenodd" d="M8 5C8 4.29434 8.93266 4 9.5 4C10.8837 4 12.0846 5 13.5 5C15.1935 5 17 3.84258 17 2H15C15 2.70295 14.0645 3 13.5 3C12.116 3 10.9153 2 9.5 2C7.80381 2 6 3.15447 6 5H8ZM4.00469 14V7H20.0047C21.1093 7 22.0047 7.89543 22.0047 9V11.5C22.0047 12.1295 21.7083 12.7223 21.2047 13.1L17.8101 15.646C17.4978 16.9418 16.825 18.0972 15.9037 19L18.7669 19.0287L19.0088 20.999L19.0047 21C18.1553 21.2097 17.5318 21.3426 16.6691 21.4864C15.1397 21.7413 13.0803 22 11.0047 22C8.92911 22 6.86974 21.7413 5.3403 21.4864C4.47816 21.3427 3.85367 21.2096 3.00471 21L3 20.9988L3.24254 19.0287L6.10571 19C4.80916 17.7295 4.00469 15.9587 4.00469 14ZM18.0047 13V9H20.0047V11.5L18.0047 13Z" fill="black"/>
</svg>
