<svg width="24" height="24" viewBox="0 0 24 24" fill="none" xmlns="http://www.w3.org/2000/svg">
<path fill-rule="evenodd" clip-rule="evenodd" d="M8 5C8 4.77133 8.10722 4.54716 8.37338 4.34791C8.65118 4.13995 9.06119 4 9.5 4C9.92174 4 10.4252 4.17171 11.1545 4.43895L11.2264 4.46535C11.8545 4.69595 12.6826 5 13.5 5C14.3345 5 15.1748 4.73973 15.8284 4.24825C16.4924 3.74894 17 2.97396 17 2H15C15 2.22339 14.8941 2.44841 14.6263 2.64977C14.3482 2.85894 13.9385 3 13.5 3C13.0761 3 12.5712 2.82802 11.8426 2.56105L11.7683 2.53378C11.1412 2.30351 10.3147 2 9.5 2C8.66975 2 7.82976 2.25654 7.17481 2.74683C6.50824 3.24583 6 4.02166 6 5H8ZM4.00469 14V7H20.0047C21.1093 7 22.0047 7.89543 22.0047 9V11.5C22.0047 12.1295 21.7083 12.7223 21.2047 13.1L17.8101 15.646C17.4978 16.9418 16.825 18.0972 15.9037 19L18.7669 19.0287L19.0088 20.999L19.0047 21C18.1553 21.2097 17.5318 21.3426 16.6691 21.4864C15.1397 21.7413 13.0803 22 11.0047 22C8.92911 22 6.86974 21.7413 5.3403 21.4864C4.47816 21.3427 3.85367 21.2096 3.00471 21L3 20.9988L3.24254 19.0287L6.10571 19C4.80916 17.7295 4.00469 15.9587 4.00469 14ZM11.0047 19C13.7661 19 16.0047 16.7614 16.0047 14V9H6.00469V14C6.00469 16.7614 8.24327 19 11.0047 19ZM18.0047 13V9H20.0047V11.5L18.0047 13Z" fill="black"/>
</svg>
