<svg width="24" height="24" viewBox="0 0 24 24" fill="none" xmlns="http://www.w3.org/2000/svg">
<path fill-rule="evenodd" clip-rule="evenodd" d="M4 4V12C4 13.9587 4.80446 15.7295 6.10101 17L3.23784 17.0287L2.9953 18.9988L3.00001 19C3.84897 19.2096 4.47346 19.3427 5.3356 19.4864C6.86504 19.7413 8.92441 20 11 20C13.0756 20 15.135 19.7413 16.6644 19.4864C17.5271 19.3426 18.1506 19.2097 19 19L19.0041 18.999L18.7622 17.0287L15.899 17C16.8203 16.0972 17.4931 14.9418 17.8054 13.646L21.2 11.1C21.7036 10.7223 22 10.1295 22 9.5V6C22 4.89543 21.1046 4 20 4H4ZM16 12C16 14.7614 13.7614 17 11 17C8.23857 17 6 14.7614 6 12V6H16V12ZM18 6V11L20 9.5V6H18ZM11.0804 8C11.2031 8.74138 11.4797 9.48515 12 10C12.5107 10.5054 13.2601 10.7868 14 10.9145V11.086C13.2603 11.2143 12.5103 11.4962 12 12C11.4781 12.5153 11.202 13.2585 11.0798 14H10.9145C10.7868 13.2602 10.5053 12.5107 9.99999 12C9.48512 11.4797 8.74137 11.2031 8 11.0804V10.9051C8.73758 10.7684 9.49739 10.4785 9.99999 10C10.5481 9.47817 10.8154 8.74466 10.9289 8H11.0804Z" fill="black"/>
</svg>
