<svg width="24" height="24" viewBox="0 0 24 24" fill="none" xmlns="http://www.w3.org/2000/svg">
<path fill-rule="evenodd" clip-rule="evenodd" d="M13.5311 3C10.5236 3 8.19671 5.63591 8.56974 8.62017C8.67125 9.43229 8.82919 10.2272 9.0029 11H6V13H9.47403C9.68583 13.9065 9.87402 14.7888 9.98646 15.6883C10.2081 17.4614 8.72768 19 7 19H6V21H7H18V19H11.0026C11.7428 18.0344 12.14 16.7923 11.971 15.4402C11.8665 14.6041 11.704 13.7892 11.5262 13H16V11H11.0549C10.8471 10.1094 10.6637 9.24696 10.5543 8.3721C10.3305 6.58155 11.7266 5 13.5311 5H14C15.2164 5 16.2658 5.72399 16.7368 6.76878L18.5601 5.94682C17.7777 4.21132 16.0314 3 14 3H13.5311Z" fill="black"/>
</svg>
