<svg width="24" height="24" viewBox="0 0 24 24" fill="none" xmlns="http://www.w3.org/2000/svg">
<path fill-rule="evenodd" clip-rule="evenodd" d="M8.34079 9.71696C9.66899 8.04502 11.6136 6.88476 13.8309 6.57974C13.193 3.95154 10.8244 2 8 2C4.68629 2 2 4.68629 2 8C2 10.8244 3.95154 13.193 6.57974 13.8309C6.70852 12.8948 6.98972 12.0073 7.39752 11.1942C6.13529 10.9576 5.13025 9.99133 4.83703 8.75H4V7.25H4.83703C5.17561 5.81665 6.46327 4.75 8.00006 4.75C8.88373 4.75 9.6863 5.10366 10.2714 5.67549L9.22305 6.74828C8.90681 6.43923 8.47629 6.25 8.00006 6.25C7.30196 6.25 6.69934 6.65876 6.41847 7.25H8V8.75H6.41847C6.69934 9.34124 7.30196 9.75 8.00006 9.75C8.11672 9.75 8.23063 9.73865 8.34079 9.71696ZM22 15C22 18.866 18.866 22 15 22C11.134 22 8 18.866 8 15C8 11.134 11.134 8 15 8C18.866 8 22 11.134 22 15ZM15.7565 13.8605L15.7739 14.0412H17.2345L17.2313 13.838C17.2199 13.1218 16.825 12.5317 16.1729 12.2265C16.118 12.2007 16.0617 12.1771 16.0041 12.1558V11.5H14.0041V12.1959C13.9813 12.2054 13.9587 12.2152 13.9363 12.2254C13.2828 12.5226 12.841 13.1197 12.8444 13.8493C12.8427 14.2988 12.9888 14.6757 13.2955 14.9569C13.7252 15.3508 14.2851 15.4914 14.8351 15.6295L14.8355 15.6296C14.8969 15.645 14.9582 15.6604 15.0191 15.6761L15.021 15.6766C15.0323 15.6794 15.0443 15.6823 15.0568 15.6853C15.0636 15.6869 15.0706 15.6886 15.0777 15.6903C15.3327 15.7511 15.7711 15.8558 15.7711 16.1634C15.7711 16.5278 15.3198 16.6337 15.0301 16.6337C14.613 16.6337 14.2198 16.4464 14.1902 15.9985L14.1778 15.8118H12.7L12.7045 16.0162C12.7217 16.7955 13.1155 17.4703 13.8452 17.7813C13.8969 17.8032 13.9499 17.8234 14.0039 17.842V18.5004H16.0039V17.8671C16.0821 17.8426 16.1576 17.8145 16.2302 17.783C16.9078 17.4861 17.3001 16.8983 17.3039 16.1671L17.3039 16.1645C17.3001 15.6712 17.1157 15.2567 16.7878 14.957C16.4732 14.6697 16.0482 14.4828 15.5585 14.3701L15.083 14.2534C14.8512 14.2002 14.3843 14.0925 14.3954 13.7791V13.7721C14.3954 13.4411 14.7853 13.3629 15.0483 13.3629C15.3807 13.3629 15.7206 13.4891 15.7565 13.8605Z" fill="black"/>
</svg>
