<svg width="24" height="24" viewBox="0 0 24 24" fill="none" xmlns="http://www.w3.org/2000/svg">
<path fill-rule="evenodd" clip-rule="evenodd" d="M4 11H6V13H4V15H6.07089C6.55612 18.3923 9.47353 21 13 21C16.0494 21 18.641 19.0507 19.6014 16.3332L17.7158 15.6668C17.0289 17.6101 15.1755 19 13 19C10.581 19 8.56329 17.2822 8.10002 15H14V13H8V11H14V9H8.10002C8.56329 6.71776 10.581 5 13 5C15.1755 5 17.0289 6.38991 17.7158 8.33325L19.6014 7.66675C18.641 4.94932 16.0494 3 13 3C9.47353 3 6.55612 5.60771 6.07089 9H4V11Z" fill="black"/>
</svg>
