<svg width="24" height="24" viewBox="0 0 24 24" fill="none" xmlns="http://www.w3.org/2000/svg">
<path fill-rule="evenodd" clip-rule="evenodd" d="M8 4C5.79086 4 4 5.79086 4 8C4 10.2091 5.79086 12 8 12C8.24046 12 8.47538 11.9789 8.70319 11.9386C9.38853 10.5316 10.5316 9.38853 11.9386 8.70319C11.9789 8.47538 12 8.24046 12 8C12 5.79086 10.2091 4 8 4ZM8 14C8.02368 14 8.04733 13.9999 8.07095 13.9996C8.02419 14.3263 8 14.6603 8 15C8 18.866 11.134 22 15 22C18.866 22 22 18.866 22 15C22 11.134 18.866 8 15 8C14.6603 8 14.3263 8.02419 13.9996 8.07095C13.9999 8.04733 14 8.02368 14 8C14 4.68629 11.3137 2 8 2C4.68629 2 2 4.68629 2 8C2 11.3137 4.68629 14 8 14ZM15 10C12.2386 10 10 12.2386 10 15C10 17.7614 12.2386 20 15 20C17.7614 20 20 17.7614 20 15C20 12.2386 17.7614 10 15 10ZM15.7695 14.0412L15.752 13.8605C15.7161 13.4891 15.3763 13.3629 15.0438 13.3629C14.7809 13.3629 14.391 13.4411 14.391 13.7721V13.7791C14.3799 14.0925 14.8467 14.2002 15.0785 14.2534L15.5541 14.3701C16.0438 14.4828 16.4688 14.6697 16.7833 14.957C17.1113 15.2567 17.2957 15.6712 17.2995 16.1645L17.2995 16.1671C17.2957 16.8983 16.9033 17.4861 16.2258 17.783C16.1531 17.8145 16.0777 17.8426 15.9995 17.8671V18.5004H13.9995V17.842C13.9454 17.8234 13.8925 17.8032 13.8407 17.7813C13.1111 17.4703 12.7172 16.7955 12.7001 16.0162L12.6956 15.8118H14.1734L14.1857 15.9985C14.2154 16.4464 14.6086 16.6337 15.0257 16.6337C15.3153 16.6337 15.7667 16.5278 15.7667 16.1634C15.7667 15.8558 15.3283 15.7511 15.0733 15.6903L15.055 15.6859L15.0165 15.6766L15.0146 15.6761C14.9536 15.6604 14.8921 15.6449 14.8306 15.6295C14.2806 15.4914 13.7208 15.3508 13.2911 14.9569C12.9843 14.6757 12.8383 14.2988 12.84 13.8493C12.8365 13.1197 13.2784 12.5226 13.9319 12.2254C13.9543 12.2152 13.9769 12.2054 13.9996 12.1959V11.5H15.9996V12.1558C16.0573 12.1771 16.1136 12.2007 16.1685 12.2265C16.8206 12.5317 17.2154 13.1218 17.2269 13.838L17.2301 14.0412H15.7695ZM5.31565 8.6C5.58942 9.83024 6.6873 10.75 8 10.75C8.74768 10.75 9.42694 10.4506 9.92194 9.96689L8.87355 8.8941C8.64745 9.11506 8.34024 9.25 8 9.25C7.52708 9.25 7.1155 8.98737 6.90315 8.6H8V7.4H6.90315C7.1155 7.01263 7.52708 6.75 8 6.75C8.34024 6.75 8.64745 6.88494 8.87355 7.1059L9.92194 6.03311C9.42694 5.54937 8.74768 5.25 8 5.25C6.6873 5.25 5.58942 6.16976 5.31565 7.4H5V8.6H5.31565Z" fill="black"/>
</svg>
