<svg width="24" height="24" viewBox="0 0 24 24" fill="none" xmlns="http://www.w3.org/2000/svg">
<path fill-rule="evenodd" clip-rule="evenodd" d="M12.6724 4.71331L12.3951 4.44693L13.781 3.00336L14.0685 3.27956L15.1985 4.39638L16.5807 3.0138L17.9955 4.42908L16.6219 5.80309L17.2113 6.38566L18.5815 5.0147L19.9965 6.42975L18.5625 7.86463C19.6002 9.48437 19.4113 11.663 17.9956 13.0792C17.3807 13.6944 16.622 14.078 15.8278 14.2301C16.8076 15.9613 16.5601 18.1992 15.0853 19.6743C13.3134 21.4464 10.4409 21.4464 8.66917 19.6742C8.66909 19.6741 8.66925 19.6742 8.66917 19.6742L8.29878 19.3045L7.71152 18.7192L6.41825 20.0132L5.00329 18.5981L6.29415 17.3065L5.70694 16.7212L4.41735 18.0112L3.00258 16.5959L4.28957 15.3086L3.2864 14.3087L2.99646 14.0124L4.42604 12.6121L4.71172 12.9039L5.70439 13.8933L13.7837 5.81164L12.6724 4.71331ZM15.207 7.21835L12.1277 10.2986L13.4936 11.6641C13.4942 11.6646 13.4947 11.6652 13.4953 11.6657C14.3479 12.5168 15.7288 12.5163 16.5808 11.664C17.4326 10.8119 17.4332 9.43077 16.5826 8.57788L15.207 7.21835ZM12.0788 13.0793L10.7129 11.7138L7.12176 15.306L10.0838 18.2587C11.0742 19.2495 12.6801 19.2496 13.6706 18.2589C14.6612 17.2682 14.6613 15.6619 13.671 14.6709L13.3071 14.3072L12.0819 13.0824C12.0809 13.0814 12.0799 13.0803 12.0788 13.0793Z" fill="black"/>
</svg>
