<svg width="24" height="24" viewBox="0 0 24 24" fill="none" xmlns="http://www.w3.org/2000/svg">
<path fill-rule="evenodd" clip-rule="evenodd" d="M11 4.06189C11.3276 4.02104 11.6613 4 12 4C16.4183 4 20 7.58172 20 12C20 16.4183 16.4183 20 12 20C11.6613 20 11.3276 19.979 11 19.9381V17H14C15.6569 17 17 15.6569 17 14C17 12.9377 16.4479 12.0044 15.615 11.4714C15.8601 11.0366 16 10.5347 16 10C16 8.34315 14.6569 7 13 7H11V4.06189ZM9 4.58152C6.06817 5.76829 4 8.64262 4 12C4 15.3574 6.06817 18.2317 9 19.4185V17H7V15H9V9H7V7H9V4.58152ZM12 2C6.47715 2 2 6.47715 2 12C2 17.5228 6.47715 22 12 22C17.5228 22 22 17.5228 22 12C22 6.47715 17.5228 2 12 2ZM14 15H11V13H13H14C14.5523 13 15 13.4477 15 14C15 14.5523 14.5523 15 14 15ZM13 11H11V9H13C13.5523 9 14 9.44772 14 10C14 10.5523 13.5523 11 13 11Z" fill="black"/>
</svg>
