<svg width="24" height="24" viewBox="0 0 24 24" fill="none" xmlns="http://www.w3.org/2000/svg">
<path fill-rule="evenodd" clip-rule="evenodd" d="M11 19.9387V22H13V19.9387C14.1763 19.793 15.254 19.3926 16.109 18.7941C17.1982 18.0316 18 16.8824 18 15.5C18 14.698 17.7961 13.999 17.3999 13.4104C17.0102 12.8314 16.4759 12.4205 15.9081 12.1176C15.0497 11.6599 13.996 11.3929 13 11.1828V6.08175C13.7783 6.21174 14.4526 6.48774 14.9621 6.84436C15.6825 7.34864 16 7.94938 16 8.5H18C18 7.11763 17.1982 5.96837 16.109 5.20589C15.254 4.60739 14.1763 4.20704 13 4.0613V2H11V4.0613C9.82367 4.20704 8.74601 4.60739 7.891 5.20589C6.80176 5.96837 6 7.11763 6 8.5C6 9.30196 6.20392 10.001 6.6001 10.5896C6.9898 11.1686 7.52407 11.5795 8.09191 11.8824C8.95026 12.3401 10.004 12.6071 11 12.8172V17.9183C10.2217 17.7883 9.54738 17.5123 9.03793 17.1556C8.31753 16.6514 8 16.0506 8 15.5H6C6 16.8824 6.80176 18.0316 7.891 18.7941C8.74601 19.3926 9.82367 19.793 11 19.9387ZM13 17.9183C13.7783 17.7883 14.4526 17.5123 14.9621 17.1556C15.6825 16.6514 16 16.0506 16 15.5C16 15.052 15.8914 14.751 15.7407 14.5271C15.5835 14.2936 15.3366 14.0795 14.9669 13.8824C14.4407 13.6017 13.7748 13.4073 13 13.231V17.9183ZM11 10.769V6.08175C10.2217 6.21174 9.54738 6.48774 9.03793 6.84436C8.31753 7.34864 8 7.94938 8 8.5C8 8.94804 8.10858 9.24899 8.25928 9.47287C8.41645 9.7064 8.66343 9.9205 9.03309 10.1176C9.55928 10.3983 10.2252 10.5927 11 10.769Z" fill="black"/>
</svg>
