<svg width="24" height="24" viewBox="0 0 24 24" fill="none" xmlns="http://www.w3.org/2000/svg">
<path fill-rule="evenodd" clip-rule="evenodd" d="M5 5.5C5 5.39247 5.11316 5.02592 5.91168 4.62666C6.65038 4.25731 7.74087 4 9 4C10.2591 4 11.3496 4.25731 12.0883 4.62666C12.8868 5.02592 13 5.39247 13 5.5C13 5.60753 12.8868 5.97408 12.0883 6.37334C11.3496 6.74269 10.2591 7 9 7C7.74087 7 6.65038 6.74269 5.91168 6.37334C5.11316 5.97408 5 5.60753 5 5.5ZM12.9827 8.16219L13 8.15353V9.5C13 9.60753 12.8868 9.97408 12.0883 10.3733C11.3496 10.7427 10.2591 11 9 11C7.74087 11 6.65038 10.7427 5.91168 10.3733C5.11316 9.97408 5 9.60753 5 9.5V8.15353L5.01725 8.16219C6.08819 8.69766 7.49771 9 9 9C10.5023 9 11.9118 8.69766 12.9827 8.16219ZM15 5.5V9.5V12.044C14.231 12.397 13.5495 12.9077 12.9969 13.5348C12.9991 13.5212 13 13.5096 13 13.5V12.1535L12.9827 12.1622C11.9118 12.6977 10.5023 13 9 13C7.49771 13 6.08819 12.6977 5.01725 12.1622L5 12.1535V13.5C5 13.6075 5.11316 13.9741 5.91168 14.3733C6.65038 14.7427 7.74087 15 9 15C10.2591 15 11.3496 14.7427 12.0883 14.3733C12.2872 14.2739 12.4436 14.1765 12.5663 14.0846C12.04 14.8434 11.6842 15.7295 11.5546 16.6875C10.7721 16.8908 9.90281 17 9 17C7.49771 17 6.08819 16.6977 5.01725 16.1622L5 16.1535V17.5C5 17.6075 5.11316 17.9741 5.91168 18.3733C6.65038 18.7427 7.74087 19 9 19C10.004 19 10.9008 18.8364 11.5975 18.5829C11.72 19.2551 11.9546 19.8883 12.2811 20.4624C11.3281 20.8092 10.1933 21 9 21C7.49771 21 6.08819 20.6977 5.01725 20.1622C4.00613 19.6566 3 18.7732 3 17.5V13.5V9.5V5.5C3 4.22682 4.00613 3.34337 5.01725 2.83781C6.08819 2.30234 7.49771 2 9 2C10.5023 2 11.9118 2.30234 12.9827 2.83781C13.9939 3.34337 15 4.22682 15 5.5ZM14 21V19V18V17H15V15C15 13.3431 16.3431 12 18 12C19.6569 12 21 13.3431 21 15V17H22V18V19V21H14ZM17 15C17 14.4477 17.4477 14 18 14C18.5523 14 19 14.4477 19 15V17H17V15Z" fill="black"/>
</svg>
