<svg width="24" height="24" viewBox="0 0 24 24" fill="none" xmlns="http://www.w3.org/2000/svg">
<path fill-rule="evenodd" clip-rule="evenodd" d="M5.91168 4.62666C5.11316 5.02592 5 5.39247 5 5.5C5 5.60753 5.11316 5.97408 5.91168 6.37334C6.65038 6.74269 7.74087 7 9 7C10.2591 7 11.3496 6.74269 12.0883 6.37334C12.8868 5.97408 13 5.60753 13 5.5C13 5.39247 12.8868 5.02592 12.0883 4.62666C11.3496 4.25731 10.2591 4 9 4C7.74087 4 6.65038 4.25731 5.91168 4.62666ZM13 8.15353L12.9827 8.16219C11.9118 8.69766 10.5023 9 9 9C7.49771 9 6.08819 8.69766 5.01725 8.16219L5 8.15353V9.5C5 9.60753 5.11316 9.97408 5.91168 10.3733C6.65038 10.7427 7.74087 11 9 11C10.2591 11 11.3496 10.7427 12.0883 10.3733C12.8868 9.97408 13 9.60753 13 9.5V8.15353ZM15 9.5V5.5C15 4.22682 13.9939 3.34337 12.9827 2.83781C11.9118 2.30234 10.5023 2 9 2C7.49771 2 6.08819 2.30234 5.01725 2.83781C4.00613 3.34337 3 4.22682 3 5.5V9.5V13.5V17.5C3 18.7732 4.00613 19.6566 5.01725 20.1622C6.08819 20.6977 7.49771 21 9 21C10.1933 21 11.3281 20.8092 12.2811 20.4624C11.9546 19.8883 11.72 19.2551 11.5975 18.5829C10.9008 18.8364 10.004 19 9 19C7.74087 19 6.65038 18.7427 5.91168 18.3733C5.11316 17.9741 5 17.6075 5 17.5V16.1535L5.01725 16.1622C6.08819 16.6977 7.49771 17 9 17C9.90281 17 10.7721 16.8908 11.5546 16.6875C11.6842 15.7295 12.04 14.8434 12.5663 14.0846C12.4436 14.1765 12.2872 14.2739 12.0883 14.3733C11.3496 14.7427 10.2591 15 9 15C7.74087 15 6.65038 14.7427 5.91168 14.3733C5.11316 13.9741 5 13.6075 5 13.5V12.1535L5.01725 12.1622C6.08819 12.6977 7.49771 13 9 13C10.5023 13 11.9118 12.6977 12.9827 12.1622L13 12.1535V13.5C13 13.5096 12.9991 13.5212 12.9969 13.5348C13.5495 12.9077 14.231 12.397 15 12.044V9.5ZM16.5291 13.3603L16.7032 13.6902C16.8546 13.9772 17.155 14.1711 17.5 14.1711C17.845 14.1711 18.1454 13.9772 18.2968 13.6902L18.4709 13.3603L18.8273 13.4702C19.4816 13.6719 20.0717 14.0185 20.5604 14.472L20.8336 14.7255L20.6353 15.0412C20.463 15.3157 20.4454 15.6724 20.6177 15.9709C20.7902 16.2697 21.1083 16.4328 21.4324 16.4205L21.8055 16.4064L21.8883 16.7705C21.9614 17.0927 22 17.4277 22 17.7711C22 18.1144 21.9615 18.4492 21.8883 18.7713L21.8056 19.1355L21.4324 19.1214C21.1083 19.1091 20.7902 19.2722 20.6177 19.5709C20.4453 19.8695 20.463 20.2264 20.6355 20.5009L20.8338 20.8165L20.5605 21.0701C20.0718 21.5237 19.4817 21.8703 18.8273 22.0721L18.4709 22.182L18.2968 21.852C18.1454 21.5651 17.845 21.3711 17.5 21.3711C17.155 21.3711 16.8546 21.5651 16.7032 21.852L16.5291 22.182L16.1727 22.0721C15.5183 21.8703 14.9282 21.5237 14.4395 21.0701L14.1662 20.8165L14.3646 20.5009C14.5371 20.2264 14.5547 19.8695 14.3823 19.5709C14.2099 19.2722 13.8917 19.1091 13.5676 19.1214L13.1944 19.1355L13.1117 18.7713C13.0385 18.4492 13 18.1144 13 17.7711C13 17.4277 13.0386 17.0927 13.1117 16.7705L13.1945 16.4064L13.5676 16.4205C13.8918 16.4328 14.2099 16.2697 14.3823 15.9709C14.5547 15.6724 14.5371 15.3157 14.3647 15.0412L14.1664 14.7255L14.4396 14.472C14.9283 14.0185 15.5184 13.6719 16.1727 13.4702L16.5291 13.3603ZM19.3 17.7708C19.3 18.7649 18.4941 19.5708 17.5 19.5708C16.5059 19.5708 15.7 18.7649 15.7 17.7708C15.7 16.7767 16.5059 15.9708 17.5 15.9708C18.4941 15.9708 19.3 16.7767 19.3 17.7708Z" fill="black"/>
</svg>
