<svg width="24" height="24" viewBox="0 0 24 24" fill="none" xmlns="http://www.w3.org/2000/svg">
<path fill-rule="evenodd" clip-rule="evenodd" d="M7 6C7 5.7544 7.22509 5.26285 8.20457 4.77311C9.12424 4.31327 10.4647 4 12 4C13.5353 4 14.8758 4.31327 15.7954 4.77311C16.7749 5.26285 17 5.7544 17 6C17 6.2456 16.7749 6.73715 15.7954 7.22689C14.8758 7.68673 13.5353 8 12 8C10.4647 8 9.12424 7.68673 8.20457 7.22689C7.22509 6.73715 7 6.2456 7 6ZM5 6C5 4.58874 6.11805 3.5803 7.31015 2.98425C8.56205 2.3583 10.2216 2 12 2C13.7784 2 15.4379 2.3583 16.6899 2.98425C17.8819 3.5803 19 4.58874 19 6V18C19 19.4113 17.8819 20.4197 16.6899 21.0157C15.4379 21.6417 13.7784 22 12 22C10.2216 22 8.56205 21.6417 7.31015 21.0157C6.11805 20.4197 5 19.4113 5 18V6ZM7 12.85V14C7 14.2456 7.22509 14.7372 8.20457 15.2269C9.12424 15.6867 10.4647 16 12 16C13.5353 16 14.8758 15.6867 15.7954 15.2269C16.7749 14.7372 17 14.2456 17 14V12.85C15.5041 13.7033 13.7022 14 12 14C10.2978 14 8.49593 13.7033 7 12.85ZM17 10C17 10.2456 16.7749 10.7372 15.7954 11.2269C14.8758 11.6867 13.5353 12 12 12C10.4647 12 9.12424 11.6867 8.20457 11.2269C7.22509 10.7372 7 10.2456 7 10V8.85004C8.49593 9.70333 10.2978 10 12 10C13.7022 10 15.5041 9.70333 17 8.85004V10ZM17 16.85C15.5041 17.7033 13.7022 18 12 18C10.2978 18 8.49593 17.7033 7 16.85V18C7 18.2456 7.22509 18.7372 8.20457 19.2269C9.12424 19.6867 10.4647 20 12 20C13.5353 20 14.8758 19.6867 15.7954 19.2269C16.7749 18.7372 17 18.2456 17 18V16.85Z" fill="black"/>
</svg>
