<svg width="25" height="24" viewBox="0 0 25 24" fill="none" xmlns="http://www.w3.org/2000/svg">
<path fill-rule="evenodd" clip-rule="evenodd" d="M9.02002 9C12.3337 9 15.02 7.433 15.02 5.5C15.02 3.567 12.3337 2 9.02002 2C5.70631 2 3.02002 3.567 3.02002 5.5C3.02002 7.433 5.70631 9 9.02002 9ZM14.7716 8.5C14.0339 9.94574 11.738 11 9.02002 11C6.302 11 4.0061 9.94574 3.26849 8.5C3.10683 8.81685 3.02002 9.15251 3.02002 9.5C3.02002 11.433 5.70631 13 9.02002 13C12.3337 13 15.02 11.433 15.02 9.5C15.02 9.15251 14.9332 8.81686 14.7716 8.5ZM9.02002 15C10.266 15 11.4232 14.7785 12.3823 14.3992C11.9713 15.0787 11.6913 15.8464 11.5774 16.6671C10.8016 16.8806 9.93471 17 9.02002 17C5.70631 17 3.02002 15.433 3.02002 13.5C3.02002 13.1525 3.10683 12.8169 3.26849 12.5C4.0061 13.9457 6.302 15 9.02002 15ZM12.2864 20.4364C11.9787 19.8891 11.7543 19.2886 11.6306 18.6522C10.8413 18.8751 9.95567 19 9.02002 19C6.302 19 4.0061 17.9457 3.26849 16.5C3.10683 16.8169 3.02002 17.1525 3.02002 17.5C3.02002 19.433 5.70631 21 9.02002 21C10.2247 21 11.3465 20.7929 12.2864 20.4364ZM22.02 17.5C22.02 19.9853 20.0053 22 17.52 22C15.0347 22 13.02 19.9853 13.02 17.5C13.02 15.0147 15.0347 13 17.52 13C20.0053 13 22.02 15.0147 22.02 17.5ZM17.02 16.7071V20H18.02V16.7071L19.1665 17.8536L19.8736 17.1464L17.8736 15.1464L17.52 14.7929L17.1665 15.1464L15.1665 17.1464L15.8736 17.8536L17.02 16.7071Z" fill="black"/>
</svg>
