<svg width="24" height="24" viewBox="0 0 24 24" fill="none" xmlns="http://www.w3.org/2000/svg">
<path fill-rule="evenodd" clip-rule="evenodd" d="M5.91168 4.62666C5.11316 5.02592 5 5.39247 5 5.5C5 5.60753 5.11316 5.97408 5.91168 6.37334C6.65038 6.74269 7.74087 7 9 7C10.2591 7 11.3496 6.74269 12.0883 6.37334C12.8868 5.97408 13 5.60753 13 5.5C13 5.39247 12.8868 5.02592 12.0883 4.62666C11.3496 4.25731 10.2591 4 9 4C7.74087 4 6.65038 4.25731 5.91168 4.62666ZM13 8.15353L12.9827 8.16219C11.9118 8.69766 10.5023 9 9 9C7.49771 9 6.08819 8.69766 5.01725 8.16219L5 8.15353V9.5C5 9.60753 5.11316 9.97408 5.91168 10.3733C6.65038 10.7427 7.74087 11 9 11C10.2591 11 11.3496 10.7427 12.0883 10.3733C12.8868 9.97408 13 9.60753 13 9.5V8.15353ZM15 9.5V5.5C15 4.22682 13.9939 3.34337 12.9827 2.83781C11.9118 2.30234 10.5023 2 9 2C7.49771 2 6.08819 2.30234 5.01725 2.83781C4.00613 3.34337 3 4.22682 3 5.5V9.5V13.5V17.5C3 18.7732 4.00613 19.6566 5.01725 20.1622C6.08819 20.6977 7.49771 21 9 21C10.1933 21 11.3281 20.8092 12.2811 20.4624C11.9546 19.8883 11.72 19.2551 11.5975 18.5829C10.9008 18.8364 10.004 19 9 19C7.74087 19 6.65038 18.7427 5.91168 18.3733C5.11316 17.9741 5 17.6075 5 17.5V16.1535L5.01725 16.1622C6.08819 16.6977 7.49771 17 9 17C9.90281 17 10.7721 16.8908 11.5546 16.6875C11.6842 15.7295 12.04 14.8434 12.5663 14.0846C12.4436 14.1765 12.2872 14.2739 12.0883 14.3733C11.3496 14.7427 10.2591 15 9 15C7.74087 15 6.65038 14.7427 5.91168 14.3733C5.11316 13.9741 5 13.6075 5 13.5V12.1535L5.01725 12.1622C6.08819 12.6977 7.49771 13 9 13C10.5023 13 11.9118 12.6977 12.9827 12.1622L13 12.1535V13.5C13 13.5096 12.9991 13.5212 12.9969 13.5348C13.5495 12.9077 14.231 12.397 15 12.044V9.5ZM17.5 22C19.9853 22 22 19.9853 22 17.5C22 15.0147 19.9853 13 17.5 13C15.0147 13 13 15.0147 13 17.5C13 19.9853 15.0147 22 17.5 22ZM16.75 20.5V19H18.25V20.5H16.75ZM18.25 14.5V18H16.75V14.5H18.25Z" fill="black"/>
</svg>
