<svg width="25" height="24" viewBox="0 0 25 24" fill="none" xmlns="http://www.w3.org/2000/svg">
<path fill-rule="evenodd" clip-rule="evenodd" d="M9.02002 9C12.3337 9 15.02 7.433 15.02 5.5C15.02 3.567 12.3337 2 9.02002 2C5.70631 2 3.02002 3.567 3.02002 5.5C3.02002 7.433 5.70631 9 9.02002 9ZM14.7716 8.5C14.0339 9.94574 11.738 11 9.02002 11C6.302 11 4.0061 9.94574 3.26849 8.5C3.10683 8.81685 3.02002 9.15251 3.02002 9.5C3.02002 11.433 5.70631 13 9.02002 13C12.3337 13 15.02 11.433 15.02 9.5C15.02 9.15251 14.9332 8.81686 14.7716 8.5ZM9.02002 15C10.266 15 11.4232 14.7785 12.3823 14.3992C11.9713 15.0787 11.6913 15.8464 11.5774 16.6671C10.8016 16.8806 9.93471 17 9.02002 17C5.70631 17 3.02002 15.433 3.02002 13.5C3.02002 13.1525 3.10683 12.8169 3.26849 12.5C4.0061 13.9457 6.302 15 9.02002 15ZM12.2864 20.4364C11.9787 19.8891 11.7543 19.2886 11.6306 18.6522C10.8413 18.8751 9.95567 19 9.02002 19C6.302 19 4.0061 17.9457 3.26849 16.5C3.10683 16.8169 3.02002 17.1525 3.02002 17.5C3.02002 19.433 5.70631 21 9.02002 21C10.2247 21 11.3465 20.7929 12.2864 20.4364ZM16.5492 13.3603L16.7233 13.6902C16.8747 13.9771 17.175 14.1711 17.52 14.1711C17.865 14.1711 18.1654 13.9771 18.3168 13.6902L18.4909 13.3603L18.8474 13.4702C19.5016 13.6719 20.0917 14.0185 20.5804 14.472L20.8536 14.7255L20.6554 15.0411C20.483 15.3156 20.4654 15.6724 20.6377 15.9709C20.8102 16.2696 21.1283 16.4328 21.4524 16.4205L21.8256 16.4064L21.9083 16.7705C21.9815 17.0927 22.02 17.4277 22.02 17.7711C22.02 18.1144 21.9815 18.4492 21.9084 18.7713L21.8257 19.1355L21.4525 19.1213C21.1283 19.109 20.8102 19.2722 20.6377 19.5709C20.4653 19.8695 20.483 20.2263 20.6555 20.5008L20.8538 20.8165L20.5806 21.0701C20.0919 21.5236 19.5017 21.8703 18.8474 22.072L18.4909 22.1819L18.3168 21.852C18.1654 21.5651 17.865 21.3711 17.52 21.3711C17.175 21.3711 16.8747 21.5651 16.7233 21.852L16.5492 22.1819L16.1927 22.072C15.5383 21.8703 14.9482 21.5237 14.4595 21.0701L14.1863 20.8165L14.3846 20.5009C14.5571 20.2263 14.5747 19.8695 14.4023 19.5709C14.2299 19.2722 13.9117 19.109 13.5876 19.1213L13.2144 19.1355L13.1317 18.7713C13.0585 18.4492 13.02 18.1144 13.02 17.7711C13.02 17.4277 13.0586 17.0927 13.1318 16.7705L13.2145 16.4063L13.5876 16.4205C13.9118 16.4328 14.2299 16.2696 14.4023 15.9709C14.5747 15.6724 14.5571 15.3156 14.3847 15.0411L14.1865 14.7255L14.4597 14.472C14.9483 14.0185 15.5384 13.6719 16.1927 13.4702L16.5492 13.3603ZM19.32 17.7708C19.32 18.7649 18.5141 19.5708 17.52 19.5708C16.5259 19.5708 15.72 18.7649 15.72 17.7708C15.72 16.7767 16.5259 15.9708 17.52 15.9708C18.5141 15.9708 19.32 16.7767 19.32 17.7708Z" fill="black"/>
</svg>
