<svg width="25" height="24" viewBox="0 0 25 24" fill="none" xmlns="http://www.w3.org/2000/svg">
<path fill-rule="evenodd" clip-rule="evenodd" d="M15.02 5.5C15.02 7.433 12.3337 9 9.02002 9C5.70631 9 3.02002 7.433 3.02002 5.5C3.02002 3.567 5.70631 2 9.02002 2C12.3337 2 15.02 3.567 15.02 5.5ZM9.02002 11C11.738 11 14.0339 9.94574 14.7716 8.5C14.9332 8.81686 15.02 9.15251 15.02 9.5C15.02 11.433 12.3337 13 9.02002 13C5.70631 13 3.02002 11.433 3.02002 9.5C3.02002 9.15251 3.10683 8.81685 3.26849 8.5C4.0061 9.94574 6.302 11 9.02002 11ZM12.3823 14.3992C11.4232 14.7785 10.266 15 9.02002 15C6.302 15 4.0061 13.9457 3.26849 12.5C3.10683 12.8169 3.02002 13.1525 3.02002 13.5C3.02002 15.433 5.70631 17 9.02002 17C9.93471 17 10.8016 16.8806 11.5774 16.6671C11.6913 15.8464 11.9713 15.0787 12.3823 14.3992ZM11.6306 18.6522C11.7543 19.2886 11.9787 19.8891 12.2864 20.4364C11.3465 20.7929 10.2247 21 9.02002 21C5.70631 21 3.02002 19.433 3.02002 17.5C3.02002 17.1525 3.10683 16.8169 3.26849 16.5C4.0061 17.9457 6.302 19 9.02002 19C9.95567 19 10.8413 18.8751 11.6306 18.6522ZM14.02 22V20V19V18H15.02V16C15.02 14.3431 16.3632 13 18.02 13C19.6769 13 21.02 14.3431 21.02 16V18H22.02V19V20V22H14.02ZM17.02 16C17.02 15.4477 17.4677 15 18.02 15C18.5723 15 19.02 15.4477 19.02 16V18H17.02V16Z" fill="black"/>
</svg>
