<svg width="25" height="24" viewBox="0 0 25 24" fill="none" xmlns="http://www.w3.org/2000/svg">
<path fill-rule="evenodd" clip-rule="evenodd" d="M12.02 10C15.886 10 19.02 8.20914 19.02 6C19.02 3.79086 15.886 2 12.02 2C8.15403 2 5.02002 3.79086 5.02002 6C5.02002 8.20914 8.15403 10 12.02 10ZM18.7995 9C18.0224 10.7252 15.2817 12 12.02 12C8.7583 12 6.01763 10.7252 5.24055 9C5.09659 9.31962 5.02002 9.6547 5.02002 10C5.02002 12.2091 8.15403 14 12.02 14C15.886 14 19.02 12.2091 19.02 10C19.02 9.6547 18.9435 9.31962 18.7995 9ZM12.02 16C15.2817 16 18.0224 14.7252 18.7995 13C18.9435 13.3196 19.02 13.6547 19.02 14C19.02 16.2091 15.886 18 12.02 18C8.15403 18 5.02002 16.2091 5.02002 14C5.02002 13.6547 5.09659 13.3196 5.24055 13C6.01763 14.7252 8.7583 16 12.02 16ZM12.02 20C15.2817 20 18.0224 18.7252 18.7995 17C18.9435 17.3196 19.02 17.6547 19.02 18C19.02 20.2091 15.886 22 12.02 22C8.15403 22 5.02002 20.2091 5.02002 18C5.02002 17.6547 5.09659 17.3196 5.24055 17C6.01763 18.7252 8.7583 20 12.02 20Z" fill="black"/>
</svg>
