<svg width="24" height="24" viewBox="0 0 24 24" fill="none" xmlns="http://www.w3.org/2000/svg">
<path fill-rule="evenodd" clip-rule="evenodd" d="M4 4.00415C4 2.89958 4.89543 2.00415 6 2.00415H18C19.1046 2.00415 20 2.89958 20 4.00415V20.0042C20 21.1087 19.1046 22.0042 18 22.0042H6C4.89543 22.0042 4 21.1087 4 20.0042V4.00415ZM7 15.0042H8H16H17V16.0042V20.0042H15V17.0042H13V20.0042H11V17.0042H9V20.0042H7V16.0042V15.0042ZM8 5.00415H7V6.00415V11.0042V12.0042H8H16H17V11.0042V6.00415V5.00415H16H8ZM9 10.0042V7.00415H15V10.0042H9Z" fill="black"/>
</svg>
