<svg width="24" height="24" viewBox="0 0 24 24" fill="none" xmlns="http://www.w3.org/2000/svg">
<path fill-rule="evenodd" clip-rule="evenodd" d="M20 2.00415H4V19.0042C4 20.661 5.34315 22.0042 7 22.0042H17C18.6569 22.0042 20 20.661 20 19.0042V2.00415ZM12 16.0042C15.3137 16.0042 18 13.3179 18 10.0042C18 6.69044 15.3137 4.00415 12 4.00415C8.68629 4.00415 6 6.69044 6 10.0042C6 12.2865 7.27437 14.2712 9.15036 15.2856C8.53722 15.6571 7.93099 16.0398 7.32425 16.4217C7.04021 16.6004 6.74579 16.7857 6.51201 17.0195C5.82933 17.7022 5.82933 18.809 6.51201 19.4916C7.19463 20.1743 8.30146 20.1743 8.98415 19.4916C9.21783 19.2579 9.40311 18.9636 9.58184 18.6797C10.1488 17.7781 10.7103 16.8734 11.2555 15.9584C10.5017 15.8651 9.79077 15.6318 9.15036 15.2856C9.82351 14.878 10.5006 14.4765 11.1795 14.0786C11.3935 13.9536 11.6649 13.9887 11.8402 14.1639C12.0155 14.3392 12.0505 14.6106 11.9255 14.8246C11.7036 15.2034 11.4802 15.5813 11.2555 15.9584C11.4994 15.9886 11.748 16.0042 12 16.0042ZM18 19.0042C18 19.5564 17.5523 20.0042 17 20.0042C16.4477 20.0042 16 19.5564 16 19.0042C16 18.4519 16.4477 18.0042 17 18.0042C17.5523 18.0042 18 18.4519 18 19.0042ZM11 10.0042C11 9.45187 11.4477 9.00415 12 9.00415C12.5523 9.00415 13 9.45187 13 10.0042C13 10.5564 12.5523 11.0042 12 11.0042C11.4477 11.0042 11 10.5564 11 10.0042ZM12 7.00415C10.3431 7.00415 9 8.3473 9 10.0042C9 11.661 10.3431 13.0042 12 13.0042C13.6569 13.0042 15 11.661 15 10.0042C15 8.3473 13.6569 7.00415 12 7.00415Z" fill="black"/>
</svg>
