<svg width="24" height="24" viewBox="0 0 24 24" fill="none" xmlns="http://www.w3.org/2000/svg">
<path fill-rule="evenodd" clip-rule="evenodd" d="M4 2H20V19C20 20.6569 18.6569 22 17 22H7C5.42323 22 4.13058 20.7836 4.0093 19.238L4 19.2434V2ZM17 20H10.106C10.5372 19.3336 10.9494 18.655 11.3579 17.9746C11.5699 17.9914 11.784 18 12 18C14.3894 18 16.5341 16.9525 18 15.2916V19C18 19.5523 17.5523 20 17 20ZM18 10C18 13.1655 15.5487 15.7584 12.4407 15.9841C12.6074 15.3159 12.4201 14.5916 11.9142 14.0858C11.2716 13.4432 10.2764 13.3146 9.49155 13.7729C9.03506 14.0404 8.57975 14.3099 8.12589 14.5819C6.82409 13.4801 6 11.8362 6 10C6 6.68629 8.68629 4 12 4C15.3137 4 18 6.68629 18 10ZM7.10831 20C7.65039 19.9971 7.9493 19.6261 8.22516 19.2185C8.98062 18.1022 10.5 15.5 10.5 15.5C10.5 15.5 7.89778 17.0194 6.78152 17.7749C6.55838 17.9259 6.39461 18.0464 6.32289 18.1181C5.89237 18.5486 5.89237 19.2466 6.32289 19.6771C6.53076 19.885 6.81493 20 7.10831 20ZM11 10C11 9.44772 11.4477 9 12 9C12.5523 9 13 9.44772 13 10C13 10.5523 12.5523 11 12 11C11.4477 11 11 10.5523 11 10ZM12 13C13.6569 13 15 11.6569 15 10C15 8.34315 13.6569 7 12 7C10.3431 7 9 8.34315 9 10C9 11.6569 10.3431 13 12 13Z" fill="black"/>
</svg>
