<svg width="24" height="24" viewBox="0 0 24 24" fill="none" xmlns="http://www.w3.org/2000/svg">
<path fill-rule="evenodd" clip-rule="evenodd" d="M11 5C11 4.44772 11.4477 4 12 4C12.5523 4 13 4.44772 13 5C13 5.55228 12.5523 6 12 6C11.4477 6 11 5.55228 11 5ZM12 2C10.3431 2 9 3.34315 9 5C9 6.30622 9.83481 7.41746 11 7.82929V11H6V16.1707C4.83481 16.5825 4 17.6938 4 19C4 20.6569 5.34315 22 7 22C8.65685 22 10 20.6569 10 19C10 17.6938 9.16519 16.5825 8 16.1707V13H16V16.1707C14.8348 16.5825 14 17.6938 14 19C14 20.6569 15.3431 22 17 22C18.6569 22 20 20.6569 20 19C20 17.6938 19.1652 16.5825 18 16.1707V11H13V7.82929C14.1652 7.41746 15 6.30622 15 5C15 3.34315 13.6569 2 12 2ZM7 18C6.44772 18 6 18.4477 6 19C6 19.5523 6.44772 20 7 20C7.55228 20 8 19.5523 8 19C8 18.4477 7.55228 18 7 18ZM16 19C16 18.4477 16.4477 18 17 18C17.5523 18 18 18.4477 18 19C18 19.5523 17.5523 20 17 20C16.4477 20 16 19.5523 16 19Z" fill="black"/>
</svg>
