<svg width="24" height="24" viewBox="0 0 24 24" fill="none" xmlns="http://www.w3.org/2000/svg">
<path fill-rule="evenodd" clip-rule="evenodd" d="M12 2L12.5359 2.34165C17.1666 5.29408 20.6093 9.40627 21.6529 10.8998C22.1157 11.5622 22.1157 12.4378 21.6529 13.1002C20.6093 14.5937 17.1666 18.7059 12.5359 21.6584L12 22L11.4642 21.6584C6.83344 18.7059 3.39069 14.5937 2.34712 13.1002C1.88429 12.4378 1.88429 11.5622 2.34712 10.8998C3.39069 9.40627 6.83344 5.29408 11.4642 2.34165L12 2ZM4.01522 12C4.99842 13.4001 8.02976 16.926 12 19.6185C15.9702 16.926 19.0016 13.4001 19.9848 12C19.0016 10.5999 15.9702 7.074 12 4.38149C8.02976 7.074 4.99842 10.5999 4.01522 12Z" fill="black"/>
</svg>
