<svg width="24" height="24" viewBox="0 0 24 24" fill="none" xmlns="http://www.w3.org/2000/svg">
<path fill-rule="evenodd" clip-rule="evenodd" d="M12.5472 2.33543L12 2L11.4528 2.33543C6.72361 5.23415 3.42025 9.45345 2.3545 10.9199C1.88183 11.5702 1.88183 12.4298 2.3545 13.0801C3.42025 14.5465 6.72361 18.7659 11.4528 21.6646L12 22L12.5472 21.6646C17.2764 18.7659 20.5797 14.5465 21.6455 13.0801C22.1182 12.4298 22.1182 11.5702 21.6455 10.9199C20.5797 9.45345 17.2764 5.23415 12.5472 2.33543ZM12 19.6618C11.9999 19.6618 12 19.6618 12 19.6618C16.0546 17.0183 18.9378 13.3747 19.9419 12C18.9378 10.6253 16.0546 6.98169 12 4.33816C12 4.33817 12 4.33815 12 4.33816L12 19.6618Z" fill="black"/>
</svg>
