<svg width="24" height="24" viewBox="0 0 24 24" fill="none" xmlns="http://www.w3.org/2000/svg">
<path fill-rule="evenodd" clip-rule="evenodd" d="M12 4.02531L4.02531 12L12 19.9747L19.9747 12L12 4.02531ZM3.98226 12.043L3.9821 12.0432L3.93889 12L3.9821 12.0432C3.98216 12.0432 3.98221 12.0431 3.98226 12.043ZM12.0431 3.98226L12.0432 3.9821L12 3.93889L12.0432 3.9821C12.0432 3.98215 12.0431 3.98221 12.0431 3.98226ZM10.629 2.56789C11.3862 1.8107 12.6138 1.81071 13.371 2.56789L21.4321 10.629C22.1893 11.3862 22.1893 12.6138 21.4321 13.371L13.371 21.4321C12.6138 22.1893 11.3862 22.1893 10.629 21.4321L2.56789 13.371C1.8107 12.6138 1.81071 11.3862 2.56789 10.629L10.629 2.56789Z" fill="black"/>
</svg>
