<svg width="24" height="24" viewBox="0 0 24 24" fill="none" xmlns="http://www.w3.org/2000/svg">
<path fill-rule="evenodd" clip-rule="evenodd" d="M5 3C3.89543 3 3 3.89543 3 5V19C3 20.1046 3.89543 21 5 21H19C20.1046 21 21 20.1046 21 19V5C21 3.89543 20.1046 3 19 3H5ZM7.5 9C8.32843 9 9 8.32843 9 7.5C9 6.67157 8.32843 6 7.5 6C6.67157 6 6 6.67157 6 7.5C6 8.32843 6.67157 9 7.5 9ZM16.5 9C17.3284 9 18 8.32843 18 7.5C18 6.67157 17.3284 6 16.5 6C15.6716 6 15 6.67157 15 7.5C15 8.32843 15.6716 9 16.5 9ZM13.5 12C13.5 12.8284 12.8284 13.5 12 13.5C11.1716 13.5 10.5 12.8284 10.5 12C10.5 11.1716 11.1716 10.5 12 10.5C12.8284 10.5 13.5 11.1716 13.5 12ZM16.5 18C17.3284 18 18 17.3284 18 16.5C18 15.6716 17.3284 15 16.5 15C15.6716 15 15 15.6716 15 16.5C15 17.3284 15.6716 18 16.5 18ZM9 16.5C9 17.3284 8.32843 18 7.5 18C6.67157 18 6 17.3284 6 16.5C6 15.6716 6.67157 15 7.5 15C8.32843 15 9 15.6716 9 16.5Z" fill="black"/>
</svg>
