<svg width="24" height="24" viewBox="0 0 24 24" fill="none" xmlns="http://www.w3.org/2000/svg">
<path fill-rule="evenodd" clip-rule="evenodd" d="M5 3C3.89543 3 3 3.89543 3 5V19C3 20.1046 3.89543 21 5 21H19C20.1046 21 21 20.1046 21 19V5C21 3.89543 20.1046 3 19 3H5ZM5 5H19V19H5V5ZM8.99999 7.50002C8.99999 8.32846 8.32842 9.00004 7.49999 9.00004C6.67157 9.00004 6 8.32846 6 7.50002C6 6.67158 6.67157 6 7.49999 6C8.32842 6 8.99999 6.67158 8.99999 7.50002ZM18 7.50002C18 8.32846 17.3284 9.00004 16.5 9.00004C15.6716 9.00004 15 8.32846 15 7.50002C15 6.67158 15.6716 6 16.5 6C17.3284 6 18 6.67158 18 7.50002ZM16.5 18C17.3284 18 18 17.3285 18 16.5C18 15.6716 17.3284 15 16.5 15C15.6716 15 15 15.6716 15 16.5C15 17.3285 15.6716 18 16.5 18ZM8.99999 16.5C8.99999 17.3285 8.32842 18 7.49999 18C6.67157 18 6 17.3285 6 16.5C6 15.6716 6.67157 15 7.49999 15C8.32842 15 8.99999 15.6716 8.99999 16.5Z" fill="black"/>
</svg>
