<svg width="24" height="24" viewBox="0 0 24 24" fill="none" xmlns="http://www.w3.org/2000/svg">
<path fill-rule="evenodd" clip-rule="evenodd" d="M14 12C14 13.1046 13.1046 14 12 14C10.8954 14 10 13.1046 10 12C10 10.8954 10.8954 10 12 10C13.1046 10 14 10.8954 14 12ZM22 12C22 17.5228 17.5228 22 12 22C6.47715 22 2 17.5228 2 12C2 6.47715 6.47715 2 12 2C17.5228 2 22 6.47715 22 12ZM8.46447 8.46447C9.44097 7.48796 10.7188 7 12 7V5C10.2101 5 8.41689 5.68361 7.05025 7.05025C5.68361 8.41689 5 10.2101 5 12H7C7 10.7188 7.48796 9.44097 8.46447 8.46447ZM17 12C17 13.2812 16.512 14.559 15.5355 15.5355C14.559 16.512 13.2812 17 12 17V19C13.7899 19 15.5831 18.3164 16.9497 16.9497C18.3164 15.5831 19 13.7899 19 12H17Z" fill="black"/>
</svg>
