<svg width="24" height="24" viewBox="0 0 24 24" fill="none" xmlns="http://www.w3.org/2000/svg">
<path fill-rule="evenodd" clip-rule="evenodd" d="M4 12C4 7.58172 7.58172 4 12 4C16.4183 4 20 7.58172 20 12C20 16.4183 16.4183 20 12 20C7.58172 20 4 16.4183 4 12ZM12 2C6.47715 2 2 6.47715 2 12C2 17.5228 6.47715 22 12 22C17.5228 22 22 17.5228 22 12C22 6.47715 17.5228 2 12 2ZM12 8C10.9748 8 9.95282 8.39033 9.17157 9.17157C8.39033 9.95282 8 10.9748 8 12H6C6 10.466 6.58598 8.92874 7.75736 7.75736C8.92874 6.58598 10.466 6 12 6V8ZM14.8284 14.8284C15.6097 14.0472 16 13.0252 16 12H18C18 13.534 17.414 15.0713 16.2426 16.2426C15.0713 17.414 13.534 18 12 18V16C13.0252 16 14.0472 15.6097 14.8284 14.8284ZM14 12C14 13.1046 13.1046 14 12 14C10.8954 14 10 13.1046 10 12C10 10.8954 10.8954 10 12 10C13.1046 10 14 10.8954 14 12Z" fill="black"/>
</svg>
