<svg width="24" height="24" viewBox="0 0 24 24" fill="none" xmlns="http://www.w3.org/2000/svg">
<path fill-rule="evenodd" clip-rule="evenodd" d="M12.5 2.00003L13.0632 3.4081C13.8839 5.45984 14.9203 7.18208 16.0621 8.6463L16.063 8.64744C16.2238 8.85365 16.384 9.05913 16.5426 9.26529C17.7966 10.8954 19 12.6334 19 15C19 18.866 15.866 22 12 22C8.13401 22 5 18.866 5 15C5 12.7541 5.83934 10.5741 7.01751 8.61051C8.19888 6.64155 9.89352 4.60651 11.4276 3.07239L12.5 2.00003ZM8.73249 9.6395C7.83118 11.1417 7.22062 12.6677 7.04916 14.1582C7.72011 14.7326 8.32586 14.915 9.00007 14.973C9.00903 13.1961 9.89374 11.6727 10.6541 10.4667L12.3459 11.5333C11.6328 12.6645 11.086 13.685 11.0093 14.7459C11.3768 14.5788 11.7509 14.3473 12.1384 14.1075C13 13.5744 13.9282 13 15 13.0001C15.671 13.0001 16.2294 13.1127 16.6753 13.2622C16.3312 12.358 15.7309 11.4903 14.9574 10.4847C14.8086 10.2914 14.654 10.0936 14.4953 9.89048C13.5939 8.73742 12.6932 7.19237 11.8378 5.53238C10.7326 6.73357 9.55511 8.26847 8.73249 9.6395Z" fill="black"/>
</svg>
