<svg width="24" height="24" viewBox="0 0 24 24" fill="none" xmlns="http://www.w3.org/2000/svg">
<path fill-rule="evenodd" clip-rule="evenodd" d="M13.0632 3.40807L12.5 2L11.4276 3.07236C9.89352 4.60648 8.19888 6.6417 7.01751 8.61066C5.83934 10.5743 5 12.7543 5 15.0002C5 18.8661 8.13401 22.0002 12 22.0002C15.866 22.0002 19 18.8661 19 15.0002C19 12.6335 17.7966 10.8956 16.5426 9.26544C16.3837 9.0589 16.2232 8.85306 16.0621 8.64646C14.9203 7.18224 13.8839 5.45981 13.0632 3.40807ZM11 15.0002C11 13.8469 11.576 12.7546 12.3459 11.5333L10.6541 10.4667C9.88987 11.6789 9 13.2116 9 15.0002H11Z" fill="black"/>
</svg>
