<svg width="24" height="24" viewBox="0 0 24 24" fill="none" xmlns="http://www.w3.org/2000/svg">
<path fill-rule="evenodd" clip-rule="evenodd" d="M13.0632 3.4081L12.5 2.00003L11.4276 3.07239C9.89352 4.60651 8.19888 6.64155 7.01751 8.61051C5.83934 10.5741 5 12.7541 5 15C5 18.866 8.13401 22 12 22C15.866 22 19 18.866 19 15C19 12.6334 17.7966 10.8954 16.5426 9.26529C16.3837 9.05875 16.2232 8.8529 16.0621 8.64631C14.9203 7.18209 13.8839 5.45984 13.0632 3.4081ZM7 15C7 13.2459 7.66066 11.4259 8.73249 9.6395C9.55511 8.26847 10.7326 6.73357 11.8378 5.53238C12.6932 7.19237 13.5939 8.73742 14.4953 9.89048C14.654 10.0936 14.8087 10.2914 14.9574 10.4847C16.2034 12.1046 17 13.3666 17 15C17 17.7614 14.7614 20 12 20C9.23858 20 7 17.7614 7 15ZM11 15.0002C11 13.8469 11.576 12.7546 12.3459 11.5333L10.6541 10.4667C9.88987 11.6789 9 13.2116 9 15.0002H11Z" fill="black"/>
</svg>
