<svg width="24" height="24" viewBox="0 0 24 24" fill="none" xmlns="http://www.w3.org/2000/svg">
<path fill-rule="evenodd" clip-rule="evenodd" d="M12 2C8.13401 2 5 5.13401 5 9L5.00005 17.0005C5.00017 19.7617 7.23857 22 9.99973 22C11.1816 22 12.3278 21.4063 13.3193 20.6064C14.3289 19.7918 15.2878 18.6761 16.115 17.4272C17.7557 14.9499 19 11.759 19 9C19 5.13401 15.866 2 12 2ZM11 9C11 8.44772 11.4477 8 12 8C12.5523 8 13 8.44772 13 9C13 9.27944 12.8867 9.5306 12.701 9.71317L14.1031 11.1394C14.6556 10.5963 15 9.83744 15 9C15 7.34315 13.6569 6 12 6C10.3431 6 9 7.34315 9 9V12V16V17H10C11.6569 17 13 15.6569 13 14C13 12.6938 12.1652 11.5825 11 11.1707V9Z" fill="black"/>
</svg>
