<svg width="24" height="24" viewBox="0 0 24 24" fill="none" xmlns="http://www.w3.org/2000/svg">
<path fill-rule="evenodd" clip-rule="evenodd" d="M12 4C9.23858 4 7 6.23858 7 9L7.00005 17.0005C7.00012 18.6571 8.3431 20 9.99973 20C10.5264 20 11.2344 19.7187 12.0634 19.0499C12.8741 18.3957 13.7017 17.4489 14.4475 16.3228C15.9527 14.0501 17 11.241 17 9C17 6.23858 14.7614 4 12 4ZM5 9C5 5.13401 8.13401 2 12 2C15.866 2 19 5.13401 19 9C19 11.759 17.7557 14.9499 16.115 17.4272C15.2878 18.6761 14.3289 19.7918 13.3193 20.6064C12.3278 21.4063 11.1816 22 9.99973 22C7.23857 22 5.00017 19.7617 5.00005 17.0005L5 9ZM11 9C11 8.44772 11.4477 8 12 8C12.5523 8 13 8.44772 13 9C13 9.27944 12.8867 9.5306 12.701 9.71317L14.1031 11.1394C14.6556 10.5963 15 9.83744 15 9C15 7.34315 13.6569 6 12 6C10.3431 6 9 7.34315 9 9V17H10C11.6569 17 13 15.6569 13 14C13 12.6938 12.1652 11.5825 11 11.1707V9Z" fill="black"/>
</svg>
