<svg width="25" height="24" viewBox="0 0 25 24" fill="none" xmlns="http://www.w3.org/2000/svg">
<path fill-rule="evenodd" clip-rule="evenodd" d="M6.02002 3C8.78144 3 11.02 5.23858 11.02 8V16C11.02 17.3062 10.1852 18.4175 9.02002 18.8293V22H7.02002V18.8293C5.85483 18.4175 5.02002 17.3062 5.02002 16V12.8999C3.93379 12.6792 2.97527 12.1063 2.27028 11.3076L2.02002 11.024V4.97599L2.27028 4.69244C3.185 3.65607 4.52651 3 6.02002 3ZM5.02002 6C4.46773 6 4.02002 6.44772 4.02002 7V9C4.02002 9.55228 4.46773 10 5.02002 10C5.5723 10 6.02002 9.55228 6.02002 9V7C6.02002 6.44772 5.5723 6 5.02002 6ZM15.02 18.8293V22H17.02V18.8293C18.1852 18.4175 19.02 17.3062 19.02 16V12.8999C20.1062 12.6792 21.0648 12.1063 21.7698 11.3076L22.02 11.024V4.97599L21.7698 4.69244C20.855 3.65607 19.5135 3 18.02 3C15.2586 3 13.02 5.23858 13.02 8V16C13.02 17.3062 13.8548 18.4175 15.02 18.8293ZM20.02 7C20.02 6.44772 19.5723 6 19.02 6C18.4677 6 18.02 6.44772 18.02 7V9C18.02 9.55228 18.4677 10 19.02 10C19.5723 10 20.02 9.55228 20.02 9V7Z" fill="black"/>
</svg>
