<svg width="24" height="24" viewBox="0 0 24 24" fill="none" xmlns="http://www.w3.org/2000/svg">
<path fill-rule="evenodd" clip-rule="evenodd" d="M6 3C8.76142 3 11 5.23858 11 8V16C11 17.3062 10.1652 18.4175 9 18.8293V22H7V18.8293C5.83481 18.4175 5 17.3062 5 16V12.8999C3.76947 12.6498 2.81295 11.9451 2 11.024V4.97599C3.04549 3.79146 4.37447 3 6 3ZM9 8C9 6.34315 7.65685 5 6 5C5.23166 5 4.53148 5.28792 4 5.76383V6C4.55228 6 5 6.44772 5 7V9C5 9.55228 4.55228 10 4 10V10.2362C4.53148 10.7121 5.23166 11 6 11H7V16C7 16.5523 7.44772 17 8 17C8.55228 17 9 16.5523 9 16V8ZM13 8C13 5.23858 15.2386 3 18 3C19.6255 3 20.9545 3.79145 22 4.97599V11.024C21.1871 11.9451 20.2305 12.6498 19 12.8999V16C19 17.3062 18.1652 18.4175 17 18.8293V22H15V18.8293C13.8348 18.4175 13 17.3062 13 16V8ZM18 5C16.3431 5 15 6.34315 15 8V16C15 16.5523 15.4477 17 16 17C16.5523 17 17 16.5523 17 16V11H18C18.7683 11 19.4685 10.7121 20 10.2362V10C19.4477 10 19 9.55228 19 9V7C19 6.44772 19.4477 6 20 6V5.76383C19.4685 5.28792 18.7683 5 18 5Z" fill="black"/>
</svg>
