<svg width="24" height="24" viewBox="0 0 24 24" fill="none" xmlns="http://www.w3.org/2000/svg">
<path fill-rule="evenodd" clip-rule="evenodd" d="M11 2V4H2V6H4V22H6V20H11V22H13V20H18V22H20V6H22V4H13V2H11ZM6 14.7428V18H18V13.1548C17.759 12.4994 17.2305 12 16.5 12C15.8923 12 15.3455 12.3226 14.7437 12.9076C14.1267 13.5074 13.629 14.2341 12.9577 14.7774C12.0133 15.5416 10.8088 16 9.5 16C8.17037 16 6.95094 15.5282 6 14.7428ZM18 10.324C17.5821 10.1266 17.0849 10 16.5 10C15.1077 10 14.0786 10.7649 13.3496 11.4736C12.7792 12.0281 12.3188 12.7216 11.6996 13.2226C11.0983 13.7092 10.3344 14 9.5 14C7.567 14 6 12.433 6 10.5V6H18V10.324ZM11 9.5C11 10.3284 10.3284 11 9.5 11C8.67157 11 8 10.3284 8 9.5C8 8.67157 8.67157 8 9.5 8C10.3284 8 11 8.67157 11 9.5Z" fill="black"/>
</svg>
