<svg width="24" height="24" viewBox="0 0 24 24" fill="none" xmlns="http://www.w3.org/2000/svg">
<path fill-rule="evenodd" clip-rule="evenodd" d="M13.5224 4.00001H19H20V5.00001V13C20 14.5628 18.805 15.8465 17.279 15.9872L18.8771 21.4372L16.9579 22L15.1985 16H13V20.0003H11V16H8.8015L7.04211 22L5.12292 21.4372L6.72104 15.9872C5.19497 15.8465 4 14.5628 4 13V5.00001V4.00001H5H10.4776L11 2H13L13.5224 4.00001ZM6 13V6.00001H18V13C18 13.5523 17.5523 14 17 14H7C6.44772 14 6 13.5523 6 13Z" fill="black"/>
</svg>
