<svg width="24" height="24" viewBox="0 0 24 24" fill="none" xmlns="http://www.w3.org/2000/svg">
<path fill-rule="evenodd" clip-rule="evenodd" d="M11 2H13V3H21V14H22V16H17.2827L18.8771 21.4372L16.9579 22L16.3714 20H7.62857L7.04211 22L5.12292 21.4372L6.71729 16H2V14H3V3H11V2ZM8.80151 16L8.21504 18H15.785L15.1985 16H8.80151ZM10.2222 10C9.47861 10 9 10.4993 9 11H7C7 9.08663 8.70971 8 10.2222 8C10.9883 8 11.7554 8.31726 12.3037 8.54403L12.3798 8.57548C13.0399 8.84756 13.4499 9 13.7778 9C14.5203 9 15 8.49481 15 8H17C17 9.8999 15.2983 11 13.7778 11C13.0094 11 12.2409 10.6823 11.6918 10.4552L11.6176 10.4245C10.9568 10.1521 10.5481 10 10.2222 10Z" fill="black"/>
</svg>
