<svg width="24" height="24" viewBox="0 0 24 24" fill="none" xmlns="http://www.w3.org/2000/svg">
<path fill-rule="evenodd" clip-rule="evenodd" d="M13 2H11V3H3V14H2V16H6.71729L5.12292 21.4372L7.04211 22L7.62857 20H16.3714L16.9579 22L18.8771 21.4372L17.2827 16H22V14H21V3H13V2ZM8.21504 18L8.80151 16H11V18H8.21504ZM13 18V16H15.1985L15.785 18H13ZM5 14H19V5H5V14ZM9 11C9 10.4993 9.47861 10 10.2222 10C10.5481 10 10.9568 10.1521 11.6176 10.4245L11.6918 10.4552C12.2409 10.6823 13.0094 11 13.7778 11C15.2983 11 17 9.8999 17 8H15C15 8.49481 14.5203 9 13.7778 9C13.4499 9 13.0399 8.84756 12.3798 8.57548L12.3037 8.54404C11.7554 8.31726 10.9883 8 10.2222 8C8.70971 8 7 9.08663 7 11H9Z" fill="black"/>
</svg>
