<svg width="24" height="24" viewBox="0 0 24 24" fill="none" xmlns="http://www.w3.org/2000/svg">
<path fill-rule="evenodd" clip-rule="evenodd" d="M11 2V4H2V6H4V22H6V20H11V22H13V20H18V22H20V6H22V4H13V2H11ZM6 13.3287V6H18V11.4895C17.6335 11.2078 17.1447 11 16.5 11C15.0533 11 14.0504 12.1381 13.2203 13.08C12.9029 13.4402 12.6107 13.7718 12.3287 14C11.5558 14.6254 10.5716 15 9.5 15C8.08637 15 6.82498 14.3482 6 13.3287ZM11 10.5C11 11.3284 10.3284 12 9.5 12C8.67157 12 8 11.3284 8 10.5C8 9.67157 8.67157 9 9.5 9C10.3284 9 11 9.67157 11 10.5Z" fill="black"/>
</svg>
