<svg width="24" height="24" viewBox="0 0 24 24" fill="none" xmlns="http://www.w3.org/2000/svg">
<path fill-rule="evenodd" clip-rule="evenodd" d="M5.1469 5.76065C5.75121 3.30923 8.04342 2 10.5 2C12.7566 2 14.0493 2.91217 15.0953 3.70193C15.9821 4.372 16.8396 5 18 5C20.2091 5 22 6.79086 22 9C22 10.5249 21.7555 11.3528 21.5194 12.1522C21.1462 13.4158 21 14.6806 21 16C21 19.3137 18.3137 22 15 22C13.7706 22 12.727 21.7235 11.8059 21.4795L11.7576 21.4667C10.8058 21.2146 9.97447 21 9 21C5.13401 21 2 17.866 2 14C2 12.0042 2.97992 10.2972 3.76763 8.85491C4.36473 7.76162 4.89132 6.79744 5.1469 5.76065ZM10.5 4C8.69299 4 7.41407 4.91972 7.08877 6.23935C6.76506 7.55247 6.08994 8.78279 5.49378 9.86918C4.64292 11.4198 4 12.6705 4 14C4 16.7614 6.23858 19 9 19C10.2561 19 11.3138 19.2801 12.2436 19.5264L12.2697 19.5333C13.2247 19.7863 14.045 20 15 20C17.2091 20 19 18.2091 19 16C19 14.4894 19.1735 13.0348 19.6007 11.5875C19.8212 10.8405 20 10.2349 20 9C20 7.89543 19.1046 7 18 7C16.0199 7 14.8557 6.02709 13.8901 5.29807C12.9495 4.58783 12.0937 4 10.5 4ZM12 9C10.3431 9 9 10.3431 9 12C9 12.8932 9.39039 13.6953 10.0099 14.2449C10.0033 14.1641 10 14.0824 10 14C10 12.3431 11.3431 11 13 11C13.7636 11 14.4606 11.2853 14.9901 11.7551C14.8656 10.2128 13.5744 9 12 9ZM7 12C7 9.23858 9.23858 7 12 7C14.7614 7 17 9.23858 17 12C17 14.7614 14.7614 17 12 17C9.23858 17 7 14.7614 7 12Z" fill="black"/>
</svg>
