<svg width="24" height="24" viewBox="0 0 24 24" fill="none" xmlns="http://www.w3.org/2000/svg">
<path fill-rule="evenodd" clip-rule="evenodd" d="M7.86193 7.13202C6.70279 9.10256 6 11.6774 6 14C6 17.3137 8.68629 20 12 20C15.3137 20 18 17.3137 18 14C18 11.6774 17.2972 9.10256 16.1381 7.13202C14.9554 5.12152 13.4693 4 12 4C10.5307 4 9.04458 5.12152 7.86193 7.13202ZM6.13807 6.11798C7.45542 3.87848 9.46934 2 12 2C14.5307 2 16.5446 3.87848 17.8619 6.11798C19.2028 8.39744 20 11.3226 20 14C20 18.4183 16.4183 22 12 22C7.58172 22 4 18.4183 4 14C4 11.3226 4.79721 8.39744 6.13807 6.11798Z" fill="black"/>
</svg>
