<svg width="24" height="24" viewBox="0 0 24 24" fill="none" xmlns="http://www.w3.org/2000/svg">
<path fill-rule="evenodd" clip-rule="evenodd" d="M13.4002 2.58125C12.6269 1.80625 11.3731 1.80625 10.5998 2.58125L3.58397 9.61221C3.17661 10.0204 2.99648 10.5233 3.00005 11.0155C3.00741 12.0305 3.7961 13 4.98421 13H19.0158C20.78 13 21.6635 10.8624 20.416 9.61221L13.4002 2.58125ZM4.98421 11.0155L12 3.98452L19.0158 11.0155H4.98421ZM19 21C20.1046 21 21 20.1046 21 19V15H3V19C3 20.1046 3.89543 21 5 21H19ZM5 19V17H19V19H5Z" fill="black"/>
</svg>
