<svg width="24" height="24" viewBox="0 0 24 24" fill="none" xmlns="http://www.w3.org/2000/svg">
<path fill-rule="evenodd" clip-rule="evenodd" d="M7 2H9V4H7V2ZM11 2H13V4H11V2ZM17 2H15V4H17V2ZM15 20V22H17V20H15ZM13 20H11V22H13V20ZM9 20H7V22H9V20ZM20 7H22V9H20V7ZM22 11H20V13H22V11ZM20 15H22V17H20V15ZM4 7H2V9H4V7ZM2 11H4V13H2V11ZM4 15H2V17H4V15ZM6 8C6 6.89543 6.89543 6 8 6H16C17.1046 6 18 6.89543 18 8V16C18 17.1046 17.1046 18 16 18H8C6.89543 18 6 17.1046 6 16V8ZM16 8H8V16H16V8ZM14 10H10V14H14V10Z" fill="black"/>
</svg>
