<svg width="24" height="24" viewBox="0 0 24 24" fill="none" xmlns="http://www.w3.org/2000/svg">
<path fill-rule="evenodd" clip-rule="evenodd" d="M9 2.00415H7V4.00415H9V2.00415ZM13 2.00415H11V4.00415H13V2.00415ZM15 2.00415H17V4.00415H15V2.00415ZM15 22.0042V20.0042H17V22.0042H15ZM11 20.0042H13V22.0042H11V20.0042ZM7 20.0042H9V22.0042H7V20.0042ZM22 7.00415H20V9.00415H22V7.00415ZM20 11.0042H22V13.0042H20V11.0042ZM22 15.0042H20V17.0042H22V15.0042ZM2 7.00415H4V9.00415H2V7.00415ZM4 11.0042H2V13.0042H4V11.0042ZM2 15.0042H4V17.0042H2V15.0042ZM6 8.00415C6 6.89958 6.89543 6.00415 8 6.00415H16C17.1046 6.00415 18 6.89958 18 8.00415V16.0042C18 17.1087 17.1046 18.0042 16 18.0042H8C6.89543 18.0042 6 17.1087 6 16.0042V8.00415ZM10 10.0042H14V14.0042H10V10.0042Z" fill="black"/>
</svg>
