<svg width="24" height="24" viewBox="0 0 24 24" fill="none" xmlns="http://www.w3.org/2000/svg">
<path fill-rule="evenodd" clip-rule="evenodd" d="M7 12H11.7654C13.2584 12 14.5241 10.9022 14.7353 9.42427L15.1638 6.42426C15.422 4.61696 14.0196 3 12.194 3H9C6.79086 3 5 4.79086 5 7V10C4.02938 10.3182 3.12021 9.7949 3 9H2C2 10.6569 3.34315 12 5 12C5 12.1732 5.0198 12.4148 5.04272 12.6943C5.14637 13.9588 5.31369 16 4 16V17C5.65685 17 7 15.6569 7 14V12ZM10 8C10 8.55228 9.55228 9 9 9C8.44772 9 8 8.55228 8 8C8 7.44772 8.44772 7 9 7C9.55228 7 10 7.44772 10 8ZM22 5C22 6.09492 21.5603 7.08612 20.8486 7.80788C21.5677 8.67386 22 9.78644 22 11V20H17.7192L17.5299 19.2425C17.1011 17.5277 16.1446 17 15.5 17C14.8554 17 13.8989 17.5277 13.4701 19.2425L13.2808 20H9V14H11.7654C14.2536 14 16.3633 12.1704 16.7151 9.70711L17.1437 6.70711C17.1772 6.47264 17.1941 6.23879 17.1949 6.00678C18 6.00678 18.7932 6.2764 19.4194 6.6233C20.0924 6.33767 20.6399 5.90944 20.9766 5H22Z" fill="black"/>
</svg>
