<svg width="24" height="24" viewBox="0 0 24 24" fill="none" xmlns="http://www.w3.org/2000/svg">
<path fill-rule="evenodd" clip-rule="evenodd" d="M9 5C7.89543 5 7 5.89543 7 7V10H11.7654C12.2631 10 12.685 9.63407 12.7554 9.14142L13.1839 6.14142C13.27 5.53899 12.8025 5 12.194 5H9ZM7 14V12H8C8.55228 12 9 12.4477 9 13V20H13.2808L13.4701 19.2425C13.8989 17.5277 14.8554 17 15.5 17C16.1446 17 17.1011 17.5277 17.5299 19.2425L17.7192 20H22V11C22 9.78644 21.5677 8.67386 20.8486 7.80789C21.5603 7.08612 22 6.09492 22 5H20C20 5.62098 19.7167 6.17711 19.2712 6.5444C18.5897 6.19632 17.8178 6 17 6H15.1945C15.1977 4.37146 13.8753 3 12.194 3H9C6.79086 3 5 4.79086 5 7V10C4.44772 10 4 9.55228 4 9H2C2 10.6569 3.34315 12 5 12V14C5 14.5523 4.55228 15 4 15V17C5.65685 17 7 15.6569 7 14ZM11 13C11 12.6494 10.9398 12.3128 10.8293 12H11.7654C13.2584 12 14.5241 10.9022 14.7353 9.42427L14.9387 8H17C18.6569 8 20 9.34315 20 11V18H19.2346C18.5386 16.1522 17.1413 15 15.5 15C13.8587 15 12.4614 16.1522 11.7654 18H11V13ZM9 9C9.55228 9 10 8.55228 10 8C10 7.44772 9.55228 7 9 7C8.44771 7 8 7.44772 8 8C8 8.55228 8.44771 9 9 9Z" fill="black"/>
</svg>
