<svg width="24" height="24" viewBox="0 0 24 24" fill="none" xmlns="http://www.w3.org/2000/svg">
<path fill-rule="evenodd" clip-rule="evenodd" d="M4 12C4 16.4183 7.58172 20 12 20C16.4183 20 20 16.4183 20 12C20 7.58172 16.4183 4 12 4C7.58172 4 4 7.58172 4 12ZM12 22C6.47715 22 2 17.5228 2 12C2 6.47715 6.47715 2 12 2C17.5228 2 22 6.47715 22 12C22 17.5228 17.5228 22 12 22ZM8.5 13C9.32843 13 10 13.6716 10 14.5C10 15.3284 9.32843 16 8.5 16C7.67157 16 7 15.3284 7 14.5C7 13.6716 7.67157 13 8.5 13ZM17 14.5C17 13.6716 16.3284 13 15.5 13C14.6716 13 14 13.6716 14 14.5C14 15.3284 14.6716 16 15.5 16C16.3284 16 17 15.3284 17 14.5ZM8 11C8 8.79086 9.79086 7 12 7C14.2091 7 16 8.79086 16 11H14C14 9.89543 13.1046 9 12 9C10.8954 9 10 9.89543 10 11H8Z" fill="black"/>
</svg>
