<svg width="24" height="24" viewBox="0 0 24 24" fill="none" xmlns="http://www.w3.org/2000/svg">
<path fill-rule="evenodd" clip-rule="evenodd" d="M12 22C17.5228 22 22 17.5228 22 12C22 6.47715 17.5228 2 12 2C6.47715 2 2 6.47715 2 12C2 17.5228 6.47715 22 12 22ZM8.5 11C9.32843 11 10 10.3284 10 9.5C10 8.67157 9.32843 8 8.5 8C7.67157 8 7 8.67157 7 9.5C7 10.3284 7.67157 11 8.5 11ZM12 18C9.79086 18 8 16.2091 8 14H10C10 15.1046 10.8954 16 12 16C13.1046 16 14 15.1046 14 14H16C16 16.2091 14.2091 18 12 18ZM12.6 9C12.6 10.3255 13.6745 11.4 15 11.4C16.3255 11.4 17.4 10.3255 17.4 9H15.6C15.6 9.33137 15.3314 9.6 15 9.6C14.6686 9.6 14.4 9.33137 14.4 9H12.6Z" fill="black"/>
</svg>
