<svg width="24" height="24" viewBox="0 0 24 24" fill="none" xmlns="http://www.w3.org/2000/svg">
<path fill-rule="evenodd" clip-rule="evenodd" d="M4 12C4 7.58172 7.58172 4 12 4C16.4183 4 20 7.58172 20 12C20 16.4183 16.4183 20 12 20C7.58172 20 4 16.4183 4 12ZM12 2C6.47715 2 2 6.47715 2 12C2 17.5228 6.47715 22 12 22C17.5228 22 22 17.5228 22 12C22 6.47715 17.5228 2 12 2ZM8.5 11C9.32843 11 10 10.3284 10 9.5C10 8.67157 9.32843 8 8.5 8C7.67157 8 7 8.67157 7 9.5C7 10.3284 7.67157 11 8.5 11ZM8 13C8 15.2091 9.79086 17 12 17C14.2091 17 16 15.2091 16 13H14C14 14.1046 13.1046 15 12 15C10.8954 15 10 14.1046 10 13H8ZM15 11.4C13.6745 11.4 12.6 10.3255 12.6 9H14.4C14.4 9.33137 14.6686 9.6 15 9.6C15.3314 9.6 15.6 9.33137 15.6 9H17.4C17.4 10.3255 16.3255 11.4 15 11.4Z" fill="black"/>
</svg>
