<svg width="24" height="24" viewBox="0 0 24 24" fill="none" xmlns="http://www.w3.org/2000/svg">
<path fill-rule="evenodd" clip-rule="evenodd" d="M4 12C4 7.58172 7.58172 4 12 4C16.4183 4 20 7.58172 20 12C20 16.4183 16.4183 20 12 20C7.58172 20 4 16.4183 4 12ZM12 2C6.47715 2 2 6.47715 2 12C2 17.5228 6.47715 22 12 22C17.5228 22 22 17.5228 22 12C22 6.47715 17.5228 2 12 2ZM12 18C13.1046 18 14 16.8807 14 15.5C14 14.1193 13.1046 13 12 13C10.8954 13 10 14.1193 10 15.5C10 16.8807 10.8954 18 12 18ZM7.5 9.5L6.5 8.5L8 7L9 8L10 7L11.5 8.5L10.4142 9.5L11.5 10.5L10 12L9 11L8 12L6.5 10.5L7.5 9.5ZM12.5 8.5L13.5858 9.5L12.5 10.5L14 12L15 11L16 12L17.5 10.5L16.5 9.5L17.5 8.5L16 7L15 8L14 7L12.5 8.5Z" fill="black"/>
</svg>
