<svg width="24" height="24" viewBox="0 0 24 24" fill="none" xmlns="http://www.w3.org/2000/svg">
<path fill-rule="evenodd" clip-rule="evenodd" d="M12 4C9.47362 4 7.22075 5.17108 5.75463 7H10.382C10.7607 7 11.107 7.214 11.2764 7.55279L11.5 8H12.5L12.7236 7.55279C12.893 7.214 13.2393 7 13.618 7H18.2454C16.7793 5.17108 14.5264 4 12 4ZM4 12C4 11.0573 4.16307 10.1526 4.46254 9.3127L4.67845 10.3922C4.86542 11.3271 5.68625 12 6.63961 12H9.5C10.6046 12 11.5 11.1046 11.5 10H12.5C12.5 11.1046 13.3954 12 14.5 12H17.3604C18.3138 12 19.1346 11.3271 19.3216 10.3922L19.5375 9.3127C19.8369 10.1526 20 11.0573 20 12C20 16.4183 16.4183 20 12 20C7.58172 20 4 16.4183 4 12ZM2 12C2 6.47715 6.47715 2 12 2C17.5228 2 22 6.47715 22 12C22 17.5228 17.5228 22 12 22C6.47715 22 2 17.5228 2 12ZM10.166 14.7996C10.0595 14.556 10 14.2863 10 14H8C8 14.567 8.11859 15.109 8.33327 15.6004C8.9496 17.011 10.3582 18 12 18C13.6418 18 15.0504 17.011 15.6667 15.6004C15.8814 15.109 16 14.567 16 14H14C14 14.2863 13.9405 14.556 13.834 14.7996C13.5245 15.5081 12.8186 16 12 16C11.1814 16 10.4755 15.5081 10.166 14.7996Z" fill="black"/>
</svg>
