<svg width="24" height="24" viewBox="0 0 24 24" fill="none" xmlns="http://www.w3.org/2000/svg">
<path fill-rule="evenodd" clip-rule="evenodd" d="M12 22C17.5228 22 22 17.5228 22 12C22 6.47715 17.5228 2 12 2C6.47715 2 2 6.47715 2 12C2 17.5228 6.47715 22 12 22ZM9 8C7.89543 8 7 8.89543 7 10H11C11 8.89543 10.1046 8 9 8ZM13 10C13 8.89543 13.8954 8 15 8C16.1046 8 17 8.89543 17 10H13ZM15.375 13C16.0886 13 16.501 13.584 16.501 13.584C16.501 13.584 16.9352 13 17.625 13C18.3496 13 19 13.625 19 14.3672C19 14.675 18.907 14.9591 18.75 15.1876C18.5219 15.5196 16.501 17.5 16.501 17.5C16.501 17.5 14.478 15.5196 14.2499 15.1875C14.093 14.959 14 14.675 14 14.3672C14 13.6121 14.625 13 15.375 13Z" fill="black"/>
</svg>
