<svg width="24" height="24" viewBox="0 0 24 24" fill="none" xmlns="http://www.w3.org/2000/svg">
<path fill-rule="evenodd" clip-rule="evenodd" d="M4 12C4 7.58172 7.58172 4 12 4C16.4183 4 20 7.58172 20 12C20 16.4183 16.4183 20 12 20C7.58172 20 4 16.4183 4 12ZM12 2C6.47715 2 2 6.47715 2 12C2 17.5228 6.47715 22 12 22C17.5228 22 22 17.5228 22 12C22 6.47715 17.5228 2 12 2ZM8 13C8 15.2091 9.79086 17 12 17C14.2091 17 16 15.2091 16 13H14C14 14.1046 13.1046 15 12 15C10.8954 15 10 14.1046 10 13H8ZM15.0008 8.46719C15.0008 8.46719 14.6709 8 14.1 8C13.5 8 13 8.48969 13 9.09375C13 9.33998 13.0744 9.5672 13.1999 9.75C13.3824 10.0157 15.0008 11.6 15.0008 11.6C15.0008 11.6 16.6176 10.0157 16.8 9.75011C16.9256 9.56729 17 9.34002 17 9.09375C17 8.5 16.4797 8 15.9 8C15.3481 8 15.0008 8.46719 15.0008 8.46719ZM8.1 8C8.67091 8 9.00078 8.46719 9.00078 8.46719C9.00078 8.46719 9.34813 8 9.9 8C10.4797 8 11 8.5 11 9.09375C11 9.34002 10.9256 9.56729 10.8 9.75011C10.6176 10.0157 9.00078 11.6 9.00078 11.6C9.00078 11.6 7.38237 10.0157 7.19993 9.75C7.07439 9.5672 7 9.33998 7 9.09375C7 8.48969 7.5 8 8.1 8Z" fill="black"/>
</svg>
