<svg width="24" height="24" viewBox="0 0 24 24" fill="none" xmlns="http://www.w3.org/2000/svg">
<path fill-rule="evenodd" clip-rule="evenodd" d="M22 12C22 17.5228 17.5228 22 12 22C6.47715 22 2 17.5228 2 12C2 6.47715 6.47715 2 12 2C17.5228 2 22 6.47715 22 12ZM12 19C9.79086 19 8 17.2091 8 15H10C10 16.1046 10.8954 17 12 17C13.1046 17 14 16.1046 14 15H16C16 17.2091 14.2091 19 12 19ZM9.88197 8H4L4.67845 11.3922C4.86542 12.3271 5.68625 13 6.63961 13H9C10.1046 13 11 12.1046 11 11H13C13 12.1046 13.8954 13 15 13H17.3604C18.3138 13 19.1346 12.3271 19.3216 11.3922L20 8H14.118C13.7393 8 13.393 8.214 13.2236 8.55279L13 9H11L10.7764 8.55279C10.607 8.214 10.2607 8 9.88197 8Z" fill="black"/>
</svg>
