<svg width="24" height="24" viewBox="0 0 24 24" fill="none" xmlns="http://www.w3.org/2000/svg">
<path fill-rule="evenodd" clip-rule="evenodd" d="M12 22C17.5228 22 22 17.5228 22 12C22 6.47715 17.5228 2 12 2C6.47715 2 2 6.47715 2 12C2 17.5228 6.47715 22 12 22ZM12 19C13.1046 19 14 17.8807 14 16.5C14 15.1193 13.1046 14 12 14C10.8954 14 10 15.1193 10 16.5C10 17.8807 10.8954 19 12 19ZM7.5 9.5L6.5 8.5L8 7L9 8L10 7L11.5 8.5L10.5 9.5L11.5 10.5L10 12L9 11L8 12L6.5 10.5L7.5 9.5ZM12.5 8.5L13.5 9.5L12.5 10.5L14 12L15 11L16 12L17.5 10.5L16.5 9.5L17.5 8.5L16 7L15 8L14 7L12.5 8.5Z" fill="black"/>
</svg>
