<svg width="24" height="24" viewBox="0 0 24 24" fill="none" xmlns="http://www.w3.org/2000/svg">
<path fill-rule="evenodd" clip-rule="evenodd" d="M12 4C7.58172 4 4 7.58172 4 12C4 16.4183 7.58172 20 12 20C16.4183 20 20 16.4183 20 12C20 7.58172 16.4183 4 12 4ZM2 12C2 6.47715 6.47715 2 12 2C17.5228 2 22 6.47715 22 12C22 17.5228 17.5228 22 12 22C6.47715 22 2 17.5228 2 12ZM12 12C9.79086 12 8 13.7909 8 16H10C10 14.8954 10.8954 14 12 14C13.1046 14 14 14.8954 14 16H16C16 13.7909 14.2091 12 12 12ZM8 9.5C8 10.3284 8.67157 11 9.5 11C10.3284 11 11 10.3284 11 9.5C11 9.09162 10.8368 8.72135 10.5721 8.45087C9.5 7.35552 8 7 8 7L7.5 7.5L7.25 7.75L7.125 7.875L8.17711 8.79229C8.0641 9.00311 8 9.24407 8 9.5ZM16 9.5C16 10.3284 15.3284 11 14.5 11C13.6716 11 13 10.3284 13 9.5C13 9.09162 13.1632 8.72135 13.4279 8.45087C14.5 7.35552 16 7 16 7L16.5 7.5L16.75 7.75L16.875 7.875L15.8229 8.79229C15.9359 9.00311 16 9.24407 16 9.5Z" fill="black"/>
</svg>
