<svg width="24" height="24" viewBox="0 0 24 24" fill="none" xmlns="http://www.w3.org/2000/svg">
<path fill-rule="evenodd" clip-rule="evenodd" d="M12 4C7.58172 4 4 7.58172 4 12C4 16.4183 7.58172 20 12 20C14.2037 20 16.1977 19.1103 17.6456 17.6681L19.057 19.0851C17.2496 20.8854 14.754 22 12 22C6.47715 22 2 17.5228 2 12C2 6.47715 6.47715 2 12 2C16.7603 2 20.7416 5.32525 21.7522 9.77871L19.8018 10.2213C18.9934 6.65879 15.806 4 12 4ZM19.501 12.584C19.501 12.584 19.0886 12 18.375 12C17.625 12 17 12.6121 17 13.3672C17 13.675 17.093 13.959 17.2499 14.1875C17.478 14.5196 19.501 16.5 19.501 16.5C19.501 16.5 21.5219 14.5196 21.75 14.1876C21.907 13.9591 22 13.675 22 13.3672C22 12.625 21.3496 12 20.625 12C19.9352 12 19.501 12.584 19.501 12.584ZM11.2929 12.7071C11.8911 13.3054 12.505 13.6299 13 13.8036V14.1964C12.505 14.3701 11.8911 14.6946 11.2929 15.2929L12.7071 16.7071C13.0849 16.3293 13.4459 16.1554 13.6912 16.0737C13.8156 16.0322 13.9127 16.0137 13.9695 16.0056C13.9934 16.0022 14.0099 16.0006 14.018 16H15V15V13V12H14.018C14.0099 11.9994 13.9935 11.9978 13.9695 11.9944C13.9127 11.9863 13.8156 11.9678 13.6912 11.9263C13.4459 11.8446 13.0849 11.6707 12.7071 11.2929L11.2929 12.7071ZM7 10C7 8.89543 7.89543 8 9 8C10.1046 8 11 8.89543 11 10H7ZM15 8C13.8954 8 13 8.89543 13 10H17C17 8.89543 16.1046 8 15 8Z" fill="black"/>
</svg>
