<svg width="24" height="24" viewBox="0 0 24 24" fill="none" xmlns="http://www.w3.org/2000/svg">
<path fill-rule="evenodd" clip-rule="evenodd" d="M22 12C22 17.5228 17.5228 22 12 22C6.47715 22 2 17.5228 2 12C2 6.47715 6.47715 2 12 2C17.5228 2 22 6.47715 22 12ZM12 13C9.79086 13 8 14.7909 8 17H10C10 15.8954 10.8954 15 12 15C13.1046 15 14 15.8954 14 17H16C16 14.7909 14.2091 13 12 13ZM7 8L8.18011 8.78674C8.06523 8.99887 8 9.24182 8 9.5C8 10.3284 8.67157 11 9.5 11C10.3284 11 11 10.3284 11 9.5V9.42705C11 8.85889 10.679 8.3395 10.1708 8.08541L8 7L7 8ZM15.8199 8.78674L17 8L16 7L13.8292 8.08541C13.321 8.3395 13 8.85889 13 9.42705V9.5C13 10.3284 13.6716 11 14.5 11C15.3284 11 16 10.3284 16 9.5C16 9.24182 15.9348 8.99887 15.8199 8.78674Z" fill="black"/>
</svg>
