<svg width="24" height="24" viewBox="0 0 24 24" fill="none" xmlns="http://www.w3.org/2000/svg">
<path fill-rule="evenodd" clip-rule="evenodd" d="M2 4.99968V4H21V5V6V12.6263C20.0149 11.9176 18.8062 11.5003 17.5 11.5003C14.1863 11.5003 11.5 14.1865 11.5 17.5003C11.5 18.3924 11.6947 19.239 12.0439 20H5C3.34315 20 2 18.6569 2 17V6V4.99968ZM11.5 11.9999L4.37504 6H18.625L11.5 11.9999ZM22 17.5C22 19.9853 19.9853 22 17.5 22C15.0147 22 13 19.9853 13 17.5C13 15.0147 15.0147 13 17.5 13C19.9853 13 22 15.0147 22 17.5ZM16.4393 17.5L14.9697 16.0303L16.0303 14.9697L17.5 16.4393L18.9697 14.9697L20.0303 16.0303L18.5607 17.5L20.0303 18.9697L18.9697 20.0303L17.5 18.5607L16.0303 20.0303L14.9697 18.9697L16.4393 17.5Z" fill="black"/>
</svg>
