<svg width="24" height="24" viewBox="0 0 24 24" fill="none" xmlns="http://www.w3.org/2000/svg">
<path fill-rule="evenodd" clip-rule="evenodd" d="M2 4H3H20H21V5V6.5V12.626C20.4055 12.1984 19.7296 11.8768 19 11.689V8.61898L12.1357 14.2719L11.5 14.7955L10.8643 14.2719L4 8.61898V17C4 17.5523 4.44772 18 5 18H11.5205C11.579 18.7087 11.7607 19.3826 12.044 20H5C3.34315 20 2 18.6569 2 17V6.5V5V4ZM4 6.02808L11.5 12.2045L19 6.02808V6H4V6.02808ZM22 17.5C22 19.9853 19.9853 22 17.5 22C15.0147 22 13 19.9853 13 17.5C13 15.0147 15.0147 13 17.5 13C19.9853 13 22 15.0147 22 17.5ZM14.9697 18.9697L18.9697 14.9697L20.0303 16.0303L16.0303 20.0303L14.9697 18.9697Z" fill="black"/>
</svg>
