<svg width="24" height="24" viewBox="0 0 24 24" fill="none" xmlns="http://www.w3.org/2000/svg">
<path fill-rule="evenodd" clip-rule="evenodd" d="M5 2H4V3V6.82755L2 8V13V18C2 19.6569 3.34315 21 5 21H19C20.6569 21 22 19.6569 22 18V13V8L20 6.84375V3V2H19H5ZM18 8.52271V4H6V8.52271L12 11.856L18 8.52271ZM20 13V9.69951L14.0591 13L20 16.3005V13ZM19.86 18.5106L12 14.144L4.14001 18.5106C4.31438 18.8037 4.63426 19 5 19H19C19.3657 19 19.6856 18.8037 19.86 18.5106ZM4 16.3005L9.94087 13L4 9.69951V13V16.3005ZM16 6V8H8V6H16Z" fill="black"/>
</svg>
