<svg width="24" height="24" viewBox="0 0 24 24" fill="none" xmlns="http://www.w3.org/2000/svg">
<path fill-rule="evenodd" clip-rule="evenodd" d="M2 4H21V12.626C20.4055 12.1984 19.7296 11.8768 19 11.689V8.61898L11.5 14.7955L4 8.61898V17C4 17.5523 4.44772 18 5 18H11.5205C11.579 18.7087 11.7607 19.3826 12.044 20H5C3.34315 20 2 18.6569 2 17V4ZM4 6.02808L11.5 12.2045L19 6.02808V6H4V6.02808ZM22 17.5C22 19.9853 19.9853 22 17.5 22C15.0147 22 13 19.9853 13 17.5C13 15.0147 15.0147 13 17.5 13C19.9853 13 22 15.0147 22 17.5ZM17.501 16.084C17.501 16.084 17.0886 15.5 16.375 15.5C15.625 15.5 15 16.1121 15 16.8672C15 17.175 15.093 17.459 15.2499 17.6875C15.478 18.0196 17.501 20 17.501 20C17.501 20 19.5219 18.0196 19.75 17.6876C19.907 17.4591 20 17.175 20 16.8672C20 16.125 19.3496 15.5 18.625 15.5C17.9352 15.5 17.501 16.084 17.501 16.084Z" fill="black"/>
</svg>
