<svg width="24" height="24" viewBox="0 0 24 24" fill="none" xmlns="http://www.w3.org/2000/svg">
<path fill-rule="evenodd" clip-rule="evenodd" d="M12 1.99994L22 7.41157V19C22 20.1045 21.1046 21 20 21H4C2.89543 21 2 20.1045 2 19V7.41157L12 1.99994ZM4 18.5884V16.3005L7.88055 14.1446C7.85121 14.11 7.82442 14.0767 7.80084 14.0454C7.40306 13.5159 7.16675 12.8555 7.16675 12.1442C7.16675 11.5641 7.32274 11.0204 7.59507 10.5528L4.02956 8.57196L12 4.28786L19.9704 8.57196L16.4051 10.5527C16.6774 11.0203 16.8334 11.564 16.8334 12.1442C16.8334 12.8555 16.5971 13.5159 16.1993 14.0454C16.1757 14.0767 16.1489 14.11 16.1196 14.1447L20 16.3005V18.5884L14.6177 15.5982C13.9182 16.2378 13.2065 16.8643 12.4952 17.4906C12.3315 17.6348 12.1677 17.779 12.0042 17.9232C11.725 17.6755 11.4448 17.4287 11.1645 17.1818C10.5685 16.6569 9.97202 16.1315 9.3847 15.5969L4 18.5884ZM12 16C12 16 9.30404 13.4049 8.99996 13.0002C8.79066 12.7216 8.66663 12.3753 8.66663 12C8.66663 11.0795 9.41282 10.3334 10.3333 10.3334C10.7086 10.3334 11.0549 10.4574 11.3335 10.6667C11.5622 10.8386 12.003 11.2341 12.003 11.2341C12.003 11.2341 12.4377 10.8386 12.6665 10.6667C12.945 10.4574 13.2914 10.3334 13.6666 10.3334C14.5871 10.3334 15.3333 11.0795 15.3333 12C15.3333 12.3753 15.2093 12.7216 15 13.0002C14.6959 13.4049 12 16 12 16Z" fill="black"/>
</svg>
