<svg width="24" height="24" viewBox="0 0 24 24" fill="none" xmlns="http://www.w3.org/2000/svg">
<path fill-rule="evenodd" clip-rule="evenodd" d="M2 4V4.99963V6V17C2 18.6568 3.34315 20 5 20H12.0439C11.6947 19.239 11.5 18.3923 11.5 17.5002C11.5 14.1865 14.1863 11.5002 17.5 11.5002C18.8062 11.5002 20.0149 11.9176 21 12.6263V6V4.99995V4H2ZM11.5 11.9998L18.6249 6H4.37509L11.5 11.9998ZM22 17.5C22 19.9853 19.9853 22 17.5 22C15.0147 22 13 19.9853 13 17.5C13 15.0147 15.0147 13 17.5 13C19.9853 13 22 15.0147 22 17.5ZM17.501 16.084C17.501 16.084 17.0886 15.5 16.375 15.5C15.625 15.5 15 16.1121 15 16.8672C15 17.175 15.093 17.459 15.2499 17.6875C15.478 18.0196 17.501 20 17.501 20C17.501 20 19.5219 18.0196 19.75 17.6876C19.907 17.4591 20 17.175 20 16.8672C20 16.125 19.3496 15.5 18.625 15.5C17.9352 15.5 17.501 16.084 17.501 16.084Z" fill="black"/>
</svg>
