<svg width="24" height="24" viewBox="0 0 24 24" fill="none" xmlns="http://www.w3.org/2000/svg">
<path fill-rule="evenodd" clip-rule="evenodd" d="M2 4V4.99963V6V17C2 18.6568 3.34315 20 5 20H12.0439C11.6947 19.239 11.5 18.3923 11.5 17.5002C11.5 14.1865 14.1863 11.5002 17.5 11.5002C18.8062 11.5002 20.0149 11.9176 21 12.6263V6V4.99995V4H2ZM11.5 11.9998L18.6249 6H4.37509L11.5 11.9998ZM14.1739 17.5C14.1739 15.6631 15.6631 14.1739 17.5 14.1739C19.3369 14.1739 20.8261 15.6631 20.8261 17.5V18.1114C20.8261 18.3951 20.5961 18.625 20.3125 18.625C20.0289 18.625 19.7989 18.3951 19.7989 18.1114V17.5C19.7989 17.1758 19.5361 16.913 19.212 16.913C18.8878 16.913 18.625 17.1758 18.625 17.5C18.625 18.1213 18.1213 18.625 17.5 18.625C16.8787 18.625 16.375 18.1213 16.375 17.5C16.375 16.8787 16.8787 16.375 17.5 16.375C17.7141 16.375 17.9126 16.4343 18.082 16.5369C18.3592 16.705 18.7201 16.6165 18.8882 16.3393C19.0563 16.0621 18.9678 15.7012 18.6906 15.5331C18.3429 15.3223 17.9347 15.2011 17.5 15.2011C16.2303 15.2011 15.2011 16.2303 15.2011 17.5C15.2011 18.7697 16.2303 19.7989 17.5 19.7989C18.0893 19.7989 18.6269 19.5772 19.0337 19.2125C19.3432 19.5716 19.8013 19.7989 20.3125 19.7989C21.2445 19.7989 22 19.0434 22 18.1114V17.5C22 15.0147 19.9853 13 17.5 13C15.0147 13 13 15.0147 13 17.5C13 19.9853 15.0147 22 17.5 22C18.2847 22 19.0241 21.7987 19.6676 21.4444C19.9516 21.288 20.0551 20.9311 19.8987 20.6471C19.7424 20.3631 19.3854 20.2597 19.1014 20.416C18.627 20.6772 18.0817 20.8261 17.5 20.8261C15.6631 20.8261 14.1739 19.3369 14.1739 17.5Z" fill="black"/>
</svg>
