<svg width="24" height="24" viewBox="0 0 24 24" fill="none" xmlns="http://www.w3.org/2000/svg">
<path fill-rule="evenodd" clip-rule="evenodd" d="M12 1.99994L2 7.41157V18C2 19.6568 3.34315 21 5 21H19C20.6569 21 22 19.6568 22 18V7.41157L12 1.99994ZM4 9.69949V16.3005L9.94087 13L4 9.69949ZM4.14001 18.5106C4.31438 18.8036 4.63426 19 5 19H19C19.3657 19 19.6856 18.8036 19.86 18.5106L12 14.1439L4.14001 18.5106ZM20 16.3005V9.69949L14.0591 13L20 16.3005ZM18.9409 7.99998L12 4.28786L5.05913 7.99998L12 11.856L18.9409 7.99998Z" fill="black"/>
</svg>
