<svg width="24" height="24" viewBox="0 0 24 24" fill="none" xmlns="http://www.w3.org/2000/svg">
<path fill-rule="evenodd" clip-rule="evenodd" d="M2 4H3H20H21V5V6.5V12.626C20.4055 12.1984 19.7296 11.8768 19 11.689V8.61898L12.1357 14.2719L11.5 14.7955L10.8643 14.2719L4 8.61898V17C4 17.5523 4.44772 18 5 18H11.5205C11.579 18.7087 11.7607 19.3826 12.044 20H5C3.34315 20 2 18.6569 2 17V6.5V5V4ZM4 6.02808L11.5 12.2045L19 6.02808V6H4V6.02808ZM17.5 22C19.9853 22 22 19.9853 22 17.5C22 15.0147 19.9853 13 17.5 13C15.0147 13 13 15.0147 13 17.5C13 19.9853 15.0147 22 17.5 22ZM16.75 20.5V19H18.25V20.5H16.75ZM18.25 14.5V18H16.75V14.5H18.25Z" fill="black"/>
</svg>
