<svg width="24" height="24" viewBox="0 0 24 24" fill="none" xmlns="http://www.w3.org/2000/svg">
<path fill-rule="evenodd" clip-rule="evenodd" d="M4 2H20V8L22 9V19.0003C22 20.6571 20.6569 22.0003 19 22.0003H5C3.34315 22.0003 2 20.6571 2 19.0003V9L4 8.0002V2ZM18 4V9.47059L12 13L6 9.47059V4H18ZM12 13L20 17.5V19.5L12 15L4 19.5V17.5L12 13ZM12 11C12 11 9.30404 8.40493 8.99996 8.0002C8.79066 7.72162 8.66663 7.37532 8.66663 7.00004C8.66663 6.07957 9.41282 5.33337 10.3333 5.33337C10.7086 5.33337 11.0549 5.4574 11.3335 5.66671C11.5622 5.83858 12.003 6.23416 12.003 6.23416C12.003 6.23416 12.4377 5.83858 12.6665 5.66671C12.945 5.4574 13.2914 5.33337 13.6666 5.33337C14.5871 5.33337 15.3333 6.07957 15.3333 7.00004C15.3333 7.37532 15.2093 7.72162 15 8.0002C14.6959 8.40493 12 11 12 11Z" fill="black"/>
</svg>
