<svg width="24" height="24" viewBox="0 0 24 24" fill="none" xmlns="http://www.w3.org/2000/svg">
<path fill-rule="evenodd" clip-rule="evenodd" d="M4 2H5H19H20V3V8.0002L22 9V14V19C22 20.6569 20.6569 22 19 22H5C3.34315 22 2 20.6569 2 19V14V9L4 8.0002V3V2ZM18 4V9.52271L12 12.856L6 9.52271V4H18ZM4 14V17.3005L9.94087 14L4 10.6995V14ZM12 15.144L4.14001 19.5106C4.31438 19.8037 4.63426 20 5 20H19C19.3657 20 19.6856 19.8037 19.86 19.5106L12 15.144ZM20 17.3005L14.0591 14L20 10.6995V14V17.3005ZM12 11C12 11 9.30404 8.40493 8.99996 8.0002C8.79066 7.72162 8.66663 7.37532 8.66663 7.00004C8.66663 6.07957 9.41282 5.33337 10.3333 5.33337C10.7086 5.33337 11.0549 5.4574 11.3335 5.66671C11.5622 5.83858 12.003 6.23416 12.003 6.23416C12.003 6.23416 12.4377 5.83858 12.6665 5.66671C12.945 5.4574 13.2914 5.33337 13.6666 5.33337C14.5871 5.33337 15.3333 6.07957 15.3333 7.00004C15.3333 7.37532 15.2093 7.72162 15 8.0002C14.6959 8.40493 12 11 12 11Z" fill="black"/>
</svg>
