<svg width="24" height="24" viewBox="0 0 24 24" fill="none" xmlns="http://www.w3.org/2000/svg">
<path fill-rule="evenodd" clip-rule="evenodd" d="M12 1.85596L12.4856 2.12576L21.4856 7.12576L22 7.41151V7.99992V17.9999C22 19.6568 20.6569 20.9999 19 20.9999H5C3.34315 20.9999 2 19.6568 2 17.9999V7.99992V7.41151L2.51436 7.12576L11.5144 2.12576L12 1.85596ZM4 9.69945L7.20889 11.4822C7.32247 10.7918 7.65938 10.1765 8.14297 9.71322L5.05911 7.99993L12 4.14388L18.9409 7.99993L15.8572 9.71318C16.3408 10.1765 16.6777 10.7917 16.7913 11.4821L20 9.69946V16.3004L16.0344 14.0974C15.8567 14.2928 15.6237 14.5157 15.4349 14.6945C15.1327 14.9806 14.8273 15.2634 14.5196 15.5437L19.86 18.5105C19.6856 18.8036 19.3657 18.9999 19 18.9999H5C4.63426 18.9999 4.31438 18.8036 4.14002 18.5105L9.48315 15.5422C9.17512 15.2629 8.86938 14.981 8.56721 14.6954C8.37805 14.5166 8.14406 14.2933 7.96577 14.0973L4 16.3004V9.69945ZM12 16C12 16 9.30404 13.4049 8.99996 13.0002C8.79066 12.7216 8.66663 12.3753 8.66663 12C8.66663 11.0796 9.41282 10.3334 10.3333 10.3334C10.7086 10.3334 11.0549 10.4574 11.3335 10.6667C11.5622 10.8386 12.003 11.2342 12.003 11.2342C12.003 11.2342 12.4377 10.8386 12.6665 10.6667C12.945 10.4574 13.2914 10.3334 13.6666 10.3334C14.5871 10.3334 15.3333 11.0796 15.3333 12C15.3333 12.3753 15.2093 12.7216 15 13.0002C14.6959 13.4049 12 16 12 16Z" fill="black"/>
</svg>
