<svg width="24" height="24" viewBox="0 0 24 24" fill="none" xmlns="http://www.w3.org/2000/svg">
<path fill-rule="evenodd" clip-rule="evenodd" d="M9.77318 6.79022L12.4197 3.98399L20.011 11.9971L12.4195 20.0104L9.77228 17.231L8.36753 18.636L11.0147 21.4154C11.8055 22.206 13.0927 22.1886 13.8618 21.3768L21.4534 13.3635C21.8163 12.9804 21.9978 12.4887 21.9978 11.9971C21.9978 11.5055 21.8163 11.0138 21.4534 10.6307L13.862 2.61758C13.0928 1.80569 11.8054 1.78836 11.0146 2.57925L8.36816 5.38548L9.77318 6.79022ZM8.32402 15.6951L5.83532 12.9998L10.3511 12.9998C11.1432 12.9998 11.9031 13.3131 12.4651 13.8712L13.7952 15.1922L15.2045 13.7731L13.8744 12.4521C12.9377 11.5219 11.6712 10.9998 10.3511 10.9998L5.82072 10.9998L8.32402 8.33355L6.9068 6.92234L1.99951 12.0028L6.91285 17.1124L8.32402 15.6951Z" fill="black"/>
</svg>
