<svg width="24" height="24" viewBox="0 0 24 24" fill="none" xmlns="http://www.w3.org/2000/svg">
<path fill-rule="evenodd" clip-rule="evenodd" d="M15.1458 6.00006L8.854 6.00025C8.09648 6.00028 7.40399 6.42827 7.06521 7.10581L4.99995 11.2363V16H18.9999V11.2363L16.9347 7.10566C16.5959 6.42806 15.9034 6.00004 15.1458 6.00006ZM2.99995 19C2.99995 19.5523 3.44766 20 3.99995 20H5.99995V18.0002H17.9999V20H19.9999C20.5522 20 20.9999 19.5523 20.9999 19V12.2363C20.9999 11.8575 21.214 11.5112 21.5527 11.3418L22.4472 10.8946L21.783 9.024C21.2832 9.13508 20.7834 9.23763 20.2837 9.33166L18.7236 6.21125C18.046 4.85605 16.6609 4.00001 15.1457 4.00006L8.85394 4.00025C7.3389 4.0003 5.95392 4.85629 5.27637 6.21137L3.71618 9.33167C3.21652 9.23763 2.71675 9.13508 2.21688 9.024L1.55273 10.8946L2.44716 11.3418C2.78595 11.5112 2.99995 11.8575 2.99995 12.2363V19ZM12.9999 10V8H11.9999L8.99995 12H10.9999V14H11.9999L14.9999 10H12.9999Z" fill="black"/>
</svg>
