<svg width="24" height="24" viewBox="0 0 24 24" fill="none" xmlns="http://www.w3.org/2000/svg">
<path fill-rule="evenodd" clip-rule="evenodd" d="M18.9859 18.2762C17.4379 13.4373 15.1552 8.97431 11.9921 5.07781C8.82952 8.97097 6.56491 13.4319 5.01405 18.2718C6.35776 18.5591 8.92137 18.9994 11.9973 18.9994C15.074 18.9994 17.6403 18.5618 18.9859 18.2762ZM19.479 20.2164C18.0647 20.5208 15.3136 21 11.9973 21C8.68029 21 5.93094 20.5175 4.51784 20.2112C3.38021 19.9646 2.75022 18.7994 3.09357 17.723C4.83409 12.2668 7.46101 7.2191 11.2398 2.86758L11.9932 2L12.7459 2.86821C16.5183 7.21977 19.168 12.2682 20.9067 17.7288C21.25 18.8066 20.6172 19.9715 19.479 20.2164ZM13.4494 9.5461C13.4766 9.25301 13.2459 9 12.9516 9H11.0485C10.7541 9 10.5234 9.25303 10.5506 9.54614L11.0004 14.4H13L13.4494 9.5461ZM11.9973 15.3C11.2518 15.3 10.6473 15.9044 10.6473 16.65C10.6473 17.3956 11.2518 18 11.9973 18C12.7429 18 13.3473 17.3956 13.3473 16.65C13.3473 15.9044 12.7429 15.3 11.9973 15.3Z" fill="black"/>
</svg>
