<svg width="24" height="24" viewBox="0 0 24 24" fill="none" xmlns="http://www.w3.org/2000/svg">
<path fill-rule="evenodd" clip-rule="evenodd" d="M12.1733 2L12.7092 2.34165C17.3399 5.29408 20.7826 9.40627 21.8262 10.8998C22.289 11.5622 22.289 12.4378 21.8262 13.1002C20.7826 14.5937 17.3399 18.7059 12.7092 21.6584L12.1733 22L11.6375 21.6584C7.00678 18.7059 3.56403 14.5937 2.52046 13.1002C2.05763 12.4378 2.05763 11.5622 2.52046 10.8998C3.56403 9.40627 7.00678 5.29408 11.6375 2.34165L12.1733 2ZM4.18856 12C5.17176 13.4001 8.2031 16.926 12.1733 19.6185C16.1436 16.926 19.1749 13.4001 20.1581 12C19.1749 10.5999 16.1436 7.074 12.1733 4.38149C8.2031 7.074 5.17176 10.5999 4.18856 12ZM13.4549 7.54152C13.4792 7.25001 13.2491 7 12.9566 7H11.0434C10.7509 7 10.5209 7.25004 10.5452 7.54156L11.0004 13H13L13.4549 7.54152ZM12 14C11.1716 14 10.5 14.6716 10.5 15.5C10.5 16.3284 11.1716 17 12 17C12.8284 17 13.5 16.3284 13.5 15.5C13.5 14.6716 12.8284 14 12 14Z" fill="black"/>
</svg>
