<svg width="24" height="24" viewBox="0 0 24 24" fill="none" xmlns="http://www.w3.org/2000/svg">
<path fill-rule="evenodd" clip-rule="evenodd" d="M12 2.00033C15.7413 4.29666 18.9034 7.33534 21.3371 10.9671C21.7564 11.5927 21.7564 12.4079 21.3371 13.0335C18.9034 16.6653 15.7413 19.704 12 22.0003C8.25859 19.7039 5.09657 16.6654 2.66282 13.0335C2.24358 12.4079 2.24358 11.5927 2.66282 10.9671C5.09657 7.33529 8.25859 4.29671 12 2.00033ZM13.4548 7.54152C13.4791 7.25001 13.2491 7 12.9565 7H11.0434C10.7509 7 10.5208 7.25004 10.5451 7.54156L11.0004 13H12.9999L13.4548 7.54152ZM11.9999 14C11.1715 14 10.4999 14.6716 10.4999 15.5C10.4999 16.3284 11.1715 17 11.9999 17C12.8284 17 13.4999 16.3284 13.4999 15.5C13.4999 14.6716 12.8284 14 11.9999 14Z" fill="black"/>
</svg>
