<svg width="24" height="24" viewBox="0 0 24 24" fill="none" xmlns="http://www.w3.org/2000/svg">
<path fill-rule="evenodd" clip-rule="evenodd" d="M12.0001 5.0298L4.01832 18.9781L4.01025 18.9922L4.00547 19H19.9947L19.9899 18.9922L19.9818 18.9781L12.0001 5.0298ZM10.3189 3.94188C11.0928 2.68604 12.9074 2.68604 13.6812 3.94188L13.6897 3.95571L13.6978 3.96981L21.7109 17.973C22.4984 19.277 21.5896 21 20.02 21H3.98018C2.41049 21 1.5018 19.277 2.28921 17.973L10.3023 3.96981L10.3104 3.95571L10.3189 3.94188ZM13.4495 9.5461C13.4767 9.25301 13.246 9 12.9516 9H11.0486C10.7542 9 10.5235 9.25303 10.5507 9.54614L11.0005 14.4H13.0001L13.4495 9.5461ZM12.0001 15.3C11.2545 15.3 10.6501 15.9044 10.6501 16.65C10.6501 17.3956 11.2545 18 12.0001 18C12.7456 18 13.3501 17.3956 13.3501 16.65C13.3501 15.9044 12.7456 15.3 12.0001 15.3Z" fill="black"/>
</svg>
