<svg width="24" height="24" viewBox="0 0 24 24" fill="none" xmlns="http://www.w3.org/2000/svg">
<path fill-rule="evenodd" clip-rule="evenodd" d="M11.2758 2.83997L12.0107 2L12.7449 2.84058C16.6134 7.2696 18.994 12.2409 20.8963 17.7422C21.2688 18.8196 20.6136 19.9694 19.4954 20.1913C16.8764 20.711 14.686 21 12.0101 21C9.3301 21 7.13657 20.6916 4.52457 20.1827C3.39634 19.9628 2.72886 18.8049 3.10569 17.719C5.011 12.2283 7.40919 7.25948 11.2758 2.83997ZM13.459 9.5461C13.4861 9.253 13.2555 9 12.9611 9H11.058C10.7637 9 10.533 9.25303 10.5602 9.54614L11.01 14.4H13.0096L13.459 9.5461ZM12.0101 15.3C11.2645 15.3 10.6601 15.9044 10.6601 16.65C10.6601 17.3956 11.2645 18 12.0101 18C12.7557 18 13.3601 17.3956 13.3601 16.65C13.3601 15.9044 12.7557 15.3 12.0101 15.3Z" fill="black"/>
</svg>
