<svg width="24" height="24" viewBox="0 0 24 24" fill="none" xmlns="http://www.w3.org/2000/svg">
<path fill-rule="evenodd" clip-rule="evenodd" d="M12 5C8.57952 5 6.15567 6.45784 4.44814 8.2304L3.00775 6.84285C5.01356 4.76066 7.93225 3 12 3C14.3986 3 16.3977 3.61219 18.0457 4.54152L19.5871 3L21 4.41421L19.7292 5.68514C20.1852 6.05224 20.6057 6.44157 20.9922 6.84285L19.5518 8.2304C19.1727 7.83686 18.7583 7.45884 18.3056 7.10884L16.9545 8.45995C20.0033 10.5116 21 14 21 14C21 14 19 21 12 21C9.55944 21 7.72666 20.1491 6.37454 19.0406L4.41292 21.0024L3 19.5881L4.96949 17.6185C3.52284 15.8299 3 14 3 14C3 14 5 7 12 7C13.1577 7 14.1786 7.19146 15.0763 7.51105L16.5659 6.02138C15.287 5.394 13.7782 5 12 5ZM13.4516 9.13591C13.0024 9.04817 12.5195 9 12 9C9.27553 9 7.55614 10.3248 6.44764 11.7356C5.78482 12.5792 5.35744 13.4455 5.12719 14C5.35109 14.5392 5.76161 15.3738 6.39336 16.1946L13.4516 9.13591ZM11.0633 14.3516L12.3515 13.0633C12.4812 13.1118 12.6025 13.1883 12.7071 13.2929C13.0976 13.6834 13.0976 14.3166 12.7071 14.7071C12.3166 15.0976 11.6834 15.0976 11.2929 14.7071C11.1883 14.6026 11.1118 14.4812 11.0633 14.3516ZM9.60622 15.8087C9.68864 15.9176 9.77946 16.0221 9.87868 16.1213C11.0503 17.2929 12.9497 17.2929 14.1213 16.1213C15.2929 14.9497 15.2929 13.0503 14.1213 11.8787C14.0221 11.7794 13.9175 11.6886 13.8086 11.6061L15.5053 9.90929C16.3553 10.4087 17.0234 11.0624 17.5524 11.7356C18.2152 12.5792 18.6426 13.4455 18.8728 14C18.6426 14.5545 18.2152 15.4208 17.5524 16.2644C16.4439 17.6752 14.7245 19 12 19C10.1968 19 8.83386 18.4197 7.79693 17.6181L9.60622 15.8087Z" fill="black"/>
</svg>
