<svg width="24" height="24" viewBox="0 0 24 24" fill="none" xmlns="http://www.w3.org/2000/svg">
<path fill-rule="evenodd" clip-rule="evenodd" d="M11.9922 5C8.57176 5 6.14791 6.45784 4.44039 8.2304L3 6.84285C5.00581 4.76066 7.9245 3 11.9922 3C14.3933 3 16.3939 3.61342 18.0429 4.54431L19.5871 3L21 4.41421L19.7257 5.6886C20.1801 6.05468 20.5991 6.44283 20.9845 6.84285L19.5441 8.2304C19.1662 7.83813 18.7532 7.46127 18.3022 7.11222L16.9546 8.45988C18.6537 9.60335 19.7155 11.1931 20.3225 12.3765C20.7211 13.1535 20.9237 13.7554 20.9819 13.9407C20.9941 13.9795 21 14 21 14C21 14 19 21 12 21C9.55944 21 7.72666 20.1491 6.37454 19.0406L4.41292 21.0024L3 19.5881L4.96949 17.6185C3.52896 15.8375 3.00444 14.0155 3.00003 14.0001C3.00868 13.9699 5.01515 7 12 7C13.1577 7 14.1786 7.19146 15.0763 7.51105L16.5633 6.02393C15.2834 5.39506 13.7728 5 11.9922 5ZM13.4516 9.13591C13.0024 9.04817 12.5195 9 12 9C9.27553 9 7.55614 10.3248 6.44764 11.7356C5.78482 12.5792 5.35744 13.4455 5.12719 14C5.35109 14.5392 5.76161 15.3738 6.39336 16.1946L13.4516 9.13591ZM8.89418 16.5208C9.62759 17.4233 10.7464 17.9999 11.9999 17.9999C14.2091 17.9999 15.9999 16.209 15.9999 13.9999C15.9999 12.7462 15.4233 11.6273 14.5207 10.8939L13.0912 12.3235C13.6383 12.6804 13.9999 13.2979 13.9999 13.9999C13.9999 15.1044 13.1045 15.9999 11.9999 15.9999C11.298 15.9999 10.6806 15.6383 10.3237 15.0912L8.89418 16.5208Z" fill="black"/>
</svg>
