<svg width="24" height="24" viewBox="0 0 24 24" fill="none" xmlns="http://www.w3.org/2000/svg">
<path fill-rule="evenodd" clip-rule="evenodd" d="M4.44039 8.2304C6.14791 6.45784 8.57176 5 11.9922 5C15.4127 5 17.8366 6.45784 19.5441 8.2304L20.9845 6.84285C18.9787 4.76065 16.06 3 11.9922 3C7.9245 3 5.00581 4.76066 3 6.84285L4.44039 8.2304ZM21 14C21 14 19 21 12 21C5 21 3 14 3 14C3 14 5 7 12 7C19 7 21 14 21 14ZM12 16C13.1046 16 14 15.1046 14 14C14 12.8954 13.1046 12 12 12C10.8954 12 10 12.8954 10 14C10 15.1046 10.8954 16 12 16ZM12 18C14.2091 18 16 16.2091 16 14C16 11.7909 14.2091 10 12 10C9.79086 10 8 11.7909 8 14C8 16.2091 9.79086 18 12 18Z" fill="black"/>
</svg>
