<svg width="24" height="24" viewBox="0 0 24 24" fill="none" xmlns="http://www.w3.org/2000/svg">
<path fill-rule="evenodd" clip-rule="evenodd" d="M12 5C8.57954 5 6.15569 6.45784 4.44816 8.2304L3.00777 6.84285C5.01358 4.76066 7.93227 3 12 3C16.0677 3 18.9864 4.76065 20.9922 6.84285L19.5519 8.2304C17.8443 6.45784 15.4205 5 12 5ZM3 14C3 14 5 21 12 21C19 21 21 14 21 14C21 14 19 7 12 7C5 7 3 14 3 14ZM5.12719 14C5.16155 14.0827 5.20044 14.1729 5.24409 14.2694C5.49295 14.8195 5.88373 15.5467 6.44764 16.2644C7.55614 17.6752 9.27553 19 12 19C14.7245 19 16.4439 17.6752 17.5524 16.2644C18.1163 15.5467 18.5071 14.8195 18.7559 14.2694C18.7996 14.1729 18.8385 14.0827 18.8728 14C18.8385 13.9173 18.7996 13.8271 18.7559 13.7306C18.5071 13.1805 18.1163 12.4533 17.5524 11.7356C16.4439 10.3248 14.7245 9 12 9C9.27553 9 7.55614 10.3248 6.44764 11.7356C5.88373 12.4533 5.49295 13.1805 5.24409 13.7306C5.20044 13.8271 5.16155 13.9173 5.12719 14ZM19.0794 14.5579C19.0799 14.5596 19.08 14.5598 19.0795 14.5584L19.0794 14.5579ZM13 14C13 14.5523 12.5523 15 12 15C11.4477 15 11 14.5523 11 14C11 13.4477 11.4477 13 12 13C12.5523 13 13 13.4477 13 14ZM15 14C15 15.6569 13.6569 17 12 17C10.3431 17 9 15.6569 9 14C9 12.3431 10.3431 11 12 11C13.6569 11 15 12.3431 15 14Z" fill="black"/>
</svg>
