<svg width="24" height="24" viewBox="0 0 24 24" fill="none" xmlns="http://www.w3.org/2000/svg">
<path fill-rule="evenodd" clip-rule="evenodd" d="M7 10C5.89543 10 5 10.8954 5 12C5 13.1046 5.89543 14 7 14C8.10457 14 9 13.1046 9 12C9 10.8954 8.10457 10 7 10ZM7 8C8.30853 8 9.47031 8.62832 10.2001 9.59972C10.7015 9.22314 11.3247 9 12 9C12.6753 9 13.2985 9.22314 13.7999 9.59972C14.5297 8.62832 15.6915 8 17 8C18.8638 8 20.4299 9.27477 20.874 11H23V13H20.874C20.4299 14.7252 18.8638 16 17 16C14.7909 16 13 14.2091 13 12C13 11.4477 12.5523 11 12 11C11.4477 11 11 11.4477 11 12C11 14.2091 9.20914 16 7 16C5.13616 16 3.57006 14.7252 3.12602 13H1V11H3.12602C3.57006 9.27477 5.13616 8 7 8ZM15 12C15 13.1046 15.8954 14 17 14C18.1046 14 19 13.1046 19 12C19 10.8954 18.1046 10 17 10C15.8954 10 15 10.8954 15 12Z" fill="black"/>
</svg>
