<svg width="24" height="24" viewBox="0 0 24 24" fill="none" xmlns="http://www.w3.org/2000/svg">
<path fill-rule="evenodd" clip-rule="evenodd" d="M22 12C22 17.5228 17.5228 22 12 22C6.47715 22 2 17.5228 2 12C2 6.47715 6.47715 2 12 2C17.5228 2 22 6.47715 22 12ZM7.49511 5.38799C9.27171 6.29588 10.2587 8.38806 11.1849 10.3515C11.3055 10.6072 11.4251 10.8607 11.5453 11.1091C11.3818 11.1927 11.2444 11.32 11.1484 11.4755L11.1475 11.4749C9.26987 10.3106 6.8034 10.8888 5.63903 12.7664C3.88935 15.5877 6.20581 18.1887 8.77152 19.3217C8.61272 17.171 9.98437 15.0844 11.2411 13.1726C11.3141 13.0615 11.3868 12.9509 11.4588 12.841C11.6057 12.9357 11.779 12.993 11.9652 12.9994C11.8957 15.2076 13.6296 17.0549 15.8378 17.1245C19.1034 17.2275 20.2179 14.0349 19.9671 11.2682C18.2355 12.4119 15.8318 12.2464 13.6071 12.0932C13.4025 12.0791 13.1995 12.0652 12.9987 12.0523C12.9995 12.035 13 12.0175 13 12C13 11.829 12.9571 11.668 12.8814 11.5272C14.825 10.4819 15.5556 8.05908 14.5126 6.11346C12.9937 3.28006 9.76901 3.83569 7.49511 5.38799Z" fill="black"/>
</svg>
