<svg width="24" height="24" viewBox="0 0 24 24" fill="none" xmlns="http://www.w3.org/2000/svg">
<path fill-rule="evenodd" clip-rule="evenodd" d="M12 2C17.0388 2 21.5334 5.99253 21.9539 11.0341C22.5075 16.8101 17.8281 22 12 22C6.6585 22 2 17.3691 2 12C2 6.53998 6.58636 2 12 2ZM6.60244 6.09516C5.0031 7.55791 4 9.66181 4 12C4 12.542 4.05389 13.0713 4.15661 13.583C4.30159 13.1377 4.5019 12.7025 4.75974 12.2868L4.78912 12.2394C5.89401 10.4578 7.93676 9.6122 9.88342 9.94486C9.59253 9.34589 9.29769 8.77616 8.97336 8.25674C8.29295 7.16704 7.55454 6.41364 6.60244 6.09516ZM7.76172 18.7863C5.91167 17.6285 5.34297 15.1411 6.48882 13.2935C7.35912 11.8901 9.19961 11.4545 10.6061 12.3161C9.89625 13.3972 9.16812 14.4759 8.61091 15.6463C8.15203 16.6102 7.79876 17.67 7.76172 18.7863ZM9.83256 19.7029C10.5219 19.8965 11.2488 20 12 20C14.0297 20 15.8829 19.2441 17.2933 17.9985C16.833 18.0967 16.3535 18.1413 15.862 18.1258L15.8063 18.1241C13.7366 18.0589 12.0003 16.7446 11.2977 14.9275C10.9751 15.4446 10.6741 15.9653 10.4167 16.506C9.87267 17.6488 9.62412 18.6958 9.83256 19.7029ZM19.7852 10.1509C19.1464 7.45098 17.1394 5.28005 14.5367 4.41052C14.8739 4.78361 15.1565 5.19831 15.3939 5.64106C16.3779 7.47662 16.099 9.65184 14.8586 11.1701C15.5038 11.2031 16.1286 11.2163 16.7254 11.1814C17.9975 11.107 19.0249 10.8212 19.7852 10.1509ZM12.4271 10.636C11.9201 9.58472 11.3773 8.3306 10.6698 7.19747C10.1095 6.30008 9.41159 5.43085 8.4885 4.81353C10.3666 3.95265 12.6154 4.69115 13.6048 6.53686C14.3824 7.98726 13.8913 9.83486 12.4271 10.636ZM12.964 13.0522C12.9229 14.7227 14.2782 16.0749 15.925 16.1268C18.067 16.1943 19.8642 14.54 19.9866 12.413C18.9974 12.9186 17.9012 13.116 16.8422 13.178C15.5006 13.2565 14.1336 13.1278 12.964 13.0522Z" fill="black"/>
</svg>
