<svg width="24" height="24" viewBox="0 0 24 24" fill="none" xmlns="http://www.w3.org/2000/svg">
<path fill-rule="evenodd" clip-rule="evenodd" d="M2 6C2 4.89543 2.89543 4 4 4H17.5L22 8.5V18C22 19.1046 21.1046 20 20 20H19V15C19 13.8954 18.1046 13 17 13H2V6ZM16.6716 6H16V10H20V9.32843L16.6716 6ZM12.4186 17.5017C12.4186 19.0388 11.5244 20 10.0877 20C8.65104 20 7.75687 19.0388 7.75687 17.5017V17.495C7.75687 15.9578 8.65774 15 10.0877 15C11.5211 15 12.4186 15.9612 12.4186 17.495V17.5017ZM8.78835 17.5017C8.78835 18.5131 9.29404 19.1427 10.0877 19.1427C10.8915 19.1427 11.3871 18.503 11.3871 17.5017V17.495C11.3871 16.4869 10.8814 15.8573 10.0877 15.8573C9.29739 15.8573 8.78835 16.4836 8.78835 17.495V17.5017ZM2.90087 19.9163H2V15.0837H3.16879L4.54186 18.5566H4.56196L5.93503 15.0837H7.10382V19.9163H6.20295V16.6477H6.17281L4.87006 19.9163H4.23376L2.92766 16.6477H2.90087V19.9163ZM14.2137 19.9163H15.4461L17.0636 15.0837H15.9417L14.8399 18.8814H14.8198L13.7147 15.0837H12.5961L14.2137 19.9163Z" fill="black"/>
</svg>
