<svg width="24" height="24" viewBox="0 0 24 24" fill="none" xmlns="http://www.w3.org/2000/svg">
<path fill-rule="evenodd" clip-rule="evenodd" d="M2 6C2 4.89543 2.89543 4 4 4H17.5L22 8.5V18C22 19.1046 21.1046 20 20 20H18V15C18 13.8954 17.1046 13 16 13H2V6ZM16.6716 6H16V10H20V9.32843L16.6716 6ZM4.78586 20H3.73943V18.1324L2 15H3.12959L4.25225 17.1344H4.27651L5.3957 15H6.52876L4.78586 18.1324V20ZM7.9702 20H7.03812V15H8.2474L9.66805 18.5932H9.68884L11.1095 15H12.3188V20H11.3867V16.6182H11.3555L10.0076 20H9.34927L7.99792 16.6182H7.9702V20ZM13.1504 20H16.3832V19.1372H14.1968V15H13.1504V20Z" fill="black"/>
</svg>
