<svg width="24" height="24" viewBox="0 0 24 24" fill="none" xmlns="http://www.w3.org/2000/svg">
<path fill-rule="evenodd" clip-rule="evenodd" d="M6 2C4.89543 2 4 2.89543 4 4V20C4 21.1046 4.89543 22 6 22H18C19.1046 22 20 21.1046 20 20V6.58579L19.7071 6.29288L19.7071 6.29285L15.7071 2.29285L15.7071 2.29286L15.4142 2H6ZM14 7.99995V4H6V20H18V7.99995H14ZM12.5 11H9V18H11V16H12.5C13.8807 16 15 14.8807 15 13.5C15 12.1193 13.8807 11 12.5 11ZM12.5 14H11V13H12.5C12.7761 13 13 13.2239 13 13.5C13 13.7761 12.7761 14 12.5 14Z" fill="black"/>
</svg>
