<svg width="24" height="24" viewBox="0 0 24 24" fill="none" xmlns="http://www.w3.org/2000/svg">
<path fill-rule="evenodd" clip-rule="evenodd" d="M2 5.99976C2 4.89517 2.89545 3.99974 4.00003 3.99976L17.4142 3.99998L22 8.58576V17.9998C22 19.1043 21.1046 19.9997 20.0001 19.9998L16 20L16 18L20 17.9998V9.99998H16V5.99996L4 5.99976V13H2V5.99976ZM4.30074 20C5.46952 20 6.31681 19.2665 6.41058 18.2384L6.41393 18.2016H5.42934L5.42264 18.2351C5.29203 18.8077 4.88346 19.1426 4.30074 19.1426C3.52713 19.1426 3.03148 18.513 3.03148 17.4949V17.4916C3.03148 16.4802 3.52713 15.8573 4.30074 15.8573C4.90355 15.8573 5.29873 16.2056 5.41259 16.7381L5.42599 16.795H6.41058L6.40723 16.7649C6.31346 15.7401 5.47287 15 4.30074 15C2.89082 15 2 15.9377 2 17.4949V17.4983C2 19.0556 2.88747 20 4.30074 20ZM8.80509 20C10.0241 20 10.7542 19.4106 10.7542 18.4829V18.4795C10.7542 17.7193 10.2987 17.3074 9.28734 17.1065L8.77495 17.0026C8.21902 16.8921 7.9712 16.7146 7.9712 16.4099V16.4065C7.9712 16.0616 8.28265 15.8238 8.80174 15.8205C9.30074 15.8205 9.64903 16.0515 9.69926 16.43L9.70261 16.4702H10.6571L10.6537 16.4065C10.6068 15.5592 9.92029 15 8.80174 15C7.73007 15 6.95981 15.5827 6.95981 16.4668V16.4702C6.95981 17.1969 7.44206 17.6523 8.39652 17.8432L8.90556 17.9437C9.50502 18.0676 9.7428 18.2317 9.7428 18.5599V18.5633C9.7428 18.9317 9.39116 19.1761 8.83188 19.1761C8.2793 19.1761 7.88078 18.9417 7.81715 18.5666L7.81045 18.5298H6.85599L6.85934 18.5834C6.91628 19.4742 7.6564 20 8.80509 20ZM13.862 19.9162H12.6296L11.0121 15.0837H12.1306L13.2358 18.8814H13.2559L14.3577 15.0837H15.4796L13.862 19.9162Z" fill="black"/>
</svg>
