<svg width="24" height="24" viewBox="0 0 24 24" fill="none" xmlns="http://www.w3.org/2000/svg">
<path fill-rule="evenodd" clip-rule="evenodd" d="M2 6C2 4.89543 2.89543 4 4 4H17.5L22 8.5V18C22 19.1046 21.1046 20 20 20H16V15C16 13.8954 15.1046 13 14 13H2V6ZM16.6716 6H16V10H20V9.32843L16.6716 6ZM9.84327 18.4829C9.84327 19.4106 9.11319 20 7.89417 20C6.74548 20 6.00536 19.4742 5.94843 18.5834L5.94508 18.5298H6.89953L6.90623 18.5666C6.96986 18.9417 7.36839 19.1762 7.92096 19.1762C8.48024 19.1762 8.83188 18.9317 8.83188 18.5633V18.5599C8.83188 18.2317 8.59411 18.0676 7.99464 17.9437L7.4856 17.8433C6.53115 17.6524 6.04889 17.1969 6.04889 16.4702V16.4668C6.04889 15.5827 6.81916 15 7.89082 15C9.00938 15 9.69591 15.5593 9.7428 16.4066L9.74615 16.4702H8.79169L8.78835 16.43C8.73811 16.0516 8.38982 15.8205 7.89082 15.8205C7.37173 15.8238 7.06028 16.0616 7.06028 16.4066V16.4099C7.06028 16.7147 7.3081 16.8922 7.86403 17.0027L8.37642 17.1065C9.38781 17.3074 9.84327 17.7194 9.84327 18.4796V18.4829ZM5.28533 18.3891C5.28533 19.4072 4.67917 20 3.63094 20C2.63295 20 2.02679 19.4072 2.00335 18.4997L2 18.4695H2.98125L2.98459 18.4896C3.00134 18.8647 3.22237 19.1259 3.6209 19.1259C4.04622 19.1259 4.27395 18.8681 4.27395 18.3791V15.0837H5.28533V18.3891ZM10.1045 19.9163H11.1962L12.2512 18.2217H12.2847L13.3463 19.9163H14.4983L12.9344 17.5017V17.4883L14.5184 15.0837H13.3898L12.3684 16.8252H12.3315L11.3034 15.0837H10.1145L11.6417 17.4715V17.4816L10.1045 19.9163Z" fill="black"/>
</svg>
