<svg width="24" height="24" viewBox="0 0 24 24" fill="none" xmlns="http://www.w3.org/2000/svg">
<path fill-rule="evenodd" clip-rule="evenodd" d="M2 6C2 4.89543 2.89543 4 4 4H17.5L22 8.5V18C22 19.1046 21.1046 20 20 20H17V15C17 13.8954 16.1046 13 15 13H2V6ZM16.6716 6H16V10H20V9.32843L16.6716 6ZM3.04643 20H2V15H3.04643V17.2869H3.07069L4.90367 15H6.06791L4.27651 17.2072L6.19612 20H4.94525L3.51421 17.8898L3.04643 18.4685V20ZM9.94872 20H6.63617V15H9.94872V15.8628H7.68261V17.0617H9.82051V17.8794H7.68261V19.1372H9.94872V20ZM12.1247 20H13.1712V18.1324L14.9141 15H13.781L12.6618 17.1344H12.6376L11.5149 15H10.3853L12.1247 18.1324V20Z" fill="black"/>
</svg>
