<svg width="24" height="24" viewBox="0 0 24 24" fill="none" xmlns="http://www.w3.org/2000/svg">
<path fill-rule="evenodd" clip-rule="evenodd" d="M2 6C2 4.89543 2.89543 4 4 4H17.4142L22 8.58579V18C22 19.1046 21.1046 20 20 20H14V18H20V10H16V6H4V13H2V6ZM4.32753 20C5.67381 20 6.47086 19.2029 6.47086 17.8868V17.3309H4.38111V18.0844H5.48627L5.48292 18.1547C5.45613 18.7508 5.00402 19.1427 4.34427 19.1427C3.54052 19.1427 3.03148 18.5231 3.03148 17.4749V17.4715C3.03148 16.4468 3.51038 15.8573 4.30743 15.8573C4.85332 15.8573 5.23845 16.1286 5.3992 16.5975L5.41259 16.6309H6.42733L6.41728 16.5841C6.25653 15.6765 5.46618 15 4.30409 15C2.88747 15 2 15.9344 2 17.4816V17.4849C2 19.0589 2.88413 20 4.32753 20ZM7.14066 19.9163H8.15204V15.0837H7.14066V19.9163ZM9.96718 19.9163H8.95579V15.0837H12.1206V15.9176H9.96718V17.2137H11.933V18.0141H9.96718V19.9163Z" fill="black"/>
</svg>
