<svg width="24" height="24" viewBox="0 0 24 24" fill="none" xmlns="http://www.w3.org/2000/svg">
<path fill-rule="evenodd" clip-rule="evenodd" d="M2 6C2 4.89543 2.89543 4 4 4H17.4142L22 8.58579V18C22 19.1046 21.1046 20 20 20H18V18H20V10H16V6H4V13H2V6ZM2 20H3.04643V18.1878H3.88496L4.81705 20H6.00208L4.94872 18.0319C5.50312 17.8136 5.85308 17.2661 5.85308 16.6078V16.6008C5.85308 15.596 5.1878 15 4.06514 15H2V20ZM3.04643 17.3943V15.8177H3.93694C4.45322 15.8177 4.7824 16.1227 4.7824 16.6008V16.6078C4.7824 17.0998 4.47055 17.3943 3.9508 17.3943H3.04643ZM6.2273 20H7.32571L7.7034 18.7872H9.47055L9.84823 20H10.9466L9.20374 15H7.97367L6.2273 20ZM8.57658 15.9702H8.59737L9.228 18.0042H7.94595L8.57658 15.9702ZM13.0672 20H12.045L10.7214 15H11.806L12.596 18.5828H12.6168L13.5385 15H14.4567L15.3784 18.5828H15.3992L16.1927 15H17.2772L15.9501 20H14.9279L14.0097 16.6493H13.9889L13.0672 20Z" fill="black"/>
</svg>
