<svg width="24" height="24" viewBox="0 0 24 24" fill="none" xmlns="http://www.w3.org/2000/svg">
<path fill-rule="evenodd" clip-rule="evenodd" d="M2 6C2 4.89543 2.89543 4 4 4H17.5L22 8.5V18C22 19.1046 21.1046 20 20 20H16V15C16 13.8954 15.1046 13 14 13H2V6ZM16.6716 6H16V10H20V9.32843L16.6716 6ZM5.31254 20H2V15H5.31254V15.8628H3.04643V17.0617H5.18434V17.8794H3.04643V19.1372H5.31254V20ZM6.9307 20H5.80111L7.39155 17.4809V17.4705L5.8115 15H7.04158L8.10534 16.8018H8.14345L9.20028 15H10.368L8.72904 17.4879V17.5017L10.3472 20H9.15523L8.05683 18.2467H8.02218L6.9307 20ZM10.9328 20H14.2453V19.1372H11.9792V17.8794H14.1171V17.0617H11.9792V15.8628H14.2453V15H10.9328V20Z" fill="black"/>
</svg>
