<svg width="24" height="24" viewBox="0 0 24 24" fill="none" xmlns="http://www.w3.org/2000/svg">
<path fill-rule="evenodd" clip-rule="evenodd" d="M2 6C2 4.89543 2.89543 4 4 4H17.5L22 8.5V18C22 19.1046 21.1046 20 20 20H18V15C18 13.8954 17.1046 13 16 13H2V6ZM16.6716 6H16V10H20V9.32843L16.6716 6ZM2.93209 20H2V15H3.20929L4.62994 18.5932H4.65073L6.07138 15H7.28067V20H6.34858V16.6182H6.31739L4.96951 20H4.31116L2.95981 16.6182H2.93209V20ZM9.1587 20H8.11227V15H10.122C11.1753 15 11.8787 15.6791 11.8787 16.7082V16.7152C11.8787 17.7443 11.1753 18.4234 10.122 18.4234H9.1587V20ZM10.8184 16.7117C10.8184 16.1435 10.465 15.8281 9.86556 15.8281H9.1587V17.6057H9.86556C10.465 17.6057 10.8184 17.2869 10.8184 16.7186V16.7117ZM14.7651 20H15.7595V19.0818H16.4179V18.2467H15.7595V15H14.2834L12.2772 18.2086V19.0818H14.7651V20ZM13.1885 18.2744V18.2467L14.7616 15.7554H14.7859V18.2744H13.1885Z" fill="black"/>
</svg>
