<svg width="24" height="24" viewBox="0 0 24 24" fill="none" xmlns="http://www.w3.org/2000/svg">
<path fill-rule="evenodd" clip-rule="evenodd" d="M4 4C4 2.89543 4.89543 2 6 2H18C19.1046 2 20 2.89543 20 4V20C20 21.1046 19.1046 22 18 22H6C4.89543 22 4 21.1046 4 20V4ZM7.29289 11.7929L9.79289 9.29289L11.2071 10.7071L9.41421 12.5L11.2071 14.2929L9.79289 15.7071L7.29289 13.2071L6.58579 12.5L7.29289 11.7929ZM14.2071 9.29289L16.7071 11.7929L17.4142 12.5L16.7071 13.2071L14.2071 15.7071L12.7929 14.2929L14.5858 12.5L12.7929 10.7071L14.2071 9.29289Z" fill="black"/>
</svg>
