<svg width="24" height="24" viewBox="0 0 24 24" fill="none" xmlns="http://www.w3.org/2000/svg">
<path fill-rule="evenodd" clip-rule="evenodd" d="M6 2C4.89543 2 4 2.89543 4 4V20C4 21.1046 4.89543 22 6 22H18C19.1046 22 20 21.1046 20 20V6.58579L19.7071 6.29288L19.7071 6.29285L15.7071 2.29285L15.7071 2.29286L15.4142 2H6ZM14 7.99995V4H6V20H18V7.99995H14ZM14.5 12C14.9994 12.566 15 13 15 14C14.5304 13.5445 13 13 13 13V16.4756C13 17.304 12.1046 17.9756 11 17.9756C9.89543 17.9756 9 17.304 9 16.4756C9 15.6472 9.89543 14.9756 11 14.9756C11.1727 14.9756 11.3402 14.992 11.5 15.0228L11.5001 10C12.5 10.5 14.163 11.6181 14.5 12Z" fill="black"/>
</svg>
