<svg width="24" height="24" viewBox="0 0 24 24" fill="none" xmlns="http://www.w3.org/2000/svg">
<path fill-rule="evenodd" clip-rule="evenodd" d="M6 2C4.89543 2 4 2.89543 4 4V20C4 21.1046 4.89543 22 6 22H18C19.1046 22 20 21.1046 20 20V4C20 2.89543 19.1046 2 18 2H6ZM6 4L18 4V20H6V4ZM16.0001 11.1429C16.0001 9.85714 15.8364 9.21429 15.337 8.64826C14.9693 8.23152 14.4942 7.94666 14.1147 7.71912L14.1147 7.71912L14.1138 7.71857L14.0808 7.69878C13.0626 7.08782 11.5001 6 11.5001 6C11.5001 6.18119 11.5033 6.34962 11.5103 6.50686L11.5 6.5V14.1664C11.1938 14.0594 10.8556 14 10.5 14C9.11929 14 8 14.8954 8 16C8 17.1046 9.11929 18 10.5 18C11.8807 18 13 17.1046 13 16V15.9997V9.18632C13.1341 9.27312 13.2651 9.35163 13.3862 9.42429C13.5965 9.55035 13.8118 9.67238 14.0281 9.7949L14.0281 9.79491C14.7237 10.1891 15.4283 10.5883 16.0001 11.1429Z" fill="black"/>
</svg>
