<svg width="24" height="24" viewBox="0 0 24 24" fill="none" xmlns="http://www.w3.org/2000/svg">
<path fill-rule="evenodd" clip-rule="evenodd" d="M2 6C2 4.89543 2.89543 4 4 4H17.4142L22 8.58579V18C22 19.1046 21.1046 20 20 20H11V18H20V10H16V6H4V13H2V6ZM3.04643 20H2V15H4.0097C5.06306 15 5.76646 15.6791 5.76646 16.7082V16.7152C5.76646 17.7443 5.06306 18.4234 4.0097 18.4234H3.04643V20ZM4.70617 16.7117C4.70617 16.1435 4.35274 15.8281 3.75329 15.8281H3.04643V17.6057H3.75329C4.35274 17.6057 4.70617 17.2869 4.70617 16.7186V16.7117ZM8.68053 20H7.6341V18.1324L5.89466 15H7.02425L8.14692 17.1344H8.17117L9.29037 15H10.4234L8.68053 18.1324V20Z" fill="black"/>
</svg>
