<svg width="24" height="24" viewBox="0 0 24 24" fill="none" xmlns="http://www.w3.org/2000/svg">
<path fill-rule="evenodd" clip-rule="evenodd" d="M6 2C4.89543 2 4 2.89543 4 4V20C4 21.1046 4.89543 22 6 22H18C19.1046 22 20 21.1046 20 20V6.58579L19.7071 6.29288L19.7071 6.29285L15.7071 2.29285L15.7071 2.29286L15.4142 2H6ZM14 7.99995V4H6V20H18V7.99995H14ZM8.97546 12.4057L10.572 13.9974L8.9956 15.5801L10.4035 16.9904L11.9832 15.4044L13.5725 16.989L14.9755 15.5737L13.3895 13.9925L14.9724 12.4032L13.5646 10.9929L11.9783 12.5855L10.3784 10.9904L8.97546 12.4057Z" fill="black"/>
</svg>
