<svg width="24" height="24" viewBox="0 0 24 24" fill="none" xmlns="http://www.w3.org/2000/svg">
<path fill-rule="evenodd" clip-rule="evenodd" d="M4 4C4 2.89543 4.89543 2 6 2H15.4142L15.7071 2.29286L15.7071 2.29285L19.7071 6.29285L19.7071 6.29288L20 6.58579V20C20 21.1046 19.1046 22 18 22H6C4.89543 22 4 21.1046 4 20V4ZM14 4V7.99995H18V20H6V4H14ZM11 7C11 7.55228 10.5523 8 10 8C9.44771 8 9 7.55228 9 7C9 6.44772 9.44771 6 10 6C10.5523 6 11 6.44772 11 7ZM8 14V12L10 10L12 12L14 10L16 12V14H8ZM8 16V18H16V16H8Z" fill="black"/>
</svg>
