<svg width="24" height="24" viewBox="0 0 24 24" fill="none" xmlns="http://www.w3.org/2000/svg">
<path fill-rule="evenodd" clip-rule="evenodd" d="M2 6C2 4.89543 2.89543 4 4 4H17.5L22 8.5V18C22 19.1046 21.1046 20 20 20H17V15C17 13.8954 16.1046 13 15 13H2V6ZM16.6716 6H16V10H20V9.32843L16.6716 6ZM10.081 18.4829C10.081 19.4106 9.35097 20 8.13195 20C6.98325 20 6.24313 19.4742 6.1862 18.5834L6.18285 18.5298H7.13731L7.144 18.5666C7.20763 18.9417 7.60616 19.1762 8.15874 19.1762C8.71802 19.1762 9.06966 18.9317 9.06966 18.5633V18.5599C9.06966 18.2317 8.83188 18.0676 8.23242 17.9437L7.72338 17.8433C6.76892 17.6524 6.28667 17.1969 6.28667 16.4702V16.4668C6.28667 15.5827 7.05693 15 8.1286 15C9.24715 15 9.93369 15.5593 9.98058 16.4066L9.98392 16.4702H9.02947L9.02612 16.43C8.97589 16.0516 8.62759 15.8205 8.1286 15.8205C7.60951 15.8238 7.29806 16.0616 7.29806 16.4066V16.4099C7.29806 16.7147 7.54588 16.8922 8.10181 17.0027L8.6142 17.1065C9.62559 17.3074 10.081 17.7194 10.081 18.4796V18.4829ZM4.4079 19.9163H3.39652V15.9176H2V15.0837H5.80777V15.9176H4.4079V19.9163ZM10.3423 19.9163H11.434L12.4889 18.2217H12.5224L13.5841 19.9163H14.7361L13.1721 17.5017V17.4883L14.7562 15.0837H13.6276L12.6062 16.8252H12.5693L11.5412 15.0837H10.3523L11.8794 17.4715V17.4816L10.3423 19.9163Z" fill="black"/>
</svg>
