<svg width="24" height="24" viewBox="0 0 24 24" fill="none" xmlns="http://www.w3.org/2000/svg">
<path fill-rule="evenodd" clip-rule="evenodd" d="M2 6C2 4.89543 2.89543 4 4 4H17.5L22 8.5V13H20H2V6ZM16.6716 6H16V10H20V9.32843L16.6716 6ZM10.8948 20C12.3315 20 13.2257 19.0388 13.2257 17.5017V17.495C13.2257 15.9612 12.3282 15 10.8948 15C9.46484 15 8.56397 15.9578 8.56397 17.495V17.5017C8.56397 19.0388 9.45814 20 10.8948 20ZM10.8948 19.1427C10.1011 19.1427 9.59545 18.5131 9.59545 17.5017V17.495C9.59545 16.4836 10.1045 15.8573 10.8948 15.8573C11.6885 15.8573 12.1942 16.4869 12.1942 17.495V17.5017C12.1942 18.503 11.6986 19.1427 10.8948 19.1427ZM3.2793 19.9163H4.26725L5.15807 16.6778H5.17816L6.06564 19.9163H7.05358L8.33624 15.0837H7.28801L6.5211 18.5466H6.501L5.61018 15.0837H4.72271L3.83188 18.5466H3.81179L3.04823 15.0837H2L3.2793 19.9163ZM14.8902 19.9163H13.8788V15.0837H17.0435V15.9176H14.8902V17.2137H16.856V18.0141H14.8902V19.9163ZM17.643 19.9163H18.6544V18.0141H20.6202V17.2137H18.6544V15.9176H20.8078V15.0837H17.643V19.9163Z" fill="black"/>
</svg>
