<svg width="24" height="24" viewBox="0 0 24 24" fill="none" xmlns="http://www.w3.org/2000/svg">
<path fill-rule="evenodd" clip-rule="evenodd" d="M2 6C2 4.89543 2.89543 4 4 4H17.4142L22 8.58579V18C22 19.1046 21.1046 20 20 20H17V18H20V10H16V6H4V13H2V6ZM8.13195 20C9.35097 20 10.081 19.4106 10.081 18.4829V18.4796C10.081 17.7194 9.62559 17.3074 8.6142 17.1065L8.10181 17.0027C7.54588 16.8922 7.29806 16.7147 7.29806 16.4099V16.4066C7.29806 16.0616 7.60951 15.8238 8.1286 15.8205C8.62759 15.8205 8.97589 16.0516 9.02612 16.43L9.02947 16.4702H9.98392L9.98058 16.4066C9.93369 15.5593 9.24715 15 8.1286 15C7.05693 15 6.28667 15.5827 6.28667 16.4668V16.4702C6.28667 17.1969 6.76892 17.6524 7.72338 17.8433L8.23242 17.9437C8.83188 18.0676 9.06966 18.2317 9.06966 18.5599V18.5633C9.06966 18.9317 8.71802 19.1762 8.15874 19.1762C7.60616 19.1762 7.20763 18.9417 7.144 18.5666L7.13731 18.5298H6.18285L6.1862 18.5834C6.24313 19.4742 6.98325 20 8.13195 20ZM3.39652 19.9163H4.4079V15.9176H5.80777V15.0837H2V15.9176H3.39652V19.9163ZM11.434 19.9163H10.3423L11.8794 17.4816V17.4715L10.3523 15.0837H11.5412L12.5693 16.8252H12.6062L13.6276 15.0837H14.7562L13.1721 17.4883V17.5017L14.7361 19.9163H13.5841L12.5224 18.2217H12.4889L11.434 19.9163Z" fill="black"/>
</svg>
