<svg width="24" height="24" viewBox="0 0 24 24" fill="none" xmlns="http://www.w3.org/2000/svg">
<path fill-rule="evenodd" clip-rule="evenodd" d="M6 6C6 4.89543 6.89543 4 8 4C8.55228 4 9 4.44772 9 5C9 5.55228 8.55228 6 8 6V8H18V20H6V6ZM20 7.82929V20C20 21.1046 19.1046 22 18 22H6C4.89543 22 4 21.1046 4 20V6C4 3.79086 5.79086 2 8 2H12H19C20.6569 2 22 3.34315 22 5C22 6.30622 21.1652 7.41746 20 7.82929ZM10.8293 4C10.9398 4.31278 11 4.64936 11 5C11 5.35064 10.9398 5.68722 10.8293 6H19C19.5523 6 20 5.55228 20 5C20 4.44772 19.5523 4 19 4H12H10.8293Z" fill="black"/>
</svg>
