<svg width="24" height="24" viewBox="0 0 24 24" fill="none" xmlns="http://www.w3.org/2000/svg">
<path fill-rule="evenodd" clip-rule="evenodd" d="M6 2C4.89543 2 4 2.89543 4 4V20C4 21.1046 4.89543 22 6 22H18C19.1046 22 20 21.1046 20 20V6.58579L19.7071 6.29288L19.7071 6.29285L15.7071 2.29285L15.7071 2.29286L15.4142 2H6ZM14 7.99995V4H6V20H7V19.9999C7.09999 19.3347 7.56654 18.7619 8.20416 18.507L10.7235 17.4999L10.7234 16.4548L10.2556 15.9873C9.96776 15.6996 9.80166 15.4204 9.7464 15.1547C9.59505 14.4269 9.49183 13.4201 9.39464 12.4116C9.36116 12.0642 9.57441 11.6655 10.2653 11.3084C10.6686 11.1001 11.1666 10.8333 10.75 10C11.5833 10 12.4638 10.1186 13.2144 10.367C14.0758 10.6522 14.6515 11.6749 14.5449 12.8896C14.4714 13.7268 14.3832 14.5397 14.2549 15.155C14.1997 15.4196 14.0335 15.6983 13.7444 15.9873L13.2766 16.4548L13.2766 17.4999L15.7959 18.507C16.4335 18.7619 16.9 19.3347 17 19.9999V20H18V7.99995H14Z" fill="black"/>
</svg>
