<svg width="24" height="24" viewBox="0 0 24 24" fill="none" xmlns="http://www.w3.org/2000/svg">
<path fill-rule="evenodd" clip-rule="evenodd" d="M2 6C2 4.89543 2.89543 4 4 4H17.4142L22 8.58579V18C22 19.1046 21.1046 20 20 20H18V18H20V10H16V6H4V13H2V6ZM15.8312 18.2384C15.7374 19.2666 14.8902 20 13.7214 20C12.3081 20 11.4206 19.0556 11.4206 17.4983V17.495C11.4206 15.9377 12.3115 15 13.7214 15C14.8935 15 15.7341 15.7401 15.8279 16.7649L15.8312 16.795H14.8466L14.8332 16.7381C14.7194 16.2056 14.3242 15.8573 13.7214 15.8573C12.9478 15.8573 12.4521 16.4802 12.4521 17.4916V17.495C12.4521 18.5131 12.9478 19.1427 13.7214 19.1427C14.3041 19.1427 14.7127 18.8078 14.8433 18.2351L14.85 18.2016H15.8346L15.8312 18.2384ZM2 19.9163H3.06162L3.42666 18.7441H5.13463L5.49967 19.9163H6.56129L4.87676 15.0837H3.68788L2 19.9163ZM4.2706 16.0214H4.29069L4.9002 17.9873H3.66109L4.2706 16.0214ZM6.74883 19.9163H7.81045L8.17549 18.7441H9.88346L10.2485 19.9163H11.3101L9.62559 15.0837H8.4367L6.74883 19.9163ZM9.01942 16.0214H9.03952L9.64903 17.9873H8.40991L9.01942 16.0214Z" fill="black"/>
</svg>
