<svg width="24" height="24" viewBox="0 0 24 24" fill="none" xmlns="http://www.w3.org/2000/svg">
<path fill-rule="evenodd" clip-rule="evenodd" d="M2 6C2 4.89543 2.89543 4 4 4H17.5L22 8.5V18C22 19.1046 21.1046 20 20 20H18V15C18 13.8954 17.1046 13 16 13H2V6ZM16.6716 6H16V10H20V9.32843L16.6716 6ZM5.89819 18.4829C5.89819 19.4106 5.16812 20 3.9491 20C2.8004 20 2.06028 19.4742 2.00335 18.5834L2 18.5298H2.95445L2.96115 18.5666C3.02478 18.9417 3.42331 19.1762 3.97589 19.1762C4.53516 19.1762 4.88681 18.9317 4.88681 18.5633V18.5599C4.88681 18.2317 4.64903 18.0676 4.04956 17.9437L3.54052 17.8433C2.58607 17.6524 2.10382 17.1969 2.10382 16.4702V16.4668C2.10382 15.5827 2.87408 15 3.94575 15C5.0643 15 5.75084 15.5593 5.79772 16.4066L5.80107 16.4702H4.84662L4.84327 16.43C4.79303 16.0516 4.44474 15.8205 3.94575 15.8205C3.42666 15.8238 3.1152 16.0616 3.1152 16.4066V16.4099C3.1152 16.7147 3.36303 16.8922 3.91896 17.0027L4.43135 17.1065C5.44273 17.3074 5.89819 17.7194 5.89819 18.4796V18.4829ZM9.00603 19.9163H7.77361L6.15606 15.0837H7.27462L8.37977 18.8814H8.39987L9.50168 15.0837H10.6236L9.00603 19.9163ZM13.2291 20C14.5754 20 15.3724 19.2029 15.3724 17.8868V17.3309H13.2827V18.0844H14.3878L14.3845 18.1547C14.3577 18.7508 13.9056 19.1427 13.2458 19.1427C12.4421 19.1427 11.933 18.5231 11.933 17.4749V17.4715C11.933 16.4468 12.4119 15.8573 13.209 15.8573C13.7549 15.8573 14.14 16.1286 14.3007 16.5975L14.3141 16.6309H15.3289L15.3188 16.5841C15.1581 15.6765 14.3677 15 13.2056 15C11.789 15 10.9015 15.9344 10.9015 17.4816V17.4849C10.9015 19.0589 11.7857 20 13.2291 20Z" fill="black"/>
</svg>
