<svg width="24" height="24" viewBox="0 0 24 24" fill="none" xmlns="http://www.w3.org/2000/svg">
<path fill-rule="evenodd" clip-rule="evenodd" d="M6 2C4.89543 2 4 2.89543 4 4V20C4 21.1046 4.89543 22 6 22H18C19.1046 22 20 21.1046 20 20V4C20 2.89543 19.1046 2 18 2H6ZM6 4L18 4V20H6V4ZM16 10V18H8V10H16ZM12 12L12.6181 13.3167L14 13.5279L13 14.5528L13.2361 16L12 15.3167L10.764 16L11 14.5528L10 13.5279L11.382 13.3167L12 12ZM12 8H8V6H12V8ZM15 8C15.5523 8 16 7.55228 16 7C16 6.44772 15.5523 6 15 6C14.4477 6 14 6.44772 14 7C14 7.55228 14.4477 8 15 8Z" fill="black"/>
</svg>
