<svg width="24" height="24" viewBox="0 0 24 24" fill="none" xmlns="http://www.w3.org/2000/svg">
<path fill-rule="evenodd" clip-rule="evenodd" d="M2 6C2 4.89543 2.89543 4 4 4H17.5L22 8.5V18C22 19.1046 21.1046 20 20 20H12V15C12 13.8954 11.1046 13 10 13H2V6ZM16.6716 6H16V10H20V9.32843L16.6716 6ZM2 20H3.04643V18.4234H4.0097C5.06306 18.4234 5.76646 17.7443 5.76646 16.7152V16.7082C5.76646 15.6791 5.06306 15 4.0097 15H2V20ZM3.75329 15.8281C4.35274 15.8281 4.70617 16.1435 4.70617 16.7117V16.7186C4.70617 17.2869 4.35274 17.6057 3.75329 17.6057H3.04643V15.8281H3.75329ZM7.6341 20H8.68053V18.1324L10.4234 15H9.29037L8.17117 17.1344H8.14692L7.02425 15H5.89466L7.6341 18.1324V20Z" fill="black"/>
</svg>
