<svg width="24" height="24" viewBox="0 0 24 24" fill="none" xmlns="http://www.w3.org/2000/svg">
<path fill-rule="evenodd" clip-rule="evenodd" d="M2 6C2 4.89543 2.89543 4 4 4H17.5L22 8.5V18C22 19.1046 21.1046 20 20 20H14V15C14 13.8954 13.1046 13 12 13H2V6ZM16.6716 6H16V10H20V9.32843L16.6716 6ZM2 20H2.93209V16.6182H2.95981L4.31116 20H4.96951L6.31739 16.6182H6.34858V20H7.28067V15H6.07138L4.65073 18.5932H4.62994L3.20929 15H2V20ZM8.11227 20H10.0215C11.5218 20 12.4054 19.0679 12.4054 17.4809V17.474C12.4054 15.8905 11.5184 15 10.0215 15H8.11227V20ZM9.1587 19.1337V15.8628H9.89674C10.815 15.8628 11.3382 16.4345 11.3382 17.4775V17.4844C11.3382 18.5655 10.8323 19.1337 9.89674 19.1337H9.1587Z" fill="black"/>
</svg>
