<svg width="24" height="24" viewBox="0 0 24 24" fill="none" xmlns="http://www.w3.org/2000/svg">
<path fill-rule="evenodd" clip-rule="evenodd" d="M4 4C4 2.89543 4.89543 2 6 2H15.4142L15.7071 2.29286L15.7071 2.29285L19.7071 6.29285L19.7071 6.29288L20 6.58579V20C20 21.1046 19.1046 22 18 22H6C4.89543 22 4 21.1046 4 20V4ZM14 4V7.99995H18V20H6V4H14ZM12 8H8V6H12V8ZM8 18V10H16V18H8ZM12 12L12.6181 13.3167L14 13.5279L13 14.5528L13.2361 16L12 15.3167L10.764 16L11 14.5528L10 13.5279L11.382 13.3167L12 12Z" fill="black"/>
</svg>
