<svg width="24" height="24" viewBox="0 0 24 24" fill="none" xmlns="http://www.w3.org/2000/svg">
<path fill-rule="evenodd" clip-rule="evenodd" d="M2 6C2 4.89543 2.89543 4 4 4H17.5L22 8.5V18C22 19.1046 21.1046 20 20 20H17V15C17 13.8954 16.1046 13 15 13H2V6ZM16.6716 6H16V10H20V9.32843L16.6716 6ZM9.95378 18.4829C9.95378 19.4106 9.22371 20 8.00469 20C6.85599 20 6.11587 19.4742 6.05894 18.5834L6.05559 18.5298H7.01005L7.01674 18.5666C7.08038 18.9417 7.4789 19.1762 8.03148 19.1762C8.59076 19.1762 8.9424 18.9317 8.9424 18.5633V18.5599C8.9424 18.2317 8.70462 18.0676 8.10516 17.9437L7.59612 17.8433C6.64166 17.6524 6.15941 17.1969 6.15941 16.4702V16.4668C6.15941 15.5827 6.92967 15 8.00134 15C9.11989 15 9.80643 15.5593 9.85332 16.4066L9.85666 16.4702H8.90221L8.89886 16.43C8.84863 16.0516 8.50033 15.8205 8.00134 15.8205C7.48225 15.8238 7.1708 16.0616 7.1708 16.4066V16.4099C7.1708 16.7147 7.41862 16.8922 7.97455 17.0027L8.48694 17.1065C9.49833 17.3074 9.95378 17.7194 9.95378 18.4796V18.4829ZM3.01139 19.9163H2V15.0837H3.9424C4.96048 15.0837 5.64032 15.7401 5.64032 16.7348V16.7415C5.64032 17.7361 4.96048 18.3925 3.9424 18.3925H3.01139V19.9163ZM4.61554 16.7381C4.61554 16.1889 4.27395 15.8841 3.69457 15.8841H3.01139V17.6021H3.69457C4.27395 17.6021 4.61554 17.294 4.61554 16.7448V16.7381ZM10.5733 19.9163H12.4186C13.8687 19.9163 14.7227 19.0154 14.7227 17.4816V17.4749C14.7227 15.9444 13.8654 15.0837 12.4186 15.0837H10.5733V19.9163ZM11.5847 19.079V15.9176H12.2981C13.1855 15.9176 13.6912 16.4702 13.6912 17.4782V17.4849C13.6912 18.5298 13.2023 19.079 12.2981 19.079H11.5847Z" fill="black"/>
</svg>
