<svg width="24" height="24" viewBox="0 0 24 24" fill="none" xmlns="http://www.w3.org/2000/svg">
<path fill-rule="evenodd" clip-rule="evenodd" d="M2 6C2 4.89543 2.89543 4 4 4H17.4142L22 8.58579V18C22 19.1046 21.1046 20 20 20H19V18H20V10H16V6H4V13H2V6ZM3.73943 20H4.78586V18.1324L6.52876 15H5.3957L4.27651 17.1344H4.25225L3.12959 15H2L3.73943 18.1324V20ZM7.03812 20H7.9702V16.6182H7.99792L9.34927 20H10.0076L11.3555 16.6182H11.3867V20H12.3188V15H11.1095L9.68884 18.5932H9.66805L8.2474 15H7.03812V20ZM16.3832 20H13.1504V15H14.1968V19.1372H16.3832V20Z" fill="black"/>
</svg>
