<svg width="24" height="24" viewBox="0 0 24 24" fill="none" xmlns="http://www.w3.org/2000/svg">
<path fill-rule="evenodd" clip-rule="evenodd" d="M4 4C4 2.89543 4.89543 2 6 2H15.5L20 6.5V20C20 21.1046 19.1046 22 18 22H6C4.89543 22 4 21.1046 4 20V4ZM14.6716 4H14V8H18V7.32843L14.6716 4ZM9.79289 11.2929L6.58579 14.5L9.79289 17.7071L11.2071 16.2929L9.41421 14.5L11.2071 12.7071L9.79289 11.2929ZM12.7929 12.7071L14.5858 14.5L12.7929 16.2929L14.2071 17.7071L17.4142 14.5L14.2071 11.2929L12.7929 12.7071Z" fill="black"/>
</svg>
