<svg width="24" height="24" viewBox="0 0 24 24" fill="none" xmlns="http://www.w3.org/2000/svg">
<path fill-rule="evenodd" clip-rule="evenodd" d="M2 6C2 4.89543 2.89543 4 4 4H17.4142L22 8.58579V18C22 19.1046 21.1046 20 20 20H19V18H20V10H16V6H4V13H2V6ZM2 20H2.93209V16.6182H2.95981L4.31116 20H4.96951L6.31739 16.6182H6.34858V20H7.28067V15H6.07138L4.65073 18.5932H4.62994L3.20929 15H2V20ZM8.11227 20H10.0215C11.5218 20 12.4054 19.0679 12.4054 17.4809V17.474C12.4054 15.8905 11.5184 15 10.0215 15H8.11227V20ZM9.1587 19.1337V15.8628H9.89674C10.815 15.8628 11.3382 16.4345 11.3382 17.4775V17.4844C11.3382 18.5655 10.8323 19.1337 9.89674 19.1337H9.1587ZM13.6459 20H12.5163L14.1067 17.4809V17.4705L12.5267 15H13.7568L14.8205 16.8018H14.8586L15.9155 15H17.0832L15.4442 17.4879V17.5017L17.0624 20H15.8704L14.772 18.2467H14.7374L13.6459 20Z" fill="black"/>
</svg>
