<svg width="24" height="24" viewBox="0 0 24 24" fill="none" xmlns="http://www.w3.org/2000/svg">
<path fill-rule="evenodd" clip-rule="evenodd" d="M2 6C2 4.89543 2.89543 4 4 4H17.5L22 8.5V18C22 19.1046 21.1046 20 20 20H18V15C18 13.8954 17.1046 13 16 13H2V6ZM16.6716 6H16V10H20V9.32843L16.6716 6ZM4.21414 20H2V15H4.17602C5.1185 15 5.71102 15.4851 5.71102 16.2543V16.2613C5.71102 16.8087 5.29522 17.2765 4.74428 17.3493V17.3701C5.44075 17.422 5.94317 17.9141 5.94317 18.569V18.5759C5.94317 19.4525 5.28136 20 4.21414 20ZM4.68191 16.4033C4.68191 16.0049 4.39432 15.7762 3.90575 15.7762H3.04643V17.0894H3.77755C4.3666 17.0894 4.68191 16.8434 4.68191 16.4103V16.4033ZM4.87595 18.5031C4.87595 18.0457 4.54331 17.7997 3.90229 17.7997H3.04643V19.2204H3.94733C4.54678 19.2204 4.87595 18.9744 4.87595 18.51V18.5031ZM7.47124 20H6.53916V15H7.74844L9.16909 18.5932H9.18988L10.6105 15H11.8198V20H10.8877V16.6182H10.8565L9.50866 20H8.85031L7.49896 16.6182H7.47124V20ZM12.6514 20H13.6979V18.4234H14.6611C15.7145 18.4234 16.4179 17.7443 16.4179 16.7152V16.7082C16.4179 15.6791 15.7145 15 14.6611 15H12.6514V20ZM14.4047 15.8281C15.0042 15.8281 15.3576 16.1435 15.3576 16.7117V16.7186C15.3576 17.2869 15.0042 17.6057 14.4047 17.6057H13.6979V15.8281H14.4047Z" fill="black"/>
</svg>
