<svg width="24" height="24" viewBox="0 0 24 24" fill="none" xmlns="http://www.w3.org/2000/svg">
<path fill-rule="evenodd" clip-rule="evenodd" d="M2 6C2 4.89543 2.89543 4 4 4H17.4142L22 8.58579V13H20V10H16V6H4V13H2V6ZM6.89819 18.4829C6.89819 19.4106 6.16812 20 4.9491 20C3.8004 20 3.06028 19.4742 3.00335 18.5834L3 18.5298H3.95445L3.96115 18.5666C4.02478 18.9417 4.42331 19.1762 4.97589 19.1762C5.53516 19.1762 5.88681 18.9317 5.88681 18.5633V18.5599C5.88681 18.2317 5.64903 18.0676 5.04956 17.9437L4.54052 17.8433C3.58607 17.6524 3.10382 17.1969 3.10382 16.4702V16.4668C3.10382 15.5827 3.87408 15 4.94575 15C6.0643 15 6.75084 15.5593 6.79772 16.4066L6.80107 16.4702H5.84662L5.84327 16.43C5.79303 16.0516 5.44474 15.8205 4.94575 15.8205C4.42666 15.8238 4.1152 16.0616 4.1152 16.4066V16.4099C4.1152 16.7147 4.36303 16.8922 4.91896 17.0027L5.43135 17.1065C6.44273 17.3074 6.89819 17.7194 6.89819 18.4796V18.4829ZM8.1708 19.9163H7.10918L8.79705 15.0837H9.98593L11.6705 19.9163H10.6088L10.2438 18.7441H8.53583L8.1708 19.9163ZM9.39987 16.0214H9.37977L8.77026 17.9873H10.0094L9.39987 16.0214ZM13.8305 20C15.0496 20 15.7796 19.4106 15.7796 18.4829V18.4796C15.7796 17.7194 15.3242 17.3074 14.3128 17.1065L13.8004 17.0027C13.2445 16.8922 12.9967 16.7147 12.9967 16.4099V16.4066C12.9967 16.0616 13.3081 15.8238 13.8272 15.8205C14.3262 15.8205 14.6745 16.0516 14.7247 16.43L14.7281 16.4702H15.6825L15.6792 16.4066C15.6323 15.5593 14.9457 15 13.8272 15C12.7555 15 11.9853 15.5827 11.9853 16.4668V16.4702C11.9853 17.1969 12.4675 17.6524 13.422 17.8433L13.931 17.9437C14.5305 18.0676 14.7683 18.2317 14.7683 18.5599V18.5633C14.7683 18.9317 14.4166 19.1762 13.8573 19.1762C13.3048 19.1762 12.9062 18.9417 12.8426 18.5666L12.8359 18.5298H11.8814L11.8848 18.5834C11.9417 19.4742 12.6818 20 13.8305 20ZM20.1132 18.4829C20.1132 19.4106 19.3831 20 18.1641 20C17.0154 20 16.2753 19.4742 16.2184 18.5834L16.215 18.5298H17.1695L17.1762 18.5666C17.2398 18.9417 17.6383 19.1762 18.1909 19.1762C18.7502 19.1762 19.1018 18.9317 19.1018 18.5633V18.5599C19.1018 18.2317 18.864 18.0676 18.2646 17.9437L17.7555 17.8433C16.8011 17.6524 16.3188 17.1969 16.3188 16.4702V16.4668C16.3188 15.5827 17.0891 15 18.1608 15C19.2793 15 19.9658 15.5593 20.0127 16.4066L20.0161 16.4702H19.0616L19.0583 16.43C19.008 16.0516 18.6597 15.8205 18.1608 15.8205C17.6417 15.8238 17.3302 16.0616 17.3302 16.4066V16.4099C17.3302 16.7147 17.578 16.8922 18.134 17.0027L18.6464 17.1065C19.6577 17.3074 20.1132 17.7194 20.1132 18.4796V18.4829Z" fill="black"/>
</svg>
