<svg width="24" height="24" viewBox="0 0 24 24" fill="none" xmlns="http://www.w3.org/2000/svg">
<path fill-rule="evenodd" clip-rule="evenodd" d="M2 6C2 4.89543 2.89543 4 4 4H17.4142L22 8.58579V18C22 19.1046 21.1046 20 20 20H18V18H20V10H16V6H4V13H2V6ZM2 20H2.93209V16.6182H2.95981L4.31116 20H4.96951L6.31739 16.6182H6.34858V20H7.28067V15H6.07138L4.65073 18.5932H4.62994L3.20929 15H2V20ZM10.4546 20H11.4491V19.0818H12.1074V18.2467H11.4491V15H9.97297L7.96674 18.2086V19.0818H10.4546V20ZM8.87803 18.2744V18.2467L10.4511 15.7554H10.4754V18.2744H8.87803ZM13.7741 20H12.7277V15H14.7374C15.7907 15 16.4941 15.6791 16.4941 16.7082V16.7152C16.4941 17.7443 15.7907 18.4234 14.7374 18.4234H13.7741V20ZM15.4338 16.7117C15.4338 16.1435 15.0804 15.8281 14.4809 15.8281H13.7741V17.6057H14.4809C15.0804 17.6057 15.4338 17.2869 15.4338 16.7186V16.7117Z" fill="black"/>
</svg>
