<svg width="24" height="24" viewBox="0 0 24 24" fill="none" xmlns="http://www.w3.org/2000/svg">
<path fill-rule="evenodd" clip-rule="evenodd" d="M4 4C4 2.89543 4.89543 2 6 2H15.5L20 6.5V20C20 21.1046 19.1046 22 18 22H6C4.89543 22 4 21.1046 4 20V4ZM14.6716 4H14V8H18V7.32843L14.6716 4ZM10.2 14L8.30245 12.9044L9.20245 11.3456L11.1 12.4411V10.25H12.9V12.4411L14.7976 11.3456L15.6976 12.9044L13.8 14L15.6976 15.0956L14.7976 16.6544L12.9 15.5588V17.75H11.1V15.5588L9.20238 16.6544L8.30238 15.0956L10.2 14Z" fill="black"/>
</svg>
