<svg width="24" height="24" viewBox="0 0 24 24" fill="none" xmlns="http://www.w3.org/2000/svg">
<path fill-rule="evenodd" clip-rule="evenodd" d="M6 2C4.89543 2 4 2.89543 4 4V20C4 21.1046 4.89543 22 6 22H18C19.1046 22 20 21.1046 20 20V4C20 2.89543 19.1046 2 18 2H6ZM9.91844 7.57013C10.4023 7.32008 11 7 10.5 6C11.5 6 12.5566 6.14229 13.4573 6.44046C14.491 6.78263 15.1819 8.00995 15.0539 9.46754C14.9657 10.4722 14.8599 11.4477 14.706 12.1861C14.6398 12.5036 14.4403 12.838 14.0933 13.1848L13.5319 13.7458L13.532 15L16.5552 16.2085C17.3203 16.5144 17.8801 17.2018 18.0001 18V20H6V18C6.11999 17.2018 6.67985 16.5144 7.44501 16.2085L10.4682 15L10.4681 13.7458L9.90672 13.1848C9.56135 12.8396 9.36203 12.5045 9.29571 12.1856C9.11409 11.3123 8.99022 10.1041 8.87359 8.89397C8.83342 8.47705 9.08932 7.9986 9.91844 7.57013Z" fill="black"/>
</svg>
