<svg width="24" height="24" viewBox="0 0 24 24" fill="none" xmlns="http://www.w3.org/2000/svg">
<path fill-rule="evenodd" clip-rule="evenodd" d="M2 6C2 4.89543 2.89543 4 4 4H17.5L22 8.5V18C22 19.1046 21.1046 20 20 20H18V15C18 13.8954 17.1046 13 16 13H2V6ZM16.6716 6H16V10H20V9.32843L16.6716 6ZM3.44491 20H4.49134V15.8628H5.93971V15H2V15.8628H3.44491V20ZM6.51836 20H7.5648V15H6.51836V20ZM9.44283 20H8.3964V15H11.6708V15.8628H9.44283V17.2037H11.4768V18.0319H9.44283V20ZM12.2911 20H13.3375V18.0319H15.3714V17.2037H13.3375V15.8628H15.5655V15H12.2911V20Z" fill="black"/>
</svg>
