<svg width="24" height="24" viewBox="0 0 24 24" fill="none" xmlns="http://www.w3.org/2000/svg">
<path fill-rule="evenodd" clip-rule="evenodd" d="M6 2C4.89543 2 4 2.89543 4 4V20C4 21.1046 4.89543 22 6 22H18C19.1046 22 20 21.1046 20 20V6.58579L19.7071 6.29288L19.7071 6.29285L15.7071 2.29285L15.7071 2.29286L15.4142 2H6ZM14 7.99995V4H6V20H18V7.99995H14ZM13.1888 9.57664C13.1138 8.61304 12.3075 7.93407 11.3462 8.00509C10.2124 8.08887 9.65821 9.11286 9.71768 9.86128C9.80627 10.9763 10.127 12.0722 10.6749 13.048C10.5713 13.3451 10.4598 13.6469 10.3409 13.9487C9.22399 14.3359 7.90537 15.0753 7.2352 16.0954C6.7908 16.7718 6.99176 17.6803 7.70625 18.2825C8.3422 18.8185 9.42772 18.7717 10.0026 18.1464C10.575 17.5239 11.2906 16.1869 11.8994 14.7105C12.648 15.5058 13.9036 16.6548 15.0486 16.8377C15.8977 16.9734 16.7993 16.3957 16.9763 15.3988C17.1602 14.363 16.2425 13.4523 15.3259 13.3757C14.3396 13.2932 13.3416 13.3864 12.3611 13.504C12.8982 11.9842 13.2591 10.4795 13.1888 9.57664ZM7.98458 16.2863C8.21679 15.4239 9.32065 14.9055 10.0795 14.5844C9.74384 15.3655 9.36222 16.1241 8.94746 16.7765C8.77741 17.0439 8.4231 17.0597 8.20779 16.9472C7.99248 16.8346 7.90478 16.5826 7.98458 16.2863ZM14.5453 14.5881C13.9497 14.1915 12.8955 13.9309 12.1672 14.0336C12.1467 14.0875 12.1261 14.1414 12.1052 14.1952C12.1268 14.2195 12.1493 14.2449 12.1726 14.2712C12.6767 14.8412 13.5777 15.8599 14.4052 15.726C15.0005 15.6298 15.0079 14.8961 14.5453 14.5881ZM10.8947 12.3875C11.2446 11.2841 11.4686 10.3028 11.5257 9.71068C11.544 9.52075 11.355 9.2135 11.053 9.2135C10.7772 9.18286 10.5505 9.36564 10.4709 9.55489C10.1927 10.2162 10.4769 11.5192 10.8947 12.3875Z" fill="black"/>
</svg>
