<svg width="24" height="24" viewBox="0 0 24 24" fill="none" xmlns="http://www.w3.org/2000/svg">
<path fill-rule="evenodd" clip-rule="evenodd" d="M2 6C2 4.89543 2.89543 4 4 4H17.5L22 8.5V18C22 19.1046 21.1046 20 20 20V15C20 13.8954 19.1046 13 18 13H2V6ZM16.6716 6H16V10H20V9.32843L16.6716 6ZM3.65872 20C4.7248 20 5.34128 19.3971 5.34128 18.3617V15H4.31267V18.3515C4.31267 18.8488 4.08106 19.111 3.6485 19.111C3.24319 19.111 3.01839 18.8454 3.00136 18.4639L2.99796 18.4435H2L2.00341 18.4741C2.02725 19.3971 2.64373 20 3.65872 20ZM5.75 19.9149H6.8297L7.20095 18.7228H8.93801L9.30926 19.9149H10.389L8.67575 15H7.46662L5.75 19.9149ZM8.05926 15.9537H8.0797L8.69959 17.953H7.43937L8.05926 15.9537ZM12.8651 19.9149H11.6117L9.96662 15H11.1042L12.2282 18.8624H12.2486L13.3692 15H14.5102L12.8651 19.9149ZM14.0879 19.9149H15.1676L15.5388 18.7228H17.2759L17.6471 19.9149H18.7268L17.0136 15H15.8045L14.0879 19.9149ZM16.3971 15.9537H16.4176L17.0375 17.953H15.7772L16.3971 15.9537Z" fill="black"/>
</svg>
