<svg width="24" height="24" viewBox="0 0 24 24" fill="none" xmlns="http://www.w3.org/2000/svg">
<path fill-rule="evenodd" clip-rule="evenodd" d="M6 2C4.89543 2 4 2.89543 4 4V20C4 21.1046 4.89543 22 6 22H18C19.1046 22 20 21.1046 20 20V4C20 2.89543 19.1046 2 18 2H6ZM6 4L18 4V20H6V4ZM8 18H16V16H8V18ZM16 14H8V12H16V14ZM11.5 6V7.13398L10.5179 6.56699L10.0179 7.43301L11 8L10.0179 8.56699L10.5179 9.43301L11.5 8.86602V10H12.5V8.86603L13.482 9.43301L13.982 8.56699L13 8L13.982 7.43301L13.482 6.56699L12.5 7.13397V6H11.5Z" fill="black"/>
</svg>
