<svg width="24" height="24" viewBox="0 0 24 24" fill="none" xmlns="http://www.w3.org/2000/svg">
<path fill-rule="evenodd" clip-rule="evenodd" d="M4 4C2.89543 4 2 4.89543 2 6V13H4V6H16V10H20V18H13V20H20C21.1046 20 22 19.1046 22 18V8.58579L17.4142 4H4ZM5.89819 18.4829C5.89819 19.4106 5.16812 20 3.9491 20C2.8004 20 2.06028 19.4742 2.00335 18.5834L2 18.5298H2.95445L2.96115 18.5666C3.02478 18.9417 3.42331 19.1762 3.97589 19.1762C4.53516 19.1762 4.8868 18.9317 4.8868 18.5633V18.5599C4.8868 18.2317 4.64903 18.0676 4.04956 17.9437L3.54052 17.8433C2.58607 17.6524 2.10382 17.1969 2.10382 16.4702V16.4668C2.10382 15.5827 2.87408 15 3.94575 15C5.0643 15 5.75084 15.5593 5.79772 16.4066L5.80107 16.4702H4.84662L4.84327 16.43C4.79303 16.0516 4.44474 15.8205 3.94575 15.8205C3.42666 15.8238 3.1152 16.0616 3.1152 16.4066V16.4099C3.1152 16.7147 3.36303 16.8922 3.91895 17.0027L4.43135 17.1065C5.44273 17.3074 5.89819 17.7194 5.89819 18.4796V18.4829ZM7.52914 19.9163H6.51775V15.0837H7.52914V17.0462H9.70596V15.0837H10.7173V19.9163H9.70596V17.8801H7.52914V19.9163Z" fill="black"/>
</svg>
