<svg width="24" height="24" viewBox="0 0 24 24" fill="none" xmlns="http://www.w3.org/2000/svg">
<path fill-rule="evenodd" clip-rule="evenodd" d="M2 6C2 4.89543 2.89543 4 4 4H17.5L22 8.5V18C22 19.1046 21.1046 20 20 20H17V15C17 13.8954 16.1046 13 15 13H2V6ZM16.6716 6H16V10H20V9.32843L16.6716 6ZM6.41058 18.2384C6.31681 19.2666 5.46952 20 4.30074 20C2.88747 20 2 19.0556 2 17.4983V17.495C2 15.9377 2.89082 15 4.30074 15C5.47287 15 6.31346 15.7401 6.40723 16.7649L6.41058 16.795H5.42599L5.41259 16.7381C5.29873 16.2056 4.90355 15.8573 4.30074 15.8573C3.52713 15.8573 3.03148 16.4802 3.03148 17.4916V17.495C3.03148 18.5131 3.52713 19.1427 4.30074 19.1427C4.88346 19.1427 5.29203 18.8078 5.42264 18.2351L5.42934 18.2016H6.41393L6.41058 18.2384ZM10.7542 18.4829C10.7542 19.4106 10.0241 20 8.80509 20C7.6564 20 6.91628 19.4742 6.85934 18.5834L6.85599 18.5298H7.81045L7.81715 18.5666C7.88078 18.9417 8.2793 19.1762 8.83188 19.1762C9.39116 19.1762 9.7428 18.9317 9.7428 18.5633V18.5599C9.7428 18.2317 9.50502 18.0676 8.90556 17.9437L8.39652 17.8433C7.44206 17.6524 6.95981 17.1969 6.95981 16.4702V16.4668C6.95981 15.5827 7.73007 15 8.80174 15C9.92029 15 10.6068 15.5593 10.6537 16.4066L10.6571 16.4702H9.70261L9.69926 16.43C9.64903 16.0516 9.30074 15.8205 8.80174 15.8205C8.28265 15.8238 7.9712 16.0616 7.9712 16.4066V16.4099C7.9712 16.7147 8.21902 16.8922 8.77495 17.0027L9.28734 17.1065C10.2987 17.3074 10.7542 17.7194 10.7542 18.4796V18.4829ZM13.1386 20C14.3577 20 15.0877 19.4106 15.0877 18.4829V18.4796C15.0877 17.7194 14.6323 17.3074 13.6209 17.1065L13.1085 17.0027C12.5526 16.8922 12.3048 16.7147 12.3048 16.4099V16.4066C12.3048 16.0616 12.6162 15.8238 13.1353 15.8205C13.6343 15.8205 13.9826 16.0516 14.0328 16.43L14.0362 16.4702H14.9906L14.9873 16.4066C14.9404 15.5593 14.2539 15 13.1353 15C12.0636 15 11.2934 15.5827 11.2934 16.4668V16.4702C11.2934 17.1969 11.7756 17.6524 12.7301 17.8433L13.2391 17.9437C13.8386 18.0676 14.0764 18.2317 14.0764 18.5599V18.5633C14.0764 18.9317 13.7247 19.1762 13.1654 19.1762C12.6129 19.1762 12.2143 18.9417 12.1507 18.5666L12.144 18.5298H11.1896L11.1929 18.5834C11.2498 19.4742 11.99 20 13.1386 20Z" fill="black"/>
</svg>
