<svg width="24" height="24" viewBox="0 0 24 24" fill="none" xmlns="http://www.w3.org/2000/svg">
<path fill-rule="evenodd" clip-rule="evenodd" d="M6 2C4.89543 2 4 2.89543 4 4V20C4 21.1046 4.89543 22 6 22H18C19.1046 22 20 21.1046 20 20V6.58579L19.7071 6.29288L19.7071 6.29285L15.7071 2.29285L15.7071 2.29286L15.4142 2H6ZM14 7.99995V4H6V20H18V7.99995H14ZM8.91138 11L10.856 14.5003L8.9117 18H11.1996L11.9999 16.5594L12.8003 18H15.0882L13.1439 14.5003L15.0885 11H12.8006L11.9999 12.4412L11.1993 11H8.91138Z" fill="black"/>
</svg>
