<svg width="24" height="24" viewBox="0 0 24 24" fill="none" xmlns="http://www.w3.org/2000/svg">
<path fill-rule="evenodd" clip-rule="evenodd" d="M2 6C2 4.89543 2.89543 4 4 4H17.5L22 8.5V13H20H2V6ZM16.6716 6H16V10H20V9.32843L16.6716 6ZM7.89417 20C9.11319 20 9.84327 19.4106 9.84327 18.4829V18.4796C9.84327 17.7194 9.38781 17.3074 8.37642 17.1065L7.86403 17.0027C7.3081 16.8922 7.06028 16.7147 7.06028 16.4099V16.4066C7.06028 16.0616 7.37173 15.8238 7.89082 15.8205C8.38982 15.8205 8.73811 16.0516 8.78835 16.43L8.79169 16.4702H9.74615L9.7428 16.4066C9.69591 15.5593 9.00938 15 7.89082 15C6.81916 15 6.04889 15.5827 6.04889 16.4668V16.4702C6.04889 17.1969 6.53115 17.6524 7.4856 17.8433L7.99464 17.9437C8.59411 18.0676 8.83188 18.2317 8.83188 18.5599V18.5633C8.83188 18.9317 8.48024 19.1762 7.92096 19.1762C7.36839 19.1762 6.96986 18.9417 6.90623 18.5666L6.89953 18.5298H5.94508L5.94843 18.5834C6.00536 19.4742 6.74548 20 7.89417 20ZM3.63094 20C4.67917 20 5.28533 19.4072 5.28533 18.3891V15.0837H4.27395V18.3791C4.27395 18.8681 4.04622 19.1259 3.6209 19.1259C3.22237 19.1259 3.00134 18.8647 2.98459 18.4896L2.98125 18.4695H2L2.00335 18.4997C2.02679 19.4072 2.63295 20 3.63094 20ZM14.9739 17.5017C14.9739 19.0388 14.0797 20 12.643 20C11.2063 20 10.3121 19.0388 10.3121 17.5017V17.495C10.3121 15.9578 11.213 15 12.643 15C14.0764 15 14.9739 15.9612 14.9739 17.495V17.5017ZM11.3436 17.5017C11.3436 18.5131 11.8493 19.1427 12.643 19.1427C13.4468 19.1427 13.9424 18.503 13.9424 17.5017V17.495C13.9424 16.4869 13.4367 15.8573 12.643 15.8573C11.8526 15.8573 11.3436 16.4836 11.3436 17.495V17.5017ZM15.6269 19.9163H16.635V16.7515H16.6551L18.8453 19.9163H19.7227V15.0837H18.7147V18.225H18.6946L16.5111 15.0837H15.6269V19.9163Z" fill="black"/>
</svg>
