<svg width="24" height="24" viewBox="0 0 24 24" fill="none" xmlns="http://www.w3.org/2000/svg">
<path fill-rule="evenodd" clip-rule="evenodd" d="M2 6C2 4.89543 2.89543 4 4 4H17.4142L22 8.58579V18C22 19.1046 21.1046 20 20 20H17V18H20V10H16V6H4V13H2V6ZM3.96057 20.0294C5.18677 20.0294 5.92115 19.4366 5.92115 18.5034V18.5001C5.92115 17.7354 5.46301 17.321 4.44566 17.1189L3.93026 17.0145C3.37105 16.9033 3.12177 16.7248 3.12177 16.4182V16.4148C3.12177 16.0679 3.43506 15.8287 3.95721 15.8253C4.45914 15.8253 4.80948 16.0578 4.86001 16.4384L4.86338 16.4789H5.82346L5.82009 16.4148C5.77293 15.5626 5.08235 15 3.95721 15C2.87923 15 2.10443 15.5862 2.10443 16.4755V16.4789C2.10443 17.2099 2.58952 17.668 3.54959 17.86L4.06163 17.9611C4.66463 18.0857 4.90381 18.2508 4.90381 18.5809V18.5843C4.90381 18.9548 4.55009 19.2007 3.98752 19.2007C3.43169 19.2007 3.03082 18.9649 2.96681 18.5876L2.96007 18.5506H2L2.00337 18.6045C2.06064 19.5006 2.80512 20.0294 3.96057 20.0294ZM8.73737 20.0294C9.04729 20.0294 9.33362 19.9857 9.59301 19.8981L9.95009 20.4H10.9169L10.2836 19.5107C10.7956 19.0761 11.082 18.3889 11.082 17.5164V17.5097C11.082 15.9668 10.1792 15 8.73737 15C7.29894 15 6.39276 15.9634 6.39276 17.5097V17.5164C6.39276 19.0626 7.2922 20.0294 8.73737 20.0294ZM8.73737 19.1671C7.93899 19.1671 7.43032 18.5337 7.43032 17.5164V17.5097C7.43032 16.4923 7.94236 15.8624 8.73737 15.8624C9.53574 15.8624 10.041 16.4957 10.041 17.5097V17.5164C10.041 18.0082 9.92314 18.4125 9.70755 18.6954L9.41447 18.2777H8.44766L9.05065 19.13C8.95296 19.1536 8.84516 19.1671 8.73737 19.1671ZM14.8818 19.9452H11.7389V15.0842H12.7562V19.1064H14.8818V19.9452Z" fill="black"/>
</svg>
