<svg width="24" height="24" viewBox="0 0 24 24" fill="none" xmlns="http://www.w3.org/2000/svg">
<path fill-rule="evenodd" clip-rule="evenodd" d="M10 7.00004C10 7.55232 9.55228 8.00004 8.99999 8.00004C8.44771 8.00004 7.99999 7.55232 7.99999 7.00004C7.99999 6.44775 8.44771 6.00004 8.99999 6.00004C9.55228 6.00004 10 6.44775 10 7.00004ZM16 11C16 11.7403 15.5978 12.3867 15 12.7325V14.0796C16.1814 14.2714 17.1979 14.7978 18 15.5279V4L5.99999 4L6 15.3521C6.6329 15.599 7.18125 15.6875 7.67188 15.6875C7.94386 15.6875 8.20853 15.6604 8.47157 15.6114C8.18124 15.3509 7.99999 14.9813 7.99999 14.5715C7.99999 13.7825 8.67157 11 9.5 11C10.3284 11 11 13.7825 11 14.5715C11 14.6205 10.9974 14.6689 10.9923 14.7166C11.1721 14.6428 11.3561 14.5695 11.5419 14.5003C11.9919 14.3329 12.4768 14.1804 13 14.0889V12.7325C12.4022 12.3867 12 11.7403 12 11C12 9.89547 12.8954 6.00004 14 6.00004C15.1046 6.00004 16 9.89547 16 11ZM20 20.0001C20 21.1047 19.1046 22.0001 18 22.0001H6C4.89543 22.0001 4 21.1047 4 20.0001L4.00001 4C4.00001 2.89543 4.89544 2 6.00001 2H18C19.1046 2 20 2.89543 20 4C20 9.33337 20 14.6667 20 20.0001ZM18 19.9947L18 20H6V17.4572C7.41402 17.8456 8.84842 17.6874 10.2167 17.1898C10.5535 17.0674 10.8896 16.9224 11.2278 16.7765C12.1206 16.3914 13.028 16 14 16C16.3817 16 17.9971 17.9827 18 19.9947Z" fill="black"/>
</svg>
