<svg width="24" height="24" viewBox="0 0 24 24" fill="none" xmlns="http://www.w3.org/2000/svg">
<path fill-rule="evenodd" clip-rule="evenodd" d="M2 6C2 4.89543 2.89543 4 4 4H17.5L22 8.5V18C22 19.1046 21.1046 20 20 20H18V15C18 13.8954 17.1046 13 16 13H2V6ZM16.6716 6H16V10H20V9.32843L16.6716 6ZM13.3195 20C14.6658 20 15.4628 19.2029 15.4628 17.8868V17.3309H13.3731V18.0844H14.4782L14.4749 18.1547C14.4481 18.7508 13.996 19.1427 13.3362 19.1427C12.5325 19.1427 12.0234 18.5231 12.0234 17.4749V17.4715C12.0234 16.4468 12.5023 15.8573 13.2994 15.8573C13.8453 15.8573 14.2304 16.1286 14.3912 16.5975L14.4046 16.6309H15.4193L15.4092 16.5841C15.2485 15.6765 14.4581 15 13.296 15C11.8794 15 10.992 15.9344 10.992 17.4816V17.4849C10.992 19.0589 11.8761 20 13.3195 20ZM3.01139 19.9163H2V15.0837H3.9424C4.96048 15.0837 5.64032 15.7401 5.64032 16.7348V16.7415C5.64032 17.7361 4.96048 18.3925 3.9424 18.3925H3.01139V19.9163ZM4.61554 16.7381C4.61554 16.1889 4.27395 15.8841 3.69457 15.8841H3.01139V17.6021H3.69457C4.27395 17.6021 4.61554 17.294 4.61554 16.7448V16.7381ZM7.24782 19.9163H6.23979V15.0837H7.12391L9.30743 18.225H9.32753V15.0837H10.3356V19.9163H9.45814L7.26792 16.7515H7.24782V19.9163Z" fill="black"/>
</svg>
