<svg width="24" height="24" viewBox="0 0 24 24" fill="none" xmlns="http://www.w3.org/2000/svg">
<path fill-rule="evenodd" clip-rule="evenodd" d="M2 6C2 4.89543 2.89543 4 4 4H17.5L22 8.5V18C22 19.1046 21.1046 20 20 20H16V15C16 13.8954 15.1046 13 14 13H2V6ZM16.6716 6H16V10H20V9.32843L16.6716 6ZM6.66176 17.5017C6.66176 19.0388 5.76758 20 4.33088 20C2.89417 20 2 19.0388 2 17.5017V17.495C2 15.9578 2.90087 15 4.33088 15C5.76423 15 6.66176 15.9612 6.66176 17.495V17.5017ZM3.03148 17.5017C3.03148 18.5131 3.53717 19.1427 4.33088 19.1427C5.13463 19.1427 5.63028 18.503 5.63028 17.5017V17.495C5.63028 16.4869 5.12458 15.8573 4.33088 15.8573C3.54052 15.8573 3.03148 16.4836 3.03148 17.495V17.5017ZM9.21366 19.9163H8.20228V15.9176H6.80576V15.0837H10.6135V15.9176H9.21366V19.9163ZM11.1728 19.9163H12.1842V18.0141H14.15V17.2137H12.1842V15.9176H14.3376V15.0837H11.1728V19.9163Z" fill="black"/>
</svg>
