<svg width="24" height="24" viewBox="0 0 24 24" fill="none" xmlns="http://www.w3.org/2000/svg">
<path fill-rule="evenodd" clip-rule="evenodd" d="M6 2C4.89543 2 4 2.89543 4 4V20C4 21.1046 4.89543 22 6 22H18C19.1046 22 20 21.1046 20 20V6.58579L15.4142 2H6ZM14 7.99995V4H6V12.5858L7.99999 10.5858L11 13.5858L15 9.58579L18 12.5858V7.99995H14ZM18 15.4142L15 12.4142L9.20709 18.2071L7.79288 16.7929L9.58577 15L7.99999 13.4142L6 15.4142V20H18V15.4142ZM7.99999 7C7.99999 7.55228 8.4477 8 8.99999 8C9.55227 8 9.99999 7.55228 9.99999 7C9.99999 6.44772 9.55227 6 8.99999 6C8.4477 6 7.99999 6.44772 7.99999 7Z" fill="black"/>
</svg>
