<svg width="24" height="24" viewBox="0 0 24 24" fill="none" xmlns="http://www.w3.org/2000/svg">
<path fill-rule="evenodd" clip-rule="evenodd" d="M2 6C2 4.89543 2.89543 4 4 4H17.5L22 8.5V18C22 19.1046 21.1046 20 20 20H17V15C17 13.8954 16.1046 13 15 13H2V6ZM16.6716 6H16V10H20V9.32843L16.6716 6ZM5.92115 18.5034C5.92115 19.4366 5.18677 20.0294 3.96057 20.0294C2.80512 20.0294 2.06064 19.5006 2.00337 18.6045L2 18.5506H2.96007L2.96681 18.5876C3.03082 18.9649 3.43169 19.2007 3.98752 19.2007C4.55009 19.2007 4.90381 18.9548 4.90381 18.5843V18.5809C4.90381 18.2508 4.66463 18.0857 4.06163 17.9611L3.54959 17.86C2.58952 17.668 2.10443 17.2099 2.10443 16.4789V16.4755C2.10443 15.5862 2.87923 15 3.95721 15C5.08235 15 5.77293 15.5626 5.82009 16.4148L5.82346 16.4789H4.86338L4.86001 16.4384C4.80948 16.0578 4.45914 15.8253 3.95721 15.8253C3.43506 15.8287 3.12177 16.0679 3.12177 16.4148V16.4182C3.12177 16.7248 3.37105 16.9033 3.93026 17.0145L4.44566 17.1189C5.46301 17.321 5.92115 17.7354 5.92115 18.5001V18.5034ZM9.59301 19.8981C9.33362 19.9857 9.04729 20.0294 8.73737 20.0294C7.2922 20.0294 6.39276 19.0626 6.39276 17.5164V17.5097C6.39276 15.9634 7.29894 15 8.73737 15C10.1792 15 11.082 15.9668 11.082 17.5097V17.5164C11.082 18.3889 10.7956 19.0761 10.2836 19.5107L10.9169 20.4H9.95009L9.59301 19.8981ZM7.43032 17.5164C7.43032 18.5337 7.93899 19.1671 8.73737 19.1671C8.84516 19.1671 8.95296 19.1536 9.05065 19.13L8.44766 18.2777H9.41447L9.70755 18.6954C9.92314 18.4125 10.041 18.0082 10.041 17.5164V17.5097C10.041 16.4957 9.53574 15.8624 8.73737 15.8624C7.94236 15.8624 7.43032 16.4923 7.43032 17.5097V17.5164ZM11.7389 19.9452H14.8818V19.1064H12.7562V15.0842H11.7389V19.9452Z" fill="black"/>
</svg>
