<svg width="24" height="24" viewBox="0 0 24 24" fill="none" xmlns="http://www.w3.org/2000/svg">
<path fill-rule="evenodd" clip-rule="evenodd" d="M2 6C2 4.89543 2.89543 4 4 4H17.5L22 8.5V18C22 19.1046 21.1046 20 20 20H16V15C16 13.8954 15.1046 13 14 13H2V6ZM16.6716 6H16V10H20V9.32843L16.6716 6ZM4.49134 20H3.44491V15.8628H2V15H5.93971V15.8628H4.49134V20ZM8.76022 20H7.71379V15.8628H6.26888V15H10.2086V15.8628H8.76022V20ZM10.7872 20H11.8337V18.0319H13.8676V17.2037H11.8337V15.8628H14.0617V15H10.7872V20Z" fill="black"/>
</svg>
