<svg width="24" height="24" viewBox="0 0 24 24" fill="none" xmlns="http://www.w3.org/2000/svg">
<path fill-rule="evenodd" clip-rule="evenodd" d="M2 6C2 4.89543 2.89543 4 4 4H17.4142L22 8.58579V18C22 19.1046 21.1046 20 20 20H16V18H20V10H16V6H4V13H2V6ZM14.3979 18.4829C14.3979 19.4106 13.6678 20 12.4488 20C11.3001 20 10.5599 19.4742 10.503 18.5834L10.4997 18.5298H11.4541L11.4608 18.5666C11.5244 18.9417 11.923 19.1762 12.4756 19.1762C13.0348 19.1762 13.3865 18.9317 13.3865 18.5633V18.5599C13.3865 18.2317 13.1487 18.0676 12.5492 17.9437L12.0402 17.8433C11.0857 17.6524 10.6035 17.1969 10.6035 16.4702V16.4668C10.6035 15.5827 11.3737 15 12.4454 15C13.564 15 14.2505 15.5593 14.2974 16.4066L14.3007 16.4702H13.3463L13.3429 16.43C13.2927 16.0516 12.9444 15.8205 12.4454 15.8205C11.9263 15.8238 11.6149 16.0616 11.6149 16.4066V16.4099C11.6149 16.7147 11.8627 16.8922 12.4186 17.0027L12.931 17.1065C13.9424 17.3074 14.3979 17.7194 14.3979 18.4796V18.4829ZM2 19.9163H3.09176L4.14668 18.2217H4.18017L5.24179 19.9163H6.39384L4.82987 17.5017V17.4883L6.41393 15.0837H5.28533L4.2639 16.8252H4.22706L3.19893 15.0837H2.01005L3.53717 17.4715V17.4816L2 19.9163ZM6.95981 19.9163H10.0844V19.0824H7.9712V15.0837H6.95981V19.9163Z" fill="black"/>
</svg>
