<svg width="24" height="24" viewBox="0 0 24 24" fill="none" xmlns="http://www.w3.org/2000/svg">
<path fill-rule="evenodd" clip-rule="evenodd" d="M2 6C2 4.89543 2.89543 4 4 4H17.5L22 8.5V18C22 19.1046 21.1046 20 20 20H19V15C19 13.8954 18.1046 13 17 13H2V6ZM16.6716 6H16V10H20V9.32843L16.6716 6ZM3.04643 20H2V15H4.06514C5.1878 15 5.85308 15.596 5.85308 16.6008V16.6078C5.85308 17.2661 5.50312 17.8136 4.94872 18.0319L6.00208 20H4.81705L3.88496 18.1878H3.04643V20ZM3.04643 15.8177V17.3943H3.9508C4.47055 17.3943 4.7824 17.0998 4.7824 16.6078V16.6008C4.7824 16.1227 4.45322 15.8177 3.93694 15.8177H3.04643ZM7.32571 20H6.2273L7.97367 15H9.20374L10.9466 20H9.84823L9.47055 18.7872H7.7034L7.32571 20ZM8.59737 15.9702H8.57658L7.94595 18.0042H9.228L8.59737 15.9702ZM12.045 20H13.0672L13.9889 16.6493H14.0097L14.9279 20H15.9501L17.2772 15H16.1927L15.3992 18.5828H15.3784L14.4567 15H13.5385L12.6168 18.5828H12.596L11.806 15H10.7214L12.045 20Z" fill="black"/>
</svg>
