<svg width="24" height="24" viewBox="0 0 24 24" fill="none" xmlns="http://www.w3.org/2000/svg">
<path fill-rule="evenodd" clip-rule="evenodd" d="M4 4C4 2.89543 4.89543 2 6 2H15.4142L15.7071 2.29286L15.7071 2.29285L19.7071 6.29285L19.7071 6.29288L20 6.58579V20C20 21.1046 19.1046 22 18 22H6C4.89543 22 4 21.1046 4 20V4ZM14 4V7.99995H18V20H6V4H14ZM7.29291 13.7929L9.79291 11.2929L11.2071 12.7071L9.41423 14.5L11.2071 16.2929L9.79291 17.7071L7.29291 15.2071V13.7929ZM14.2071 11.2929L16.7071 13.7929V15.2071L14.2071 17.7071L12.7929 16.2929L14.5858 14.5L12.7929 12.7071L14.2071 11.2929Z" fill="black"/>
</svg>
