<svg width="24" height="24" viewBox="0 0 24 24" fill="none" xmlns="http://www.w3.org/2000/svg">
<path fill-rule="evenodd" clip-rule="evenodd" d="M2 6C2 4.89543 2.89543 4 4 4H17.5L22 8.5V18C22 19.1046 21.1046 20 20 20H18V15C18 13.8954 17.1046 13 16 13H2V6ZM16.6716 6H16V10H20V9.32843L16.6716 6ZM13.7214 20C14.8902 20 15.7374 19.2666 15.8312 18.2384L15.8346 18.2016H14.85L14.8433 18.2351C14.7127 18.8078 14.3041 19.1427 13.7214 19.1427C12.9478 19.1427 12.4521 18.5131 12.4521 17.495V17.4916C12.4521 16.4802 12.9478 15.8573 13.7214 15.8573C14.3242 15.8573 14.7194 16.2056 14.8332 16.7381L14.8466 16.795H15.8312L15.8279 16.7649C15.7341 15.7401 14.8935 15 13.7214 15C12.3115 15 11.4206 15.9377 11.4206 17.495V17.4983C11.4206 19.0556 12.3081 20 13.7214 20ZM3.06162 19.9163H2L3.68788 15.0837H4.87676L6.56129 19.9163H5.49967L5.13463 18.7441H3.42666L3.06162 19.9163ZM4.29069 16.0214H4.2706L3.66109 17.9873H4.9002L4.29069 16.0214ZM7.81045 19.9163H6.74883L8.4367 15.0837H9.62559L11.3101 19.9163H10.2485L9.88346 18.7441H8.17549L7.81045 19.9163ZM9.03952 16.0214H9.01942L8.40991 17.9873H9.64903L9.03952 16.0214Z" fill="black"/>
</svg>
