<svg width="24" height="24" viewBox="0 0 24 24" fill="none" xmlns="http://www.w3.org/2000/svg">
<path fill-rule="evenodd" clip-rule="evenodd" d="M4 4C4 2.89543 4.89543 2 6 2H15.5L20 6.5V20C20 21.1046 19.1046 22 18 22H6C4.89543 22 4 21.1046 4 20V4ZM14.6716 4H14V8H18V7.32843L14.6716 4ZM10 7C10 7.55228 9.55228 8 9 8C8.44772 8 8 7.55228 8 7C8 6.44772 8.44772 6 9 6C9.55228 6 10 6.44772 10 7ZM8 15C8 15.8393 8.51704 16.5579 9.25 16.8546V18.4882C8.76157 18.6086 8.23697 18.6875 7.67188 18.6875C7.13572 18.6875 6.58057 18.6166 6 18.4571V20H18C18 19.6256 17.7004 18.8721 16.9445 18.1703C16.49 17.7482 15.9167 17.3917 15.25 17.1868V16.8089C15.6984 16.5619 16 16.1002 16 15.5714C16 14.7825 15.3284 12 14.5 12C13.6716 12 13 14.7825 13 15.5714C13 16.1002 13.3016 16.5619 13.75 16.8089V17.0088C13.2564 17.0433 12.7696 17.1774 12.2394 17.3747C11.9391 17.4864 11.6398 17.6125 11.3154 17.7491L11.2767 17.7654C11.1072 17.8368 10.9311 17.9108 10.75 17.984V16.8546C11.483 16.5579 12 15.8393 12 15C12 13.8954 11.1046 10 10 10C8.89543 10 8 13.8954 8 15Z" fill="black"/>
</svg>
