<svg width="24" height="24" viewBox="0 0 24 24" fill="none" xmlns="http://www.w3.org/2000/svg">
<path fill-rule="evenodd" clip-rule="evenodd" d="M2 6.00006C2 4.89549 2.89543 4.00006 4 4.00006H17.4142L22 8.58585V18.0001C22 19.1046 21.1046 20.0001 20 20.0001V9.99999H16V6.00006H4V13.5001H2V6.00006ZM5.34128 18.3617C5.34128 19.3971 4.7248 20 3.65872 20C2.64373 20 2.02725 19.3971 2.00341 18.4741L2 18.4435H2.99796L3.00136 18.4639C3.01839 18.8454 3.24319 19.111 3.6485 19.111C4.08106 19.111 4.31267 18.8488 4.31267 18.3515V15H5.34128V18.3617ZM6.8297 19.9149H5.75L7.46662 15H8.67575L10.389 19.9149H9.30926L8.93801 18.7228H7.20095L6.8297 19.9149ZM8.0797 15.9537H8.05926L7.43937 17.953H8.69959L8.0797 15.9537ZM11.6117 19.9149H12.8651L14.5102 15H13.3692L12.2486 18.8624H12.2282L11.1042 15H9.96662L11.6117 19.9149ZM15.1676 19.9149H14.0879L15.8045 15H17.0136L18.7268 19.9149H17.6471L17.2759 18.7228H15.5388L15.1676 19.9149ZM16.4176 15.9537H16.3971L15.7772 17.953H17.0375L16.4176 15.9537Z" fill="black"/>
</svg>
