<svg width="24" height="24" viewBox="0 0 24 24" fill="none" xmlns="http://www.w3.org/2000/svg">
<path fill-rule="evenodd" clip-rule="evenodd" d="M2 6C2 4.89543 2.89543 4 4 4H17.4142L22 8.58579V18C22 19.1046 21.1046 20 20 20H17V18H20V10H16V6H4V13H2V6ZM2 20H3.04643V18.4234H4.0097C5.06306 18.4234 5.76646 17.7443 5.76646 16.7152V16.7082C5.76646 15.6791 5.06306 15 4.0097 15H2V20ZM3.75329 15.8281C4.35274 15.8281 4.70617 16.1435 4.70617 16.7117V16.7186C4.70617 17.2869 4.35274 17.6057 3.75329 17.6057H3.04643V15.8281H3.75329ZM6.38669 20H7.43313V17.8933H9.68538V20H10.7318V15H9.68538V17.0305H7.43313V15H6.38669V20ZM12.6098 20H11.5634V15H13.5731C14.6265 15 15.3299 15.6791 15.3299 16.7082V16.7152C15.3299 17.7443 14.6265 18.4234 13.5731 18.4234H12.6098V20ZM14.2696 16.7117C14.2696 16.1435 13.9161 15.8281 13.3167 15.8281H12.6098V17.6057H13.3167C13.9161 17.6057 14.2696 17.2869 14.2696 16.7186V16.7117Z" fill="black"/>
</svg>
