<svg width="24" height="24" viewBox="0 0 24 24" fill="none" xmlns="http://www.w3.org/2000/svg">
<path fill-rule="evenodd" clip-rule="evenodd" d="M2 6C2 4.89543 2.89543 4 4 4H17.4142L22 8.58579V18C22 19.1046 21.1046 20 20 20H18V18H20V10H16V6H4V13H2V6ZM10.0877 20C11.5244 20 12.4186 19.0388 12.4186 17.5017V17.495C12.4186 15.9612 11.5211 15 10.0877 15C8.65774 15 7.75687 15.9578 7.75687 17.495V17.5017C7.75687 19.0388 8.65104 20 10.0877 20ZM10.0877 19.1427C9.29404 19.1427 8.78835 18.5131 8.78835 17.5017V17.495C8.78835 16.4836 9.29739 15.8573 10.0877 15.8573C10.8814 15.8573 11.3871 16.4869 11.3871 17.495V17.5017C11.3871 18.503 10.8915 19.1427 10.0877 19.1427ZM2 19.9163H2.90087V16.6477H2.92766L4.23376 19.9163H4.87006L6.17281 16.6477H6.20295V19.9163H7.10382V15.0837H5.93503L4.56196 18.5566H4.54186L3.16879 15.0837H2V19.9163ZM15.4461 19.9163H14.2137L12.5961 15.0837H13.7147L14.8198 18.8814H14.8399L15.9417 15.0837H17.0636L15.4461 19.9163Z" fill="black"/>
</svg>
