<svg width="24" height="24" viewBox="0 0 24 24" fill="none" xmlns="http://www.w3.org/2000/svg">
<path fill-rule="evenodd" clip-rule="evenodd" d="M2 6C2 4.89543 2.89543 4 4 4H17.5L22 8.5V18C22 19.1046 21.1046 20 20 20H17V15C17 13.8954 16.1046 13 15 13H2V6ZM16.6716 6H16V10H20V9.32843L16.6716 6ZM12.5459 20C13.8922 20 14.6892 19.2029 14.6892 17.8868V17.3309H12.5995V18.0844H13.7046L13.7013 18.1547C13.6745 18.7508 13.2224 19.1427 12.5626 19.1427C11.7589 19.1427 11.2498 18.5231 11.2498 17.4749V17.4715C11.2498 16.4468 11.7287 15.8573 12.5258 15.8573C13.0717 15.8573 13.4568 16.1286 13.6175 16.5975L13.6309 16.6309H14.6457L14.6356 16.5841C14.4749 15.6765 13.6845 15 12.5224 15C11.1058 15 10.2184 15.9344 10.2184 17.4816V17.4849C10.2184 19.0589 11.1025 20 12.5459 20ZM5.28533 18.3891C5.28533 19.4072 4.67917 20 3.63094 20C2.63295 20 2.02679 19.4072 2.00335 18.4997L2 18.4695H2.98125L2.98459 18.4896C3.00134 18.8647 3.22237 19.1259 3.6209 19.1259C4.04622 19.1259 4.27395 18.8681 4.27395 18.3791V15.0837H5.28533V18.3891ZM7.14066 19.9163H6.12927V15.0837H8.07167C9.08975 15.0837 9.76959 15.7401 9.76959 16.7348V16.7415C9.76959 17.7361 9.08975 18.3925 8.07167 18.3925H7.14066V19.9163ZM8.74481 16.7381C8.74481 16.1889 8.40322 15.8841 7.82384 15.8841H7.14066V17.6021H7.82384C8.40322 17.6021 8.74481 17.294 8.74481 16.7448V16.7381Z" fill="black"/>
</svg>
