<svg width="24" height="24" viewBox="0 0 24 24" fill="none" xmlns="http://www.w3.org/2000/svg">
<path fill-rule="evenodd" clip-rule="evenodd" d="M2 6C2 4.89543 2.89543 4 4 4H17.4142L22 8.58579V13H20V10H16V6H4V13H2V6ZM13.2257 17.5017C13.2257 19.0388 12.3315 20 10.8948 20C9.45814 20 8.56397 19.0388 8.56397 17.5017V17.495C8.56397 15.9578 9.46484 15 10.8948 15C12.3282 15 13.2257 15.9612 13.2257 17.495V17.5017ZM9.59545 17.5017C9.59545 18.5131 10.1011 19.1427 10.8948 19.1427C11.6986 19.1427 12.1942 18.503 12.1942 17.5017V17.495C12.1942 16.4869 11.6885 15.8573 10.8948 15.8573C10.1045 15.8573 9.59545 16.4836 9.59545 17.495V17.5017ZM4.26725 19.9163H3.2793L2 15.0837H3.04823L3.81179 18.5466H3.83188L4.72271 15.0837H5.61018L6.501 18.5466H6.5211L7.28801 15.0837H8.33624L7.05358 19.9163H6.06564L5.17816 16.6778H5.15807L4.26725 19.9163ZM13.8788 19.9163H14.8902V18.0141H16.856V17.2137H14.8902V15.9176H17.0435V15.0837H13.8788V19.9163ZM18.6544 19.9163H17.643V15.0837H20.8078V15.9176H18.6544V17.2137H20.6202V18.0141H18.6544V19.9163Z" fill="black"/>
</svg>
