<svg width="24" height="24" viewBox="0 0 24 24" fill="none" xmlns="http://www.w3.org/2000/svg">
<path fill-rule="evenodd" clip-rule="evenodd" d="M2 6C2 4.89543 2.89543 4 4 4H17.5L22 8.5V18C22 19.1046 21.1046 20 20 20H17V15C17 13.8954 16.1046 13 15 13H2V6ZM16.6716 6H16V10H20V9.32843L16.6716 6ZM3.04643 20H2V15H4.0097C5.06306 15 5.76646 15.6791 5.76646 16.7082V16.7152C5.76646 17.7443 5.06306 18.4234 4.0097 18.4234H3.04643V20ZM4.70617 16.7117C4.70617 16.1435 4.35274 15.8281 3.75329 15.8281H3.04643V17.6057H3.75329C4.35274 17.6057 4.70617 17.2869 4.70617 16.7186V16.7117ZM7.43313 20H6.38669V15H7.43313V17.0305H9.68538V15H10.7318V20H9.68538V17.8933H7.43313V20ZM11.5634 20H12.6098V18.4234H13.5731C14.6265 18.4234 15.3299 17.7443 15.3299 16.7152V16.7082C15.3299 15.6791 14.6265 15 13.5731 15H11.5634V20ZM13.3167 15.8281C13.9161 15.8281 14.2696 16.1435 14.2696 16.7117V16.7186C14.2696 17.2869 13.9161 17.6057 13.3167 17.6057H12.6098V15.8281H13.3167Z" fill="black"/>
</svg>
