<svg width="24" height="24" viewBox="0 0 24 24" fill="none" xmlns="http://www.w3.org/2000/svg">
<path fill-rule="evenodd" clip-rule="evenodd" d="M2 6C2 4.89543 2.89543 4 4 4H17.5L22 8.5V13H20H2V6ZM16.6716 6H16V10H20V9.32843L16.6716 6ZM4.9491 20C6.16812 20 6.89819 19.4106 6.89819 18.4829V18.4796C6.89819 17.7194 6.44273 17.3074 5.43135 17.1065L4.91896 17.0027C4.36303 16.8922 4.1152 16.7147 4.1152 16.4099V16.4066C4.1152 16.0616 4.42666 15.8238 4.94575 15.8205C5.44474 15.8205 5.79303 16.0516 5.84327 16.43L5.84662 16.4702H6.80107L6.79772 16.4066C6.75084 15.5593 6.0643 15 4.94575 15C3.87408 15 3.10382 15.5827 3.10382 16.4668V16.4702C3.10382 17.1969 3.58607 17.6524 4.54052 17.8433L5.04956 17.9437C5.64903 18.0676 5.88681 18.2317 5.88681 18.5599V18.5633C5.88681 18.9317 5.53516 19.1762 4.97589 19.1762C4.42331 19.1762 4.02478 18.9417 3.96115 18.5666L3.95445 18.5298H3L3.00335 18.5834C3.06028 19.4742 3.8004 20 4.9491 20ZM7.10918 19.9163H8.1708L8.53583 18.7441H10.2438L10.6088 19.9163H11.6705L9.98593 15.0837H8.79705L7.10918 19.9163ZM9.37977 16.0214H9.39987L10.0094 17.9873H8.77026L9.37977 16.0214ZM15.7796 18.4829C15.7796 19.4106 15.0496 20 13.8305 20C12.6818 20 11.9417 19.4742 11.8848 18.5834L11.8814 18.5298H12.8359L12.8426 18.5666C12.9062 18.9417 13.3048 19.1762 13.8573 19.1762C14.4166 19.1762 14.7683 18.9317 14.7683 18.5633V18.5599C14.7683 18.2317 14.5305 18.0676 13.931 17.9437L13.422 17.8433C12.4675 17.6524 11.9853 17.1969 11.9853 16.4702V16.4668C11.9853 15.5827 12.7555 15 13.8272 15C14.9457 15 15.6323 15.5593 15.6792 16.4066L15.6825 16.4702H14.7281L14.7247 16.43C14.6745 16.0516 14.3262 15.8205 13.8272 15.8205C13.3081 15.8238 12.9967 16.0616 12.9967 16.4066V16.4099C12.9967 16.7147 13.2445 16.8922 13.8004 17.0027L14.3128 17.1065C15.3242 17.3074 15.7796 17.7194 15.7796 18.4796V18.4829ZM18.1641 20C19.3831 20 20.1132 19.4106 20.1132 18.4829V18.4796C20.1132 17.7194 19.6577 17.3074 18.6464 17.1065L18.134 17.0027C17.578 16.8922 17.3302 16.7147 17.3302 16.4099V16.4066C17.3302 16.0616 17.6417 15.8238 18.1608 15.8205C18.6597 15.8205 19.008 16.0516 19.0583 16.43L19.0616 16.4702H20.0161L20.0127 16.4066C19.9658 15.5593 19.2793 15 18.1608 15C17.0891 15 16.3188 15.5827 16.3188 16.4668V16.4702C16.3188 17.1969 16.8011 17.6524 17.7555 17.8433L18.2646 17.9437C18.864 18.0676 19.1018 18.2317 19.1018 18.5599V18.5633C19.1018 18.9317 18.7502 19.1762 18.1909 19.1762C17.6383 19.1762 17.2398 18.9417 17.1762 18.5666L17.1695 18.5298H16.215L16.2184 18.5834C16.2753 19.4742 17.0154 20 18.1641 20Z" fill="black"/>
</svg>
