<svg width="24" height="24" viewBox="0 0 24 24" fill="none" xmlns="http://www.w3.org/2000/svg">
<path fill-rule="evenodd" clip-rule="evenodd" d="M2 6C2 4.89543 2.89543 4 4 4H17.5L22 8.5V18C22 19.1046 21.1046 20 20 20H13V15C13 13.8954 12.1046 13 11 13H2V6ZM16.6716 6H16V10H20V9.32843L16.6716 6ZM4.30074 20C5.46952 20 6.31681 19.2666 6.41058 18.2384L6.41393 18.2016H5.42934L5.42264 18.2351C5.29203 18.8078 4.88346 19.1427 4.30074 19.1427C3.52713 19.1427 3.03148 18.5131 3.03148 17.495V17.4916C3.03148 16.4802 3.52713 15.8573 4.30074 15.8573C4.90355 15.8573 5.29873 16.2056 5.41259 16.7381L5.42599 16.795H6.41058L6.40723 16.7649C6.31346 15.7401 5.47287 15 4.30074 15C2.89082 15 2 15.9377 2 17.495V17.4983C2 19.0556 2.88747 20 4.30074 20ZM8.80509 20C10.0241 20 10.7542 19.4106 10.7542 18.4829V18.4796C10.7542 17.7194 10.2987 17.3074 9.28734 17.1065L8.77495 17.0027C8.21902 16.8922 7.9712 16.7147 7.9712 16.4099V16.4066C7.9712 16.0616 8.28265 15.8238 8.80174 15.8205C9.30074 15.8205 9.64903 16.0516 9.69926 16.43L9.70261 16.4702H10.6571L10.6537 16.4066C10.6068 15.5593 9.92029 15 8.80174 15C7.73007 15 6.95981 15.5827 6.95981 16.4668V16.4702C6.95981 17.1969 7.44206 17.6524 8.39652 17.8433L8.90556 17.9437C9.50502 18.0676 9.7428 18.2317 9.7428 18.5599V18.5633C9.7428 18.9317 9.39116 19.1762 8.83188 19.1762C8.2793 19.1762 7.88078 18.9417 7.81715 18.5666L7.81045 18.5298H6.85599L6.85934 18.5834C6.91628 19.4742 7.6564 20 8.80509 20Z" fill="black"/>
</svg>
