<svg width="24" height="24" viewBox="0 0 24 24" fill="none" xmlns="http://www.w3.org/2000/svg">
<path fill-rule="evenodd" clip-rule="evenodd" d="M8 4C6.89543 4 6 4.89543 6 6V20H18V8H8V6C8.55228 6 9 5.55228 9 5C9 4.44772 8.55228 4 8 4ZM20 20V7.82929C21.1652 7.41746 22 6.30622 22 5C22 3.34315 20.6569 2 19 2H12H8C5.79086 2 4 3.79086 4 6V20C4 21.1046 4.89543 22 6 22H18C19.1046 22 20 21.1046 20 20ZM11 5C11 4.64936 10.9398 4.31278 10.8293 4H12H19C19.5523 4 20 4.44772 20 5C20 5.55228 19.5523 6 19 6H10.8293C10.9398 5.68722 11 5.35064 11 5ZM8 12V14H16V12H8ZM8 16V18H14V16H8Z" fill="black"/>
</svg>
