<svg width="24" height="24" viewBox="0 0 24 24" fill="none" xmlns="http://www.w3.org/2000/svg">
<path fill-rule="evenodd" clip-rule="evenodd" d="M2 6C2 4.89543 2.89543 4 4 4H17.4142L22 8.58579V18C22 19.1046 21.1046 20 20 20H17V18H20V10H16V6H4V13H2V6ZM4.49134 20H3.44491V15.8628H2V15H5.93971V15.8628H4.49134V20ZM7.5648 20H6.51836V15H7.5648V20ZM8.3964 20H9.44283V18.0319H11.4768V17.2037H9.44283V15.8628H11.6708V15H8.3964V20ZM13.3375 20H12.2911V15H15.5655V15.8628H13.3375V17.2037H15.3714V18.0319H13.3375V20Z" fill="black"/>
</svg>
