<svg width="24" height="24" viewBox="0 0 24 24" fill="none" xmlns="http://www.w3.org/2000/svg">
<path fill-rule="evenodd" clip-rule="evenodd" d="M2 6C2 4.89543 2.89543 4 4 4H17.4142L22 8.58579V18C22 19.1046 21.1046 20 20 20H15V18H20V10H16V6H4V13H2V6ZM2 20H3.04643V18.4685L3.51421 17.8898L4.94525 20H6.19612L4.27651 17.2072L6.06791 15H4.90367L3.07069 17.2869H3.04643V15H2V20ZM6.63617 20H9.94872V19.1372H7.68261V17.8794H9.82051V17.0617H7.68261V15.8628H9.94872V15H6.63617V20ZM13.1712 20H12.1247V18.1324L10.3853 15H11.5149L12.6376 17.1344H12.6618L13.781 15H14.9141L13.1712 18.1324V20Z" fill="black"/>
</svg>
