<svg width="24" height="24" viewBox="0 0 24 24" fill="none" xmlns="http://www.w3.org/2000/svg">
<path fill-rule="evenodd" clip-rule="evenodd" d="M6 2C4.89543 2 4 2.89543 4 4V20C4 21.1046 4.89543 22 6 22H18C19.1046 22 20 21.1046 20 20V4C20 2.89543 19.1046 2 18 2H6ZM6 4L18 4V20H6V4ZM9.71768 8.36128C9.72937 8.50839 9.75409 8.66223 9.78546 8.8125C9.87234 9.74138 10.1863 10.6778 10.6749 11.548C10.5713 11.8451 10.4597 12.1469 10.3409 12.4487C9.61598 12.7001 8.9286 13.0607 8.28158 13.5783C7.94061 13.8214 7.50745 14.1809 7.2352 14.5954C6.7908 15.2718 6.99176 16.1803 7.70625 16.7825C8.3422 17.3185 9.42772 17.2717 10.0026 16.6464C10.575 16.0239 11.2906 14.6868 11.8994 13.2104C12.5126 13.8619 13.2318 14.4244 14.0217 14.8487C14.3573 15.0833 14.7244 15.2859 15.0486 15.3377C15.8977 15.4734 16.7993 14.8957 16.9763 13.8988C17.1602 12.863 16.2425 11.9523 15.3259 11.8757C14.435 11.8011 13.4135 11.8888 12.8307 11.9556C12.6728 11.9694 12.5163 11.9855 12.3611 12.0041C12.8982 10.4843 13.2591 8.97952 13.1888 8.07664C13.1138 7.11304 12.3075 6.43407 11.3462 6.50509C10.2124 6.58887 9.65821 7.61286 9.71768 8.36128ZM10.0795 13.0845C9.39113 13.3757 8.74807 13.7852 8.14648 14.3609C8.07698 14.5099 8.02007 14.6545 7.98458 14.7863C7.90478 15.0826 7.99248 15.3346 8.20779 15.4472C8.4231 15.5597 8.77741 15.5439 8.94746 15.2765C9.36221 14.6241 9.74382 13.8655 10.0795 13.0845ZM12.1671 12.5336C12.2763 12.5182 12.3864 12.5043 12.4975 12.4916L12.5 12.5C13.3228 12.5 13.9518 12.6929 14.5453 13.0881C15.0079 13.3961 15.0005 14.1298 14.4052 14.226C14.2526 14.2507 13.905 14.1435 13.6877 14.0683C13.1012 13.6826 12.5676 13.2156 12.1053 12.6952C12.1261 12.6414 12.1467 12.5875 12.1671 12.5336ZM10.273 8.63834C10.3249 9.39044 10.5431 10.1566 10.8947 10.8875C11.2446 9.78409 11.4686 8.80275 11.5257 8.21068C11.544 8.02075 11.355 7.7135 11.053 7.7135C10.7772 7.68286 10.5505 7.86564 10.4709 8.05489C10.3915 8.24349 10.3263 8.43765 10.273 8.63834Z" fill="black"/>
</svg>
