<svg width="24" height="24" viewBox="0 0 24 24" fill="none" xmlns="http://www.w3.org/2000/svg">
<path fill-rule="evenodd" clip-rule="evenodd" d="M2 6C2 4.89543 2.89543 4 4 4H17.5L22 8.5V18C22 19.1046 21.1046 20 20 20H17V15C17 13.8954 16.1046 13 15 13H2V6ZM16.6716 6H16V10H20V9.32843L16.6716 6ZM3.04643 20H2V15H4.0097C5.06306 15 5.76646 15.6791 5.76646 16.7082V16.7152C5.76646 17.7443 5.06306 18.4234 4.0097 18.4234H3.04643V20ZM4.70617 16.7117C4.70617 16.1435 4.35274 15.8281 3.75329 15.8281H3.04643V17.6057H3.75329C4.35274 17.6057 4.70617 17.2869 4.70617 16.7186V16.7117ZM8.29591 20H6.38669V15H8.29591C9.79279 15 10.6798 15.8905 10.6798 17.474V17.4809C10.6798 19.0679 9.79626 20 8.29591 20ZM7.43313 15.8628V19.1337H8.17117C9.10672 19.1337 9.61261 18.5655 9.61261 17.4844V17.4775C9.61261 16.4345 9.0894 15.8628 8.17117 15.8628H7.43313ZM11.3555 20H12.4019V18.0319H14.4359V17.2037H12.4019V15.8628H14.6299V15H11.3555V20Z" fill="black"/>
</svg>
