<svg width="24" height="24" viewBox="0 0 24 24" fill="none" xmlns="http://www.w3.org/2000/svg">
<path fill-rule="evenodd" clip-rule="evenodd" d="M2 6C2 4.89543 2.89543 4 4 4H17.5L22 8.5V18C22 19.1046 21.1046 20 20 20H18V15C18 13.8954 17.1046 13 16 13H2V6ZM16.6716 6H16V10H20V9.32843L16.6716 6ZM13.8855 20C15.0141 20 15.7642 19.4173 15.7642 18.5532V18.5466C15.7642 17.8902 15.2954 17.4749 14.5787 17.4079V17.3878C15.1447 17.2706 15.5867 16.8788 15.5867 16.276V16.2693C15.5867 15.509 14.9169 15 13.8754 15C12.8607 15 12.1808 15.5492 12.1139 16.3865L12.1105 16.4267H13.0382L13.0415 16.3965C13.0817 16.0214 13.4032 15.777 13.8754 15.777C14.351 15.777 14.6289 16.0114 14.6289 16.4032V16.4099C14.6289 16.8017 14.3007 17.0697 13.795 17.0697H13.2559V17.7897H13.8084C14.3912 17.7897 14.7361 18.0442 14.7361 18.5064V18.5131C14.7361 18.9082 14.4012 19.1862 13.8821 19.1862C13.3597 19.1862 13.0181 18.9283 12.9745 18.5834L12.9678 18.5466H12.0033L12.0067 18.5901C12.0737 19.424 12.7904 20 13.8855 20ZM2.90087 19.9163H2V15.0837H3.16879L4.54186 18.5566H4.56196L5.93503 15.0837H7.10382V19.9163H6.20295V16.6477H6.17281L4.87006 19.9163H4.23376L2.92766 16.6477H2.90087V19.9163ZM8.91896 19.9163H7.90757V15.0837H9.84997C10.8681 15.0837 11.5479 15.7401 11.5479 16.7348V16.7415C11.5479 17.7361 10.8681 18.3925 9.84997 18.3925H8.91896V19.9163ZM10.5231 16.7381C10.5231 16.1889 10.1815 15.8841 9.60214 15.8841H8.91896V17.6021H9.60214C10.1815 17.6021 10.5231 17.294 10.5231 16.7448V16.7381Z" fill="black"/>
</svg>
