<svg width="24" height="24" viewBox="0 0 24 24" fill="none" xmlns="http://www.w3.org/2000/svg">
<path fill-rule="evenodd" clip-rule="evenodd" d="M4 4C4 2.89543 4.89543 2 6 2H18C19.1046 2 20 2.89543 20 4V20C20 21.1046 19.1046 22 18 22H6C4.89543 22 4 21.1046 4 20V4ZM18 4L6 4V20H18V4ZM7.29291 11.2928L9.79291 8.79285L11.2071 10.2071L9.41423 12L11.2071 13.7928L9.79291 15.2071L7.29291 12.7071V11.2928ZM14.2071 8.79285L16.7071 11.2928V12.7071L14.2071 15.2071L12.7929 13.7928L14.5858 12L12.7929 10.2071L14.2071 8.79285Z" fill="black"/>
</svg>
