<svg width="24" height="24" viewBox="0 0 24 24" fill="none" xmlns="http://www.w3.org/2000/svg">
<path fill-rule="evenodd" clip-rule="evenodd" d="M2 6C2 4.89543 2.89543 4 4 4H17.4142L22 8.58579V13H20V10H16V6H4V13H2V6ZM11.3135 17.5017C11.3135 19.0388 10.4193 20 8.98259 20C7.54588 20 6.65171 19.0388 6.65171 17.5017V17.495C6.65171 15.9578 7.55258 15 8.98259 15C10.4159 15 11.3135 15.9612 11.3135 17.495V17.5017ZM7.68319 17.5017C7.68319 18.5131 8.18888 19.1427 8.98259 19.1427C9.78634 19.1427 10.282 18.503 10.282 17.5017V17.495C10.282 16.4869 9.77629 15.8573 8.98259 15.8573C8.19223 15.8573 7.68319 16.4836 7.68319 17.495V17.5017ZM3.84528 19.9163H2V15.0837H3.84528C5.29203 15.0837 6.14936 15.9444 6.14936 17.4749V17.4816C6.14936 19.0154 5.29538 19.9163 3.84528 19.9163ZM3.01139 15.9176V19.079H3.72472C4.62894 19.079 5.11788 18.5298 5.11788 17.4849V17.4782C5.11788 16.4702 4.61219 15.9176 3.72472 15.9176H3.01139ZM14.1165 20C15.2853 20 16.1326 19.2666 16.2264 18.2384L16.2297 18.2016H15.2451L15.2384 18.2351C15.1078 18.8078 14.6993 19.1427 14.1165 19.1427C13.3429 19.1427 12.8473 18.5131 12.8473 17.495V17.4916C12.8473 16.4802 13.3429 15.8573 14.1165 15.8573C14.7194 15.8573 15.1145 16.2056 15.2284 16.7381L15.2418 16.795H16.2264L16.223 16.7649C16.1293 15.7401 15.2887 15 14.1165 15C12.7066 15 11.8158 15.9377 11.8158 17.495V17.4983C11.8158 19.0556 12.7033 20 14.1165 20ZM17.4889 19.9163H16.3972L17.9344 17.4816V17.4715L16.4072 15.0837H17.5961L18.6242 16.8252H18.6611L19.6825 15.0837H20.8111L19.2271 17.4883V17.5017L20.791 19.9163H19.639L18.5774 18.2217H18.5439L17.4889 19.9163Z" fill="black"/>
</svg>
