<svg width="24" height="24" viewBox="0 0 24 24" fill="none" xmlns="http://www.w3.org/2000/svg">
<path fill-rule="evenodd" clip-rule="evenodd" d="M6 2C4.89543 2 4 2.89543 4 4V20C4 21.1046 4.89543 22 6 22H18C19.1046 22 20 21.1046 20 20V4C20 2.89543 19.1046 2 18 2H6ZM16 11C16 11.8393 15.483 12.5579 14.75 12.8546V16.069C16.6006 16.4146 18 18.0172 18 19.97V19.9998H6V17.4487C7.02328 17.756 7.92533 17.7598 8.75 17.6113V15.7993C8.30165 15.54 8 15.0552 8 14.5C8 13.6716 8.67157 11 9.5 11C10.3284 11 11 13.6716 11 14.5C11 15.0552 10.6984 15.54 10.25 15.7993V17.1785C10.5848 17.0517 10.9096 16.9137 11.2284 16.7782C11.9168 16.4856 12.5772 16.2049 13.25 16.0751V12.8546C12.517 12.5579 12 11.8393 12 11C12 9.89543 12.8954 6 14 6C15.1046 6 16 9.89543 16 11ZM10 7C10 7.55228 9.55228 8 9 8C8.44772 8 8 7.55228 8 7C8 6.44772 8.44772 6 9 6C9.55228 6 10 6.44772 10 7Z" fill="black"/>
</svg>
