<svg width="24" height="24" viewBox="0 0 24 24" fill="none" xmlns="http://www.w3.org/2000/svg">
<path fill-rule="evenodd" clip-rule="evenodd" d="M4 4C4 2.89543 4.89543 2 6 2H15.5L20 6.5V20C20 21.1046 19.1046 22 18 22H6C4.89543 22 4 21.1046 4 20V4ZM14.6716 4H14V8H18V7.32843L14.6716 4ZM13.1888 10.5766C13.1138 9.61304 12.3075 8.93407 11.3462 9.00509C10.2124 9.08887 9.65821 10.1129 9.71768 10.8613C9.80627 11.9763 10.127 13.0722 10.6749 14.048C10.5713 14.3451 10.4598 14.6469 10.3409 14.9487C9.22399 15.3359 7.90537 16.0753 7.2352 17.0954C6.7908 17.7718 6.99176 18.6803 7.70625 19.2825C8.3422 19.8185 9.42772 19.7717 10.0026 19.1464C10.575 18.5239 11.2906 17.1869 11.8994 15.7105C12.648 16.5058 13.9036 17.6548 15.0486 17.8377C15.8977 17.9734 16.7993 17.3957 16.9763 16.3988C17.1602 15.363 16.2425 14.4523 15.3259 14.3757C14.3396 14.2932 13.3416 14.3864 12.3611 14.504C12.8982 12.9842 13.2591 11.4795 13.1888 10.5766ZM7.98458 17.2863C8.21679 16.4239 9.32065 15.9055 10.0795 15.5844C9.74384 16.3655 9.36222 17.1241 8.94746 17.7765C8.77741 18.0439 8.4231 18.0597 8.20779 17.9472C7.99248 17.8346 7.90478 17.5826 7.98458 17.2863ZM14.5453 15.5881C13.9497 15.1915 12.8955 14.9309 12.1672 15.0336C12.1467 15.0875 12.1261 15.1414 12.1052 15.1952C12.1268 15.2195 12.1493 15.2449 12.1726 15.2712C12.6767 15.8412 13.5777 16.8599 14.4052 16.726C15.0005 16.6298 15.0079 15.8961 14.5453 15.5881ZM10.8947 13.3875C11.2446 12.2841 11.4686 11.3028 11.5257 10.7107C11.544 10.5208 11.355 10.2135 11.053 10.2135C10.7772 10.1829 10.5505 10.3656 10.4709 10.5549C10.1927 11.2162 10.4769 12.5192 10.8947 13.3875Z" fill="black"/>
</svg>
