<svg width="24" height="24" viewBox="0 0 24 24" fill="none" xmlns="http://www.w3.org/2000/svg">
<path fill-rule="evenodd" clip-rule="evenodd" d="M2 6C2 4.89543 2.89543 4 4 4H17.4142L22 8.58579V18C22 19.1046 21.1046 20 20 20H19V18H20V10H16V6H4V13H2V6ZM17.01 18.2384C16.9163 19.2666 16.069 20 14.9002 20C13.4869 20 12.5995 19.0556 12.5995 17.4983V17.495C12.5995 15.9377 13.4903 15 14.9002 15C16.0723 15 16.9129 15.7401 17.0067 16.7649L17.01 16.795H16.0255L16.0121 16.7381C15.8982 16.2056 15.503 15.8573 14.9002 15.8573C14.1266 15.8573 13.6309 16.4802 13.6309 17.4916V17.495C13.6309 18.5131 14.1266 19.1427 14.9002 19.1427C15.4829 19.1427 15.8915 18.8078 16.0221 18.2351L16.0288 18.2016H17.0134L17.01 18.2384ZM3.01139 19.9163H2V15.0837H3.01139V17.0462H5.18821V15.0837H6.1996V19.9163H5.18821V17.8801H3.01139V19.9163ZM10.205 19.9163H7.00335V15.0837H10.205V15.9176H8.01474V17.0764H10.081V17.8667H8.01474V19.0824H10.205V19.9163ZM10.935 19.9163H11.9464V15.0837H10.935V19.9163Z" fill="black"/>
</svg>
