<svg width="24" height="24" viewBox="0 0 24 24" fill="none" xmlns="http://www.w3.org/2000/svg">
<path fill-rule="evenodd" clip-rule="evenodd" d="M2 6C2 4.89543 2.89543 4 4 4H17.5L22 8.5V13H20H2V6ZM16.6716 6H16V10H20V9.32843L16.6716 6ZM4.9491 20C6.16812 20 6.89819 19.4106 6.89819 18.4829V18.4796C6.89819 17.7194 6.44273 17.3074 5.43135 17.1065L4.91896 17.0027C4.36303 16.8922 4.1152 16.7147 4.1152 16.4099V16.4066C4.1152 16.0616 4.42666 15.8238 4.94575 15.8205C5.44474 15.8205 5.79303 16.0516 5.84327 16.43L5.84662 16.4702H6.80107L6.79772 16.4066C6.75084 15.5593 6.0643 15 4.94575 15C3.87408 15 3.10382 15.5827 3.10382 16.4668V16.4702C3.10382 17.1969 3.58607 17.6524 4.54052 17.8433L5.04956 17.9437C5.64903 18.0676 5.88681 18.2317 5.88681 18.5599V18.5633C5.88681 18.9317 5.53516 19.1762 4.97589 19.1762C4.42331 19.1762 4.02478 18.9417 3.96115 18.5666L3.95445 18.5298H3L3.00335 18.5834C3.06028 19.4742 3.8004 20 4.9491 20ZM9.66778 20C10.8366 20 11.6839 19.2666 11.7776 18.2384L11.781 18.2016H10.7964L10.7897 18.2351C10.6591 18.8078 10.2505 19.1427 9.66778 19.1427C8.89417 19.1427 8.39853 18.5131 8.39853 17.495V17.4916C8.39853 16.4802 8.89417 15.8573 9.66778 15.8573C10.2706 15.8573 10.6658 16.2056 10.7796 16.7381L10.793 16.795H11.7776L11.7743 16.7649C11.6805 15.7401 10.8399 15 9.66778 15C8.25787 15 7.36705 15.9377 7.36705 17.495V17.4983C7.36705 19.0556 8.25452 20 9.66778 20ZM16.1212 18.4829C16.1212 19.4106 15.3912 20 14.1721 20C13.0234 20 12.2833 19.4742 12.2264 18.5834L12.223 18.5298H13.1775L13.1842 18.5666C13.2478 18.9417 13.6463 19.1762 14.1989 19.1762C14.7582 19.1762 15.1098 18.9317 15.1098 18.5633V18.5599C15.1098 18.2317 14.8721 18.0676 14.2726 17.9437L13.7636 17.8433C12.8091 17.6524 12.3269 17.1969 12.3269 16.4702V16.4668C12.3269 15.5827 13.0971 15 14.1688 15C15.2873 15 15.9739 15.5593 16.0208 16.4066L16.0241 16.4702H15.0697L15.0663 16.43C15.0161 16.0516 14.6678 15.8205 14.1688 15.8205C13.6497 15.8238 13.3382 16.0616 13.3382 16.4066V16.4099C13.3382 16.7147 13.5861 16.8922 14.142 17.0027L14.6544 17.1065C15.6658 17.3074 16.1212 17.7194 16.1212 18.4796V18.4829ZM18.5057 20C19.7247 20 20.4548 19.4106 20.4548 18.4829V18.4796C20.4548 17.7194 19.9993 17.3074 18.9879 17.1065L18.4756 17.0027C17.9196 16.8922 17.6718 16.7147 17.6718 16.4099V16.4066C17.6718 16.0616 17.9833 15.8238 18.5023 15.8205C19.0013 15.8205 19.3496 16.0516 19.3999 16.43L19.4032 16.4702H20.3577L20.3543 16.4066C20.3074 15.5593 19.6209 15 18.5023 15C17.4307 15 16.6604 15.5827 16.6604 16.4668V16.4702C16.6604 17.1969 17.1427 17.6524 18.0971 17.8433L18.6062 17.9437C19.2056 18.0676 19.4434 18.2317 19.4434 18.5599V18.5633C19.4434 18.9317 19.0918 19.1762 18.5325 19.1762C17.9799 19.1762 17.5814 18.9417 17.5177 18.5666L17.5111 18.5298H16.5566L16.5599 18.5834C16.6169 19.4742 17.357 20 18.5057 20Z" fill="black"/>
</svg>
