<svg width="24" height="24" viewBox="0 0 24 24" fill="none" xmlns="http://www.w3.org/2000/svg">
<path fill-rule="evenodd" clip-rule="evenodd" d="M4 4V20C4 21.1046 4.89543 22 6 22H18C19.1046 22 20 21.1046 20 20L20 19.9928V6.5L15.5 2H6C4.89543 2 4 2.89543 4 4ZM14 4H6V16.3521C6.6329 16.599 7.18125 16.6875 7.67188 16.6875C8.03673 16.6875 8.38842 16.6386 8.74068 16.5538C8.2888 16.1871 8.00001 15.6273 8.00001 15C8.00001 13.8954 8.89544 10 10 10C11.1046 10 12 13.8954 12 15C12 15.1196 11.9895 15.2368 11.9694 15.3506C12.3093 15.2399 12.6678 15.1442 13.0461 15.081C13.2111 13.9895 13.7995 12 14.5 12C15.256 12 15.8814 14.3174 15.985 15.3221C16.7563 15.5806 17.4345 15.9759 18 16.4384V8H14V4ZM18 20V19.9963C17.9981 19.6207 17.6979 18.8698 16.9446 18.1703C16.2263 17.5033 15.2115 17 14 17C13.419 17 12.8588 17.1442 12.2394 17.3747C10.7345 17.9347 9.32177 18.6875 7.67188 18.6875C7.13573 18.6875 6.58057 18.6166 6 18.4571V20H18ZM9.00001 8C9.55229 8 10 7.55228 10 7C10 6.44772 9.55229 6 9.00001 6C8.44772 6 8.00001 6.44772 8.00001 7C8.00001 7.55228 8.44772 8 9.00001 8Z" fill="black"/>
</svg>
