<svg width="24" height="24" viewBox="0 0 24 24" fill="none" xmlns="http://www.w3.org/2000/svg">
<path fill-rule="evenodd" clip-rule="evenodd" d="M2 6C2 4.89543 2.89543 4 4 4H17.4142L22 8.58579V18C22 19.1046 21.1046 20 20 20H18V18H20V10H16V6H4V13H2V6ZM2 20H4.21414C5.28136 20 5.94317 19.4525 5.94317 18.5759V18.569C5.94317 17.9141 5.44075 17.422 4.74428 17.3701V17.3493C5.29522 17.2765 5.71102 16.8087 5.71102 16.2613V16.2543C5.71102 15.4851 5.1185 15 4.17602 15H2V20ZM3.90575 15.7762C4.39432 15.7762 4.68191 16.0049 4.68191 16.4033V16.4103C4.68191 16.8434 4.3666 17.0894 3.77755 17.0894H3.04643V15.7762H3.90575ZM3.90229 17.7997C4.54331 17.7997 4.87595 18.0457 4.87595 18.5031V18.51C4.87595 18.9744 4.54678 19.2204 3.94733 19.2204H3.04643V17.7997H3.90229ZM6.53916 20H7.47124V16.6182H7.49896L8.85031 20H9.50866L10.8565 16.6182H10.8877V20H11.8198V15H10.6105L9.18988 18.5932H9.16909L7.74844 15H6.53916V20ZM13.6979 20H12.6514V15H14.6611C15.7145 15 16.4179 15.6791 16.4179 16.7082V16.7152C16.4179 17.7443 15.7145 18.4234 14.6611 18.4234H13.6979V20ZM15.3576 16.7117C15.3576 16.1435 15.0042 15.8281 14.4047 15.8281H13.6979V17.6057H14.4047C15.0042 17.6057 15.3576 17.2869 15.3576 16.7186V16.7117Z" fill="black"/>
</svg>
