<svg width="24" height="24" viewBox="0 0 24 24" fill="none" xmlns="http://www.w3.org/2000/svg">
<path fill-rule="evenodd" clip-rule="evenodd" d="M2 6C2 4.89543 2.89543 4 4 4H17.5L22 8.5V18C22 19.1046 21.1046 20 20 20H19V15C19 13.8954 18.1046 13 17 13H2V6ZM16.6716 6H16V10H20V9.32843L16.6716 6ZM2.93209 20H2V15H3.20929L4.62994 18.5932H4.65073L6.07138 15H7.28067V20H6.34858V16.6182H6.31739L4.96951 20H4.31116L2.95981 16.6182H2.93209V20ZM10.0215 20H8.11227V15H10.0215C11.5184 15 12.4054 15.8905 12.4054 17.474V17.4809C12.4054 19.0679 11.5218 20 10.0215 20ZM9.1587 15.8628V19.1337H9.89674C10.8323 19.1337 11.3382 18.5655 11.3382 17.4844V17.4775C11.3382 16.4345 10.815 15.8628 9.89674 15.8628H9.1587ZM12.5163 20H13.6459L14.7374 18.2467H14.772L15.8704 20H17.0624L15.4442 17.5017V17.4879L17.0832 15H15.9155L14.8586 16.8018H14.8205L13.7568 15H12.5267L14.1067 17.4705V17.4809L12.5163 20Z" fill="black"/>
</svg>
