<svg width="24" height="24" viewBox="0 0 24 24" fill="none" xmlns="http://www.w3.org/2000/svg">
<path fill-rule="evenodd" clip-rule="evenodd" d="M2 6C2 4.89543 2.89543 4 4 4H17.5L22 8.5V18C22 19.1046 21.1046 20 20 20H13V15C13 13.8954 12.1046 13 11 13H2V6ZM16.6716 6H16V10H20V9.32843L16.6716 6ZM3.9491 20C5.16812 20 5.89819 19.4106 5.89819 18.4829V18.4796C5.89819 17.7194 5.44273 17.3074 4.43135 17.1065L3.91895 17.0027C3.36303 16.8922 3.1152 16.7147 3.1152 16.4099V16.4066C3.1152 16.0616 3.42666 15.8238 3.94575 15.8205C4.44474 15.8205 4.79303 16.0516 4.84327 16.43L4.84662 16.4702H5.80107L5.79772 16.4066C5.75084 15.5593 5.0643 15 3.94575 15C2.87408 15 2.10382 15.5827 2.10382 16.4668V16.4702C2.10382 17.1969 2.58607 17.6524 3.54052 17.8433L4.04956 17.9437C4.64903 18.0676 4.8868 18.2317 4.8868 18.5599V18.5633C4.8868 18.9317 4.53516 19.1762 3.97589 19.1762C3.42331 19.1762 3.02478 18.9417 2.96115 18.5666L2.95445 18.5298H2L2.00335 18.5834C2.06028 19.4742 2.8004 20 3.9491 20ZM6.51775 19.9163H7.52914V17.8801H9.70596V19.9163H10.7173V15.0837H9.70596V17.0462H7.52914V15.0837H6.51775V19.9163Z" fill="black"/>
</svg>
