<svg width="24" height="24" viewBox="0 0 24 24" fill="none" xmlns="http://www.w3.org/2000/svg">
<path fill-rule="evenodd" clip-rule="evenodd" d="M2 6C2 4.89543 2.89543 4 4 4H17.4142L22 8.58579V18C22 19.1046 21.1046 20 20 20H16V18H20V10H16V6H4V13H2V6ZM4.33088 20C5.76758 20 6.66176 19.0388 6.66176 17.5017V17.495C6.66176 15.9612 5.76423 15 4.33088 15C2.90087 15 2 15.9578 2 17.495V17.5017C2 19.0388 2.89417 20 4.33088 20ZM4.33088 19.1427C3.53717 19.1427 3.03148 18.5131 3.03148 17.5017V17.495C3.03148 16.4836 3.54052 15.8573 4.33088 15.8573C5.12458 15.8573 5.63028 16.4869 5.63028 17.495V17.5017C5.63028 18.503 5.13463 19.1427 4.33088 19.1427ZM8.20228 19.9163H9.21366V15.9176H10.6135V15.0837H6.80576V15.9176H8.20228V19.9163ZM12.1842 19.9163H11.1728V15.0837H14.3376V15.9176H12.1842V17.2137H14.15V18.0141H12.1842V19.9163Z" fill="black"/>
</svg>
