<svg width="24" height="24" viewBox="0 0 24 24" fill="none" xmlns="http://www.w3.org/2000/svg">
<path fill-rule="evenodd" clip-rule="evenodd" d="M2 6C2 4.89543 2.89543 4 4 4H17.4142L22 8.58579V18C22 19.1046 21.1046 20 20 20H17V18H20V10H16V6H4V13H2V6ZM8.00469 20C9.22371 20 9.95378 19.4106 9.95378 18.4829V18.4796C9.95378 17.7194 9.49833 17.3074 8.48694 17.1065L7.97455 17.0027C7.41862 16.8922 7.1708 16.7147 7.1708 16.4099V16.4066C7.1708 16.0616 7.48225 15.8238 8.00134 15.8205C8.50033 15.8205 8.84863 16.0516 8.89886 16.43L8.90221 16.4702H9.85666L9.85332 16.4066C9.80643 15.5593 9.11989 15 8.00134 15C6.92967 15 6.15941 15.5827 6.15941 16.4668V16.4702C6.15941 17.1969 6.64166 17.6524 7.59612 17.8433L8.10516 17.9437C8.70462 18.0676 8.9424 18.2317 8.9424 18.5599V18.5633C8.9424 18.9317 8.59076 19.1762 8.03148 19.1762C7.4789 19.1762 7.08038 18.9417 7.01674 18.5666L7.01005 18.5298H6.05559L6.05894 18.5834C6.11587 19.4742 6.85599 20 8.00469 20ZM2 19.9163H3.01139V18.3925H3.9424C4.96048 18.3925 5.64032 17.7361 5.64032 16.7415V16.7348C5.64032 15.7401 4.96048 15.0837 3.9424 15.0837H2V19.9163ZM3.69457 15.8841C4.27395 15.8841 4.61554 16.1889 4.61554 16.7381V16.7448C4.61554 17.294 4.27395 17.6021 3.69457 17.6021H3.01139V15.8841H3.69457ZM12.4186 19.9163H10.5733V15.0837H12.4186C13.8654 15.0837 14.7227 15.9444 14.7227 17.4749V17.4816C14.7227 19.0154 13.8687 19.9163 12.4186 19.9163ZM11.5847 15.9176V19.079H12.2981C13.2023 19.079 13.6912 18.5298 13.6912 17.4849V17.4782C13.6912 16.4702 13.1855 15.9176 12.2981 15.9176H11.5847Z" fill="black"/>
</svg>
