<svg width="24" height="24" viewBox="0 0 24 24" fill="none" xmlns="http://www.w3.org/2000/svg">
<path fill-rule="evenodd" clip-rule="evenodd" d="M4 4C4 2.89543 4.89543 2 6 2H18C19.1046 2 20 2.89543 20 4V20C20 21.1046 19.1046 22 18 22H6C4.89543 22 4 21.1046 4 20V4ZM8 18V10H16V18H8ZM8 8H12V6H8V8ZM16 7C16 7.55228 15.5523 8 15 8C14.4477 8 14 7.55228 14 7C14 6.44772 14.4477 6 15 6C15.5523 6 16 6.44772 16 7ZM12.618 13.3167L12 12L11.382 13.3167L10 13.5279L11 14.5528L10.7639 16L12 15.3167L13.2361 16L13 14.5528L14 13.5279L12.618 13.3167Z" fill="black"/>
</svg>
