<svg width="24" height="24" viewBox="0 0 24 24" fill="none" xmlns="http://www.w3.org/2000/svg">
<path fill-rule="evenodd" clip-rule="evenodd" d="M2 6C2 4.89543 2.89543 4 4 4H17.5L22 8.5V18C22 19.1046 21.1046 20 20 20H14V15C14 13.8954 13.1046 13 12 13H2V6ZM16.6716 6H16V10H20V9.32843L16.6716 6ZM6.47086 17.8868C6.47086 19.2029 5.67381 20 4.32753 20C2.88413 20 2 19.0589 2 17.4849V17.4816C2 15.9344 2.88747 15 4.30409 15C5.46618 15 6.25653 15.6765 6.41728 16.5841L6.42733 16.6309H5.41259L5.3992 16.5975C5.23845 16.1286 4.85332 15.8573 4.30743 15.8573C3.51038 15.8573 3.03148 16.4468 3.03148 17.4715V17.4749C3.03148 18.5231 3.54052 19.1427 4.34427 19.1427C5.00402 19.1427 5.45613 18.7508 5.48292 18.1547L5.48627 18.0844H4.38111V17.3309H6.47086V17.8868ZM8.15204 19.9163H7.14066V15.0837H8.15204V19.9163ZM8.95579 19.9163H9.96718V18.0141H11.933V17.2137H9.96718V15.9176H12.1206V15.0837H8.95579V19.9163Z" fill="black"/>
</svg>
