<svg width="24" height="24" viewBox="0 0 24 24" fill="none" xmlns="http://www.w3.org/2000/svg">
<path fill-rule="evenodd" clip-rule="evenodd" d="M2 6C2 4.89543 2.89543 4 4 4H17.5L22 8.5V18C22 19.1046 21.1046 20 20 20H19V15C19 13.8954 18.1046 13 17 13H2V6ZM16.6716 6H16V10H20V9.32843L16.6716 6ZM4.34581 20H3.32363L2 15H3.08455L3.87457 18.5828H3.89536L4.81705 15H5.73527L6.65696 18.5828H6.67775L7.47124 15H8.55579L7.22869 20H6.20651L5.28829 16.6493H5.2675L4.34581 20ZM9.42897 20H8.33056L10.0769 15H11.307L13.0499 20H11.9515L11.5738 18.7872H9.80665L9.42897 20ZM10.7006 15.9702H10.6798L10.0492 18.0042H11.3313L10.7006 15.9702ZM14.2938 20H15.569L17.2426 15H16.0818L14.9418 18.9293H14.921L13.7775 15H12.6202L14.2938 20Z" fill="black"/>
</svg>
