<svg width="24" height="24" viewBox="0 0 24 24" fill="none" xmlns="http://www.w3.org/2000/svg">
<path fill-rule="evenodd" clip-rule="evenodd" d="M2 5.99976C2 4.89517 2.89545 3.99974 4.00003 3.99976L17.4142 3.99998L22 8.58576V18C22 19.1045 21.1046 20 20 20H16V18H20V9.99998H16V5.99996L4 5.99976V13H2V5.99976ZM2 20H5.31254V19.1372H3.04643V17.8794H5.18434V17.0616H3.04643V15.8628H5.31254V15H2V20ZM5.80111 20H6.9307L8.02218 18.2467H8.05683L9.15523 20H10.3472L8.72904 17.5017V17.4878L10.368 15H9.20028L8.14345 16.8018H8.10534L7.04158 15H5.8115L7.39155 17.4705V17.4809L5.80111 20ZM14.2453 20H10.9328V15H14.2453V15.8628H11.9792V17.0616H14.1171V17.8794H11.9792V19.1372H14.2453V20Z" fill="black"/>
</svg>
