<svg width="24" height="24" viewBox="0 0 24 24" fill="none" xmlns="http://www.w3.org/2000/svg">
<path fill-rule="evenodd" clip-rule="evenodd" d="M2 6C2 4.89543 2.89543 4 4 4H17.5L22 8.5V18C22 19.1046 21.1046 20 20 20H18V15C18 13.8954 17.1046 13 16 13H2V6ZM16.6716 6H16V10H20V9.32843L16.6716 6ZM3.12959 20H2L3.59044 17.4809V17.4705L2.0104 15H3.24047L4.30423 16.8018H4.34234L5.39917 15H6.56687L4.92793 17.4879V17.5017L6.54608 20H5.35412L4.25572 18.2467H4.22107L3.12959 20ZM8.06376 20H7.13167V15H8.34096L9.76161 18.5932H9.7824L11.203 15H12.4123V20H11.4802V16.6182H11.4491L10.1012 20H9.44283L8.09148 16.6182H8.06376V20ZM13.2439 20H16.4768V19.1372H14.2904V15H13.2439V20Z" fill="black"/>
</svg>
