<svg width="24" height="24" viewBox="0 0 24 24" fill="none" xmlns="http://www.w3.org/2000/svg">
<path fill-rule="evenodd" clip-rule="evenodd" d="M2 6C2 4.89543 2.89543 4 4 4H17.4142L22 8.58579V13H20V10H16V6H4V13H2V6ZM6.89819 18.4829C6.89819 19.4106 6.16812 20 4.9491 20C3.8004 20 3.06028 19.4742 3.00335 18.5834L3 18.5298H3.95445L3.96115 18.5666C4.02478 18.9417 4.42331 19.1762 4.97589 19.1762C5.53516 19.1762 5.88681 18.9317 5.88681 18.5633V18.5599C5.88681 18.2317 5.64903 18.0676 5.04956 17.9437L4.54052 17.8433C3.58607 17.6524 3.10382 17.1969 3.10382 16.4702V16.4668C3.10382 15.5827 3.87408 15 4.94575 15C6.0643 15 6.75084 15.5593 6.79772 16.4066L6.80107 16.4702H5.84662L5.84327 16.43C5.79303 16.0516 5.44474 15.8205 4.94575 15.8205C4.42666 15.8238 4.1152 16.0616 4.1152 16.4066V16.4099C4.1152 16.7147 4.36303 16.8922 4.91896 17.0027L5.43135 17.1065C6.44273 17.3074 6.89819 17.7194 6.89819 18.4796V18.4829ZM11.7776 18.2384C11.6839 19.2666 10.8366 20 9.66778 20C8.25452 20 7.36705 19.0556 7.36705 17.4983V17.495C7.36705 15.9377 8.25787 15 9.66778 15C10.8399 15 11.6805 15.7401 11.7743 16.7649L11.7776 16.795H10.793L10.7796 16.7381C10.6658 16.2056 10.2706 15.8573 9.66778 15.8573C8.89417 15.8573 8.39853 16.4802 8.39853 17.4916V17.495C8.39853 18.5131 8.89417 19.1427 9.66778 19.1427C10.2505 19.1427 10.6591 18.8078 10.7897 18.2351L10.7964 18.2016H11.781L11.7776 18.2384ZM14.1721 20C15.3912 20 16.1212 19.4106 16.1212 18.4829V18.4796C16.1212 17.7194 15.6658 17.3074 14.6544 17.1065L14.142 17.0027C13.5861 16.8922 13.3382 16.7147 13.3382 16.4099V16.4066C13.3382 16.0616 13.6497 15.8238 14.1688 15.8205C14.6678 15.8205 15.0161 16.0516 15.0663 16.43L15.0697 16.4702H16.0241L16.0208 16.4066C15.9739 15.5593 15.2873 15 14.1688 15C13.0971 15 12.3269 15.5827 12.3269 16.4668V16.4702C12.3269 17.1969 12.8091 17.6524 13.7636 17.8433L14.2726 17.9437C14.8721 18.0676 15.1098 18.2317 15.1098 18.5599V18.5633C15.1098 18.9317 14.7582 19.1762 14.1989 19.1762C13.6463 19.1762 13.2478 18.9417 13.1842 18.5666L13.1775 18.5298H12.223L12.2264 18.5834C12.2833 19.4742 13.0234 20 14.1721 20ZM20.4548 18.4829C20.4548 19.4106 19.7247 20 18.5057 20C17.357 20 16.6169 19.4742 16.5599 18.5834L16.5566 18.5298H17.5111L17.5177 18.5666C17.5814 18.9417 17.9799 19.1762 18.5325 19.1762C19.0918 19.1762 19.4434 18.9317 19.4434 18.5633V18.5599C19.4434 18.2317 19.2056 18.0676 18.6062 17.9437L18.0971 17.8433C17.1427 17.6524 16.6604 17.1969 16.6604 16.4702V16.4668C16.6604 15.5827 17.4307 15 18.5023 15C19.6209 15 20.3074 15.5593 20.3543 16.4066L20.3577 16.4702H19.4032L19.3999 16.43C19.3496 16.0516 19.0013 15.8205 18.5023 15.8205C17.9833 15.8238 17.6718 16.0616 17.6718 16.4066V16.4099C17.6718 16.7147 17.9196 16.8922 18.4756 17.0027L18.9879 17.1065C19.9993 17.3074 20.4548 17.7194 20.4548 18.4796V18.4829Z" fill="black"/>
</svg>
