<svg width="24" height="24" viewBox="0 0 24 24" fill="none" xmlns="http://www.w3.org/2000/svg">
<path fill-rule="evenodd" clip-rule="evenodd" d="M17.4142 4L22 8.58579V18C22 19.1046 21.1046 20 20 20H13V18H20V10H16V6.00001L4 6.00013L4 13H2V6.00013C2 4.89557 2.89542 4.00014 3.99998 4.00013L17.4142 4ZM6.41058 18.2384C6.31681 19.2666 5.46952 20 4.30074 20C2.88747 20 2 19.0556 2 17.4983V17.495C2 15.9377 2.89082 15 4.30074 15C5.47287 15 6.31346 15.7401 6.40723 16.7649L6.41058 16.795H5.42599L5.41259 16.7381C5.29873 16.2056 4.90355 15.8573 4.30074 15.8573C3.52713 15.8573 3.03148 16.4802 3.03148 17.4916V17.495C3.03148 18.5131 3.52713 19.1427 4.30074 19.1427C4.88346 19.1427 5.29203 18.8078 5.42264 18.2351L5.42934 18.2016H6.41393L6.41058 18.2384ZM10.7542 18.4829C10.7542 19.4106 10.0241 20 8.80509 20C7.6564 20 6.91628 19.4742 6.85934 18.5834L6.85599 18.5298H7.81045L7.81715 18.5666C7.88078 18.9417 8.2793 19.1762 8.83188 19.1762C9.39116 19.1762 9.7428 18.9317 9.7428 18.5633V18.5599C9.7428 18.2317 9.50502 18.0676 8.90556 17.9437L8.39652 17.8433C7.44206 17.6524 6.95981 17.1969 6.95981 16.4702V16.4668C6.95981 15.5827 7.73007 15 8.80174 15C9.92029 15 10.6068 15.5593 10.6537 16.4066L10.6571 16.4702H9.70261L9.69926 16.43C9.64903 16.0516 9.30074 15.8205 8.80174 15.8205C8.28265 15.8238 7.9712 16.0616 7.9712 16.4066V16.4099C7.9712 16.7147 8.21902 16.8922 8.77495 17.0027L9.28734 17.1065C10.2987 17.3074 10.7542 17.7194 10.7542 18.4796V18.4829Z" fill="black"/>
</svg>
