<svg width="24" height="24" viewBox="0 0 24 24" fill="none" xmlns="http://www.w3.org/2000/svg">
<path fill-rule="evenodd" clip-rule="evenodd" d="M2 6C2 4.89543 2.89543 4 4 4H17.5L22 8.5V18C22 19.1046 21.1046 20 20 20H19V15C19 13.8954 18.1046 13 17 13H2V6ZM16.6716 6H16V10H20V9.32843L16.6716 6ZM14.9002 20C16.069 20 16.9163 19.2666 17.01 18.2384L17.0134 18.2016H16.0288L16.0221 18.2351C15.8915 18.8078 15.4829 19.1427 14.9002 19.1427C14.1266 19.1427 13.6309 18.5131 13.6309 17.495V17.4916C13.6309 16.4802 14.1266 15.8573 14.9002 15.8573C15.503 15.8573 15.8982 16.2056 16.0121 16.7381L16.0255 16.795H17.01L17.0067 16.7649C16.9129 15.7401 16.0723 15 14.9002 15C13.4903 15 12.5995 15.9377 12.5995 17.495V17.4983C12.5995 19.0556 13.4869 20 14.9002 20ZM2 19.9163H3.01139V17.8801H5.18821V19.9163H6.1996V15.0837H5.18821V17.0462H3.01139V15.0837H2V19.9163ZM7.00335 19.9163H10.205V19.0824H8.01474V17.8667H10.081V17.0764H8.01474V15.9176H10.205V15.0837H7.00335V19.9163ZM11.9464 19.9163H10.935V15.0837H11.9464V19.9163Z" fill="black"/>
</svg>
