<svg width="24" height="24" viewBox="0 0 24 24" fill="none" xmlns="http://www.w3.org/2000/svg">
<path fill-rule="evenodd" clip-rule="evenodd" d="M6 2C4.89543 2 4 2.89543 4 4V20C4 21.1046 4.89543 22 6 22H18C19.1046 22 20 21.1046 20 20V4C20 2.89543 19.1046 2 18 2H6ZM6 4L18 4V12.5858L15 9.58582L11 13.5858L8.00001 10.5858L6 12.5858V4ZM6 15.4143V20H18V15.4142L15 12.4142L9.20712 18.2071L7.79291 16.7929L9.5858 15L8.00001 13.4142L6 15.4143ZM13 7C13 7.55228 12.5523 8 12 8C11.4477 8 11 7.55228 11 7C11 6.44772 11.4477 6 12 6C12.5523 6 13 6.44772 13 7Z" fill="black"/>
</svg>
