<svg width="24" height="24" viewBox="0 0 24 24" fill="none" xmlns="http://www.w3.org/2000/svg">
<path fill-rule="evenodd" clip-rule="evenodd" d="M2 6C2 4.89543 2.89543 4 4 4H17.5L22 8.5V18H20V15C20 13.8954 19.1046 13 18 13H2V6ZM16.6716 6H16V10H20V9.32843L16.6716 6ZM3.04643 20H2V15H3.04643V17.0305H5.29868V15H6.34511V20H5.29868V17.8933H3.04643V20ZM9.41857 20H8.37214V15.8628H6.92724V15H10.8669V15.8628H9.41857V20ZM11.4456 20H12.3777V16.6182H12.4054L13.7568 20H14.4151L15.763 16.6182H15.7942V20H16.7263V15H15.517L14.0963 18.5932H14.0755L12.6549 15H11.4456V20ZM20.7907 20H17.5579V15H18.6043V19.1372H20.7907V20Z" fill="black"/>
</svg>
