<svg width="24" height="24" viewBox="0 0 24 24" fill="none" xmlns="http://www.w3.org/2000/svg">
<path fill-rule="evenodd" clip-rule="evenodd" d="M6 2C4.89543 2 4 2.89543 4 4V20C4 21.1046 4.89543 22 6 22H18C19.1046 22 20 21.1046 20 20V6.58579L19.7071 6.29288L19.7071 6.29285L15.7071 2.29285L15.7071 2.29286L15.4142 2H6ZM14 7.99995V4H6V20H18V7.99995H14ZM7.5802 11L8.9802 18H11.054L12 15.1621L12.9459 18H15.0197L16.4197 11H14.3801L13.7579 14.1113L12.9487 11.6836H11.0513L10.2421 14.1113L9.61981 11H7.5802Z" fill="black"/>
</svg>
