<svg width="24" height="24" viewBox="0 0 24 24" fill="none" xmlns="http://www.w3.org/2000/svg">
<path fill-rule="evenodd" clip-rule="evenodd" d="M6 2C4.89543 2 4 2.89543 4 4V20C4 21.1046 4.89543 22 6 22H18C19.1046 22 20 21.1046 20 20V6.5L15.5 2H6ZM14 4H14.6716L18 7.32843V8H14V4ZM7.75 14.75C7.75 13.6454 8.64543 12.75 9.75 12.75C10.8546 12.75 11.75 13.6454 11.75 14.75V16.25C11.75 17.3546 10.8546 18.25 9.75 18.25C8.64543 18.25 7.75 17.3546 7.75 16.25V14.75ZM9.75 14.25C9.47386 14.25 9.25 14.4739 9.25 14.75V16.25C9.25 16.5261 9.47386 16.75 9.75 16.75C10.0261 16.75 10.25 16.5261 10.25 16.25V14.75C10.25 14.4739 10.0261 14.25 9.75 14.25ZM15.5 13H14L12.75 13.9375V15.5L14 14.5625L14 18H15.5L15.5 13Z" fill="black"/>
</svg>
