<svg width="24" height="24" viewBox="0 0 24 24" fill="none" xmlns="http://www.w3.org/2000/svg">
<path fill-rule="evenodd" clip-rule="evenodd" d="M6 2C4.89543 2 4 2.89543 4 4V20C4 21.1046 4.89543 22 6 22H7H17H18C18 22 18 22 18 22C19.1046 22 20 21.1046 20 20V4C20 2.89543 19.1046 2 18 2H6ZM18 19.8044V4L6 4V19.814C6 18.6176 6.71095 17.5355 7.80911 17.0605L9.46817 16.343L9.46816 16.1602L9.19986 15.8921C8.77039 15.4629 8.43577 14.9618 8.31669 14.3893C8.12177 13.4521 7.99348 12.1858 7.87823 10.9899C7.78121 9.98312 8.46408 9.19608 9.45937 8.68174C9.69239 8.56132 9.93897 8.33014 10.0113 7.85083L10.1469 6.95183L11.0547 7.00149C11.7466 7.03935 12.7567 7.15518 13.7716 7.49112C15.38 8.02356 16.2047 9.79348 16.0501 11.555C15.9619 12.5599 15.8521 13.588 15.6849 14.3902C15.5656 14.9625 15.2299 15.4627 14.8002 15.8921L14.532 16.1602L14.532 16.343L16.191 17.0605C17.2862 17.5342 17.9962 18.6118 18 19.8044ZM10.3776 10.4585C10.8993 10.1889 11.4025 9.73548 11.7144 9.07063C12.1626 9.13058 12.6589 9.22951 13.1431 9.3898C13.602 9.5417 14.159 10.2264 14.0578 11.3801C13.9696 12.3846 13.8677 13.3074 13.727 13.982L14.706 14.1861L13.727 13.982C13.714 14.0448 13.6508 14.2133 13.3864 14.4775L12.8251 15.0385L12.5319 15.3314L12.532 15.7459L12.532 17.0001L12.5321 17.657L13.135 17.9178L15.397 18.8962C15.763 19.0545 16 19.4152 16 19.814L16 20H8V19.814C8 19.4152 8.23698 19.0545 8.60304 18.8962L10.8652 17.9178L11.4682 17.657L11.4682 16.9999L11.4681 15.7458L11.4681 15.3314L11.175 15.0385L10.6136 14.4775C10.3524 14.2163 10.2883 14.0472 10.2748 13.982C10.1081 13.1805 9.98935 12.0449 9.87247 10.8339C9.87467 10.8305 9.87745 10.8264 9.88093 10.8216C9.92358 10.7625 10.0524 10.6266 10.3776 10.4585Z" fill="black"/>
</svg>
