<svg width="24" height="24" viewBox="0 0 24 24" fill="none" xmlns="http://www.w3.org/2000/svg">
<path fill-rule="evenodd" clip-rule="evenodd" d="M6 2C4.89543 2 4 2.89543 4 4V20C4 21.1046 4.89543 22 6 22H18C19.1046 22 20 21.1046 20 20V6.58579L19.7071 6.29288L19.7071 6.29285L15.7071 2.29285L15.7071 2.29286L15.4142 2H6ZM14 7.99995V4H6V20H18V7.99995H14ZM11 12C11 11.4477 11.4477 11 12 11C12.5523 11 13 11.4477 13 12V13H11V12ZM11 16V15H13V16H11ZM12 9C10.3431 9 9 10.3431 9 12V18H15V12C15 10.3431 13.6569 9 12 9Z" fill="black"/>
</svg>
