<svg width="24" height="24" viewBox="0 0 24 24" fill="none" xmlns="http://www.w3.org/2000/svg">
<path fill-rule="evenodd" clip-rule="evenodd" d="M2 6C2 4.89543 2.89543 4 4 4H17.4142L22 8.58579V18C22 19.1046 21.1046 20 20 20H13V18H20V10H16V6H4V13H2V6ZM3.04643 20H2V15H4.06514C5.1878 15 5.85308 15.596 5.85308 16.6008V16.6078C5.85308 17.2661 5.50312 17.8136 4.94872 18.0319L6.00208 20H4.81705L3.88496 18.1878H3.04643V20ZM3.04643 15.8177V17.3943H3.9508C4.47055 17.3943 4.7824 17.0998 4.7824 16.6078V16.6008C4.7824 16.1227 4.45322 15.8177 3.93694 15.8177H3.04643ZM8.76022 20H6.54608V15H8.72211C9.66459 15 10.2571 15.4851 10.2571 16.2543V16.2613C10.2571 16.8087 9.8413 17.2765 9.29037 17.3493V17.3701C9.98683 17.422 10.4893 17.9141 10.4893 18.569V18.5759C10.4893 19.4525 9.82744 20 8.76022 20ZM9.228 16.4033C9.228 16.0049 8.9404 15.7762 8.45184 15.7762H7.59252V17.0894H8.32363C8.91268 17.0894 9.228 16.8434 9.228 16.4103V16.4033ZM9.42204 18.5031C9.42204 18.0457 9.0894 17.7997 8.44837 17.7997H7.59252V19.2204H8.49342C9.09286 19.2204 9.42204 18.9744 9.42204 18.51V18.5031Z" fill="black"/>
</svg>
