<svg width="24" height="24" viewBox="0 0 24 24" fill="none" xmlns="http://www.w3.org/2000/svg">
<path fill-rule="evenodd" clip-rule="evenodd" d="M2 6C2 4.89543 2.89543 4 4 4H17.5L22 8.5V18C22 19.1046 21.1046 20 20 20H13V15C13 13.8954 12.1046 13 11 13H2V6ZM16.6716 6H16V10H20V9.32843L16.6716 6ZM2 20H3.04643V18.1878H3.88496L4.81705 20H6.00208L4.94872 18.0319C5.50312 17.8136 5.85308 17.2661 5.85308 16.6078V16.6008C5.85308 15.596 5.1878 15 4.06514 15H2V20ZM3.04643 17.3943V15.8177H3.93694C4.45322 15.8177 4.7824 16.1227 4.7824 16.6008V16.6078C4.7824 17.0998 4.47055 17.3943 3.9508 17.3943H3.04643ZM6.54608 20H8.76022C9.82744 20 10.4893 19.4525 10.4893 18.5759V18.569C10.4893 17.9141 9.98683 17.422 9.29037 17.3701V17.3493C9.8413 17.2765 10.2571 16.8087 10.2571 16.2613V16.2543C10.2571 15.4851 9.66459 15 8.72211 15H6.54608V20ZM8.45184 15.7762C8.9404 15.7762 9.228 16.0049 9.228 16.4033V16.4103C9.228 16.8434 8.91268 17.0894 8.32363 17.0894H7.59252V15.7762H8.45184ZM8.44837 17.7997C9.0894 17.7997 9.42204 18.0457 9.42204 18.5031V18.51C9.42204 18.9744 9.09286 19.2204 8.49342 19.2204H7.59252V17.7997H8.44837Z" fill="black"/>
</svg>
