<svg width="24" height="24" viewBox="0 0 24 24" fill="none" xmlns="http://www.w3.org/2000/svg">
<path fill-rule="evenodd" clip-rule="evenodd" d="M2 5.99976C2 4.89517 2.89545 3.99974 4.00003 3.99976L17.4142 3.99998L22 8.58577V18C22 19.1045 21.1046 20 20 20H12V18H20V9.99998H16V5.99996L4 5.99976V13H2V5.99976ZM9.84327 18.4829C9.84327 19.4106 9.11319 20 7.89417 20C6.74548 20 6.00536 19.4742 5.94843 18.5834L5.94508 18.5298H6.89953L6.90623 18.5666C6.96986 18.9417 7.36839 19.1761 7.92096 19.1761C8.48024 19.1761 8.83188 18.9317 8.83188 18.5633V18.5599C8.83188 18.2317 8.59411 18.0676 7.99464 17.9437L7.4856 17.8432C6.53115 17.6523 6.04889 17.1969 6.04889 16.4702V16.4668C6.04889 15.5827 6.81916 15 7.89082 15C9.00938 15 9.69591 15.5592 9.7428 16.4065L9.74615 16.4702H8.79169L8.78835 16.43C8.73811 16.0515 8.38982 15.8205 7.89082 15.8205C7.37173 15.8238 7.06028 16.0616 7.06028 16.4065V16.4099C7.06028 16.7146 7.3081 16.8921 7.86403 17.0026L8.37642 17.1065C9.38781 17.3074 9.84327 17.7193 9.84327 18.4795V18.4829ZM5.28533 18.3891C5.28533 19.4072 4.67917 20 3.63094 20C2.63295 20 2.02679 19.4072 2.00335 18.4996L2 18.4695H2.98125L2.98459 18.4896C3.00134 18.8647 3.22237 19.1259 3.6209 19.1259C4.04622 19.1259 4.27395 18.868 4.27395 18.3791V15.0837H5.28533V18.3891Z" fill="black"/>
</svg>
