<svg width="24" height="24" viewBox="0 0 24 24" fill="none" xmlns="http://www.w3.org/2000/svg">
<path fill-rule="evenodd" clip-rule="evenodd" d="M2 6C2 4.89543 2.89543 4 4 4H17.5L22 8.5V18C22 19.1046 21.1046 20 20 20H17V15C17 13.8954 16.1046 13 15 13H2V6ZM16.6716 6H16V10H20V9.32843L16.6716 6ZM3.04643 20H2V15H4.0097C5.06306 15 5.76646 15.6791 5.76646 16.7082V16.7152C5.76646 17.7443 5.06306 18.4234 4.0097 18.4234H3.04643V20ZM4.70617 16.7117C4.70617 16.1435 4.35274 15.8281 3.75329 15.8281H3.04643V17.6057H3.75329C4.35274 17.6057 4.70617 17.2869 4.70617 16.7186V16.7117ZM7.43313 20H6.38669V15H8.3964C9.44976 15 10.1532 15.6791 10.1532 16.7082V16.7152C10.1532 17.7443 9.44976 18.4234 8.3964 18.4234H7.43313V20ZM9.09286 16.7117C9.09286 16.1435 8.73943 15.8281 8.13999 15.8281H7.43313V17.6057H8.13999C8.73943 17.6057 9.09286 17.2869 9.09286 16.7186V16.7117ZM11.9688 20H13.0152V15.8628H14.4636V15H10.5239V15.8628H11.9688V20Z" fill="black"/>
</svg>
