<svg width="24" height="24" viewBox="0 0 24 24" fill="none" xmlns="http://www.w3.org/2000/svg">
<path fill-rule="evenodd" clip-rule="evenodd" d="M2 6C2 4.89543 2.89543 4 4 4H17.4142L22 8.58579V18C22 19.1046 21.1046 20 20 20H14V18H20V10H16V6H4V13H2V6ZM2.93209 20H2V15H3.20929L4.62994 18.5932H4.65073L6.07138 15H7.28067V20H6.34858V16.6182H6.31739L4.96951 20H4.31116L2.95981 16.6182H2.93209V20ZM10.0215 20H8.11227V15H10.0215C11.5184 15 12.4054 15.8905 12.4054 17.474V17.4809C12.4054 19.0679 11.5218 20 10.0215 20ZM9.1587 15.8628V19.1337H9.89674C10.8323 19.1337 11.3382 18.5655 11.3382 17.4844V17.4775C11.3382 16.4345 10.815 15.8628 9.89674 15.8628H9.1587Z" fill="black"/>
</svg>
