<svg width="24" height="24" viewBox="0 0 24 24" fill="none" xmlns="http://www.w3.org/2000/svg">
<path fill-rule="evenodd" clip-rule="evenodd" d="M2 6C2 4.89543 2.89543 4 4 4H17.5L22 8.5V18C22 19.1046 21.1046 20 20 20H18V15C18 13.8954 17.1046 13 16 13H2V6ZM16.6716 6H16V10H20V9.32843L16.6716 6ZM2.93209 20H2V15H3.20929L4.62994 18.5932H4.65073L6.07138 15H7.28067V20H6.34858V16.6182H6.31739L4.96951 20H4.31116L2.95981 16.6182H2.93209V20ZM11.4491 20H10.4546V19.0818H7.96674V18.2086L9.97297 15H11.4491V18.2467H12.1074V19.0818H11.4491V20ZM8.87803 18.2467V18.2744H10.4754V15.7554H10.4511L8.87803 18.2467ZM12.7277 20H13.7741V18.4234H14.7374C15.7907 18.4234 16.4941 17.7443 16.4941 16.7152V16.7082C16.4941 15.6791 15.7907 15 14.7374 15H12.7277V20ZM14.4809 15.8281C15.0804 15.8281 15.4338 16.1435 15.4338 16.7117V16.7186C15.4338 17.2869 15.0804 17.6057 14.4809 17.6057H13.7741V15.8281H14.4809Z" fill="black"/>
</svg>
