<svg width="24" height="24" viewBox="0 0 24 24" fill="none" xmlns="http://www.w3.org/2000/svg">
<path fill-rule="evenodd" clip-rule="evenodd" d="M6 2C4.89543 2 4 2.89543 4 4V20C4 21.1046 4.89543 22 6 22H18C19.1046 22 20 21.1046 20 20V6.58579L19.7071 6.29288L19.7071 6.29285L15.7071 2.29285L15.7071 2.29286L15.4142 2H6ZM14 7.99995V4H6V20H18V7.99995H14ZM10.2 14L8.3025 12.9044L9.2025 11.3456L11.1 12.4411V10.25H12.9V12.4411L14.7976 11.3456L15.6976 12.9044L13.8 14L15.6977 15.0956L14.7977 16.6544L12.9 15.5588V17.75H11.1V15.5588L9.20237 16.6544L8.30237 15.0956L10.2 14Z" fill="black"/>
</svg>
