<svg width="24" height="24" viewBox="0 0 24 24" fill="none" xmlns="http://www.w3.org/2000/svg">
<path fill-rule="evenodd" clip-rule="evenodd" d="M4 4C4 2.89543 4.89543 2 6 2H15.5L20 6.5V20C20 21.1046 19.1046 22 18 22H6C4.89543 22 4 21.1046 4 20V4ZM14.6716 4H14V8H18V7.32843L14.6716 4ZM14.5 12C14.9994 12.566 15 13 15 14C14.5304 13.5445 13 13 13 13V16.4756C13 17.304 12.1046 17.9756 11 17.9756C9.89543 17.9756 9 17.304 9 16.4756C9 15.6472 9.89543 14.9756 11 14.9756C11.1727 14.9756 11.3402 14.992 11.5 15.0228L11.5001 10C12.5 10.5 14.163 11.6181 14.5 12Z" fill="black"/>
</svg>
