<svg width="24" height="24" viewBox="0 0 24 24" fill="none" xmlns="http://www.w3.org/2000/svg">
<path fill-rule="evenodd" clip-rule="evenodd" d="M4 4C4 2.89543 4.89543 2 6 2H15.4142L15.7071 2.29286L15.7071 2.29285L19.7071 6.29285L19.7071 6.29288L20 6.58579V20C20 21.1046 19.1046 22 18 22H6C4.89543 22 4 21.1046 4 20V4ZM14 4V7.99995H18V20H6V4H14ZM11 12V13H13V12C13 11.4477 12.5523 11 12 11C11.4477 11 11 11.4477 11 12ZM15 12C15 10.3431 13.6569 9 12 9C10.3431 9 9 10.3431 9 12V14V15V18H15V15V14V12Z" fill="black"/>
</svg>
