<svg width="24" height="24" viewBox="0 0 24 24" fill="none" xmlns="http://www.w3.org/2000/svg">
<path fill-rule="evenodd" clip-rule="evenodd" d="M2 6C2 4.89543 2.89543 4 4 4H17.4142L22 8.58579V18C22 19.1046 21.1046 20 20 20H18V18H20V10H16V6H4V13H2V6ZM3.32363 20H4.34581L5.2675 16.6493H5.28829L6.20651 20H7.22869L8.55579 15H7.47124L6.67775 18.5828H6.65696L5.73527 15H4.81705L3.89536 18.5828H3.87457L3.08455 15H2L3.32363 20ZM8.33056 20H9.42897L9.80665 18.7872H11.5738L11.9515 20H13.0499L11.307 15H10.0769L8.33056 20ZM10.6798 15.9702H10.7006L11.3313 18.0042H10.0492L10.6798 15.9702ZM15.569 20H14.2938L12.6202 15H13.7775L14.921 18.9293H14.9418L16.0818 15H17.2426L15.569 20Z" fill="black"/>
</svg>
