<svg width="24" height="24" viewBox="0 0 24 24" fill="none" xmlns="http://www.w3.org/2000/svg">
<path fill-rule="evenodd" clip-rule="evenodd" d="M2 6C2 4.89543 2.89543 4 4 4H17.5L22 8.5V18C22 19.1046 21.1046 20 20 20H17V15C17 13.8954 16.1046 13 15 13H2V6ZM16.6716 6H16V10H20V9.32843L16.6716 6ZM4.49134 20H3.44491V15.8628H2V15H5.93971V15.8628H4.49134V20ZM7.38115 20H6.25156L7.842 17.4809V17.4705L6.26195 15H7.49203L8.55579 16.8018H8.5939L9.65073 15H10.8184L9.17949 17.4879V17.5017L10.7976 20H9.60568L8.50728 18.2467H8.47263L7.38115 20ZM12.5787 20H13.6251V15.8628H15.0735V15H11.1337V15.8628H12.5787V20Z" fill="black"/>
</svg>
