<svg width="24" height="24" viewBox="0 0 24 24" fill="none" xmlns="http://www.w3.org/2000/svg">
<path fill-rule="evenodd" clip-rule="evenodd" d="M12 3.99941C14.8179 3.99941 17.3863 5.0574 19.3331 6.7993L20.6669 5.30947C18.3676 3.25216 15.3289 2 12 2C8.6711 2 5.63237 3.25216 3.33309 5.30947L4.66691 6.7993C6.61368 5.0574 9.18206 3.99941 12 3.99941ZM19 14.9962C19 11.1313 15.866 7.99824 12 7.99824C8.13401 7.99824 5 11.1309 5 14.9957C5 15.5479 5.44771 15.9954 6 15.9954C6.55228 15.9954 7 15.5479 7 14.9957C7 12.2351 9.23858 9.99765 12 9.99765C14.7614 9.99765 17 12.2356 17 14.9962C17 17.6572 16.0535 20.0984 14.4804 22L12.9931 20.6601C14.2487 19.1131 15 17.1433 15 14.9962C15 13.3398 13.6569 11.9971 12 11.9971C10.3431 11.9971 9 13.3394 9 14.9957C9 16.6521 7.65685 17.9949 6 17.9949C4.34315 17.9949 3 16.6521 3 14.9957C3 10.0266 7.02944 5.99882 12 5.99882C16.9706 5.99882 21 10.0271 21 14.9962C21 16.4833 20.7832 17.9211 20.3787 19.2797L18.4618 18.7094C18.8117 17.5339 19 16.2881 19 14.9962ZM6 19.9943C8.76142 19.9943 11 17.7563 11 14.9957C11 14.4436 11.4477 13.996 12 13.996C12.5523 13.996 13 14.4436 13 14.9957C13 18.8606 9.86599 21.9937 6 21.9937C5.60362 21.9937 5.21421 21.9606 4.83454 21.897L5.16546 19.9251C5.43621 19.9705 5.71495 19.9943 6 19.9943Z" fill="black"/>
</svg>
