<svg width="24" height="24" viewBox="0 0 24 24" fill="none" xmlns="http://www.w3.org/2000/svg">
<path fill-rule="evenodd" clip-rule="evenodd" d="M5.00003 10.9923C5.0042 7.12983 8.1366 4 12 4C14.9362 4 17.4524 5.80802 18.4916 8.37521L20.3454 7.62479C19.0111 4.32832 15.7786 2 12 2C7.02946 2 3.00002 6.02944 3.00002 11C3.00002 12.6569 4.34319 14.0004 6.00005 14.0004C7.6569 14.0004 9.00005 12.6569 9.00005 11C9.00005 9.34315 10.3432 8 12 8C13.6569 8 15 9.34315 15 11C15 15.9706 10.9706 20.0004 6.00005 20.0004C5.13123 20.0004 4.29271 19.8775 3.50008 19.6489L3 21.586C3.95471 21.8561 4.96135 22.0004 6.00005 22.0004C12.0752 22.0004 17 17.0751 17 11C17 8.23858 14.7615 6 12 6C9.23862 6 7.00005 8.23858 7.00005 11C7.00005 11.5523 6.55233 12.0004 6.00005 12.0004C5.44964 12.0004 5.00307 11.5553 5.00004 11.0056L5.00005 11C5.00005 10.9974 5.00005 10.9948 5.00003 10.9923ZM6.00005 16.0004C8.76147 16.0004 11 13.7618 11 11.0004C11 10.4481 11.4478 10.0004 12 10.0004C12.5523 10.0004 13 10.4481 13 11.0004C13 14.8664 9.86604 18.0004 6.00005 18.0004C4.92794 18.0004 3.91016 17.7587 3.00008 17.3265L3.90306 15.541C4.53998 15.8357 5.24976 16.0004 6.00005 16.0004ZM14.8014 20.5679C17.3841 18.1909 19 14.7848 19 11.0004H21C21 15.3466 19.1505 19.2617 16.1986 22L14.8014 20.5679Z" fill="black"/>
</svg>
