<svg width="24" height="24" viewBox="0 0 24 24" fill="none" xmlns="http://www.w3.org/2000/svg">
<path fill-rule="evenodd" clip-rule="evenodd" d="M14 2C11.3156 2.8948 9.05365 4.25017 7.13043 6.3953C5.39335 8.33281 4 10.9354 4 14.0003C4 18.4186 7.58172 22.0003 12 22.0003C16.4183 22.0003 20 18.4186 20 14.0003C20 12.6467 19.7045 11.3754 19.278 10.1032C14.9767 9.51872 13.6734 6.02848 14 2ZM10 13.6965C10.3054 13.0966 10.6596 12.5269 11.0453 11.9512C11.7982 12.8369 12.6043 13.5963 13.4578 14.3777C14.3044 15.1527 15 15.9696 15 17.0001C15 18.657 13.6569 20.0001 12 20.0001C10.3431 20.0001 9 18.657 9 17.0001C9 15.9283 9.50034 14.678 10 13.6965Z" fill="black"/>
</svg>
