<svg width="24" height="24" viewBox="0 0 24 24" fill="none" xmlns="http://www.w3.org/2000/svg">
<path fill-rule="evenodd" clip-rule="evenodd" d="M13.8777 3.50791L14 2L12.5648 2.47841C10.8831 3.03896 8.83154 4.45633 7.10309 6.38422C5.366 8.32174 3.97266 10.9243 3.97266 13.9893C3.97266 18.3598 7.63521 22 12 22C12.1505 22 12.299 21.9917 12.4452 21.9755C16.6435 21.731 19.9727 18.2489 19.9727 13.9893C19.9727 12.6678 19.742 11.5578 19.4482 10.6815L19.2507 10.0922L18.6348 10.0085C15.2928 9.55432 13.6281 6.58708 13.8777 3.50791ZM15.9738 18.4605C17.2006 17.3618 17.9727 15.7657 17.9727 13.9893C17.9727 13.1765 17.8667 12.4702 17.7161 11.8765C14.0956 11.0935 12.1734 8.0499 11.8921 4.95588C10.7974 5.55006 9.65833 6.5302 8.59223 7.71931C7.07931 9.40679 5.97266 11.5542 5.97266 13.9893C5.97266 15.7951 6.77044 17.4146 8.03279 18.5146C8.01116 18.3461 8 18.1744 8 18C8 16.6771 8.5976 15.247 9.10884 14.2428C9.6465 13.1866 10.3196 12.2287 10.9975 11.2597C11.905 12.5483 12.9814 13.5857 14.1331 14.6401C14.9822 15.4174 16 16.4979 16 18C16 18.1557 15.9911 18.3094 15.9738 18.4605ZM12.2693 19.982C11.0942 20.0393 10 19.2739 10 18C10 16.8283 10.589 15.6727 11.1483 14.6677C11.7025 15.1968 12.2579 15.6349 12.7826 16.1152C13.6283 16.8894 14 17.4421 14 18C14 19.0133 13.2465 19.8505 12.2693 19.982Z" fill="black"/>
</svg>
