<svg width="24" height="24" viewBox="0 0 24 24" fill="none" xmlns="http://www.w3.org/2000/svg">
<path fill-rule="evenodd" clip-rule="evenodd" d="M4 2V22H6V15.2654C6.86603 15.7211 7.94208 16 9.14286 16C10.4394 16 11.6796 15.7266 12.7921 15.4813L12.8135 15.4765C13.591 15.3051 14.306 15.1485 15 15.0645V17H18C19.6569 17 21 15.6569 21 14V6C21 4.34315 19.6569 3 18 3C16.4078 3 14.7053 3.26444 13.1545 3.51256L12.9855 3.53961C11.4601 3.78392 10.1109 4 9 4C7.75795 4 7.02176 3.86263 6.59938 3.59384C6.29361 3.39926 6 3.03568 6 2H4ZM18 8C18.369 8 18.7016 7.97044 19 7.91378V14C19 14.5523 18.5523 15 18 15H17V8H18Z" fill="black"/>
</svg>
