<svg width="24" height="24" viewBox="0 0 24 24" fill="none" xmlns="http://www.w3.org/2000/svg">
<path fill-rule="evenodd" clip-rule="evenodd" d="M4 22V2H6C6 3.03568 6.29361 3.39926 6.59938 3.59384C7.02176 3.86263 7.75795 4 9 4C10.1518 4 11.5596 3.76774 13.1545 3.51256C14.7053 3.26444 16.4078 3 18 3C19.6569 3 21 4.34315 21 6V14C21 15.6569 19.6569 17 18 17H15V15.0645C13.0321 15.3028 11.1433 16 9.14286 16C7.94208 16 6.86603 15.7211 6 15.2654V22H4ZM6 12.7264C6.39945 13.288 7.45221 14 9.14286 14C11.1329 14 13.0313 13.2511 15 13.0527V7H18C18.5523 7 19 6.55228 19 6C19 5.44772 18.5523 5 18 5C16.5922 5 15.0447 5.23556 13.4705 5.48744C11.9404 5.73226 10.3482 6 9 6C7.94112 6 6.87809 5.9202 6 5.53339V12.7264ZM19 8.82929C18.6872 8.93985 18.3506 9 18 9H17V15H18C18.5523 15 19 14.5523 19 14V8.82929Z" fill="black"/>
</svg>
