<svg width="24" height="24" viewBox="0 0 24 24" fill="none" xmlns="http://www.w3.org/2000/svg">
<path d="M11.9948 5.00488C10.8278 5.00488 9.64777 6.18429 9.91677 7.33829C10.0298 7.82659 10.3098 8.48608 10.8278 9.37988C11.0798 9.81418 10.5298 10.1439 10.2808 9.70808C9.77877 8.82778 9.36977 8.22819 9.00477 7.88509C8.11477 7.04729 6.52578 7.49458 5.94278 8.50488C5.35978 9.51528 5.79377 11.1139 6.92677 11.4579C7.40677 11.6039 8.08078 11.6789 9.11477 11.6769C9.62577 11.6759 9.64177 12.2989 9.15077 12.2969C8.13777 12.2909 7.44278 12.3709 6.96378 12.5149C5.79278 12.8679 5.35978 14.4579 5.94278 15.4689C6.52578 16.4789 8.10378 16.9339 8.96878 16.1249C9.33478 15.7819 9.76677 15.1979 10.2808 14.3019C10.5298 13.8699 11.0768 14.2049 10.8278 14.6299C10.3168 15.5049 10.0318 16.1479 9.91677 16.6349C9.63678 17.8249 10.8278 19.0049 11.9948 19.0049C13.1618 19.0049 14.3048 17.8259 14.0368 16.6719C13.9228 16.1829 13.6438 15.5239 13.1248 14.6299C12.8548 14.1649 13.4448 13.8389 13.7088 14.3019C14.2108 15.1819 14.6198 15.7449 14.9848 16.0879C15.8748 16.9259 17.4638 16.5149 18.0468 15.5049C18.6298 14.4949 18.1958 12.8959 17.0628 12.5519C16.5828 12.4059 15.8718 12.3309 14.8388 12.3329C14.3178 12.3339 14.3278 11.6739 14.8388 11.6769C15.8518 11.6819 16.5828 11.6019 17.0628 11.4579C18.2338 11.1059 18.6298 9.51528 18.0468 8.50488C17.4638 7.49458 15.8858 7.07569 15.0208 7.88509C14.6548 8.22769 14.2228 8.77549 13.7088 9.67159C13.4448 10.1309 12.8628 9.82828 13.1248 9.37988C13.6358 8.50498 13.9218 7.86209 14.0368 7.37469C14.3168 6.18449 13.1618 5.00488 11.9948 5.00488Z" fill="black"/>
</svg>
