<svg width="24" height="24" viewBox="0 0 24 24" fill="none" xmlns="http://www.w3.org/2000/svg">
<path fill-rule="evenodd" clip-rule="evenodd" d="M12.1585 9.00412L13.8053 5.02854L13.4203 4.6166C12.6519 3.79447 11.3481 3.79447 10.5797 4.6166L10.1947 5.02854L11.8415 9.00412C11.894 9.00138 11.9468 9 12 9C12.0532 9 12.106 9.00138 12.1585 9.00412ZM14.2305 9.99372C14.1597 9.91512 14.0849 9.84028 14.0063 9.76953L15.653 5.79391L16.2166 5.77487C17.3412 5.73686 18.2631 6.65877 18.2251 7.78344L18.2061 8.34696L14.2305 9.99372ZM14.9959 12.1585C14.9986 12.106 15 12.0532 15 12C15 11.9468 14.9986 11.894 14.9959 11.8415L18.9715 10.1947L19.3834 10.5797C20.2055 11.3481 20.2055 12.6519 19.3834 13.4203L18.9715 13.8053L14.9959 12.1585ZM14.0063 14.2305C14.0849 14.1597 14.1597 14.0849 14.2305 14.0063L18.2061 15.653L18.2251 16.2166C18.2631 17.3412 17.3412 18.2631 16.2166 18.2251L15.653 18.2061L14.0063 14.2305ZM11.8415 14.9959C11.894 14.9986 11.9468 15 12 15C12.0532 15 12.106 14.9986 12.1585 14.9959L13.8053 18.9715L13.4203 19.3834C12.6519 20.2055 11.3481 20.2055 10.5797 19.3834L10.1947 18.9715L11.8415 14.9959ZM9.76953 14.0063C9.84028 14.0849 9.91512 14.1597 9.99372 14.2305L8.34696 18.2061L7.78344 18.2251C6.65877 18.2631 5.73686 17.3412 5.77487 16.2166L5.79391 15.653L9.76953 14.0063ZM9.00412 11.8415C9.00138 11.894 9 11.9468 9 12C9 12.0532 9.00138 12.106 9.00412 12.1585L5.02854 13.8053L4.61661 13.4203C3.79447 12.6519 3.79447 11.3481 4.6166 10.5797L5.02854 10.1947L9.00412 11.8415ZM9.76953 9.99372L5.79391 8.34696L5.77487 7.78344C5.73686 6.65877 6.65877 5.73686 7.78344 5.77487L8.34696 5.79391L9.99372 9.76953C9.91512 9.84028 9.84028 9.91512 9.76953 9.99372ZM3.25096 14.8814L3.80146 15.3959L3.77601 16.149C3.6989 18.4307 5.56926 20.3011 7.85099 20.224L8.60405 20.1985L9.11855 20.749C10.6775 22.417 13.3225 22.417 14.8814 20.749L15.3959 20.1985L16.149 20.224C18.4307 20.3011 20.3011 18.4307 20.224 16.149L20.1985 15.3959L20.749 14.8814C22.417 13.3225 22.417 10.6775 20.749 9.11855L20.1985 8.60405L20.224 7.85099C20.3011 5.56926 18.4307 3.6989 16.149 3.77601L15.3959 3.80146L14.8814 3.25096C13.3225 1.58301 10.6775 1.58301 9.11855 3.25096L8.60405 3.80146L7.85099 3.77601C5.56926 3.6989 3.6989 5.56926 3.77601 7.85099L3.80146 8.60405L3.25096 9.11855C1.58301 10.6775 1.58301 13.3225 3.25096 14.8814ZM11 12C11 11.4477 11.4477 11 12 11C12.5523 11 13 11.4477 13 12C13 12.5523 12.5523 13 12 13C11.4477 13 11 12.5523 11 12Z" fill="black"/>
</svg>
