<svg width="24" height="24" viewBox="0 0 24 24" fill="none" xmlns="http://www.w3.org/2000/svg">
<path fill-rule="evenodd" clip-rule="evenodd" d="M13.3165 7.71906L11.9996 10L10.6827 7.71906L10.8715 7.5066C11.4719 6.83113 12.5273 6.83113 13.1277 7.5066L13.3165 7.71906ZM8.95063 8.71906L10.2675 11H7.63373L7.54416 10.7302C7.25937 9.87257 7.78707 8.95857 8.67222 8.77637L8.95063 8.71906ZM7.54416 13.2698L7.63373 13H10.2675L8.95063 15.2809L8.67222 15.2236C7.78707 15.0414 7.25937 14.1274 7.54416 13.2698ZM11.9996 14L10.6827 16.2809L10.8715 16.4934C11.4719 17.1689 12.5273 17.1689 13.1277 16.4934L13.3165 16.2809L11.9996 14ZM14.6225 17.8221L15.0702 17.3184L15.7302 17.1826C17.7883 16.7589 19.0153 14.6337 18.3531 12.6395L18.1408 12L18.3531 11.3605C19.0153 9.36627 17.7883 7.24108 15.7302 6.81744L15.0702 6.68159L14.6225 6.17794C13.2266 4.60735 10.7726 4.60735 9.37665 6.17794L8.929 6.68159L8.269 6.81744C6.21086 7.24108 4.98388 9.36627 5.64606 11.3605L5.85841 12L5.64606 12.6395C4.98388 14.6337 6.21086 16.7589 8.269 17.1826L8.929 17.3184L9.37665 17.8221C10.7726 19.3926 13.2266 19.3926 14.6225 17.8221ZM16.455 10.7302L16.3654 11H13.7316L15.0485 8.71906L15.327 8.77637C16.2121 8.95857 16.7398 9.87257 16.455 10.7302ZM16.455 13.2698L16.3654 13H13.7316L15.0485 15.2809L15.327 15.2236C16.2121 15.0414 16.7398 14.1274 16.455 13.2698Z" fill="black"/>
</svg>
