<svg width="24" height="24" viewBox="0 0 24 24" fill="none" xmlns="http://www.w3.org/2000/svg">
<path fill-rule="evenodd" clip-rule="evenodd" d="M17 6.5C17 7.05125 16.9009 7.57935 16.7195 8.06745C16.973 8.02312 17.2338 8 17.5 8C19.9853 8 22 10.0147 22 12.5C22 14.9853 19.9853 17 17.5 17C16.9487 17 16.4207 16.9009 15.9326 16.7195C15.9769 16.973 16 17.2338 16 17.5C16 19.9853 13.9853 22 11.5 22C9.01472 22 7 19.9853 7 17.5C7 16.9487 7.09912 16.4207 7.28051 15.9326C7.027 15.9769 6.7662 16 6.5 16C4.01472 16 2 13.9853 2 11.5C2 9.01472 4.01472 7 6.5 7C7.05125 7 7.57935 7.09912 8.06745 7.28051C8.02312 7.02701 8 6.7662 8 6.5C8 4.01472 10.0147 2 12.5 2C14.9853 2 17 4.01472 17 6.5ZM13 7C13 6.44772 12.5523 6 12 6C11.4477 6 11 6.44772 11 7V9.61283C10.9475 9.95749 10.91 10.3557 10.6438 10.6091C10.3622 10.8772 9.93448 10.9319 9.56679 11H7C6.44772 11 6 11.4477 6 12C6 12.5523 6.44772 13 7 13H9.59406C9.94778 13.0585 10.3582 13.1029 10.6225 13.37C10.89 13.6404 10.9381 14.0571 11 14.4158V17C11 17.5523 11.4477 18 12 18C12.5523 18 13 17.5523 13 17V14.4049C13.0582 14.0517 13.1022 13.642 13.3692 13.3783C13.6403 13.1107 14.0577 13.0623 14.4169 13H17C17.5523 13 18 12.5523 18 12C18 11.4477 17.5523 11 17 11H14.4157C14.0571 10.9381 13.6404 10.89 13.37 10.6225C13.1029 10.3582 13.0585 9.94782 13 9.5941V7ZM12.0536 10C12.1354 10.4943 12.3198 10.9901 12.6667 11.3333C13.0072 11.6703 13.5068 11.8579 14 11.943V12.0574C13.5069 12.1428 13.0069 12.3308 12.6667 12.6667C12.3187 13.0102 12.1347 13.5056 12.0532 14H11.943C11.8579 13.5068 11.6702 13.0072 11.3333 12.6667C10.9901 12.3198 10.4943 12.1354 10 12.0536V11.9367C10.4917 11.8456 10.9983 11.6523 11.3333 11.3333C11.6988 10.9854 11.877 10.4964 11.9526 10H12.0536Z" fill="black"/>
</svg>
