<svg width="24" height="24" viewBox="0 0 24 24" fill="none" xmlns="http://www.w3.org/2000/svg">
<path fill-rule="evenodd" clip-rule="evenodd" d="M12 4C10.3431 4 9 5.34315 9 7C9 8.30622 9.83481 9.41746 11 9.82929V7C11 6.44772 11.4477 6 12 6C12.5523 6 13 6.44772 13 7V8.99951C13.5091 8.32197 14.1862 7.77796 14.9696 7.42944C14.9896 7.28957 15 7.14623 15 7C15 5.34315 13.6569 4 12 4ZM17 7C19.7614 7 22 9.23858 22 12C22 14.7614 19.7614 17 17 17C17 19.7614 14.7614 22 12 22C9.23858 22 7 19.7614 7 17C4.23858 17 2 14.7614 2 12C2 9.23858 4.23858 7 7 7C7 4.23858 9.23858 2 12 2C14.7614 2 17 4.23858 17 7ZM17 15C16.8538 15 16.7104 14.9896 16.5706 14.9696C16.222 14.1862 15.678 13.5091 15.0005 13H17C17.5523 13 18 12.5523 18 12C18 11.4477 17.5523 11 17 11H14.1707C14.5825 9.83481 15.6938 9 17 9C18.6569 9 20 10.3431 20 12C20 13.6569 18.6569 15 17 15ZM9.03038 16.5706C9.81376 16.222 10.4909 15.678 11 15.0005V17C11 17.5523 11.4477 18 12 18C12.5523 18 13 17.5523 13 17V14.1707C14.1652 14.5825 15 15.6938 15 17C15 18.6569 13.6569 20 12 20C10.3431 20 9 18.6569 9 17C9 16.8538 9.01039 16.7104 9.03038 16.5706ZM7.42944 9.03038C7.77796 9.81376 8.32197 10.4909 8.99951 11H7C6.44772 11 6 11.4477 6 12C6 12.5523 6.44772 13 7 13H9.82929C9.41746 14.1652 8.30622 15 7 15C5.34315 15 4 13.6569 4 12C4 10.3431 5.34315 9 7 9C7.14623 9 7.28957 9.01039 7.42944 9.03038ZM12.0536 10C12.1354 10.4943 12.3198 10.9901 12.6667 11.3333C13.0072 11.6703 13.5068 11.8579 14 11.943V12.0574C13.5069 12.1428 13.0069 12.3308 12.6667 12.6667C12.3187 13.0102 12.1347 13.5056 12.0532 14H11.943C11.8579 13.5068 11.6702 13.0072 11.3333 12.6667C10.9901 12.3198 10.4943 12.1354 10 12.0536V11.9367C10.4917 11.8456 10.9983 11.6523 11.3333 11.3333C11.6988 10.9854 11.877 10.4964 11.9526 10H12.0536Z" fill="black"/>
</svg>
