<svg width="24" height="24" viewBox="0 0 24 24" fill="none" xmlns="http://www.w3.org/2000/svg">
<path fill-rule="evenodd" clip-rule="evenodd" d="M3.25096 14.8814L3.80146 15.3959L3.77601 16.149C3.6989 18.4307 5.56926 20.3011 7.85099 20.224L8.60405 20.1985L9.11855 20.749C10.6775 22.417 13.3225 22.417 14.8814 20.749L15.3959 20.1985L16.149 20.224C18.4307 20.3011 20.3011 18.4307 20.224 16.149L20.1985 15.3959L20.749 14.8814C22.417 13.3225 22.417 10.6775 20.749 9.11855L20.1985 8.60405L20.224 7.85099C20.3011 5.56926 18.4307 3.6989 16.149 3.77601L15.3959 3.80146L14.8814 3.25096C13.3225 1.58301 10.6775 1.58301 9.11855 3.25096L8.60405 3.80146L7.85099 3.77601C5.56926 3.6989 3.6989 5.56926 3.77601 7.85099L3.80146 8.60405L3.25096 9.11855C1.58301 10.6775 1.58301 13.3225 3.25096 14.8814ZM10 12C10 10.8954 10.8954 10 12 10C13.1046 10 14 10.8954 14 12C14 13.1046 13.1046 14 12 14C10.8954 14 10 13.1046 10 12ZM12 8C9.79086 8 8 9.79086 8 12C8 14.2091 9.79086 16 12 16C14.2091 16 16 14.2091 16 12C16 9.79086 14.2091 8 12 8Z" fill="black"/>
</svg>
