<svg width="24" height="24" viewBox="0 0 24 24" fill="none" xmlns="http://www.w3.org/2000/svg">
<path fill-rule="evenodd" clip-rule="evenodd" d="M10.9142 4H2V17C2 18.6569 3.34315 20 5 20H17.3333C18.1407 20 18.8689 19.5145 19.1795 18.7692L22 12H19V6H12.9142L10.9142 4ZM17.3333 18H7.87547L10.0895 14H19L17.3333 18ZM17 8V12H8.91054L5.86406 17.504C5.83131 17.5599 5.79317 17.6126 5.75026 17.6612C5.56556 17.8704 5.29853 18 5 18C4.44772 18 4 17.5523 4 17V6H10.0858L12.0858 8H17ZM6 10H9V8H6V10Z" fill="black"/>
</svg>
