<svg width="24" height="24" viewBox="0 0 24 24" fill="none" xmlns="http://www.w3.org/2000/svg">
<path fill-rule="evenodd" clip-rule="evenodd" d="M12.5868 4.08938C12.9441 3.92725 13.3632 3.98906 13.6585 4.24744L21.6585 11.2474C21.8755 11.4373 22 11.7117 22 12C22 12.2884 21.8755 12.5627 21.6585 12.7526L13.6585 19.7526C13.3632 20.011 12.9441 20.0728 12.5868 19.9106C12.2295 19.7485 12 19.3924 12 19V16H2V8.00002H12V5.00002C12 4.60764 12.2295 4.25152 12.5868 4.08938ZM14 7.20378V10H4V14H14V16.7962L19.4814 12L14 7.20378Z" fill="black"/>
</svg>
