<svg width="24" height="24" viewBox="0 0 24 24" fill="none" xmlns="http://www.w3.org/2000/svg">
<path fill-rule="evenodd" clip-rule="evenodd" d="M5 5C5 3.34315 6.34315 2 8 2H14C15.6569 2 17 3.34315 17 5V13.9999H20V9.73227C19.4025 9.38639 19.0006 8.74008 19.0006 8L19.0001 6.82842C18.219 6.04738 18.219 4.78105 19.0001 4L22.0001 6.99999L22 10V13.9999C22 15.1045 21.1046 15.9999 20 15.9999H17V19H19V21H3V19H5V15V5ZM7 19H15V5C15 4.44772 14.5523 4 14 4H8C7.44772 4 7 4.44772 7 5V14L13 13.9999L13 15.9999L7 16V19ZM10.7789 11H9V7H10.7789C12.1735 7 13 7.7124 13 8.97921V8.98475C13 10.2543 12.1768 11 10.7789 11ZM9.97498 7.69023V10.307H10.6626C11.5343 10.307 12.0056 9.85239 12.0056 8.98753V8.98198C12.0056 8.14761 11.5182 7.69023 10.6626 7.69023H9.97498Z" fill="black"/>
</svg>
