<svg width="24" height="24" viewBox="0 0 24 24" fill="none" xmlns="http://www.w3.org/2000/svg">
<path fill-rule="evenodd" clip-rule="evenodd" d="M8 4C7.44772 4 7 4.44772 7 5V13.9999H13V15.9999H7V19H15V5C15 4.44772 14.5523 4 14 4H8ZM17 19H19V21H3V19H5V5C5 3.34315 6.34315 2 8 2H14C15.6569 2 17 3.34315 17 5V13.9999H20V9.73227C19.4025 9.38639 19.0006 8.74008 19.0006 8L19.0001 6.82842C18.219 6.04738 18.219 4.78105 19.0001 4L22.0001 6.99999L22 10V13.9999C22 15.1045 21.1046 15.9999 20 15.9999H17V19ZM11 12C12.1046 12 13 11.1046 13 10C13 8.89543 11 6 11 6C11 6 9 8.89543 9 10C9 11.1046 9.89543 12 11 12Z" fill="black"/>
</svg>
