<svg width="24" height="24" viewBox="0 0 24 24" fill="none" xmlns="http://www.w3.org/2000/svg">
<path fill-rule="evenodd" clip-rule="evenodd" d="M14 4H8C7.44772 4 7 4.44772 7 5V14H15V5C15 4.44772 14.5523 4 14 4ZM17 15.9999H20C21.1046 15.9999 22 15.1045 22 13.9999V10L22.0001 6.99999L19.0001 4C18.219 4.78105 18.219 6.04738 19.0001 6.82842L19.0006 8C19.0006 8.74008 19.4025 9.38639 20 9.73227V13.9999H17V5C17 3.34315 15.6569 2 14 2H8C6.34315 2 5 3.34315 5 5V19H3V21H19V19H17V15.9999ZM11 12C12.1046 12 13 11.1046 13 10C13 8.89543 11 6 11 6C11 6 9 8.89543 9 10C9 11.1046 9.89543 12 11 12Z" fill="black"/>
</svg>
