<svg width="24" height="24" viewBox="0 0 24 24" fill="none" xmlns="http://www.w3.org/2000/svg">
<path fill-rule="evenodd" clip-rule="evenodd" d="M6.19525 5.70906C6.07042 5.60366 6.02321 5.53319 6.00633 5.5C6.02321 5.46681 6.07042 5.39634 6.19525 5.29094C6.42458 5.0973 6.81573 4.87785 7.38659 4.67397C8.5196 4.26933 10.1506 4 12 4C13.8494 4 15.4804 4.26933 16.6134 4.67397C17.0332 4.82388 17.7683 5.05689 17.9937 5.5C17.7683 5.94311 17.0332 6.17611 16.6134 6.32603C15.4804 6.73067 13.8494 7 12 7C10.1506 7 8.5196 6.73067 7.38659 6.32603C6.81573 6.12215 6.42458 5.9027 6.19525 5.70906ZM10 13.5488V21.9999H11L14 18.9999V13.5488C16.727 12.8047 19.2166 10.3818 20 7.63997V5.5C20 4.74631 19.5695 4.16346 19.0951 3.76283C18.616 3.35829 17.982 3.03902 17.2861 2.79049C15.8856 2.29032 14.0166 2 12 2C9.98341 2 8.1144 2.29032 6.71392 2.79049C6.01803 3.03902 5.38405 3.35829 4.90494 3.76283C4.43048 4.16346 4 4.74631 4 5.5V7.63997C4.80535 10.4558 7.17422 12.7777 10 13.5488Z" fill="black"/>
</svg>
