<svg width="24" height="24" viewBox="0 0 24 24" fill="none" xmlns="http://www.w3.org/2000/svg">
<path fill-rule="evenodd" clip-rule="evenodd" d="M6.19525 5.29094C6.07042 5.39634 6.02321 5.46681 6.00633 5.5C6.02321 5.53319 6.07042 5.60366 6.19525 5.70906C6.42458 5.9027 6.81573 6.12215 7.38659 6.32603C8.5196 6.73067 10.1506 7 12 7C13.8494 7 15.4804 6.73067 16.6134 6.32603C17.1843 6.12215 17.5754 5.9027 17.8048 5.70906C17.9296 5.60366 17.9768 5.53319 17.9937 5.5C17.9768 5.46681 17.9296 5.39634 17.8048 5.29094C17.5754 5.0973 17.1843 4.87785 16.6134 4.67397C15.4804 4.26933 13.8494 4 12 4C10.1506 4 8.5196 4.26933 7.38659 4.67397C6.81573 4.87785 6.42458 5.0973 6.19525 5.29094ZM12 2C9.98341 2 8.1144 2.29032 6.71392 2.79049C6.01803 3.03902 5.38405 3.35829 4.90494 3.76283C4.43048 4.16346 4 4.74631 4 5.5V7.63997C4.24628 8.50197 4.66736 9.28356 5.18303 10.0141C5.93842 11.0842 7.14655 12.3218 9 13.1672V21.9999H11.4142L15 18.4141V13.1672C16.8535 12.3218 18.0616 11.0842 18.817 10.0141C19.3328 9.28334 19.7536 8.50221 20 7.63997V5.5C20 4.74631 19.5695 4.16346 19.0951 3.76283C18.616 3.35829 17.982 3.03902 17.2861 2.79049C15.8856 2.29032 14.0166 2 12 2ZM17.6744 8.06052C17.5476 8.11279 17.4179 8.16242 17.2861 8.20951C15.8856 8.70968 14.0166 9 12 9C9.98341 9 8.1144 8.70968 6.71392 8.20951C6.58206 8.16242 6.45243 8.11279 6.32565 8.06052C6.45106 8.29817 6.61281 8.57151 6.81697 8.86073C7.47678 9.79547 8.5765 10.8981 10.3511 11.5636L11 11.8069V19.5857L13 17.5857V11.8069L13.6489 11.5636C15.4235 10.8981 16.5232 9.79547 17.183 8.86073C17.3872 8.57151 17.5489 8.29817 17.6744 8.06052Z" fill="black"/>
</svg>
