<svg width="24" height="24" viewBox="0 0 24 24" fill="none" xmlns="http://www.w3.org/2000/svg">
<path fill-rule="evenodd" clip-rule="evenodd" d="M12.7865 2.40134C12.3987 1.86622 11.6013 1.86622 11.2135 2.40134L10.8607 2.88826C10.5627 3.29943 9.99832 3.4117 9.56569 3.14585L9.05336 2.83102C8.49032 2.48504 7.75363 2.79018 7.60014 3.43296L7.46048 4.01785C7.34255 4.51175 6.86409 4.83145 6.36265 4.7514L5.76884 4.6566C5.11625 4.55242 4.55242 5.11625 4.6566 5.76884L4.7514 6.36265C4.83145 6.86409 4.51175 7.34255 4.01785 7.46048L3.43296 7.60014C2.79018 7.75363 2.48504 8.49032 2.83102 9.05336L3.14585 9.56569C3.4117 9.99832 3.29943 10.5627 2.88826 10.8607L2.40134 11.2135C1.86622 11.6013 1.86622 12.3987 2.40134 12.7865L2.88826 13.1393C3.29943 13.4373 3.4117 14.0017 3.14585 14.4343L2.83102 14.9466C2.48504 15.5097 2.79018 16.2464 3.43296 16.3999L4.01785 16.5395C4.51175 16.6574 4.83145 17.1359 4.7514 17.6373L4.6566 18.2312C4.55242 18.8837 5.11626 19.4476 5.76884 19.3434L6.36265 19.2486C6.86409 19.1685 7.34255 19.4882 7.46048 19.9821L7.60014 20.567C7.75363 21.2098 8.49031 21.515 9.05336 21.169L9.56569 20.8542C9.99832 20.5883 10.5627 20.7006 10.8607 21.1117L11.2135 21.5987C11.6013 22.1338 12.3987 22.1338 12.7865 21.5987L13.1393 21.1117C13.4373 20.7006 14.0017 20.5883 14.4343 20.8542L14.9466 21.169C15.5097 21.515 16.2464 21.2098 16.3999 20.567L16.5395 19.9821C16.6574 19.4882 17.1359 19.1685 17.6373 19.2486L18.2312 19.3434C18.8837 19.4476 19.4476 18.8837 19.3434 18.2312L19.2486 17.6373C19.1685 17.1359 19.4882 16.6574 19.9821 16.5395L20.567 16.3999C21.2098 16.2464 21.515 15.5097 21.169 14.9466L20.8542 14.4343C20.5883 14.0017 20.7006 13.4373 21.1117 13.1393L21.5987 12.7865C22.1338 12.3987 22.1338 11.6013 21.5987 11.2135L21.1117 10.8607C20.7006 10.5627 20.5883 9.99832 20.8542 9.56569L21.169 9.05336C21.515 8.49031 21.2098 7.75363 20.567 7.60014L19.9821 7.46048C19.4882 7.34255 19.1685 6.86409 19.2486 6.36265L19.3434 5.76884C19.4476 5.11626 18.8837 4.55242 18.2312 4.6566L17.6373 4.7514C17.1359 4.83145 16.6574 4.51175 16.5395 4.01785L16.3999 3.43296C16.2464 2.79018 15.5097 2.48504 14.9466 2.83102L14.4343 3.14585C14.0017 3.4117 13.4373 3.29943 13.1393 2.88826L12.7865 2.40134ZM12 19C15.5263 19 18.4436 16.3925 18.929 13.0005H14.8291C14.4172 14.1654 13.306 15 12 15C11.8127 15 11.6294 14.9828 11.4516 14.95L9.40105 18.5017C10.2046 18.8232 11.0816 19 12 19ZM9.71978 13.9496C9.27103 13.4252 9 12.7443 9 12C9 11.2559 9.27092 10.575 9.71949 10.0507L7.66945 6.49996C6.04369 7.7818 5 9.76901 5 12C5 14.2311 6.04383 16.2185 7.66978 17.5003L9.71978 13.9496ZM11.4512 9.05009L9.40066 5.4985C10.2043 5.1769 11.0815 5 12 5C15.5266 5 18.4442 7.60795 18.9292 11.0005H14.8295C14.4178 9.83503 13.3064 9 12 9C11.8125 9 11.6291 9.01719 11.4512 9.05009ZM11 12C11 11.4477 11.4477 11 12 11C12.5523 11 13 11.4477 13 12C13 12.5523 12.5523 13 12 13C11.4477 13 11 12.5523 11 12Z" fill="black"/>
</svg>
