<svg width="24" height="24" viewBox="0 0 24 24" fill="none" xmlns="http://www.w3.org/2000/svg">
<path fill-rule="evenodd" clip-rule="evenodd" d="M10.2294 2.93142L9.84255 2.19824L9.05036 2.44247C7.59642 2.89071 6.28511 3.66089 5.19922 4.66861L4.59209 5.23203L5.0326 5.93346C5.41569 6.54344 5.45481 7.33628 5.07183 7.99964C4.68858 8.66344 3.98169 9.02603 3.26139 8.99871L2.43215 8.96725L2.24833 9.77647C2.08567 10.4925 2 11.2369 2 12.0001C2 12.7629 2.0856 13.507 2.24812 14.2227L2.43189 15.0321L3.26126 15.0006C3.98161 14.9732 4.68856 15.3358 5.07183 15.9996C5.45489 16.6631 5.41568 17.4561 5.03238 18.0662L4.59164 18.7676L5.19884 19.3312C6.28481 20.339 7.59626 21.1094 9.05036 21.5576L9.84255 21.8019L10.2294 21.0687C10.5658 20.4311 11.2334 20.0001 12 20.0001C12.7666 20.0001 13.4342 20.4311 13.7706 21.0687L14.1575 21.8019L14.9496 21.5576C16.4038 21.1093 17.7152 20.339 18.8012 19.3311L19.4084 18.7676L18.9677 18.0661C18.5844 17.4561 18.5452 16.6631 18.9282 15.9996C19.3115 15.3358 20.0184 14.9732 20.7388 15.0006L21.5681 15.0321L21.7519 14.2227C21.9144 13.507 22 12.7629 22 12.0001C22 11.2369 21.9143 10.4925 21.7517 9.77647L21.5679 8.96727L20.7386 8.99871C20.0183 9.02601 19.3115 8.66343 18.9282 7.99964C18.5452 7.33629 18.5844 6.54346 18.9674 5.93348L19.4079 5.23206L18.8008 4.66865C17.7149 3.66091 16.4036 2.89072 14.9496 2.44247L14.1574 2.19824L13.7706 2.93142C13.4342 3.56904 12.7666 4.00006 12 4.00006C11.2334 4.00006 10.5658 3.56904 10.2294 2.93142ZM12 16C14.2091 16 16 14.2091 16 12C16 9.79086 14.2091 8 12 8C9.79086 8 8 9.79086 8 12C8 14.2091 9.79086 16 12 16Z" fill="black"/>
</svg>
