<svg width="24" height="24" viewBox="0 0 24 24" fill="none" xmlns="http://www.w3.org/2000/svg">
<path fill-rule="evenodd" clip-rule="evenodd" d="M10.2294 2.93178L9.84255 2.19861L9.05036 2.44284C7.59642 2.89108 6.28511 3.66126 5.19922 4.66898L4.59209 5.2324L5.0326 5.93382C5.41569 6.54381 5.45481 7.33665 5.07183 8C4.68858 8.66381 3.98169 9.02639 3.26139 8.99907L2.43215 8.96762L2.24833 9.77683C2.08567 10.4929 2 11.2373 2 12.0004C2 12.7633 2.0856 13.5073 2.24812 14.2231L2.43189 15.0324L3.26126 15.0009C3.98161 14.9736 4.68856 15.3362 5.07183 16C5.45489 16.6635 5.41568 17.4565 5.03238 18.0665L4.59164 18.768L5.19884 19.3315C6.28481 20.3394 7.59626 21.1097 9.05036 21.558L9.84255 21.8022L10.2294 21.0691C10.5658 20.4314 11.2334 20.0004 12 20.0004C12.7666 20.0004 13.4342 20.4314 13.7706 21.0691L14.1575 21.8022L14.9496 21.558C16.4038 21.1097 17.7152 20.3394 18.8012 19.3315L19.4084 18.768L18.9677 18.0665C18.5844 17.4565 18.5452 16.6635 18.9282 16C19.3115 15.3362 20.0184 14.9736 20.7388 15.0009L21.5681 15.0324L21.7519 14.2231C21.9144 13.5073 22 12.7633 22 12.0004C22 11.2373 21.9143 10.4929 21.7517 9.77684L21.5679 8.96764L20.7386 8.99907C20.0183 9.02638 19.3115 8.66379 18.9282 8C18.5452 7.33666 18.5844 6.54383 18.9674 5.93385L19.4079 5.23243L18.8008 4.66902C17.7149 3.66128 16.4036 2.89108 14.9496 2.44284L14.1574 2.19861L13.7706 2.93178C13.4342 3.5694 12.7666 4.00042 12 4.00042C11.2334 4.00042 10.5658 3.5694 10.2294 2.93178ZM6.80388 9C7.41262 7.94562 7.4861 6.7301 7.11121 5.66744C7.67286 5.23315 8.29348 4.87217 8.95872 4.59851C9.69158 5.45554 10.7817 6.00042 12 6.00042C13.2183 6.00042 14.3084 5.45554 15.0413 4.59851C15.7065 4.87218 16.3272 5.23317 16.8888 5.66748C16.514 6.73013 16.5874 7.94563 17.1962 9C17.8051 10.0547 18.8214 10.7261 19.9295 10.9326C19.976 11.2816 20 11.638 20 12.0004C20 12.3626 19.976 12.7187 19.9296 13.0674C18.8215 13.2738 17.8051 13.9453 17.1962 15C16.5873 16.0546 16.5139 17.2704 16.8891 18.3332C16.3273 18.7676 15.7066 19.1286 15.0413 19.4023C14.3084 18.5453 13.2183 18.0004 12 18.0004C10.7817 18.0004 9.69158 18.5453 8.95872 19.4023C8.29339 19.1286 7.67269 18.7676 7.11097 18.3332C7.48613 17.2704 7.41275 16.0546 6.80388 15C6.19494 13.9453 5.17856 13.2738 4.07041 13.0674C4.024 12.7187 4 12.3626 4 12.0004C4 11.638 4.02404 11.2816 4.07053 10.9326C5.17863 10.7262 6.19496 10.0547 6.80388 9ZM10 12C10 10.8954 10.8954 10 12 10C13.1046 10 14 10.8954 14 12C14 13.1046 13.1046 14 12 14C10.8954 14 10 13.1046 10 12ZM12 8.00001C9.79086 8.00001 8 9.79088 8 12C8 14.2092 9.79086 16 12 16C14.2091 16 16 14.2092 16 12C16 9.79088 14.2091 8.00001 12 8.00001Z" fill="black"/>
</svg>
