<svg width="24" height="24" viewBox="0 0 24 24" fill="none" xmlns="http://www.w3.org/2000/svg">
<path fill-rule="evenodd" clip-rule="evenodd" d="M8 2H4H3V3V7H5V5.41421L6.58579 7L5.29289 8.29289L6.70711 9.70711L8 8.41421L8.55382 8.96803C8.20193 9.56355 8 10.2582 8 11C8 12.8638 9.27477 14.4299 11 14.874V18H9V20H11V22H13V20H15V18H13V14.874C14.7252 14.4299 16 12.8638 16 11C16 10.2582 15.7981 9.56355 15.4462 8.96803L19 5.41421V7H21V3V2H20H16V4H17.5858L14.032 7.55382C13.4365 7.20193 12.7418 7 12 7C11.2582 7 10.5635 7.20193 9.96803 7.55382L9.41421 7L10.7071 5.70711L9.29289 4.29289L8 5.58579L6.41421 4H8V2ZM10 11C10 9.89543 10.8954 9 12 9C13.1046 9 14 9.89543 14 11C14 12.1046 13.1046 13 12 13C10.8954 13 10 12.1046 10 11Z" fill="black"/>
</svg>
