<svg width="24" height="24" viewBox="0 0 24 24" fill="none" xmlns="http://www.w3.org/2000/svg">
<path fill-rule="evenodd" clip-rule="evenodd" d="M21.0001 3H15.0001V5H17.5859L10.7574 11.8284C9.96699 11.3049 9.0191 11 8 11C5.23858 11 3 13.2386 3 16C3 18.7614 5.23858 21 8 21C10.7614 21 13 18.7614 13 16C13 14.9809 12.6951 14.0331 12.1716 13.2427L19.0001 6.41421V9H21.0001V3ZM5 16C5 14.3431 6.34315 13 8 13C9.65685 13 11 14.3431 11 16C11 17.6569 9.65685 19 8 19C6.34315 19 5 17.6569 5 16Z" fill="black"/>
</svg>
