<svg width="24" height="24" viewBox="0 0 24 24" fill="none" xmlns="http://www.w3.org/2000/svg">
<path fill-rule="evenodd" clip-rule="evenodd" d="M15 2H19H20V3V7H18V5.41421L14.4462 8.96803C14.7981 9.56355 15 10.2582 15 11C15 12.8638 13.7252 14.4299 12 14.874V18H14V20H12V22H10V20H8V18H10V14.874C8.27477 14.4299 7 12.8638 7 11C7 8.79086 8.79086 7 11 7C11.7418 7 12.4365 7.20193 13.032 7.55382L16.5858 4H15V2ZM9 11C9 9.89543 9.89543 9 11 9C12.1046 9 13 9.89543 13 11C13 12.1046 12.1046 13 11 13C9.89543 13 9 12.1046 9 11Z" fill="black"/>
</svg>
