<svg width="24" height="24" viewBox="0 0 24 24" fill="none" xmlns="http://www.w3.org/2000/svg">
<path fill-rule="evenodd" clip-rule="evenodd" d="M6 10C6 6.68629 8.68629 4 12 4C15.3137 4 18 6.68629 18 10C18 12.1148 16.9669 13.6258 15.5026 15.2731C15.2456 15.5622 14.972 15.858 14.6898 16.163C13.7943 17.131 12.8121 18.2866 12 19.5262C11.188 18.2866 10.2057 17.131 9.31023 16.1631C9.028 15.858 8.75437 15.5622 8.49741 15.2731C7.03313 13.6258 6 12.1148 6 10ZM12 2C7.58172 2 4 5.58172 4 10C4 12.8852 5.46687 14.8742 7.00259 16.6019C7.31212 16.9501 7.62147 17.2858 7.92574 17.6161C9.17988 18.9772 10.3478 20.3386 11.0862 22H12H12.9138C13.6522 20.3386 14.82 18.9773 16.0742 17.6161C16.3785 17.2859 16.6879 16.9501 16.9974 16.6019C18.5331 14.8742 20 12.8852 20 10C20 5.58172 16.4183 2 12 2ZM11 10C11 9.44772 11.4477 9 12 9C12.5523 9 13 9.44772 13 10C13 10.5523 12.5523 11 12 11C11.4477 11 11 10.5523 11 10ZM12 7C10.3431 7 9 8.34315 9 10C9 11.6569 10.3431 13 12 13C13.6569 13 15 11.6569 15 10C15 8.34315 13.6569 7 12 7Z" fill="black"/>
</svg>
