<svg width="24" height="24" viewBox="0 0 24 24" fill="none" xmlns="http://www.w3.org/2000/svg">
<path fill-rule="evenodd" clip-rule="evenodd" d="M12 2C7.58172 2 4 5.58172 4 10C4 12.8852 5.46687 14.8742 7.00259 16.6019C7.31212 16.9501 7.62147 17.2858 7.92574 17.6161L7.92581 17.6161C9.17996 18.9773 10.2616 20.3386 11 22H13C13.7384 20.3386 14.82 18.9773 16.0742 17.6161L16.0742 17.6161C16.3785 17.2859 16.6879 16.9501 16.9974 16.6019C18.5331 14.8742 20 12.8852 20 10C20 5.58172 16.4183 2 12 2ZM12 13C13.6569 13 15 11.6569 15 10C15 8.34315 13.6569 7 12 7C10.3431 7 9 8.34315 9 10C9 11.6569 10.3431 13 12 13Z" fill="black"/>
</svg>
