<svg width="24" height="24" viewBox="0 0 24 24" fill="none" xmlns="http://www.w3.org/2000/svg">
<path fill-rule="evenodd" clip-rule="evenodd" d="M13 11.9C15.2822 11.4367 17 9.41896 17 7C17 4.23858 14.7614 2 12 2C9.23858 2 7 4.23858 7 7C7 9.41896 8.71776 11.4367 11 11.9V14.0383C9.60496 14.146 8.32391 14.4774 7.31015 14.9843C6.11805 15.5803 5 16.5887 5 18C5 19.4113 6.11805 20.4197 7.31015 21.0157C8.56205 21.6417 10.2216 22 12 22C13.7784 22 15.4379 21.6417 16.6899 21.0157C17.8819 20.4197 19 19.4113 19 18C19 16.5887 17.8819 15.5803 16.6899 14.9843C15.6761 14.4774 14.395 14.146 13 14.0383V11.9ZM13 7C13 7.55228 12.5523 8 12 8C11.4477 8 11 7.55228 11 7C11 6.44772 11.4477 6 12 6C12.5523 6 13 6.44772 13 7ZM11 18V16.0453C9.88521 16.1477 8.9182 16.4163 8.20457 16.7731C7.22509 17.2628 7 17.7544 7 18C7 18.2456 7.22509 18.7372 8.20457 19.2269C9.12424 19.6867 10.4647 20 12 20C13.5353 20 14.8758 19.6867 15.7954 19.2269C16.7749 18.7372 17 18.2456 17 18C17 17.7544 16.7749 17.2628 15.7954 16.7731C15.0818 16.4163 14.1148 16.1477 13 16.0453V18H11Z" fill="black"/>
</svg>
