<svg width="24" height="24" viewBox="0 0 24 24" fill="none" xmlns="http://www.w3.org/2000/svg">
<path fill-rule="evenodd" clip-rule="evenodd" d="M12 4C10.3431 4 9 5.34315 9 7C9 8.65685 10.3431 10 12 10C13.6569 10 15 8.65685 15 7C15 5.34315 13.6569 4 12 4ZM7 7C7 4.23858 9.23858 2 12 2C14.7614 2 17 4.23858 17 7C17 9.41896 15.2822 11.4367 13 11.9V14.0383C14.395 14.146 15.6761 14.4774 16.6899 14.9843C17.8819 15.5803 19 16.5887 19 18C19 19.4113 17.8819 20.4197 16.6899 21.0157C15.4379 21.6417 13.7784 22 12 22C10.2216 22 8.56205 21.6417 7.31015 21.0157C6.11805 20.4197 5 19.4113 5 18C5 16.5887 6.11805 15.5803 7.31015 14.9843C8.32391 14.4774 9.60496 14.146 11 14.0383V11.9C8.71776 11.4367 7 9.41896 7 7ZM11 16.0453V18H13V16.0453C14.1148 16.1477 15.0818 16.4163 15.7954 16.7731C16.7749 17.2628 17 17.7544 17 18C17 18.2456 16.7749 18.7372 15.7954 19.2269C14.8758 19.6867 13.5353 20 12 20C10.4647 20 9.12424 19.6867 8.20457 19.2269C7.22509 18.7372 7 18.2456 7 18C7 17.7544 7.22509 17.2628 8.20457 16.7731C8.9182 16.4163 9.88521 16.1477 11 16.0453ZM12 8C12.5523 8 13 7.55228 13 7C13 6.44772 12.5523 6 12 6C11.4477 6 11 6.44772 11 7C11 7.55228 11.4477 8 12 8Z" fill="black"/>
</svg>
