<svg width="24" height="24" viewBox="0 0 24 24" fill="none" xmlns="http://www.w3.org/2000/svg">
<path fill-rule="evenodd" clip-rule="evenodd" d="M8.5 4C7.80026 4 7.16916 4.28617 6.71424 4.75041L5.28576 3.35061C6.10136 2.5183 7.24105 2 8.5 2C9.91363 2 11.175 2.65183 12 3.67133C12.825 2.65183 14.0864 2 15.5 2C16.7589 2 17.8986 2.5183 18.7142 3.35061L17.2858 4.75041C16.8308 4.28617 16.1997 4 15.5 4C14.2905 4 13.2816 4.85888 13.05 6H21H22V7V11V12H21V18C21 19.6569 19.6569 21 18 21H6C4.34315 21 3 19.6569 3 18V12H2V11V7V6H3H10.95C10.7184 4.85888 9.70948 4 8.5 4ZM5 12V18C5 18.5523 5.44772 19 6 19H11V12H5ZM13 12V19H18C18.5523 19 19 18.5523 19 18V12H13ZM4 10V8H20V10H4Z" fill="black"/>
</svg>
