<svg width="24" height="24" viewBox="0 0 24 24" fill="none" xmlns="http://www.w3.org/2000/svg">
<path fill-rule="evenodd" clip-rule="evenodd" d="M6.71424 4.75041C7.16916 4.28617 7.80026 4 8.5 4C9.70948 4 10.7184 4.85888 10.95 6H2V10H22V6H13.05C13.2816 4.85888 14.2905 4 15.5 4C16.1997 4 16.8308 4.28617 17.2858 4.75041L18.7142 3.35061C17.8986 2.5183 16.7589 2 15.5 2C14.0864 2 12.825 2.65183 12 3.67133C11.175 2.65183 9.91363 2 8.5 2C7.24105 2 6.10136 2.5183 5.28576 3.35061L6.71424 4.75041ZM13 12H21V18C21 19.6569 19.6569 21 18 21H13V12ZM11 12V21H6C4.34315 21 3 19.6569 3 18V12H11Z" fill="black"/>
</svg>
