<svg width="24" height="24" viewBox="0 0 24 24" fill="none" xmlns="http://www.w3.org/2000/svg">
<path fill-rule="evenodd" clip-rule="evenodd" d="M5 15.876C6.36473 18.3354 8.98797 20 12 20C16.4183 20 20 16.4183 20 12C20 8.64262 17.9318 5.76829 15 4.58152V6H14V8V10H12V11H11V13H10V9L9 8L8 10H7L6 8L5 9V11L4 12C4 12.6906 4.08751 13.3608 4.25203 14H5V15.876ZM11 13H12V11H14V13H13V14H11V13ZM15 6V8H16V6H15ZM12 2C6.47715 2 2 6.47715 2 12C2 17.5228 6.47715 22 12 22C17.5228 22 22 17.5228 22 12C22 6.47715 17.5228 2 12 2ZM12 16V18H13L14 17L15 18H16L17 17V16V15V14H16H15H14L13 15L12 16ZM18 12H16V13H18V12Z" fill="black"/>
</svg>
