<svg width="24" height="24" viewBox="0 0 24 24" fill="none" xmlns="http://www.w3.org/2000/svg">
<path fill-rule="evenodd" clip-rule="evenodd" d="M7 5.75463C5.17108 7.22075 4 9.47362 4 12C4 16.4183 7.58172 20 12 20C12.3387 20 12.6724 19.979 13 19.9381V16L11 14V11H10V10H9L7 8V5.75463ZM14 19.748C17.4505 18.8599 20 15.7277 20 12L19 11V8.12399C18.2724 6.81283 17.1872 5.72757 15.876 5H15L14 6H13L12 7V8H11V7H10L9 8L10 9H11V10H13L14 11H15L16 12H17V15L16 16V17L14 19V19.748ZM12 8V9H13V8H12ZM12 2C6.47715 2 2 6.47715 2 12C2 17.5228 6.47715 22 12 22C17.5228 22 22 17.5228 22 12C22 6.47715 17.5228 2 12 2Z" fill="black"/>
</svg>
