<svg width="24" height="24" viewBox="0 0 24 24" fill="none" xmlns="http://www.w3.org/2000/svg">
<path fill-rule="evenodd" clip-rule="evenodd" d="M4 12C4 7.58172 7.58172 4 12 4C12.3197 4 12.6349 4.01875 12.9448 4.0552L12 5H10V6V7H9V8H10L11 7H14V8H15L17 11H18V10H19V11L20 12C20 16.4183 16.4183 20 12 20C9.51401 20 7.29286 18.8661 5.82556 17.0872L6 17V14H5L4.07108 13.0711C4.0242 12.7207 4 12.3632 4 12ZM12 2C6.47715 2 2 6.47715 2 12C2 17.5228 6.47715 22 12 22C17.5228 22 22 17.5228 22 12C22 6.47715 17.5228 2 12 2ZM8 10.0001V12.0001L9 13.0001H11H12V16.0001V17.0001L13 18.0001V19.0001H14L15 18.0001V17.0001L16 16.0001V14.0001L17 13.0001V12.0001L15 9.0001H14H13L12 8.0001H10L8 10.0001Z" fill="black"/>
</svg>
