<svg width="24" height="24" viewBox="0 0 24 24" fill="none" xmlns="http://www.w3.org/2000/svg">
<path fill-rule="evenodd" clip-rule="evenodd" d="M9 4.58152C7.72027 5.09954 6.60508 5.93909 5.75463 7H8L9 6V4.58152ZM4.58152 15C5.76829 17.9318 8.64262 20 12 20C15.8003 20 18.9817 17.3501 19.7973 13.7973L17 11L14 14V15L13 16L12 15V14L10 12V10H9L8 9H6L8 11V12L7 13V14L6 15H4.58152ZM12 2C6.47715 2 2 6.47715 2 12C2 17.5228 6.47715 22 12 22C17.5228 22 22 17.5228 22 12C22 6.47715 17.5228 2 12 2Z" fill="black"/>
</svg>
