<svg width="24" height="24" viewBox="0 0 24 24" fill="none" xmlns="http://www.w3.org/2000/svg">
<path fill-rule="evenodd" clip-rule="evenodd" d="M14.7548 4.48695C14.8687 4.7517 14.9736 5.03058 15.07 5.31981C15.5782 6.84448 15.9051 8.8263 15.9823 11H19.9381C19.5628 7.9901 17.5154 5.49947 14.7548 4.48695ZM19.9381 13H15.9823C15.9051 15.1737 15.5782 17.1555 15.07 18.6802C14.9736 18.9694 14.8687 19.2483 14.7548 19.5131C17.5154 18.5005 19.5628 16.0099 19.9381 13ZM9.24521 19.5131C9.13134 19.2483 9.02641 18.9694 8.93 18.6802C8.42177 17.1555 8.09487 15.1737 8.01766 13H4.06189C4.43722 16.0099 6.48461 18.5005 9.24521 19.5131ZM4.06189 11H8.01766C8.09487 8.8263 8.42177 6.84448 8.93 5.31981C9.02641 5.03058 9.13134 4.7517 9.24521 4.48695C6.48461 5.49947 4.43722 7.9901 4.06189 11ZM12 22C17.5228 22 22 17.5228 22 12C22 6.47715 17.5228 2 12 2C6.47715 2 2 6.47715 2 12C2 17.5228 6.47715 22 12 22ZM10.8582 5.85768C10.3205 7.5193 10.0857 9.25828 10.019 11H13.981C13.9143 9.2583 13.6795 7.51934 13.1418 5.85773C12.9858 5.3757 12.5401 3.9983 12.0001 4C11.4599 3.9983 11.0142 5.37553 10.8582 5.85768ZM13.1415 18.1432C13.6792 16.4812 13.9143 14.7421 13.981 13H10.019C10.0857 14.7418 10.3206 16.4808 10.8583 18.1426C11.0144 18.6251 11.4597 20.0012 11.9999 20C12.5408 20 12.985 18.6269 13.1415 18.1432Z" fill="black"/>
</svg>
