<svg width="24" height="24" viewBox="0 0 24 24" fill="none" xmlns="http://www.w3.org/2000/svg">
<path fill-rule="evenodd" clip-rule="evenodd" d="M11.5993 4.00986C11.732 4.00331 11.8656 4 12 4C12.1344 4 12.268 4.00331 12.4007 4.00986C12.1721 4.05592 12 4.25786 12 4.5C12 4.25786 11.8279 4.05592 11.5993 4.00986ZM11.3373 4.02705C11.1524 4.04222 10.9692 4.06368 10.788 4.09122C10.9162 4.18174 11 4.33109 11 4.5C11 4.77614 10.7761 5 10.5 5C10.2239 5 10 4.77614 10 4.5C10 4.40161 10.0284 4.30986 10.0775 4.2325C10.0324 4.24364 9.98737 4.25516 9.94253 4.26705C9.97923 4.33662 10 4.41588 10 4.5C10 4.77614 9.77614 5 9.5 5C9.25074 5 9.04408 4.81761 9.00621 4.57901C9.00177 4.5808 8.99734 4.58259 8.99291 4.58439C8.9528 4.82035 8.74738 5 8.5 5C8.40835 5 8.32246 4.97534 8.2486 4.9323C8.11686 5.00237 7.98731 5.07601 7.86009 5.1531C7.94672 5.24301 8 5.36528 8 5.5C8 5.77614 7.77614 6 7.5 6C7.30114 6 7.12939 5.8839 7.04883 5.71579C5.19195 7.1808 4 9.4512 4 12C4 16.4183 7.58172 20 12 20C12.412 20 12.8168 19.9689 13.212 19.9088C13.0838 19.8183 13 19.6689 13 19.5C13 19.2239 13.2239 19 13.5 19C13.7761 19 14 19.2239 14 19.5C14 19.5984 13.9716 19.6901 13.9225 19.7675C17.4122 18.9067 20 15.7555 20 12C20 8.64025 17.9289 5.76424 14.9938 4.57901C14.9559 4.81761 14.7493 5 14.5 5C14.2239 5 14 4.77614 14 4.5C14 4.41588 14.0208 4.33662 14.0575 4.26705C14.0126 4.25516 13.9676 4.24364 13.9225 4.2325C13.9716 4.30986 14 4.40161 14 4.5C14 4.77614 13.7761 5 13.5 5C13.2239 5 13 4.77614 13 4.5C13 4.33109 13.0838 4.18174 13.212 4.09122C13.0308 4.06368 12.8476 4.04222 12.6627 4.02705C12.8589 4.09455 13 4.2808 13 4.5C13 4.77614 12.7761 5 12.5 5C12.2239 5 12 4.77614 12 4.5C12 4.77614 11.7761 5 11.5 5C11.2239 5 11 4.77614 11 4.5C11 4.2808 11.1411 4.09455 11.3373 4.02705ZM12 5.5C12 5.22386 12.2239 5 12.5 5C12.7761 5 13 5.22386 13 5.5C13 5.77614 12.7761 6 12.5 6C12.2239 6 12 5.77614 12 5.5ZM11.5 6C11.7761 6 12 5.77614 12 5.5C12 5.22386 11.7761 5 11.5 5C11.2239 5 11 5.22386 11 5.5C11 5.22386 10.7761 5 10.5 5C10.2239 5 10 5.22386 10 5.5C10 5.22386 9.77614 5 9.5 5C9.22386 5 9 5.22386 9 5.5C9 5.22386 8.77614 5 8.5 5C8.22386 5 8 5.22386 8 5.5C8 5.77614 8.22386 6 8.5 6C8.22386 6 8 6.22386 8 6.5C8 6.22386 7.77614 6 7.5 6C7.22386 6 7 6.22386 7 6.5C7 6.77614 7.22386 7 7.5 7C7.22386 7 7 7.22386 7 7.5C7 7.77614 7.22386 8 7.5 8C7.77614 8 8 7.77614 8 7.5C8 7.77614 8.22386 8 8.5 8C8.22386 8 8 8.22386 8 8.5C8 8.77614 8.22386 9 8.5 9C8.22386 9 8 9.22386 8 9.5C8 9.77614 8.22386 10 8.5 10C8.77614 10 9 9.77614 9 9.5C9 9.77614 9.22386 10 9.5 10C9.77614 10 10 9.77614 10 9.5C10 9.77614 10.2239 10 10.5 10C10.2239 10 10 10.2239 10 10.5C10 10.7761 10.2239 11 10.5 11C10.7761 11 11 10.7761 11 10.5C11 10.2239 10.7761 10 10.5 10C10.7761 10 11 9.77614 11 9.5C11 9.22386 10.7761 9 10.5 9C10.2239 9 10 9.22386 10 9.5C10 9.22386 9.77614 9 9.5 9C9.22386 9 9 9.22386 9 9.5C9 9.22386 8.77614 9 8.5 9C8.77614 9 9 8.77614 9 8.5C9 8.22386 8.77614 8 8.5 8C8.77614 8 9 7.77614 9 7.5C9 7.77614 9.22386 8 9.5 8C9.77614 8 10 7.77614 10 7.5C10 7.77614 10.2239 8 10.5 8C10.7761 8 11 7.77614 11 7.5C11 7.22386 10.7761 7 10.5 7C10.7761 7 11 6.77614 11 6.5C11 6.77614 11.2239 7 11.5 7C11.7761 7 12 6.77614 12 6.5C12 6.22386 11.7761 6 11.5 6ZM10.5 6C10.7761 6 11 5.77614 11 5.5C11 5.77614 11.2239 6 11.5 6C11.2239 6 11 6.22386 11 6.5C11 6.22386 10.7761 6 10.5 6ZM10 6.5C10 6.77614 10.2239 7 10.5 7C10.2239 7 10 7.22386 10 7.5C10 7.22386 9.77614 7 9.5 7C9.77614 7 10 6.77614 10 6.5ZM9.5 6C9.77614 6 10 6.22386 10 6.5C10 6.22386 10.2239 6 10.5 6C10.2239 6 10 5.77614 10 5.5C10 5.77614 9.77614 6 9.5 6ZM9 6.5C9 6.22386 8.77614 6 8.5 6C8.77614 6 9 5.77614 9 5.5C9 5.77614 9.22386 6 9.5 6C9.22386 6 9 6.22386 9 6.5ZM8.5 7C8.22386 7 8 7.22386 8 7.5C8 7.22386 7.77614 7 7.5 7C7.77614 7 8 6.77614 8 6.5C8 6.77614 8.22386 7 8.5 7ZM8.5 7C8.77614 7 9 6.77614 9 6.5C9 6.77614 9.22386 7 9.5 7C9.22386 7 9 7.22386 9 7.5C9 7.22386 8.77614 7 8.5 7ZM13 5.5C13 5.22386 13.2239 5 13.5 5C13.7761 5 14 5.22386 14 5.5C14 5.77614 13.7761 6 13.5 6C13.2239 6 13 5.77614 13 5.5ZM13.5 18C13.7761 18 14 18.2239 14 18.5C14 18.7761 13.7761 19 13.5 19C13.2239 19 13 18.7761 13 18.5C13 18.2239 13.2239 18 13.5 18ZM13.5 17C13.2239 17 13 17.2239 13 17.5C13 17.7761 13.2239 18 13.5 18C13.7761 18 14 17.7761 14 17.5C14 17.7761 14.2239 18 14.5 18C14.7761 18 15 17.7761 15 17.5C15 17.2239 14.7761 17 14.5 17C14.7761 17 15 16.7761 15 16.5C15 16.7761 15.2239 17 15.5 17C15.7761 17 16 16.7761 16 16.5C16 16.2239 15.7761 16 15.5 16C15.7761 16 16 15.7761 16 15.5C16 15.7761 16.2239 16 16.5 16C16.7761 16 17 15.7761 17 15.5C17 15.2239 16.7761 15 16.5 15C16.7761 15 17 14.7761 17 14.5C17 14.2239 16.7761 14 16.5 14C16.7761 14 17 13.7761 17 13.5C17 13.2239 16.7761 13 16.5 13C16.2239 13 16 13.2239 16 13.5C16 13.2239 15.7761 13 15.5 13C15.7761 13 16 12.7761 16 12.5C16 12.2239 15.7761 12 15.5 12C15.2239 12 15 12.2239 15 12.5C15 12.2239 14.7761 12 14.5 12C14.7761 12 15 11.7761 15 11.5C15 11.2239 14.7761 11 14.5 11C14.2239 11 14 11.2239 14 11.5C14 11.2239 13.7761 11 13.5 11C13.7761 11 14 10.7761 14 10.5C14 10.2239 13.7761 10 13.5 10C13.2239 10 13 10.2239 13 10.5C13 10.2239 12.7761 10 12.5 10C12.2239 10 12 10.2239 12 10.5C12 10.7761 12.2239 11 12.5 11C12.2239 11 12 11.2239 12 11.5C12 11.2239 11.7761 11 11.5 11C11.2239 11 11 11.2239 11 11.5C11 11.7761 11.2239 12 11.5 12C11.2239 12 11 12.2239 11 12.5C11 12.7761 11.2239 13 11.5 13C11.2239 13 11 13.2239 11 13.5C11 13.7761 11.2239 14 11.5 14C11.7761 14 12 13.7761 12 13.5C12 13.7761 12.2239 14 12.5 14C12.2239 14 12 14.2239 12 14.5C12 14.7761 12.2239 15 12.5 15C12.7761 15 13 14.7761 13 14.5C13 14.7761 13.2239 15 13.5 15C13.2239 15 13 15.2239 13 15.5C13 15.7761 13.2239 16 13.5 16C13.2239 16 13 16.2239 13 16.5C13 16.7761 13.2239 17 13.5 17ZM14 16.5C14 16.7761 13.7761 17 13.5 17C13.7761 17 14 17.2239 14 17.5C14 17.2239 14.2239 17 14.5 17C14.2239 17 14 16.7761 14 16.5ZM14.5 16C14.2239 16 14 16.2239 14 16.5C14 16.2239 13.7761 16 13.5 16C13.7761 16 14 15.7761 14 15.5C14 15.7761 14.2239 16 14.5 16ZM15 15.5C15 15.7761 15.2239 16 15.5 16C15.2239 16 15 16.2239 15 16.5C15 16.2239 14.7761 16 14.5 16C14.7761 16 15 15.7761 15 15.5ZM14.5 15C14.7761 15 15 15.2239 15 15.5C15 15.2239 15.2239 15 15.5 15C15.7761 15 16 15.2239 16 15.5C16 15.2239 16.2239 15 16.5 15C16.2239 15 16 14.7761 16 14.5C16 14.2239 16.2239 14 16.5 14C16.2239 14 16 13.7761 16 13.5C16 13.7761 15.7761 14 15.5 14C15.2239 14 15 13.7761 15 13.5C15 13.2239 15.2239 13 15.5 13C15.2239 13 15 12.7761 15 12.5C15 12.7761 14.7761 13 14.5 13C14.2239 13 14 12.7761 14 12.5C14 12.2239 14.2239 12 14.5 12C14.2239 12 14 11.7761 14 11.5C14 11.7761 13.7761 12 13.5 12C13.2239 12 13 11.7761 13 11.5C13 11.2239 13.2239 11 13.5 11C13.2239 11 13 10.7761 13 10.5C13 10.7761 12.7761 11 12.5 11C12.7761 11 13 11.2239 13 11.5C13 11.7761 12.7761 12 12.5 12C12.2239 12 12 11.7761 12 11.5C12 11.7761 11.7761 12 11.5 12C11.7761 12 12 12.2239 12 12.5C12 12.7761 11.7761 13 11.5 13C11.7761 13 12 13.2239 12 13.5C12 13.2239 12.2239 13 12.5 13C12.7761 13 13 13.2239 13 13.5C13 13.7761 12.7761 14 12.5 14C12.7761 14 13 14.2239 13 14.5C13 14.2239 13.2239 14 13.5 14C13.7761 14 14 14.2239 14 14.5C14 14.7761 13.7761 15 13.5 15C13.7761 15 14 15.2239 14 15.5C14 15.2239 14.2239 15 14.5 15ZM15 14.5C15 14.7761 14.7761 15 14.5 15C14.2239 15 14 14.7761 14 14.5C14 14.2239 14.2239 14 14.5 14C14.7761 14 15 14.2239 15 14.5ZM14 13.5C14 13.2239 14.2239 13 14.5 13C14.7761 13 15 13.2239 15 13.5C15 13.7761 14.7761 14 14.5 14C14.2239 14 14 13.7761 14 13.5ZM13.5 13C13.7761 13 14 12.7761 14 12.5C14 12.2239 13.7761 12 13.5 12C13.2239 12 13 12.2239 13 12.5C13 12.2239 12.7761 12 12.5 12C12.2239 12 12 12.2239 12 12.5C12 12.7761 12.2239 13 12.5 13C12.7761 13 13 12.7761 13 12.5C13 12.7761 13.2239 13 13.5 13ZM13.5 13C13.2239 13 13 13.2239 13 13.5C13 13.7761 13.2239 14 13.5 14C13.7761 14 14 13.7761 14 13.5C14 13.2239 13.7761 13 13.5 13ZM15 14.5C15 14.7761 15.2239 15 15.5 15C15.7761 15 16 14.7761 16 14.5C16 14.2239 15.7761 14 15.5 14C15.2239 14 15 14.2239 15 14.5ZM12 2C6.47715 2 2 6.47715 2 12C2 17.5228 6.47715 22 12 22C17.5228 22 22 17.5228 22 12C22 6.47715 17.5228 2 12 2ZM12 8.5C12 8.77614 11.7761 9 11.5 9C11.2239 9 11 8.77614 11 8.5C11 8.22386 11.2239 8 11.5 8C11.7761 8 12 8.22386 12 8.5Z" fill="black"/>
</svg>
