<svg width="24" height="24" viewBox="0 0 24 24" fill="none" xmlns="http://www.w3.org/2000/svg">
<path fill-rule="evenodd" clip-rule="evenodd" d="M4 5H2V3H5H6V4V5H20C21.1046 5 22 5.89543 22 7V15C22 16.1046 21.1046 17 20 17H6V20H4V5ZM9 14C7.34315 14 6 12.6569 6 11C6 9.34315 7.34315 8 9 8C10.6569 8 12 9.34315 12 11C12 12.6569 10.6569 14 9 14ZM9 10C8.44772 10 8 10.4477 8 11C8 11.5523 8.44772 12 9 12C9.55228 12 10 11.5523 10 11C10 10.4477 9.55228 10 9 10ZM16 11C16 10.4477 16.4477 10 17 10C17.5523 10 18 10.4477 18 11C18 11.5523 17.5523 12 17 12C16.4477 12 16 11.5523 16 11ZM17 8C15.3431 8 14 9.34315 14 11C14 12.6569 15.3431 14 17 14C18.6569 14 20 12.6569 20 11C20 9.34315 18.6569 8 17 8ZM10 18H7V19C7 19.5523 7.44772 20 8 20H9C9.55228 20 10 19.5523 10 19V18ZM11 18H14V19C14 19.5523 13.5523 20 13 20H12C11.4477 20 11 19.5523 11 19V18ZM18 18H15V19C15 19.5523 15.4477 20 16 20H17C17.5523 20 18 19.5523 18 19V18Z" fill="black"/>
</svg>
