<svg width="24" height="24" viewBox="0 0 24 24" fill="none" xmlns="http://www.w3.org/2000/svg">
<path fill-rule="evenodd" clip-rule="evenodd" d="M2 5H4V20H6V17H20C21.1046 17 22 16.1046 22 15V7C22 5.89543 21.1046 5 20 5H6V4V3H5H2V5ZM6 15V7H20V15H6ZM10 18H7V19C7 19.5523 7.44772 20 8 20H9C9.55228 20 10 19.5523 10 19V18ZM14 18H11V19C11 19.5523 11.4477 20 12 20H13C13.5523 20 14 19.5523 14 19V18ZM15 18H18V19C18 19.5523 17.5523 20 17 20H16C15.4477 20 15 19.5523 15 19V18ZM12 11C12 12.1046 11.1046 13 10 13C8.89543 13 8 12.1046 8 11C8 9.89543 8.89543 9 10 9C11.1046 9 12 9.89543 12 11ZM16 13C17.1046 13 18 12.1046 18 11C18 9.89543 17.1046 9 16 9C14.8954 9 14 9.89543 14 11C14 12.1046 14.8954 13 16 13Z" fill="black"/>
</svg>
