<svg width="24" height="24" viewBox="0 0 24 24" fill="none" xmlns="http://www.w3.org/2000/svg">
<path fill-rule="evenodd" clip-rule="evenodd" d="M3 5C3 3.89543 3.89543 3 5 3H19C20.1046 3 21 3.89543 21 5V19C21 20.1046 20.1046 21 19 21H5C3.89543 21 3 20.1046 3 19V5ZM8.33333 5H5V8.33333H8.33333V5ZM10.3333 5V8.33333H13.6667V5H10.3333ZM15.6667 5V8.33333H19V5H15.6667ZM19 10.3333H15.6667V13.6667H19V10.3333ZM19 15.6667H15.6667V19H19V15.6667ZM13.6667 19V15.6667H10.3333V19H13.6667ZM8.33333 19V15.6667H5V19H8.33333ZM5 13.6667H8.33333V10.3333H5V13.6667ZM10.3333 10.3333V13.6667H13.6667V10.3333H10.3333Z" fill="black"/>
</svg>
