<svg width="24" height="24" viewBox="0 0 24 24" fill="none" xmlns="http://www.w3.org/2000/svg">
<path fill-rule="evenodd" clip-rule="evenodd" d="M7.5 2.49982V7.5H2.5V2.49982H7.5ZM9.5 2.49982V7.5H14.5V2.49982H9.5ZM16.5 2.49982V7.5H21.5V2.49982H16.5ZM21.5 9.5H16.5V14.4997L21.5 14.4996L21.5 15.4996V9.5ZM21.5 16.4996L16.5 16.4997V21.4996H14.5V16.4998L9.5 16.4999V21.4996H7.5V16.4999L2.50002 16.5L2.5 15.5V21.4998H21.5V16.4996ZM2.5 14.5L7.5 14.4999V9.5H2.5V14.5ZM9.5 14.4999V9.5H14.5V14.4998L9.5 14.4999Z" fill="black"/>
</svg>
