<svg width="24" height="24" viewBox="0 0 24 24" fill="none" xmlns="http://www.w3.org/2000/svg">
<path fill-rule="evenodd" clip-rule="evenodd" d="M3 5.75H2.25V6.5V10.5V11.25H3H7H7.75V10.5V6.5V5.75H7H3ZM3.75 9.75V7.25H6.25V9.75H3.75ZM10 5.75H9.25V6.5V10.5V11.25H10H14H14.75V10.5V6.5V5.75H14H10ZM10.75 9.75V7.25H13.25V9.75H10.75ZM16.25 5.75H17H21H21.75V6.5V10.5V11.25H21H17H16.25V10.5V6.5V5.75ZM17.75 7.25V9.75H20.25V7.25H17.75ZM17 12.75H16.25V13.5V17.5V18.25H17H21H21.75V17.5V13.5V12.75H21H17ZM17.75 16.75V14.25H20.25V16.75H17.75ZM9.25 12.75H10H14H14.75V13.5V17.5V18.25H14H10H9.25V17.5V13.5V12.75ZM10.75 14.25V16.75H13.25V14.25H10.75ZM3 12.75H2.25V13.5V17.5V18.25H3H7H7.75V17.5V13.5V12.75H7H3ZM3.75 16.75V14.25H6.25V16.75H3.75Z" fill="black"/>
</svg>
