<svg width="24" height="24" viewBox="0 0 24 24" fill="none" xmlns="http://www.w3.org/2000/svg">
<path fill-rule="evenodd" clip-rule="evenodd" d="M3.25 3.25H8.30556V8.30556H3.25V3.25ZM4.75 4.75V6.80556H6.80556V4.75H4.75ZM9.47222 3.25H14.5278V8.30556H9.47222V3.25ZM10.9722 4.75V6.80556H13.0278V4.75H10.9722ZM15.6944 3.25H20.75V8.30556H15.6944V3.25ZM17.1944 4.75V6.80556H19.25V4.75H17.1944ZM3.25 9.47222H8.30556V14.5278H3.25V9.47222ZM4.75 10.9722V13.0278H6.80556V10.9722H4.75ZM9.47222 9.47222H14.5278V14.5278H9.47222V9.47222ZM10.9722 10.9722V13.0278H13.0278V10.9722H10.9722ZM15.6944 9.47222H20.75V14.5278H15.6944V9.47222ZM17.1944 10.9722V13.0278H19.25V10.9722H17.1944ZM3.25 15.6944H8.30556V20.75H3.25V15.6944ZM4.75 17.1944V19.25H6.80556V17.1944H4.75ZM9.47222 15.6944H14.5278V20.75H9.47222V15.6944ZM10.9722 17.1944V19.25H13.0278V17.1944H10.9722ZM15.6944 15.6944H20.75V20.75H15.6944V15.6944ZM17.1944 17.1944V19.25H19.25V17.1944H17.1944Z" fill="black"/>
</svg>
