<svg width="24" height="24" viewBox="0 0 24 24" fill="none" xmlns="http://www.w3.org/2000/svg">
<path fill-rule="evenodd" clip-rule="evenodd" d="M3 5C3 3.89543 3.89543 3 5 3H9C10.1046 3 11 3.89543 11 5V19C11 20.1046 10.1046 21 9 21H5C3.89543 21 3 20.1046 3 19V5ZM9 5H5V19H9V5ZM13 5C13 3.89543 13.8954 3 15 3H19C20.1046 3 21 3.89543 21 5V9C21 10.1046 20.1046 11 19 11H14H13V10V5ZM19 5H15V9H19V5ZM14 13H13V14V19C13 20.1046 13.8954 21 15 21H19C20.1046 21 21 20.1046 21 19V15C21 13.8954 20.1046 13 19 13H14ZM15 19V15H19V19H15Z" fill="black"/>
</svg>
