<svg width="24" height="24" viewBox="0 0 24 24" fill="none" xmlns="http://www.w3.org/2000/svg">
<path fill-rule="evenodd" clip-rule="evenodd" d="M5.98794 2H13.4056L22 10.5858L16.5832 15.9999L15.0004 14.419L7.42219 22.0035H7.00244C5.67656 22.0035 4.43443 21.3509 3.54365 20.4606C2.65287 19.5702 2 18.3287 2 17.0035V16.5946L9.82435 8.75959C9.35304 7.70173 8.60791 6.7829 7.90677 6.08211C7.31923 5.49485 6.67761 4.99473 5.98794 4.53518V2ZM8.60575 4C8.82623 4.19201 9.06909 4.41543 9.32168 4.66789C10.2089 5.5547 11.2691 6.85228 11.8588 8.45366L13.4922 10.0852L16.0796 7.49902L12.5771 4H8.60575ZM17.4949 8.91287L14.9076 11.4989L16.5827 13.172L19.1698 10.5861L17.4949 8.91287Z" fill="black"/>
</svg>
