<svg width="24" height="24" viewBox="0 0 24 24" fill="none" xmlns="http://www.w3.org/2000/svg">
<path fill-rule="evenodd" clip-rule="evenodd" d="M5.98794 2H13.4056L22 10.5858L16.5832 15.9999L15.0004 14.419L7.42219 22.0035H7.00244C5.67656 22.0035 4.43443 21.3509 3.54365 20.4606C2.65287 19.5702 2 18.3287 2 17.0035V16.5946L9.82435 8.75959C9.35304 7.70173 8.60791 6.7829 7.90677 6.08211C7.50195 5.67749 7.12592 5.35954 6.8531 5.14426C6.71702 5.03689 6.60758 4.9558 6.53427 4.90297C6.49764 4.87658 6.47011 4.8573 6.45289 4.84539L6.43497 4.83308L6.43305 4.83178L6.43211 4.83115L5.98794 4.53518V2ZM8.60575 4C8.82623 4.19201 9.06909 4.41543 9.32168 4.66789C10.2089 5.5547 11.2691 6.85228 11.8588 8.45366L13.4922 10.0852L16.0796 7.49902L12.5771 4H8.60575ZM17.4949 8.91287L14.9076 11.4989L16.5827 13.172L19.1698 10.5861L17.4949 8.91287ZM10.9971 10.4204L4.03485 17.3779C4.13586 17.9488 4.45935 18.5474 4.95855 19.0464C5.45482 19.5424 6.04964 19.8648 6.61774 19.9678L13.585 13.0052L10.9971 10.4204Z" fill="black"/>
</svg>
