<svg width="24" height="24" viewBox="0 0 24 24" fill="none" xmlns="http://www.w3.org/2000/svg">
<path fill-rule="evenodd" clip-rule="evenodd" d="M10 6C10 4.89543 10.8954 4 12 4C13.1046 4 14 4.89543 14 6V7H10V6ZM8 7V6C8 3.79086 9.79086 2 12 2C14.2091 2 16 3.79086 16 6V7H19.0461L20.9308 17.2527C21.3739 19.6631 19.6108 22 17.1312 22H6.86845C4.3889 22 2.62572 19.6631 3.06882 17.2527L4.95354 7H8ZM11.9999 14C10.8953 14 9.99988 13.1046 9.99988 12V11H7.99988V12C7.99988 14.2091 9.79074 16 11.9999 16C14.209 16 15.9999 14.2091 15.9999 12V11H13.9999V12C13.9999 13.1046 13.1044 14 11.9999 14Z" fill="black"/>
</svg>
