<svg width="24" height="24" viewBox="0 0 24 24" fill="none" xmlns="http://www.w3.org/2000/svg">
<path fill-rule="evenodd" clip-rule="evenodd" d="M12.0043 4C11.4517 3.99999 11.0038 4.44771 11.0038 5V16.4433L7.68809 15.2003C6.87765 14.8965 6.35703 15.0073 5.81632 15.6829L5.7877 15.7186L10.3655 20.0002L17.7372 20.0003L18.9507 14.5422C19.1804 13.5092 18.5652 12.4761 17.5471 12.1853L13.0047 10.7543V5C13.0047 4.44772 12.5568 4.00001 12.0043 4ZM9.00285 5C9.00285 3.34313 10.3467 1.99998 12.0043 2C13.6619 2.00002 15.0057 3.34316 15.0057 5V9.24567L18.0968 10.2623C20.1329 10.8438 21.3634 12.91 20.904 14.9761L19.3424 22.0002H9.6411L3.00002 16L4.25384 14.4335C5.33527 13.0823 6.76989 12.72 8.39077 13.3277L9.00285 13.5571V5Z" fill="black"/>
</svg>
