<svg width="24" height="24" viewBox="0 0 24 24" fill="none" xmlns="http://www.w3.org/2000/svg">
<path fill-rule="evenodd" clip-rule="evenodd" d="M12 4C10.8954 4 9.99999 4.89543 9.99999 6V7H14V6C14 4.89543 13.1046 4 12 4ZM7.99999 6V7H4.9537L3.06898 17.2527C2.62587 19.6631 4.38906 22 6.8686 22H17.1314C19.6109 22 21.3741 19.6631 20.931 17.2527L19.0463 7H16V6C16 3.79086 14.2091 2 12 2C9.79085 2 7.99999 3.79086 7.99999 6ZM6.61955 9L5.03602 17.6143C4.7989 18.9042 5.74616 20 6.8686 20H17.1314C18.2538 20 19.2011 18.9042 18.964 17.6143L17.3804 9H6.61955ZM7.99999 11V12C7.99999 14.2091 9.79085 16 12 16C14.2091 16 16 14.2091 16 12V11H14V12C14 13.1046 13.1046 14 12 14C10.8954 14 9.99999 13.1046 9.99999 12V11H7.99999Z" fill="black"/>
</svg>
