<svg width="24" height="24" viewBox="0 0 24 24" fill="none" xmlns="http://www.w3.org/2000/svg">
<path fill-rule="evenodd" clip-rule="evenodd" d="M11.661 3H13.6939C15.5196 3 16.9219 4.61696 16.6638 6.42426L16.1529 10H21L20.1285 17.4417C19.9034 19.4674 18.1911 21 16.1529 21H3.00005L3 10L5.99943 10C9.21418 10 11.0228 6.61576 11.5151 3.8262L11.661 3ZM5.00001 12L5.00004 19H7V11.9218C6.33851 12.0266 5.66732 12 5.00001 12ZM9 11.2465V19H16.1529C17.172 19 18.0282 18.2337 18.1407 17.2209L18.7208 12H13.8469L14.6839 6.14142C14.7699 5.53899 14.3025 5 13.6939 5H13.3125C12.6515 7.74016 11.1659 10.0883 9 11.2465Z" fill="black"/>
</svg>
