<svg width="24" height="24" viewBox="0 0 24 24" fill="none" xmlns="http://www.w3.org/2000/svg">
<path fill-rule="evenodd" clip-rule="evenodd" d="M12.339 21H10.3061C8.48044 21 7.07806 19.383 7.33624 17.5757L7.84706 14H3L3.87153 6.55829C4.0966 4.53255 5.80886 3 7.84706 3H21L21 14L18.0006 14C14.7858 14 12.9772 17.3842 12.4849 20.1738L12.339 21ZM19 12L19 5H17V12.0782C17.6615 11.9734 18.3327 12 19 12ZM15 12.7535V5H7.84706C6.82796 5 5.97183 5.76628 5.85929 6.77914L5.27922 12H10.1531L9.31614 17.8586C9.23008 18.461 9.69754 19 10.3061 19H10.6875C11.3485 16.2598 12.8341 13.9117 15 12.7535Z" fill="black"/>
</svg>
