<svg width="24" height="24" viewBox="0 0 24 24" fill="none" xmlns="http://www.w3.org/2000/svg">
<path fill-rule="evenodd" clip-rule="evenodd" d="M11.0146 4C10.4612 3.99999 10.0125 4.44771 10.0125 5V16H8.00833L8.00834 14C6.90146 14 6.00417 14.8954 6.00417 16V17.1984L9.37322 20.0002L16.732 20.0003L17.9474 14.5422C18.1775 13.5092 17.5612 12.4761 16.5415 12.1853L12.0167 10.7543V5C12.0167 4.44772 11.568 4.00001 11.0146 4ZM8.00834 12L8.00833 5C8.00833 3.34313 9.3543 1.99998 11.0146 2C12.6749 2.00002 14.0208 3.34316 14.0208 5V9.24567L17.0921 10.2623C19.1315 10.8438 20.3639 12.91 19.9038 14.9761L18.3397 22.0002H8.64761L4 18.1351V16C4 13.7908 5.79459 12 8.00834 12Z" fill="black"/>
</svg>
