<svg width="25" height="24" viewBox="0 0 25 24" fill="none" xmlns="http://www.w3.org/2000/svg">
<path fill-rule="evenodd" clip-rule="evenodd" d="M4.02002 4C2.91545 4 2.02002 4.89543 2.02002 6V9C2.02002 10.1046 2.91545 11 4.02002 11H6.02002V13H4.02002C2.91545 13 2.02002 13.8954 2.02002 15V18C2.02002 19.1046 2.91545 20 4.02002 20H20.02C21.1246 20 22.02 19.1046 22.02 18V15C22.02 13.8954 21.1246 13 20.02 13H18.02V11H20.02C21.1246 11 22.02 10.1046 22.02 9V6C22.02 4.89543 21.1246 4 20.02 4H4.02002ZM16.02 11H8.02002V13H16.02V11ZM5.02002 9C5.5723 9 6.02002 8.55228 6.02002 8C6.02002 7.44772 5.5723 7 5.02002 7C4.46773 7 4.02002 7.44772 4.02002 8C4.02002 8.55228 4.46773 9 5.02002 9ZM10.02 8C10.02 8.55228 9.5723 9 9.02002 9C8.46774 9 8.02002 8.55228 8.02002 8C8.02002 7.44772 8.46774 7 9.02002 7C9.5723 7 10.02 7.44772 10.02 8ZM6.02002 17C6.02002 17.5523 5.5723 18 5.02002 18C4.46773 18 4.02002 17.5523 4.02002 17C4.02002 16.4477 4.46773 16 5.02002 16C5.5723 16 6.02002 16.4477 6.02002 17ZM9.02002 18C9.5723 18 10.02 17.5523 10.02 17C10.02 16.4477 9.5723 16 9.02002 16C8.46774 16 8.02002 16.4477 8.02002 17C8.02002 17.5523 8.46774 18 9.02002 18Z" fill="black"/>
</svg>
