<svg width="25" height="24" viewBox="0 0 25 24" fill="none" xmlns="http://www.w3.org/2000/svg">
<path fill-rule="evenodd" clip-rule="evenodd" d="M19.8008 4H4.23925L2.04989 12.7575C2.02985 12.8376 2.02002 12.9191 2.02002 13L2.02003 18C2.02004 19.1046 2.91547 20 4.02003 20H20.0198C21.1244 20 22.0199 19.1059 22.0198 18.0012C22.0196 15.9836 22.0194 13.1449 22.02 13.0043C22.0204 12.9219 22.0106 12.839 21.9902 12.7575L19.8008 4ZM4.02004 14H20.02V18H4.02003L4.02004 14ZM7.02003 16C7.02003 16.5523 6.57232 17 6.02003 17C5.46775 17 5.02003 16.5523 5.02003 16C5.02003 15.4477 5.46775 15 6.02003 15C6.57232 15 7.02003 15.4477 7.02003 16ZM10.02 16C10.02 16.5523 9.57232 17 9.02003 17C8.46775 17 8.02003 16.5523 8.02003 16C8.02003 15.4477 8.46775 15 9.02003 15C9.57232 15 10.02 15.4477 10.02 16Z" fill="black"/>
</svg>
