<svg width="24" height="24" viewBox="0 0 24 24" fill="none" xmlns="http://www.w3.org/2000/svg">
<path fill-rule="evenodd" clip-rule="evenodd" d="M3 5C3 3.89543 3.89543 3 5 3H19C20.1046 3 21 3.89543 21 5V9C21 10.1046 20.1046 11 19 11H18V13H19C20.1046 13 21 13.8954 21 15V19C21 20.1046 20.1046 21 19 21H5C3.89543 21 3 20.1046 3 19V15C3 13.8954 3.89543 13 5 13H6V11H5C3.89543 11 3 10.1046 3 9V5ZM8 13H16V11H8V13ZM19 5H5V9H19V5ZM5 15H19V19H5V15ZM8 7C8 7.55228 7.55228 8 7 8C6.44772 8 6 7.55228 6 7C6 6.44772 6.44772 6 7 6C7.55228 6 8 6.44772 8 7ZM7 18C7.55228 18 8 17.5523 8 17C8 16.4477 7.55228 16 7 16C6.44772 16 6 16.4477 6 17C6 17.5523 6.44772 18 7 18ZM11 7C11 7.55228 10.5523 8 10 8C9.44771 8 9 7.55228 9 7C9 6.44772 9.44771 6 10 6C10.5523 6 11 6.44772 11 7ZM10 18C10.5523 18 11 17.5523 11 17C11 16.4477 10.5523 16 10 16C9.44771 16 9 16.4477 9 17C9 17.5523 9.44771 18 10 18Z" fill="black"/>
</svg>
