<svg width="24" height="24" viewBox="0 0 24 24" fill="none" xmlns="http://www.w3.org/2000/svg">
<path fill-rule="evenodd" clip-rule="evenodd" d="M4 4C2.89543 4 2 4.89543 2 6V10C2 11.1046 2.89543 12 4 12H11V14.1707C10.1476 14.472 9.47199 15.1476 9.17071 16H2V18H9.17071C9.58254 19.1652 10.6938 20 12 20C13.3062 20 14.4175 19.1652 14.8293 18H22V16H14.8293C14.528 15.1476 13.8524 14.472 13 14.1707V12H20C21.1046 12 22 11.1046 22 10V6C22 4.89543 21.1046 4 20 4H4ZM4 6H20V10H4V6ZM12 16C11.4477 16 11 16.4477 11 17C11 17.5523 11.4477 18 12 18C12.5523 18 13 17.5523 13 17C13 16.4477 12.5523 16 12 16ZM7 8C7 8.55228 6.55228 9 6 9C5.44772 9 5 8.55228 5 8C5 7.44772 5.44772 7 6 7C6.55228 7 7 7.44772 7 8ZM9 9C9.55228 9 10 8.55228 10 8C10 7.44772 9.55228 7 9 7C8.44771 7 8 7.44772 8 8C8 8.55228 8.44771 9 9 9Z" fill="black"/>
</svg>
