<svg width="25" height="24" viewBox="0 0 25 24" fill="none" xmlns="http://www.w3.org/2000/svg">
<path fill-rule="evenodd" clip-rule="evenodd" d="M4.02002 4C2.91545 4 2.02002 4.89543 2.02002 6V9C2.02002 10.1046 2.91545 11 4.02002 11H11.02V14.1707C10.1676 14.472 9.49201 15.1476 9.19073 16H2.02002V18H9.19073C9.60256 19.1652 10.7138 20 12.02 20C13.3262 20 14.4375 19.1652 14.8493 18H22.02V16H14.8493C14.548 15.1476 13.8724 14.472 13.02 14.1707V11H20.02C21.1246 11 22.02 10.1046 22.02 9V6C22.02 4.89543 21.1246 4 20.02 4H4.02002ZM5.02002 9C5.5723 9 6.02002 8.55228 6.02002 8C6.02002 7.44772 5.5723 7 5.02002 7C4.46773 7 4.02002 7.44772 4.02002 8C4.02002 8.55228 4.46773 9 5.02002 9ZM10.02 8C10.02 8.55228 9.5723 9 9.02002 9C8.46774 9 8.02002 8.55228 8.02002 8C8.02002 7.44772 8.46774 7 9.02002 7C9.5723 7 10.02 7.44772 10.02 8ZM12.02 16C11.4677 16 11.02 16.4477 11.02 17C11.02 17.5523 11.4677 18 12.02 18C12.5723 18 13.02 17.5523 13.02 17C13.02 16.4477 12.5723 16 12.02 16Z" fill="black"/>
</svg>
