<svg width="24" height="24" viewBox="0 0 24 24" fill="none" xmlns="http://www.w3.org/2000/svg">
<path fill-rule="evenodd" clip-rule="evenodd" d="M4.21922 4H5H19H19.7808L19.9701 4.75746L21.9701 12.7575L22 12.8769V13V18C22 19.1046 21.1046 20 20 20H4C2.89543 20 2 19.1046 2 18V13V12.8769L2.02986 12.7575L4.02986 4.75746L4.21922 4ZM5.78078 6L4.28078 12H19.7192L18.2192 6H5.78078ZM20 14H4V18H20V14ZM7 16C7 16.5523 6.55228 17 6 17C5.44772 17 5 16.5523 5 16C5 15.4477 5.44772 15 6 15C6.55228 15 7 15.4477 7 16ZM9 17C9.55228 17 10 16.5523 10 16C10 15.4477 9.55228 15 9 15C8.44771 15 8 15.4477 8 16C8 16.5523 8.44771 17 9 17Z" fill="black"/>
</svg>
