<svg width="25" height="24" viewBox="0 0 25 24" fill="none" xmlns="http://www.w3.org/2000/svg">
<path fill-rule="evenodd" clip-rule="evenodd" d="M6.02002 4C4.91545 4 4.02002 4.89543 4.02002 6H6.02002H18.02H20.02C20.02 4.89543 19.1246 4 18.02 4H6.02002ZM2.02002 8H22.02V14.0503C22.02 17.3362 19.3562 20 16.0703 20C14.5651 20 13.1187 19.4296 12.02 18.4086C10.9214 19.4296 9.47498 20 7.96977 20C4.68381 20 2.02002 17.3362 2.02002 14.0503V8ZM6.60353 16H8.22515L9.80865 11H8.38454L7.4282 14.7595H7.40394L6.44414 11H5.02002L6.60353 16ZM14.8135 16H16.0852V14.2779H16.7331L17.5924 16H19.02L18.0186 14.0873C18.5384 13.8621 18.871 13.3077 18.871 12.6667V12.6597C18.871 11.5994 18.1884 11 16.9791 11H14.8135V16ZM16.0852 13.3562V11.9598H16.8301C17.2771 11.9598 17.5751 12.237 17.5751 12.6563V12.6632C17.5751 13.0859 17.2875 13.3562 16.8371 13.3562H16.0852Z" fill="black"/>
</svg>
