<svg width="25" height="24" viewBox="0 0 25 24" fill="none" xmlns="http://www.w3.org/2000/svg">
<path fill-rule="evenodd" clip-rule="evenodd" d="M12.02 4C7.60174 4 4.02002 7.58172 4.02002 12V15C4.02002 12.7909 5.81088 11 8.02002 11H9.02002V21H8.02002C5.81088 21 4.02002 19.2091 4.02002 17H2.02002V12C2.02002 6.47715 6.49717 2 12.02 2C17.5429 2 22.02 6.47715 22.02 12V17H20.02C20.02 19.2091 18.2292 21 16.02 21H15.02V11H16.02C18.2292 11 20.02 12.7909 20.02 15V12C20.02 7.58172 16.4383 4 12.02 4Z" fill="black"/>
</svg>
