<svg width="25" height="24" viewBox="0 0 25 24" fill="none" xmlns="http://www.w3.org/2000/svg">
<path fill-rule="evenodd" clip-rule="evenodd" d="M7.02002 16V9C7.02002 6.23858 9.2586 4 12.02 4C14.7814 4 17.02 6.23858 17.02 9V17C17.02 18.1046 16.1246 19 15.02 19H13.7525C13.4066 18.4022 12.7603 18 12.02 18C10.9155 18 10.02 18.8954 10.02 20C10.02 21.1046 10.9155 22 12.02 22C12.7603 22 13.4066 21.5978 13.7525 21H15.02C17.2292 21 19.02 19.2091 19.02 17V15.874C20.7452 15.4299 22.02 13.8638 22.02 12V11C22.02 9.04 20.6102 7.40942 18.7495 7.0664C17.9105 4.14085 15.2153 2 12.02 2C8.82478 2 6.12955 4.14085 5.2905 7.0664C3.42986 7.40941 2.02002 9.04 2.02002 11V12C2.02002 14.2091 3.81088 16 6.02002 16H7.02002ZM9.02002 12V13C9.02002 14.6569 10.3632 16 12.02 16C13.6769 16 15.02 14.6569 15.02 13V12H13.02V13C13.02 13.5523 12.5723 14 12.02 14C11.4677 14 11.02 13.5523 11.02 13V12H9.02002Z" fill="black"/>
</svg>
