<svg width="24" height="24" viewBox="0 0 24 24" fill="none" xmlns="http://www.w3.org/2000/svg">
<path fill-rule="evenodd" clip-rule="evenodd" d="M12.0001 4C7.72783 4 4.35977 7.63709 4.68744 11.8968L4.71323 12.232C5.59207 11.4648 6.74178 11 8.00006 11H9.00006V12V20V21H8.00006C5.25187 21 3.02152 18.7828 3.00021 16.0397L2.69333 12.0502C2.27631 6.6289 6.5628 2 12.0001 2C17.4374 2 21.7239 6.62889 21.3069 12.0502L20.9999 16.0413C20.9777 18.7837 18.7477 21 16.0001 21H15.0001V20V12V11H16.0001C17.2584 11 18.4081 11.4648 19.287 12.2321L19.3128 11.8968C19.6405 7.63709 16.2724 4 12.0001 4ZM7.00006 13.1707C5.83487 13.5825 5.00006 14.6938 5.00006 16C5.00006 17.3062 5.83487 18.4175 7.00006 18.8293V13.1707ZM19.0001 16C19.0001 17.3062 18.1653 18.4175 17.0001 18.8293V13.1707C18.1653 13.5825 19.0001 14.6938 19.0001 16Z" fill="black"/>
</svg>
