<svg width="24" height="24" viewBox="0 0 24 24" fill="none" xmlns="http://www.w3.org/2000/svg">
<path fill-rule="evenodd" clip-rule="evenodd" d="M6 4C4.89543 4 4 4.89543 4 6H6H18H20C20 4.89543 19.1046 4 18 4H6ZM3 8H2V9V14.0503C2 17.3362 4.66379 20 7.94975 20C9.45496 20 10.9014 19.4296 12 18.4086C13.0986 19.4296 14.545 20 16.0503 20C19.3362 20 22 17.3362 22 14.0503V9V8H21H3ZM4 14.0503V10H20V14.0503C20 16.2316 18.2316 18 16.0503 18C15.0027 18 13.9981 17.5839 13.2574 16.8431L12.7071 16.2929L12 15.5858L11.2929 16.2929L10.7426 16.8431C10.0019 17.5839 8.99729 18 7.94975 18C5.76836 18 4 16.2316 4 14.0503ZM10 14C10 15.1046 9.10457 16 8 16C6.89543 16 6 15.1046 6 14C6 12.8954 6.89543 12 8 12C9.10457 12 10 12.8954 10 14ZM16 16C17.1046 16 18 15.1046 18 14C18 12.8954 17.1046 12 16 12C14.8954 12 14 12.8954 14 14C14 15.1046 14.8954 16 16 16Z" fill="black"/>
</svg>
