<svg width="24" height="24" viewBox="0 0 24 24" fill="none" xmlns="http://www.w3.org/2000/svg">
<path fill-rule="evenodd" clip-rule="evenodd" d="M4 9C4 7.34315 5.34315 6 7 6C8.15791 6 9.0589 6.7178 9.88432 7.45058C10.5853 8.07292 11.2788 8.70089 12 9.30056C12.7213 8.70073 13.4142 8.07333 14.1157 7.45058C14.9411 6.7178 15.8421 6 17 6C18.6569 6 20 7.34315 20 9C20 9.76359 19.7173 10.4549 19.2503 10.9841C18.9135 11.3657 16.9524 13.3169 15.0237 15.2217C14.018 16.2149 13.0105 17.2063 12.0022 18.1969C10.9932 17.2062 9.98495 16.2148 8.97855 15.2215C7.04854 13.3166 5.08637 11.3655 4.74974 10.9841C4.28269 10.4549 4 9.76359 4 9ZM12.0027 20.9979C13.4803 19.549 14.9567 18.0989 16.4291 16.6447C18.3159 14.7812 20.3536 12.7564 20.7497 12.3076C21.5274 11.4265 22 10.2653 22 9C22 6.23858 19.7614 4 17 4C16.0909 4 15.2357 4.24351 14.4993 4.66952C13.5695 5.20735 12.7897 5.95177 12 6.67021C11.2103 5.95177 10.4305 5.20735 9.50073 4.66952C8.76427 4.24351 7.90906 4 7 4C4.23858 4 2 6.23858 2 9C2 10.2653 2.47259 11.4265 3.25026 12.3076C3.64657 12.7566 5.68564 14.7815 7.57362 16.6449C9.0469 18.099 10.5242 19.5491 12.0027 20.9979Z" fill="black"/>
</svg>
