<svg width="24" height="24" viewBox="0 0 24 24" fill="none" xmlns="http://www.w3.org/2000/svg">
<path fill-rule="evenodd" clip-rule="evenodd" d="M7.5 5C5.567 5 4 6.567 4 8.5C4 9.33445 4.29076 10.0983 4.77737 10.6996C6.92673 13.3558 9.58035 15.7535 12 18.1747C12.7647 17.4098 13.5283 16.644 14.2904 15.8765L15.7096 17.2857C14.4766 18.5274 13.2391 19.7645 12 21C9.0654 18.0738 5.82849 15.178 3.22263 11.9577C2.45844 11.0133 2 9.80885 2 8.5C2 5.46243 4.46243 3 7.5 3C9.2282 3 10.7707 3.79824 11.7774 5.04229C11.8554 5.13869 11.9297 5.23188 12 5.32126C12.0703 5.23188 12.1446 5.13869 12.2226 5.04229C13.2293 3.79824 14.7718 3 16.5 3C19.5376 3 22 5.46243 22 8.5C22 9.14104 21.8899 9.75853 21.6868 10.3332L19.8011 9.66675C19.9296 9.30313 20 8.91086 20 8.5C20 6.567 18.433 5 16.5 5C15.4009 5 14.4206 5.50543 13.7774 6.30038C13.134 7.09539 12.5712 7.94194 12 8.78926C11.4289 7.9419 10.8659 7.09538 10.2226 6.30038C9.57936 5.50543 8.59907 5 7.5 5ZM13.382 12L15.6852 7.39345L17.6852 13.3934L18.382 12H22V14H19.618L17.3148 18.6066L15.3148 12.6066L14.618 14H11V12H13.382Z" fill="black"/>
</svg>
