<svg width="24" height="24" viewBox="0 0 24 24" fill="none" xmlns="http://www.w3.org/2000/svg">
<path fill-rule="evenodd" clip-rule="evenodd" d="M12.0039 5.33594C12.0039 5.33594 10.3546 3 7.5 3C4.5 3 2 5.44844 2 8.46875C2 9.69989 2.37195 10.836 2.99963 11.75C3.91184 13.0783 12.0039 21 12.0039 21C12.0039 21 13.8048 19.2353 15.8025 17.2321L15.0585 15.0002H10V11.0002H12.7639L15.8705 4.78711L17.9415 11.0002H21.4332C21.7953 10.2433 22 9.38218 22 8.46875C22 5.5 19.3984 3 16.5 3C13.7407 3 12.0039 5.33594 12.0039 5.33594ZM16.4487 9.68377L15.6852 7.39345L14.6056 9.55279L13.382 12H11V14H14H14.618L14.8944 13.4472L15.3148 12.6066L16.5513 16.3162L17.3148 18.6066L18.3944 16.4472L19.618 14H22V12H19H18.382L18.1056 12.5528L17.6852 13.3934L16.4487 9.68377Z" fill="black"/>
</svg>
