<svg width="24" height="24" viewBox="0 0 24 24" fill="none" xmlns="http://www.w3.org/2000/svg">
<path fill-rule="evenodd" clip-rule="evenodd" d="M13.4 5.29432C13.7649 5.79427 17 9 17 9C17 9 20.2351 5.79427 20.6 5.29432C20.8512 4.95019 21 4.5224 21 4.05882C21 2.92177 20.1046 2 19 2C18.5497 2 18.1341 2.15321 17.7998 2.41176C17.5253 2.62408 17.0036 3.11274 17.0036 3.11274C17.0036 3.11274 16.4747 2.62408 16.2002 2.41176C15.8659 2.15321 15.4503 2 15 2C13.8954 2 13 2.92177 13 4.05882C13 4.5224 13.1488 4.95019 13.4 5.29432ZM8.55 17.2356C9.05173 17.8783 13.5 22 13.5 22C13.5 22 17.9483 17.8783 18.45 17.2356C18.7954 16.7931 19 16.2431 19 15.6471C19 14.1851 17.7688 13 16.25 13C15.6308 13 15.0594 13.197 14.5997 13.5294C14.2223 13.8024 13.505 14.4307 13.505 14.4307C13.505 14.4307 12.7777 13.8024 12.4003 13.5294C11.9406 13.197 11.3692 13 10.75 13C9.23122 13 8 14.1851 8 15.6471C8 16.2431 8.20465 16.7931 8.55 17.2356ZM7.5 11C7.5 11 4.66928 8.25223 4.35 7.8237C4.13023 7.52873 4 7.16206 4 6.76471C4 5.79009 4.7835 5 5.75 5C6.14404 5 6.50766 5.13133 6.80017 5.35294C7.04037 5.53493 7.50317 5.95378 7.50317 5.95378C7.50317 5.95378 7.95963 5.53493 8.19983 5.35294C8.49234 5.13133 8.85596 5 9.25 5C10.2165 5 11 5.79009 11 6.76471C11 7.16206 10.8698 7.52873 10.65 7.8237C10.3307 8.25223 7.5 11 7.5 11Z" fill="black"/>
</svg>
