<svg width="24" height="24" viewBox="0 0 24 24" fill="none" xmlns="http://www.w3.org/2000/svg">
<path fill-rule="evenodd" clip-rule="evenodd" d="M3 12.0005C3.91223 13.2147 12 21 12 21C12 21 20.0878 13.2147 21 12.0005C21.6279 11.1647 22 10.1258 22 9C22 6.23858 19.7614 4 17 4C15.8742 4 14.8353 4.37209 13.9995 5C13.3132 5.51562 12.0091 6.70237 12.0091 6.70237C12.0091 6.70237 10.6868 5.51562 10.0005 5C9.16474 4.37209 8.12582 4 7 4C4.23858 4 2 6.23858 2 9C2 10.1258 2.37209 11.1647 3 12.0005Z" fill="black"/>
</svg>
