<svg width="24" height="24" viewBox="0 0 24 24" fill="none" xmlns="http://www.w3.org/2000/svg">
<path fill-rule="evenodd" clip-rule="evenodd" d="M11.5308 6.27894C11.0832 5.88637 10.4219 5.31664 10.0005 5C9.16474 4.37209 8.12582 4 7 4C4.23858 4 2 6.23858 2 9C2 10.1258 2.37209 11.1647 3 12.0005C3.91223 13.2147 12 21 12 21C12 21 12.2408 20.7876 12.6441 20.4298L9.80725 13.7786L11.589 11.997L9 9.5L11.5308 6.27894ZM13.5491 19.6249C15.9422 17.4913 20.3417 12.8767 21 12.0005C21.6279 11.1647 22 10.1258 22 9C22 6.23858 19.7614 4 17 4C16.7204 4 16.4463 4.02294 16.1792 4.06705L12 9.5L14.4113 12.0032L12.1928 14.2216L13.5491 19.6249Z" fill="black"/>
</svg>
