<svg width="24" height="24" viewBox="0 0 24 24" fill="none" xmlns="http://www.w3.org/2000/svg">
<path fill-rule="evenodd" clip-rule="evenodd" d="M12 9.30056V18.1947L12.0022 18.1969C13.0105 17.2063 14.018 16.2149 15.0237 15.2217C16.9524 13.3169 18.9135 11.3657 19.2503 10.9841C19.7173 10.4549 20 9.76359 20 9C20 7.34315 18.6569 6 17 6C15.8421 6 14.9411 6.7178 14.1157 7.45058C13.9831 7.56826 13.8509 7.68611 13.7187 7.8039C13.1513 8.30947 12.585 8.81408 12 9.30056ZM16.4291 16.6447C14.9567 18.0989 13.4803 19.549 12.0027 20.9979C10.5242 19.5491 9.0469 18.099 7.57362 16.6449C5.68564 14.7815 3.64657 12.7566 3.25026 12.3076C2.47259 11.4265 2 10.2653 2 9C2 6.23858 4.23858 4 7 4C7.90906 4 8.76427 4.24351 9.50073 4.66952C10.3447 5.15774 11.0652 5.81619 11.7816 6.47091C11.8544 6.53744 11.9272 6.60394 12 6.67021C12.0728 6.60394 12.1456 6.53744 12.2184 6.47091C12.9348 5.81619 13.6553 5.15774 14.4993 4.66952C15.2357 4.24351 16.0909 4 17 4C19.7614 4 22 6.23858 22 9C22 10.2653 21.5274 11.4265 20.7497 12.3076C20.3536 12.7564 18.3159 14.7812 16.4291 16.6447Z" fill="black"/>
</svg>
