<svg width="24" height="24" viewBox="0 0 24 24" fill="none" xmlns="http://www.w3.org/2000/svg">
<path fill-rule="evenodd" clip-rule="evenodd" d="M7 6C5.34315 6 4 7.34315 4 9C4 9.76359 4.28269 10.4549 4.74974 10.9841C5.08637 11.3655 7.04854 13.3166 8.97855 15.2215C9.97077 16.2008 10.9648 17.1783 11.9596 18.155L9.78323 13.8026L11.5858 12L9.08579 9.5L10.5461 8.0397C10.3255 7.84347 10.1053 7.64674 9.88432 7.45058C9.0589 6.7178 8.15791 6 7 6ZM11.9142 9.5L14.4142 12L12.2168 14.1974L13.4867 16.7371C13.9994 16.2324 14.5118 15.7273 15.0237 15.2217C16.9524 13.3169 18.9135 11.3657 19.2503 10.9841C19.7173 10.4549 20 9.76359 20 9C20 7.34315 18.6569 6 17 6C15.8421 6 14.9411 6.7178 14.1157 7.45058C13.3633 8.1185 12.6254 8.78876 11.9142 9.5ZM16.4291 16.6447C14.9567 18.0989 13.4803 19.549 12.0027 20.9979C10.5242 19.5491 9.0469 18.099 7.57362 16.6449C5.68564 14.7815 3.64657 12.7566 3.25026 12.3076C2.47259 11.4265 2 10.2653 2 9C2 6.23858 4.23858 4 7 4C7.90906 4 8.76427 4.24351 9.50073 4.66952C10.4305 5.20735 11.2103 5.95176 12 6.67021C12.7897 5.95177 13.5695 5.20735 14.4993 4.66952C15.2357 4.24351 16.0909 4 17 4C19.7614 4 22 6.23858 22 9C22 10.2653 21.5274 11.4265 20.7497 12.3076C20.3536 12.7564 18.3159 14.7812 16.4291 16.6447Z" fill="black"/>
</svg>
