<svg width="24" height="24" viewBox="0 0 24 24" fill="none" xmlns="http://www.w3.org/2000/svg">
<path fill-rule="evenodd" clip-rule="evenodd" d="M15.001 5.00006C15.001 5.82861 15.5412 6.25371 16.2317 6.35411L9.58579 13H7L6 14L7.5 15H5L4 16L5.5 17H3L2 18L5 19L6 22L7 21V18.5L8 20L9 19V16.5L10 18L11 17V14.4142L17.656 7.75824C17.7494 8.4552 18.1656 9.00027 19 9.00027C19.5036 9.01766 20.0146 8.84293 20.387 8.46966C20.6853 8.17073 20.8704 7.80454 20.9397 7.4302C21.0404 6.88635 20.9844 3.01562 20.9844 3.01562C20.9844 3.01562 17.1225 2.95948 16.5799 3.06049C16.2065 3.13 15.8412 3.31551 15.543 3.61439C15.164 3.99426 14.9848 4.49978 15.001 5.00006Z" fill="black"/>
</svg>
