<svg width="24" height="24" viewBox="0 0 24 24" fill="none" xmlns="http://www.w3.org/2000/svg">
<path fill-rule="evenodd" clip-rule="evenodd" d="M20 5H18V7C18 9.0883 16.9332 10.9258 15.3174 12C16.9332 13.0742 18 14.9117 18 17V19H20V21H4V19H6V17C6 14.9117 7.06676 13.0742 8.68258 12C7.06676 10.9258 6 9.0883 6 7V5H4V3H20V5ZM8 19H16V17C16 15.3613 15.0144 13.9506 13.5996 13.3324L13 13.0704V10.9296L13.5996 10.6676C15.0144 10.0494 16 8.6387 16 7V5H8V7C8 8.6387 8.98556 10.0494 10.4004 10.6676L11 10.9296V13.0704L10.4004 13.3324C8.98556 13.9506 8 15.3613 8 17V19ZM10 7C10 8.10457 10.8954 9 12 9C13.1046 9 14 8.10457 14 7H10ZM10 17C10 15.8954 10.8954 15 12 15C13.1046 15 14 15.8954 14 17H10Z" fill="black"/>
</svg>
