<svg width="24" height="24" viewBox="0 0 24 24" fill="none" xmlns="http://www.w3.org/2000/svg">
<path fill-rule="evenodd" clip-rule="evenodd" d="M20 3H4V5H6V7C6 9.0883 7.06676 10.9258 8.68258 12C7.06676 13.0742 6 14.9117 6 17V19H4V21H20V19H18V17C18 14.9117 16.9332 13.0742 15.3174 12C16.9332 10.9258 18 9.0883 18 7V5H20V3ZM8 7V5H16V7C16 8.6387 15.0144 10.0494 13.5996 10.6676L13 10.9296V13.0704L13.5996 13.3324C15.0144 13.9506 16 15.3613 16 17V19H8V17C8 15.3613 8.98556 13.9506 10.4004 13.3324L11 13.0704V10.9296L10.4004 10.6676C8.98556 10.0494 8 8.6387 8 7ZM12 9C10.8954 9 10 8.10457 10 7H14C14 8.10457 13.1046 9 12 9Z" fill="black"/>
</svg>
