<svg width="24" height="24" viewBox="0 0 24 24" fill="none" xmlns="http://www.w3.org/2000/svg">
<path fill-rule="evenodd" clip-rule="evenodd" d="M20 5H18V7C18 9.0883 16.9332 10.9258 15.3174 12C16.9332 13.0742 18 14.9117 18 17V19H20V21H4V19H6V17C6 14.9117 7.06676 13.0742 8.68258 12C7.06676 10.9258 6 9.0883 6 7V5H4V3H20V5ZM8 5H16V7C16 8.6387 15.0144 10.0494 13.5996 10.6676L13 10.9296V11.584V12.416V13.0704L13.5996 13.3324C15.0143 13.9505 15.9998 15.361 16 16.9995C15.0878 15.7853 13.6356 15 12 15C10.3644 15 8.91223 15.7853 8 16.9995C8.0002 15.361 8.9857 13.9505 10.4004 13.3324L11 13.0704V12.416V11.584V10.9296L10.4004 10.6676C8.98556 10.0494 8 8.6387 8 7V5Z" fill="black"/>
</svg>
