<svg width="24" height="24" viewBox="0 0 24 24" fill="none" xmlns="http://www.w3.org/2000/svg">
<path fill-rule="evenodd" clip-rule="evenodd" d="M11.9984 2L22 12.0061L21.1848 12.8208C20.3702 12.0048 19.2441 11.5 18 11.5C15.5147 11.5 13.5 13.5147 13.5 16V16.5C12.9477 16.5 12.5 16.9477 12.5 17.5V22H7.00002C5.34316 22 4.00002 20.6577 4.00002 19.0018V14L2 12.0061L11.9984 2ZM22 22H14V18H15V16C15 14.3431 16.3431 13 18 13C19.6569 13 21 14.3431 21 16V18H22V22ZM17 16C17 15.4477 17.4477 15 18 15C18.5523 15 19 15.4477 19 16V18H17V16Z" fill="black"/>
</svg>
