<svg width="24" height="24" viewBox="0 0 24 24" fill="none" xmlns="http://www.w3.org/2000/svg">
<path fill-rule="evenodd" clip-rule="evenodd" d="M11.9984 1.99997L22 12.0061L21.2164 12.7892C20.3173 12.079 19.2101 11.6206 18.0012 11.5206L17.9984 10.8236L11.9984 4.82667L5.99837 10.8236L6.00002 19.0018C6.00002 19.5538 6.44773 20.0012 7.00002 20.0012H12.0445C12.3968 20.7682 12.9061 21.4482 13.5312 22H7.00002C5.34316 22 4.00002 20.6576 4.00002 19.0018V13.9911L2 12.0061L11.9984 1.99997ZM16.5291 13.1803C16.7435 13.5867 16.9717 13.9911 17.5 13.9911C18.0282 13.9911 18.2564 13.5867 18.4708 13.1803C19.3763 13.4595 20.1341 13.8964 20.8335 14.5455C20.5894 14.9343 20.3538 15.3339 20.6177 15.7909C20.8818 16.2485 21.3463 16.2438 21.8055 16.2264C21.9081 16.6781 22 17.1248 22 17.5911C22 18.0573 21.9081 18.5039 21.8056 18.9555C21.3464 18.9381 20.8818 18.9334 20.6177 19.3909C20.3537 19.848 20.5894 20.2477 20.8337 20.6365C20.1394 21.2809 19.3826 21.7208 18.4708 22.0019C18.2564 21.5956 18.0282 21.1911 17.5 21.1911C16.9717 21.1911 16.7435 21.5956 16.5291 22.0019C15.6235 21.7228 14.8657 21.2857 14.1662 20.6365C14.4105 20.2477 14.6462 19.848 14.3823 19.3909C14.1181 18.9333 13.6536 18.9381 13.1943 18.9555C13.0918 18.5039 13 18.0574 13 17.5911C13 17.1248 13.0918 16.6781 13.1944 16.2264C13.6536 16.2438 14.1181 16.2485 14.3823 15.7909C14.6461 15.3339 14.4106 14.9343 14.1664 14.5455C14.8607 13.9012 15.6174 13.4614 16.5291 13.1803ZM19.3 17.5908C19.3 18.5849 18.4941 19.3908 17.5 19.3908C16.5058 19.3908 15.7 18.5849 15.7 17.5908C15.7 16.5967 16.5058 15.7908 17.5 15.7908C18.4941 15.7908 19.3 16.5967 19.3 17.5908Z" fill="black"/>
</svg>
