<svg width="24" height="24" viewBox="0 0 24 24" fill="none" xmlns="http://www.w3.org/2000/svg">
<path fill-rule="evenodd" clip-rule="evenodd" d="M22 11.9939L11.9984 1.98779L2 11.9939L3.41421 13.4073L4.99837 11.8102L5.00002 18.9896C5.00002 20.6455 6.34316 21.9878 8.00002 21.9878H16C17.6569 21.9878 19 20.6455 19 18.9896L18.9984 11.8102L20.5858 13.4073L22 11.9939ZM7.00002 18.9896L6.99837 9.81145L11.9984 4.8145L16.9984 9.81145L17 18.9896C17 19.5416 16.5523 19.989 16 19.989H8.00002C7.44773 19.989 7.00002 19.5416 7.00002 18.9896ZM12 17C12 17 9.30404 14.4049 8.99996 14.0002C8.79066 13.7216 8.66663 13.3753 8.66663 13C8.66663 12.0796 9.41282 11.3334 10.3333 11.3334C10.7086 11.3334 11.0549 11.4574 11.3335 11.6667C11.5622 11.8386 12.003 12.2342 12.003 12.2342C12.003 12.2342 12.4377 11.8386 12.6665 11.6667C12.945 11.4574 13.2914 11.3334 13.6666 11.3334C14.5871 11.3334 15.3333 12.0796 15.3333 13C15.3333 13.3753 15.2093 13.7216 15 14.0002C14.6959 14.4049 12 17 12 17Z" fill="black"/>
</svg>
