<svg width="24" height="24" viewBox="0 0 24 24" fill="none" xmlns="http://www.w3.org/2000/svg">
<path fill-rule="evenodd" clip-rule="evenodd" d="M22 12.0061L11.9984 2L2 12.0061L3.41421 13.4195L4.99837 11.8224L5.00002 19.0018C5.00002 20.6577 6.34316 22 8.00002 22H16C17.6569 22 19 20.6577 19 19.0018L18.9984 11.8224L20.5858 13.4195L22 12.0061ZM12 17C12 17 9.30404 14.4049 8.99996 14.0002C8.79066 13.7216 8.66663 13.3753 8.66663 13C8.66663 12.0796 9.41282 11.3334 10.3333 11.3334C10.7086 11.3334 11.0549 11.4574 11.3335 11.6667C11.5622 11.8386 12.003 12.2342 12.003 12.2342C12.003 12.2342 12.4377 11.8386 12.6665 11.6667C12.945 11.4574 13.2914 11.3334 13.6666 11.3334C14.5871 11.3334 15.3333 12.0796 15.3333 13C15.3333 13.3753 15.2093 13.7216 15 14.0002C14.6959 14.4049 12 17 12 17Z" fill="black"/>
</svg>
