<svg width="24" height="24" viewBox="0 0 24 24" fill="none" xmlns="http://www.w3.org/2000/svg">
<path fill-rule="evenodd" clip-rule="evenodd" d="M22 12.0061L11.9984 2L2 12.0061L4.00002 14V19.0018C4.00002 20.6577 5.34316 22 7.00002 22H12.5V20.0012H7.00002C6.44773 20.0012 6.00002 19.5538 6.00002 19.0018L5.99837 10.8237L11.9984 4.8267L17.9984 10.8237L18 11.5C19.2441 11.5 20.3702 12.0048 21.1848 12.8208L22 12.0061ZM22 22H14V18H15V16C15 14.3431 16.3431 13 18 13C19.6569 13 21 14.3431 21 16V18H22V22ZM17 16C17 15.4477 17.4477 15 18 15C18.5523 15 19 15.4477 19 16V18H17V16Z" fill="black"/>
</svg>
