<svg width="24" height="24" viewBox="0 0 24 24" fill="none" xmlns="http://www.w3.org/2000/svg">
<path fill-rule="evenodd" clip-rule="evenodd" d="M11.9984 2L22 12.0061L21.2164 12.7893C20.3173 12.079 19.2101 11.6207 18.0012 11.5207L17.9984 10.8237L11.9984 4.8267L5.99837 10.8237L6.00002 19.0018C6.00002 19.5538 6.44773 20.0012 7.00002 20.0012H12.0445C12.3968 20.7683 12.9061 21.4482 13.5312 22H7.00002C5.34316 22 4.00002 20.6577 4.00002 19.0018L4 14L2 12.0061L11.9984 2ZM22 17.5C22 19.9853 19.9853 22 17.5 22C15.0147 22 13 19.9853 13 17.5C13 15.0147 15.0147 13 17.5 13C19.9853 13 22 15.0147 22 17.5ZM20.0303 16.5303L17 19.5607L14.9697 17.5303L16.0303 16.4697L17 17.4393L18.9697 15.4697L20.0303 16.5303Z" fill="black"/>
</svg>
