<svg width="24" height="24" viewBox="0 0 24 24" fill="none" xmlns="http://www.w3.org/2000/svg">
<path fill-rule="evenodd" clip-rule="evenodd" d="M11.9984 2L22 12.0061L21.2164 12.7893C20.317 12.0788 19.2094 11.6203 18 11.5206L17.9984 10.8237L11.9984 4.8267L5.99837 10.8237L6.00002 19.0018C6.00002 19.5538 6.44773 20.0012 7.00002 20.0012H12.0445C12.3968 20.7683 12.9061 21.4482 13.5312 22H7.00002C5.34316 22 4.00002 20.6577 4.00002 19.0018V14L2 12.0061L11.9984 2ZM22 17.5C22 15.0147 19.9853 13 17.5 13C15.0147 13 13 15.0147 13 17.5C13 19.9853 15.0147 22 17.5 22C19.9853 22 22 19.9853 22 17.5ZM17 18.2929V15H18V18.2929L19.1464 17.1464L19.8536 17.8536L17.5 20.2071L15.1464 17.8536L15.8536 17.1464L17 18.2929Z" fill="black"/>
</svg>
