<svg width="24" height="24" viewBox="0 0 24 24" fill="none" xmlns="http://www.w3.org/2000/svg">
<path fill-rule="evenodd" clip-rule="evenodd" d="M22 12.0061L11.9984 2L2 12.0061L4.00002 13.9911V19.0018C4.00002 20.6577 5.34316 22 7.00002 22H13.531C12.2855 20.9006 11.5 19.2921 11.5 17.5002C11.5 14.1865 14.1863 11.5002 17.5 11.5002C18.9034 11.5002 20.1943 11.982 21.2163 12.7893L22 12.0061ZM16.5291 13.1803C16.7436 13.5867 16.9718 13.9911 17.5 13.9911C18.0282 13.9911 18.2564 13.5867 18.4709 13.1803C19.3763 13.4595 20.1341 13.8964 20.8336 14.5455C20.5894 14.9343 20.3539 15.3339 20.6177 15.7909C20.8819 16.2485 21.3463 16.2438 21.8055 16.2264C21.9081 16.6781 22 17.1248 22 17.5911C22 18.0573 21.9082 18.5039 21.8056 18.9555C21.3464 18.9381 20.8819 18.9333 20.6177 19.3909C20.3538 19.848 20.5895 20.2477 20.8338 20.6365C20.1394 21.2809 19.3827 21.7208 18.4709 22.0019C18.2564 21.5956 18.0282 21.1911 17.5 21.1911C16.9718 21.1911 16.7436 21.5956 16.5291 22.0019C15.6236 21.7227 14.8657 21.2857 14.1662 20.6365C14.4105 20.2477 14.6462 19.848 14.3823 19.3909C14.1181 18.9333 13.6536 18.9381 13.1944 18.9555C13.0918 18.5039 13 18.0573 13 17.5911C13 17.1248 13.0919 16.6781 13.1945 16.2264C13.6537 16.2438 14.1182 16.2485 14.3823 15.7909C14.6462 15.3339 14.4106 14.9343 14.1664 14.5455C14.8607 13.9012 15.6174 13.4614 16.5291 13.1803ZM19.3 17.5908C19.3 18.5849 18.4941 19.3908 17.5 19.3908C16.5059 19.3908 15.7 18.5849 15.7 17.5908C15.7 16.5967 16.5059 15.7908 17.5 15.7908C18.4941 15.7908 19.3 16.5967 19.3 17.5908Z" fill="black"/>
</svg>
