<svg width="24" height="24" viewBox="0 0 24 24" fill="none" xmlns="http://www.w3.org/2000/svg">
<path fill-rule="evenodd" clip-rule="evenodd" d="M11.9984 2L22 12.0061L21.2164 12.7893C20.3173 12.079 19.2101 11.6207 18.0012 11.5207L17.9984 10.8237L11.9984 4.8267L5.99837 10.8237L6.00002 19.0018C6.00002 19.5538 6.44773 20.0012 7.00002 20.0012H12.0445C12.3968 20.7683 12.9061 21.4482 13.5312 22H7.00002C5.34316 22 4.00002 20.6577 4.00002 19.0018V14L2 12.0061L11.9984 2ZM22 17.5C22 19.9853 19.9853 22 17.5 22C15.0147 22 13 19.9853 13 17.5C13 15.0147 15.0147 13 17.5 13C19.9853 13 22 15.0147 22 17.5ZM16.4393 17.5L14.9697 16.0303L16.0303 14.9697L17.5 16.4393L18.9697 14.9697L20.0303 16.0303L18.5607 17.5L20.0303 18.9697L18.9697 20.0303L17.5 18.5607L16.0303 20.0303L14.9697 18.9697L16.4393 17.5Z" fill="black"/>
</svg>
