<svg width="24" height="24" viewBox="0 0 24 24" fill="none" xmlns="http://www.w3.org/2000/svg">
<path fill-rule="evenodd" clip-rule="evenodd" d="M11.9984 2L22 12.0061L21.2164 12.7893C20.3173 12.079 19.2101 11.6207 18.0012 11.5207L17.9984 10.8237L11.9984 4.8267L5.99837 10.8237L6.00002 19.0018C6.00002 19.5538 6.44773 20.0012 7.00002 20.0012H12.0445C12.3968 20.7683 12.9061 21.4482 13.5312 22H7.00002C5.34316 22 4.00002 20.6577 4.00002 19.0018V14L2 12.0061L11.9984 2ZM17.5 22C19.9853 22 22 19.9853 22 17.5C22 15.0147 19.9853 13 17.5 13C15.0147 13 13 15.0147 13 17.5C13 19.9853 15.0147 22 17.5 22ZM16.75 20.5V19H18.25V20.5H16.75ZM18.25 14.5V18H16.75V14.5H18.25Z" fill="black"/>
</svg>
