<svg width="24" height="24" viewBox="0 0 24 24" fill="none" xmlns="http://www.w3.org/2000/svg">
<path fill-rule="evenodd" clip-rule="evenodd" d="M22 12.0061L11.9984 2L2 12.0061L4.00002 14V19.0018C4.00002 20.6577 5.34316 22 7.00002 22H13.531C12.2855 20.9006 11.5 19.2921 11.5 17.5002C11.5 14.1865 14.1863 11.5002 17.5 11.5002C18.9034 11.5002 20.1943 11.982 21.2163 12.7893L22 12.0061ZM17.5 22C19.9853 22 22 19.9853 22 17.5C22 15.0147 19.9853 13 17.5 13C15.0147 13 13 15.0147 13 17.5C13 19.9853 15.0147 22 17.5 22ZM16.75 20.5V19H18.25V20.5H16.75ZM18.25 14.5V18H16.75V14.5H18.25Z" fill="black"/>
</svg>
