<svg width="24" height="24" viewBox="0 0 24 24" fill="none" xmlns="http://www.w3.org/2000/svg">
<path fill-rule="evenodd" clip-rule="evenodd" d="M9.80305 19.6946C8.07976 14.4338 11.9006 12.061 11.9986 12.0012C9.15738 12.6029 7.30143 14.7072 7.03058 18.2698C7.84168 18.9135 8.78058 19.4032 9.80305 19.6946ZM5.00609 15.887C7.52015 10.9247 11.9311 11.9838 12.0001 12.0007C10.416 14.4356 10.5914 17.2366 12.9198 19.9477C13.9867 19.8256 14.9898 19.4936 15.8868 18.994C10.933 16.4845 11.9796 12.0849 12.0001 12.0007C12.6016 14.8425 14.7065 16.6987 18.2697 16.9695C18.9135 16.1584 19.4032 15.2195 19.6945 14.197C14.4122 15.9271 12.0412 12.0684 12.0001 12.0007C14.8419 11.399 16.6986 9.2937 16.9695 5.73032C16.1584 5.08656 15.2195 4.59686 14.197 4.30546C15.9312 9.60041 12.0494 11.9696 11.9999 11.9996C13.5841 9.56458 13.4085 6.76357 11.0803 4.05229C10.0134 4.17441 9.01033 4.50639 8.11335 5.00592C13.0805 7.52257 12.0147 11.9391 11.9999 11.9996L12.0001 12.0007C11.3986 9.1587 9.29358 7.30163 5.73029 7.03052C5.08652 7.84163 4.59682 8.78055 4.30544 9.80305C9.59798 8.06946 11.9679 11.9476 12.0001 12.0007C9.565 10.4161 6.7637 10.5912 4.0523 12.9198C4.17444 13.9867 4.50647 14.9899 5.00609 15.887ZM18.9942 8.11355C16.4889 13.0586 12.1006 12.0247 12.0015 12.0006C14.4362 13.5841 17.2368 13.4082 19.9477 11.0803C19.8256 10.0135 19.4937 9.01048 18.9942 8.11355ZM22 12C22 17.5228 17.5228 22 12 22C6.47715 22 2 17.5228 2 12C2 6.47715 6.47715 2 12 2C17.5228 2 22 6.47715 22 12Z" fill="black"/>
</svg>
