<svg width="24" height="24" viewBox="0 0 24 24" fill="none" xmlns="http://www.w3.org/2000/svg">
<path fill-rule="evenodd" clip-rule="evenodd" d="M2 12C2 6.47715 6.47715 2 12 2C17.5228 2 22 6.47715 22 12C22 17.5228 17.5228 22 12 22C6.47715 22 2 17.5228 2 12ZM17.1348 5.86515C18.8863 7.33266 20 9.53627 20 12C20 16.4183 16.4183 20 12 20C7.58172 20 4 16.4183 4 12C4 8.13401 7.13401 5 11 5C14.3137 5 17 7.68629 17 11C17 13.7614 14.7614 16 12 16C9.79086 16 8 14.2091 8 12C8 10.3431 9.34315 9 11 9C12.1046 9 13 9.89543 13 11C13 11.5523 12.5523 12 12 12C12 11.4477 11.5523 11 11 11C10.4477 11 10 11.4477 10 12C10 13.1046 10.8954 14 12 14C13.6569 14 15 12.6569 15 11C15 8.79086 13.2091 7 11 7C8.23858 7 6 9.23858 6 12C6 15.3137 8.68629 18 12 18C15.866 18 19 14.866 19 11C19 9.04545 18.2991 7.25462 17.1348 5.86515Z" fill="black"/>
</svg>
