<svg width="24" height="24" viewBox="0 0 24 24" fill="none" xmlns="http://www.w3.org/2000/svg">
<path fill-rule="evenodd" clip-rule="evenodd" d="M17.0588 9.5C17.0588 10.5252 16.4392 11.4062 15.5525 11.792V13.3915C18.4859 13.9105 20.4955 16.2646 20.9674 18.8249C21.2035 20.106 20.1162 21 19.0672 21H5.0084C3.89919 21 3 20.1045 3 19V13.8105C3.09253 13.8566 3.18496 13.9029 3.27736 13.9492C4.77975 14.7018 6.27379 15.4502 8.021 15.124C8.19651 15.0669 8.37216 15.0063 8.54799 14.9432C7.66915 14.7299 7.0168 13.9408 7.0168 13C7.0168 11.8954 7.91599 9 9.0252 9C10.1344 9 11.0336 11.8954 11.0336 13C11.0336 13.4155 10.9063 13.8014 10.6885 14.1212C11.6277 13.7669 12.5772 13.4555 13.5441 13.3352V11.792C12.6574 11.4062 12.0378 10.5252 12.0378 9.5C12.0378 8.11929 13.1618 3 14.5483 3C15.9348 3 17.0588 8.11929 17.0588 9.5ZM5.0084 16.9042C6.64526 17.3942 8.0457 17.2444 9.31543 16.8626C9.88654 16.6909 10.4494 16.45 11.0147 16.2081C12.088 15.7487 13.1699 15.2857 14.3331 15.2857C16.7611 15.2857 18.5015 17 18.9538 19H5.0084V16.9042ZM7.5189 6C8.3508 6 9.0252 5.32843 9.0252 4.5C9.0252 3.67157 8.3508 3 7.5189 3C6.68699 3 6.0126 3.67157 6.0126 4.5C6.0126 5.32843 6.68699 6 7.5189 6Z" fill="black"/>
</svg>
