<svg width="24" height="24" viewBox="0 0 24 24" fill="none" xmlns="http://www.w3.org/2000/svg">
<path fill-rule="evenodd" clip-rule="evenodd" d="M8 2C6.89543 2 6 2.89543 6 4V6H4C2.89543 6 2 6.89543 2 8V20C2 21.1046 2.89543 22 4 22H16C17.1046 22 18 21.1046 18 20V18H20C21.1046 18 22 17.1046 22 16V4C22 2.89543 21.1046 2 20 2H8ZM18 16H20V4H8V6H16C17.1046 6 18 6.89543 18 8V16ZM9.5 11C10.3284 11 11 10.3284 11 9.5C11 8.67157 10.3284 8 9.5 8C8.67157 8 8 8.67157 8 9.5C8 10.3284 8.67157 11 9.5 11ZM16 14.9999V19.9999H4V14.9999L6 12.9999L8 14.9999L6.5 18.4999L13 11.9999L16 14.9999Z" fill="black"/>
</svg>
