<svg width="24" height="24" viewBox="0 0 24 24" fill="none" xmlns="http://www.w3.org/2000/svg">
<path fill-rule="evenodd" clip-rule="evenodd" d="M8 2C6.89543 2 6 2.89543 6 4V6H4C2.89543 6 2 6.89543 2 8V20C2 21.1046 2.89543 22 4 22H16C17.1046 22 18 21.1046 18 20V18H20C21.1046 18 22 17.1046 22 16V2H8ZM18 16H20V4H8V6H18V16ZM6 11C5.44771 11 5 10.5523 5 10C5 9.44772 5.44771 9 6 9C6.55228 9 7 9.44772 7 10C7 10.5523 6.55228 11 6 11ZM11.25 16.8546C10.517 16.5579 10 15.8393 10 15C10 13.8954 10.8954 10 12 10C13.1046 10 14 13.8954 14 15C14 15.8393 13.483 16.5579 12.75 16.8546V18.4795C13.5031 18.9425 14 19.4712 14 19.9999H4V19.97C4 19.1035 4.79788 17.4152 6.75 17.0646V16.7993C6.30165 16.54 6 16.0552 6 15.5C6 14.6716 6.67157 12 7.5 12C8.32843 12 9 14.6716 9 15.5C9 16.0552 8.69835 16.54 8.25 16.7993V17.0394C9.20899 17.1347 10.288 17.3969 11.25 17.7611V16.8546Z" fill="black"/>
</svg>
