<svg width="24" height="24" viewBox="0 0 24 24" fill="none" xmlns="http://www.w3.org/2000/svg">
<path fill-rule="evenodd" clip-rule="evenodd" d="M8 2C6.89543 2 6 2.89543 6 4V6H4C2.89543 6 2 6.89543 2 8V20C2 21.1046 2.89543 22 4 22H16C17.1046 22 18 21.1046 18 20V18H20C21.1046 18 22 17.1046 22 16V2H8ZM18 16H20V4H8V6H18V16ZM4 8H16V13.5858L13 10.5858L9.00001 14.5858L6.00001 11.5858L4 13.5858V8ZM13 13.4142L16 16.4142V20H4V16.4143L6.00001 14.4142L7.5858 16L6.29291 17.2929L7.70712 18.7071L13 13.4142ZM9 12C9.55228 12 10 11.5523 10 11C10 10.4477 9.55228 10 9 10C8.44772 10 8 10.4477 8 11C8 11.5523 8.44772 12 9 12Z" fill="black"/>
</svg>
