<svg width="24" height="24" viewBox="0 0 24 24" fill="none" xmlns="http://www.w3.org/2000/svg">
<path fill-rule="evenodd" clip-rule="evenodd" d="M12 22C17.5228 22 22 17.5228 22 12C22 6.47715 17.5228 2 12 2C6.47715 2 2 6.47715 2 12C2 17.5228 6.47715 22 12 22ZM8 11L4.42384 14.5762C5.4961 17.7305 8.48302 20 12 20C15.517 20 18.5039 17.7305 19.5762 14.5762L15 10L8.5 16.5L10 13L8 11ZM11.5 9C12.3284 9 13 8.32843 13 7.5C13 6.67157 12.3284 6 11.5 6C10.6716 6 10 6.67157 10 7.5C10 8.32843 10.6716 9 11.5 9Z" fill="black"/>
</svg>
