<svg width="24" height="24" viewBox="0 0 24 24" fill="none" xmlns="http://www.w3.org/2000/svg">
<path fill-rule="evenodd" clip-rule="evenodd" d="M12 7C13.1046 7 14 6.10457 14 5C14 3.89543 13.1046 3 12 3C10.8954 3 10 3.89543 10 5C10 6.10457 10.8954 7 12 7ZM21 13.5858L15 7.58582L11 11.5858L8 8.58582L3 13.5858V19C3 20.1046 3.89543 21 5 21H19C20.1046 21 21 20.1046 21 19V13.5858ZM8 11.4142L9.58579 13L7.79289 14.7929L9.20711 16.2071L15 10.4142L19 14.4142V19H5V14.4142L8 11.4142Z" fill="black"/>
</svg>
