<svg width="24" height="24" viewBox="0 0 24 24" fill="none" xmlns="http://www.w3.org/2000/svg">
<path fill-rule="evenodd" clip-rule="evenodd" d="M12 22C17.5228 22 22 17.5228 22 12C22 6.47715 17.5228 2 12 2C6.47715 2 2 6.47715 2 12C2 17.5228 6.47715 22 12 22ZM8 17.4909C6.91739 17.4496 6.27432 17.2691 5.74554 16.9886C7.21143 18.8241 9.46839 20 12 20C14.4187 20 16.5868 18.9266 18.0537 17.2302C17.4089 16.6023 16.4541 16.0719 15.25 16.0066V15.7993C15.6983 15.54 16 15.0552 16 14.5C16 13.6716 15.3284 11 14.5 11C13.6716 11 13 13.6716 13 14.5C13 15.0552 13.3016 15.54 13.75 15.7993V16.1253C13.0387 16.2666 12.3944 16.5083 11.75 16.7499C11.1819 16.9629 10.6139 17.176 10 17.3202V15.7324C10.5978 15.3866 11 14.7403 11 14C11 12.8954 10.1046 9 9 9C7.89543 9 7 12.8954 7 14C7 14.7403 7.4022 15.3866 8 15.7324V17.4909ZM16 9C16.5523 9 17 8.55228 17 8C17 7.44772 16.5523 7 16 7C15.4477 7 15 7.44772 15 8C15 8.55228 15.4477 9 16 9Z" fill="black"/>
</svg>
