<svg width="24" height="24" viewBox="0 0 24 24" fill="none" xmlns="http://www.w3.org/2000/svg">
<path fill-rule="evenodd" clip-rule="evenodd" d="M7.5 6C8.32843 6 9 5.32843 9 4.5C9 3.67157 8.32843 3 7.5 3C6.67157 3 6 3.67157 6 4.5C6 5.32843 6.67157 6 7.5 6ZM20 19.9999C20 17.4952 18.2433 14.9904 15.5 14.4107V11.792C16.383 11.4062 17 10.5252 17 9.5C17 8.11929 15.8807 3 14.5 3C13.1193 3 12 8.11929 12 9.5C12 10.5252 12.617 11.4062 13.5 11.792V14.3443C12.5481 14.4842 11.6703 14.8539 10.782 15.228C10.5229 15.3371 10.2629 15.4466 10 15.5509V14.7324C10.5978 14.3866 11 13.7403 11 13C11 11.8954 10.1046 9 9 9C7.89543 9 7 11.8954 7 13C7 13.7403 7.4022 14.3866 8 14.7324V16.1383C6.84069 16.3219 5.55209 16.2045 4 15.4285V19.9999H20Z" fill="black"/>
</svg>
