<svg width="24" height="24" viewBox="0 0 24 24" fill="none" xmlns="http://www.w3.org/2000/svg">
<path fill-rule="evenodd" clip-rule="evenodd" d="M12 4C7.58172 4 4 7.58172 4 12C4 12.4965 4.04524 12.9825 4.13181 13.454L8.00001 9.58582L11 12.5858L15 8.58582L19.8682 13.454C19.9548 12.9825 20 12.4965 20 12C20 7.58172 16.4183 4 12 4ZM12 20C8.86612 20 6.15311 18.198 4.8406 15.5737L8.00001 12.4142L9.5858 14L7.79291 15.7929L9.20712 17.2071L15 11.4142L19.1594 15.5736C17.8469 18.198 15.1339 20 12 20ZM2 12C2 6.47715 6.47715 2 12 2C17.5228 2 22 6.47715 22 12C22 17.5228 17.5228 22 12 22C6.47715 22 2 17.5228 2 12ZM12 8C12.5523 8 13 7.55228 13 7C13 6.44772 12.5523 6 12 6C11.4477 6 11 6.44772 11 7C11 7.55228 11.4477 8 12 8Z" fill="black"/>
</svg>
