<svg width="24" height="24" viewBox="0 0 24 24" fill="none" xmlns="http://www.w3.org/2000/svg">
<path fill-rule="evenodd" clip-rule="evenodd" d="M3 5C3 3.89543 3.89543 3 5 3H19C20.1046 3 21 3.89543 21 5V19C21 20.1046 20.1046 21 19 21H5C3.89543 21 3 20.1046 3 19V12V5ZM5 16.5468V19H19C19 18.6256 18.7004 17.8721 17.9445 17.1703C17.2263 16.5033 16.2115 16 15 16C14.419 16 13.8588 16.1442 13.2394 16.3747C12.9391 16.4864 12.6398 16.6125 12.3154 16.7491L12.3154 16.7491L12.2767 16.7654C11.9446 16.9052 11.5871 17.0551 11.2167 17.1898C10.4707 17.4611 9.62942 17.6875 8.67188 17.6875C7.70629 17.6875 6.67907 17.4576 5.55279 16.8944C5.36293 16.7995 5.17796 16.683 5 16.5468ZM19 15.4385V5H5V12C5 13.7099 5.85865 14.8113 6.44721 15.1056C6.9391 15.3515 7.38315 15.505 7.78941 15.5921C7.30966 15.2268 7 14.6496 7 14C7 12.8954 7.89543 9 9 9C10.1046 9 11 12.8954 11 14C11 14.5067 10.8115 14.9695 10.5009 15.3219L10.5333 15.3102C10.8504 15.1949 11.1648 15.0635 11.5006 14.9221L11.5516 14.9006L11.5518 14.9006C11.8657 14.7683 12.2008 14.6272 12.5419 14.5003C12.695 14.4433 12.8522 14.388 13.0136 14.3363C13.1126 13.3395 13.7404 11 14.5 11C15.1986 11 15.7857 12.9787 15.9525 14.072C17.1595 14.2567 18.1942 14.7793 19 15.4385ZM16 9C16.5523 9 17 8.55228 17 8C17 7.44772 16.5523 7 16 7C15.4477 7 15 7.44772 15 8C15 8.55228 15.4477 9 16 9Z" fill="black"/>
</svg>
