<svg width="24" height="24" viewBox="0 0 24 24" fill="none" xmlns="http://www.w3.org/2000/svg">
<path fill-rule="evenodd" clip-rule="evenodd" d="M3 5C3 3.89543 3.89543 3 5 3H19C20.1046 3 21 3.89543 21 5V19C21 20.1046 20.1046 21 19 21H5C3.89543 21 3 20.1046 3 19V5ZM19 5H5V12.5858L8.00001 9.58582L11 12.5858L15 8.58582L19 12.5858V5ZM5 19V15.4143L8.00001 12.4142L9.5858 14L7.79291 15.7929L9.20712 17.2071L15 11.4142L19 15.4142V19H5ZM12 9C12.5523 9 13 8.55229 13 8C13 7.44772 12.5523 7 12 7C11.4477 7 11 7.44772 11 8C11 8.55229 11.4477 9 12 9Z" fill="black"/>
</svg>
