<svg width="24" height="24" viewBox="0 0 24 24" fill="none" xmlns="http://www.w3.org/2000/svg">
<path fill-rule="evenodd" clip-rule="evenodd" d="M5 3H19C20.1046 3 21 3.89543 21 5V19C21 20.1046 20.1046 21 19 21H5C3.89543 21 3 20.1046 3 19V5C3 3.89543 3.89543 3 5 3ZM17 8C17 8.55228 16.5523 9 16 9C15.4477 9 15 8.55228 15 8C15 7.44772 15.4477 7 16 7C16.5523 7 17 7.44772 17 8ZM11 14C11 14.8393 10.483 15.5579 9.75 15.8546V17.5821C10.7132 17.4137 11.5505 17.0645 12.3361 16.737C12.8213 16.5347 13.2868 16.3406 13.75 16.2024V15.7993C13.3016 15.54 13 15.0552 13 14.5C13 13.6716 13.6716 11 14.5 11C15.3284 11 16 13.6716 16 14.5C16 15.0552 15.6984 15.54 15.25 15.7993V16.0066C17.5997 16.1339 19 18.0327 19 18.97V18.9999H5V16.4999C5.75377 17.0629 6.89515 17.5986 8.25 17.6754V15.8546C7.51704 15.5579 7 14.8393 7 14C7 12.8954 7.89543 9 9 9C10.1046 9 11 12.8954 11 14Z" fill="black"/>
</svg>
