<svg width="24" height="24" viewBox="0 0 24 24" fill="none" xmlns="http://www.w3.org/2000/svg">
<path fill-rule="evenodd" clip-rule="evenodd" d="M8 2C6.89543 2 6 2.89543 6 4V6H4C2.89543 6 2 6.89543 2 8V20C2 21.1046 2.89543 22 4 22H16C17.1046 22 18 21.1046 18 20V18H20C21.1046 18 22 17.1046 22 16V2H8ZM18 16H20V4H8V6H18V16ZM4 19.9984V20H16V8L4 8V16.4385C4.56548 15.9759 5.24367 15.5806 6.01505 15.3221C6.11857 14.3174 6.74397 12 7.5 12C8.19632 12 8.78183 13.9658 8.95085 15.0613C9.32068 15.1086 9.67542 15.1806 10.0179 15.2684C10.0061 15.1806 10 15.091 10 15C10 13.8954 10.8954 10 12 10C13.1046 10 14 13.8954 14 15L14.0001 17C14.0001 17.5471 13.5462 18.0009 13 18C11.2584 17.9917 9.73694 17 8 17C6.78849 17 5.77374 17.5033 5.05545 18.1703C4.3007 18.8711 4.00085 19.6235 4 19.9984ZM7 10C7 10.5523 6.55229 11 6 11C5.44772 11 5 10.5523 5 10C5 9.44772 5.44772 9 6 9C6.55229 9 7 9.44772 7 10Z" fill="black"/>
</svg>
