<svg width="24" height="24" viewBox="0 0 24 24" fill="none" xmlns="http://www.w3.org/2000/svg">
<path fill-rule="evenodd" clip-rule="evenodd" d="M12 4C7.58172 4 4 7.58172 4 12C4 13.9635 5.636 15.2647 7.64828 15.4741C7.2498 15.1085 7 14.5834 7 14C7 12.8954 7.89543 9 9 9C10.1046 9 11 12.8954 11 14C11 14.366 10.9017 14.7091 10.73 15.0043C10.9001 14.9497 11.0731 14.8924 11.2497 14.8333L11.4398 14.7695L11.4398 14.7695C11.9348 14.603 12.4653 14.4247 13.0194 14.2816C13.1351 13.2566 13.754 11 14.5 11C15.1986 11 15.7856 12.9785 15.9525 14.0719C17.2387 14.2683 18.3291 14.8484 19.1594 15.5737C19.6973 14.4981 20 13.2844 20 12C20 7.58172 16.4183 4 12 4ZM18.0329 17.2542C17.3171 16.5513 16.2648 16 15 16C14.0642 16 13.1225 16.3153 11.9578 16.7053L11.8845 16.7299C10.749 17.1099 9.41234 17.5485 7.96611 17.4994C7.26133 17.4755 6.53051 17.3411 5.83213 17.0952C7.29949 18.8695 9.51772 20 12 20C14.4073 20 16.5663 18.9367 18.0329 17.2542ZM2 12C2 6.47715 6.47715 2 12 2C17.5228 2 22 6.47715 22 12C22 17.5228 17.5228 22 12 22C6.47715 22 2 17.5228 2 12ZM16 9C16.5523 9 17 8.55228 17 8C17 7.44772 16.5523 7 16 7C15.4477 7 15 7.44772 15 8C15 8.55228 15.4477 9 16 9Z" fill="black"/>
</svg>
