<svg width="24" height="24" viewBox="0 0 24 24" fill="none" xmlns="http://www.w3.org/2000/svg">
<path fill-rule="evenodd" clip-rule="evenodd" d="M6.66667 3H17.3333L22 6.5V18C22 19.6569 20.6569 21 19 21H5C3.34315 21 2 19.6569 2 18V6.5L6.66667 3ZM4 14.8293V18C4 18.5523 4.44772 19 5 19H19C19.5523 19 20 18.5523 20 18V14.8293C19.6872 14.9398 19.3506 15 19 15H15.874C15.4299 16.7252 13.8638 18 12 18C10.1362 18 8.57006 16.7252 8.12602 15H5C4.64936 15 4.31278 14.9398 4 14.8293ZM20 12C20 12.5523 19.5523 13 19 13H14V14C14 15.1046 13.1046 16 12 16C10.8954 16 10 15.1046 10 14V13H5C4.44772 13 4 12.5523 4 12V9H8.12602C8.57006 10.7252 10.1362 12 12 12C13.8638 12 15.4299 10.7252 15.874 9H20V12ZM19.3333 7L16.6667 5H7.33333L4.66667 7H10V8C10 9.10457 10.8954 10 12 10C13.1046 10 14 9.10457 14 8V7H19.3333Z" fill="black"/>
</svg>
