<svg width="24" height="24" viewBox="0 0 24 24" fill="none" xmlns="http://www.w3.org/2000/svg">
<path fill-rule="evenodd" clip-rule="evenodd" d="M7 3H6.66667L6.4 3.2L2.4 6.2L2 6.5V7V10C2 11.6569 3.34315 13 5 13H19C20.6569 13 22 11.6569 22 10V7V6.5L21.6 6.2L17.6 3.2L17.3333 3H17H7ZM4.66667 7L7.33333 5H16.6667L19.3333 7H14V8C14 9.10457 13.1046 10 12 10C10.8954 10 10 9.10457 10 8V7H4.66667ZM2 15H10V16C10 17.1046 10.8954 18 12 18C13.1046 18 14 17.1046 14 16V15H22V18C22 19.6569 20.6569 21 19 21H5C3.34315 21 2 19.6569 2 18V15Z" fill="black"/>
</svg>
