<svg width="24" height="24" viewBox="0 0 24 24" fill="none" xmlns="http://www.w3.org/2000/svg">
<path fill-rule="evenodd" clip-rule="evenodd" d="M7 4H6.46482L6.16795 4.4453L2.16795 10.4453L2 10.6972V11V17C2 18.6569 3.34315 20 5 20H19C20.6569 20 22 18.6569 22 17V11V10.6972L21.8321 10.4453L17.8321 4.4453L17.5352 4H17H7ZM4.20185 11L7.53518 6H16.4648L19.7981 11H15H14V12C14 13.1046 13.1046 14 12 14C10.8954 14 10 13.1046 10 12V11H9H4.20185ZM4 13V17C4 17.5523 4.44772 18 5 18H19C19.5523 18 20 17.5523 20 17V13H15.874C15.4299 14.7252 13.8638 16 12 16C10.1362 16 8.57006 14.7252 8.12602 13H4Z" fill="black"/>
</svg>
