<svg width="24" height="24" viewBox="0 0 24 24" fill="none" xmlns="http://www.w3.org/2000/svg">
<path fill-rule="evenodd" clip-rule="evenodd" d="M10.8885 3.70015C11.2419 3.88985 11.6113 4.08812 11.9999 4.08812C12.3869 4.08812 12.7543 3.89117 13.1082 3.70145C13.2455 3.62783 13.3809 3.55529 13.5145 3.49577C14.3713 3.11421 15.4543 2.83291 17.1623 3.114L17.7939 3.21794L19.7526 10.3251C20.2635 10.2392 20.7741 10.1487 21.2801 10.037L21.2816 10.0367C21.2816 10.0367 21.72 11.988 21.7177 11.9886L21.7166 11.9888C20.7527 12.2029 19.7764 12.3576 18.7992 12.4963C17.03 12.7475 14.6057 13 11.9998 13C9.4384 13 7.01417 12.7474 5.23521 12.4965C4.24994 12.3575 3.26362 12.201 2.29065 11.9904L2.28585 11.9894L2.71416 10.0358L2.71572 10.0361C3.23209 10.1479 3.75334 10.2392 4.27444 10.3258L6.20315 3.21838L6.8375 3.11399C8.54549 2.83291 9.62851 3.11421 10.4853 3.49578C10.6174 3.55463 10.7518 3.62675 10.8885 3.70015ZM2 16L2.41826 14.0442C5.25163 14.6501 8.10913 14.9293 10.9999 15.0363V16H12.9999V15.0363C15.8907 14.9293 18.7483 14.6502 21.5817 14.0442L22 16C21.9179 16.0175 21.8382 16.0346 21.7603 16.0514C21.1632 16.1796 20.6722 16.2851 19.9999 16.3961V18C19.9999 19.6569 18.6568 21 16.9999 21H15.9999C14.3431 21 12.9999 19.6568 12.9999 18L10.9999 18C10.9999 19.6569 9.65676 21 7.9999 21H6.9999C5.34305 21 3.9999 19.6569 3.9999 18V16.396C3.32804 16.2851 2.83735 16.1797 2.24089 16.0516C2.16263 16.0348 2.08255 16.0176 2 16ZM5.9999 16.6832V18C5.9999 18.5523 6.44762 19 6.9999 19H7.9999C8.55219 19 8.9999 18.5523 8.9999 18V16.9536C7.97397 16.8941 6.97208 16.802 5.9999 16.6832ZM17.9999 16.6833C17.0278 16.802 16.0259 16.8942 14.9999 16.9536V18C14.9999 18.5523 15.4476 19 15.9999 19H16.9999C17.5522 19 17.9999 18.5523 17.9999 18V16.6833Z" fill="black"/>
</svg>
