<svg width="24" height="24" viewBox="0 0 24 24" fill="none" xmlns="http://www.w3.org/2000/svg">
<path fill-rule="evenodd" clip-rule="evenodd" d="M11.9999 4.08812C11.4609 4.08812 10.959 3.70674 10.4853 3.49578C9.62851 3.11421 8.54549 2.83291 6.8375 3.11399L6.20315 3.21838L4.27444 10.3258C3.75334 10.2392 3.23209 10.1479 2.71572 10.0361L2.71416 10.0358L2.28585 11.9894L2.29065 11.9904C3.26362 12.201 4.24994 12.3575 5.23521 12.4965C7.01417 12.7474 9.4384 13 11.9998 13C14.6057 13 17.03 12.7475 18.7992 12.4963C19.7764 12.3576 20.7527 12.2029 21.7166 11.9888L21.7177 11.9886C21.72 11.988 21.2816 10.0367 21.2816 10.0367L21.2801 10.037C20.7741 10.1487 20.2635 10.2392 19.7526 10.3251L17.7939 3.21794L17.1623 3.114C15.4543 2.83291 14.3713 3.11421 13.5145 3.49577C13.0365 3.70866 12.5371 4.08812 11.9999 4.08812ZM11.9998 11C9.90102 11 7.88583 10.8213 6.2678 10.6168L7.78859 5.01264C8.69078 4.95001 9.23543 5.12852 9.67162 5.32278C9.99485 5.46673 10.3035 5.64128 10.6282 5.78199C11.0052 5.94531 11.4523 6.08812 11.9999 6.08812C12.5475 6.08812 12.9946 5.94531 13.3715 5.78199C13.6963 5.64128 14.0049 5.46673 14.3281 5.32279C14.7648 5.12832 15.3101 4.94965 16.214 5.01284L17.7588 10.6182C16.1498 10.822 14.1332 11 11.9998 11ZM2.41826 14.0442L2 16C2.7117 16.1522 3.23989 16.2706 3.9999 16.396V18C3.9999 19.6569 5.34305 21 6.9999 21H7.9999C9.65676 21 10.9999 19.6569 10.9999 18L12.9999 18C12.9999 19.6568 14.3431 21 15.9999 21H16.9999C18.6568 21 19.9999 19.6569 19.9999 18V16.3961C20.7599 16.2706 21.2882 16.1522 22 16L21.5817 14.0442C18.7483 14.6502 15.8907 14.9293 12.9999 15.0363V16H10.9999V15.0363C8.10913 14.9293 5.25163 14.6501 2.41826 14.0442ZM5.9999 18V16.6832C6.97208 16.802 7.97397 16.8941 8.9999 16.9536V18C8.9999 18.5523 8.55219 19 7.9999 19H6.9999C6.44762 19 5.9999 18.5523 5.9999 18ZM14.9999 16.9536C16.0259 16.8942 17.0278 16.802 17.9999 16.6833V18C17.9999 18.5523 17.5522 19 16.9999 19H15.9999C15.4476 19 14.9999 18.5523 14.9999 18V16.9536Z" fill="black"/>
</svg>
