<svg width="24" height="24" viewBox="0 0 24 24" fill="none" xmlns="http://www.w3.org/2000/svg">
<path fill-rule="evenodd" clip-rule="evenodd" d="M7 9C5.34315 9 4 10.3431 4 12C4 13.6569 5.34315 15 7 15C8.05356 15 9.0497 14.2817 9.87242 13.3415C10.2654 12.8924 10.5779 12.4385 10.7926 12.095C10.8131 12.0622 10.8327 12.0305 10.8513 12C10.8327 11.9695 10.8131 11.9378 10.7926 11.905C10.5779 11.5615 10.2654 11.1076 9.87242 10.6585C9.0497 9.71825 8.05356 9 7 9ZM13.1487 12C13.1673 12.0305 13.1869 12.0622 13.2074 12.095C13.4221 12.4385 13.7346 12.8924 14.1276 13.3415C14.9503 14.2817 15.9464 15 17 15C18.6569 15 20 13.6569 20 12C20 10.3431 18.6569 9 17 9C15.9464 9 14.9503 9.71825 14.1276 10.6585C13.7346 11.1076 13.4221 11.5615 13.2074 11.905C13.1869 11.9378 13.1673 11.9695 13.1487 12ZM12 13.8782C11.8186 14.127 11.6106 14.3922 11.3776 14.6585C10.4503 15.7183 8.94644 17 7 17C4.23858 17 2 14.7614 2 12C2 9.23858 4.23858 7 7 7C8.94644 7 10.4503 8.28175 11.3776 9.3415C11.6106 9.60779 11.8186 9.87299 12 10.1218C12.1814 9.87299 12.3894 9.60779 12.6224 9.3415C13.5497 8.28175 15.0536 7 17 7C19.7614 7 22 9.23858 22 12C22 14.7614 19.7614 17 17 17C15.0536 17 13.5497 15.7183 12.6224 14.6585C12.3894 14.3922 12.1814 14.127 12 13.8782Z" fill="black"/>
</svg>
