<svg width="24" height="24" viewBox="0 0 24 24" fill="none" xmlns="http://www.w3.org/2000/svg">
<path fill-rule="evenodd" clip-rule="evenodd" d="M3 2.99994L18 2.99999C19.6569 3 21 4.34315 21 5.99999V18C21 19.6569 19.6569 21 18 21H3.00006L3 2.99994ZM5 4.99994L5.00001 7H7.00001L7 4.99994H5ZM9 4.99994L9.00001 19H18C18.5523 19 19 18.5523 19 18V5.99999C19 5.44771 18.5523 5 18 4.99999L9 4.99994ZM7.00001 19V17H5.00001L5.00002 19H7.00001ZM5.00001 15H7.00001V13H5.00001V15ZM5.00001 11H7.00001V9H5.00001V11ZM10.1425 11.4855L11.6425 8.98547L13.3575 10.0145L12.1662 12L13.3575 13.9855L11.6425 15.0145L10.1425 12.5145V11.4855ZM16.3575 8.98547L17.8575 11.4855V12.5145L16.3575 15.0145L14.6425 13.9855L15.8338 12L14.6425 10.0145L16.3575 8.98547Z" fill="black"/>
</svg>
