<svg width="24" height="24" viewBox="0 0 24 24" fill="none" xmlns="http://www.w3.org/2000/svg">
<path fill-rule="evenodd" clip-rule="evenodd" d="M7.00008 3.00037H2L2.00005 4.00042C2.00026 7.70911 2.0002 11.4178 2.00014 15.1265L2.00014 15.1265L2.00008 20.0004L2.00007 21.0004H16.0001C17.1043 21.0004 18.0001 20.1055 18.0001 19.0006V19H20.0001C21.1046 19 22.0001 18.1046 22.0001 17V7C22.0001 5.89543 21.1046 5 20.0001 5H18.0001C17.9997 3.89464 17.103 3.00006 15.9986 3.00069C14.0558 3.0018 12.1134 3.00134 10.1706 3.00087L10.1704 3.00087L10.17 3.00087C9.11358 3.00062 8.05697 3.00037 7.00008 3.00037ZM18.0001 7L18.0001 17H20.0001V7H18.0001ZM4.00017 7.00037L4.0001 5.00037H6.00008V7.00037H4.00017ZM8.00008 19.0004V5.00043L10.1686 5.00087C12.1122 5.00134 14.0565 5.00172 16.0001 5.00061L16.0001 19.0004H8.00008ZM6.00008 17.0004V19.0004H4.00008L4.00011 17.0004H6.00008ZM6.00008 15.0004H4.00014L4.00017 13.0004H6.00008V15.0004ZM6.00008 11.0004H4.00019L4.00019 9.00037H6.00008V11.0004Z" fill="black"/>
</svg>
