<svg width="24" height="24" viewBox="0 0 24 24" fill="none" xmlns="http://www.w3.org/2000/svg">
<path fill-rule="evenodd" clip-rule="evenodd" d="M3 3V21.0004L19 21C20.1046 21 21 20.1046 21 19V5C21 3.89543 20.1046 3 19 3H3ZM5 7.00039V5H7V7.00039H5ZM5 19.0004H7V17.0004H5V19.0004ZM7 13.0004V15.0004H5V13.0004H7ZM7 11.0004H5V9.00039H7V11.0004ZM17 15V17H11V15H17ZM13 9C13.5523 9 14 8.55228 14 8C14 7.44772 13.5523 7 13 7C12.4477 7 12 7.44772 12 8C12 8.55228 12.4477 9 13 9ZM11 11V13H17V11L15 9L13 11L12 10L11 11Z" fill="black"/>
</svg>
