<svg width="24" height="24" viewBox="0 0 24 24" fill="none" xmlns="http://www.w3.org/2000/svg">
<path fill-rule="evenodd" clip-rule="evenodd" d="M3 3H19C20.1046 3 21 3.89543 21 5V19C21 20.1046 20.1046 21 19 21L3 21.0004V3ZM5 5V7.00039H7V5H5ZM7 19.0004H5V17.0004H7V19.0004ZM7 15.0004V13.0004H5V15.0004H7ZM5 11.0004H7V9.00039H5V11.0004ZM13.1 8.25V10.4411L11.2025 9.34558L10.3025 10.9044L12.2 12L10.3024 13.0956L11.2024 14.6544L13.1 13.5588V15.75H14.9V13.5588L16.7977 14.6544L17.6977 13.0956L15.8 12L17.6976 10.9044L16.7976 9.34558L14.9 10.4411V8.25H13.1Z" fill="black"/>
</svg>
