<svg width="24" height="24" viewBox="0 0 24 24" fill="none" xmlns="http://www.w3.org/2000/svg">
<path fill-rule="evenodd" clip-rule="evenodd" d="M3 3H19C20.1046 3 21 3.89543 21 5V19C21 20.1046 20.1046 21 19 21L3 21.0004V3ZM5 5V7.00039H7V5H5ZM7 19.0004H5V17.0004H7V19.0004ZM7 15.0004V13.0004H5V15.0004H7ZM5 11.0004H7V9.00039H5V11.0004ZM15.7929 8.79289L14 10.5858L12.2071 8.79289L10.7929 10.2071L12.5858 12L10.7929 13.7929L12.2071 15.2071L14 13.4142L15.7929 15.2071L17.2071 13.7929L15.4142 12L17.2071 10.2071L15.7929 8.79289Z" fill="black"/>
</svg>
