<svg width="24" height="24" viewBox="0 0 24 24" fill="none" xmlns="http://www.w3.org/2000/svg">
<path fill-rule="evenodd" clip-rule="evenodd" d="M18 2.99999L3 2.99994L3.00006 21H18C19.6569 21 21 19.6569 21 18V5.99999C21 4.34315 19.6569 3 18 2.99999ZM5.00001 7L5 4.99994H7L7.00001 7H5.00001ZM9.00001 19L9 4.99994L18 4.99999C18.5523 5 19 5.44771 19 5.99999V18C19 18.5523 18.5523 19 18 19H9.00001ZM7.00001 17V19H5.00002L5.00001 17H7.00001ZM7.00001 15H5.00001V13H7.00001V15ZM7.00001 11H5.00001V9H7.00001V11ZM11 9H17V7H11V9ZM11 13H15V11H11V13Z" fill="black"/>
</svg>
