<svg width="24" height="24" viewBox="0 0 24 24" fill="none" xmlns="http://www.w3.org/2000/svg">
<path fill-rule="evenodd" clip-rule="evenodd" d="M3 3H19C20.1046 3 21 3.89543 21 5V19C21 20.1046 20.1046 21 19 21L3 21.0004V3ZM5 5V7.00039H7V5H5ZM7 19.0004H5V17.0004H7V19.0004ZM7 15.0004V13.0004H5V15.0004H7ZM5 11.0004H7V9.00039H5V11.0004ZM11.6425 8.9855L9.83381 12L11.6425 15.0145L13.3575 13.9855L12.1662 12L13.3575 10.0145L11.6425 8.9855ZM14.6425 10.0145L15.8338 12L14.6425 13.9855L16.3575 15.0145L18.1662 12L16.3575 8.9855L14.6425 10.0145Z" fill="black"/>
</svg>
