<svg width="24" height="24" viewBox="0 0 24 24" fill="none" xmlns="http://www.w3.org/2000/svg">
<path fill-rule="evenodd" clip-rule="evenodd" d="M18 2.99999L3 2.99994L3.00006 21H18C19.6569 21 21 19.6569 21 18V5.99999C21 4.34315 19.6569 3 18 2.99999ZM5.00001 7L5 4.99994H7L7.00001 7H5.00001ZM9.00001 19L9 4.99994L18 4.99999C18.5523 5 19 5.44771 19 5.99999V18C19 18.5523 18.5523 19 18 19H9.00001ZM7.00001 17V19H5.00002L5.00001 17H7.00001ZM7.00001 15H5.00001V13H7.00001V15ZM7.00001 11H5.00001V9H7.00001V11ZM12.2 12L10.3025 10.9044L11.2025 9.34558L13.1 10.4411V8.25H14.9V10.4411L16.7976 9.34558L17.6976 10.9044L15.8 12L17.6977 13.0956L16.7977 14.6544L14.9 13.5588V15.75H13.1V13.5588L11.2024 14.6544L10.3024 13.0956L12.2 12Z" fill="black"/>
</svg>
