<svg width="24" height="24" viewBox="0 0 24 24" fill="none" xmlns="http://www.w3.org/2000/svg">
<path fill-rule="evenodd" clip-rule="evenodd" d="M13 7.82929C14.1652 7.41746 15 6.30622 15 5C15 3.34315 13.6569 2 12 2C10.3431 2 9 3.34315 9 5C9 6.30622 9.83481 7.41746 11 7.82929V12.0569C9.83481 12.1942 9 12.5646 9 13C9 13.5523 10.3431 14 12 14C13.6569 14 15 13.5523 15 13C15 12.5646 14.1652 12.1942 13 12.0569V7.82929ZM9 9.38184L3 12.3818V17.6179L12 22L21 17.6179V12.3818L15 9.38184V11.6179L17.7639 12.9999L12 15.7639L6.23607 12.9999L9 11.6179V9.38184Z" fill="black"/>
</svg>
