<svg width="24" height="24" viewBox="0 0 24 24" fill="none" xmlns="http://www.w3.org/2000/svg">
<path fill-rule="evenodd" clip-rule="evenodd" d="M12.5858 2L9.85355 4.73223C8.96329 5.6225 8.54413 6.87997 8.72218 8.12634L8.93934 9.64645L3 15.5858V21H9V19H11V17H12.4142L14.3536 15.0607L15.8737 15.2778C17.12 15.4559 18.3775 15.0367 19.2678 14.1464L22 11.4142C21.9998 8.94055 20.9535 6.53931 19.2071 4.79289C17.4204 3.00617 15.1077 2 12.5858 2ZM9 17H7V19H5V16.4142L11.0607 10.3536L10.7021 7.8435C10.6131 7.22031 10.8226 6.59158 11.2678 6.14645L13.383 4.03125L13.3868 4.03171C14.2104 4.13215 16.135 4.54921 17.7929 6.20711C19.4508 7.865 19.8678 9.7896 19.9683 10.6132L19.9688 10.617L17.8536 12.7322C17.4084 13.1774 16.7797 13.3869 16.1565 13.2979L13.6464 12.9393L11.5858 15H9V17ZM15.5 10C16.3284 10 17 9.32843 17 8.5C17 7.67157 16.3284 7 15.5 7C14.6716 7 14 7.67157 14 8.5C14 9.32843 14.6716 10 15.5 10Z" fill="black"/>
</svg>
