<svg width="24" height="24" viewBox="0 0 24 24" fill="none" xmlns="http://www.w3.org/2000/svg">
<path fill-rule="evenodd" clip-rule="evenodd" d="M4 12C4 9.79086 5.79086 8 8 8C9.6387 8 11.0494 8.98556 11.6676 10.4004L11.9296 11H20V15H18.618L17.618 13H11.9296L11.6676 13.5996C11.0494 15.0144 9.6387 16 8 16C5.79086 16 4 14.2091 4 12ZM8 6C4.68629 6 2 8.68629 2 12C2 15.3137 4.68629 18 8 18C10.2222 18 12.1604 16.7921 13.1971 15H16.382L17.382 17H22V9H13.1971C12.1604 7.20794 10.2222 6 8 6ZM8 13.5C8.82843 13.5 9.5 12.8284 9.5 12C9.5 11.1716 8.82843 10.5 8 10.5C7.17157 10.5 6.5 11.1716 6.5 12C6.5 12.8284 7.17157 13.5 8 13.5Z" fill="black"/>
</svg>
