<svg width="25" height="24" viewBox="0 0 25 24" fill="none" xmlns="http://www.w3.org/2000/svg">
<path fill-rule="evenodd" clip-rule="evenodd" d="M2.02002 4H22.02V16C22.02 18.2091 20.2292 20 18.02 20H6.02002C3.81088 20 2.02002 18.2091 2.02002 16V4ZM17.02 17H7.02002V15H17.02V17ZM7.02002 8H5.02002V10H7.02002V8ZM11.02 8H9.02002V10H11.02V8ZM7.02002 11H9.02002V13H7.02002V11ZM15.02 8H13.02V10H15.02V8ZM11.02 11H13.02V13H11.02V11ZM19.02 8H17.02V10H19.02V8ZM15.02 11H17.02V13H15.02V11Z" fill="black"/>
</svg>
