<svg width="24" height="24" viewBox="0 0 24 24" fill="none" xmlns="http://www.w3.org/2000/svg">
<path fill-rule="evenodd" clip-rule="evenodd" d="M13.0001 16.9742C15.6502 16.8331 18.0824 15.918 20 14.0001C18.0142 10.0284 17.47 6.21928 16.8799 2.08815L16.8673 1.99976C13.6224 2.00089 10.3776 1.99961 7.13273 2.00069L7.12029 2.08774C6.53029 6.21804 5.98606 10.028 4 14.0001C5.92001 15.9204 8.34098 16.8326 11.0001 16.9742V20.0001H8.00006V22.0001H16.0001V20.0001H13.0001V16.9742ZM12.8937 14.9771C14.6509 14.8835 16.2219 14.3971 17.548 13.4614C16.1729 10.2384 15.5973 7.10779 15.1356 4.00016C13.05 4.00043 10.9493 4.00006 8.86455 4.00031C8.40281 7.10763 7.82706 10.2387 6.45171 13.4621C7.77663 14.3985 9.34235 14.8831 11.1064 14.9771H12.8937Z" fill="black"/>
</svg>
