<svg width="24" height="24" viewBox="0 0 24 24" fill="none" xmlns="http://www.w3.org/2000/svg">
<path fill-rule="evenodd" clip-rule="evenodd" d="M12 3L2.51436 8.12582C2.19689 8.30219 2 8.63681 2 8.99998C2 9.36314 2.19689 9.69776 2.51436 9.87413L6.3408 11.9999L2.51436 14.1257C2.19689 14.3021 2 14.6367 2 14.9999C2 15.3631 2.19689 15.6977 2.51436 15.8741L12 21L21.4856 15.8741C21.8031 15.6977 22 15.3631 22 14.9999C22 14.6367 21.8031 14.3021 21.4856 14.1257L17.6592 11.9999L21.4856 9.87413C21.8031 9.69776 22 9.36314 22 8.99998C22 8.63681 21.8031 8.30219 21.4856 8.12582L12 3ZM12 12.7122L5.05913 8.99998L12 5.28792L18.9409 8.99998L12 12.7122Z" fill="black"/>
</svg>
