<svg width="24" height="24" viewBox="0 0 24 24" fill="none" xmlns="http://www.w3.org/2000/svg">
<path fill-rule="evenodd" clip-rule="evenodd" d="M12 2C10.6193 2 9.5 3.11929 9.5 4.5C9.5 5.88071 10.6193 7 12 7C13.6762 7 15.1597 7.82478 16.0669 9.09063C16.8923 8.11756 18.124 7.5 19.5 7.5C20.0519 7.5 20.5806 7.59935 21.0691 7.78114C19.478 4.36664 16.0154 2 12 2ZM22 12C22 10.6193 20.8807 9.5 19.5 9.5C18.1193 9.5 17 10.6193 17 12C17 13.6762 16.1752 15.1597 14.9094 16.0669C15.8824 16.8923 16.5 18.124 16.5 19.5C16.5 20.0519 16.4006 20.5806 16.2189 21.0691C19.6334 19.478 22 16.0154 22 12ZM12 22C13.3807 22 14.5 20.8807 14.5 19.5C14.5 18.1193 13.3807 17 12 17C10.3238 17 8.84031 16.1752 7.93313 14.9094C7.10769 15.8824 5.87597 16.5 4.5 16.5C3.94812 16.5 3.41944 16.4007 2.93088 16.2189C4.52197 19.6334 7.98461 22 12 22ZM9.09063 7.93313C7.82478 8.84032 7 10.3238 7 12C7 13.3807 5.88071 14.5 4.5 14.5C3.11929 14.5 2 13.3807 2 12C2 7.98461 4.36664 4.52197 7.78113 2.93088C7.59935 3.41944 7.5 3.94812 7.5 4.5C7.5 5.87597 8.11756 7.1077 9.09063 7.93313Z" fill="black"/>
</svg>
