<svg width="24" height="24" viewBox="0 0 24 24" fill="none" xmlns="http://www.w3.org/2000/svg">
<path fill-rule="evenodd" clip-rule="evenodd" d="M12 4C11.1716 4 10.5 4.67157 10.5 5.5C10.5 6.32843 11.1716 7 12 7C13.7817 7 15.3457 7.93188 16.2312 9.33483C16.8422 8.81422 17.6344 8.5 18.5 8.5C18.7513 8.5 18.9964 8.52648 19.2327 8.57681C17.9498 5.87111 15.1934 4 12 4ZM15 12C15 10.3431 13.6569 9 12 9C10.3431 9 9 10.3431 9 12C9 13.6569 10.3431 15 12 15C13.6569 15 15 13.6569 15 12ZM14.6652 16.2312C16.0681 15.3457 17 13.7817 17 12C17 11.1716 17.6716 10.5 18.5 10.5C19.3284 10.5 20 11.1716 20 12C20 15.1934 18.1289 17.9498 15.4232 19.2327C15.4735 18.9964 15.5 18.7513 15.5 18.5C15.5 17.6344 15.1858 16.8422 14.6652 16.2312ZM12 17C10.2183 17 8.65432 16.0681 7.76877 14.6652C7.1578 15.1858 6.3656 15.5 5.5 15.5C5.2487 15.5 5.0036 15.4735 4.76731 15.4232C6.05017 18.1289 8.80657 20 12 20C12.8284 20 13.5 19.3284 13.5 18.5C13.5 17.6716 12.8284 17 12 17ZM7 12C7 10.2183 7.93188 8.65431 9.33482 7.76877C8.81422 7.1578 8.5 6.36559 8.5 5.5C8.5 5.2487 8.52648 5.00359 8.57681 4.76731C5.87111 6.05017 4 8.80657 4 12C4 12.8284 4.67157 13.5 5.5 13.5C6.32843 13.5 7 12.8284 7 12ZM12 2C6.47715 2 2 6.47715 2 12C2 17.5228 6.47715 22 12 22C17.5228 22 22 17.5228 22 12C22 6.47715 17.5228 2 12 2Z" fill="black"/>
</svg>
