<svg width="24" height="24" viewBox="0 0 24 24" fill="none" xmlns="http://www.w3.org/2000/svg">
<path fill-rule="evenodd" clip-rule="evenodd" d="M6.63193 15.9415L2.99854 19.5738L4.41217 20.9869L7.9281 17.472C8.03594 17.6829 8.10646 17.9086 8.1354 18.14L8.50772 21.1176L8.61722 21.9933H9.5H14.5H15.3828L15.4923 21.1176L15.8646 18.14C15.9191 17.7038 16.1215 17.2878 16.443 16.9526C18.1832 15.1381 20 12.8805 20 9.99733C20 8.66546 19.6743 7.40962 19.0982 6.30508L21.9977 3.40637L20.5841 1.99329L17.9383 4.63836C16.4742 3.01818 14.3561 2.00003 12 2.00003C7.58172 2.00003 4 5.58054 4 9.99733C4 12.3677 5.22804 14.3153 6.63193 15.9415ZM9.40518 15.9953H14.641C14.7509 15.8456 14.8706 15.7032 14.9993 15.569C16.7247 13.77 18 12.0228 18 9.99733C18 9.22667 17.8546 8.48995 17.5897 7.8131L9.40518 15.9953ZM16.5216 6.05458L8.05109 14.5227C6.82748 13.0798 6 11.6288 6 9.99733C6 6.68474 8.68629 3.99935 12 3.99935C13.8038 3.99935 15.4218 4.7951 16.5216 6.05458ZM10.3828 19.994L10.1328 17.9946H13.8672L13.6172 19.994H10.3828Z" fill="black"/>
</svg>
