<svg width="24" height="24" viewBox="0 0 24 24" fill="none" xmlns="http://www.w3.org/2000/svg">
<path fill-rule="evenodd" clip-rule="evenodd" d="M6 10C6 6.68629 8.68629 4 12 4C15.3137 4 18 6.68629 18 10C18 12.0261 16.7247 13.7739 14.9993 15.5735C14.8706 15.7077 14.7509 15.8502 14.641 16H13V11.4142L15.2071 9.20711L13.7929 7.79289L12 9.58579L10.2071 7.79289L8.79289 9.20711L11 11.4142V16H9.35899C9.24914 15.8502 9.12938 15.7077 9.00069 15.5735C7.27533 13.7739 6 12.0261 6 10ZM10.1328 18L10.3828 20H13.6172L13.8672 18H10.1328ZM12 2C7.58172 2 4 5.58172 4 10C4 12.8841 5.81678 15.1425 7.557 16.9576C7.87849 17.293 8.08086 17.7091 8.1354 18.1454L8.61722 22H15.3828L15.8646 18.1454C15.9191 17.7091 16.1215 17.293 16.443 16.9576C18.1832 15.1425 20 12.8841 20 10C20 5.58172 16.4183 2 12 2Z" fill="black"/>
</svg>
