<svg width="24" height="24" viewBox="0 0 24 24" fill="none" xmlns="http://www.w3.org/2000/svg">
<path fill-rule="evenodd" clip-rule="evenodd" d="M9.2 7.4C9.30398 7.26136 9.41339 7.12796 9.52782 7H6C3.79086 7 2 8.79086 2 11V13C2 15.2091 3.79086 17 6 17H10C11.259 17 12.4446 16.4072 13.2 15.4L16.5 11H14L13.55 11.6L11.6 14.2C11.2223 14.7036 10.6295 15 10 15H7.5H6C4.89543 15 4 14.1046 4 13V11C4 9.89543 4.89543 9 6 9H8L9.2 7.4ZM18 15C19.1046 15 20 14.1046 20 13V11C20 9.89543 19.1046 9 18 9H16.5H14C13.3705 9 12.7777 9.29639 12.4 9.8L10.45 12.4L10 13H7.5L10.8 8.6C11.5554 7.59278 12.741 7 14 7H18C20.2091 7 22 8.79086 22 11V13C22 15.2091 20.2091 17 18 17H14.4722C14.5866 16.872 14.696 16.7386 14.8 16.6L16 15H18Z" fill="black"/>
</svg>
