<svg width="24" height="24" viewBox="0 0 24 24" fill="none" xmlns="http://www.w3.org/2000/svg">
<path fill-rule="evenodd" clip-rule="evenodd" d="M5.87868 5.87868C7.05025 4.70711 8.94975 4.70711 10.1213 5.87868C10.8504 6.60775 11.6665 7.30044 12.3206 8.09873C12.758 8.63256 13 9.30381 13 10V14C13 14.2652 13.1054 14.5196 13.2929 14.7071L15 16.4142V10C15 8.67392 14.4732 7.40215 13.5355 6.46447L11.5355 4.46447C9.58291 2.51184 6.41709 2.51184 4.46447 4.46447C2.51184 6.41709 2.51184 9.58291 4.46447 11.5355L7 14.0711V11.2426L5.87868 10.1213C4.70711 8.94975 4.70711 7.05025 5.87868 5.87868ZM9 14C9 15.3261 9.52678 16.5979 10.4645 17.5355L12.4645 19.5355C14.4171 21.4882 17.5829 21.4882 19.5355 19.5355C21.4882 17.5829 21.4882 14.4171 19.5355 12.4645L17 9.92893V12.7574L18.1213 13.8787C19.2929 15.0503 19.2929 16.9497 18.1213 18.1213C16.9497 19.2929 15.0503 19.2929 13.8787 18.1213L11.8787 16.1213C11.3161 15.5587 11 14.7956 11 14V10C11 9.73478 10.8946 9.48043 10.7071 9.29289L9 7.58579V14Z" fill="black"/>
</svg>
