<svg width="24" height="24" viewBox="0 0 24 24" fill="none" xmlns="http://www.w3.org/2000/svg">
<path fill-rule="evenodd" clip-rule="evenodd" d="M6 7H8.52779C8.01127 7.5771 7.60482 8.25476 7.34141 9H6C4.89543 9 4 9.89543 4 11V13C4 14.1046 4.89543 15 6 15H11C12.1046 15 13 14.1046 13 13V11H15V13C15 15.2091 13.2091 17 11 17H6C3.79086 17 2 15.2091 2 13V11C2 8.79086 3.79086 7 6 7ZM9 11C9 8.79086 10.7909 7 13 7H18C20.2091 7 22 8.79086 22 11V13C22 15.2091 20.2091 17 18 17H15.4722C15.9887 16.4229 16.3952 15.7452 16.6586 15H18C19.1046 15 20 14.1046 20 13V11C20 9.89543 19.1046 9 18 9H13C11.8954 9 11 9.89543 11 11V13H9V11Z" fill="black"/>
</svg>
