<svg width="24" height="24" viewBox="0 0 24 24" fill="none" xmlns="http://www.w3.org/2000/svg">
<path fill-rule="evenodd" clip-rule="evenodd" d="M4.75583 5.31672L4.10526 4L3.4547 5.31672L2 5.52786L3.05263 6.55279L2.80414 8L4.10526 7.31672L5.40639 8L5.15789 6.55279L6.21053 5.52786L4.75583 5.31672ZM4.75583 11.3167L4.10526 10L3.4547 11.3167L2 11.5279L3.05263 12.5528L2.80414 14L4.10526 13.3167L5.40639 14L5.15789 12.5528L6.21053 11.5279L4.75583 11.3167ZM4.10526 16L4.75583 17.3167L6.21053 17.5279L5.15789 18.5528L5.40639 20L4.10526 19.3167L2.80414 20L3.05263 18.5528L2 17.5279L3.4547 17.3167L4.10526 16ZM22 5H8V7H22V5ZM8 11H22V13H8V11ZM22 17H8V19H22V17Z" fill="black"/>
</svg>
