<svg width="24" height="24" viewBox="0 0 24 24" fill="none" xmlns="http://www.w3.org/2000/svg">
<path fill-rule="evenodd" clip-rule="evenodd" d="M5.17879 8H4.00347V5.00624H3.98129L3 5.65489V4.67082L4.00347 4H5.17879V8ZM6.18856 14H3.06807V13.2131L4.46222 12.0585C4.94418 11.661 5.03131 11.4894 5.03131 11.2716V11.2662C5.03131 11.0238 4.84343 10.8523 4.57114 10.8523C4.258 10.8523 4.07556 11.0456 4.05378 11.3288L4.05106 11.3642H3V11.337C3 10.5391 3.63989 10 4.57114 10C5.52144 10 6.14227 10.4738 6.14227 11.1954V11.2008C6.14227 11.7263 5.88904 12.0204 5.25732 12.5296L4.54391 13.1069V13.1287H6.18856V14ZM4.64013 20C5.67023 20 6.30435 19.5452 6.30435 18.812V18.8067C6.30435 18.3064 5.93779 17.9933 5.35184 17.9318V17.9104C5.77458 17.8274 6.14381 17.5251 6.14381 17.0381V17.0328C6.14381 16.404 5.55786 16 4.63211 16C3.73311 16 3.14448 16.4575 3.09632 17.1666L3.09365 17.2067H4.11572L4.11839 17.1826C4.14247 16.9739 4.32977 16.8268 4.63211 16.8268C4.92107 16.8268 5.10033 16.9659 5.10033 17.1906V17.196C5.10033 17.4341 4.89699 17.5786 4.54649 17.5786H4.14783V18.3251H4.54649C4.9398 18.3251 5.15117 18.4669 5.15117 18.7291V18.7344C5.15117 18.9592 4.95853 19.1197 4.63746 19.1197C4.31639 19.1197 4.11572 18.9699 4.08629 18.7987L4.08094 18.7666H3L3.00268 18.8013C3.05886 19.5237 3.6903 20 4.64013 20ZM8 7H22V5H8V7ZM22 13H8V11H22V13ZM8 19H22V17H8V19Z" fill="black"/>
</svg>
