<svg width="25" height="25" viewBox="0 0 25 25" fill="none" xmlns="http://www.w3.org/2000/svg">
<path fill-rule="evenodd" clip-rule="evenodd" d="M9.04005 6.96287C9.04002 5.31702 10.3721 3.98164 12.0179 3.97754C13.6695 3.97343 15.0106 5.31117 15.0106 6.96279L15.0107 10.9792L9.0401 10.9792L9.04005 6.96287ZM7.04246 10.9792L7.0424 6.9629C7.04236 4.21571 9.26576 1.98674 12.0129 1.9799C14.7698 1.97304 17.0082 4.20594 17.0083 6.96276L17.0083 10.9792L20.0246 10.9792L20.0246 19.4692L17.5276 21.9662L6.54054 21.9662L4.04348 19.4692L4.04348 10.9792L7.04246 10.9792ZM11.0352 17.9709L11.0352 14.9745L13.0329 14.9745L13.0329 17.971L11.0352 17.9709Z" fill="black"/>
</svg>
