<svg width="24" height="24" viewBox="0 0 24 24" fill="none" xmlns="http://www.w3.org/2000/svg">
<path fill-rule="evenodd" clip-rule="evenodd" d="M7 10C7 6.68629 9.68629 4 13 4C16.3137 4 19 6.68629 19 10C19 12.7614 16.7614 15 14 15C11.7909 15 10 13.2091 10 11C10 9.34315 11.3431 8 13 8C14.1046 8 15 8.89543 15 10C15 10.5523 14.5523 11 14 11C14 10.4477 13.5523 10 13 10C12.4477 10 12 10.4477 12 11C12 12.1046 12.8954 13 14 13C15.6569 13 17 11.6569 17 10C17 7.79086 15.2091 6 13 6C10.2386 6 8 8.23858 8 11C8 12.4021 8.4809 13.6918 9.28675 14.7133C7.89401 13.6145 7 11.9117 7 10ZM13 18C17.4183 18 21 14.4183 21 10C21 5.58172 17.4183 2 13 2C8.58172 2 5 5.58172 5 10C5 12.1038 5.81205 14.0179 7.13981 15.446L1.99999 20.5858L3.4142 22L8.67984 16.7344C9.92587 17.5354 11.4087 18 13 18Z" fill="black"/>
</svg>
