<svg width="24" height="24" viewBox="0 0 24 24" fill="none" xmlns="http://www.w3.org/2000/svg">
<path fill-rule="evenodd" clip-rule="evenodd" d="M11 9.1459C11 9.83063 10.6503 10.4622 10.0827 10.8275L8.76382 4.82764L7.62719 5.05496C4.35522 5.70936 2 8.58226 2 11.919V20.0002H6C8.76142 20.0002 11 17.7616 11 15.0002L10.5282 12.8541L10.7889 12.7236C11.2571 12.4895 11.6657 12.1709 12 11.7918C12.3343 12.1709 12.7429 12.4895 13.2111 12.7236L13.4718 12.8539L13 15.0002C13 17.7616 15.2386 20.0002 18 20.0002H22V11.919C22 8.58226 19.6448 5.70936 16.3728 5.05496L15.2362 4.82764L13.9173 10.8275C13.3497 10.4622 13 9.83063 13 9.1459V2H11V9.1459ZM8.44721 13.8944L7.55287 12.1057L5.55279 13.1058L6.44721 14.8946C6.8264 14.705 9.81294 13.2116 8.44721 13.8944ZM17.5528 14.8944L15.5528 13.8944L16.4472 12.1056L18.4472 13.1056L17.5528 14.8944Z" fill="black"/>
</svg>
