<svg width="24" height="24" viewBox="0 0 24 24" fill="none" xmlns="http://www.w3.org/2000/svg">
<path fill-rule="evenodd" clip-rule="evenodd" d="M10.0953 10.8193C10.6555 10.4529 11 9.82554 11 9.1459V2H13V9.1459C13 9.82554 13.3445 10.4528 13.9046 10.8193L15.2362 4.82743L16.3728 5.05476C19.6448 5.70915 22 8.58206 22 11.9188V20H18C15.2386 20 13 17.7614 13 15L13.0238 14.7831L13.4544 12.8453L13.2111 12.7236C12.7429 12.4895 12.3343 12.1709 12 11.7918C11.6657 12.1709 11.2571 12.4895 10.7889 12.7236L10.5455 12.8453L10.9762 14.7831L11 15.0001C11 17.7615 8.76146 20 6.00008 20H2V11.9188C2 8.58206 4.35522 5.70915 7.62719 5.05476L8.76382 4.82743L10.0953 10.8193ZM15.2983 13.7672L15.0017 15.1021C15.0555 16.7117 16.3773 18 18 18H20V11.9188C20 9.8061 18.6781 7.95373 16.75 7.23466L15.7456 11.7547L18.4472 13.1056L17.5528 14.8944L15.2983 13.7672ZM5.55279 13.1056L8.25443 11.7548L7.24997 7.23466C5.32188 7.95373 4 9.8061 4 11.9188V18H6.00008C7.62272 18 8.94447 16.7117 8.9983 15.1022L8.70164 13.7672L6.44721 14.8944L5.55279 13.1056Z" fill="black"/>
</svg>
