<svg width="24" height="24" viewBox="0 0 24 24" fill="none" xmlns="http://www.w3.org/2000/svg">
<path fill-rule="evenodd" clip-rule="evenodd" d="M20.0912 7.08563L20.8183 3.16717L16.9027 3.90266L13.4019 2L12.8912 5.95251L10.0004 8.69506L12.6396 9.94666L3.00146 19.5876L4.41568 21.0018L14.0561 11.3586L15.3146 14L18.0503 11.1027L22.0004 10.5836L20.0912 7.08563ZM18.8471 8.98076L17.995 7.41976L18.3195 5.67152L16.5727 5.99962L15.0114 5.15104L14.7836 6.91402L13.4934 8.13806L15.1 8.90003L15.8645 10.5044L17.0844 9.21238L18.8471 8.98076ZM7.08081 2C7.20351 2.74138 7.48013 3.48515 8.00044 4.00001C8.51117 4.50538 9.26058 4.78684 10.0004 4.91455V5.08603C9.26073 5.21426 8.51072 5.49621 8.00044 6.00002C7.47854 6.5153 7.20245 7.25846 7.08028 8H6.91496C6.78724 7.26015 6.50577 6.51073 6.00044 6.00002C5.48557 5.47966 4.74182 5.20306 4.00044 5.08037V4.90511C4.73803 4.7684 5.49784 4.47851 6.00044 4.00001C6.54857 3.47817 6.8159 2.74466 6.9293 2H7.08081ZM20.0004 16C19.4801 15.4851 19.2035 14.7414 19.0808 14H18.9293C18.8159 14.7447 18.5486 15.4782 18.0004 16C17.4978 16.4785 16.738 16.7684 16.0004 16.9051V17.0804C16.7418 17.2031 17.4856 17.4797 18.0004 18C18.5058 18.5107 18.7872 19.2602 18.915 20H19.0803C19.2024 19.2585 19.4785 18.5153 20.0004 18C20.5107 17.4962 21.2607 17.2143 22.0004 17.086V16.9145C21.2606 16.7868 20.5112 16.5054 20.0004 16ZM13.054 18C13.1358 18.4943 13.3202 18.9901 13.6671 19.3333C14.0076 19.6703 14.5072 19.8579 15.0005 19.943V20.0574C14.5073 20.1428 14.0073 20.3308 13.6671 20.6667C13.3192 21.0102 13.1351 21.5056 13.0537 22H12.9435C12.8583 21.5068 12.6707 21.0072 12.3338 20.6667C11.9905 20.3198 11.4947 20.1354 11.0004 20.0536V19.9367C11.4922 19.8456 11.9987 19.6523 12.3338 19.3333C12.6992 18.9854 12.8774 18.4964 12.953 18H13.054Z" fill="black"/>
</svg>
