<svg width="24" height="24" viewBox="0 0 24 24" fill="none" xmlns="http://www.w3.org/2000/svg">
<path fill-rule="evenodd" clip-rule="evenodd" d="M12 4C8.68629 4 6 6.68629 6 10C6 11.8919 6.8745 13.5789 8.24522 14.6802C9.27342 15.5064 10.5777 16 12 16C15.3137 16 18 13.3137 18 10C18 6.68629 15.3137 4 12 4ZM4 10C4 5.58172 7.58172 2 12 2C16.4183 2 20 5.58172 20 10C20 12.1558 19.1473 14.1124 17.7608 15.5509L20 18.3469L13.8897 21.5255C13.2995 21.8418 12.6496 22 12 22C11.3504 22 10.7005 21.8418 10.1104 21.5255L4 18.3469L6.2392 15.5509C4.85375 14.1132 4 12.156 4 10ZM7.79566 16.8073L7.06334 17.686L11.0455 19.7576L11.0518 19.7609C11.3478 19.9203 11.6737 20 12 20C12.3263 20 12.6522 19.9203 12.9482 19.7609L12.9545 19.7576L16.9367 17.686L16.2044 16.8074C14.9828 17.5635 13.5423 18 12 18C10.4587 18 9.0175 17.5633 7.79566 16.8073ZM11.5 7C10.9797 6.48514 10.7031 5.74137 10.5804 5H10.4289C10.3155 5.74466 10.0481 6.47816 9.5 7C8.9974 7.4785 8.23758 7.76839 7.5 7.90509V8.08035C8.24138 8.20304 8.98513 8.47964 9.5 9C10.0053 9.51071 10.2868 10.2601 10.4145 11H10.5798C10.702 10.2584 10.9781 9.51528 11.5 9C12.0103 8.4962 12.7603 8.21424 13.5 8.08601V7.91453C12.7601 7.78683 12.0107 7.50537 11.5 7ZM13.5536 9C13.6354 9.49425 13.8198 9.9901 14.1667 10.3333C14.5072 10.6703 15.0068 10.8579 15.5 10.943V11.0574C15.0069 11.1428 14.5069 11.3308 14.1667 11.6667C13.8187 12.0102 13.6347 12.5056 13.5532 13H13.443C13.3579 12.5068 13.1702 12.0072 12.8333 11.6667C12.4901 11.3198 11.9943 11.1354 11.5 11.0536V10.9367C11.9917 10.8456 12.4983 10.6523 12.8333 10.3333C13.1988 9.98545 13.377 9.49644 13.4526 9H13.5536Z" fill="black"/>
</svg>
