<svg width="24" height="24" viewBox="0 0 24 24" fill="none" xmlns="http://www.w3.org/2000/svg">
<path fill-rule="evenodd" clip-rule="evenodd" d="M20.0897 7.08563L20.8169 3.16717L16.9012 3.90266L13.4005 2L12.8897 5.95251L9.99898 8.69506L12.6381 9.94666L3 19.5876L4.41421 21.0018L14.0546 11.3586L15.3132 14L18.0488 11.1027L21.999 10.5836L20.0897 7.08563ZM7.07934 2C7.20204 2.74138 7.47866 3.48515 7.99898 4.00001C8.50971 4.50538 9.25912 4.78684 9.99898 4.91455V5.08603C9.25927 5.21426 8.50926 5.49621 7.99898 6.00002C7.47708 6.5153 7.20098 7.25846 7.07881 8H6.91349C6.78577 7.26015 6.5043 6.51073 5.99898 6.00002C5.48411 5.47966 4.74036 5.20306 3.99898 5.08037V4.90511C4.73656 4.7684 5.49638 4.47851 5.99898 4.00001C6.54711 3.47817 6.81443 2.74466 6.92783 2H7.07934ZM19.999 16C19.4787 15.4851 19.202 14.7414 19.0793 14H18.9278C18.8144 14.7447 18.5471 15.4782 17.999 16C17.4964 16.4785 16.7366 16.7684 15.999 16.9051V17.0804C16.7404 17.2031 17.4841 17.4797 17.999 18C18.5043 18.5107 18.7858 19.2602 18.9135 20H19.0788C19.201 19.2585 19.4771 18.5153 19.999 18C20.5093 17.4962 21.2593 17.2143 21.999 17.086V16.9145C21.2591 16.7868 20.5097 16.5054 19.999 16ZM13.0526 18C13.1344 18.4943 13.3188 18.9901 13.6657 19.3333C14.0061 19.6703 14.5058 19.8579 14.999 19.943V20.0574C14.5059 20.1428 14.0058 20.3308 13.6657 20.6667C13.3177 21.0102 13.1337 21.5056 13.0522 22H12.942C12.8568 21.5068 12.6692 21.0072 12.3323 20.6667C11.9891 20.3198 11.4932 20.1354 10.999 20.0536V19.9367C11.4907 19.8456 11.9972 19.6523 12.3323 19.3333C12.6977 18.9854 12.876 18.4964 12.9516 18H13.0526Z" fill="black"/>
</svg>
