<svg width="24" height="24" viewBox="0 0 24 24" fill="none" xmlns="http://www.w3.org/2000/svg">
<path fill-rule="evenodd" clip-rule="evenodd" d="M17.7608 15.5509C19.1473 14.1124 20 12.1558 20 10C20 5.58172 16.4183 2 12 2C7.58172 2 4 5.58172 4 10C4 12.1558 4.85268 14.1124 6.23917 15.5509L4 18.3281L5.0259 18.8805L10.1036 21.5219C10.6956 21.8406 11.3478 22 12 22C12.6522 22 13.3044 21.8406 13.8964 21.5219L18.9741 18.8805L20 18.328L17.7608 15.5509ZM16.2044 16.8074C14.9828 17.5635 13.5423 18 12 18C10.4577 18 9.01725 17.5635 7.79556 16.8074L7.05183 17.6998L11.0518 19.7609C11.6438 20.0797 12.3562 20.0797 12.9482 19.7609L16.9482 17.6998L16.2044 16.8074ZM10.5804 5C10.7031 5.74137 10.9797 6.48514 11.5 7C12.0107 7.50537 12.7601 7.78683 13.5 7.91453V8.08601C12.7603 8.21424 12.0103 8.4962 11.5 9C10.9781 9.51528 10.702 10.2584 10.5798 11H10.4145C10.2868 10.2601 10.0053 9.51071 9.5 9C8.98513 8.47964 8.24138 8.20304 7.5 8.08035V7.90509C8.23758 7.76839 8.9974 7.4785 9.5 7C10.0481 6.47816 10.3155 5.74466 10.4289 5H10.5804ZM14.6667 11.3333C14.3198 10.9901 14.1354 10.4943 14.0536 10H13.9526C13.877 10.4964 13.6988 10.9854 13.3333 11.3333C12.9983 11.6523 12.4917 11.8456 12 11.9367V12.0536C12.4943 12.1354 12.9901 12.3198 13.3333 12.6667C13.6702 13.0072 13.8579 13.5068 13.943 14H14.0532C14.1347 13.5056 14.3187 13.0102 14.6667 12.6667C15.0069 12.3308 15.5069 12.1428 16 12.0574V11.943C15.5068 11.8579 15.0072 11.6703 14.6667 11.3333Z" fill="black"/>
</svg>
