<svg width="24" height="24" viewBox="0 0 24 24" fill="none" xmlns="http://www.w3.org/2000/svg">
<path fill-rule="evenodd" clip-rule="evenodd" d="M17 8.17071V11H15V8H12.0004C12.6281 8.83566 13 9.87439 13 11V16H19V11C19 9.69378 18.1652 8.58254 17 8.17071ZM17 6.10002C19.2822 6.56329 21 8.58104 21 11V18H13V22H11V18H3V11C3 8.23858 5.23858 6 8 6H15V2H19L18 3.5L19 5H17V6.10002ZM11 16V11C11 9.34315 9.65685 8 8 8C6.34315 8 5 9.34315 5 11V16H11ZM8 12C8.55228 12 9 11.5523 9 11C9 10.4477 8.55228 10 8 10C7.44772 10 7 10.4477 7 11C7 11.5523 7.44772 12 8 12Z" fill="black"/>
</svg>
