<svg width="24" height="24" viewBox="0 0 24 24" fill="none" xmlns="http://www.w3.org/2000/svg">
<path fill-rule="evenodd" clip-rule="evenodd" d="M8.00427 11.6084V11.6038V11.599C8.0044 10.65 8.00452 9.73539 8.00447 8.94904C10.3698 8.70976 12.4396 7.66727 13.9371 6.67263C14.3308 6.41112 14.6897 6.14977 15.0093 5.90205V18.0979C14.6897 17.8502 14.3308 17.5888 13.9371 17.3273C12.7521 16.5403 11.2089 15.7233 9.44444 15.298C9.36566 15.2595 9.28073 15.231 9.19112 15.214C8.80146 15.1403 8.40499 15.0831 8.00408 15.0465C8.00396 13.964 8.00412 12.7638 8.00427 11.6134V11.6128V11.6084ZM6.00264 15C6.00252 13.9233 6.00268 12.7456 6.00283 11.6157L6.00283 11.6127L6.00283 11.6078L6.00284 11.5971C6.00296 10.6713 6.00308 9.77819 6.00304 8.99997H6.00287C4.89751 8.99997 4.00144 9.8954 4.00144 11V13C4.00144 14.1045 4.89738 14.9998 6.00264 15ZM7.00359 6.99997V6.99997C9.22634 6.99997 11.2822 6.03451 12.8292 5.007C13.5943 4.49879 14.2133 3.98979 14.6395 3.60914C14.8521 3.41923 15.0154 3.26242 15.1236 3.15519C15.1777 3.10162 15.2179 3.06052 15.2435 3.03398L15.2709 3.0054L15.2757 3.00028L15.2761 2.99988L15.2769 3.00073L17.0107 3.67966V20.3203L15.2769 20.9992L15.2761 21.0001L15.2757 20.9997L15.2709 20.9945L15.2435 20.966C15.2179 20.9394 15.1777 20.8983 15.1236 20.8447C15.0154 20.7375 14.8521 20.5807 14.6395 20.3908C14.2133 20.0101 13.5943 19.5012 12.8292 18.9929C12.013 18.4508 11.0551 17.926 10.0058 17.5511V22H7.76014L6.25906 17H6.00319L6.00287 17C3.79215 17 2 15.2091 2 13V11C2 8.79083 3.79215 6.99997 6.00287 6.99997H7.00359ZM18.9978 10.9864L22 10.4864L21.671 8.51358L18.6688 9.01358L18.9978 10.9864ZM18.6688 14.9864L21.671 15.4864L22 13.5136L18.9978 13.0136L18.6688 14.9864Z" fill="black"/>
</svg>
