<svg width="24" height="24" viewBox="0 0 24 24" fill="none" xmlns="http://www.w3.org/2000/svg">
<path fill-rule="evenodd" clip-rule="evenodd" d="M12 22L14 20H17C18.6569 20 20 18.6569 20 17V5C20 3.34315 18.6569 2 17 2H7C5.34315 2 4 3.34315 4 5V17C4 18.6569 5.34315 20 7 20H10L12 22ZM12 19.1716L10.8284 18H7C6.44772 18 6 17.5523 6 17V12H18V17C18 17.5523 17.5523 18 17 18H13.1716L12 19.1716ZM18 10H6V5C6 4.44772 6.44772 4 7 4H17C17.5523 4 18 4.44772 18 5V10ZM8 8H16V6H8V8ZM16 16H8V14H16V16Z" fill="black"/>
</svg>
