<svg width="24" height="24" viewBox="0 0 24 24" fill="none" xmlns="http://www.w3.org/2000/svg">
<path fill-rule="evenodd" clip-rule="evenodd" d="M12 2L14 3.99996H17C18.6569 3.99996 20 5.34311 20 6.99996V19C20 20.6568 18.6569 22 17 22H7C5.34315 22 4 20.6568 4 19V6.99996C4 5.34311 5.34315 3.99996 7 3.99996H10L12 2ZM12 4.82843L10.8284 5.99996H7C6.44772 5.99996 6 6.44768 6 6.99996V12H18V6.99996C18 6.44768 17.5523 5.99996 17 5.99996H13.1716L12 4.82843ZM6 14V19C6 19.5522 6.44772 20 7 20H17C17.5523 20 18 19.5522 18 19V14H6ZM16 16V18H8V16H16ZM16 9.99996V7.99996H8V9.99996H16Z" fill="black"/>
</svg>
