<svg width="24" height="24" viewBox="0 0 24 24" fill="none" xmlns="http://www.w3.org/2000/svg">
<path fill-rule="evenodd" clip-rule="evenodd" d="M8 6C8 3.79086 9.79086 2 12 2C14.2091 2 16 3.79086 16 6V12C14.3431 12 13 13.3431 13 15V16H12C9.79086 16 8 14.2091 8 12V6ZM16.5887 17L14 19.5901L15.4135 21L18 18.4121L20.5865 21L22 19.5901L19.4113 17L22 14.4099L20.5865 13L18 15.5879L15.4135 13L14 14.4099L16.5887 17ZM4.21265 13.8391C4.96955 17.0552 7.66572 19.5224 11 19.9381V22H13V18H12C9.23735 18 6.90951 16.132 6.21285 13.5904C6.69131 13.225 7 12.6485 7 12C7 10.8954 6.10457 10 5 10C3.89543 10 3 10.8954 3 12C3 12.825 3.49954 13.5334 4.21265 13.8391Z" fill="black"/>
</svg>
