<svg width="24" height="24" viewBox="0 0 24 24" fill="none" xmlns="http://www.w3.org/2000/svg">
<path fill-rule="evenodd" clip-rule="evenodd" d="M12 2C9.79086 2 8 3.79086 8 6V12C8 14.2091 9.79086 16 12 16C14.2091 16 16 14.2091 16 12V6C16 3.79086 14.2091 2 12 2ZM4.21265 13.8391C4.96955 17.0552 7.66572 19.5224 11 19.9381V22H13V19.9381C16.3344 19.5224 19.0305 17.0551 19.7874 13.839C20.5005 13.5333 21 12.825 21 12C21 10.8954 20.1046 10 19 10C17.8954 10 17 10.8954 17 12C17 12.6486 17.3087 13.225 17.7872 13.5905C17.0905 16.132 14.7627 18 12 18C9.23735 18 6.90951 16.132 6.21285 13.5904C6.69131 13.225 7 12.6485 7 12C7 10.8954 6.10457 10 5 10C3.89543 10 3 10.8954 3 12C3 12.825 3.49954 13.5334 4.21265 13.8391Z" fill="black"/>
</svg>
