<svg width="24" height="24" viewBox="0 0 24 24" fill="none" xmlns="http://www.w3.org/2000/svg">
<path fill-rule="evenodd" clip-rule="evenodd" d="M12 2C9.79086 2 8 3.79086 8 6V12C8 12.1861 8.01271 12.3692 8.03729 12.5485L3.29289 17.2929L4.70711 18.7071L6.05783 17.3564C7.3107 18.7454 9.04599 19.6942 11 19.9381L11 22L13 22L13 19.9381C16.3344 19.5224 19.0305 17.0551 19.7874 13.839C20.5005 13.5333 21 12.825 21 12C21 10.8954 20.1046 10 19 10C17.8954 10 17 10.8954 17 12C17 12.6486 17.3087 13.225 17.7872 13.5905C17.0905 16.132 14.7627 18 12 18C10.1946 18 8.57587 17.2037 7.47453 15.9397L8.89379 14.5204C9.6272 15.4232 10.7462 16 12 16C14.2091 16 16 14.2091 16 12V7.41421L19.7071 3.70711L18.2929 2.29289L15.8094 4.7764C15.2924 3.16576 13.7824 2 12 2ZM14 6.58578V6C14 4.89543 13.1046 4 12 4C10.8954 4 10 4.89543 10 6V10.5858L14 6.58578ZM10.3234 13.0908C10.6802 13.6382 11.2979 14 12 14C13.1046 14 14 13.1046 14 12V9.41421L10.3234 13.0908ZM6 11.5C6 12.3284 5.32843 13 4.5 13C3.67157 13 3 12.3284 3 11.5C3 10.6716 3.67157 10 4.5 10C5.32843 10 6 10.6716 6 11.5Z" fill="black"/>
</svg>
