<svg width="24" height="24" viewBox="0 0 24 24" fill="none" xmlns="http://www.w3.org/2000/svg">
<path fill-rule="evenodd" clip-rule="evenodd" d="M8 6C8 3.79086 9.79086 2 12 2C13.7824 2 15.2924 3.16576 15.8094 4.7764L18.2929 2.29289L19.7071 3.70711L16 7.41421L16 12C16 14.2091 14.2091 16 12 16C10.7454 16 9.62695 15.4228 8.89394 14.5203L7.47453 15.9397C8.09995 16.6575 8.89222 17.2244 9.79077 17.5804C10.4745 17.8513 11.2199 18 12 18C14.7627 18 17.0905 16.132 17.7872 13.5905C17.3087 13.225 17 12.6486 17 12C17 10.8954 17.8954 10 19 10C20.1046 10 21 10.8954 21 12C21 12.825 20.5005 13.5333 19.7874 13.839C19.0305 17.0551 16.3344 19.5224 13 19.9381L13 22L11 22L11 19.9381C9.04599 19.6942 7.3107 18.7454 6.05783 17.3564L4.70711 18.7071L3.29289 17.2929L8.0374 12.5484C8.01272 12.3688 8 12.1857 8 12V6ZM12 14C11.303 14 10.6878 13.643 10.3296 13.1007L12.5231 10.8994L14 9.41764V12C14 13.1046 13.1046 14 12 14ZM6 11.5C6 12.3284 5.32843 13 4.5 13C3.67157 13 3 12.3284 3 11.5C3 10.6716 3.67157 10 4.5 10C5.32843 10 6 10.6716 6 11.5Z" fill="black"/>
</svg>
