<svg width="24" height="24" viewBox="0 0 24 24" fill="none" xmlns="http://www.w3.org/2000/svg">
<path fill-rule="evenodd" clip-rule="evenodd" d="M12 2C9.79086 2 8 3.79086 8 6V12C8 14.2091 9.79086 16 12 16C14.2091 16 16 14.2091 16 12V6C16 3.79086 14.2091 2 12 2ZM10 6C10 4.89543 10.8954 4 12 4C13.1046 4 14 4.89543 14 6V12C14 13.1046 13.1046 14 12 14C10.8954 14 10 13.1046 10 12V6ZM3 12C3 10.8954 3.89543 10 5 10C6.10457 10 7 10.8954 7 12C7 12.6485 6.69131 13.225 6.21285 13.5904C6.90951 16.132 9.23735 18 12 18C14.7627 18 17.0905 16.132 17.7872 13.5905C17.3087 13.225 17 12.6486 17 12C17 10.8954 17.8954 10 19 10C20.1046 10 21 10.8954 21 12C21 12.825 20.5005 13.5333 19.7874 13.839C19.0305 17.0551 16.3344 19.5224 13 19.9381V22H11V19.9381C7.66572 19.5224 4.96955 17.0552 4.21265 13.8391C3.49954 13.5334 3 12.825 3 12Z" fill="black"/>
</svg>
