<svg width="24" height="24" viewBox="0 0 24 24" fill="none" xmlns="http://www.w3.org/2000/svg">
<path fill-rule="evenodd" clip-rule="evenodd" d="M8 6C8 3.79086 9.79086 2 12 2C14.2091 2 16 3.79086 16 6V12C14.3431 12 13 13.3431 13 15V16H12C9.79086 16 8 14.2091 8 12V6ZM16.5887 17L14 19.5901L15.4135 21L18 18.4121L20.5865 21L22 19.5901L19.4113 17L22 14.4099L20.5865 13L18 15.5879L15.4135 13L14 14.4099L16.5887 17ZM7 11H4V12C4 16.0796 7.05369 19.446 11 19.9381V22H13V18H12C9.027 18 6.55904 15.8377 6.08296 13H7V11Z" fill="black"/>
</svg>
