<svg width="24" height="24" viewBox="0 0 24 24" fill="none" xmlns="http://www.w3.org/2000/svg">
<path fill-rule="evenodd" clip-rule="evenodd" d="M12 2C9.79086 2 8 3.79086 8 6V12C8 12.1861 8.01271 12.3692 8.03729 12.5485L3 17.5L4.41421 18.9142L6.05784 17.3564C7.31099 18.7456 9.04589 19.6943 11 19.9381L11 22L13 22L13 19.9381C16.9463 19.446 20 16.0796 20 12V11H17V13H17.9171C17.7422 14.0424 17.2985 14.9937 16.6598 15.7801C16.5164 15.9565 16.3634 16.1246 16.2014 16.2835C15.119 17.3453 13.636 18 12 18C10.1946 18 8.57581 17.2037 7.47447 15.9397L8.89379 14.5204C9.6272 15.4232 10.7462 16 12 16C14.2091 16 16 14.2091 16 12V7.41421L19.7071 3.70711L18.2929 2.29289L15.8094 4.7764C15.2924 3.16576 13.7824 2 12 2ZM12 14C11.2979 14 10.6802 13.6382 10.3234 13.0908L14 9.41421V12C14 13.1046 13.1046 14 12 14ZM10 10.5858L14 6.58578V6C14 4.89543 13.1046 4 12 4C10.8954 4 10 4.89543 10 6V10.5858ZM6 11H4V13H6V11Z" fill="black"/>
</svg>
