<svg width="24" height="24" viewBox="0 0 24 24" fill="none" xmlns="http://www.w3.org/2000/svg">
<path fill-rule="evenodd" clip-rule="evenodd" d="M12 2C9.79086 2 8 3.79086 8 6V12C8 14.2091 9.79086 16 12 16C14.2091 16 16 14.2091 16 12V6C16 3.79086 14.2091 2 12 2ZM10 6C10 4.89543 10.8954 4 12 4C13.1046 4 14 4.89543 14 6V12C14 13.1046 13.1046 14 12 14C10.8954 14 10 13.1046 10 12V6ZM7 11H4V12C4 16.0796 7.05369 19.446 11 19.9381V22H13V19.9381C16.9463 19.446 20 16.0796 20 12V11H17V13H17.917C17.441 15.8377 14.973 18 12 18C9.027 18 6.55904 15.8377 6.08296 13H7V11Z" fill="black"/>
</svg>
