<svg width="24" height="24" viewBox="0 0 24 24" fill="none" xmlns="http://www.w3.org/2000/svg">
<path fill-rule="evenodd" clip-rule="evenodd" d="M8 6C8 3.79086 9.79086 2 12 2C13.7824 2 15.2924 3.16576 15.8094 4.7764L18.2929 2.29289L19.7071 3.70711L16 7.41421V12C16 14.2091 14.2091 16 12 16C10.7453 16 9.62687 15.4226 8.89394 14.5203L7.47453 15.9397C8.57589 17.2037 10.195 18 12 18C14.973 18 17.441 15.8377 17.917 13H17V11H20L20 12C20 16.0796 16.9463 19.446 13 19.9381V22H11L11 19.9381C9.0458 19.6943 7.31072 18.7454 6.05783 17.3564L4.41421 18.9142L3 17.5L8.0373 12.5485C8.01271 12.3692 8 12.1861 8 12V6ZM10.3232 13.091C10.6806 13.6389 11.2989 14 12 14C13.1046 14 14 13.1046 14 12V9.41421L10.3232 13.091ZM6 11H4V13H6V11Z" fill="black"/>
</svg>
