<svg width="24" height="24" viewBox="0 0 24 24" fill="none" xmlns="http://www.w3.org/2000/svg">
<path fill-rule="evenodd" clip-rule="evenodd" d="M3 8L3.78873 15.3721C3.91211 16.3592 4.50606 17.1843 5.32848 17.6337C5.11848 18.0435 5 18.5079 5 19C5 20.6569 6.34315 22 8 22C9.65685 22 11 20.6569 11 19C11 18.6494 10.9398 18.3128 10.8293 18H13.1707C13.0602 18.3128 13 18.6494 13 19C13 20.6569 14.3431 22 16 22C17.6569 22 19 20.6569 19 19C19 18.5079 18.8815 18.0435 18.6715 17.6337C19.4939 17.1843 20.0879 16.3592 20.2113 15.3721L21 8H3ZM17.2344 16C17.7388 16 18.1642 15.6245 18.2267 15.124L18.7345 10H5.26557L5.77329 15.124C5.83584 15.6245 6.26124 16 6.76556 16H17.2344ZM16 18C15.4477 18 15 18.4477 15 19C15 19.5523 15.4477 20 16 20C16.5523 20 17 19.5523 17 19C17 18.4477 16.5523 18 16 18ZM8 18C7.44772 18 7 18.4477 7 19C7 19.5523 7.44772 20 8 20C8.55228 20 9 19.5523 9 19C9 18.4477 8.55228 18 8 18Z" fill="black"/>
</svg>
