<svg width="24" height="24" viewBox="0 0 24 24" fill="none" xmlns="http://www.w3.org/2000/svg">
<path fill-rule="evenodd" clip-rule="evenodd" d="M21 8H3L3.72985 15.2985C3.83319 16.3319 4.45284 17.1992 5.31763 17.6551C5.11441 18.0596 5 18.5164 5 19C5 20.6569 6.34315 22 8 22C9.65685 22 11 20.6569 11 19C11 18.6494 10.9398 18.3128 10.8293 18H13.1707C13.0602 18.3128 13 18.6494 13 19C13 20.6569 14.3431 22 16 22C17.6569 22 19 20.6569 19 19C19 18.5164 18.8856 18.0596 18.6824 17.6551C19.5472 17.1992 20.1668 16.3319 20.2701 15.2985L21 8ZM16 18C15.4477 18 15 18.4477 15 19C15 19.5523 15.4477 20 16 20C16.5523 20 17 19.5523 17 19C17 18.4477 16.5523 18 16 18ZM8 18C7.44772 18 7 18.4477 7 19C7 19.5523 7.44772 20 8 20C8.55228 20 9 19.5523 9 19C9 18.4477 8.55228 18 8 18Z" fill="black"/>
</svg>
