<svg width="24" height="24" viewBox="0 0 24 24" fill="none" xmlns="http://www.w3.org/2000/svg">
<path fill-rule="evenodd" clip-rule="evenodd" d="M12 4L10 2L6 6H18L14 2L12 4ZM2.99999 8H21L20.2113 15.3721C20.0879 16.3592 19.4939 17.1843 18.6715 17.6337C18.8815 18.0435 19 18.5079 19 19C19 20.6569 17.6569 22 16 22C14.3431 22 13 20.6569 13 19C13 18.6494 13.0602 18.3128 13.1707 18H10.8293C10.9398 18.3128 11 18.6494 11 19C11 20.6569 9.65685 22 8 22C6.34315 22 5 20.6569 5 19C5 18.5079 5.11848 18.0435 5.32848 17.6337C4.50606 17.1843 3.91211 16.3592 3.78873 15.3721L2.99999 8ZM17.2344 16H6.76556C6.26124 16 5.83584 15.6245 5.77329 15.124L5.26555 10H18.7345L18.2267 15.124C18.1642 15.6245 17.7388 16 17.2344 16ZM15 19C15 18.4477 15.4477 18 16 18C16.5523 18 17 18.4477 17 19C17 19.5523 16.5523 20 16 20C15.4477 20 15 19.5523 15 19ZM7 19C7 18.4477 7.44771 18 8 18C8.55228 18 9 18.4477 9 19C9 19.5523 8.55228 20 8 20C7.44771 20 7 19.5523 7 19Z" fill="black"/>
</svg>
