<svg width="25" height="24" viewBox="0 0 25 24" fill="none" xmlns="http://www.w3.org/2000/svg">
<path fill-rule="evenodd" clip-rule="evenodd" d="M16.02 2H8.02002V17H11.02V18.9563C11.0181 18.9653 11.0146 18.9789 11.0088 18.9963C10.9896 19.0541 10.9408 19.1651 10.8129 19.2929C10.5666 19.5392 9.86588 20 8.02002 20V22H8.02594H8.03197H8.03811H8.04437H8.05074H8.05722H8.06381H8.07052H8.07733H8.08426H8.0913H8.09844H8.1057H8.11306H8.12053H8.12811H8.1358H8.14359H8.15149H8.1595H8.16761H8.17583H8.18415H8.19257H8.2011H8.20973H8.21847H8.22731H8.23625H8.24529H8.25443H8.26367H8.27301H8.28246H8.292H8.30164H8.31138H8.32121H8.33115H8.34118H8.35131H8.36153H8.37185H8.38226H8.39277H8.40338H8.41407H8.42487H8.43575H8.44673H8.4578H8.46896H8.48021H8.49155H8.50298H8.5145H8.52612H8.53782H8.54961H8.56148H8.57345H8.5855H8.59764H8.60986H8.62217H8.63457H8.64705H8.65962H8.67227H8.685H8.69782H8.71072H8.7237H8.73676H8.74991H8.76313H8.77644H8.78982H8.80329H8.81683H8.83046H8.84416H8.85794H8.87179H8.88573H8.89974H8.91382H8.92799H8.94222H8.95653H8.97092H8.98538H8.99991H9.01452H9.0292H9.04395H9.05877H9.07366H9.08862H9.10366H9.11876H9.13393H9.14917H9.16448H9.17986H9.1953H9.21082H9.2264H9.24204H9.25775H9.27353H9.28937H9.30527H9.32124H9.33727H9.35337H9.36953H9.38575H9.40203H9.41837H9.43478H9.45124H9.46777H9.48435H9.50099H9.51769H9.53445H9.55127H9.56814H9.58507H9.60206H9.61911H9.6362H9.65336H9.67057H9.68783H9.70514H9.72251H9.73993H9.75741H9.77493H9.79251H9.81014H9.82782H9.84555H9.86333H9.88116H9.89903H9.91696H9.93493H9.95295H9.97102H9.98913H10.0073H10.0255H10.0437H10.062H10.0804H10.0988H10.1172H10.1357H10.1542H10.1727H10.1913H10.21H10.2286H10.2473H10.2661H10.2849H10.3037H10.3226H10.3415H10.3605H10.3795H10.3985H10.4175H10.4366H10.4558H10.4749H10.4941H10.5134H10.5326H10.5519H10.5713H10.5906H10.61H10.6295H10.6489H10.6684H10.6879H10.7075H10.7271H10.7467H10.7663H10.786H10.8056H10.8254H10.8451H10.8649H10.8847H10.9045H10.9243H10.9442H10.9641H10.984H11.0039H11.0239H11.0439H11.0639H11.0839H11.104H11.124H11.1441H11.1642H11.1843H11.2045H11.2246H11.2448H11.265H11.2852H11.3054H11.3257H11.3459H11.3662H11.3865H11.4068H11.4271H11.4474H11.4678H11.4881H11.5085H11.5289H11.5492H11.5696H11.59H11.6105H11.6309H11.6513H11.6718H11.6922H11.7127H11.7331H11.7536H11.7741H11.7945H11.815H11.8355H11.856H11.8765H11.897H11.9175H11.938H11.9585H11.979H11.9995H12.02H12.0405H12.061H12.0815H12.102H12.1225H12.1431H12.1635H12.184H12.2045H12.225H12.2455H12.266H12.2865H12.3069H12.3274H12.3478H12.3683H12.3887H12.4092H12.4296H12.45H12.4704H12.4908H12.5112H12.5316H12.5519H12.5723H12.5926H12.6129H12.6332H12.6535H12.6738H12.6941H12.7144H12.7346H12.7548H12.775H12.7952H12.8154H12.8356H12.8557H12.8758H12.8959H12.916H12.9361H12.9561H12.9762H12.9962H13.0161H13.0361H13.056H13.0759H13.0958H13.1157H13.1356H13.1554H13.1752H13.1949H13.2147H13.2344H13.2541H13.2737H13.2934H13.313H13.3326H13.3521H13.3716H13.3911H13.4106H13.43H13.4494H13.4688H13.4881H13.5074H13.5267H13.5459H13.5651H13.5843H13.6034H13.6225H13.6416H13.6606H13.6796H13.6985H13.7174H13.7363H13.7551H13.7739H13.7927H13.8114H13.8301H13.8487H13.8673H13.8859H13.9044H13.9229H13.9413H13.9597H13.978H13.9963H14.0145H14.0328H14.0509H14.069H14.0871H14.1051H14.1231H14.141H14.1589H14.1767H14.1945H14.2122H14.2299H14.2475H14.2651H14.2826H14.3001H14.3175H14.3349H14.3522H14.3695H14.3867H14.4038H14.4209H14.438H14.455H14.4719H14.4888H14.5056H14.5223H14.539H14.5557H14.5723H14.5888H14.6053H14.6217H14.638H14.6543H14.6705H14.6867H14.7028H14.7188H14.7348H14.7507H14.7665H14.7823H14.798H14.8136H14.8292H14.8447H14.8602H14.8756H14.8909H14.9061H14.9213H14.9364H14.9514H14.9664H14.9813H14.9961H15.0108H15.0255H15.0401H15.0547H15.0691H15.0835H15.0978H15.1121H15.1262H15.1403H15.1543H15.1682H15.1821H15.1959H15.2096H15.2232H15.2367H15.2502H15.2636H15.2769H15.2901H15.3033H15.3163H15.3293H15.3422H15.355H15.3678H15.3804H15.393H15.4055H15.4179H15.4302H15.4424H15.4545H15.4666H15.4786H15.4904H15.5022H15.5139H15.5255H15.5371H15.5485H15.5598H15.5711H15.5822H15.5933H15.6043H15.6152H15.626H15.6367H15.6473H15.6578H15.6682H15.6785H15.6887H15.6989H15.7089H15.7188H15.7287H15.7384H15.748H15.7576H15.767H15.7764H15.7856H15.7948H15.8038H15.8127H15.8216H15.8303H15.8389H15.8475H15.8559H15.8642H15.8724H15.8805H15.8885H15.8964H15.9042H15.9119H15.9195H15.927H15.9343H15.9416H15.9487H15.9558H15.9627H15.9695H15.9762H15.9828H15.9893H15.9957H16.0019H16.0081H16.0141H16.02V20C14.1742 20 13.4734 19.5392 13.2271 19.2929C13.0993 19.1651 13.0505 19.0541 13.0312 18.9963C13.0254 18.9789 13.022 18.9653 13.02 18.9563V17H16.02V2ZM12.02 6C12.5723 6 13.02 5.55228 13.02 5C13.02 4.44772 12.5723 4 12.02 4C11.4677 4 11.02 4.44772 11.02 5C11.02 5.55228 11.4677 6 12.02 6ZM13.02 9C13.02 9.55228 12.5723 10 12.02 10C11.4677 10 11.02 9.55228 11.02 9C11.02 8.44772 11.4677 8 12.02 8C12.5723 8 13.02 8.44772 13.02 9Z" fill="black"/>
</svg>
