<svg width="24" height="24" viewBox="0 0 24 24" fill="none" xmlns="http://www.w3.org/2000/svg">
<path fill-rule="evenodd" clip-rule="evenodd" d="M8 2H7V3V17V18H8H11V18.9563C10.9981 18.9653 10.9946 18.9789 10.9888 18.9963C10.9696 19.0541 10.9207 19.1651 10.7929 19.2929C10.5466 19.5392 9.84586 20 8 20V22H8.00592H8.01195H8.01809H8.02435H8.03072H8.0372H8.04379H8.0505H8.05731H8.06424H8.07128H8.07842H8.08568H8.09304H8.10051H8.10809H8.11578H8.12357H8.13147H8.13948H8.14759H8.15581H8.16413H8.17255H8.18108H8.18972H8.19845H8.20729H8.21623H8.22527H8.23441H8.24365H8.25299H8.26244H8.27198H8.28162H8.29136H8.30119H8.31113H8.32116H8.33129H8.34151H8.35183H8.36224H8.37275H8.38336H8.39406H8.40485H8.41573H8.42671H8.43778H8.44894H8.46019H8.47153H8.48296H8.49448H8.5061H8.5178H8.52959H8.54146H8.55343H8.56548H8.57762H8.58984H8.60215H8.61455H8.62703H8.6396H8.65225H8.66498H8.6778H8.6907H8.70368H8.71674H8.72989H8.74311H8.75642H8.7698H8.78327H8.79681H8.81044H8.82414H8.83792H8.85178H8.86571H8.87972H8.8938H8.90797H8.9222H8.93651H8.9509H8.96536H8.97989H8.9945H9.00918H9.02393H9.03875H9.05364H9.0686H9.08364H9.09874H9.11391H9.12915H9.14446H9.15984H9.17529H9.1908H9.20638H9.22202H9.23773H9.25351H9.26935H9.28525H9.30122H9.31726H9.33335H9.34951H9.36573H9.38201H9.39835H9.41476H9.43122H9.44775H9.46433H9.48097H9.49767H9.51443H9.53125H9.54812H9.56505H9.58204H9.59909H9.61618H9.63334H9.65055H9.66781H9.68512H9.70249H9.71992H9.73739H9.75492H9.77249H9.79012H9.8078H9.82553H9.84331H9.86114H9.87901H9.89694H9.91491H9.93293H9.951H9.96911H9.98727H10.0055H10.0237H10.042H10.0604H10.0787H10.0972H10.1156H10.1341H10.1527H10.1713H10.1899H10.2086H10.2273H10.2461H10.2649H10.2837H10.3026H10.3215H10.3405H10.3594H10.3785H10.3975H10.4166H10.4357H10.4549H10.4741H10.4933H10.5126H10.5319H10.5512H10.5706H10.59H10.6094H10.6289H10.6484H10.6679H10.6875H10.707H10.7266H10.7463H10.7659H10.7856H10.8053H10.8251H10.8449H10.8646H10.8845H10.9043H10.9242H10.9441H10.964H10.9839H11.0039H11.0239H11.0439H11.0639H11.0839H11.104H11.1241H11.1442H11.1643H11.1845H11.2046H11.2248H11.245H11.2652H11.2854H11.3057H11.3259H11.3462H11.3665H11.3868H11.4071H11.4274H11.4478H11.4681H11.4885H11.5088H11.5292H11.5496H11.57H11.5904H11.6109H11.6313H11.6517H11.6722H11.6926H11.7131H11.7336H11.754H11.7745H11.795H11.8155H11.836H11.8565H11.877H11.8975H11.918H11.9385H11.959H11.9795H12H12.0205H12.041H12.0615H12.082H12.1025H12.123H12.1435H12.164H12.1845H12.205H12.2255H12.246H12.2664H12.2869H12.3074H12.3278H12.3483H12.3687H12.3891H12.4096H12.43H12.4504H12.4708H12.4912H12.5115H12.5319H12.5522H12.5726H12.5929H12.6132H12.6335H12.6538H12.6741H12.6943H12.7146H12.7348H12.755H12.7752H12.7954H12.8155H12.8357H12.8558H12.8759H12.896H12.9161H12.9361H12.9561H12.9761H12.9961H13.0161H13.036H13.0559H13.0758H13.0957H13.1155H13.1354H13.1551H13.1749H13.1947H13.2144H13.2341H13.2537H13.2734H13.293H13.3125H13.3321H13.3516H13.3711H13.3906H13.41H13.4294H13.4488H13.4681H13.4874H13.5067H13.5259H13.5451H13.5643H13.5834H13.6025H13.6215H13.6406H13.6595H13.6785H13.6974H13.7163H13.7351H13.7539H13.7727H13.7914H13.8101H13.8287H13.8473H13.8659H13.8844H13.9028H13.9213H13.9396H13.958H13.9763H13.9945H14.0127H14.0309H14.049H14.0671H14.0851H14.1031H14.121H14.1389H14.1567H14.1745H14.1922H14.2099H14.2275H14.2451H14.2626H14.2801H14.2975H14.3149H14.3322H14.3495H14.3667H14.3838H14.4009H14.418H14.4349H14.4519H14.4688H14.4856H14.5023H14.519H14.5357H14.5523H14.5688H14.5852H14.6016H14.618H14.6343H14.6505H14.6666H14.6827H14.6988H14.7147H14.7307H14.7465H14.7623H14.778H14.7936H14.8092H14.8247H14.8402H14.8555H14.8708H14.8861H14.9013H14.9164H14.9314H14.9464H14.9613H14.9761H14.9908H15.0055H15.0201H15.0346H15.0491H15.0635H15.0778H15.092H15.1062H15.1203H15.1343H15.1482H15.1621H15.1759H15.1896H15.2032H15.2167H15.2302H15.2436H15.2569H15.2701H15.2833H15.2963H15.3093H15.3222H15.335H15.3478H15.3604H15.373H15.3854H15.3978H15.4102H15.4224H15.4345H15.4466H15.4585H15.4704H15.4822H15.4939H15.5055H15.517H15.5285H15.5398H15.5511H15.5622H15.5733H15.5843H15.5952H15.6059H15.6166H15.6272H15.6378H15.6482H15.6585H15.6687H15.6788H15.6889H15.6988H15.7086H15.7184H15.728H15.7376H15.747H15.7563H15.7656H15.7747H15.7838H15.7927H15.8015H15.8103H15.8189H15.8274H15.8359H15.8442H15.8524H15.8605H15.8685H15.8764H15.8842H15.8919H15.8995H15.907H15.9143H15.9216H15.9287H15.9358H15.9427H15.9495H15.9562H15.9628H15.9693H15.9757H15.9819H15.9881H15.9941H16V20C14.1541 20 13.4534 19.5392 13.2071 19.2929C13.0793 19.1651 13.0304 19.0541 13.0112 18.9963C13.0054 18.9789 13.0019 18.9653 13 18.9563V18H16H17V17V3V2H16H8ZM13 16H15V4H9V16H11H13ZM13 7C13 7.55228 12.5523 8 12 8C11.4477 8 11 7.55228 11 7C11 6.44772 11.4477 6 12 6C12.5523 6 13 6.44772 13 7ZM12 12C12.5523 12 13 11.5523 13 11C13 10.4477 12.5523 10 12 10C11.4477 10 11 10.4477 11 11C11 11.5523 11.4477 12 12 12Z" fill="black"/>
</svg>
