<svg width="24" height="24" viewBox="0 0 24 24" fill="none" xmlns="http://www.w3.org/2000/svg">
<path fill-rule="evenodd" clip-rule="evenodd" d="M20 5H16V3H22V21H16V19H20V17H18V15H20V13H16V11H20V9H18V7H20V5ZM8 3C6.88663 4.82515 5.7078 6.61334 4.635 8.46269C3.53873 10.3525 2 12.7334 2 15C2 18.3137 4.68629 21 8 21C11.3137 21 14 18.3137 14 15C14 12.7334 12.4613 10.3525 11.365 8.46269C10.2917 6.61253 9.10007 4.83428 8 3ZM8 6.80737C7.54439 7.51122 6.95403 8.45083 6.365 9.46625C5.467 11.0143 4 13.1303 4 15C4 17.2091 5.79086 19 8 19C10.2091 19 12 17.2091 12 15C12 13.1303 10.533 11.0143 9.635 9.46625C9.04597 8.45083 8.45561 7.51122 8 6.80737ZM8 17C9.10457 17 10 16.1046 10 15H6C6 16.1046 6.89543 17 8 17Z" fill="black"/>
</svg>
