<svg width="24" height="24" viewBox="0 0 24 24" fill="none" xmlns="http://www.w3.org/2000/svg">
<path fill-rule="evenodd" clip-rule="evenodd" d="M11.3551 7.03008L9.23173 4.83546C10.0245 4.3072 10.9759 4 12 4C13.0243 4 13.9758 4.30727 14.7686 4.83563L12.6757 7C12.2359 7 11.7933 6.9853 11.3551 7.03008ZM15.4578 7H16C17.1008 7 17.9886 6.63768 18.9472 6.15836L19.8416 7.94721C18.8451 8.44547 17.9017 8.84805 16.7735 8.96129C17.3212 9.42836 17.8279 9.95869 18.2823 10.5295C19.9032 12.5655 21 15.28 21 18C21 19.9977 19.3552 22 17 22H3V12H4.54521C5.64691 10.1833 7.23539 8.56204 9.18073 7.659L6.35786 4.74145C7.92999 3.17207 9.67385 2 12 2C14.3261 2 16.0699 3.17194 17.642 4.74125L15.4578 7ZM5 14V16H10V14H5ZM10 18H5V20H10V18Z" fill="black"/>
</svg>
