<svg width="24" height="24" viewBox="0 0 24 24" fill="none" xmlns="http://www.w3.org/2000/svg">
<path fill-rule="evenodd" clip-rule="evenodd" d="M11.3422 7.03671L9.22865 4.83751C10.022 4.30799 10.9745 4 12 4C13.0255 4 13.978 4.30799 14.7714 4.83751L12.6931 7C12.2426 7 11.7908 6.9869 11.3422 7.03671ZM9.17078 7.66361L6.36021 4.73911L7.05462 4.04591C8.31994 2.7828 10.0695 2 12 2C13.9305 2 15.6801 2.7828 16.9454 4.04591L17.6398 4.73911L15.467 7H16C16.6398 7 17.1713 6.89318 17.5378 6.78848C18.036 6.64612 18.4858 6.38907 18.9472 6.15836L19.8416 7.94721C18.8471 8.44448 17.8885 8.84938 16.7735 8.96129C17.3212 9.42836 17.8279 9.95869 18.2823 10.5295C19.9032 12.5655 21 15.28 21 18C21 19.9977 19.3552 22 17 22H3V12H4.54521C5.64512 10.1862 7.22998 8.56773 9.17078 7.66361ZM6.97286 12H12V20H17C18.1445 20 19 19.0023 19 18C19 15.7929 18.0968 13.5075 16.7176 11.7752C15.6042 10.3767 13.8905 9 12 9C9.93269 9 8.19571 10.4413 6.97286 12ZM5 14V16H10V14H5ZM10 18H5V20H10V18Z" fill="black"/>
</svg>
