<svg width="24" height="24" viewBox="0 0 24 24" fill="none" xmlns="http://www.w3.org/2000/svg">
<path fill-rule="evenodd" clip-rule="evenodd" d="M11 2H13V6H11V2ZM12 19H8V17H12V19ZM7 6H6V4H8H9V5V8V8.53518L8.5547 8.83205L6 10.5352V19C6 19.5523 6.44772 20 7 20H17C17.5523 20 18 19.5523 18 19V10.5352L15.4453 8.83205L15 8.53518V8V5V4H16H18V6H17V7.46482L19.1094 8.87108C19.6658 9.24201 20 9.86648 20 10.5352V19C20 20.6569 18.6569 22 17 22H7C5.34315 22 4 20.6569 4 19V10.5352C4 9.86648 4.3342 9.24201 4.8906 8.87108L7 7.46482V6ZM16.7071 17.2929L13.7071 14.2929L12.2929 15.7071L15.2929 18.7071L16.7071 17.2929Z" fill="black"/>
</svg>
