<svg width="24" height="24" viewBox="0 0 24 24" fill="none" xmlns="http://www.w3.org/2000/svg">
<path fill-rule="evenodd" clip-rule="evenodd" d="M18.5 16H21C19.7944 19.6169 15.6341 22 12 22C6.47715 22 2 17.5228 2 12C2 7.3966 5.11053 3.5197 9.34445 2.35643C10.1901 2.12409 11.0806 2 12 2L12.019 2.00002L12 2.02248C11.474 2.64605 11.0361 3.34635 10.7054 4.1042C10.2517 5.14428 10 6.29275 10 7.5C10 12.1944 13.8056 16 18.5 16ZM12 20C14.11 20 15.9222 19.2475 17.2476 17.9261C12.039 17.307 8 12.8752 8 7.5C8 6.59983 8.11359 5.72557 8.32711 4.8911C5.75667 6.22184 4 8.90577 4 12C4 16.4183 7.58172 20 12 20ZM19.567 2C19.6692 2.61781 19.8998 3.23762 20.3334 3.66668C20.759 4.08782 21.3835 4.32237 22 4.42879V4.57169C21.3836 4.67855 20.7586 4.91351 20.3334 5.33335C19.8984 5.76275 19.6684 6.38205 19.5665 7H19.4288C19.3223 6.38346 19.0878 5.75894 18.6667 5.33335C18.2376 4.89972 17.6178 4.66921 17 4.56697V4.42092C17.6147 4.307 18.2478 4.06542 18.6667 3.66668C19.1235 3.23181 19.3462 2.62055 19.4407 2H19.567ZM16.5938 7C16.7369 7.86494 17.0597 8.73267 17.6667 9.33335C18.2625 9.92295 19.1369 10.2513 20 10.4003V10.6004C19.137 10.75 18.262 11.0789 17.6667 11.6667C17.0578 12.2678 16.7357 13.1349 16.5932 14H16.4003C16.2513 13.1368 15.9229 12.2625 15.3333 11.6667C14.7327 11.0596 13.8649 10.7369 13 10.5938V10.3893C13.8605 10.2298 14.747 9.89159 15.3333 9.33335C15.9728 8.72453 16.2847 7.86877 16.417 7H16.5938Z" fill="black"/>
</svg>
