<svg width="24" height="24" viewBox="0 0 24 24" fill="none" xmlns="http://www.w3.org/2000/svg">
<path fill-rule="evenodd" clip-rule="evenodd" d="M18.5 16H21C19.5 19.5 15.7017 22 12 22C6.47715 22 2 17.5228 2 12C2 6.47715 6.47715 2 12 2L12.019 2.00002C10.7597 3.48246 10 5.40251 10 7.5C10 12.1944 13.8056 16 18.5 16ZM20.3334 3.66668C19.8998 3.23762 19.6692 2.61781 19.567 2H19.4407C19.3462 2.62055 19.1235 3.23181 18.6667 3.66668C18.2478 4.06542 17.6147 4.307 17 4.42092V4.56697C17.6178 4.66922 18.2376 4.89972 18.6667 5.33335C19.0878 5.75894 19.3223 6.38346 19.4288 7H19.5665C19.6684 6.38205 19.8984 5.76275 20.3334 5.33335C20.7586 4.91351 21.3836 4.67855 22 4.57169V4.42879C21.3835 4.32237 20.759 4.08782 20.3334 3.66668ZM17.6667 9.33335C17.0597 8.73267 16.7369 7.86494 16.5938 7H16.417C16.2847 7.86877 15.9728 8.72453 15.3333 9.33335C14.747 9.89159 13.8605 10.2298 13 10.3893V10.5938C13.8649 10.7369 14.7327 11.0596 15.3333 11.6667C15.9229 12.2625 16.2513 13.1368 16.4003 14H16.5932C16.7357 13.1349 17.0578 12.2678 17.6667 11.6667C18.262 11.0789 19.137 10.75 20 10.6004V10.4003C19.1369 10.2513 18.2625 9.92295 17.6667 9.33335Z" fill="black"/>
</svg>
