<svg width="24" height="24" viewBox="0 0 24 24" fill="none" xmlns="http://www.w3.org/2000/svg">
<path fill-rule="evenodd" clip-rule="evenodd" d="M22 11L12 3L2 11L5.65292 14.0441C6.76725 11.6554 9.19022 10 12 10C14.8157 10 17.2429 11.6625 18.3541 14.0592L20 12.7022V19.2676C19.4022 19.6134 19 20.2597 19 21V22H23V21C23 20.2597 22.5978 19.6134 22 19.2676V11ZM7 17C7 14.7879 8.4365 12.9114 10.4275 12.2523C10.922 12.0886 11.4506 12 12 12C12.5235 12 13.0282 12.0804 13.5024 12.2297C15.5297 12.8675 17 14.7621 17 17V19H7V17Z" fill="black"/>
</svg>
