<svg width="24" height="24" viewBox="0 0 24 24" fill="none" xmlns="http://www.w3.org/2000/svg">
<path fill-rule="evenodd" clip-rule="evenodd" d="M12 3L2 11L6.19361 14.5109C6.07207 14.987 6.00746 15.486 6.00746 16V19H18.0022V16C18.0022 15.486 17.9376 14.987 17.816 14.5109L20.0013 12.6661V19.2676C19.4038 19.6134 19.0018 20.2597 19.0018 21V22H23V21C23 20.2597 22.598 19.6134 22.0004 19.2676V11L12 3ZM12.0048 10C9.92569 10 8.09366 11.0585 7.01774 12.6661L5 11L12 5.42334L19 11L16.9919 12.6661C15.916 11.0585 14.084 10 12.0048 10ZM8.00658 16C8.00658 13.7909 9.79665 12 12.0048 12C14.213 12 16.0031 13.7909 16.0031 16V17H8L8.00658 16Z" fill="black"/>
</svg>
