<svg width="24" height="24" viewBox="0 0 24 24" fill="none" xmlns="http://www.w3.org/2000/svg">
<path fill-rule="evenodd" clip-rule="evenodd" d="M9 4.00415H11V2.00415H13V4.00415H15V2.00415H17V4.00415H19C20.1046 4.00415 21 4.89958 21 6.00415V19.0042C21 20.1087 20.1046 21.0042 19 21.0042H6C4.89543 21.0042 4 20.1087 4 19.0042V17.0042H2V15.0042H4V13.0042H2V11.0042H4V9.00415H2V7.00415H4V6.00415C4 4.89958 4.89543 4.00415 6 4.00415H7V2.00415H9V4.00415ZM17 15.0042H15V17.0042H17V15.0042ZM15 13.0042V8.00415H17V13.0042H15ZM13 15.0042H8V17.0042H13V15.0042ZM8 8.00415V13.0042H13V8.00415H8Z" fill="black"/>
</svg>
