<svg width="25" height="24" viewBox="0 0 25 24" fill="none" xmlns="http://www.w3.org/2000/svg">
<path fill-rule="evenodd" clip-rule="evenodd" d="M5.02002 9C5.02002 5.13401 8.15403 2 12.02 2C15.886 2 19.02 5.13401 19.02 9V10.3427C18.659 10.5913 18.2019 10.8329 17.6504 11.0523C16.1971 11.6304 14.2237 12 12.02 12C9.8163 12 7.84292 11.6304 6.38964 11.0523C5.83817 10.8329 5.38109 10.5913 5.02002 10.3427V9ZM5.02002 12.6366V15C5.02002 18.866 8.15403 22 12.02 22C15.886 22 19.02 18.866 19.02 15V12.6366C18.8163 12.7333 18.6058 12.8247 18.3896 12.9107C16.6584 13.5993 14.4264 14 12.02 14C9.61362 14 7.38166 13.5993 5.6504 12.9107C5.43424 12.8247 5.22373 12.7333 5.02002 12.6366ZM11.02 9V5H13.02V9H11.02Z" fill="black"/>
</svg>
