<svg width="24" height="24" viewBox="0 0 24 24" fill="none" xmlns="http://www.w3.org/2000/svg">
<path fill-rule="evenodd" clip-rule="evenodd" d="M7 9C7 6.23858 9.23858 4 12 4C14.7614 4 17 6.23858 17 9V11.2792C15.6283 11.7253 13.8997 12 12 12C10.1003 12 8.37175 11.7253 7 11.2792V9ZM7 13.3665V15C7 17.7614 9.23858 20 12 20C14.7614 20 17 17.7614 17 15V13.3665C15.5251 13.7728 13.812 14 12 14C10.188 14 8.47489 13.7728 7 13.3665ZM12 2C8.13401 2 5 5.13401 5 9V15C5 18.866 8.13401 22 12 22C15.866 22 19 18.866 19 15V9C19 5.13401 15.866 2 12 2ZM11 6V10H13V6H11Z" fill="black"/>
</svg>
