<svg width="25" height="24" viewBox="0 0 25 24" fill="none" xmlns="http://www.w3.org/2000/svg">
<path fill-rule="evenodd" clip-rule="evenodd" d="M11.02 2.07025V9.97298C9.22123 9.87995 7.61927 9.54008 6.38964 9.05094C5.85269 8.83735 5.40522 8.60267 5.04874 8.36097C5.34121 5.12588 7.83474 2.52587 11.02 2.07025ZM13.02 2.07025V9.97298C14.8188 9.87995 16.4208 9.54008 17.6504 9.05094C18.1873 8.83735 18.6348 8.60267 18.9913 8.36097C18.6988 5.12588 16.2053 2.52587 13.02 2.07025ZM19.02 10.6353C18.8163 10.732 18.6058 10.8233 18.3896 10.9093C16.6584 11.598 14.4264 11.9986 12.02 11.9986C9.61362 11.9986 7.38166 11.598 5.6504 10.9093C5.43424 10.8233 5.22373 10.732 5.02002 10.6353V14.9994C5.02002 18.8654 8.15403 21.9994 12.02 21.9994C15.886 21.9994 19.02 18.8654 19.02 14.9994V10.6353Z" fill="black"/>
</svg>
