<svg width="24" height="24" viewBox="0 0 24 24" fill="none" xmlns="http://www.w3.org/2000/svg">
<path fill-rule="evenodd" clip-rule="evenodd" d="M11 4.10002C8.71776 4.56329 7 6.58104 7 9V9.27919C8.12686 9.64567 9.4945 9.89646 11 9.97432V4.10002ZM7 11.3665V15C7 17.7614 9.23858 20 12 20C14.7614 20 17 17.7614 17 15V11.3665C15.5251 11.7728 13.812 12 12 12C10.188 12 8.47489 11.7728 7 11.3665ZM17 9.27919V9C17 6.58104 15.2822 4.56329 13 4.10002V9.97432C14.5055 9.89646 15.8731 9.64567 17 9.27919ZM12 2C8.13401 2 5 5.13401 5 9V15C5 18.866 8.13401 22 12 22C15.866 22 19 18.866 19 15V9C19 5.13401 15.866 2 12 2Z" fill="black"/>
</svg>
