<svg width="24" height="24" viewBox="0 0 24 24" fill="none" xmlns="http://www.w3.org/2000/svg">
<path fill-rule="evenodd" clip-rule="evenodd" d="M4 4C4 2.89543 4.89543 2 6 2H18C19.1046 2 20 2.89543 20 4V4.03125V4.0625V4.09375V4.125V4.15625V4.1875V4.21875V4.25V4.28125V4.3125V4.34375V4.375V4.40625V4.4375V4.46875V4.5V4.53125V4.5625V4.59375V4.625V4.65625V4.6875V4.71875V4.75V4.78125V4.8125V4.84375V4.875V4.90625V4.9375V4.96875V5V5.03125V5.0625V5.09375V5.125V5.15625V5.1875V5.21875V5.25V5.28125V5.3125V5.34375V5.375V5.40625V5.4375V5.46875V5.5V5.53125V5.5625V5.59375V5.625V5.65625V5.6875V5.71875V5.75V5.78125V5.8125V5.84375V5.875V5.90625V5.9375V5.96875V6V6.03125V6.0625V6.09375V6.125V6.15625V6.1875V6.21875V6.25V6.28125V6.3125V6.34375V6.375V6.40625V6.4375V6.46875V6.5V6.53125V6.5625V6.59375V6.625V6.65625V6.6875V6.71875V6.75V6.78125V6.8125V6.84375V6.875V6.90625V6.9375V6.96875V7V7.03125V7.0625V7.09375V7.125V7.15625V7.1875V7.21875V7.25V7.28125V7.3125V7.34375V7.375V7.40625V7.4375V7.46875V7.5V7.53125V7.5625V7.59375V7.625V7.65625V7.6875V7.71875V7.75V7.78125V7.8125V7.84375V7.875V7.90625V7.9375V7.96875V8V8.03125V8.0625V8.09375V8.125V8.15625V8.1875V8.21875V8.25V8.28125V8.3125V8.34375V8.375V8.40625V8.4375V8.46875V8.5V8.53125V8.5625V8.59375V8.625V8.65625V8.6875V8.71875V8.75V8.78125V8.8125V8.84375V8.875V8.90625V8.9375V8.96875V9V9.03125V9.0625V9.09375V9.125V9.15625V9.1875V9.21875V9.25V9.28125V9.3125V9.34375V9.375V9.40625V9.4375V9.46875V9.5V9.53125V9.5625V9.59375V9.625V9.65625V9.6875V9.71875V9.75V9.78125V9.8125V9.84375V9.875V9.90625V9.9375V9.96875V10V10.0312V10.0625V10.0938V10.125V10.1562V10.1875V10.2188V10.25V10.2812V10.3125V10.3438V10.375V10.4062V10.4375V10.4688V10.5V10.5312V10.5625V10.5938V10.625V10.6562V10.6875V10.7188V10.75V10.7812V10.8125V10.8438V10.875V10.9062V10.9375V10.9688V11V11.0312V11.0625V11.0938V11.125V11.1562V11.1875V11.2188V11.25V11.2812V11.3125V11.3438V11.375V11.4062V11.4375V11.4688V11.5V11.5312V11.5625V11.5938V11.625V11.6562V11.6875V11.7188V11.75V11.7812V11.8125V11.8438V11.875V11.9062V11.9375V11.9688V12V12.0312V12.0625V12.0938V12.125V12.1562V12.1875V12.2188V12.25V12.2812V12.3125V12.3438V12.375V12.4062V12.4375V12.4688V12.5V12.5312V12.5625V12.5938V12.625V12.6562V12.6875V12.7188V12.75V12.7812V12.8125V12.8438V12.875V12.9062V12.9375V12.9688V13V13.0312V13.0625V13.0938V13.125V13.1562V13.1875V13.2188V13.25V13.2812V13.3125V13.3438V13.375V13.4062V13.4375V13.4688V13.5V13.5312V13.5625V13.5938V13.625V13.6562V13.6875V13.7188V13.75V13.7812V13.8125V13.8438V13.875V13.9062V13.9375V13.9688V14V14.0312V14.0625V14.0938V14.125V14.1562V14.1875V14.2188V14.25V14.2812V14.3125V14.3438V14.375V14.4062V14.4375V14.4688V14.5V14.5312V14.5625V14.5938V14.625V14.6562V14.6875V14.7188V14.75V14.7812V14.8125V14.8438V14.875V14.9062V14.9375V14.9688V15V15.0312V15.0625V15.0938V15.125V15.1562V15.1875V15.2188V15.25V15.2812V15.3125V15.3438V15.375V15.4062V15.4375V15.4688V15.5V15.5312V15.5625V15.5938V15.625V15.6562V15.6875V15.7188V15.75V15.7812V15.8125V15.8438V15.875V15.9062V15.9375V15.9688V16V16.0312V16.0625V16.0938V16.125V16.1562V16.1875V16.2188V16.25V16.2812V16.3125V16.3438V16.375V16.4062V16.4375V16.4688V16.5V16.5312V16.5625V16.5938V16.625V16.6562V16.6875V16.7188V16.75V16.7812V16.8125V16.8438V16.875V16.9062V16.9375V16.9688V17V17.0312V17.0625V17.0938V17.125V17.1562V17.1875V17.2188V17.25V17.2812V17.3125V17.3438V17.375V17.4062V17.4375V17.4688V17.5V17.5312V17.5625V17.5938V17.625V17.6562V17.6875V17.7188V17.75V17.7812V17.8125V17.8438V17.875V17.9062V17.9375V17.9688V18V18.0312V18.0625V18.0938V18.125V18.1562V18.1875V18.2188V18.25V18.2812V18.3125V18.3438V18.375V18.4062V18.4375V18.4688V18.5V18.5312V18.5625V18.5938V18.625V18.6562V18.6875V18.7188V18.75V18.7812V18.8125V18.8438V18.875V18.9062V18.9375V18.9688V19V19.0312V19.0625V19.0938V19.125V19.1562V19.1875V19.2188V19.25V19.2812V19.3125V19.3438V19.375V19.4062V19.4375V19.4688V19.5V19.5312V19.5625V19.5938V19.625V19.6562V19.6875V19.7188V19.75V19.7812V19.8125V19.8438V19.875V19.9062V19.9375V19.9688V20C20 21.1046 19.1046 22 18 22H6C4.89543 22 4 21.1046 4 20V19.9688V19.9375V19.9062V19.875V19.8438V19.8125V19.7812V19.75V19.7188V19.6875V19.6562V19.625V19.5938V19.5625V19.5312V19.5V19.4688V19.4375V19.4062V19.375V19.3438V19.3125V19.2812V19.25V19.2188V19.1875V19.1562V19.125V19.0938V19.0625V19.0312V19V18.9688V18.9375V18.9062V18.875V18.8438V18.8125V18.7812V18.75V18.7188V18.6875V18.6562V18.625V18.5938V18.5625V18.5312V18.5V18.4688V18.4375V18.4062V18.375V18.3438V18.3125V18.2812V18.25V18.2188V18.1875V18.1562V18.125V18.0938V18.0625V18.0312V18V17.9688V17.9375V17.9062V17.875V17.8438V17.8125V17.7812V17.75V17.7188V17.6875V17.6562V17.625V17.5938V17.5625V17.5312V17.5V17.4688V17.4375V17.4062V17.375V17.3438V17.3125V17.2812V17.25V17.2188V17.1875V17.1562V17.125V17.0938V17.0625V17.0312V17V16.9688V16.9375V16.9062V16.875V16.8438V16.8125V16.7812V16.75V16.7188V16.6875V16.6562V16.625V16.5938V16.5625V16.5312V16.5V16.4688V16.4375V16.4062V16.375V16.3438V16.3125V16.2812V16.25V16.2188V16.1875V16.1562V16.125V16.0938V16.0625V16.0312V16V15.9688V15.9375V15.9062V15.875V15.8438V15.8125V15.7812V15.75V15.7188V15.6875V15.6562V15.625V15.5938V15.5625V15.5312V15.5V15.4688V15.4375V15.4062V15.375V15.3438V15.3125V15.2812V15.25V15.2188V15.1875V15.1562V15.125V15.0938V15.0625V15.0312V15V14.9688V14.9375V14.9062V14.875V14.8438V14.8125V14.7812V14.75V14.7188V14.6875V14.6562V14.625V14.5938V14.5625V14.5312V14.5V14.4688V14.4375V14.4062V14.375V14.3438V14.3125V14.2812V14.25V14.2188V14.1875V14.1562V14.125V14.0938V14.0625V14.0312V14V13.9688V13.9375V13.9062V13.875V13.8438V13.8125V13.7812V13.75V13.7188V13.6875V13.6562V13.625V13.5938V13.5625V13.5312V13.5V13.4688V13.4375V13.4062V13.375V13.3438V13.3125V13.2812V13.25V13.2188V13.1875V13.1562V13.125V13.0938V13.0625V13.0312V13V12.9688V12.9375V12.9062V12.875V12.8438V12.8125V12.7812V12.75V12.7188V12.6875V12.6562V12.625V12.5938V12.5625V12.5312V12.5V12.4688V12.4375V12.4062V12.375V12.3438V12.3125V12.2812V12.25V12.2188V12.1875V12.1562V12.125V12.0938V12.0625V12.0312V12V11.9688V11.9375V11.9062V11.875V11.8438V11.8125V11.7812V11.75V11.7188V11.6875V11.6562V11.625V11.5938V11.5625V11.5312V11.5V11.4688V11.4375V11.4062V11.375V11.3438V11.3125V11.2812V11.25V11.2188V11.1875V11.1562V11.125V11.0938V11.0625V11.0312V11V10.9688V10.9375V10.9062V10.875V10.8438V10.8125V10.7812V10.75V10.7188V10.6875V10.6562V10.625V10.5938V10.5625V10.5312V10.5V10.4688V10.4375V10.4062V10.375V10.3438V10.3125V10.2812V10.25V10.2188V10.1875V10.1562V10.125V10.0938V10.0625V10.0312V10V9.96875V9.9375V9.90625V9.875V9.84375V9.8125V9.78125V9.75V9.71875V9.6875V9.65625V9.625V9.59375V9.5625V9.53125V9.5V9.46875V9.4375V9.40625V9.375V9.34375V9.3125V9.28125V9.25V9.21875V9.1875V9.15625V9.125V9.09375V9.0625V9.03125V9V8.96875V8.9375V8.90625V8.875V8.84375V8.8125V8.78125V8.75V8.71875V8.6875V8.65625V8.625V8.59375V8.5625V8.53125V8.5V8.46875V8.4375V8.40625V8.375V8.34375V8.3125V8.28125V8.25V8.21875V8.1875V8.15625V8.125V8.09375V8.0625V8.03125V8V7.96875V7.9375V7.90625V7.875V7.84375V7.8125V7.78125V7.75V7.71875V7.6875V7.65625V7.625V7.59375V7.5625V7.53125V7.5V7.46875V7.4375V7.40625V7.375V7.34375V7.3125V7.28125V7.25V7.21875V7.1875V7.15625V7.125V7.09375V7.0625V7.03125V7V6.96875V6.9375V6.90625V6.875V6.84375V6.8125V6.78125V6.75V6.71875V6.6875V6.65625V6.625V6.59375V6.5625V6.53125V6.5V6.46875V6.4375V6.40625V6.375V6.34375V6.3125V6.28125V6.25V6.21875V6.1875V6.15625V6.125V6.09375V6.0625V6.03125V6V5.96875V5.9375V5.90625V5.875V5.84375V5.8125V5.78125V5.75V5.71875V5.6875V5.65625V5.625V5.59375V5.5625V5.53125V5.5V5.46875V5.4375V5.40625V5.375V5.34375V5.3125V5.28125V5.25V5.21875V5.1875V5.15625V5.125V5.09375V5.0625V5.03125V5V4.96875V4.9375V4.90625V4.875V4.84375V4.8125V4.78125V4.75V4.71875V4.6875V4.65625V4.625V4.59375V4.5625V4.53125V4.5V4.46875V4.4375V4.40625V4.375V4.34375V4.3125V4.28125V4.25V4.21875V4.1875V4.15625V4.125V4.09375V4.0625V4.03125V4ZM18 4H6V4.03125V4.0625V4.09375V4.125V4.15625V4.1875V4.21875V4.25V4.28125V4.3125V4.34375V4.375V4.40625V4.4375V4.46875V4.5V4.53125V4.5625V4.59375V4.625V4.65625V4.6875V4.71875V4.75V4.78125V4.8125V4.84375V4.875V4.90625V4.9375V4.96875V5V5.03125V5.0625V5.09375V5.125V5.15625V5.1875V5.21875V5.25V5.28125V5.3125V5.34375V5.375V5.40625V5.4375V5.46875V5.5V5.53125V5.5625V5.59375V5.625V5.65625V5.6875V5.71875V5.75V5.78125V5.8125V5.84375V5.875V5.90625V5.9375V5.96875V6V6.03125V6.0625V6.09375V6.125V6.15625V6.1875V6.21875V6.25V6.28125V6.3125V6.34375V6.375V6.40625V6.4375V6.46875V6.5V6.53125V6.5625V6.59375V6.625V6.65625V6.6875V6.71875V6.75V6.78125V6.8125V6.84375V6.875V6.90625V6.9375V6.96875V7V7.03125V7.0625V7.09375V7.125V7.15625V7.1875V7.21875V7.25V7.28125V7.3125V7.34375V7.375V7.40625V7.4375V7.46875V7.5V7.53125V7.5625V7.59375V7.625V7.65625V7.6875V7.71875V7.75V7.78125V7.8125V7.84375V7.875V7.90625V7.9375V7.96875V8V8.03125V8.0625V8.09375V8.125V8.15625V8.1875V8.21875V8.25V8.28125V8.3125V8.34375V8.375V8.40625V8.4375V8.46875V8.5V8.53125V8.5625V8.59375V8.625V8.65625V8.6875V8.71875V8.75V8.78125V8.8125V8.84375V8.875V8.90625V8.9375V8.96875V9V9.03125V9.0625V9.09375V9.125V9.15625V9.1875V9.21875V9.25V9.28125V9.3125V9.34375V9.375V9.40625V9.4375V9.46875V9.5V9.53125V9.5625V9.59375V9.625V9.65625V9.6875V9.71875V9.75V9.78125V9.8125V9.84375V9.875V9.90625V9.9375V9.96875V10V10.0312V10.0625V10.0938V10.125V10.1562V10.1875V10.2188V10.25V10.2812V10.3125V10.3438V10.375V10.4062V10.4375V10.4688V10.5V10.5312V10.5625V10.5938V10.625V10.6562V10.6875V10.7188V10.75V10.7812V10.8125V10.8438V10.875V10.9062V10.9375V10.9688V11V11.0312V11.0625V11.0938V11.125V11.1562V11.1875V11.2188V11.25V11.2812V11.3125V11.3438V11.375V11.4062V11.4375V11.4688V11.5V11.5312V11.5625V11.5938V11.625V11.6562V11.6875V11.7188V11.75V11.7812V11.8125V11.8438V11.875V11.9062V11.9375V11.9688V12V12.0312V12.0625V12.0938V12.125V12.1562V12.1875V12.2188V12.25V12.2812V12.3125V12.3438V12.375V12.4062V12.4375V12.4688V12.5V12.5312V12.5625V12.5938V12.625V12.6562V12.6875V12.7188V12.75V12.7812V12.8125V12.8438V12.875V12.9062V12.9375V12.9688V13V13.0312V13.0625V13.0938V13.125V13.1562V13.1875V13.2188V13.25V13.2812V13.3125V13.3438V13.375V13.4062V13.4375V13.4688V13.5V13.5312V13.5625V13.5938V13.625V13.6562V13.6875V13.7188V13.75V13.7812V13.8125V13.8438V13.875V13.9062V13.9375V13.9688V14V14.0312V14.0625V14.0938V14.125V14.1562V14.1875V14.2188V14.25V14.2812V14.3125V14.3438V14.375V14.4062V14.4375V14.4688V14.5V14.5312V14.5625V14.5938V14.625V14.6562V14.6875V14.7188V14.75V14.7812V14.8125V14.8438V14.875V14.9062V14.9375V14.9688V15V15.0312V15.0625V15.0938V15.125V15.1562V15.1875V15.2188V15.25V15.2812V15.3125V15.3438V15.375V15.4062V15.4375V15.4688V15.5V15.5312V15.5625V15.5938V15.625V15.6562V15.6875V15.7188V15.75V15.7812V15.8125V15.8438V15.875V15.9062V15.9375V15.9688V16V16.0312V16.0625V16.0938V16.125V16.1562V16.1875V16.2188V16.25V16.2812V16.3125V16.3438V16.375V16.4062V16.4375V16.4688V16.5V16.5312V16.5625V16.5938V16.625V16.6562V16.6875V16.7188V16.75V16.7812V16.8125V16.8438V16.875V16.9062V16.9375V16.9688V17V17.0312V17.0625V17.0938V17.125V17.1562V17.1875V17.2188V17.25V17.2812V17.3125V17.3438V17.375V17.4062V17.4375V17.4688V17.5V17.5312V17.5625V17.5938V17.625V17.6562V17.6875V17.7188V17.75V17.7812V17.8125V17.8438V17.875V17.9062V17.9375V17.9688V18V18.0312V18.0625V18.0938V18.125V18.1562V18.1875V18.2188V18.25V18.2812V18.3125V18.3438V18.375V18.4062V18.4375V18.4688V18.5V18.5312V18.5625V18.5938V18.625V18.6562V18.6875V18.7188V18.75V18.7812V18.8125V18.8438V18.875V18.9062V18.9375V18.9688V19V19.0312V19.0625V19.0938V19.125V19.1562V19.1875V19.2188V19.25V19.2812V19.3125V19.3438V19.375V19.4062V19.4375V19.4688V19.5V19.5312V19.5625V19.5938V19.625V19.6562V19.6875V19.7188V19.75V19.7812V19.8125V19.8438V19.875V19.9062V19.9375V19.9688V20H18V19.9688V19.9375V19.9062V19.875V19.8438V19.8125V19.7812V19.75V19.7188V19.6875V19.6562V19.625V19.5938V19.5625V19.5312V19.5V19.4688V19.4375V19.4062V19.375V19.3438V19.3125V19.2812V19.25V19.2188V19.1875V19.1562V19.125V19.0938V19.0625V19.0312V19V18.9688V18.9375V18.9062V18.875V18.8438V18.8125V18.7812V18.75V18.7188V18.6875V18.6562V18.625V18.5938V18.5625V18.5312V18.5V18.4688V18.4375V18.4062V18.375V18.3438V18.3125V18.2812V18.25V18.2188V18.1875V18.1562V18.125V18.0938V18.0625V18.0312V18V17.9688V17.9375V17.9062V17.875V17.8438V17.8125V17.7812V17.75V17.7188V17.6875V17.6562V17.625V17.5938V17.5625V17.5312V17.5V17.4688V17.4375V17.4062V17.375V17.3438V17.3125V17.2812V17.25V17.2188V17.1875V17.1562V17.125V17.0938V17.0625V17.0312V17V16.9688V16.9375V16.9062V16.875V16.8438V16.8125V16.7812V16.75V16.7188V16.6875V16.6562V16.625V16.5938V16.5625V16.5312V16.5V16.4688V16.4375V16.4062V16.375V16.3438V16.3125V16.2812V16.25V16.2188V16.1875V16.1562V16.125V16.0938V16.0625V16.0312V16V15.9688V15.9375V15.9062V15.875V15.8438V15.8125V15.7812V15.75V15.7188V15.6875V15.6562V15.625V15.5938V15.5625V15.5312V15.5V15.4688V15.4375V15.4062V15.375V15.3438V15.3125V15.2812V15.25V15.2188V15.1875V15.1562V15.125V15.0938V15.0625V15.0312V15V14.9688V14.9375V14.9062V14.875V14.8438V14.8125V14.7812V14.75V14.7188V14.6875V14.6562V14.625V14.5938V14.5625V14.5312V14.5V14.4688V14.4375V14.4062V14.375V14.3438V14.3125V14.2812V14.25V14.2188V14.1875V14.1562V14.125V14.0938V14.0625V14.0312V14V13.9688V13.9375V13.9062V13.875V13.8438V13.8125V13.7812V13.75V13.7188V13.6875V13.6562V13.625V13.5938V13.5625V13.5312V13.5V13.4688V13.4375V13.4062V13.375V13.3438V13.3125V13.2812V13.25V13.2188V13.1875V13.1562V13.125V13.0938V13.0625V13.0312V13V12.9688V12.9375V12.9062V12.875V12.8438V12.8125V12.7812V12.75V12.7188V12.6875V12.6562V12.625V12.5938V12.5625V12.5312V12.5V12.4688V12.4375V12.4062V12.375V12.3438V12.3125V12.2812V12.25V12.2188V12.1875V12.1562V12.125V12.0938V12.0625V12.0312V12V11.9688V11.9375V11.9062V11.875V11.8438V11.8125V11.7812V11.75V11.7188V11.6875V11.6562V11.625V11.5938V11.5625V11.5312V11.5V11.4688V11.4375V11.4062V11.375V11.3438V11.3125V11.2812V11.25V11.2188V11.1875V11.1562V11.125V11.0938V11.0625V11.0312V11V10.9688V10.9375V10.9062V10.875V10.8438V10.8125V10.7812V10.75V10.7188V10.6875V10.6562V10.625V10.5938V10.5625V10.5312V10.5V10.4688V10.4375V10.4062V10.375V10.3438V10.3125V10.2812V10.25V10.2188V10.1875V10.1562V10.125V10.0938V10.0625V10.0312V10V9.96875V9.9375V9.90625V9.875V9.84375V9.8125V9.78125V9.75V9.71875V9.6875V9.65625V9.625V9.59375V9.5625V9.53125V9.5V9.46875V9.4375V9.40625V9.375V9.34375V9.3125V9.28125V9.25V9.21875V9.1875V9.15625V9.125V9.09375V9.0625V9.03125V9V8.96875V8.9375V8.90625V8.875V8.84375V8.8125V8.78125V8.75V8.71875V8.6875V8.65625V8.625V8.59375V8.5625V8.53125V8.5V8.46875V8.4375V8.40625V8.375V8.34375V8.3125V8.28125V8.25V8.21875V8.1875V8.15625V8.125V8.09375V8.0625V8.03125V8V7.96875V7.9375V7.90625V7.875V7.84375V7.8125V7.78125V7.75V7.71875V7.6875V7.65625V7.625V7.59375V7.5625V7.53125V7.5V7.46875V7.4375V7.40625V7.375V7.34375V7.3125V7.28125V7.25V7.21875V7.1875V7.15625V7.125V7.09375V7.0625V7.03125V7V6.96875V6.9375V6.90625V6.875V6.84375V6.8125V6.78125V6.75V6.71875V6.6875V6.65625V6.625V6.59375V6.5625V6.53125V6.5V6.46875V6.4375V6.40625V6.375V6.34375V6.3125V6.28125V6.25V6.21875V6.1875V6.15625V6.125V6.09375V6.0625V6.03125V6V5.96875V5.9375V5.90625V5.875V5.84375V5.8125V5.78125V5.75V5.71875V5.6875V5.65625V5.625V5.59375V5.5625V5.53125V5.5V5.46875V5.4375V5.40625V5.375V5.34375V5.3125V5.28125V5.25V5.21875V5.1875V5.15625V5.125V5.09375V5.0625V5.03125V5V4.96875V4.9375V4.90625V4.875V4.84375V4.8125V4.78125V4.75V4.71875V4.6875V4.65625V4.625V4.59375V4.5625V4.53125V4.5V4.46875V4.4375V4.40625V4.375V4.34375V4.3125V4.28125V4.25V4.21875V4.1875V4.15625V4.125V4.09375V4.0625V4.03125V4ZM12 18C13.6569 18 15 16.6569 15 15C15 13.3431 13.6569 12 12 12C10.3431 12 9 13.3431 9 15C9 16.6569 10.3431 18 12 18ZM13.5 15L11.5 13.5V16.5L13.5 15ZM16 6H8V10H16V6Z" fill="black"/>
</svg>
