<svg width="24" height="24" viewBox="0 0 24 24" fill="none" xmlns="http://www.w3.org/2000/svg">
<path fill-rule="evenodd" clip-rule="evenodd" d="M2 5H12V3H2V5ZM2 9H12V7H2V9ZM2 13H12V11H2V13ZM22 3V6.90499L17 7.40499V18C17 18.9907 16.3977 19.7651 15.676 20.2463C14.9474 20.732 13.9983 21 13 21C12.0017 21 11.0526 20.732 10.324 20.2463C9.6023 19.7651 9 18.9907 9 18C9 17.0093 9.6023 16.2349 10.324 15.7537C11.0526 15.268 12.0017 15 13 15C13.7125 15 14.3999 15.1365 15 15.3912V5.40499C15 4.37748 15.7786 3.51715 16.801 3.41491L22 3Z" fill="black"/>
</svg>
