<svg width="24" height="24" viewBox="0 0 24 24" fill="none" xmlns="http://www.w3.org/2000/svg">
<path fill-rule="evenodd" clip-rule="evenodd" d="M18.3733 4.81413L10.4506 7.07777C9.59195 7.32309 9 8.10786 9 9.00082V9.42867L18 6.97412V6.71005C18 6.04793 18.1308 5.40567 18.3733 4.81413ZM20 16.5C20 18.2519 17.9583 19 16.5 19C15.0417 19 13 18.2519 13 16.5C13 14.7481 15.0417 14 16.5 14C17.0239 14 17.5356 14.0786 18 14.2297V9.04717L9 11.5017V19.5C9 21.2519 6.95834 22 5.5 22C4.04166 22 2 21.2519 2 19.5C2 17.7481 4.04166 17 5.5 17C6.02385 17 6.53561 17.0786 7 17.2297V9.00082C7 7.2149 8.18391 5.64536 9.90112 5.15473L21.2781 2L22 3.85595L21.6584 4.02677C20.642 4.53495 20 5.57374 20 6.71005V16.5Z" fill="black"/>
</svg>
