<svg width="24" height="24" viewBox="0 0 24 24" fill="none" xmlns="http://www.w3.org/2000/svg">
<path fill-rule="evenodd" clip-rule="evenodd" d="M12 2L4.02871 6.42849C3.39378 6.78123 3 7.45047 3 8.17681V15.8232C3 16.5495 3.39378 17.2188 4.02871 17.5715L12 22L19.9713 17.5715C20.6062 17.2188 21 16.5495 21 15.8232V8.17681C21 7.45047 20.6062 6.78123 19.9713 6.42849L12 2ZM12 16C14.2091 16 16 14.2091 16 12C16 9.79086 14.2091 8 12 8C9.79086 8 8 9.79086 8 12C8 14.2091 9.79086 16 12 16Z" fill="black"/>
</svg>
