<svg width="24" height="24" viewBox="0 0 24 24" fill="none" xmlns="http://www.w3.org/2000/svg">
<path fill-rule="evenodd" clip-rule="evenodd" d="M5 8.17681L12 4.28792L19 8.17681L19 15.8232L12 19.7121L5 15.8232L5 8.17681ZM4.02871 6.42849L12 2L19.9713 6.42849C20.6062 6.78123 21 7.45047 21 8.17681V15.8232C21 16.5495 20.6062 17.2188 19.9713 17.5715L12 22L4.02871 17.5715C3.39378 17.2188 3 16.5495 3 15.8232V8.17681C3 7.45047 3.39378 6.78123 4.02871 6.42849ZM14 12C14 13.1046 13.1046 14 12 14C10.8954 14 10 13.1046 10 12C10 10.8954 10.8954 10 12 10C13.1046 10 14 10.8954 14 12ZM16 12C16 14.2091 14.2091 16 12 16C9.79086 16 8 14.2091 8 12C8 9.79086 9.79086 8 12 8C14.2091 8 16 9.79086 16 12Z" fill="black"/>
</svg>
