<svg width="24" height="24" viewBox="0 0 24 24" fill="none" xmlns="http://www.w3.org/2000/svg">
<path fill-rule="evenodd" clip-rule="evenodd" d="M6.58579 3H7H17H17.4142L17.7071 3.29289L19.7071 5.29289L20 5.58579V6V8.38197L21.4472 9.10557L22 9.38197V10V14V14.618L21.4472 14.8944L20 15.618V20V21H19H5H4V20V15.618L2.55279 14.8944L2 14.618V14V10V9.38197L2.55279 9.10557L4 8.38197V6V5.58579L4.29289 5.29289L6.29289 3.29289L6.58579 3ZM7.41421 5L6 6.41421V9V9.61803L5.44721 9.89443L4 10.618V13.382L5.44721 14.1056L6 14.382V15V19H18V15V14.382L18.5528 14.1056L20 13.382V10.618L18.5528 9.89443L18 9.61803V9V6.41421L16.5858 5H7.41421ZM12 9C10.3431 9 9 10.3431 9 12C9 13.6569 10.3431 15 12 15C13.6569 15 15 13.6569 15 12C15 10.3431 13.6569 9 12 9ZM7 12C7 9.23858 9.23858 7 12 7C14.7614 7 17 9.23858 17 12C17 14.7614 14.7614 17 12 17C9.23858 17 7 14.7614 7 12ZM12 13C12.5523 13 13 12.5523 13 12C13 11.4477 12.5523 11 12 11C11.4477 11 11 11.4477 11 12C11 12.5523 11.4477 13 12 13Z" fill="black"/>
</svg>
