<svg width="24" height="24" viewBox="0 0 24 24" fill="none" xmlns="http://www.w3.org/2000/svg">
<path fill-rule="evenodd" clip-rule="evenodd" d="M4 5.50415L6.5 3.00415H17.5L20 5.50415V8.50415L22 9.50415V14.5042L20 15.5042V21.0042H4V15.5042L2 14.5042V9.50415L4 8.37797V5.50415ZM12 9.00415C10.3431 9.00415 9 10.3473 9 12.0042C9 13.661 10.3431 15.0042 12 15.0042C13.6569 15.0042 15 13.661 15 12.0042C15 10.3473 13.6569 9.00415 12 9.00415ZM7 12.0042C7 9.24273 9.23858 7.00415 12 7.00415C14.7614 7.00415 17 9.24273 17 12.0042C17 14.7656 14.7614 17.0042 12 17.0042C9.23858 17.0042 7 14.7656 7 12.0042ZM12 13.0042C12.5523 13.0042 13 12.5564 13 12.0042C13 11.4519 12.5523 11.0042 12 11.0042C11.4477 11.0042 11 11.4519 11 12.0042C11 12.5564 11.4477 13.0042 12 13.0042Z" fill="black"/>
</svg>
