<svg width="24" height="24" viewBox="0 0 24 24" fill="none" xmlns="http://www.w3.org/2000/svg">
<path fill-rule="evenodd" clip-rule="evenodd" d="M18.2864 4.2229L18.0115 4.00049C15.6101 3.99898 13.2086 3.99943 10.8071 3.99989C9.20102 4.00019 7.59492 4.00049 5.98882 4.00021L5.71362 4.2229C3.45007 6.05456 2 8.85844 2 12.0003C2 15.1421 3.45007 17.946 5.71362 19.7776L5.98883 20.0003C8.87741 19.9998 11.766 19.9999 14.6546 20.0001L18.0112 20.0003L18.2864 19.7776C20.5499 17.946 22 15.1421 22 12.0003C22 8.85844 20.5499 6.05456 18.2864 4.2229ZM9 7.99998C8.44772 7.99998 8 8.4477 8 8.99998V11C8 11.5523 8.44772 12 9 12C9.55228 12 10 11.5523 10 11V8.99998C10 8.4477 9.55228 7.99998 9 7.99998ZM14 8.99998C14 8.4477 14.4477 7.99998 15 7.99998C15.5523 7.99998 16 8.4477 16 8.99998V11C16 11.5523 15.5523 12 15 12C14.4477 12 14 11.5523 14 11V8.99998ZM12 13C10.8954 13 10 13.8954 10 15V16H14V15C14 13.8954 13.1046 13 12 13Z" fill="black"/>
</svg>
