<svg width="24" height="24" viewBox="0 0 24 24" fill="none" xmlns="http://www.w3.org/2000/svg">
<path fill-rule="evenodd" clip-rule="evenodd" d="M4 12.0001C4 9.61127 5.046 7.46738 6.70827 6.00018L11.9654 6.0001H11.9683H11.9723H11.9777C14.2017 6.00002 16.4081 5.99995 17.2916 6.00005C18.9539 7.46726 20 9.6112 20 12.0001C20 14.389 18.954 16.5329 17.2917 18.0001L6.70829 18.0001C5.046 16.5329 4 14.389 4 12.0001ZM11.9784 4.0001H11.9615C9.55217 4.00019 7.12615 4.00027 6.34284 4.00013L5.98882 4.00007L5.71362 4.22277C3.45007 6.05442 2 8.85831 2 12.0001C2 15.142 3.45007 17.9458 5.71362 19.7775L5.98883 20.0002L6.34287 20.0001C7.00006 20 16.9999 20.0001 17.6573 20.0001L18.0112 20.0001L18.2864 19.7775C20.5499 17.9458 22 15.142 22 12.0001C22 8.85831 20.5499 6.05442 18.2864 4.22277L18.0115 4.00036L17.658 4.00013C17.3124 3.99992 14.662 4.00001 11.9845 4.0001H11.9784ZM9 8C8.44771 8 8 8.44771 8 9V11C8 11.5523 8.44771 12 9 12C9.55228 12 10 11.5523 10 11V9C10 8.44771 9.55228 8 9 8ZM14 9C14 8.44771 14.4477 8 15 8C15.5523 8 16 8.44771 16 9V11C16 11.5523 15.5523 12 15 12C14.4477 12 14 11.5523 14 11V9ZM12 13C10.8954 13 10 13.8954 10 15V16H14V15C14 13.8954 13.1046 13 12 13Z" fill="black"/>
</svg>
