<svg width="24" height="24" viewBox="0 0 24 24" fill="none" xmlns="http://www.w3.org/2000/svg">
<path fill-rule="evenodd" clip-rule="evenodd" d="M4 12C4 7.58172 7.58172 4 12 4C16.4183 4 20 7.58172 20 12C20 16.4183 16.4183 20 12 20C7.58172 20 4 16.4183 4 12ZM12 2C6.47715 2 2 6.47715 2 12C2 17.5228 6.47715 22 12 22C17.5228 22 22 17.5228 22 12C22 6.47715 17.5228 2 12 2ZM11.0837 17H9V7H13.0018C15.0994 7 16.5 8.35828 16.5 10.4165V10.4304C16.5 12.4886 15.0994 13.8468 13.0018 13.8468H11.0837V17ZM14.3887 10.4234C14.3887 9.2869 13.6849 8.65627 12.4913 8.65627H11.0837V12.2114H12.4913C13.6849 12.2114 14.3887 11.5738 14.3887 10.4373V10.4234Z" fill="black"/>
</svg>
