<svg width="24" height="24" viewBox="0 0 24 24" fill="none" xmlns="http://www.w3.org/2000/svg">
<path fill-rule="evenodd" clip-rule="evenodd" d="M5 3C3.89543 3 3 3.89543 3 5V19C3 20.1046 3.89543 21 5 21H19C20.1046 21 21 20.1046 21 19V5C21 3.89543 20.1046 3 19 3H5ZM5 5H19V19H5V5ZM11.0837 17H9V7H13.0018C15.0994 7 16.5 8.35828 16.5 10.4165V10.4304C16.5 12.4886 15.0994 13.8468 13.0018 13.8468H11.0837V17ZM14.3887 10.4234C14.3887 9.2869 13.6849 8.65627 12.4913 8.65627H11.0837V12.2114H12.4913C13.6849 12.2114 14.3887 11.5738 14.3887 10.4373V10.4234Z" fill="black"/>
</svg>
