<svg width="24" height="24" viewBox="0 0 24 24" fill="none" xmlns="http://www.w3.org/2000/svg">
<path fill-rule="evenodd" clip-rule="evenodd" d="M2.96473 6.27061C2.96473 4.42035 4.46428 2.92041 6.31408 2.92041H11.9814C11.9814 2.92041 13.1294 2.94851 13.3355 2.97797C14.467 3.13969 15.9094 3.76595 17.5339 5.39077C19.1585 7.01561 19.7846 8.4584 19.9462 9.59024C20.0498 10.3152 19.9812 11.0461 19.6525 11.7038L10.9792 20.3711C10.6124 20.7376 10.038 21.014 9.38226 20.8906C8.48069 20.7209 6.73574 20.134 4.76095 18.1587C2.78668 16.1839 2.1997 14.4389 2.02987 13.5369C1.90625 12.8802 2.18319 12.305 2.55041 11.9381L5.09801 9.39223C3.90071 8.9246 2.96473 7.79088 2.96473 6.27061ZM6.31408 4.92463H9.56869L7.26748 7.22426L7.26559 7.22237C6.41788 8.07029 4.96844 7.46976 4.96844 6.27061C4.96844 5.52725 5.5709 4.92463 6.31408 4.92463ZM17.9869 10.2674C17.9899 10.1568 17.9843 10.0252 17.9627 9.87367C17.8739 9.25175 17.4981 8.18926 16.1171 6.80802C14.7361 5.42676 13.6738 5.05091 13.0521 4.96204C12.9006 4.94039 12.7691 4.9348 12.6585 4.93775C12.6556 5.04831 12.6612 5.17988 12.6828 5.33136C12.7716 5.95324 13.1473 7.01575 14.5284 8.39713C15.9094 9.77851 16.9716 10.1543 17.5934 10.2432C17.7448 10.2648 17.8764 10.2704 17.9869 10.2674ZM22 17.9521C22 19.059 21.1029 19.9563 19.9963 19.9563C18.8897 19.9563 17.9926 19.059 17.9926 17.9521C17.9926 16.8452 19.9963 13.9436 19.9963 13.9436C19.9963 13.9436 22 16.8452 22 17.9521Z" fill="black"/>
</svg>
