<svg width="24" height="24" viewBox="0 0 24 24" fill="none" xmlns="http://www.w3.org/2000/svg">
<path fill-rule="evenodd" clip-rule="evenodd" d="M6.31408 3C4.46428 3 2.96473 4.49994 2.96473 6.3502C2.96473 7.87047 3.90071 9.00419 5.09801 9.47182L2.55041 12.0177C2.18319 12.3846 1.90625 12.9598 2.02987 13.6165C2.1997 14.5185 2.78668 16.2635 4.76095 18.2383C6.73574 20.2136 8.48069 20.8005 9.38226 20.9702C10.038 21.0936 10.6124 20.8172 10.9792 20.4507L19.6525 11.7834C19.9812 11.1257 20.0498 10.3948 19.9462 9.66983C19.7846 8.53799 19.1585 7.0952 17.5339 5.47036C15.9094 3.84554 14.467 3.21928 13.3355 3.05756C13.1294 3.0281 11.9814 3 11.9814 3H6.31408ZM9.56869 5.00422H6.31408C5.5709 5.00422 4.96844 5.60684 4.96844 6.3502C4.96844 7.54935 6.41788 8.14988 7.26559 7.30196L7.26748 7.30385L9.56869 5.00422ZM4.02633 13.3758L10.8892 6.51766C11.1992 7.49525 11.8583 8.64038 13.1115 9.89392C14.3637 11.1465 15.5078 11.8056 16.4846 12.116L9.62269 18.9732C9.02652 18.8358 7.73205 18.3757 6.17779 16.8211C4.62399 15.2669 4.16388 13.9724 4.02633 13.3758ZM17.9627 9.95326C17.9843 10.1048 17.9899 10.2364 17.9869 10.347C17.8764 10.35 17.7448 10.3444 17.5934 10.3228C16.9716 10.2339 15.9094 9.8581 14.5284 8.47672C13.1473 7.09534 12.7716 6.03283 12.6828 5.41095C12.6612 5.25947 12.6556 5.1279 12.6585 5.01734C12.7691 5.01439 12.9006 5.01998 13.0521 5.04163C13.6738 5.1305 14.7361 5.50635 16.1171 6.88761C17.4981 8.26885 17.8739 9.33134 17.9627 9.95326ZM5.9703 13.5222H12.9833L9.47674 17.0296C9.47674 17.0296 8.69059 16.7442 7.47308 15.5264C6.25557 14.3085 5.9703 13.5222 5.9703 13.5222ZM19.9963 20.0359C21.1029 20.0359 22 19.1386 22 18.0317C22 16.9248 19.9963 14.0232 19.9963 14.0232C19.9963 14.0232 17.9926 16.9248 17.9926 18.0317C17.9926 19.1386 18.8897 20.0359 19.9963 20.0359Z" fill="black"/>
</svg>
