<svg width="24" height="24" viewBox="0 0 24 24" fill="none" xmlns="http://www.w3.org/2000/svg">
<path fill-rule="evenodd" clip-rule="evenodd" d="M12.0054 4C7.58472 4 4.00108 7.58172 4.00108 12C4.00108 16.1113 7.10104 19.5424 11.0758 20.0016C12.0634 20.0219 13.0059 19.354 13.0059 18V17.9975V17.9949V17.9924V17.9898V17.9873V17.9847V17.9821V17.9796V17.977V17.9744V17.9719V17.9693V17.9667V17.9641V17.9616V17.959V17.9564V17.9538V17.9512V17.9486V17.946V17.9434V17.9408V17.9382V17.9356V17.933V17.9304V17.9278V17.9252V17.9225V17.9199V17.9173V17.9147V17.9121V17.9094V17.9068V17.9042V17.9015V17.8989V17.8963V17.8936V17.891V17.8884V17.8857V17.8831V17.8804V17.8778V17.8751V17.8725V17.8698V17.8672V17.8645V17.8618V17.8592V17.8565V17.8539V17.8512V17.8485V17.8459V17.8432V17.8405V17.8379V17.8352V17.8325V17.8299V17.8272V17.8245V17.8218V17.8192V17.8165V17.8138V17.8111V17.8085V17.8058V17.8031V17.8004V17.7977V17.795V17.7924V17.7897V17.787V17.7843V17.7816V17.7789V17.7763V17.7736V17.7709V17.7682V17.7655V17.7628V17.7601V17.7574V17.7548V17.7521V17.7494V17.7467V17.744V17.7413V17.7386V17.7359V17.7333V17.7306V17.7279V17.7252V17.7225V17.7198V17.7171V17.7144V17.7118V17.7091V17.7064V17.7037V17.701V17.6983V17.6956V17.693V17.6903V17.6876V17.6849V17.6822V17.6796V17.6769V17.6742V17.6715V17.6688V17.6662V17.6635V17.6608V17.6581V17.6555V17.6528V17.6501V17.6475V17.6448V17.6421V17.6395V17.6368V17.6341V17.6315V17.6288V17.6261V17.6235V17.6208V17.6182V17.6155V17.6129V17.6102V17.6076V17.6049V17.6023V17.5996V17.597V17.5944V17.5917V17.5891V17.5864V17.5838V17.5812V17.5785V17.5759V17.5733V17.5707V17.568V17.5654V17.5628V17.5602V17.5576V17.555V17.5524V17.5498V17.5471V17.5445V17.5419V17.5393V17.5368V17.5342V17.5316V17.529V17.5264V17.5238V17.5212V17.5187V17.5161V17.5135V17.5109V17.5084V17.5058V17.5033V17.5007V17.4981V17.4956V17.493V17.4905V17.4879V17.4854V17.4829V17.4803V17.4778V17.4753V17.4727V17.4702V17.4677V17.4652V17.4627V17.4602V17.4577V17.4552V17.4527V17.4502V17.4477V17.4452V17.4427V17.4402V17.4377V17.4353V17.4328V17.4303V17.4279V17.4254V17.423V17.4205V17.4181V17.4156V17.4132V17.4107V17.4083V17.4059V17.4035V17.401V17.3986V17.3962V17.3938V17.3914V17.389V17.3866V17.3842V17.3818V17.3795V17.3771V17.3747V17.3723V17.37V17.3676V17.3653V17.3629V17.3606V17.3582V17.3559V17.3536V17.3512V17.3489V17.3466V17.3443V17.342V17.3397V17.3374V17.3351V17.3328V17.3305V17.3283V17.326V17.3237V17.3215V17.3192V17.3169V17.3147V17.3125V17.3102V17.308V17.3058V17.3035V17.3013V17.2991V17.2969V17.2947V17.2925V17.2903V17.2882V17.286V17.2838V17.2817V17.2795V17.2773V17.2752V17.2731V17.2709V17.2688V17.2667V17.2646V17.2625V17.2603V17.2582V17.2562V17.2541V17.252V17.2499V17.2478V17.2458V17.2437V17.2417V17.2396V17.2376V17.2356V17.2335V17.2315V17.2295V17.2275V17.2255V17.2235V17.2215V17.2196V17.2176V17.2156V17.2137V17.2117V17.2098V17.2078V17.2059V17.204V17.2021V17.2002V17.1983V17.1964V17.1945V17.1926V17.1907V17.1889V17.187V17.1851V17.1833V17.1815V17.1796V17.1778V17.176V17.1742V17.1724V17.1706V17.1688V17.167V17.1652V17.1635V17.1617V17.16V17.1582V17.1565V17.1548V17.1531V17.1514V17.1497V17.148V17.1463V17.1446V17.1429V17.1413V17.1396V17.138V17.1363V17.1347V17.1331V17.1315V17.1299V17.1283V17.1267V17.1251V17.1235V17.122V17.1204V17.1188V17.1173V17.1158V17.1143V17.1127V17.1112V17.1097V17.1083V17.1068V17.1053V17.1039V17.1024V17.101V17.0995V17.0981V17.0967V17.0953V17.0939V17.0925V17.0911V17.0897V17.0884V17.087V17.0857V17.0843V17.083V17.0817V17.0804V17.0791V17.0778V17.0765V17.0752V17.074V17.0727V17.0715V17.0703V17.069V17.0678V17.0666V17.0654V17.0642V17.0631V17.0619V17.0608V17.0596V17.0585V17.0573V17.0562V17.0551V17.054V17.0529V17.0519V17.0508V17.0497V17.0487V17.0477V17.0466V17.0456V17.0446V17.0436V17.0426V17.0417V17.0407V17.0398V17.0388V17.0379V17.037V17.0361V17.0352V17.0343V17.0334V17.0325V17.0317V17.0308V17.03V17.0291V17.0283V17.0275V17.0267V17.026V17.0252V17.0244V17.0237V17.0229V17.0222V17.0215V17.0208V17.0201V17.0194V17.0187V17.0181V17.0174V17.0168V17.0162V17.0156V17.0149V17.0144V17.0138V17.0132V17.0127V17.0121V17.0116V17.011V17.0105V17.01V17.0095V17.0091V17.0086V17.0082V17.0077V17.0073V17.0069V17.0065V17.0061V17.0057V17.0053V17.005V17.0046V17.0043V17.004V17.0037V17.0034V17.0031V17.0028V17.0026V17.0023V17.0021V17.0018V17.0016V17.0014V17.0013V17.0011V17.0009V17.0008V17.0006V17.0005V17.0004V17.0003V17.0002V17.0002V17.0001V17.0001V17V17V16H14.0065H14.0065H14.0065H14.0065H14.0066H14.0067H14.0067H14.0068H14.0069H14.007H14.0071H14.0073H14.0074H14.0076H14.0077H14.0079H14.0081H14.0083H14.0085H14.0087H14.0089H14.0092H14.0094H14.0097H14.01H14.0103H14.0106H14.0109H14.0112H14.0115H14.0118H14.0122H14.0126H14.0129H14.0133H14.0137H14.0141H14.0145H14.0149H14.0154H14.0158H14.0163H14.0167H14.0172H14.0177H14.0182H14.0187H14.0192H14.0198H14.0203H14.0208H14.0214H14.022H14.0226H14.0232H14.0238H14.0244H14.025H14.0256H14.0263H14.0269H14.0276H14.0282H14.0289H14.0296H14.0303H14.031H14.0318H14.0325H14.0332H14.034H14.0347H14.0355H14.0363H14.0371H14.0379H14.0387H14.0395H14.0403H14.0412H14.042H14.0429H14.0438H14.0446H14.0455H14.0464H14.0473H14.0482H14.0492H14.0501H14.0511H14.052H14.053H14.0539H14.0549H14.0559H14.0569H14.0579H14.0589H14.06H14.061H14.0621H14.0631H14.0642H14.0653H14.0663H14.0674H14.0685H14.0696H14.0708H14.0719H14.073H14.0742H14.0753H14.0765H14.0777H14.0789H14.08H14.0812H14.0825H14.0837H14.0849H14.0861H14.0874H14.0886H14.0899H14.0912H14.0924H14.0937H14.095H14.0963H14.0976H14.099H14.1003H14.1016H14.103H14.1043H14.1057H14.1071H14.1084H14.1098H14.1112H14.1126H14.114H14.1155H14.1169H14.1183H14.1198H14.1212H14.1227H14.1242H14.1256H14.1271H14.1286H14.1301H14.1316H14.1331H14.1347H14.1362H14.1377H14.1393H14.1409H14.1424H14.144H14.1456H14.1472H14.1488H14.1504H14.152H14.1536H14.1552H14.1569H14.1585H14.1602H14.1618H14.1635H14.1651H14.1668H14.1685H14.1702H14.1719H14.1736H14.1753H14.1771H14.1788H14.1805H14.1823H14.184H14.1858H14.1876H14.1893H14.1911H14.1929H14.1947H14.1965H14.1983H14.2001H14.202H14.2038H14.2056H14.2075H14.2093H14.2112H14.2131H14.2149H14.2168H14.2187H14.2206H14.2225H14.2244H14.2263H14.2282H14.2302H14.2321H14.2341H14.236H14.238H14.2399H14.2419H14.2439H14.2458H14.2478H14.2498H14.2518H14.2538H14.2558H14.2579H14.2599H14.2619H14.264H14.266H14.2681H14.2701H14.2722H14.2743H14.2763H14.2784H14.2805H14.2826H14.2847H14.2868H14.2889H14.291H14.2932H14.2953H14.2974H14.2996H14.3017H14.3039H14.306H14.3082H14.3104H14.3126H14.3147H14.3169H14.3191H14.3213H14.3235H14.3257H14.328H14.3302H14.3324H14.3346H14.3369H14.3391H14.3414H14.3436H14.3459H14.3482H14.3504H14.3527H14.355H14.3573H14.3596H14.3619H14.3642H14.3665H14.3688H14.3712H14.3735H14.3758H14.3781H14.3805H14.3828H14.3852H14.3876H14.3899H14.3923H14.3947H14.397H14.3994H14.4018H14.4042H14.4066H14.409H14.4114H14.4138H14.4162H14.4187H14.4211H14.4235H14.4259H14.4284H14.4308H14.4333H14.4357H14.4382H14.4407H14.4431H14.4456H14.4481H14.4506H14.453H14.4555H14.458H14.4605H14.463H14.4655H14.4681H14.4706H14.4731H14.4756H14.4781H14.4807H14.4832H14.4858H14.4883H14.4909H14.4934H14.496H14.4985H14.5011H14.5037H14.5062H14.5088H14.5114H14.514H14.5166H14.5192H14.5218H14.5244H14.527H14.5296H14.5322H14.5348H14.5375H14.5401H14.5427H14.5453H14.548H14.5506H14.5533H14.5559H14.5586H14.5612H14.5639H14.5665H14.5692H14.5719H14.5745H14.5772H14.5799H14.5826H14.5852H14.5879H14.5906H14.5933H14.596H14.5987H14.6014H14.6041H14.6068H14.6096H14.6123H14.615H14.6177H14.6204H14.6232H14.6259H14.6286H14.6314H14.6341H14.6369H14.6396H14.6424H14.6451H14.6479H14.6506H14.6534H14.6561H14.6589H14.6617H14.6645H14.6672H14.67H14.6728H14.6756H14.6783H14.6811H14.6839H14.6867H14.6895H14.6923H14.6951H14.6979H14.7007H14.7035H14.7063H14.7091H14.712H14.7148H14.7176H14.7204H14.7232H14.7261H14.7289H14.7317H14.7345H14.7374H14.7402H14.7431H14.7459H14.7487H14.7516H14.7544H14.7573H14.7601H14.763H14.7658H14.7687H14.7715H14.7744H14.7773H14.7801H14.783H14.7859H14.7887H14.7916H14.7945H14.7973H14.8002H14.8031H14.806H14.8088H14.8117H14.8146H14.8175H14.8204H14.8233H14.8261H14.829H14.8319H14.8348H14.8377H14.8406H14.8435H14.8464H14.8493H14.8522H14.8551H14.858H14.8609H14.8638H14.8667H14.8696H14.8725H14.8754H14.8783H14.8812H14.8842H14.8871H14.89H14.8929H14.8958H14.8987H14.9016H14.9046H14.9075H14.9104H14.9133H14.9162H14.9192H14.9221H14.925H14.9279H14.9308H14.9338H14.9367H14.9396H14.9425H14.9455H14.9484H14.9513H14.9543H14.9572H14.9601H14.963H14.966H14.9689H14.9718H14.9748H14.9777H14.9806H14.9835H14.9865H14.9894H14.9923H14.9953H14.9982H15.0011H15.0041H15.007C18.2188 16 20.1045 13.3374 19.9946 10.6896C19.9193 8.87684 18.8886 7.21253 17.3312 5.97226C15.7711 4.72985 13.7846 4 12.0054 4ZM2 12C2 6.47715 6.47956 2 12.0054 2C14.2867 2 16.7042 2.91569 18.5782 4.40809C20.4549 5.90263 21.8883 8.06239 21.994 10.6067C22.1417 14.165 19.5704 18 15.007 18C15.007 20.6303 12.9699 22.0726 10.9682 21.9993L10.9315 21.998L10.8949 21.9939C5.88362 21.4403 2 17.1403 2 12ZM15.007 10C14.4544 10 14.0065 10.4477 14.0065 11C14.0065 11.5523 14.4544 12 15.007 12C15.5596 12 16.0075 11.5523 16.0075 11C16.0075 10.4477 15.5596 10 15.007 10ZM12.0054 11C12.0054 9.34315 13.3492 8 15.007 8C16.6647 8 18.0086 9.34315 18.0086 11C18.0086 12.6569 16.6647 14 15.007 14C13.3492 14 12.0054 12.6569 12.0054 11ZM9.70806 6.45683L9.65497 6.4791C9.14647 6.69525 8.90957 7.28248 9.12584 7.79071C9.3421 8.29894 9.92964 8.53571 10.4381 8.31956L10.4738 8.30459L10.5097 8.28995C11.0222 8.08342 11.2701 7.50076 11.0635 6.98855C10.8568 6.47633 10.2739 6.22853 9.76136 6.43506L9.70806 6.45683ZM8.32276 10.434C8.53907 9.92578 8.30222 9.33853 7.79374 9.12233C7.28525 8.90614 6.69769 9.14286 6.48138 9.65107C6.46639 9.68629 6.45173 9.72165 6.43741 9.75715C6.23082 10.2694 6.47881 10.852 6.99132 11.0585C7.50383 11.265 8.08678 11.0171 8.29337 10.5049C8.30294 10.4812 8.31274 10.4575 8.32276 10.434ZM8.29325 13.495C8.08661 12.9828 7.50364 12.735 6.99115 12.9415C6.47866 13.1481 6.23072 13.7307 6.43736 14.2429L6.45914 14.2962L6.48143 14.3493C6.69769 14.8575 7.28524 15.0943 7.79374 14.8781C8.30224 14.662 8.53914 14.0747 8.32288 13.5665L8.30789 13.5308L8.29325 13.495ZM10.4384 15.6808C9.92996 15.4646 9.34239 15.7013 9.12608 16.2095C8.90977 16.7177 9.14662 17.305 9.6551 17.5212C9.69034 17.5361 9.72572 17.5508 9.76124 17.5651C10.2737 17.7716 10.8567 17.5237 11.0633 17.0115C11.2699 16.4993 11.0219 15.9166 10.5094 15.7101C10.4856 15.7006 10.462 15.6908 10.4384 15.6808Z" fill="black"/>
</svg>
