<svg width="24" height="24" viewBox="0 0 24 24" fill="none" xmlns="http://www.w3.org/2000/svg">
<path fill-rule="evenodd" clip-rule="evenodd" d="M19.4684 6.53372C18.7546 5.81977 17.5978 5.81889 16.883 6.53174L15.202 8.20813L13.7904 6.79176L15.4714 5.11537C16.9673 3.6235 19.3884 3.62536 20.8821 5.11951C22.3777 6.6156 22.3773 9.04136 20.8813 10.537L11.8795 19.5363C9.92736 21.4879 6.76343 21.4874 4.81189 19.5352L4.46752 19.1907C2.51578 17.2383 2.51551 14.0729 4.46691 12.1202L8.04131 8.54341C9.39772 7.18607 11.5973 7.18588 12.954 8.54299C14.3105 9.89993 14.3105 12.1 12.954 13.4569L9.70494 16.7071L8.2912 15.2928L11.5403 12.0427C12.116 11.4668 12.116 10.5331 11.5403 9.9572C10.9645 9.38124 10.031 9.38132 9.45529 9.95738L5.88089 13.5342C4.71005 14.7058 4.71022 16.605 5.88125 17.7765L6.22563 18.121C7.39656 19.2923 9.29491 19.2926 10.4662 18.1216L19.468 9.12235C20.1828 8.40769 20.183 7.2486 19.4684 6.53372Z" fill="black"/>
</svg>
