<svg width="24" height="24" viewBox="0 0 24 24" fill="none" xmlns="http://www.w3.org/2000/svg">
<path fill-rule="evenodd" clip-rule="evenodd" d="M12.0001 2C7.98143 2 4.56658 4.96819 4.01013 8.8584L4 11C4 11 4.6132 10.4533 4.87235 10.2866L8.58579 14H5V20C5 21.1046 5.89543 22 7 22H17C18.1046 22 19 21.1046 19 20V14H15.4142L19.1277 10.2865C19.3869 10.4533 20 11 20 11L19.99 8.8584C19.4335 4.96819 16.0187 2 12.0001 2ZM17.2679 9.31788C16.7203 9.12019 16.1388 9 15.5001 9C14.5977 9 13.774 9.23787 13 9.61952V13.5858L17.2679 9.31788ZM11 9.61838C10.228 9.23681 9.40831 9 8.50005 9C7.86129 9 7.2798 9.1202 6.73212 9.31791L11 13.5858V9.61838Z" fill="black"/>
</svg>
