<svg width="24" height="24" viewBox="0 0 24 24" fill="none" xmlns="http://www.w3.org/2000/svg">
<path fill-rule="evenodd" clip-rule="evenodd" d="M10.9988 13.5858L6.70958 9.30203C7.20825 9.13564 7.82262 9 8.49564 9C9.33374 9 10.0809 9.21034 10.6269 9.42848C10.7666 9.48428 10.8912 9.53984 10.9988 9.59124V13.5858ZM8.49564 7C7.79536 7 7.15272 7.10477 6.5982 7.2496C7.61392 5.32455 9.66752 4 12 4C14.3325 4 16.3861 5.32454 17.4018 7.24957C16.8473 7.10475 16.2047 7 15.5045 7C14.34 7 13.335 7.28967 12.6294 7.57153C12.3854 7.66901 12.1739 7.76691 12 7.85422C11.8262 7.76691 11.6147 7.66901 11.3707 7.57153C10.6651 7.28967 9.66006 7 8.49564 7ZM15.5045 9C16.1774 9 16.7918 9.13562 17.2904 9.30201L13.0013 13.5857V9.59124C13.1089 9.53984 13.2335 9.48428 13.3732 9.42848C13.9192 9.21034 14.6664 9 15.5045 9ZM12 2C8.0158 2 4.154 5.23241 4.00001 9.42429L8.58148 14H4.99122V20C4.99122 21.1046 5.88778 22 6.99375 22H17.0064C18.1123 22 19.0089 21.1046 19.0089 20V14H15.4185L20 9.42429C19.812 5.25213 15.9843 2 12 2ZM6.99375 16V20H17.0064V16H6.99375Z" fill="black"/>
</svg>
