<svg width="24" height="24" viewBox="0 0 24 24" fill="none" xmlns="http://www.w3.org/2000/svg">
<path fill-rule="evenodd" clip-rule="evenodd" d="M5 2H4V3V20C4 21.1047 4.89562 22 6.00008 22H6.02373H6.04737H6.07102H6.09466H6.11829H6.14193H6.16556H6.18919H6.21282H6.23644H6.26007H6.28369H6.30731H6.33092H6.35454H6.37815H6.40176H6.42536H6.44897H6.47257H6.49617H6.51977H6.54336H6.56696H6.59055H6.61413H6.63772H6.6613H6.68489H6.70847H6.73204H6.75562H6.77919H6.80276H6.82633H6.8499H6.87346H6.89703H6.92059H6.94414H6.9677H6.99125H7.01481H7.03836H7.0619H7.08545H7.10899H7.13253H7.15607H7.17961H7.20315H7.22668H7.25021H7.27374H7.29727H7.3208H7.34432H7.36784H7.39136H7.41488H7.4384H7.46191H7.48542H7.50893H7.53244H7.55595H7.57946H7.60296H7.62646H7.64996H7.67346H7.69695H7.72045H7.74394H7.76743H7.79092H7.81441H7.83789H7.86138H7.88486H7.90834H7.93182H7.9553H7.97877H8.00224H8.02572H8.04919H8.07266H8.09612H8.11959H8.14305H8.16651H8.18997H8.21343H8.23689H8.26035H8.2838H8.30725H8.33071H8.35416H8.3776H8.40105H8.4245H8.44794H8.47138H8.49482H8.51826H8.5417H8.56514H8.58857H8.61201H8.63544H8.65887H8.6823H8.70573H8.72916H8.75258H8.776H8.79943H8.82285H8.84627H8.86969H8.89311H8.91652H8.93994H8.96335H8.98676H9.01017H9.03358H9.05699H9.0804H9.10381H9.12721H9.15062H9.17402H9.19742H9.22082H9.24422H9.26762H9.29102H9.31441H9.33781H9.3612H9.38459H9.40798H9.43137H9.45476H9.47815H9.50154H9.52493H9.54831H9.57169H9.59508H9.61846H9.64184H9.66522H9.6886H9.71198H9.73536H9.75873H9.78211H9.80548H9.82886H9.85223H9.8756H9.89897H9.92234H9.94571H9.96908H9.99245H10.0158H10.0392H10.0625H10.0859H10.1093H10.1326H10.156H10.1794H10.2027H10.2261H10.2494H10.2728H10.2962H10.3195H10.3429H10.3662H10.3896H10.4129H10.4363H10.4596H10.483H10.5063H10.5297H10.553H10.5764H10.5997H10.6231H10.6464H10.6698H10.6931H10.7165H10.7398H10.7632H10.7865H10.8099H10.8332H10.8565H10.8799H10.9032H10.9266H10.9499H10.9733H10.9966H11.0199H11.0433H11.0666H11.09H11.1133H11.1366H11.16H11.1833H11.2066H11.23H11.2533H11.2766H11.3H11.3233H11.3467H11.37H11.3933H11.4167H11.44H11.4633H11.4867H11.51H11.5333H11.5567H11.58H11.6033H11.6267H11.65H11.6733H11.6967H11.72H11.7433H11.7667H11.79H11.8133H11.8367H11.86H11.8833H11.9066H11.93H11.9533H11.9766H12H12.0233H12.0466H12.07H12.0933H12.1166H12.14H12.1633H12.1866H12.21H12.2333H12.2566H12.28H12.3033H12.3266H12.3499H12.3733H12.3966H12.4199H12.4433H12.4666H12.4899H12.5133H12.5366H12.5599H12.5833H12.6066H12.63H12.6533H12.6766H12.7H12.7233H12.7466H12.77H12.7933H12.8166H12.84H12.8633H12.8867H12.91H12.9333H12.9567H12.98H13.0034H13.0267H13.05H13.0734H13.0967H13.1201H13.1434H13.1667H13.1901H13.2134H13.2368H13.2601H13.2835H13.3068H13.3302H13.3535H13.3769H13.4002H13.4236H13.4469H13.4703H13.4936H13.517H13.5403H13.5637H13.587H13.6104H13.6337H13.6571H13.6804H13.7038H13.7272H13.7505H13.7739H13.7972H13.8206H13.8439H13.8673H13.8907H13.914H13.9374H13.9608H13.9841H14.0075H14.0309H14.0542H14.0776H14.101H14.1243H14.1477H14.1711H14.1945H14.2178H14.2412H14.2646H14.288H14.3113H14.3347H14.3581H14.3815H14.4049H14.4283H14.4516H14.475H14.4984H14.5218H14.5452H14.5686H14.592H14.6154H14.6388H14.6621H14.6855H14.7089H14.7323H14.7557H14.7791H14.8025H14.8259H14.8493H14.8727H14.8961H14.9196H14.943H14.9664H14.9898H15.0132H15.0366H15.06H15.0834H15.1069H15.1303H15.1537H15.1771H15.2005H15.224H15.2474H15.2708H15.2942H15.3177H15.3411H15.3645H15.388H15.4114H15.4348H15.4583H15.4817H15.5051H15.5286H15.552H15.5755H15.5989H15.6224H15.6458H15.6693H15.6927H15.7162H15.7396H15.7631H15.7865H15.81H15.8335H15.8569H15.8804H15.9038H15.9273H15.9508H15.9743H15.9977H16.0212H16.0447H16.0682H16.0916H16.1151H16.1386H16.1621H16.1856H16.2091H16.2325H16.256H16.2795H16.303H16.3265H16.35H16.3735H16.397H16.4205H16.444H16.4675H16.491H16.5146H16.5381H16.5616H16.5851H16.6086H16.6321H16.6557H16.6792H16.7027H16.7262H16.7498H16.7733H16.7968H16.8204H16.8439H16.8674H16.891H16.9145H16.9381H16.9616H16.9852H17.0087H17.0323H17.0558H17.0794H17.103H17.1265H17.1501H17.1737H17.1972H17.2208H17.2444H17.2679H17.2915H17.3151H17.3387H17.3623H17.3859H17.4094H17.433H17.4566H17.4802H17.5038H17.5274H17.551H17.5746H17.5982H17.6218H17.6455H17.6691H17.6927H17.7163H17.7399H17.7635H17.7872H17.8108H17.8344H17.8581H17.8817H17.9053H17.929H17.9526H17.9763H17.9999C19.1044 22 20 21.1047 20 20V3V2H19H15H14.2192L14.0328 2.74577C14.0317 2.74942 14.0297 2.75581 14.0267 2.76464C14.0178 2.79069 14.0009 2.83664 13.9737 2.89585C13.9187 3.01586 13.8269 3.17919 13.6849 3.3415C13.4237 3.63999 12.9417 4 12 4C11.0583 4 10.5763 3.63999 10.3151 3.3415C10.1731 3.17919 10.0813 3.01586 10.0263 2.89585C9.99912 2.83664 9.98219 2.79069 9.97335 2.76464C9.97035 2.75581 9.96834 2.74943 9.96722 2.74577L9.78078 2H9H5ZM6 20V4H8.34572C8.45889 4.20242 8.61018 4.43023 8.80992 4.6585C9.42374 5.36001 10.4417 6 12 6C13.5583 6 14.5763 5.36001 15.1901 4.6585C15.3898 4.43023 15.5411 4.20242 15.6543 4H18V20H17.9999H17.9763H17.9526H17.929H17.9053H17.8817H17.8581H17.8344H17.8108H17.7872H17.7635H17.7399H17.7163H17.6927H17.6691H17.6455H17.6218H17.5982H17.5746H17.551H17.5274H17.5038H17.4802H17.4566H17.433H17.4094H17.3859H17.3623H17.3387H17.3151H17.2915H17.2679H17.2444H17.2208H17.1972H17.1737H17.1501H17.1265H17.103H17.0794H17.0558H17.0323H17.0087H16.9852H16.9616H16.9381H16.9145H16.891H16.8674H16.8439H16.8204H16.7968H16.7733H16.7498H16.7262H16.7027H16.6792H16.6557H16.6321H16.6086H16.5851H16.5616H16.5381H16.5146H16.491H16.4675H16.444H16.4205H16.397H16.3735H16.35H16.3265H16.303H16.2795H16.256H16.2325H16.2091H16.1856H16.1621H16.1386H16.1151H16.0916H16.0682H16.0447H16.0212H15.9977H15.9743H15.9508H15.9273H15.9038H15.8804H15.8569H15.8335H15.81H15.7865H15.7631H15.7396H15.7162H15.6927H15.6693H15.6458H15.6224H15.5989H15.5755H15.552H15.5286H15.5051H15.4817H15.4583H15.4348H15.4114H15.388H15.3645H15.3411H15.3177H15.2942H15.2708H15.2474H15.224H15.2005H15.1771H15.1537H15.1303H15.1069H15.0834H15.06H15.0366H15.0132H14.9898H14.9664H14.943H14.9196H14.8961H14.8727H14.8493H14.8259H14.8025H14.7791H14.7557H14.7323H14.7089H14.6855H14.6621H14.6388H14.6154H14.592H14.5686H14.5452H14.5218H14.4984H14.475H14.4516H14.4283H14.4049H14.3815H14.3581H14.3347H14.3113H14.288H14.2646H14.2412H14.2178H14.1945H14.1711H14.1477H14.1243H14.101H14.0776H14.0542H14.0309H14.0075H13.9841H13.9608H13.9374H13.914H13.8907H13.8673H13.8439H13.8206H13.7972H13.7739H13.7505H13.7272H13.7038H13.6804H13.6571H13.6337H13.6104H13.587H13.5637H13.5403H13.517H13.4936H13.4703H13.4469H13.4236H13.4002H13.3769H13.3535H13.3302H13.3068H13.2835H13.2601H13.2368H13.2134H13.1901H13.1667H13.1434H13.1201H13.0967H13.0734H13.05H13.0267H13.0034H12.98H12.9567H12.9333H12.91H12.8867H12.8633H12.84H12.8166H12.7933H12.77H12.7466H12.7233H12.7H12.6766H12.6533H12.63H12.6066H12.5833H12.5599H12.5366H12.5133H12.4899H12.4666H12.4433H12.4199H12.3966H12.3733H12.3499H12.3266H12.3033H12.28H12.2566H12.2333H12.21H12.1866H12.1633H12.14H12.1166H12.0933H12.07H12.0466H12.0233H12H11.9766H11.9533H11.93H11.9066H11.8833H11.86H11.8367H11.8133H11.79H11.7667H11.7433H11.72H11.6967H11.6733H11.65H11.6267H11.6033H11.58H11.5567H11.5333H11.51H11.4867H11.4633H11.44H11.4167H11.3933H11.37H11.3467H11.3233H11.3H11.2766H11.2533H11.23H11.2066H11.1833H11.16H11.1366H11.1133H11.09H11.0666H11.0433H11.0199H10.9966H10.9733H10.9499H10.9266H10.9032H10.8799H10.8565H10.8332H10.8099H10.7865H10.7632H10.7398H10.7165H10.6931H10.6698H10.6464H10.6231H10.5997H10.5764H10.553H10.5297H10.5063H10.483H10.4596H10.4363H10.4129H10.3896H10.3662H10.3429H10.3195H10.2962H10.2728H10.2494H10.2261H10.2027H10.1794H10.156H10.1326H10.1093H10.0859H10.0625H10.0392H10.0158H9.99245H9.96908H9.94571H9.92234H9.89897H9.8756H9.85223H9.82886H9.80548H9.78211H9.75873H9.73536H9.71198H9.6886H9.66522H9.64184H9.61846H9.59508H9.57169H9.54831H9.52493H9.50154H9.47815H9.45476H9.43137H9.40798H9.38459H9.3612H9.33781H9.31441H9.29102H9.26762H9.24422H9.22082H9.19742H9.17402H9.15062H9.12721H9.10381H9.0804H9.05699H9.03358H9.01017H8.98676H8.96335H8.93994H8.91652H8.89311H8.86969H8.84627H8.82285H8.79943H8.776H8.75258H8.72916H8.70573H8.6823H8.65887H8.63544H8.61201H8.58857H8.56514H8.5417H8.51826H8.49482H8.47138H8.44794H8.4245H8.40105H8.3776H8.35416H8.33071H8.30725H8.2838H8.26035H8.23689H8.21343H8.18997H8.16651H8.14305H8.11959H8.09612H8.07266H8.04919H8.02572H8.00224H7.97877H7.9553H7.93182H7.90834H7.88486H7.86138H7.83789H7.81441H7.79092H7.76743H7.74394H7.72045H7.69695H7.67346H7.64996H7.62646H7.60296H7.57946H7.55595H7.53244H7.50893H7.48542H7.46191H7.4384H7.41488H7.39136H7.36784H7.34432H7.3208H7.29727H7.27374H7.25021H7.22668H7.20315H7.17961H7.15607H7.13253H7.10899H7.08545H7.0619H7.03836H7.01481H6.99125H6.9677H6.94414H6.92059H6.89703H6.87346H6.8499H6.82633H6.80276H6.77919H6.75562H6.73204H6.70847H6.68489H6.6613H6.63772H6.61413H6.59055H6.56696H6.54336H6.51977H6.49617H6.47257H6.44897H6.42536H6.40176H6.37815H6.35454H6.33092H6.30731H6.28369H6.26007H6.23644H6.21282H6.18919H6.16556H6.14193H6.11829H6.09466H6.07102H6.04737H6.02373H6.00008H6ZM16 10V8H8V10H16ZM15 14V12H9V14H15Z" fill="black"/>
</svg>
