<svg width="24" height="24" viewBox="0 0 24 24" fill="none" xmlns="http://www.w3.org/2000/svg">
<path fill-rule="evenodd" clip-rule="evenodd" d="M20.3141 8.55617C20.6703 5.73344 18.2666 3.3297 15.4438 3.68585C13.6997 1.43805 10.3003 1.43805 8.55617 3.68585C5.73344 3.3297 3.3297 5.73344 3.68585 8.55617C1.43805 10.3003 1.43805 13.6997 3.68585 15.4438C3.32971 18.2666 5.73344 20.6703 8.55617 20.3141C10.3003 22.562 13.6997 22.562 15.4438 20.3141C18.2666 20.6703 20.6703 18.2666 20.3141 15.4438C22.562 13.6997 22.562 10.3003 20.3141 8.55617ZM11 8V11H8V13H11V16H13V13H16V11H13V8H11Z" fill="black"/>
</svg>
