<svg width="24" height="24" viewBox="0 0 24 24" fill="none" xmlns="http://www.w3.org/2000/svg">
<path fill-rule="evenodd" clip-rule="evenodd" d="M15.4438 3.68585C18.2666 3.32971 20.6703 5.73344 20.3141 8.55617C22.562 10.3003 22.562 13.6997 20.3141 15.4438C20.6703 18.2666 18.2666 20.6703 15.4438 20.3141C13.6997 22.5619 10.3003 22.5619 8.55617 20.3141C5.73344 20.6703 3.32971 18.2666 3.68585 15.4438C1.43805 13.6997 1.43805 10.3003 3.68585 8.55617C3.3297 5.73344 5.73344 3.3297 8.55617 3.68585C10.3003 1.43805 13.6997 1.43805 15.4438 3.68585ZM13.8808 4.93425C12.9363 3.68858 11.0637 3.68858 10.1192 4.93425L9.44276 5.82629L8.33372 5.6738C6.78502 5.46086 5.46086 6.78502 5.6738 8.33372L5.82629 9.44276L4.93425 10.1192C3.68858 11.0637 3.68858 12.9363 4.93425 13.8808L5.82629 14.5572L5.6738 15.6663C5.46086 17.215 6.78502 18.5391 8.33372 18.3262L9.44276 18.1737L10.1192 19.0658C11.0637 20.3114 12.9363 20.3114 13.8808 19.0658L14.5572 18.1737L15.6663 18.3262C17.215 18.5391 18.5391 17.215 18.3262 15.6663L18.1737 14.5572L19.0658 13.8808C20.3114 12.9363 20.3114 11.0637 19.0658 10.1192L18.1737 9.44276L18.3262 8.33372C18.5391 6.78502 17.215 5.46086 15.6663 5.6738L14.5572 5.82629L13.8808 4.93425ZM8 13H16V11H8V13Z" fill="black"/>
</svg>
