<svg width="24" height="24" viewBox="0 0 24 24" fill="none" xmlns="http://www.w3.org/2000/svg">
<path fill-rule="evenodd" clip-rule="evenodd" d="M20.3141 8.55617C20.6703 5.73344 18.2666 3.32971 15.4438 3.68585C13.6997 1.43805 10.3003 1.43805 8.55617 3.68585C5.73344 3.3297 3.3297 5.73344 3.68585 8.55617C1.43805 10.3003 1.43805 13.6997 3.68585 15.4438C3.32971 18.2666 5.73344 20.6703 8.55617 20.3141C10.3003 22.5619 13.6997 22.5619 15.4438 20.3141C18.2666 20.6703 20.6703 18.2666 20.3141 15.4438C22.562 13.6997 22.562 10.3003 20.3141 8.55617ZM10.1192 4.93425C11.0637 3.68858 12.9363 3.68858 13.8808 4.93425L14.5572 5.82629L15.6663 5.6738C17.215 5.46086 18.5391 6.78502 18.3262 8.33372L18.1737 9.44276L19.0658 10.1192C20.3114 11.0637 20.3114 12.9363 19.0658 13.8808L18.1737 14.5572L18.3262 15.6663C18.5391 17.215 17.215 18.5391 15.6663 18.3262L14.5572 18.1737L13.8808 19.0658C12.9363 20.3114 11.0637 20.3114 10.1192 19.0658L9.44276 18.1737L8.33372 18.3262C6.78502 18.5391 5.46086 17.215 5.6738 15.6663L5.82629 14.5572L4.93425 13.8808C3.68858 12.9363 3.68858 11.0637 4.93425 10.1192L5.82629 9.44276L5.6738 8.33372C5.46086 6.78502 6.78502 5.46086 8.33372 5.6738L9.44276 5.82629L10.1192 4.93425ZM13.4549 7.54152C13.4792 7.25001 13.2491 7 12.9566 7H11.0434C10.7509 7 10.5209 7.25004 10.5452 7.54156L11.0004 13H13L13.4549 7.54152ZM12 14C11.1716 14 10.5 14.6716 10.5 15.5C10.5 16.3284 11.1716 17 12 17C12.8284 17 13.5 16.3284 13.5 15.5C13.5 14.6716 12.8284 14 12 14Z" fill="black"/>
</svg>
