<svg width="24" height="24" viewBox="0 0 24 24" fill="none" xmlns="http://www.w3.org/2000/svg">
<path fill-rule="evenodd" clip-rule="evenodd" d="M15.4438 3.68585C18.2666 3.3297 20.6703 5.73344 20.3141 8.55617C22.562 10.3003 22.562 13.6997 20.3141 15.4438C20.6703 18.2666 18.2666 20.6703 15.4438 20.3141C13.6997 22.562 10.3003 22.562 8.55617 20.3141C5.73344 20.6703 3.32971 18.2666 3.68585 15.4438C1.43805 13.6997 1.43805 10.3003 3.68585 8.55617C3.3297 5.73344 5.73344 3.3297 8.55617 3.68585C10.3003 1.43805 13.6997 1.43805 15.4438 3.68585ZM13.4549 7.54152C13.4792 7.25001 13.2491 7 12.9566 7H11.0434C10.7509 7 10.5209 7.25004 10.5452 7.54156L11.0004 13H13L13.4549 7.54152ZM12 14C11.1716 14 10.5 14.6716 10.5 15.5C10.5 16.3284 11.1716 17 12 17C12.8284 17 13.5 16.3284 13.5 15.5C13.5 14.6716 12.8284 14 12 14Z" fill="black"/>
</svg>
