<svg width="24" height="24" viewBox="0 0 24 24" fill="none" xmlns="http://www.w3.org/2000/svg">
<path fill-rule="evenodd" clip-rule="evenodd" d="M20.3141 8.55617C20.6703 5.73344 18.2666 3.3297 15.4438 3.68585C13.6997 1.43805 10.3003 1.43805 8.55617 3.68585C5.73344 3.3297 3.3297 5.73344 3.68585 8.55617C1.43805 10.3003 1.43805 13.6997 3.68585 15.4438C3.32971 18.2666 5.73344 20.6703 8.55617 20.3141C10.3003 22.562 13.6997 22.562 15.4438 20.3141C18.2666 20.6703 20.6703 18.2666 20.3141 15.4438C22.562 13.6997 22.562 10.3003 20.3141 8.55617ZM10.9197 15.0038L16.5 9.41684L15.0866 8.00282L10.9195 12.1751L8.91318 10.1664L7.49999 11.5806L10.9197 15.0038Z" fill="black"/>
</svg>
