<svg width="24" height="24" viewBox="0 0 24 24" fill="none" xmlns="http://www.w3.org/2000/svg">
<path fill-rule="evenodd" clip-rule="evenodd" d="M14 3C12.8954 3 12 3.89543 12 5V7H4C2.89543 7 2 7.89543 2 9V16C2 17.1046 2.89543 18 4 18H7L6 20H11L10 18H12C12 19.1046 12.8954 20 14 20H20C21.1046 20 22 19.1046 22 18V5C22 3.89543 21.1046 3 20 3H14ZM12 15V9H4V15H12ZM14 18H20V5H14V18ZM19 8H15V6H19V8ZM17 17C17.5523 17 18 16.5523 18 16C18 15.4477 17.5523 15 17 15C16.4477 15 16 15.4477 16 16C16 16.5523 16.4477 17 17 17Z" fill="black"/>
</svg>
