<svg width="24" height="24" viewBox="0 0 24 24" fill="none" xmlns="http://www.w3.org/2000/svg">
<path fill-rule="evenodd" clip-rule="evenodd" d="M5 4C5 2.89543 5.89543 2 7 2H17C18.1046 2 19 2.89543 19 4V10C19 11.1046 18.1046 12 17 12H13V14H19C20.1046 14 21 14.8954 21 16V20C21 21.1046 20.1046 22 19 22H5C3.89543 22 3 21.1046 3 20V16C3 14.8954 3.89543 14 5 14H11V12H7C5.89543 12 5 11.1046 5 10V4ZM17 4V9H7V4H17ZM5 16H19V20H5V16ZM12 19H6V17H12V19ZM17 19C17.5523 19 18 18.5523 18 18C18 17.4477 17.5523 17 17 17C16.4477 17 16 17.4477 16 18C16 18.5523 16.4477 19 17 19Z" fill="black"/>
</svg>
