<svg width="24" height="24" viewBox="0 0 24 24" fill="none" xmlns="http://www.w3.org/2000/svg">
<path fill-rule="evenodd" clip-rule="evenodd" d="M5 6H4.58579L4.29289 6.29289L2.58579 8C2.21071 8.37507 2 8.88378 2 9.41421V16C2 17.1046 2.89543 18 4 18H20C21.1046 18 22 17.1046 22 16V9.41421C22 8.88378 21.7893 8.37507 21.4142 8L19.7071 6.29289L19.4142 6H19H5ZM4 10V16H20V10H4ZM12 14H6V12H12V14ZM17 14C17.5523 14 18 13.5523 18 13C18 12.4477 17.5523 12 17 12C16.4477 12 16 12.4477 16 13C16 13.5523 16.4477 14 17 14Z" fill="black"/>
</svg>
