<svg width="24" height="24" viewBox="0 0 24 24" fill="none" xmlns="http://www.w3.org/2000/svg">
<path fill-rule="evenodd" clip-rule="evenodd" d="M6 2.58579C6.37507 2.21071 6.88378 2 7.41421 2H18C19.1046 2 20 2.89543 20 4V20C20 21.1046 19.1046 22 18 22H7.41421C6.88378 22 6.37507 21.7893 6 21.4142L4.29289 19.7071L4 19.4142V19V5V4.58579L4.29289 4.29289L6 2.58579ZM18 4L8 4V20H18V4ZM10 8H16V6H10V8ZM12 18C12 18.5523 11.5523 19 11 19C10.4477 19 10 18.5523 10 18C10 17.4477 10.4477 17 11 17C11.5523 17 12 17.4477 12 18ZM14 19C14.5523 19 15 18.5523 15 18C15 17.4477 14.5523 17 14 17C13.4477 17 13 17.4477 13 18C13 18.5523 13.4477 19 14 19Z" fill="black"/>
</svg>
