<svg width="24" height="24" viewBox="0 0 24 24" fill="none" xmlns="http://www.w3.org/2000/svg">
<path fill-rule="evenodd" clip-rule="evenodd" d="M4 6H2V4H5H6V5V6H21H22V7V18V19H21H17H16.5858L16.2929 18.7071L14.5858 17H6V20H4V6ZM6 8V15H15H15.4142L15.7071 15.2929L17.4142 17H20V8H6ZM10 18H7V19C7 19.5523 7.44772 20 8 20H9C9.55228 20 10 19.5523 10 19V18ZM14 18H11V19C11 19.5523 11.4477 20 12 20H13C13.5523 20 14 19.5523 14 19V18ZM8 10V12H10V10H8ZM12 10V13H14V10H12ZM16 10V13H18V10H16Z" fill="black"/>
</svg>
