<svg width="24" height="24" viewBox="0 0 24 24" fill="none" xmlns="http://www.w3.org/2000/svg">
<path fill-rule="evenodd" clip-rule="evenodd" d="M11.2929 2.29289C11.6834 1.90237 12.3166 1.90237 12.7071 2.29289L14.5 4.08579L16.5858 2C18.0601 2 19.6115 2.19733 20.7071 3.29289C21.8021 4.38794 22 5.94213 22 7.41421L10.7071 18.7071C9.49461 19.9196 7.75485 20.4688 6.44614 20.7306C5.29965 20.9599 4.16345 21 3 21C2.99998 19.8373 3.04017 18.7 3.26939 17.5539C3.53113 16.2452 4.08032 14.5054 5.29291 13.2929L13.0858 5.5L12 4.41421L7.7071 8.70711L6.29289 7.29289L11.2929 2.29289ZM18.5 8.08578L19.9867 6.59912C19.939 5.93546 19.778 5.19217 19.2929 4.70711C18.8078 4.22204 18.0645 4.06096 17.4009 4.01333L15.9142 5.5L18.5 8.08578Z" fill="black"/>
</svg>
