<svg width="24" height="24" viewBox="0 0 24 24" fill="none" xmlns="http://www.w3.org/2000/svg">
<path fill-rule="evenodd" clip-rule="evenodd" d="M12.7071 2.29289C12.3166 1.90237 11.6834 1.90237 11.2929 2.29289L6.2929 7.29289L7.70712 8.70711L12 4.41421L13.0858 5.5L5.29293 13.2929C4.08034 14.5054 3.53114 16.2452 3.2694 17.5539C3.04018 18.7 3 19.8373 3.00001 21C4.16347 21 5.29966 20.9599 6.44616 20.7306C7.75486 20.4688 9.49462 19.9196 10.7071 18.7071L22 7.41421C22 5.94213 21.8022 4.38794 20.7071 3.29289C19.6116 2.19733 18.0601 2 16.5858 2L14.5 4.08579L12.7071 2.29289ZM6.70714 14.7071L14.5 6.91421L17.0858 9.5L9.29293 17.2929C8.5055 18.0803 7.24525 18.5311 6.05392 18.7694C5.70054 18.8401 5.3679 18.8892 5.07662 18.9234C5.11074 18.6321 5.15989 18.2995 5.23056 17.9461C5.46882 16.7548 5.91965 15.4946 6.70714 14.7071ZM19.9867 6.59912L18.5 8.08578L15.9143 5.5L17.4009 4.01333C18.0646 4.06096 18.8078 4.22204 19.2929 4.70711C19.778 5.19217 19.939 5.93546 19.9867 6.59912Z" fill="black"/>
</svg>
