<svg width="24" height="24" viewBox="0 0 24 24" fill="none" xmlns="http://www.w3.org/2000/svg">
<path fill-rule="evenodd" clip-rule="evenodd" d="M16.5655 2H16.9812C18.3114 2 19.5576 2.655 20.4513 3.54868C21.345 4.44237 22 5.68856 22 7.01877V7.43453L9.47248 19.9621L2 22L4.03795 14.5275L16.5655 2ZM17.3621 4.04238L15.8914 5.51314L18.4869 8.10863L19.9576 6.63788C19.8553 6.0664 19.5312 5.46757 19.0318 4.9682C18.5324 4.46884 17.9336 4.14474 17.3621 4.04238ZM17.0673 9.52815L14.4719 6.93266L7.35947 14.045L9.95496 16.6405L17.0673 9.52815ZM8.53544 18.06L5.93995 15.4646L5.83445 15.5701L4.86114 19.1389L8.42994 18.1656L8.53544 18.06Z" fill="black"/>
</svg>
