<svg width="24" height="24" viewBox="0 0 24 24" fill="none" xmlns="http://www.w3.org/2000/svg">
<path fill-rule="evenodd" clip-rule="evenodd" d="M19.1259 3.87413C20.1124 4.86065 20.7152 6.03578 21 7.38865L7.38865 21H2V15.6113L15.6113 2C16.9642 2.28477 18.1393 2.88761 19.1259 3.87413ZM18.7718 6.80178C18.6009 6.41305 18.2816 5.84496 17.7183 5.28167C17.155 4.71837 16.587 4.3991 16.1982 4.22821L13.858 6.56846L16.4315 9.14204L18.7718 6.80178ZM13.3734 20.3479C13.1072 20.5472 13 20.7713 13 21H11C11 20.0217 11.5082 19.2458 12.1748 18.7468C12.8298 18.2565 13.6697 18 14.5 18C15.3147 18 16.1412 18.3035 16.7682 18.5338L16.7683 18.5338L16.7683 18.5338L16.8426 18.5611C17.5712 18.828 18.0761 19 18.5 19C18.9385 19 19.3482 18.8589 19.6263 18.6498C19.8941 18.4484 20 18.2234 20 18H22C22 18.974 21.4924 19.7489 20.8284 20.2482C20.1748 20.7397 19.3345 21 18.5 21C17.6826 21 16.8545 20.696 16.2265 20.4654L16.2265 20.4654L16.2264 20.4654L16.1545 20.4389C15.4252 20.1717 14.9217 20 14.5 20C14.0612 20 13.6512 20.14 13.3734 20.3479Z" fill="black"/>
</svg>
