<svg width="24" height="24" viewBox="0 0 24 24" fill="none" xmlns="http://www.w3.org/2000/svg">
<path fill-rule="evenodd" clip-rule="evenodd" d="M21 7.38865C20.7152 6.03578 20.1124 4.86065 19.1259 3.87413C18.1393 2.88761 16.9642 2.28477 15.6113 2L2 15.6113V21H7.38865L21 7.38865ZM17.7183 5.28167C18.2816 5.84496 18.6009 6.41305 18.7718 6.80178L16.4315 9.14204L13.858 6.56846L16.1982 4.22821C16.587 4.3991 17.155 4.71837 17.7183 5.28167ZM12.4504 7.976L15.024 10.5496L6.56414 19.0094H3.99056V16.4359L12.4504 7.976ZM13 21C13 20.7713 13.1072 20.5472 13.3734 20.3479C13.6512 20.14 14.0612 20 14.5 20C14.9217 20 15.4252 20.1717 16.1545 20.4389L16.2264 20.4654L16.2265 20.4654C16.8545 20.696 17.6826 21 18.5 21C19.3345 21 20.1748 20.7397 20.8284 20.2482C21.4924 19.7489 22 18.974 22 18H20C20 18.2234 19.8941 18.4484 19.6263 18.6498C19.3482 18.8589 18.9385 19 18.5 19C18.0761 19 17.5712 18.828 16.8426 18.5611L16.7683 18.5338L16.7683 18.5338C16.1412 18.3035 15.3147 18 14.5 18C13.6697 18 12.8298 18.2565 12.1748 18.7468C11.5082 19.2458 11 20.0217 11 21H13Z" fill="black"/>
</svg>
