<svg width="24" height="24" viewBox="0 0 24 24" fill="none" xmlns="http://www.w3.org/2000/svg">
<path fill-rule="evenodd" clip-rule="evenodd" d="M17.1162 2.63168C18.5682 3.17668 19.2713 4.77103 19.1439 6.31666C19.0479 7.4828 18.9282 8.73809 18.7257 9.66444C18.5748 10.355 18.103 10.8521 17.625 11.3375V13.1147L20.1288 14.1315C21.26 14.5909 22 15.69 22 16.911V18H18.7184C18.225 17.276 17.5204 16.6957 16.6704 16.3559L14.5 15.4884V15.1262C15.0001 14.621 15.4928 13.9354 15.697 13.059C15.9893 11.8046 16.1399 10.0915 16.255 8.68807C16.4199 6.67715 15.516 4.3306 13.2816 3.43587C13.1618 3.38789 13.0431 3.34233 12.9255 3.29907C13.1729 2.91524 13.0394 2.37205 12.8125 2.00973C13.5437 2.00973 15.0928 1.87217 17.1162 2.63168ZM14.76 8.56541C14.8879 7.00625 14.1763 5.40979 12.724 4.82823C10.2622 3.8424 8.37211 4.01094 7.5 4.01094C7.5 4.01094 7.77783 4.44771 7.77783 4.95183C7.77783 5.56457 7.25488 5.89395 6.63576 6.10353C5.71311 6.41586 5.08214 7.21651 5.17549 8.18611C5.32595 9.74892 5.48813 11.5194 5.76527 12.7172C5.93838 13.4654 6.47847 13.9834 7 14.5047V16.504L3.88642 17.7487C2.74713 18.2041 2 19.3074 2 20.5344V22H18V20.5344C18 19.3074 17.2529 18.2041 16.1136 17.7487L13 16.504V14.5047C13.5213 13.9837 14.062 13.4659 14.2362 12.7185C14.4985 11.5924 14.6427 9.99625 14.76 8.56541Z" fill="black"/>
</svg>
