<svg width="24" height="24" viewBox="0 0 24 24" fill="none" xmlns="http://www.w3.org/2000/svg">
<path fill-rule="evenodd" clip-rule="evenodd" d="M13.388 5.19851C14.3902 5.9407 14.8666 7.2659 14.76 8.56521C14.6427 9.99608 14.4985 11.5923 14.2362 12.7184C14.0619 13.4663 13.523 13.9819 13 14.5046V15.504L14.7968 16.2222H20.2467V15.8083C20.2467 15.4448 20.0284 15.1179 19.6955 14.9829L15.8636 13.4297V10.6008C16.1817 10.2784 16.886 9.81181 16.993 9.34637C17.1881 8.49742 17.3069 7.21711 17.4123 5.91281C17.4811 5.06232 17.0821 4.53233 16.7231 4.38656C15.9184 4.05982 15.2124 3.90584 14.6027 3.83529C14.3464 4.46855 13.8605 4.9207 13.388 5.19851ZM17.578 18C17.8485 18.4545 18 18.9818 18 19.5343V22H2V19.5343C2 18.3074 2.74713 17.2041 3.88641 16.7486L7 15.504V14.5046C6.47848 13.9834 5.93839 13.4653 5.76528 12.7171C5.42236 11.2351 5.32069 9.6967 5.17549 8.18592C5.08214 7.21633 5.71311 6.41568 6.63575 6.10335C7.25488 5.89377 7.77783 5.56438 7.77783 4.95163C7.77783 4.44751 7.5 4.01074 7.5 4.01074C7.96002 4.01074 8.70327 3.96384 9.66427 4.06421C10.1438 4.11429 10.6776 4.20104 11.2574 4.34859C11.4685 4.13818 11.7353 3.97364 12.0378 3.86981C12.5805 3.68351 13.0389 3.39073 13.0389 2.84607C13.0389 2.39796 12.7954 2.00973 12.7954 2.00973C13.1986 2.00973 13.8502 1.96804 14.6926 2.05726C15.4473 2.13718 16.3552 2.32214 17.3749 2.73621C18.648 3.25315 19.2718 4.67221 19.1597 6.0581C19.0569 7.32997 18.9305 8.74879 18.7005 9.74978C18.5483 10.412 18.0768 10.8714 17.6168 11.3375V12.2258L20.3463 13.3322C21.345 13.737 22 14.7177 22 15.8083V18L17.578 18ZM8.76823 7.17302C9.09205 6.88496 9.37767 6.51298 9.56172 6.06452C10.2572 6.14388 11.0626 6.31711 11.9805 6.68471C12.3901 6.8487 12.8452 7.44494 12.7667 8.40176C12.6464 9.86911 12.5109 11.3095 12.2883 12.2646C12.166 12.7896 11.3614 13.3146 11 13.6758V16.8583L15.3712 18.6057C15.751 18.7576 16 19.1253 16 19.5343V20H4V19.5343C4 19.1253 4.24904 18.7576 4.6288 18.6057L9 16.8583V13.6758C8.63928 13.3153 7.83516 12.7908 7.7138 12.2663C7.48016 11.2565 7.33096 9.70577 7.17868 8.12313L7.17154 8.04889C7.1924 8.0342 7.22615 8.01498 7.27704 7.99775C7.68909 7.85826 8.26766 7.61829 8.76823 7.17302Z" fill="black"/>
</svg>
