<svg width="24" height="24" viewBox="0 0 24 24" fill="none" xmlns="http://www.w3.org/2000/svg">
<path fill-rule="evenodd" clip-rule="evenodd" d="M6 6.5C6 7.88071 7.11929 9 8.5 9C9.88071 9 11 7.88071 11 6.5C11 5.11929 9.88071 4 8.5 4C7.11929 4 6 5.11929 6 6.5ZM12 3.67134C11.175 2.65183 9.91363 2 8.5 2C6.01472 2 4 4.01472 4 6.5C4 8.98528 6.01472 11 8.5 11C9.91363 11 11.175 10.3482 12 9.32866C12.825 10.3482 14.0864 11 15.5 11C17.9853 11 20 8.98528 20 6.5C20 4.01472 17.9853 2 15.5 2C14.0864 2 12.825 2.65183 12 3.67134ZM13 6.5C13 7.88071 14.1193 9 15.5 9C16.8807 9 18 7.88071 18 6.5C18 5.11929 16.8807 4 15.5 4C14.1193 4 13 5.11929 13 6.5ZM2 21L2.7374 16.2353C3.11457 13.7981 5.21241 12 7.67857 12H9.32143C10.2904 12 11.2024 12.2776 11.9756 12.7624C12.5168 12.4167 13.3878 12.0005 14.4997 12.0005L16.5308 12C19.0191 12 21.1287 13.8297 21.4805 16.2929L22 21H2ZM14.6905 19L19.847 19.0004L19.5006 16.5758C19.2895 15.0978 18.0238 14 16.5308 14L14.5003 14.0005C14.115 14.0005 13.7684 14.0947 13.4784 14.2206C13.8737 14.8112 14.1478 15.4937 14.2626 16.2353L14.6905 19ZM4.33333 19L4.71387 16.5412C4.94017 15.0789 6.19887 14 7.67857 14H9.32143C10.8011 14 12.0598 15.0789 12.2861 16.5412L12.6667 19H4.33333Z" fill="black"/>
</svg>
