<svg width="24" height="24" viewBox="0 0 24 24" fill="none" xmlns="http://www.w3.org/2000/svg">
<path fill-rule="evenodd" clip-rule="evenodd" d="M16.5225 21H21.9999L21.3283 17.1424C21.0256 15.4037 19.8469 14.006 18.2935 13.3708C17.7075 13.1311 17.0681 13 16.4024 13H14.5975C14.2777 13 13.9641 13.0303 13.6595 13.0882C14.7586 14.0406 15.5409 15.3619 15.8061 16.8851L16.5225 21ZM13.1245 11.3227C13.8139 11.752 14.628 12 15.4999 12C17.9852 12 19.9999 9.98528 19.9999 7.5C19.9999 5.01472 17.9852 3 15.4999 3C14.6281 3 13.8141 3.24796 13.1247 3.67722C13.9837 4.71527 14.4999 6.04735 14.4999 7.5C14.4999 8.95321 13.9826 10.2855 13.1245 11.3227ZM2.67164 17.1424L2 21H15L14.3284 17.1424C13.9115 14.7479 11.833 13 9.40246 13H7.59754C5.167 13 3.08854 14.7479 2.67164 17.1424ZM8.5 3C6.01472 3 4 5.01472 4 7.5C4 9.98528 6.01472 12 8.5 12C10.9853 12 13 9.98528 13 7.5C13 5.01472 10.9853 3 8.5 3Z" fill="black"/>
</svg>
