<svg width="24" height="24" viewBox="0 0 24 24" fill="none" xmlns="http://www.w3.org/2000/svg">
<path fill-rule="evenodd" clip-rule="evenodd" d="M19.5871 2.99756L3 19.5857L3.70646 20.2928L4.41292 20.9999L21 4.41177L20.2935 3.70467L19.5871 2.99756ZM5 6.49994C5 5.67151 5.67157 4.99994 6.5 4.99994C7.32843 4.99994 8 5.67151 8 6.49994C8 7.32837 7.32843 7.99994 6.5 7.99994C5.67157 7.99994 5 7.32837 5 6.49994ZM6.5 2.99994C4.567 2.99994 3 4.56694 3 6.49994C3 8.43294 4.567 9.99994 6.5 9.99994C8.433 9.99994 10 8.43294 10 6.49994C10 4.56694 8.433 2.99994 6.5 2.99994ZM16 17.4999C16 16.6715 16.6716 15.9999 17.5 15.9999C18.3284 15.9999 19 16.6715 19 17.4999C19 18.3284 18.3284 18.9999 17.5 18.9999C16.6716 18.9999 16 18.3284 16 17.4999ZM17.5 13.9999C15.567 13.9999 14 15.5669 14 17.4999C14 19.4329 15.567 20.9999 17.5 20.9999C19.433 20.9999 21 19.4329 21 17.4999C21 15.5669 19.433 13.9999 17.5 13.9999Z" fill="black"/>
</svg>
