<svg width="24" height="24" viewBox="0 0 24 24" fill="none" xmlns="http://www.w3.org/2000/svg">
<path d="M15.6677 2.87796C17.1494 3.43998 17.8702 5.05078 17.6758 6.62357C17.4624 8.35104 17.1894 10.3967 16.852 11.8348C16.6678 12.6195 16.1409 13.2572 15.4698 13.7037L15 14.0163V16.0142L18.9487 17.3278C20.1737 17.7353 21 18.8794 21 20.1681V22H3V20.1681C3 18.8794 3.82629 17.7353 5.05132 17.3278L9 16.0142V14.0163L8.5302 13.7037C7.85909 13.2572 7.33205 12.619 7.14792 11.8342C6.81648 10.4216 6.5473 8.42311 6.33555 6.71567C6.21526 5.74561 6.83539 4.89287 7.76073 4.57783C8.64906 4.2754 9.5 3.81626 9.5 3.03886C9.5 2.47818 9 2.0407 9 2.0407C10.0146 2.0407 12.6154 1.72021 15.6677 2.87796Z" fill="black"/>
</svg>
