<svg width="24" height="24" viewBox="0 0 24 24" fill="none" xmlns="http://www.w3.org/2000/svg">
<path fill-rule="evenodd" clip-rule="evenodd" d="M12.724 2.82823C14.1763 3.40979 14.8879 5.00625 14.76 6.56541C14.6427 7.99625 14.4985 9.59239 14.2362 10.7185C14.1129 11.2474 13.8019 11.7033 13.4177 12.0872L13 12.5047L12.5 13V14.1822C11.8682 15.1325 11.5 16.2733 11.5 17.5C11.5 18.3922 11.6947 19.2389 12.044 20H2V18.6031C2 17.342 2.7886 16.2156 3.97351 15.7842L7.5 14.5V13L7 12.5047L6.58228 12.0872C6.19812 11.7033 5.88771 11.2464 5.76527 10.7172C5.50094 9.57479 5.34119 7.91135 5.19643 6.40404L5.17549 6.18611C5.08214 5.21651 5.71311 4.41586 6.63576 4.10353C7.25488 3.89395 7.77783 3.56457 7.77783 2.95183C7.77783 2.44771 7.5 2.01094 7.5 2.01094C7.59877 2.01094 7.71061 2.00878 7.83485 2.00638C8.80759 1.98757 10.541 1.95406 12.724 2.82823ZM17.5 21C17.5 21 14.6693 18.2522 14.35 17.8237C14.1302 17.5287 14 17.1621 14 16.7647C14 15.7901 14.7835 15 15.75 15C16.144 15 16.5077 15.1313 16.8002 15.3529C17.0404 15.5349 17.5032 15.9538 17.5032 15.9538C17.5032 15.9538 17.9596 15.5349 18.1998 15.3529C18.4923 15.1313 18.856 15 19.25 15C20.2165 15 21 15.7901 21 16.7647C21 17.1621 20.8698 17.5287 20.65 17.8237C20.3307 18.2522 17.5 21 17.5 21Z" fill="black"/>
</svg>
