<svg width="24" height="24" viewBox="0 0 24 24" fill="none" xmlns="http://www.w3.org/2000/svg">
<path fill-rule="evenodd" clip-rule="evenodd" d="M2 5C2 3.89543 2.89543 3 4 3H20C21.1046 3 22 3.89543 22 5V18C22 19.1046 21.1046 20 20 20H19.5V19.7179C19.5 18.2149 18.5799 16.8211 17.1271 16.3137L16.2291 16H20V5H4V16H7.7709L6.87292 16.3137C5.42009 16.8211 4.5 18.2149 4.5 19.7179V20H4C2.89543 20 2 19.1046 2 18V5ZM15.7839 10.2365C15.9135 9.13555 15.4329 8.00799 14.4451 7.61457C12.7118 6.92426 11.197 6.98472 10.368 7.0178C10.2237 7.02356 10.1003 7.02849 10 7.02849C10 7.02849 10.3333 7.33472 10.3333 7.7272C10.3333 8.27138 9.76604 8.59278 9.17382 8.80448C8.55693 9.02501 8.1435 9.62192 8.2237 10.301C8.36486 11.4962 8.54432 12.8951 8.76528 13.884C8.88803 14.4333 9.23939 14.8801 9.6868 15.1926L10 15.4114V16.81L7.36754 17.7295C6.55086 18.0147 6 18.8156 6 19.7176V22H18V19.7176C18 18.8156 17.4491 18.0147 16.6325 17.7295L14 16.81V15.4114L14.3132 15.1926C14.7606 14.8801 15.1119 14.4337 15.2346 13.8843C15.4596 12.8777 15.6416 11.4457 15.7839 10.2365Z" fill="black"/>
</svg>
