<svg width="24" height="24" viewBox="0 0 24 24" fill="none" xmlns="http://www.w3.org/2000/svg">
<path fill-rule="evenodd" clip-rule="evenodd" d="M5.05132 16.3278C3.82629 16.7353 3 17.8794 3 19.1681V22H21V19.1681C21 17.8794 20.1737 16.7353 18.9487 16.3278L15 15.0142V14.0163C15.3575 13.7784 15.7238 13.5525 16.0314 13.2496C16.4271 12.8598 16.7233 12.3832 16.852 11.8348C17.1894 10.3967 17.4624 8.35105 17.6758 6.62358C17.8702 5.05078 17.1494 3.43998 15.6677 2.87795C14.0301 2.25683 12.5225 2.06118 11.3201 2.01325C10.2813 1.97185 9.47028 2.0407 9 2.0407C9 2.0407 9.5 2.47818 9.5 3.03886C9.5 3.81626 8.64906 4.2754 7.76073 4.57783C6.83539 4.89287 6.21526 5.74561 6.33556 6.71567C6.5473 8.42311 6.81648 10.4216 7.14792 11.8342C7.27662 12.3827 7.57283 12.8597 7.96868 13.2496C8.27622 13.5525 8.64253 13.7784 9 14.0163V15.0142L5.05132 16.3278ZM11.3389 4.01636C10.8898 5.32069 9.64309 6.04971 8.4053 6.47112C8.36987 6.48318 8.34476 6.49788 8.32863 6.50995L8.32565 6.51223C8.53824 8.22338 8.79446 10.0963 9.09504 11.3774C9.13608 11.5523 9.28011 11.8004 9.63804 12.0386L11 12.9447V16.4567L5.68261 18.2255C5.2728 18.3619 5 18.7429 5 19.1681V20H19V19.1681C19 18.7429 18.7272 18.3619 18.3174 18.2255L13 16.4567V12.9447L14.362 12.0386C14.7202 11.8002 14.8639 11.5525 14.9049 11.3778C15.2137 10.0618 15.4753 8.12296 15.6909 6.37829C15.8033 5.46914 15.3623 4.90115 14.9584 4.74796C13.5978 4.23189 12.3735 4.06125 11.3389 4.01636Z" fill="black"/>
</svg>
