<svg width="24" height="24" viewBox="0 0 24 24" fill="none" xmlns="http://www.w3.org/2000/svg">
<path fill-rule="evenodd" clip-rule="evenodd" d="M4 12C4 7.58172 7.58172 4 12 4C16.4183 4 20 7.58172 20 12C20 13.9471 19.3044 15.7317 18.1481 17.1189C17.8117 16.7564 17.3947 16.4672 16.9264 16.28L14.532 15.3228L14.532 15.1602C15.0402 14.6523 15.5329 14.1192 15.6849 13.3902C15.8521 12.588 15.9619 11.5599 16.0501 10.555C16.2047 8.79349 15.38 7.02356 13.7716 6.49112C12.6312 6.11362 11.4747 6.01681 10.2869 5.95183C10.1803 6.65846 10.1718 7.31354 9.45934 7.68174C8.46406 8.19608 7.78118 8.98312 7.87821 9.9899C7.99345 11.1858 8.12175 12.4521 8.31666 13.3893C8.46836 14.1187 8.95969 14.6521 9.46813 15.1602L9.46814 15.3228L7.07382 16.28C6.60547 16.4672 6.18841 16.7565 5.85194 17.119C4.69563 15.7318 4 13.9471 4 12ZM7.31339 18.4842C8.6305 19.4378 10.2496 20 12 20C13.7504 20 15.3696 19.4378 16.6867 18.4841C16.5517 18.3368 16.381 18.2158 16.184 18.1371L12.532 16.6772L12.5319 14.3314C12.8794 13.9841 13.6208 13.4915 13.727 12.982C13.8676 12.3074 13.9696 11.3846 14.0577 10.3801C14.159 9.22642 13.6019 8.5417 13.1431 8.3898C12.6623 8.23065 12.2237 8.13294 11.8266 8.07347C11.4466 8.792 10.8243 9.22761 10.3775 9.45851C10.0524 9.62656 9.92356 9.7625 9.8809 9.8216C9.87966 9.82332 9.87745 9.82647 9.87745 9.82647C9.87551 9.82924 9.87386 9.8317 9.87244 9.83386C9.98932 11.0449 10.1081 12.1805 10.2748 12.982C10.3898 13.5353 11.0787 13.9423 11.4681 14.3314L11.4682 16.6772L7.8162 18.1371C7.61912 18.2159 7.44844 18.3368 7.31339 18.4842ZM12 2C6.47715 2 2 6.47715 2 12C2 17.5228 6.47715 22 12 22C17.5228 22 22 17.5228 22 12C22 6.47715 17.5228 2 12 2Z" fill="black"/>
</svg>
