<svg width="24" height="24" viewBox="0 0 24 24" fill="none" xmlns="http://www.w3.org/2000/svg">
<path fill-rule="evenodd" clip-rule="evenodd" d="M4 4C2.89543 4 2 4.89543 2 6V18C2 19.1046 2.89543 20 4 20H20C21.1046 20 22 19.1046 22 18V6C22 4.89543 21.1046 4 20 4H4ZM8 6L20 6V18H17.8333L17.4178 15.5068C17.1767 14.0602 15.9205 13 14.454 13H13.546C12.0795 13 10.8233 14.0602 10.5822 15.5068L10.1667 18H8V6ZM4 7V9H6V7H4ZM4 11V13H6V11H4ZM4 15V17H6V15H4ZM14 12C15.1046 12 16 11.1046 16 10C16 8.89543 15.1046 8 14 8C12.8954 8 12 8.89543 12 10C12 11.1046 12.8954 12 14 12Z" fill="black"/>
</svg>
