<svg width="24" height="24" viewBox="0 0 24 24" fill="none" xmlns="http://www.w3.org/2000/svg">
<path fill-rule="evenodd" clip-rule="evenodd" d="M7 13.5076L3.82339 14.9026C2.73448 15.2694 2 16.2991 2 17.4589V20.0076H12.0476C11.7632 19.3903 11.5806 18.7165 11.5212 18.0076H4C4 17.5598 3.92957 16.9773 4.46178 16.798L9 14.8137V11.6791C8.63911 11.3183 7.83533 10.7937 7.71393 10.2688C7.39488 8.88928 7.30643 7.45112 7.17123 6.04523C8.09935 5.37719 9.06897 5.23708 9.55505 4.07204C10.248 4.1547 11.0517 4.32921 11.9646 4.69022C12.3839 4.85601 12.844 5.45944 12.7653 6.41871C12.6453 7.88168 12.5098 9.31537 12.2882 10.2671C12.1658 10.7926 11.3615 11.3176 11 11.6791V14.8137L11.9448 15.2286C12.2038 14.5958 12.5678 14.0172 13.0151 13.5142L13 13.5076V12.5076C13.5213 11.9864 14.062 11.4683 14.2361 10.7207C14.4975 9.59834 14.6415 8.00956 14.7586 6.58223C14.8873 5.01337 14.1639 3.40925 12.7001 2.83037C11.5484 2.3749 10.5225 2.1659 9.6683 2.07229C8.70535 1.96676 7.96067 2.00789 7.5 2.00789C7.5 2.00789 7.77778 2.43798 7.77778 2.9426C7.77778 3.55638 7.25409 3.88765 6.63441 4.09889C5.7127 4.41308 5.08203 5.21415 5.1753 6.18345C5.32057 7.69584 5.42224 9.23581 5.76536 10.7195C5.93843 11.4678 6.47846 11.9861 7 12.5076V13.5076ZM16.5291 13.1803C16.7436 13.5867 16.9718 13.9911 17.5 13.9911C18.0282 13.9911 18.2564 13.5867 18.4709 13.1803C19.3826 13.4614 20.1393 13.9012 20.8336 14.5455C20.5894 14.9343 20.3539 15.3339 20.6177 15.7909C20.8819 16.2485 21.3463 16.2438 21.8055 16.2264C21.9081 16.6781 22 17.1248 22 17.5911C22 18.0573 21.9082 18.5039 21.8056 18.9555C21.3464 18.9381 20.8819 18.9333 20.6177 19.3909C20.3538 19.848 20.5895 20.2477 20.8338 20.6365C20.1343 21.2857 19.3764 21.7227 18.4709 22.0019C18.2564 21.5956 18.0282 21.1911 17.5 21.1911C16.9718 21.1911 16.7436 21.5956 16.5291 22.0019C15.6173 21.7208 14.8606 21.2809 14.1662 20.6365C14.4105 20.2477 14.6462 19.848 14.3823 19.3909C14.1181 18.9333 13.6536 18.9381 13.1944 18.9555C13.0918 18.5039 13 18.0573 13 17.5911C13 17.1248 13.0919 16.6781 13.1945 16.2264C13.6537 16.2438 14.1182 16.2485 14.3823 15.7909C14.6462 15.3339 14.4106 14.9343 14.1664 14.5455C14.8659 13.8964 15.6237 13.4595 16.5291 13.1803ZM19.3 17.5908C19.3 18.5849 18.4941 19.3908 17.5 19.3908C16.5059 19.3908 15.7 18.5849 15.7 17.5908C15.7 16.5967 16.5059 15.7908 17.5 15.7908C18.4941 15.7908 19.3 16.5967 19.3 17.5908Z" fill="black"/>
</svg>
