<svg width="24" height="24" viewBox="0 0 24 24" fill="none" xmlns="http://www.w3.org/2000/svg">
<path fill-rule="evenodd" clip-rule="evenodd" d="M4 4C2.89543 4 2 4.89543 2 6V18C2 19.1046 2.89543 20 4 20H20C21.1046 20 22 19.1046 22 18V6C22 4.89543 21.1046 4 20 4H4ZM4 6L20 6V18H12.8333L12.4178 15.5068C12.1767 14.0602 10.9205 13 9.45396 13H8.54604C7.07952 13 5.82329 14.0602 5.5822 15.5068L5.16667 18H4V6ZM14 10H18V8H14V10ZM14 14H18V12H14V14ZM9 12C10.1046 12 11 11.1046 11 10C11 8.89543 10.1046 8 9 8C7.89543 8 7 8.89543 7 10C7 11.1046 7.89543 12 9 12Z" fill="black"/>
</svg>
