<svg width="24" height="24" viewBox="0 0 24 24" fill="none" xmlns="http://www.w3.org/2000/svg">
<path fill-rule="evenodd" clip-rule="evenodd" d="M12.724 2.82821C14.1763 3.40977 14.8879 5.00623 14.76 6.5654C14.6427 7.99623 14.4985 9.59237 14.2362 10.7185C14.0136 11.6736 13.1687 12.3375 12.5 13V14.1822C11.8682 15.1325 11.5 16.2732 11.5 17.5C11.5 18.3922 11.6947 19.2389 12.044 20H2V18.6031C2 17.342 2.7886 16.2156 3.97351 15.7841L7.5 14.5V13C6.83093 12.3345 5.98818 11.6806 5.76527 10.7172C5.42236 9.23517 5.32069 7.69684 5.17549 6.18609C5.08214 5.21649 5.71311 4.41584 6.63576 4.10351C7.25488 3.89393 7.77783 3.56455 7.77783 2.95181C7.77783 2.44769 7.5 1.99994 7.5 1.99994C9.30987 1.99994 11.0166 2.14449 12.724 2.82821ZM22 17.5C22 19.9853 19.9853 22 17.5 22C15.0147 22 13 19.9853 13 17.5C13 15.0147 15.0147 13 17.5 13C19.9853 13 22 15.0147 22 17.5ZM20 18.25H15V16.75H20V18.25Z" fill="black"/>
</svg>
