<svg width="24" height="24" viewBox="0 0 24 24" fill="none" xmlns="http://www.w3.org/2000/svg">
<path fill-rule="evenodd" clip-rule="evenodd" d="M14.76 6.56541C14.8879 5.00625 14.1763 3.40979 12.724 2.82823C10.541 1.95406 8.8076 1.98757 7.83487 2.00638H7.83485H7.83484C7.7106 2.00878 7.59877 2.01094 7.5 2.01094C7.5 2.01094 7.77783 2.44771 7.77783 2.95183C7.77783 3.56457 7.25488 3.89395 6.63576 4.10353C5.71311 4.41586 5.08214 5.21651 5.17549 6.18611L5.19643 6.40404C5.34119 7.91135 5.50094 9.57479 5.76527 10.7172C5.88771 11.2464 6.19812 11.7033 6.58228 12.0872L7 12.5047L7.5 13V14.5L3.97351 15.7842C2.7886 16.2156 2 17.342 2 18.6031V20H12.044C11.6947 19.2389 11.5 18.3922 11.5 17.5C11.5 16.2733 11.8682 15.1325 12.5 14.1822V13L13 12.5047L13.4177 12.0872C13.8019 11.7033 14.1129 11.2474 14.2362 10.7185C14.4985 9.59239 14.6427 7.99625 14.76 6.56541ZM17.25 11.1178C17.4781 11.4392 19.5 13.5 19.5 13.5C19.5 13.5 21.5219 11.4392 21.75 11.1178C21.907 10.8966 22 10.6215 22 10.3235C22 9.59256 21.4404 9 20.75 9C20.4685 9 20.2088 9.09849 19.9999 9.26471C19.8283 9.40119 19.5023 9.71533 19.5023 9.71533C19.5023 9.71533 19.1717 9.40119 19.0001 9.26471C18.7912 9.09849 18.5315 9 18.25 9C17.5596 9 17 9.59256 17 10.3235C17 10.6215 17.093 10.8966 17.25 11.1178ZM17.5 21C17.5 21 14.6693 18.2522 14.35 17.8237C14.1302 17.5287 14 17.1621 14 16.7647C14 15.7901 14.7835 15 15.75 15C16.144 15 16.5077 15.1313 16.8002 15.3529C17.0404 15.5349 17.5032 15.9538 17.5032 15.9538C17.5032 15.9538 17.9596 15.5349 18.1998 15.3529C18.4923 15.1313 18.856 15 19.25 15C20.2165 15 21 15.7901 21 16.7647C21 17.1621 20.8698 17.5287 20.65 17.8237C20.3307 18.2522 17.5 21 17.5 21Z" fill="black"/>
</svg>
