<svg width="24" height="24" viewBox="0 0 24 24" fill="none" xmlns="http://www.w3.org/2000/svg">
<path fill-rule="evenodd" clip-rule="evenodd" d="M5.88583 16.7457C4.74685 17.2013 4 18.3044 4 19.5311V22H20V19.5311C20 18.3044 19.2531 17.2013 18.1142 16.7457L15 15.5L15 15C15 15 17 15 19 14C18 13 18 11 18 11V7.5C18 4.46243 15.0376 2 12 2C11.0781 2 10.2671 2.37327 9.55914 3.24178C7.97937 2.50132 6 3.58546 6 5.5V11C6 11 6 13 5 14C7 15 9 15 9 15V15.5L5.88583 16.7457ZM8 11V11.001L8 11.0043L7.99998 11.0094C7.99626 11.6264 7.90994 12.2444 7.76391 12.8437C8.83155 13.0628 9.91656 13 11 13V16.8541L6.62861 18.6026C6.24895 18.7545 6 19.1222 6 19.5311V20H18V19.5311C18 19.1222 17.751 18.7545 17.3714 18.6026L13 16.8541V13C14.0834 13 15.1684 13.0628 16.2361 12.8437C16.0901 12.2444 16.0038 11.6264 16 11.0094L16 11.0043L16 11.001V7.5C16 5.78287 14.162 4 12 4C11.7301 4 11.4708 4.06201 11.1093 4.50549L10.1233 5.715L8.71033 5.05272C8.565 4.98461 8.38015 4.99129 8.22052 5.08762C8.07019 5.17834 8 5.32679 8 5.5V11Z" fill="black"/>
</svg>
