<svg width="24" height="24" viewBox="0 0 24 24" fill="none" xmlns="http://www.w3.org/2000/svg">
<path fill-rule="evenodd" clip-rule="evenodd" d="M3.82339 14.9026C2.73448 15.2694 2 16.2991 2 17.4589V20.0076H12.5V18.0076H4C4 17.5598 3.92957 16.9773 4.46178 16.798C6.21558 16.0312 7.56933 15.442 9 14.8137V11.6791C8.63894 11.3181 7.83534 10.7938 7.71393 10.2688C7.39488 8.88928 7.30643 7.45112 7.17123 6.04523C8.09935 5.37719 9.06897 5.23708 9.55505 4.07204C10.248 4.1547 11.0517 4.32921 11.9646 4.69022C12.3839 4.85601 12.844 5.45944 12.7653 6.41871C12.6453 7.88168 12.5098 9.31537 12.2882 10.2671C12.1659 10.7922 11.3616 11.3176 11 11.6791V11.6791L11 14.8137C11.8328 15.1794 12.6667 15.5424 13.5 15.9068C13.5 15.2051 13.5528 14.5303 13.8427 13.8777L13 13.5076V12.5076C13.5221 11.9861 14.062 11.4683 14.2361 10.7207C14.4975 9.59834 14.6415 8.00956 14.7586 6.58223C14.8873 5.01337 14.1639 3.40925 12.7001 2.83037C11.5484 2.3749 10.5225 2.1659 9.6683 2.07229C8.70535 1.96676 7.96067 2.00789 7.5 2.00789C7.5 2.00789 7.77778 2.43798 7.77778 2.9426C7.77778 3.55638 7.25409 3.88765 6.63441 4.09889C5.7127 4.41308 5.08203 5.21415 5.1753 6.18345C5.32057 7.69581 5.42224 9.23585 5.76536 10.7195C5.80142 10.8754 5.85339 11.0213 5.91781 11.1593L5.91663 11.1594C6.16431 11.6888 6.5925 12.1006 7 12.5076V13.5076L3.82339 14.9026ZM14 22H22V18H21V16C21 14.3431 19.6569 13 18 13C16.3431 13 15 14.3431 15 16V18H14V22ZM18 15C17.4477 15 17 15.4477 17 16V18H19V16C19 15.4477 18.5523 15 18 15Z" fill="black"/>
</svg>
