<svg width="24" height="24" viewBox="0 0 24 24" fill="none" xmlns="http://www.w3.org/2000/svg">
<path fill-rule="evenodd" clip-rule="evenodd" d="M10 10C8.34315 10 7 8.65685 7 7C7 5.34315 8.34315 4 10 4C11.6569 4 13 5.34315 13 7C13 8.65685 11.6569 10 10 10ZM5 7C5 4.23858 7.23858 2 10 2C12.7614 2 15 4.23858 15 7C15 9.76142 12.7614 12 10 12C7.23858 12 5 9.76142 5 7ZM10.2926 13H11.5C12.2175 13.0818 12.9032 13.1439 13.5 13.5C13.5 13.5 12.5 14 12.5 15.5V22H2L3.48284 16.6618C4.08398 14.4977 6.05439 13 8.30043 13H10.2926ZM10.5 15V20H4.63128L5.40987 17.1971C5.77056 15.8986 6.95281 15 8.30043 15H10.5ZM14 20V16H15V14C15 12.3431 16.3431 11 18 11C19.6569 11 21 12.3431 21 14V16H22V20H14ZM17 14C17 13.4477 17.4477 13 18 13C18.5523 13 19 13.4477 19 14V16H17V14Z" fill="black"/>
</svg>
