<svg width="24" height="24" viewBox="0 0 24 24" fill="none" xmlns="http://www.w3.org/2000/svg">
<path fill-rule="evenodd" clip-rule="evenodd" d="M19.7839 7.2365C19.9135 6.13555 19.4329 5.00799 18.4451 4.61457C16.4102 3.80414 14.6764 4.02849 14 4.02849C14 4.02849 14.3333 4.33472 14.3333 4.7272C14.3333 5.27138 13.766 5.59278 13.1738 5.80448C13.039 5.85269 12.9138 5.91889 12.8014 6H4C2.89543 6 2 6.89543 2 8V16C2 17.1046 2.89543 18 4 18H10V20H22V16.7176C22 15.8156 21.4491 15.0147 20.6325 14.7295L18 13.81V12.4114C18.5605 12.0198 19.077 11.5899 19.2346 10.8843C19.4596 9.87766 19.6416 8.44573 19.7839 7.2365ZM12.3083 8C12.4345 9.01291 12.5863 10.083 12.7653 10.884C12.923 11.5896 13.4394 12.0198 14 12.4114V13.81L11.3675 14.7295C10.7771 14.9357 10.3256 15.4114 10.1208 16H4V8H12.3083Z" fill="black"/>
</svg>
