<svg width="24" height="24" viewBox="0 0 24 24" fill="none" xmlns="http://www.w3.org/2000/svg">
<path fill-rule="evenodd" clip-rule="evenodd" d="M2 6C2 4.89543 2.89543 4 4 4H20C21.1046 4 22 4.89543 22 6V18C22 19.1046 21.1046 20 20 20H4C2.89543 20 2 19.1046 2 18V6ZM20 6L4 6V18H5.58284C5.73456 17.0441 6.11726 15.9612 6.9117 15.6639L8.66667 15.0071V14.0081C8.28433 13.722 7.94613 13.4091 7.84352 12.9171C7.69621 12.2108 7.57658 11.2116 7.48247 10.3578C7.429 9.8728 7.70462 9.44643 8.11588 9.28892C8.51069 9.1377 8.88889 8.90813 8.88889 8.51943C8.88889 8.23909 8.66667 8.02035 8.66667 8.02035C9.11761 8.02035 10.2735 7.8601 11.6301 8.43898C12.2886 8.71999 12.609 9.52539 12.5226 10.3118C12.4277 11.1755 12.3064 12.1983 12.1564 12.9174C12.0538 13.4093 11.7156 13.722 11.3333 14.0081V15.0071L13.0883 15.6639C13.8827 15.9612 14.2654 17.0441 14.4172 18H20V6ZM18 10H14V8H18V10ZM18 14H15V12H18V14Z" fill="black"/>
</svg>
