<svg width="24" height="24" viewBox="0 0 24 24" fill="none" xmlns="http://www.w3.org/2000/svg">
<path fill-rule="evenodd" clip-rule="evenodd" d="M4 12C4 7.58172 7.58172 4 12 4C16.4183 4 20 7.58172 20 12C20 14.1872 19.1223 16.1693 17.6999 17.6135C17.4592 17.2067 17.087 16.8882 16.6324 16.7295L14 15.81V14.4114C14.5605 14.0198 15.0769 13.5899 15.2346 12.8843C15.4596 11.8777 15.6416 10.4457 15.7839 9.2365C15.9135 8.13555 15.4329 7.00799 14.4451 6.61457C12.4103 5.80416 10.6764 6.02849 9.99998 6.02849C9.99998 6.02849 10.3333 6.33472 10.3333 6.7272C10.3333 7.27138 9.76602 7.59278 9.17379 7.80448C8.5569 8.02501 8.14348 8.62192 8.22368 9.30097C8.36484 10.4962 8.5443 11.8951 8.76526 12.884C8.92294 13.5896 9.43935 14.0198 9.99998 14.4114V15.81L7.36752 16.7295C6.91298 16.8882 6.54079 17.2067 6.30008 17.6135C4.87769 16.1693 4 14.1871 4 12ZM12 2C6.47715 2 2 6.47715 2 12C2 17.5228 6.47715 22 12 22C17.5228 22 22 17.5228 22 12C22 6.47715 17.5228 2 12 2Z" fill="black"/>
</svg>
