<svg width="24" height="24" viewBox="0 0 24 24" fill="none" xmlns="http://www.w3.org/2000/svg">
<path fill-rule="evenodd" clip-rule="evenodd" d="M2 4C2 2.89543 2.89543 2 4 2H9V4H4V9H2V4ZM20 4H15V2H20C21.1046 2 22 2.89543 22 4V9H20V4ZM4 15V20H9V22H4C2.89543 22 2 21.1046 2 20V15H4ZM20 20V15H22V20C22 21.1046 21.1046 22 20 22H15V20H20ZM7.39388 16.1619L7 18H17L16.6061 16.1619C16.2109 14.3176 14.5811 13 12.6949 13H11.3051C9.41894 13 7.78909 14.3176 7.39388 16.1619ZM12 12C13.6569 12 15 10.6569 15 9C15 7.34315 13.6569 6 12 6C10.3431 6 9 7.34315 9 9C9 10.6569 10.3431 12 12 12Z" fill="black"/>
</svg>
