<svg width="24" height="24" viewBox="0 0 24 24" fill="none" xmlns="http://www.w3.org/2000/svg">
<path fill-rule="evenodd" clip-rule="evenodd" d="M5 7C5 4.23858 7.23858 2 10 2C12.7614 2 15 4.23858 15 7C15 9.76142 12.7614 12 10 12C7.23858 12 5 9.76142 5 7ZM13.3321 13.1839C12.9018 13.0638 12.45 13 11.986 13H8.01401C5.67052 13 3.6383 14.6277 3.12992 16.9153L2 22H13.5313C12.2856 20.9006 11.5 19.292 11.5 17.5C11.5 15.8055 12.2025 14.275 13.3321 13.1839ZM22 17.5C22 19.9853 19.9853 22 17.5 22C15.0147 22 13 19.9853 13 17.5C13 15.0147 15.0147 13 17.5 13C19.9853 13 22 15.0147 22 17.5ZM14.9697 18.9697L18.9697 14.9697L20.0303 16.0303L16.0303 20.0303L14.9697 18.9697Z" fill="black"/>
</svg>
