<svg width="24" height="24" viewBox="0 0 24 24" fill="none" xmlns="http://www.w3.org/2000/svg">
<path fill-rule="evenodd" clip-rule="evenodd" d="M2 5C2 3.89543 2.89543 3 4 3H20C21.1046 3 22 3.89543 22 5V17V18C22 19.1046 21.1046 20 20 20H19.5H19.0207L18.6063 17.5136C18.5173 16.9798 18.3594 16.4725 18.1426 16H18.5H20V5H4V16H5.85738C5.64059 16.4725 5.48267 16.9798 5.39371 17.5136L4.97931 20H4C2.89543 20 2 19.1046 2 18V17V5ZM6.8733 17.7602L6.5 22H17.5L17.1267 17.7602C16.7651 15.5904 14.8807 14 12.6809 14H11.3191C9.11929 14 7.23494 15.5904 6.8733 17.7602ZM12 13C13.6569 13 15 11.6569 15 10C15 8.34315 13.6569 7 12 7C10.3431 7 9 8.34315 9 10C9 11.6569 10.3431 13 12 13Z" fill="black"/>
</svg>
