<svg width="24" height="24" viewBox="0 0 24 24" fill="none" xmlns="http://www.w3.org/2000/svg">
<path fill-rule="evenodd" clip-rule="evenodd" d="M7.10002 6C7.03443 6.32311 7 6.65753 7 7C7 9.76142 9.23858 12 12 12C14.7614 12 17 9.76142 17 7C17 4.23858 14.7614 2 12 2C11.9966 2 11.9932 2 11.9898 2.00001C9.57535 2.00485 7.56263 3.72098 7.10002 6ZM14.8283 5.9972C13.7 5.95527 12.6912 5.44604 11.9897 4.6574C11.2926 5.44119 10.2918 5.94899 9.17199 5.99637C9.58485 4.83307 10.6951 4 12 4C13.3052 4 14.4157 4.83347 14.8283 5.9972ZM5.48284 16.6618L4 22H20L18.5172 16.6618C17.916 14.4977 15.9456 13 13.6996 13H10.3004C8.05439 13 6.08398 14.4977 5.48284 16.6618Z" fill="black"/>
</svg>
