<svg width="24" height="24" viewBox="0 0 24 24" fill="none" xmlns="http://www.w3.org/2000/svg">
<path fill-rule="evenodd" clip-rule="evenodd" d="M12 4C7.58172 4 4 7.58172 4 12C4 13.9702 4.71221 15.7741 5.89322 17.1682C6.19814 16.6642 6.56629 16.1541 6.98005 15.6978C7.73692 14.863 9.19633 14 10.5 14H13.5C14.8165 14 16.2726 14.8498 17.0309 15.6895C17.4437 16.1466 17.8085 16.6576 18.1108 17.1634C19.2894 15.7699 20 13.968 20 12C20 7.58172 16.4183 4 12 4ZM19.0212 19.1206C20.8601 17.3072 22 14.7867 22 12C22 6.47715 17.5228 2 12 2C6.47715 2 2 6.47715 2 12C2 14.7867 3.13991 17.3073 4.97889 19.1207L4.96875 19.1463L5.4907 19.5916C7.23997 21.0929 9.51405 22 12 22L12.0533 21.9999C14.4825 21.9872 16.7069 21.1083 18.4331 19.6563L18.4874 19.6103L19.0313 19.1463L19.0212 19.1206ZM8.5 9.5C8.5 7.567 10.067 6 12 6C13.933 6 15.5 7.567 15.5 9.5C15.5 11.433 13.933 13 12 13C10.067 13 8.5 11.433 8.5 9.5Z" fill="black"/>
</svg>
