<svg width="24" height="24" viewBox="0 0 24 24" fill="none" xmlns="http://www.w3.org/2000/svg">
<path fill-rule="evenodd" clip-rule="evenodd" d="M7 7C7 8.65685 8.34315 10 10 10C11.6569 10 13 8.65685 13 7C13 5.34315 11.6569 4 10 4C8.34315 4 7 5.34315 7 7ZM10 2C7.23858 2 5 4.23858 5 7C5 9.76142 7.23858 12 10 12C12.7614 12 15 9.76142 15 7C15 4.23858 12.7614 2 10 2ZM10.863 13.0324C10.6756 13.011 10.4852 13 10.2926 13H8.30043C6.05439 13 4.08398 14.4977 3.48284 16.6618L2 22H13.5313C12.9058 21.448 12.3963 20.7675 12.044 20C11.6947 19.2389 11.5 18.3922 11.5 17.5C11.5 16.693 11.6593 15.9232 11.9483 15.2203C12.1748 14.6692 12.481 14.1592 12.8526 13.7048C12.2558 13.3486 11.5805 13.1142 10.863 13.0324ZM9.89882 20C9.64014 19.2134 9.5 18.3729 9.5 17.5C9.5 16.6277 9.64013 15.787 9.89893 15H8.30043C6.95281 15 5.77056 15.8986 5.40987 17.1971L4.63128 20H9.89882ZM16.5291 13.1803L16.7032 13.5102C16.8546 13.7972 17.155 13.9911 17.5 13.9911C17.845 13.9911 18.1454 13.7972 18.2968 13.5102L18.4709 13.1803L18.8273 13.2902C19.4816 13.4919 20.0717 13.8385 20.5604 14.292L20.8336 14.5455L20.6353 14.8612C20.463 15.1356 20.4454 15.4924 20.6177 15.7909C20.7902 16.0896 21.1083 16.2528 21.4324 16.2405L21.8055 16.2264L21.8883 16.5905C21.9614 16.9127 22 17.2477 22 17.5911C22 17.9344 21.9615 18.2692 21.8883 18.5913L21.8056 18.9555L21.4324 18.9413C21.1083 18.929 20.7902 19.0922 20.6177 19.3909C20.4453 19.6895 20.463 20.0463 20.6355 20.3209L20.8338 20.6365L20.5605 20.8901C20.0718 21.3437 19.4817 21.6903 18.8273 21.892L18.4709 22.0019L18.2968 21.672C18.1454 21.3851 17.845 21.1911 17.5 21.1911C17.155 21.1911 16.8546 21.3851 16.7032 21.672L16.5291 22.0019L16.1727 21.892C15.5183 21.6903 14.9282 21.3437 14.4395 20.8901L14.1662 20.6365L14.3646 20.3209C14.5371 20.0464 14.5547 19.6895 14.3823 19.3909C14.2099 19.0922 13.8917 18.929 13.5676 18.9413L13.1944 18.9555L13.1117 18.5913C13.0385 18.2692 13 17.9344 13 17.5911C13 17.2477 13.0386 16.9127 13.1117 16.5905L13.1945 16.2264L13.5676 16.2405C13.8918 16.2528 14.2099 16.0896 14.3823 15.7909C14.5547 15.4924 14.5371 15.1356 14.3647 14.8611L14.1664 14.5455L14.4396 14.292C14.9283 13.8385 15.5184 13.4919 16.1727 13.2902L16.5291 13.1803ZM19.3 17.5908C19.3 18.5849 18.4941 19.3908 17.5 19.3908C16.5059 19.3908 15.7 18.5849 15.7 17.5908C15.7 16.5967 16.5059 15.7908 17.5 15.7908C18.4941 15.7908 19.3 16.5967 19.3 17.5908Z" fill="black"/>
</svg>
