<svg width="24" height="24" viewBox="0 0 24 24" fill="none" xmlns="http://www.w3.org/2000/svg">
<path fill-rule="evenodd" clip-rule="evenodd" d="M2 6C2 4.89543 2.89543 4 4 4H20C21.1046 4 22 4.89543 22 6V18C22 19.1046 21.1046 20 20 20H15H5H4C2.89543 20 2 19.1046 2 18V6ZM12.8333 18L12.4178 15.5068C12.1767 14.0602 10.9205 13 9.45396 13H8.54604C7.07952 13 5.82329 14.0602 5.5822 15.5068L5.16667 18H12.8333ZM18 10H14V8H18V10ZM18 14H14V12H18V14ZM11 10C11 11.1046 10.1046 12 9 12C7.89543 12 7 11.1046 7 10C7 8.89543 7.89543 8 9 8C10.1046 8 11 8.89543 11 10Z" fill="black"/>
</svg>
