<svg width="24" height="24" viewBox="0 0 24 24" fill="none" xmlns="http://www.w3.org/2000/svg">
<path fill-rule="evenodd" clip-rule="evenodd" d="M12.724 2.82826C14.1763 3.40982 14.8879 5.00628 14.76 6.56544C14.6427 7.99628 14.4985 9.59242 14.2362 10.7185C14.0119 11.6808 13.1687 12.3349 12.5 13V14.1822C11.8682 15.1325 11.5 16.2733 11.5 17.5C11.5 18.3922 11.6947 19.239 12.044 20H2V18.6031C2 17.3421 2.7886 16.2157 3.97351 15.7842L7.5 14.5V13C6.8311 12.3374 5.98646 11.6732 5.76527 10.7172C5.42236 9.23522 5.32069 7.69689 5.17549 6.18614C5.08214 5.21654 5.71311 4.41589 6.63576 4.10356C7.25488 3.89398 7.77783 3.5646 7.77783 2.95186C7.77783 2.44774 7.5 2.01097 7.5 2.01097C7.59877 2.01097 7.71061 2.00881 7.83485 2.00641C9.52892 2.00641 11.1346 2.19178 12.724 2.82826ZM22 17.5C22 19.9853 19.9853 22 17.5 22C15.0147 22 13 19.9853 13 17.5C13 15.0147 15.0147 13 17.5 13C19.9853 13 22 15.0147 22 17.5ZM16.75 16.75V15H18.25V16.75H20V18.25H18.25V20H16.75V18.25H15V16.75H16.75Z" fill="black"/>
</svg>
