<svg width="24" height="24" viewBox="0 0 24 24" fill="none" xmlns="http://www.w3.org/2000/svg">
<path fill-rule="evenodd" clip-rule="evenodd" d="M4 4C2.89543 4 2 4.89543 2 6V18C2 19.1046 2.89543 20 4 20H20C21.1046 20 22 19.1046 22 18V6C22 4.89543 21.1046 4 20 4H4ZM4 6L20 6V18H16.8388C16.6482 17.5736 16.3006 17.2349 15.8604 17.0788L13.6667 16.3007V15.1173L13.9277 14.9322C14.3005 14.6677 14.5932 14.29 14.6955 13.8252C14.883 12.9734 15.0346 11.7618 15.1532 10.7386C15.2612 9.807 14.8608 8.85291 14.0376 8.52002C12.5932 7.93591 11.3308 7.98707 10.64 8.01506C10.5198 8.01994 10.4169 8.02411 10.3333 8.02411C10.3333 8.02411 10.6111 8.28323 10.6111 8.61533C10.6111 9.07579 10.1384 9.34774 9.64485 9.52687C9.13077 9.71347 8.78625 10.2186 8.85309 10.7931C8.97072 11.8045 9.12027 12.9882 9.3044 13.8249C9.4067 14.2897 9.69949 14.6677 10.0723 14.9322L10.3333 15.1173V16.3007L8.13962 17.0788C7.69936 17.2349 7.3518 17.5736 7.16124 18H4V6Z" fill="black"/>
</svg>
