<svg width="24" height="24" viewBox="0 0 24 24" fill="none" xmlns="http://www.w3.org/2000/svg">
<path fill-rule="evenodd" clip-rule="evenodd" d="M5 3C3.89543 3 3 3.89543 3 5V19C3 20.1046 3.89543 21 5 21H19C20.1046 21 21 20.1046 21 19V5C21 3.89543 20.1046 3 19 3H5ZM5 5H19V19H17.8792C17.6744 18.4114 17.2229 17.9357 16.6325 17.7295L14 16.81V15.4114L14.3132 15.1926C14.7606 14.8801 15.1119 14.4337 15.2346 13.8843C15.4596 12.8777 15.6416 11.4457 15.7839 10.2365C15.9135 9.13555 15.4329 8.00799 14.4451 7.61457C12.7118 6.92426 11.197 6.98472 10.368 7.0178C10.2237 7.02356 10.1003 7.02849 10 7.02849C10 7.02849 10.3333 7.33472 10.3333 7.7272C10.3333 8.27138 9.76604 8.59278 9.17382 8.80448C8.55693 9.02501 8.1435 9.62192 8.2237 10.301C8.36486 11.4962 8.54432 12.8951 8.76528 13.884C8.88803 14.4333 9.23939 14.8801 9.6868 15.1926L10 15.4114V16.81L7.36754 17.7295C6.77712 17.9357 6.32564 18.4114 6.12079 19H5V5Z" fill="black"/>
</svg>
