<svg width="24" height="24" viewBox="0 0 24 24" fill="none" xmlns="http://www.w3.org/2000/svg">
<path fill-rule="evenodd" clip-rule="evenodd" d="M2 2H9.5L11.5 4H22V20C22 21.1046 21.1046 22 20 22H4C2.89543 22 2 21.1046 2 20V2ZM4 6V20H6.12079C6.32564 19.4114 6.77712 18.9357 7.36754 18.7295L10 17.81V16.4114L9.6868 16.1926C9.23939 15.8801 8.88803 15.4333 8.76528 14.884C8.54432 13.8951 8.36486 12.4962 8.2237 11.301C8.1435 10.6219 8.55693 10.025 9.17382 9.80448C9.76604 9.59278 10.3333 9.27138 10.3333 8.7272C10.3333 8.33472 10 8.02849 10 8.02849C10.1003 8.02849 10.2237 8.02356 10.368 8.0178C11.197 7.98472 12.7118 7.92426 14.4451 8.61457C15.4329 9.00799 15.9135 10.1355 15.7839 11.2365C15.6416 12.4457 15.4596 13.8777 15.2346 14.8843C15.1119 15.4337 14.7606 15.8801 14.3132 16.1926L14 16.4114V17.81L16.6325 18.7295C17.2229 18.9357 17.6744 19.4114 17.8792 20H20V6H4Z" fill="black"/>
</svg>
