<svg width="24" height="24" viewBox="0 0 24 24" fill="none" xmlns="http://www.w3.org/2000/svg">
<path fill-rule="evenodd" clip-rule="evenodd" d="M11.7839 7.2365C11.9135 6.13555 11.4329 5.00799 10.4451 4.61457C8.41024 3.80414 6.67641 4.02849 6 4.02849C6 4.02849 6.33333 4.33472 6.33333 4.7272C6.33333 5.27138 5.76604 5.59278 5.17382 5.80448C4.55693 6.02501 4.1435 6.62192 4.2237 7.30097C4.36486 8.49618 4.54432 9.89515 4.76528 10.884C4.92296 11.5896 5.43937 12.0198 6 12.4114V13.81L3.36754 14.7295C2.55086 15.0147 2 15.8156 2 16.7176V20H14V16.7176C14 15.8156 13.4491 15.0147 12.6325 14.7295L10 13.81V12.4114C10.5605 12.0198 11.077 11.5899 11.2346 10.8843C11.4596 9.87766 11.6416 8.44573 11.7839 7.2365ZM22 5H16V7H22V5ZM22 9H16V11H22V9ZM22 13H16V15H22V13ZM22 17H16V19H22V17Z" fill="black"/>
</svg>
