<svg width="24" height="24" viewBox="0 0 24 24" fill="none" xmlns="http://www.w3.org/2000/svg">
<path fill-rule="evenodd" clip-rule="evenodd" d="M12.724 2.82823C14.1763 3.40979 14.8879 5.00625 14.76 6.56541C14.6427 7.99625 14.4985 9.59239 14.2362 10.7185C14.0119 11.6808 13.1687 12.3348 12.5 13V14.1822C11.8682 15.1325 11.5 16.2733 11.5 17.5C11.5 18.3922 11.6947 19.2389 12.044 20H2V18.6031C2 17.342 2.7886 16.2156 3.97351 15.7842L7.5 14.5V13C6.8311 12.3373 5.98646 11.6731 5.76527 10.7172C5.42236 9.23519 5.32069 7.69686 5.17549 6.18611C5.08214 5.21651 5.71311 4.41586 6.63576 4.10353C7.25488 3.89395 7.77783 3.56457 7.77783 2.95183C7.77783 2.44771 7.5 2.01094 7.5 2.01094C8.37211 2.01094 10.2622 1.8424 12.724 2.82823ZM16.5291 13.1803C16.7436 13.5867 16.9718 13.9911 17.5 13.9911C18.0282 13.9911 18.2564 13.5867 18.4709 13.1803C19.3826 13.4614 20.1393 13.9012 20.8336 14.5455C20.5894 14.9343 20.3539 15.3339 20.6177 15.7909C20.8819 16.2485 21.3463 16.2438 21.8055 16.2264C21.9081 16.6781 22 17.1248 22 17.5911C22 18.0573 21.9082 18.5039 21.8056 18.9555C21.3464 18.9381 20.8819 18.9333 20.6177 19.3909C20.3538 19.848 20.5895 20.2477 20.8338 20.6365C20.1343 21.2857 19.3764 21.7227 18.4709 22.0019C18.2564 21.5956 18.0282 21.1911 17.5 21.1911C16.9718 21.1911 16.7436 21.5956 16.5291 22.0019C15.6173 21.7208 14.8606 21.2809 14.1662 20.6365C14.4105 20.2477 14.6462 19.848 14.3823 19.3909C14.1181 18.9333 13.6536 18.9381 13.1944 18.9555C13.0918 18.5039 13 18.0573 13 17.5911C13 17.1248 13.0919 16.6781 13.1945 16.2264C13.6537 16.2438 14.1182 16.2485 14.3823 15.7909C14.6462 15.3339 14.4106 14.9343 14.1664 14.5455C14.8659 13.8964 15.6237 13.4595 16.5291 13.1803ZM19.3 17.5908C19.3 18.5849 18.4941 19.3908 17.5 19.3908C16.5059 19.3908 15.7 18.5849 15.7 17.5908C15.7 16.5967 16.5059 15.7908 17.5 15.7908C18.4941 15.7908 19.3 16.5967 19.3 17.5908Z" fill="black"/>
</svg>
