<svg width="24" height="24" viewBox="0 0 24 24" fill="none" xmlns="http://www.w3.org/2000/svg">
<path fill-rule="evenodd" clip-rule="evenodd" d="M7 7C7 8.65685 8.34315 10 10 10C11.6569 10 13 8.65685 13 7C13 5.34315 11.6569 4 10 4C8.34315 4 7 5.34315 7 7ZM10 2C7.23858 2 5 4.23858 5 7C5 9.76142 7.23858 12 10 12C12.7614 12 15 9.76142 15 7C15 4.23858 12.7614 2 10 2ZM10.863 13.0324C10.6756 13.011 10.4852 13 10.2926 13H8.30043C6.05439 13 4.08398 14.4977 3.48284 16.6618L2 22H13.5313C12.9058 21.448 12.3963 20.7675 12.044 20C11.6947 19.2389 11.5 18.3922 11.5 17.5C11.5 16.693 11.6593 15.9232 11.9483 15.2203C12.1748 14.6692 12.481 14.1592 12.8526 13.7048C12.2558 13.3486 11.5805 13.1142 10.863 13.0324ZM9.89882 20C9.64014 19.2134 9.5 18.3729 9.5 17.5C9.5 16.6277 9.64013 15.787 9.89893 15H8.30043C6.95281 15 5.77056 15.8986 5.40987 17.1971L4.63128 20H9.89882ZM22 17.5C22 19.9853 19.9853 22 17.5 22C15.0147 22 13 19.9853 13 17.5C13 15.0147 15.0147 13 17.5 13C19.9853 13 22 15.0147 22 17.5ZM16.75 16.75V15H18.25V16.75H20V18.25H18.25V20H16.75V18.25H15V16.75H16.75Z" fill="black"/>
</svg>
