<svg width="24" height="24" viewBox="0 0 24 24" fill="none" xmlns="http://www.w3.org/2000/svg">
<path fill-rule="evenodd" clip-rule="evenodd" d="M5 7C5 4.23858 7.23858 2 10 2C12.7614 2 15 4.23858 15 7C15 9.76142 12.7614 12 10 12C7.23858 12 5 9.76142 5 7ZM13.3321 13.1839C12.9018 13.0638 12.45 13 11.986 13H8.01401C5.67052 13 3.6383 14.6277 3.12992 16.9153L2 22H13.5313C12.2856 20.9006 11.5 19.292 11.5 17.5C11.5 15.8055 12.2025 14.275 13.3321 13.1839ZM22 17.5C22 15.0147 19.9853 13 17.5 13C15.0147 13 13 15.0147 13 17.5C13 19.9853 15.0147 22 17.5 22C19.9853 22 22 19.9853 22 17.5ZM17 18.2929V15H18V18.2929L19.1464 17.1464L19.8536 17.8536L17.8536 19.8536L17.5 20.2071L17.1464 19.8536L15.1464 17.8536L15.8536 17.1464L17 18.2929Z" fill="black"/>
</svg>
