<svg width="24" height="24" viewBox="0 0 24 24" fill="none" xmlns="http://www.w3.org/2000/svg">
<path fill-rule="evenodd" clip-rule="evenodd" d="M4 4C2.89543 4 2 4.89543 2 6V18C2 19.1046 2.89543 20 4 20H20C21.1046 20 22 19.1046 22 18V6C22 4.89543 21.1046 4 20 4H4ZM8 6L20 6V18H18.8388C18.6482 17.5736 18.3006 17.2349 17.8604 17.0788L15.6667 16.3007V15.1173L15.9277 14.9322C16.3005 14.6677 16.5932 14.29 16.6955 13.8252C16.883 12.9734 17.0346 11.7618 17.1532 10.7386C17.2612 9.807 16.8608 8.85291 16.0376 8.52002C14.5932 7.93591 13.3308 7.98707 12.64 8.01506C12.5198 8.01994 12.4169 8.02411 12.3333 8.02411C12.3333 8.02411 12.6111 8.28323 12.6111 8.61533C12.6111 9.07579 12.1384 9.34774 11.6448 9.52687C11.1308 9.71347 10.7863 10.2186 10.8531 10.7931C10.9707 11.8045 11.1203 12.9882 11.3044 13.8249C11.4067 14.2897 11.6995 14.6677 12.0723 14.9322L12.3333 15.1173V16.3007L10.1396 17.0788C9.69936 17.2349 9.3518 17.5736 9.16124 18H8V6ZM4 7V9H6V7H4ZM4 11V13H6V11H4ZM4 15V17H6V15H4Z" fill="black"/>
</svg>
