<svg width="24" height="24" viewBox="0 0 24 24" fill="none" xmlns="http://www.w3.org/2000/svg">
<path fill-rule="evenodd" clip-rule="evenodd" d="M12.724 2.82823C14.1763 3.40979 14.8879 5.00625 14.76 6.56541C14.6427 7.99625 14.4985 9.59239 14.2362 10.7185C14.0136 11.6736 13.1687 12.3375 12.5 13V14.1822C11.8682 15.1325 11.5 16.2733 11.5 17.5C11.5 18.3922 11.6947 19.2389 12.044 20H2V18.6031C2 17.342 2.7886 16.2156 3.97351 15.7842L7.5 14.5V13C6.8311 12.3373 5.98646 11.6731 5.76527 10.7172C5.42236 9.23519 5.32069 7.69686 5.17549 6.18611C5.08214 5.21651 5.71311 4.41586 6.63576 4.10353C7.25488 3.89395 7.77783 3.56457 7.77783 2.95183C7.77783 2.44771 7.5 2.01094 7.5 2.01094C8.37211 2.01094 10.2622 1.8424 12.724 2.82823ZM22 17.5C22 19.9853 19.9853 22 17.5 22C15.0147 22 13 19.9853 13 17.5C13 15.0147 15.0147 13 17.5 13C19.9853 13 22 15.0147 22 17.5ZM20.0303 16.5303L17 19.5607L14.9697 17.5303L16.0303 16.4697L17 17.4393L18.9697 15.4697L20.0303 16.5303Z" fill="black"/>
</svg>
