<svg width="24" height="24" viewBox="0 0 24 24" fill="none" xmlns="http://www.w3.org/2000/svg">
<path fill-rule="evenodd" clip-rule="evenodd" d="M14.76 6.56541C14.8879 5.00625 14.1763 3.40979 12.724 2.82823C10.541 1.95406 8.8076 1.98757 7.83487 2.00638C7.71062 2.00878 7.59878 2.01094 7.5 2.01094C7.5 2.01094 7.77783 2.44771 7.77783 2.95183C7.77783 3.56457 7.25488 3.89395 6.63576 4.10353C5.71311 4.41586 5.08214 5.21651 5.17549 6.18611L5.19643 6.40404C5.34119 7.91135 5.50094 9.57479 5.76527 10.7172C5.88771 11.2464 6.19812 11.7033 6.58228 12.0872L7 12.5047L7.5 13V14.5L3.97351 15.7842C2.7886 16.2156 2 17.342 2 18.6031V20H12.5V17.5C12.5 16.9477 12.9477 16.5 13.5 16.5Lnan nanL13.5 16.5V16.0243C13.5 15.671 13.5465 15.3275 13.6339 15L12.5 14.5V13L13 12.5047L13.4177 12.0872C13.8019 11.7033 14.1129 11.2474 14.2362 10.7185C14.4985 9.59239 14.6427 7.99625 14.76 6.56541ZM14 22V18H15V16C15 14.3431 16.3431 13 18 13C19.6569 13 21 14.3431 21 16V18H22V22H14ZM17 16C17 15.4477 17.4477 15 18 15C18.5523 15 19 15.4477 19 16V18H17V16Z" fill="black"/>
</svg>
