<svg width="24" height="24" viewBox="0 0 24 24" fill="none" xmlns="http://www.w3.org/2000/svg">
<path fill-rule="evenodd" clip-rule="evenodd" d="M2 6C2 4.89543 2.89543 4 4 4H20C21.1046 4 22 4.89543 22 6V18C22 19.1046 21.1046 20 20 20H4C2.89543 20 2 19.1046 2 18V6ZM18 10H14V8H18V10ZM18 14H15V12H18V14ZM11.5226 9.31179C11.609 8.52539 11.2886 7.71999 10.6301 7.43898C9.47455 6.9459 8.46465 6.98908 7.91199 7.01272C7.81582 7.01683 7.7335 7.02035 7.66667 7.02035C7.66667 7.02035 7.88889 7.23909 7.88889 7.51943C7.88889 7.90813 7.51069 8.1377 7.11588 8.28892C6.70462 8.44643 6.429 8.8728 6.48247 9.35783C6.57658 10.2116 6.69621 11.2108 6.84352 11.9171C6.92536 12.3095 7.1596 12.6286 7.45787 12.8519L7.66667 13.0081V14.0071L5.9117 14.6639C5.51595 14.812 5.21384 15.1547 5.07832 15.5783C4.93083 16.0393 4.82775 16.5264 4.72484 17.0128C4.65452 17.3451 4.58427 17.6771 4.5 18H13.5C13.4157 17.6771 13.3455 17.3451 13.2752 17.0128C13.1723 16.5264 13.0692 16.0393 12.9217 15.5783C12.7862 15.1547 12.484 14.812 12.0883 14.6639L10.3333 14.0071V13.0081L10.5421 12.8519C10.8404 12.6286 11.0746 12.3098 11.1564 11.9174C11.3064 11.1983 11.4277 10.1755 11.5226 9.31179Z" fill="black"/>
</svg>
