<svg width="24" height="24" viewBox="0 0 24 24" fill="none" xmlns="http://www.w3.org/2000/svg">
<path fill-rule="evenodd" clip-rule="evenodd" d="M7 13.5076L3.82339 14.9026C2.73448 15.2694 2 16.2991 2 17.4589V20.0076H12.0476C11.7632 19.3903 11.5806 18.7165 11.5212 18.0076H4V17.4589C4 17.1466 4.19693 16.8872 4.46178 16.798L9 14.8137V11.6791C8.63911 11.3183 7.83533 10.7937 7.71393 10.2688C7.39488 8.88928 7.30643 7.45112 7.17123 6.04523C7.66646 5.68877 8.28679 5.5952 8.77007 5.16397C9.08906 4.87932 9.37108 4.51298 9.55505 4.07204C10.248 4.1547 11.0517 4.32921 11.9646 4.69022C12.3839 4.85601 12.844 5.45944 12.7653 6.41871C12.6453 7.88168 12.5098 9.31537 12.2882 10.2671C12.1658 10.7926 11.3615 11.3176 11 11.6791V14.8137L11.9448 15.2286C12.2038 14.5958 12.5678 14.0172 13.0151 13.5142L13 13.5076V12.5076C13.5213 11.9864 14.062 11.4683 14.2361 10.7207C14.4975 9.59834 14.6415 8.00956 14.7586 6.58223C14.8873 5.01337 14.1639 3.40925 12.7001 2.83037C11.5484 2.3749 10.5225 2.1659 9.6683 2.07229C8.70535 1.96676 7.96067 2.00789 7.5 2.00789C7.5 2.00789 7.77778 2.43798 7.77778 2.9426C7.77778 3.55638 7.25409 3.88765 6.63441 4.09889C5.7127 4.41308 5.08203 5.21415 5.1753 6.18345C5.32057 7.69584 5.42224 9.23581 5.76536 10.7195C5.93843 11.4678 6.47846 11.9861 7 12.5076V13.5076ZM22 17.5C22 19.9853 19.9853 22 17.5 22C15.0147 22 13 19.9853 13 17.5C13 15.0147 15.0147 13 17.5 13C19.9853 13 22 15.0147 22 17.5ZM20 18.25H15V16.75H20V18.25Z" fill="black"/>
</svg>
