<svg width="24" height="24" viewBox="0 0 24 24" fill="none" xmlns="http://www.w3.org/2000/svg">
<path fill-rule="evenodd" clip-rule="evenodd" d="M9 7C9 8.65685 10.3431 10 12 10C13.6569 10 15 8.65685 15 7C15 6.648 14.9394 6.31016 14.828 5.99635C13.7028 5.94865 12.6979 5.43611 12.0003 4.64582C11.3027 5.43627 10.2975 5.94887 9.17199 5.99638C9.06062 6.31018 9 6.64801 9 7ZM16.7943 5.57611C16.9282 6.02738 17 6.5053 17 7C17 9.76142 14.7614 12 12 12C9.23858 12 7 9.76142 7 7C7 4.23858 9.23858 2 12 2C14.2667 2 16.1811 3.50844 16.7943 5.57611C16.7942 5.57616 16.7944 5.57606 16.7943 5.57611ZM4 22H6.07573H17.9243H20L19.4444 20L18.5172 16.6618C17.916 14.4977 15.9456 13 13.6996 13H10.3004C8.05439 13 6.08398 14.4977 5.48284 16.6618L4.55556 20L4 22ZM17.3687 20L16.5901 17.1971C16.2294 15.8986 15.0472 15 13.6996 15H10.3004C8.95281 15 7.77056 15.8986 7.40987 17.1971L6.63128 20H17.3687Z" fill="black"/>
</svg>
