<svg width="24" height="24" viewBox="0 0 24 24" fill="none" xmlns="http://www.w3.org/2000/svg">
<path fill-rule="evenodd" clip-rule="evenodd" d="M2 2V20C2 21.1046 2.89543 22 4 22H20C21.1046 22 22 21.1046 22 20V4H11.5L9.5 2H2ZM4 20V6H20V20H16.8214L16.5173 18.2968C16.1766 16.3891 14.5175 15 12.5796 15H11.4204C9.48253 15 7.82337 16.3891 7.48271 18.2968L7.17857 20H4ZM12 14C13.6569 14 15 12.6569 15 11C15 9.34315 13.6569 8 12 8C10.3431 8 9 9.34315 9 11C9 12.6569 10.3431 14 12 14Z" fill="black"/>
</svg>
