<svg width="24" height="24" viewBox="0 0 24 24" fill="none" xmlns="http://www.w3.org/2000/svg">
<path fill-rule="evenodd" clip-rule="evenodd" d="M4 2C2.89543 2 2 2.89543 2 4V9H4V4H9V2H4ZM15 4H20V9H22V4C22 2.89543 21.1046 2 20 2H15V4ZM4 20V15H2V20C2 21.1046 2.89543 22 4 22H9V20H4ZM20 15V20H15V22H20C21.1046 22 22 21.1046 22 20V15H20ZM15.7839 8.2365C15.9135 7.13555 15.4329 6.00799 14.4451 5.61457C12.7118 4.92426 11.197 4.98472 10.368 5.0178C10.2237 5.02356 10.1003 5.02849 10 5.02849C10 5.02849 10.3333 5.33472 10.3333 5.7272C10.3333 6.27138 9.76604 6.59278 9.17382 6.80448C8.55693 7.02501 8.1435 7.62192 8.2237 8.30097C8.36486 9.49618 8.54432 10.8951 8.76528 11.884C8.88803 12.4333 9.23939 12.8801 9.6868 13.1926L10 13.4114V14.81L7.36754 15.7295C6.55086 16.0147 6 16.8156 6 17.7176V18H18V17.7176C18 16.8156 17.4491 16.0147 16.6325 15.7295L14 14.81V13.4114L14.3132 13.1926C14.7606 12.8801 15.1119 12.4337 15.2346 11.8843C15.4596 10.8777 15.6416 9.44573 15.7839 8.2365Z" fill="black"/>
</svg>
