<svg width="24" height="24" viewBox="0 0 24 24" fill="none" xmlns="http://www.w3.org/2000/svg">
<path fill-rule="evenodd" clip-rule="evenodd" d="M12 4C7.58172 4 4 7.58172 4 12C4 14.0094 4.74082 15.8458 5.96424 17.2509L5.98048 17.2265C6.90781 15.8355 8.46897 15 10.1407 15H13.8593C15.531 15 17.0922 15.8355 18.0195 17.2265L18.0358 17.2509C19.2592 15.8458 20 14.0094 20 12C20 7.58172 16.4183 4 12 4ZM12 20C10.319 20 8.75902 19.4815 7.47137 18.5957C8.09243 17.6641 8.97065 17 10.1407 17H13.8593C15.0293 17 15.9076 17.6641 16.5286 18.5957C15.241 19.4815 13.681 20 12 20ZM2 12C2 6.47715 6.47715 2 12 2C17.5228 2 22 6.47715 22 12C22 17.5228 17.5228 22 12 22C6.47715 22 2 17.5228 2 12ZM12 12C10.8954 12 10 11.1046 10 10C10 8.89543 10.8954 8 12 8C13.1046 8 14 8.89543 14 10C14 11.1046 13.1046 12 12 12ZM8 10C8 7.79086 9.79086 6 12 6C14.2091 6 16 7.79086 16 10C16 12.2091 14.2091 14 12 14C9.79086 14 8 12.2091 8 10Z" fill="black"/>
</svg>
