<svg width="24" height="24" viewBox="0 0 24 24" fill="none" xmlns="http://www.w3.org/2000/svg">
<path fill-rule="evenodd" clip-rule="evenodd" d="M8 3C6.89543 3 6 3.89543 6 5V19C6 20.1046 6.89543 21 8 21H16C17.1046 21 18 20.1046 18 19V5C18 3.89543 17.1046 3 16 3H8ZM10 5H8V19H16V5H14L13 6H11L10 5ZM11 17C11 16.4477 11.4477 16 12 16C12.5523 16 13 16.4477 13 17C13 17.5523 12.5523 18 12 18C11.4477 18 11 17.5523 11 17ZM19.169 8.44503C19.7006 9.5148 20 10.721 20 12C20 13.279 19.7006 14.4852 19.169 15.555L20.96 16.445C21.626 15.1049 22 13.5947 22 12C22 10.4053 21.626 8.89511 20.96 7.55497L19.169 8.44503ZM4 12C4 10.721 4.2994 9.5148 4.83103 8.44503L3.04001 7.55497C2.37401 8.89511 2 10.4053 2 12C2 13.5947 2.37401 15.1049 3.04001 16.445L4.83103 15.555C4.2994 14.4852 4 13.279 4 12Z" fill="black"/>
</svg>
