<svg width="25" height="24" viewBox="0 0 25 24" fill="none" xmlns="http://www.w3.org/2000/svg">
<path fill-rule="evenodd" clip-rule="evenodd" d="M6.02002 5C6.02002 3.89543 6.91545 3 8.02002 3H16.02C17.1246 3 18.02 3.89543 18.02 5V19C18.02 20.1046 17.1246 21 16.02 21H8.02002C6.91545 21 6.02002 20.1046 6.02002 19V5ZM11.02 17C11.02 16.4477 11.4677 16 12.02 16C12.5723 16 13.02 16.4477 13.02 17C13.02 17.5523 12.5723 18 12.02 18C11.4677 18 11.02 17.5523 11.02 17ZM19.189 8.44503C19.7206 9.5148 20.02 10.721 20.02 12C20.02 13.279 19.7206 14.4852 19.189 15.555L20.98 16.445C21.646 15.1049 22.02 13.5947 22.02 12C22.02 10.4053 21.646 8.89511 20.98 7.55497L19.189 8.44503ZM4.02002 12C4.02002 10.721 4.31942 9.5148 4.85105 8.44503L3.06002 7.55497C2.39403 8.89511 2.02002 10.4053 2.02002 12C2.02002 13.5947 2.39403 15.1049 3.06002 16.445L4.85105 15.555C4.31942 14.4852 4.02002 13.279 4.02002 12Z" fill="black"/>
</svg>
