<svg width="24" height="24" viewBox="0 0 24 24" fill="none" xmlns="http://www.w3.org/2000/svg">
<path fill-rule="evenodd" clip-rule="evenodd" d="M7 2C5.89543 2 5 2.89543 5 4V10H7V4H9L10 5H14L15 4H17V10H19V4C19 2.89543 18.1046 2 17 2H7ZM5 16V20C5 21.1046 5.89543 22 7 22H17C18.1046 22 19 21.1046 19 20V16H17V20H7V16H5ZM3.52666 9.47266C3.52666 9.47266 3.15832 10.6954 4.0729 11.5005C4.11412 11.5367 4.17298 11.5826 4.25621 11.6372C4.58918 11.8559 5.13708 12.0913 5.90368 12.3042C7.33507 12.7018 9.33161 12.9679 11.5831 12.9973L10.2929 11.7071L11.7071 10.2929L15.4142 14L11.7071 17.7071L10.2929 16.2929L11.5883 14.9975C9.19911 14.9685 7.01261 14.688 5.3684 14.2313C4.50632 13.9918 3.7362 13.6885 3.15832 13.309C2.62116 12.9562 2 12.366 2 11.5C2 10.9819 2.23056 10.555 2.51182 10.2375C2.78751 9.92627 3.14727 9.67652 3.52666 9.47266ZM20.4733 9.47266C20.4733 9.47266 21 10.5478 19.9266 11.5C19.8359 11.5804 19.685 11.6861 19.4511 11.8051C18.8724 12.0994 17.9768 12.3802 16.8172 12.5958L17.1828 14.5621C18.4352 14.3293 19.5395 14.004 20.3579 13.5876C20.7659 13.3801 21.1511 13.1259 21.4463 12.8086C21.7463 12.4862 22 12.0441 22 11.5C22 10.9819 21.7694 10.555 21.4882 10.2375C21.2125 9.92627 20.8527 9.67652 20.4733 9.47266Z" fill="black"/>
</svg>
