<svg width="24" height="24" viewBox="0 0 24 24" fill="none" xmlns="http://www.w3.org/2000/svg">
<path fill-rule="evenodd" clip-rule="evenodd" d="M21.5906 14.9827C21.7925 14.3398 21.9314 13.6691 22 12.9777H12.44L5.68035 19.7374C6.20742 20.1687 6.77922 20.5474 7.38773 20.8654C8.7744 21.5902 10.3517 22 12.0247 22C16.5135 22 20.3131 19.0498 21.5906 14.9827ZM19.462 14.9827H13.2705L8.8923 19.3608C9.85409 19.7693 10.9122 19.9951 12.0247 19.9951C15.39 19.9951 18.2725 17.9213 19.462 14.9827ZM11.0223 11.56L4.26264 18.3196C3.83133 17.7926 3.45264 17.2208 3.13459 16.6123C2.40984 15.2256 2 13.6483 2 11.9753C2 7.48653 4.95018 3.68686 9.01732 2.40944C9.66015 2.20754 10.3309 2.06865 11.0223 2V11.56ZM9.01732 10.7295L4.63916 15.1077C4.23066 14.1459 4.00495 13.0878 4.00495 11.9753C4.00495 8.61002 6.07871 5.72751 9.01732 4.53796V10.7295ZM15.0322 4.5381V8.96783H19.4619C18.6481 6.95784 17.0422 5.35191 15.0322 4.5381ZM13.0272 2C13.7186 2.06865 14.3893 2.20754 15.0322 2.40944C18.1499 3.38867 20.6113 5.85006 21.5906 8.96783C21.7925 9.61065 21.9314 10.2814 22 10.9728H13.0272V2Z" fill="black"/>
</svg>
