<svg width="24" height="24" viewBox="0 0 24 24" fill="none" xmlns="http://www.w3.org/2000/svg">
<path d="M22 12.9777H12.44L5.68035 19.7374C7.40849 21.1515 9.61754 22 12.0247 22C17.2229 22 21.497 18.0436 22 12.9777ZM4.26264 18.3196C2.84846 16.5915 2 14.3825 2 11.9753C2 6.77707 5.95644 2.50297 11.0223 2V11.56L4.26264 18.3196ZM13.0272 2V10.9728H22C21.5298 6.23667 17.7633 2.47023 13.0272 2Z" fill="black"/>
<path d="M22 12.9777H12.44L5.68035 19.7374C7.40849 21.1515 9.61754 22 12.0247 22C17.2229 22 21.497 18.0436 22 12.9777ZM4.26264 18.3196C2.84846 16.5915 2 14.3825 2 11.9753C2 6.77707 5.95644 2.50297 11.0223 2V11.56L4.26264 18.3196ZM13.0272 2V10.9728H22C21.5298 6.23667 17.7633 2.47023 13.0272 2Z" stroke="black"/>
</svg>
