<svg width="24" height="24" viewBox="0 0 24 24" fill="none" xmlns="http://www.w3.org/2000/svg">
<path fill-rule="evenodd" clip-rule="evenodd" d="M13.5 5.5C13.5 7.70914 11.7091 9.5 9.5 9.5C7.70308 9.5 6.1829 8.31512 5.67815 6.68405C4.79545 7.58575 4.26097 8.76371 4.07472 10H3C2.44772 10 2 10.4477 2 11C2 11.5523 2.44772 12 3 12H4.06187C4.10431 12.3404 4.16814 12.6742 4.25197 13C4.96193 15.7587 5.49892 18.0068 5.5 21H10V19.0002L13 19V21H17.5V18L18 17.7455C19.2837 16.8501 20.2533 15.5354 20.7102 14L22 14V9H20.3791C19.8831 7.91364 19.0901 7.00059 18 6.40224V3L16 3.00006C15.0991 3.00002 14.0192 3.23867 13.0828 3.71933C13.3498 4.25559 13.5 4.86026 13.5 5.5ZM9.5 8C8.18417 8 7.10577 6.98344 7.00733 5.69283C7.00247 5.62919 7 5.56488 7 5.5C7 4.11929 8.11929 3 9.5 3C10.5676 3 11.4789 3.66918 11.8373 4.61097C11.9424 4.88719 12 5.18687 12 5.5C12 6.88071 10.8807 8 9.5 8ZM15 11C15.5523 11 16 10.5523 16 9.99998C16 9.4477 15.5523 8.99998 15 8.99998C14.4477 8.99998 14 9.4477 14 9.99998C14 10.5523 14.4477 11 15 11Z" fill="black"/>
</svg>
