<svg width="24" height="24" viewBox="0 0 24 24" fill="none" xmlns="http://www.w3.org/2000/svg">
<path fill-rule="evenodd" clip-rule="evenodd" d="M12.9763 6.37906C13.8582 5.34241 14.9095 5.08468 15.9999 5.02086V7.61802L16.5527 7.89442C17.3917 8.3139 17.9727 8.88025 18.3316 9.50069L18.6204 9.99996H19.9994L19.9999 13L18.3202 13L18.2058 13.8695C18.0667 14.9265 17.2865 15.6789 16.4992 16.1344L15.9999 16.4232V19H13.9999V17H8.99991V19H6.99991V17C6.99991 15.1037 5.99988 13.4006 5.99988 11.5C5.99988 9.70484 6.55646 8.39686 7.50917 7.6726C8.04788 8.47325 8.96243 8.99999 10 8.99999C11.5285 8.99999 12.7899 7.85696 12.9763 6.37906ZM10.9999 5.98746C10.9998 5.99556 10.9998 6.00365 10.9999 6.01174C10.9936 6.55861 10.5484 6.99999 10 6.99999C9.44772 6.99999 9 6.55227 9 5.99999C9 5.4477 9.44772 4.99999 10 4.99999C10.5481 4.99999 10.9932 5.44095 10.9999 5.98746ZM12.3938 4.19151C13.9787 2.99924 15.7612 2.99968 16.9448 2.99998L17.9999 2.99999V6.41323C18.7061 6.84927 19.2889 7.38689 19.7371 7.99996H21.9999V15L19.9865 15C19.5878 16.1739 18.7629 17.0058 17.9999 17.5455V21H11.9999V19H10.9999V21H4.99991V17C4.99991 15.2944 4.09866 13.715 4.01231 12H3C2.44772 12 2 11.5523 2 11C2 10.4477 2.44772 9.99999 3 9.99999H4.11855C4.42845 8.11207 5.35589 6.47701 7.02398 5.61886C7.21123 4.14196 8.47225 2.99999 10 2.99999C10.9777 2.99999 11.8461 3.46766 12.3938 4.19151ZM16 9.99999C16 10.5523 15.5523 11 15 11C14.4477 11 14 10.5523 14 9.99999C14 9.4477 14.4477 8.99999 15 8.99999C15.5523 8.99999 16 9.4477 16 9.99999Z" fill="black"/>
</svg>
