<svg width="24" height="24" viewBox="0 0 24 24" fill="none" xmlns="http://www.w3.org/2000/svg">
<path fill-rule="evenodd" clip-rule="evenodd" d="M12 4C10.3431 4 9 5.34315 9 7C9 8.65685 10.3431 10 12 10C13.6569 10 15 8.65685 15 7C15 5.34315 13.6569 4 12 4ZM7 7C7 4.23858 9.23858 2 12 2C14.7614 2 17 4.23858 17 7C17 9.41896 15.2822 11.4367 13 11.9V14.705C13.7715 14.8762 14.4674 15 15.1111 15C15.9828 15 16.8003 14.8207 17.3629 14.5487C17.9809 14.2499 18 14.007 18 14H20V19C20 20.1903 19.0647 20.9474 18.2333 21.3493C17.3465 21.778 16.2196 22 15.1111 22C14.0033 22 12.845 21.727 11.8248 21.4866L11.7684 21.4734C10.6791 21.2168 9.73758 21 8.88889 21C8.01874 21 7.20091 21.1775 6.6378 21.4485C6.02081 21.7454 6 21.9882 6 22H4V17C4 15.8048 4.93659 15.0476 5.77051 14.6463C6.65832 14.219 7.78493 14 8.88889 14C9.58774 14 10.3074 14.1092 11 14.2503V11.9C8.71776 11.4367 7 9.41896 7 7ZM11 16.296V18H13V16.7505C13.6922 16.8912 14.4117 17 15.1111 17C16.1245 17 17.1533 16.8145 18 16.4551V19C18 19.007 17.9809 19.2499 17.3629 19.5487C16.8003 19.8207 15.9828 20 15.1111 20C14.2592 20 13.3158 19.7831 12.227 19.5266L12.1664 19.5123C11.1478 19.2723 9.99234 19 8.88889 19C7.87801 19 6.84813 19.1837 6 19.5427V17C6 16.9882 6.02081 16.7454 6.6378 16.4485C7.20091 16.1775 8.01874 16 8.88889 16C9.53142 16 10.2272 16.1242 11 16.296ZM12 8C12.5523 8 13 7.55228 13 7C13 6.44772 12.5523 6 12 6C11.4477 6 11 6.44772 11 7C11 7.55228 11.4477 8 12 8Z" fill="black"/>
</svg>
