<svg width="24" height="24" viewBox="0 0 24 24" fill="none" xmlns="http://www.w3.org/2000/svg">
<path fill-rule="evenodd" clip-rule="evenodd" d="M13 11.9C15.2822 11.4367 17 9.41896 17 7C17 4.23858 14.7614 2 12 2C9.23858 2 7 4.23858 7 7C7 9.41896 8.71776 11.4367 11 11.9V14.2503C10.3074 14.1092 9.58774 14 8.88889 14C7.78493 14 6.65832 14.219 5.77051 14.6463C4.93659 15.0476 4 15.8048 4 17V22H6C6 21.9882 6.02081 21.7454 6.6378 21.4485C7.20091 21.1775 8.01874 21 8.88889 21C9.73758 21 10.6791 21.2168 11.7684 21.4734L11.8248 21.4866C12.845 21.727 14.0033 22 15.1111 22C16.2196 22 17.3465 21.778 18.2333 21.3493C19.0647 20.9474 20 20.1903 20 19V14H18C18 14.007 17.9809 14.2499 17.3629 14.5487C16.8003 14.8207 15.9828 15 15.1111 15C14.4674 15 13.7715 14.8762 13 14.705V11.9ZM13 7C13 7.55228 12.5523 8 12 8C11.4477 8 11 7.55228 11 7C11 6.44772 11.4477 6 12 6C12.5523 6 13 6.44772 13 7ZM11 18V16.296C10.2272 16.1242 9.53142 16 8.88889 16C8.01874 16 7.20091 16.1775 6.6378 16.4485C6.02081 16.7454 6 16.9882 6 17V19.5427C6.84813 19.1837 7.87801 19 8.88889 19C9.99234 19 11.1478 19.2723 12.1664 19.5123L12.227 19.5266C13.3158 19.7831 14.2592 20 15.1111 20C15.9828 20 16.8003 19.8207 17.3629 19.5487C17.9809 19.2499 18 19.007 18 19V16.4551C17.1533 16.8145 16.1245 17 15.1111 17C14.4117 17 13.6922 16.8912 13 16.7505V18H11Z" fill="black"/>
</svg>
