<svg width="24" height="24" viewBox="0 0 24 24" fill="none" xmlns="http://www.w3.org/2000/svg">
<path fill-rule="evenodd" clip-rule="evenodd" d="M20.9573 10.3969C19.9982 11.3561 18.5478 11.5247 17.4159 10.9028C16.7703 11.5544 16.1954 12.3418 15.9702 13.2425C15.5964 14.7375 16.2173 17.3768 16.74 18.8459L14.5858 21L9.50003 15.9142L4.70712 20.7071L3 21L3.29291 19.2929L8.08581 14.5L3 9.41418L5.15414 7.26005C6.62276 7.78299 9.26287 8.40351 10.7575 8.02986C11.6582 7.80468 12.4456 7.22976 13.0972 6.58414C12.4753 5.45226 12.6439 4.00187 13.6031 3.04268L13.7729 2.87283C14.9367 1.70906 16.8236 1.70906 17.9873 2.87283L21.1272 6.01271C22.291 7.17648 22.291 9.06332 21.1272 10.2271L20.9573 10.3969Z" fill="black"/>
</svg>
