<svg width="24" height="24" viewBox="0 0 24 24" fill="none" xmlns="http://www.w3.org/2000/svg">
<path fill-rule="evenodd" clip-rule="evenodd" d="M11.1453 2.88361C12.3234 1.70548 14.2335 1.70546 15.4117 2.88358L21.1165 8.58829C22.2947 9.76642 22.2947 11.6766 21.1166 12.8547C20.1957 13.7756 18.8274 13.9767 17.7111 13.458C17.3088 13.9422 16.9828 14.459 16.7701 15.0311C16.4727 15.8307 16.3726 16.388 16.6832 17.6301L16.8206 18.1794L15 20L10.205 15.2092L4.41423 21L3 19.5858L8.79081 13.795L4 9.10457L5.82057 7.284L6.36988 7.42136C7.61206 7.73197 8.16933 7.5273 8.96895 7.22997C9.54107 7.01723 10.0579 6.69125 10.5421 6.28899C10.0233 5.17277 10.2243 3.80456 11.1453 2.88361ZM13.9975 4.29781C13.6004 3.90072 12.9566 3.90073 12.5595 4.29782C12.1624 4.69489 12.1624 5.33876 12.5595 5.73589L13.2666 6.443L12.5595 7.15011C11.7901 7.91952 10.85 8.6643 9.666 9.10457C8.8375 9.41264 8.33526 9.66444 7.3176 9.59374L14.5108 16.6824C14.4401 15.6647 14.5874 15.1625 14.8955 14.334C15.3358 13.15 16.0806 12.21 16.85 11.4406L17.5571 10.7335L18.2642 11.4406C18.6612 11.8376 19.3052 11.8376 19.7024 11.4405C20.0995 11.0434 20.0995 10.3996 19.7024 10.0025L13.9975 4.29781Z" fill="black"/>
</svg>
