<svg width="24" height="24" viewBox="0 0 24 24" fill="none" xmlns="http://www.w3.org/2000/svg">
<path fill-rule="evenodd" clip-rule="evenodd" d="M16.0001 2.00049L7.99988 2.0006C6.34309 2.00063 5 3.34374 5 5.00053C5 6.29457 5.81936 7.3972 6.96752 7.81806C6.83296 9.43771 6.24146 11.0893 4.48555 12.1428L4 12.4341V15.0003H11V22H13V15.0003H20L20 12.4341L19.5145 12.1428C17.7585 11.0893 17.167 9.4377 17.0325 7.81804C18.1807 7.39713 19 6.29436 19 5.00039C19 3.34357 17.6569 2.00046 16.0001 2.00049ZM7.99991 4.0006L16.0001 4.00049C16.5523 4.00048 17 4.44815 17 5.00039C17 5.55266 16.5522 6.00046 16 6.00046L15 6.00046V7.00046C15 8.8233 15.3911 11.2334 17.3278 13.0003H6.67215C8.60893 11.2334 9 8.8233 9 7.00046V6.00046L8 6.00046C7.44771 6.00046 7 5.55273 7 5.00053C7 4.44829 7.44767 4.00061 7.99991 4.0006Z" fill="black"/>
</svg>
