<svg width="24" height="24" viewBox="0 0 24 24" fill="none" xmlns="http://www.w3.org/2000/svg">
<path fill-rule="evenodd" clip-rule="evenodd" d="M4 12C4 7.58172 7.58172 4 12 4C16.4183 4 20 7.58172 20 12C20 15.1396 18.1916 17.8587 15.555 19.169L16.445 20.96C19.7353 19.3249 22 15.9278 22 12C22 6.47715 17.5228 2 12 2C6.47715 2 2 6.47715 2 12C2 17.5228 6.47715 22 12 22H13V17H13.4946C14.9684 17 16.224 15.9293 16.4569 14.474L17.1727 10H15V7H13V10H11V7H9V10H6.82727L7.54311 14.474C7.77597 15.9293 9.03154 17 10.5054 17H11V19.9381C7.05369 19.446 4 16.0796 4 12ZM9.51799 14.158L9.17271 12H14.8273L14.482 14.158C14.4044 14.6431 13.9858 15 13.4946 15H10.5054C10.0141 15 9.59561 14.6431 9.51799 14.158Z" fill="black"/>
</svg>
