<svg width="24" height="24" viewBox="0 0 24 24" fill="none" xmlns="http://www.w3.org/2000/svg">
<path fill-rule="evenodd" clip-rule="evenodd" d="M6.99994 2C5.89537 2 4.99994 2.89543 4.99994 4V8.26777C4.40217 8.61359 4 9.25991 4 10.0002V12.723C4 13.0855 4.09851 13.4412 4.285 13.752L7 18.2771V22.0002H17V18.2771L19.715 13.752C19.9015 13.4412 20 13.0855 20 12.723V10.0002C20 9.25986 19.5978 8.6135 18.9999 8.2677V4C18.9999 2.89543 18.1045 2 16.9999 2H6.99994ZM16.9999 8.00017V4H6.99994V8.00017H8.99994V6H10.9999V8.00017H12.9999V6H14.9999V8.00017H16.9999ZM6 10.0002H18V12.723L15 17.7232V20.0002H9V17.7232L6 12.723V10.0002Z" fill="black"/>
</svg>
