<svg width="24" height="24" viewBox="0 0 24 24" fill="none" xmlns="http://www.w3.org/2000/svg">
<path fill-rule="evenodd" clip-rule="evenodd" d="M9 5H15V2H17V5H20V7C18.8954 7 18 7.89543 18 9V10.375C18 12.377 16.377 14 14.375 14H13V16H15C16.6569 16 18 17.3431 18 19C18 20.6569 16.6569 22 15 22H6V20H15C15.5523 20 16 19.5523 16 19C16 18.4477 15.5523 18 15 18H12.8333C11.8208 18 11 17.1792 11 16.1667V14H9.625C7.62297 14 6 12.377 6 10.375V9C6 7.89543 5.10457 7 4 7V5H7V2H9V5ZM7.46487 7H16.5351C16.1948 7.58835 16 8.27143 16 9V10.375C16 11.2725 15.2725 12 14.375 12H9.625C8.72754 12 8 11.2725 8 10.375V9C8 8.27143 7.80521 7.58835 7.46487 7Z" fill="black"/>
</svg>
