<svg width="24" height="24" viewBox="0 0 24 24" fill="none" xmlns="http://www.w3.org/2000/svg">
<path fill-rule="evenodd" clip-rule="evenodd" d="M9 2C9 2.55229 8.55231 3 8 3C7.44769 3 7 2.55229 7 2H4V5C4.55231 5 5 5.44771 5 6C5 6.55229 4.55231 7 4 7V9C4.55231 9 5 9.44771 5 10C5 10.5523 4.55231 11 4 11V13C4.55231 13 5 13.4477 5 14C5 14.5523 4.55231 15 4 15V17C4.55231 17 5 17.4477 5 18C5 18.5523 4.55231 19 4 19V22H7C7 21.4477 7.44769 21 8 21C8.55231 21 9 21.4477 9 22H11C11 21.4477 11.4477 21 12 21C12.5523 21 13 21.4477 13 22H15C15 21.4477 15.4477 21 16 21C16.5523 21 17 21.4477 17 22H20V19C19.4477 19 19 18.5523 19 18C19 17.4477 19.4477 17 20 17V15C19.4477 15 19 14.5523 19 14C19 13.4477 19.4477 13 20 13V11C19.4477 11 19 10.5523 19 10C19 9.44771 19.4477 9 20 9V7C19.4477 7 19 6.55229 19 6C19 5.44771 19.4477 5 20 5V2H17C17 2.55229 16.5523 3 16 3C15.4477 3 15 2.55229 15 2H13C13 2.55229 12.5523 3 12 3C11.4477 3 11 2.55229 11 2H9ZM17 5V19H7V5H17ZM12 15C12 15 9.30404 12.4049 8.99996 12.0002C8.79066 11.7216 8.66663 11.3753 8.66663 11C8.66663 10.0796 9.41282 9.33337 10.3333 9.33337C10.7086 9.33337 11.0549 9.4574 11.3335 9.66671C11.5622 9.83858 12.003 10.2342 12.003 10.2342C12.003 10.2342 12.4377 9.83858 12.6665 9.66671C12.945 9.4574 13.2914 9.33337 13.6666 9.33337C14.5871 9.33337 15.3333 10.0796 15.3333 11C15.3333 11.3753 15.2093 11.7216 15 12.0002C14.6959 12.4049 12 15 12 15Z" fill="black"/>
</svg>
