<svg width="24" height="24" viewBox="0 0 24 24" fill="none" xmlns="http://www.w3.org/2000/svg">
<path fill-rule="evenodd" clip-rule="evenodd" d="M2 7C2 5.34315 3.34315 4 5 4H19C20.6569 4 22 5.34315 22 7V17C22 18.6569 20.6569 20 19 20H5C3.34315 20 2 18.6569 2 17V7ZM9 11H6V9H9V11ZM9 15H6V13H9V15ZM14.503 14.78C14.503 14.78 11.8041 12.4049 11.5 12.0002C11.2907 11.7216 11.1667 11.3753 11.1667 11C11.1667 10.0795 11.9129 9.33333 12.8333 9.33333C13.2086 9.33333 13.5549 9.45736 13.8335 9.66667C14.0623 9.83854 14.503 10.2341 14.503 10.2341C14.503 10.2341 14.9377 9.83854 15.1665 9.66667C15.4451 9.45736 15.7914 9.33333 16.1667 9.33333C17.0871 9.33333 17.8333 10.0795 17.8333 11C17.8333 11.3753 17.7093 11.7216 17.5 12.0002C17.1959 12.4049 14.503 14.78 14.503 14.78Z" fill="black"/>
</svg>
