<svg width="24" height="24" viewBox="0 0 24 24" fill="none" xmlns="http://www.w3.org/2000/svg">
<path fill-rule="evenodd" clip-rule="evenodd" d="M9 2C9 2.55229 8.55231 3 8 3C7.44769 3 7 2.55229 7 2H4V5C4.55231 5 5 5.44771 5 6C5 6.55229 4.55231 7 4 7V9C4.55231 9 5 9.44771 5 10C5 10.5523 4.55231 11 4 11V13C4.55231 13 5 13.4477 5 14C5 14.5523 4.55231 15 4 15V17C4.55231 17 5 17.4477 5 18C5 18.5523 4.55231 19 4 19V22H7C7 21.4477 7.44769 21 8 21C8.55231 21 9 21.4477 9 22H11C11 21.4477 11.4477 21 12 21C12.5523 21 13 21.4477 13 22H15C15 21.4477 15.4477 21 16 21C16.5523 21 17 21.4477 17 22H20V19C19.4477 19 19 18.5523 19 18C19 17.4477 19.4477 17 20 17V15C19.4477 15 19 14.5523 19 14C19 13.4477 19.4477 13 20 13V11C19.4477 11 19 10.5523 19 10C19 9.44771 19.4477 9 20 9V7C19.4477 7 19 6.55229 19 6C19 5.44771 19.4477 5 20 5V2H17C17 2.55229 16.5523 3 16 3C15.4477 3 15 2.55229 15 2H13C13 2.55229 12.5523 3 12 3C11.4477 3 11 2.55229 11 2H9ZM17 5V19H7V5H17ZM10 17C10 16.9725 10.0046 16.915 10.1154 16.8321C10.2377 16.7405 10.4394 16.6667 10.6667 16.6667C10.8769 16.6667 11.1531 16.755 11.655 16.9389L11.7154 16.9611C12.1243 17.1116 12.727 17.3333 13.3333 17.3333C13.9557 17.3333 14.5876 17.14 15.0859 16.7652C15.5946 16.3827 16 15.7744 16 15H14C14 15.0238 13.9964 15.0822 13.8839 15.1668C13.761 15.2592 13.5596 15.3333 13.3333 15.3333C13.1216 15.3333 12.8442 15.2447 12.3431 15.0611L12.2813 15.0384C11.8731 14.8881 11.2712 14.6667 10.6667 14.6667C10.0479 14.6667 9.41627 14.8571 8.91678 15.231C8.40566 15.6137 8 16.2228 8 17H10ZM10.1154 12.8321C10.0046 12.915 10 12.9725 10 13H8C8 12.2228 8.40566 11.6137 8.91678 11.231C9.41627 10.8571 10.0479 10.6667 10.6667 10.6667C11.2712 10.6667 11.8731 10.8881 12.2813 11.0384L12.3431 11.0611C12.8442 11.2447 13.1216 11.3333 13.3333 11.3333C13.5596 11.3333 13.761 11.2592 13.8839 11.1668C13.9964 11.0822 14 11.0238 14 11H16C16 11.7744 15.5946 12.3827 15.0859 12.7652C14.5876 13.14 13.9557 13.3333 13.3333 13.3333C12.727 13.3333 12.1243 13.1116 11.7154 12.9611L11.655 12.9389C11.1531 12.755 10.8769 12.6667 10.6667 12.6667C10.4394 12.6667 10.2377 12.7405 10.1154 12.8321ZM14 9C14.5523 9 15 8.55228 15 8C15 7.44772 14.5523 7 14 7C13.4477 7 13 7.44772 13 8C13 8.55228 13.4477 9 14 9Z" fill="black"/>
</svg>
