<svg width="24" height="24" viewBox="0 0 24 24" fill="none" xmlns="http://www.w3.org/2000/svg">
<path fill-rule="evenodd" clip-rule="evenodd" d="M2 7C2 5.34315 3.34315 4 5 4H19C20.6569 4 22 5.34315 22 7V17C22 18.6569 20.6569 20 19 20H5C3.34315 20 2 18.6569 2 17V7ZM5 6C4.44772 6 4 6.44772 4 7V17C4 17.5523 4.44772 18 5 18H19C19.5523 18 20 17.5523 20 17V7C20 6.44772 19.5523 6 19 6H5ZM9 11H6V9H9V11ZM9 15H6V13H9V15ZM14.5 15C14.5 15 11.804 12.4049 11.5 12.0002C11.2907 11.7216 11.1666 11.3753 11.1666 11C11.1666 10.0796 11.9128 9.33337 12.8333 9.33337C13.2086 9.33337 13.5549 9.4574 13.8335 9.66671C14.0622 9.83858 14.503 10.2342 14.503 10.2342C14.503 10.2342 14.9377 9.83858 15.1665 9.66671C15.445 9.4574 15.7914 9.33337 16.1666 9.33337C17.0871 9.33337 17.8333 10.0796 17.8333 11C17.8333 11.3753 17.7093 11.7216 17.5 12.0002C17.1959 12.4049 14.5 15 14.5 15Z" fill="black"/>
</svg>
