<svg width="24" height="24" viewBox="0 0 24 24" fill="none" xmlns="http://www.w3.org/2000/svg">
<path fill-rule="evenodd" clip-rule="evenodd" d="M9 2C9 2.55229 8.55231 3 8 3C7.44769 3 7 2.55229 7 2H4V5C4.55231 5 5 5.44771 5 6C5 6.55229 4.55231 7 4 7V9C4.55231 9 5 9.44771 5 10C5 10.5523 4.55231 11 4 11V13C4.55231 13 5 13.4477 5 14C5 14.5523 4.55231 15 4 15V17C4.55231 17 5 17.4477 5 18C5 18.5523 4.55231 19 4 19V22H7C7 21.4477 7.44769 21 8 21C8.55231 21 9 21.4477 9 22H11C11 21.4477 11.4477 21 12 21C12.5523 21 13 21.4477 13 22H15C15 21.4477 15.4477 21 16 21C16.5523 21 17 21.4477 17 22H20V19C19.4477 19 19 18.5523 19 18C19 17.4477 19.4477 17 20 17V15C19.4477 15 19 14.5523 19 14C19 13.4477 19.4477 13 20 13V11C19.4477 11 19 10.5523 19 10C19 9.44771 19.4477 9 20 9V7C19.4477 7 19 6.55229 19 6C19 5.44771 19.4477 5 20 5V2H17C17 2.55229 16.5523 3 16 3C15.4477 3 15 2.55229 15 2H13C13 2.55229 12.5523 3 12 3C11.4477 3 11 2.55229 11 2H9ZM12.0036 15.3361C12.0036 15.3361 8.76484 12.4861 8.39995 12.0004C8.14879 11.6661 7.99995 11.2505 7.99995 10.8002C7.99995 9.69563 8.89538 8.8002 9.99995 8.8002C10.4503 8.8002 10.8658 8.94903 11.2001 9.2002C11.4747 9.40644 12.0036 9.88114 12.0036 9.88114C12.0036 9.88114 12.5252 9.40644 12.7998 9.2002C13.1341 8.94903 13.5496 8.8002 14 8.8002C15.1045 8.8002 16 9.69563 16 10.8002C16 11.2505 15.8511 11.6661 15.6 12.0004C15.2351 12.4861 12.0036 15.3361 12.0036 15.3361Z" fill="black"/>
</svg>
