<svg width="24" height="24" viewBox="0 0 24 24" fill="none" xmlns="http://www.w3.org/2000/svg">
<path fill-rule="evenodd" clip-rule="evenodd" d="M15 2H9V8C9 9.65685 10.3431 11 12 11C13.6569 11 15 9.65685 15 8V2ZM11 8V4H13V8C13 8.55228 12.5523 9 12 9C11.4477 9 11 8.55228 11 8ZM16.9807 7.00511C18.2297 8.27786 19 10.0245 19 11.9551C19 15.8511 15.8607 18.9999 12 18.9999C8.13926 18.9999 5 15.8511 5 11.9551C5 10.0246 5.77017 8.27806 7.01903 7.00533L5.5915 5.60457C3.98948 7.23721 3 9.48145 3 11.9551C3 16.9451 7.02418 20.9999 12 20.9999C16.9758 20.9999 21 16.9451 21 11.9551C21 9.4813 20.0104 7.23694 18.4082 5.60428L16.9807 7.00511Z" fill="black"/>
</svg>
