<svg width="24" height="24" viewBox="0 0 24 24" fill="none" xmlns="http://www.w3.org/2000/svg">
<path fill-rule="evenodd" clip-rule="evenodd" d="M10 9C8.89543 9 8 8.10457 8 7V5H7C6.44772 5 6 5.44772 6 6V19C6 19.5523 6.44772 20 7 20H17C17.5523 20 18 19.5523 18 19V6C18 5.44772 17.5523 5 17 5H16V7C16 8.10457 15.1046 9 14 9H10ZM16 3V2H14V3H10V2H8V3H7C5.34315 3 4 4.34315 4 6V19C4 20.6569 5.34315 22 7 22H17C18.6569 22 20 20.6569 20 19V6C20 4.34315 18.6569 3 17 3H16ZM10 5H14V7H10V5ZM8.25 11.25H9H11C11.9665 11.25 12.75 12.0335 12.75 13V13.5C12.75 13.5608 12.7469 13.6209 12.7408 13.6802L14 14.9393L15.4697 13.4697L16.5303 14.5303L15.0607 16L16.5303 17.4697L15.4697 18.5303L14 17.0607L12.5303 18.5303L11.4697 17.4697L12.9393 16L11.9251 14.9858C11.6567 15.1532 11.3397 15.25 11 15.25H9.75V17H8.25V12V11.25ZM9.75 13.75H11C11.1381 13.75 11.25 13.6381 11.25 13.5V13C11.25 12.8619 11.1381 12.75 11 12.75H9.75V13.75Z" fill="black"/>
</svg>
