<svg width="24" height="24" viewBox="0 0 24 24" fill="none" xmlns="http://www.w3.org/2000/svg">
<path fill-rule="evenodd" clip-rule="evenodd" d="M7 2C5.34315 2 4 3.34315 4 5V19C4 20.6569 5.34315 22 7 22H17C18.6569 22 20 20.6569 20 19V5C20 3.34315 18.6569 2 17 2H16V6C16 7.10457 15.1046 8 14 8H10C8.89543 8 8 7.10457 8 6V2H7ZM10 2V6H14V2H10ZM8.25 11.25H9H11C11.9665 11.25 12.75 12.0335 12.75 13V13.5C12.75 13.5608 12.7469 13.6209 12.7408 13.6802L14 14.9393L15.4697 13.4697L16.5303 14.5303L15.0607 16L16.5303 17.4697L15.4697 18.5303L14 17.0607L12.5303 18.5303L11.4697 17.4697L12.9393 16L11.9251 14.9858C11.6567 15.1532 11.3397 15.25 11 15.25H9.75V17H8.25V12V11.25ZM9.75 13.75H11C11.1381 13.75 11.25 13.6381 11.25 13.5V13C11.25 12.8619 11.1381 12.75 11 12.75H9.75V13.75Z" fill="black"/>
</svg>
