<svg width="24" height="24" viewBox="0 0 24 24" fill="none" xmlns="http://www.w3.org/2000/svg">
<path fill-rule="evenodd" clip-rule="evenodd" d="M8 2H7V3V6H3H2V7V15C2 16.6569 3.34315 18 5 18H6V21V22H7H17H18V21V18H19C20.6569 18 22 16.6569 22 15V7V6H21H17V3V2H16H8ZM6 13V16H5C4.44772 16 4 15.5523 4 15V8H7H8H16H17H20V15C20 15.5523 19.5523 16 19 16H18V13V12H17H7H6V13ZM15 6V4H9V6H15ZM8 14V20H16V14H8ZM12.0536 15C12.1354 15.4943 12.3198 15.9901 12.6667 16.3333C13.0072 16.6703 13.5068 16.8579 14 16.943V17.0574C13.5069 17.1428 13.0069 17.3308 12.6667 17.6667C12.3187 18.0102 12.1347 18.5056 12.0532 19H11.943C11.8579 18.5068 11.6702 18.0072 11.3333 17.6667C10.9901 17.3198 10.4943 17.1354 10 17.0536V16.9367C10.4917 16.8456 10.9983 16.6523 11.3333 16.3333C11.6988 15.9854 11.877 15.4964 11.9526 15H12.0536Z" fill="black"/>
</svg>
