<svg width="24" height="24" viewBox="0 0 24 24" fill="none" xmlns="http://www.w3.org/2000/svg">
<path fill-rule="evenodd" clip-rule="evenodd" d="M8.33311 6.35324C9.78272 4.89849 11.7855 4 14 4C16.2146 4 18.2174 4.89849 19.667 6.35324L21.0837 4.94153C19.2742 3.12559 16.7676 2 14 2C11.2325 2 8.72592 3.12559 6.9164 4.94153L8.33311 6.35324ZM10.4569 8.47204C11.3634 7.56166 12.6152 7 14 7C15.3848 7 16.6366 7.56166 17.5431 8.47204L18.9603 7.06084C17.6938 5.78898 15.9381 5 14 5C12.0619 5 10.3062 5.78898 9.03968 7.06084L10.4569 8.47204ZM14 10C12.8954 10 12 10.8954 12 12C12 13.1046 12.8954 14 14 14C15.1046 14 16 13.1046 16 12C16 10.8954 15.1046 10 14 10ZM4 13H10.126C10.5701 14.7252 12.1362 16 14 16C15.8638 16 17.4299 14.7252 17.874 13H20V18H4V13ZM14 8C15.8638 8 17.4299 9.27477 17.874 11H21H22V12V19V20H21C20.4477 20 20 20.4477 20 21V22H18V21C18 20.6494 18.0602 20.3128 18.1707 20H5.82929C5.93985 20.3128 6 20.6494 6 21V22H4V21C4 20.4477 3.55228 20 3 20H2V19V12V11H3H10.126C10.5701 9.27477 12.1362 8 14 8ZM6 16C6.55228 16 7 15.5523 7 15C7 14.4477 6.55228 14 6 14C5.44772 14 5 14.4477 5 15C5 15.5523 5.44772 16 6 16Z" fill="black"/>
</svg>
