<svg width="25" height="24" viewBox="0 0 25 24" fill="none" xmlns="http://www.w3.org/2000/svg">
<path fill-rule="evenodd" clip-rule="evenodd" d="M8.35313 6.35324C9.80274 4.89849 11.8055 4 14.0201 4C16.2346 4 18.2374 4.89849 19.687 6.35324L21.1037 4.94153C19.2942 3.12559 16.7876 2 14.0201 2C11.2525 2 8.74594 3.12559 6.93642 4.94153L8.35313 6.35324ZM10.477 8.47204C11.3835 7.56166 12.6353 7 14.0201 7C15.4049 7 16.6566 7.56166 17.5632 8.47204L18.9804 7.06084C17.7139 5.78898 15.9582 5 14.0201 5C12.082 5 10.3262 5.78898 9.05976 7.06084L10.477 8.47204ZM14.02 10C12.9155 10 12.02 10.8954 12.02 12C12.02 13.1046 12.9155 14 14.02 14C15.1246 14 16.02 13.1046 16.02 12C16.02 10.8954 15.1246 10 14.02 10ZM22.02 11H17.894C17.45 9.27477 15.8839 8 14.02 8C12.1562 8 10.5901 9.27477 10.146 11H2.02002V18V20H3.02002C3.5723 20 4.02002 20.4477 4.02002 21V22H6.02002V21C6.02002 20.6494 5.95987 20.3128 5.84931 20H18.1907C18.0802 20.3128 18.02 20.6494 18.02 21V22H20.02V21C20.02 20.4477 20.4677 20 21.02 20H22.02V18V11ZM6.02002 14C6.02002 14.5523 5.5723 15 5.02002 15C4.46773 15 4.02002 14.5523 4.02002 14C4.02002 13.4477 4.46773 13 5.02002 13C5.5723 13 6.02002 13.4477 6.02002 14Z" fill="black"/>
</svg>
