<svg width="24" height="24" viewBox="0 0 24 24" fill="none" xmlns="http://www.w3.org/2000/svg">
<path fill-rule="evenodd" clip-rule="evenodd" d="M5.28873 6.3721C5.06491 4.58155 6.46107 3 8.26556 3H11.5051L11.4282 4.0716C11.3862 4.65744 11.2591 5.33978 11.0086 6.13189C11.0731 6.62191 11.4924 7.00014 12 7.00014C12.5076 7.00014 12.9269 6.62191 12.9914 6.13189C12.7409 5.33978 12.6138 4.65744 12.5718 4.0716L12.4949 3H15.7344C17.5389 3 18.9351 4.58154 18.7113 6.3721L18.5078 8H19C19.9907 8 20.7651 8.6023 21.2463 9.32398C21.732 10.0526 22 11.0017 22 12C22 12.9983 21.732 13.9474 21.2463 14.676C20.7651 15.3977 19.9907 16 19 16H18.5078L18.7113 17.6279C18.9351 19.4185 17.5389 21 15.7344 21H12.4948L12.5718 19.9284C12.6139 19.3426 12.7409 18.6603 12.9914 17.8682C12.9269 17.3782 12.5076 17 12 17C11.4924 17 11.0731 17.3782 11.0086 17.8682C11.2591 18.6603 11.3861 19.3426 11.4282 19.9284L11.5052 21H8.26556C6.46107 21 5.06491 19.4185 5.28873 17.6279L5.49222 16H5C4.00933 16 3.23485 15.3977 2.75374 14.676C2.26796 13.9474 2 12.9983 2 12C2 11.0017 2.26796 10.0526 2.75374 9.32398C3.23485 8.6023 4.00933 8 5 8H5.49222L5.28873 6.3721ZM8.26556 5C7.66407 5 7.19868 5.52718 7.27329 6.12404L8 11C6.80117 10.9723 5.65241 10.9659 4.682 10.1336C4.15599 10.5538 4 11.3703 4 12C4 12.6297 4.15599 13.4462 4.682 13.8664C5.65241 13.0341 6.80117 13.0277 8 13L7.27329 17.876C7.19868 18.4728 7.66407 19 8.26556 19H9.25226C9.16936 18.6704 9 18.3406 9 18C9 16.3431 10.3431 15 12 15C13.6569 15 15 16.3431 15 18C15 18.3406 14.8306 18.6704 14.7477 19H15.7344C16.3359 19 16.8013 18.4728 16.7267 17.876L16 13C17.1988 13.0277 18.3476 13.0341 19.318 13.8664C19.844 13.4462 20 12.6297 20 12C20 11.3703 19.844 10.5538 19.318 10.1336C18.3476 10.9659 17.1988 10.9723 16 11L16.7267 6.12403C16.8013 5.52718 16.3359 5 15.7344 5H14.7477C14.8306 5.3296 15 5.65949 15 6.00014C15 7.65699 13.6569 9.00014 12 9.00014C10.3431 9.00014 9 7.65699 9 6.00014C9.0556 5.65748 9.16764 5.33655 9.2523 5H8.26556Z" fill="black"/>
</svg>
