<svg width="24" height="24" viewBox="0 0 24 24" fill="none" xmlns="http://www.w3.org/2000/svg">
<path fill-rule="evenodd" clip-rule="evenodd" d="M18.1136 2.00775C19.0261 2.05917 20.0281 2.37713 20.825 3.17289C21.6221 3.96884 21.9408 4.97012 21.9922 5.88224C22.0537 6.97126 21.7111 7.91803 21.2352 8.86835C20.7135 8.86835 20.2163 8.859 19.717 9.04059L20.6322 9.64446C22.2112 10.6864 22.4405 12.9121 21.1058 14.2534L17.3329 18.0451L17.3306 18.0473L14.2498 21.1236C13.0796 22.2921 11.183 22.2921 10.0128 21.1236L6.42756 17.5437L2.86324 13.9335C1.7068 12.7622 1.71312 10.8782 2.87714 9.71462L2.87801 9.71374L5.6071 6.97612L7.75265 9.83685C8.35886 10.4017 9.19718 10.3877 9.7934 9.79237C10.388 9.19867 10.4027 8.35976 9.83687 7.75264L6.97385 5.60537L9.70241 2.8986L9.70369 2.89732C11.0407 1.56381 13.2651 1.78382 14.314 3.3549L14.9416 4.29496C15.1351 3.79291 15.1247 3.29103 15.1247 2.76359C16.0762 2.28831 17.0239 1.94634 18.1136 2.00775ZM17.0633 4.09778C16.8086 5.58781 15.5 6.92904 15 7.5L12.6507 4.4654C12.302 3.94312 11.5607 3.8694 11.1156 4.31386L11.1133 4.31616L10.0261 5.3946L11.2071 6.29288C12.597 7.68274 12.5999 9.8163 11.2066 11.2076C9.81504 12.5972 7.6837 12.5979 6.29289 11.2071L5.3929 10.0238L4.29137 11.1288C3.90479 11.5149 3.90261 12.1396 4.28646 12.5283L7.8508 16.1385L11.426 19.7084C11.8153 20.0972 12.4472 20.0972 12.8366 19.7084L15.9152 16.6344L15.9175 16.6321L19.6881 12.8427C20.1307 12.3979 20.0553 11.66 19.5306 11.3138L16.5 9C17 8.5 18.4074 7.1808 19.9024 6.92904C20.1066 6.13411 20.0164 5.19185 19.4118 4.58811C18.8057 3.98291 17.8602 3.8934 17.0633 4.09778Z" fill="black"/>
</svg>
