<svg width="24" height="24" viewBox="0 0 24 24" fill="none" xmlns="http://www.w3.org/2000/svg">
<path fill-rule="evenodd" clip-rule="evenodd" d="M13.4995 2.85896C12.7914 1.83624 11.33 1.70446 10.4505 2.58403L7.5 5.5C7.5 5.5 9 7 11 7C11.64 8.21856 11.4258 9.56398 10.5 10.5C9.57416 11.436 8.21856 11.64 7 11C7 9 5.5 7.5 5.5 7.5L2.58395 10.4505C1.80535 11.2291 1.80535 12.4915 2.58395 13.2701L10.7299 21.4161C11.5085 22.1947 12.7709 22.1946 13.5495 21.416L21.416 13.5495C22.2955 12.67 22.1638 11.2086 21.141 10.5005L18.1223 8.4106C18.1657 8.37995 18.2097 8.34997 18.2542 8.32069C19.0423 7.80189 19.9859 7.5 20.9999 7.5C21.1222 7.5 21.2435 7.50439 21.3635 7.51302C21.3889 7.47706 21.4135 7.44061 21.4375 7.40367C21.7933 6.85574 22 6.202 22 5.5C22 3.567 20.433 2 18.5 2C17.7901 2 17.1297 2.21132 16.578 2.57448C16.5473 2.59468 16.517 2.61534 16.487 2.63647C16.4956 2.75652 16.5 2.87775 16.5 3C16.5 4.00286 16.2047 4.93677 15.6964 5.71953C15.6617 5.77297 15.626 5.8257 15.5894 5.8777L13.4995 2.85896Z" fill="black"/>
</svg>
