<svg width="24" height="24" viewBox="0 0 24 24" fill="none" xmlns="http://www.w3.org/2000/svg">
<path fill-rule="evenodd" clip-rule="evenodd" d="M5.61045 5.24505C5.4632 4.05233 6.39361 3 7.5954 3H12H16.4046C17.6064 3 18.5368 4.05233 18.3896 5.24505L17.8789 9.38158C18.6003 9.08547 19.3526 8.6476 20.0001 8.00011C21.0001 8.00011 22 10.1361 22 12.0001C22 13.8641 21.0001 16.0001 20.0001 16.0001C19.3526 15.3526 18.6003 14.9148 17.8789 14.6186L18.3896 18.7549C18.5368 19.9477 17.6064 21 16.4046 21H13.0001C13.0001 21 13.0001 19 14.5001 18C14.5001 17 13.5001 16 12.0001 16C10.5001 16 9.50006 17 9.50006 18C11.0001 19 11.0001 21 11.0001 21H7.59539C6.39361 21 5.4632 19.9477 5.61045 18.7549L6.12112 14.6186C5.39973 14.9146 4.64743 15.3524 3.99993 15.9998C2.99993 15.9998 2 13.8641 2 12.0001C2 10.0001 2.99993 7.99981 3.99993 7.99981C4.64743 8.64739 5.39973 9.08533 6.12112 9.38148L5.61045 5.24505ZM12.0001 8.00006C13.5001 8.00006 14.5001 7.00006 14.5001 6.00006C13.0001 5.00006 13.0001 3.00006 13.0001 3.00006H11.0001C11.0001 3.00006 11.0001 5.00006 9.50006 6.00006C9.50006 7.00006 10.5001 8.00006 12.0001 8.00006Z" fill="black"/>
</svg>
