<svg width="24" height="24" viewBox="0 0 24 24" fill="none" xmlns="http://www.w3.org/2000/svg">
<path fill-rule="evenodd" clip-rule="evenodd" d="M4 12C4 7.58172 7.58172 4 12 4C16.4183 4 20 7.58172 20 12C20 16.4183 16.4183 20 12 20C7.58172 20 4 16.4183 4 12ZM12 2C6.47715 2 2 6.47715 2 12C2 17.5228 6.47715 22 12 22C17.5228 22 22 17.5228 22 12C22 6.47715 17.5228 2 12 2ZM10.0918 17H8V7H12.1281C14.3723 7 15.7022 8.19196 15.7022 10.2017V10.2155C15.7022 11.5322 15.0026 12.6272 13.8944 13.0638L16 17H13.6312L11.768 13.3756H10.0918V17ZM10.0918 8.63548V11.7886H11.8996C12.9385 11.7886 13.5619 11.1996 13.5619 10.2155V10.2017C13.5619 9.24532 12.9039 8.63548 11.8719 8.63548H10.0918Z" fill="black"/>
</svg>
