<svg width="24" height="24" viewBox="0 0 24 24" fill="none" xmlns="http://www.w3.org/2000/svg">
<path fill-rule="evenodd" clip-rule="evenodd" d="M12 22C17.5228 22 22 17.5228 22 12C22 6.47715 17.5228 2 12 2C6.47715 2 2 6.47715 2 12C2 17.5228 6.47715 22 12 22ZM10.5918 17H8.5V7H12.6281C14.8723 7 16.2022 8.19196 16.2022 10.2017V10.2155C16.2022 11.5322 15.5026 12.6272 14.3944 13.0638L16.5 17H14.1312L12.268 13.3756H10.5918V17ZM10.5918 8.63548V11.7886H12.3996C13.4385 11.7886 14.0619 11.1996 14.0619 10.2155V10.2017C14.0619 9.24532 13.4039 8.63548 12.3719 8.63548H10.5918Z" fill="black"/>
</svg>
