<svg width="24" height="24" viewBox="0 0 24 24" fill="none" xmlns="http://www.w3.org/2000/svg">
<path fill-rule="evenodd" clip-rule="evenodd" d="M3 5C3 3.89543 3.89543 3 5 3H19C20.1046 3 21 3.89543 21 5V19C21 20.1046 20.1046 21 19 21H5C3.89543 21 3 20.1046 3 19V5ZM10.0918 17H8V7H12.1281C14.3723 7 15.7022 8.19196 15.7022 10.2017V10.2155C15.7022 11.5322 15.0026 12.6272 13.8944 13.0638L16 17H13.6312L11.768 13.3756H10.0918V17ZM10.0918 8.63548V11.7886H11.8996C12.9385 11.7886 13.5619 11.1996 13.5619 10.2155V10.2017C13.5619 9.24532 12.9039 8.63548 11.8719 8.63548H10.0918Z" fill="black"/>
</svg>
