<svg width="24" height="24" viewBox="0 0 24 24" fill="none" xmlns="http://www.w3.org/2000/svg">
<path fill-rule="evenodd" clip-rule="evenodd" d="M4.00983 11.5999C4.1403 8.95072 5.55945 6.64035 7.65354 5.2826L10.1526 9.14487C9.26265 9.72201 8.65958 10.704 8.60426 11.83L4.00983 11.5999ZM10.4793 15.0414L8.42144 19.1569C9.49822 19.6964 10.7137 20 12 20C13.2863 20 14.5017 19.6964 15.5784 19.157L13.5207 15.0415C13.0631 15.2706 12.5467 15.3996 12.0001 15.3996C11.4534 15.3996 10.9369 15.2706 10.4793 15.0414ZM15.396 11.8302L19.9902 11.6005C19.8599 8.95104 18.4407 6.64048 16.3465 5.28263L13.8475 9.1448C14.7375 9.72196 15.3407 10.7041 15.396 11.8302ZM2 12C2 6.47715 6.47715 2 12 2C17.5228 2 22 6.47715 22 12C22 17.5228 17.5228 22 12 22C6.47715 22 2 17.5228 2 12ZM10.6001 11.9996C10.6001 11.2264 11.2269 10.5996 12.0001 10.5996C12.7733 10.5996 13.4001 11.2264 13.4001 11.9996C13.4001 12.7728 12.7733 13.3996 12.0001 13.3996C11.2269 13.3996 10.6001 12.7728 10.6001 11.9996Z" fill="black"/>
</svg>
