<svg width="24" height="24" viewBox="0 0 24 24" fill="none" xmlns="http://www.w3.org/2000/svg">
<path fill-rule="evenodd" clip-rule="evenodd" d="M3 15C3 10.0294 7.02944 6 12 6C16.9706 6 21 10.0294 21 15V16H23V15C23 8.92487 18.0751 4 12 4C5.92487 4 1 8.92487 1 15V16H3V15ZM12 10C9.23858 10 7 12.2386 7 15V16H5V15C5 11.134 8.13401 8 12 8C15.866 8 19 11.134 19 15V16H17V15C17 12.2386 14.7614 10 12 10ZM12 14C11.4477 14 11 14.4477 11 15V16H9V15C9 13.3431 10.3431 12 12 12C13.6569 12 15 13.3431 15 15V16H13V15C13 14.4477 12.5523 14 12 14Z" fill="black"/>
</svg>
