<svg width="24" height="24" viewBox="0 0 24 24" fill="none" xmlns="http://www.w3.org/2000/svg">
<path fill-rule="evenodd" clip-rule="evenodd" d="M12 5L10 3L8 5L6 3H3V21H6L8 19L10 21L12 19L14 21L16 19L18 21H21V3H18L16 5L14 3L12 5ZM7 9V11H13V9H7ZM7 13V15H13V13H7ZM17 10C17 10.5523 16.5523 11 16 11C15.4477 11 15 10.5523 15 10C15 9.44772 15.4477 9 16 9C16.5523 9 17 9.44772 17 10ZM16 15C16.5523 15 17 14.5523 17 14C17 13.4477 16.5523 13 16 13C15.4477 13 15 13.4477 15 14C15 14.5523 15.4477 15 16 15Z" fill="black"/>
</svg>
