<svg width="24" height="24" viewBox="0 0 24 24" fill="none" xmlns="http://www.w3.org/2000/svg">
<path fill-rule="evenodd" clip-rule="evenodd" d="M3 3H4H6H6.37581L6.65861 3.24751L8.04895 4.46439L9.40039 3.45081L10.0004 3.00081L10.6004 3.45081L12.0004 4.50081L13.4004 3.45081L14.0004 3.00081L14.6004 3.45081L15.9517 4.4643L17.3412 3.24764L17.6241 3H18H20H21V4V20V21H20H18H17.6248L17.3422 20.7532L15.9442 19.5322L14.592 20.5464L13.992 20.9964L13.392 20.5464L11.992 19.4963L10.592 20.5464L9.99205 20.9963L9.39205 20.5464L8.04252 19.5342L6.66077 20.7506L6.37745 21H6H4H3V20V4V3ZM5 5V19H5.62255L7.33128 17.4958L7.94158 16.9585L8.59205 17.4464L9.99205 18.4963L11.392 17.4464L11.992 16.9963L12.592 17.4464L13.992 18.4963L15.392 17.4464L16.0399 16.9605L16.6498 17.4932L18.3752 19H19V5H18.3759L16.6591 6.50317L16.0491 7.03733L15.4004 6.55081L14.0004 5.50081L12.6004 6.55081L12.0004 7.00081L11.4004 6.55081L10.0004 5.50081L8.60039 6.55081L7.95183 7.03723L7.34178 6.5033L5.62419 5H5ZM13 11H7V9H13V11ZM7 15H13V13H7V15ZM17 10C17 10.5523 16.5523 11 16 11C15.4477 11 15 10.5523 15 10C15 9.44771 15.4477 9 16 9C16.5523 9 17 9.44771 17 10ZM16 15C16.5523 15 17 14.5523 17 14C17 13.4477 16.5523 13 16 13C15.4477 13 15 13.4477 15 14C15 14.5523 15.4477 15 16 15Z" fill="black"/>
</svg>
