<svg width="24" height="24" viewBox="0 0 24 24" fill="none" xmlns="http://www.w3.org/2000/svg">
<path fill-rule="evenodd" clip-rule="evenodd" d="M12 1.99219C12.3613 1.99219 12.6945 2.187 12.8716 2.50179L17.4609 10.6584L17.4747 10.6506L19.2227 9.66773L19.7131 10.5393L18.5702 14.6259L14.4855 13.4787L13.9951 12.6071L15.7177 11.6385L12 5.03108L11.3999 6.0976L9.65467 5.12108L11.1284 2.50179C11.3055 2.187 11.6387 1.99219 12 1.99219ZM18.6572 16.8629L20.3995 15.881L21.8716 18.4974C22.0457 18.807 22.0426 19.1857 21.8632 19.4922C21.6839 19.7988 21.3553 19.9873 21 19.9873H12.0029V21.9922H11.0026L8 18.993L11.0026 15.9962H12.0029V17.9878H19.2902L18.6572 16.8629ZM8.45999 11.3227L10.2386 12.3083L10.7235 11.4337L9.55737 7.35541L5.47784 8.52677L4.99289 9.4014L6.71071 10.3533L2.12842 18.4974C1.95425 18.807 1.95744 19.1857 2.13679 19.4922C2.31614 19.7988 2.64474 19.9873 3 19.9873H6V17.9878H4.70985L8.45999 11.3227Z" fill="black"/>
</svg>
