<svg width="24" height="24" viewBox="0 0 24 24" fill="none" xmlns="http://www.w3.org/2000/svg">
<path fill-rule="evenodd" clip-rule="evenodd" d="M6.41421 6.41421C4.84676 7.98166 3.99465 9.96638 4.00003 12.0208C4.00536 14.0611 4.85747 16.029 6.41421 17.5858L5 19C3.05273 17.0527 2.00536 14.573 2.00002 12.0208C1.99465 9.45453 3.04203 6.95797 5 5L6.41421 6.41421ZM17.5858 17.5858C19.1425 16.029 19.9946 14.0611 20 12.0208C20.0053 9.96638 19.1532 7.98166 17.5858 6.41421L19 5C20.958 6.95797 22.0053 9.45453 22 12.0208C21.9946 14.573 20.9473 17.0527 19 19L17.5858 17.5858ZM13 10.2885V8.00001H15V10.289L17 9.13427L18 10.8663L16.0004 12.0208L17.9282 13.1338L16.9282 14.8658L15 13.7526V16H13V13.7531L11.0717 14.8663L10.0717 13.1343L12.0004 12.0208L10 10.8658L11 9.13378L13 10.2885ZM8 16C8.55228 16 9 15.5523 9 15C9 14.4477 8.55228 14 8 14C7.44771 14 7 14.4477 7 15C7 15.5523 7.44771 16 8 16Z" fill="black"/>
</svg>
