<svg width="24" height="24" viewBox="0 0 24 24" fill="none" xmlns="http://www.w3.org/2000/svg">
<path fill-rule="evenodd" clip-rule="evenodd" d="M20 6L16 2L14.5858 3.41421L16.1716 5L9 5C5.13401 5 2 8.13401 2 12C2 13.2733 2.3409 14.4701 2.93709 15.5007L4.6683 14.4993C4.24346 13.7649 4 12.9124 4 12C4 9.23857 6.23858 7 9 7L16.1716 7L14.5858 8.58579L16 10L20 6ZM19.3317 9.50072C19.7565 10.2351 20 11.0876 20 12C20 14.7614 17.7614 17 15 17L7.82843 17L9.41421 15.4142L8 14L4 18L8 22L9.41421 20.5858L7.82843 19L15 19C18.866 19 22 15.866 22 12C22 10.7267 21.6591 9.5299 21.0629 8.49927L19.3317 9.50072ZM13 9H10V11H11V15H13V9Z" fill="black"/>
</svg>
