<svg width="24" height="24" viewBox="0 0 24 24" fill="none" xmlns="http://www.w3.org/2000/svg">
<path fill-rule="evenodd" clip-rule="evenodd" d="M8.41421 8.58579L6.82843 7L15 7C16.6569 7 18 8.34314 18 10V13H20V10C20 7.23857 17.7614 5 15 5L6.82843 5L8.41421 3.41421L7 2L3 6L7 10L8.41421 8.58579ZM6.00001 14V11H4.00001V14C4.00001 16.7614 6.23859 19 9.00001 19L17.1716 19L15.5858 20.5858L17 22L21 18L17 14L15.5858 15.4142L17.1716 17L9.00001 17C7.34316 17 6.00001 15.6569 6.00001 14ZM13 9H10V11H11V15H13V9Z" fill="black"/>
</svg>
