<svg width="24" height="24" viewBox="0 0 24 24" fill="none" xmlns="http://www.w3.org/2000/svg">
<path fill-rule="evenodd" clip-rule="evenodd" d="M16 2L20 6L16 10L14.5858 8.58579L16.1716 7L9 7C6.23858 7 4 9.23857 4 12C4 12.9124 4.24346 13.7649 4.6683 14.4993L2.93709 15.5007C2.3409 14.4701 2 13.2733 2 12C2 8.13401 5.13401 5 9 5L16.1716 5L14.5858 3.41421L16 2ZM20 12C20 11.0876 19.7565 10.2351 19.3317 9.50072L21.0629 8.49927C21.6591 9.5299 22 10.7267 22 12C22 15.866 18.866 19 15 19L7.82843 19L9.41421 20.5858L8 22L4 18L8 14L9.41421 15.4142L7.82843 17L15 17C17.7614 17 20 14.7614 20 12Z" fill="black"/>
</svg>
