<svg width="24" height="24" viewBox="0 0 24 24" fill="none" xmlns="http://www.w3.org/2000/svg">
<path fill-rule="evenodd" clip-rule="evenodd" d="M10.8284 8L12.4142 9.58579L11 11L7 7L11 3L12.4142 4.41421L10.8284 6L18 6C20.2091 6 22 7.79086 22 10C22 11.1269 21.5327 12.1464 20.7839 12.8722C20.027 13.606 19.3207 14.2849 18.6894 14.8883L17.3075 13.4425C17.9358 12.842 18.6387 12.1663 19.3919 11.4362C19.7681 11.0715 20 10.5637 20 10C20 8.89543 19.1046 8 18 8L10.8284 8ZM3.21616 11.1277C3.78324 10.578 4.54363 9.85064 5.30236 9.12805L6.68165 10.5763C5.92385 11.298 5.16869 12.0204 4.60818 12.5637C4.23192 12.9285 4 13.4363 4 14C4 15.1046 4.89543 16 6 16L13.1716 16L11.5858 14.4142L13 13L17 17L13 21L11.5858 19.5858L13.1716 18L6 18C3.79086 18 2 16.2091 2 14C2 12.8731 2.46734 11.8535 3.21616 11.1277Z" fill="black"/>
</svg>
