<svg width="24" height="24" viewBox="0 0 24 24" fill="none" xmlns="http://www.w3.org/2000/svg">
<path fill-rule="evenodd" clip-rule="evenodd" d="M15.4132 4.08932C15.7705 4.25134 16 4.60722 16 4.99932V8.06807C19.3923 8.55297 22 11.4683 22 14.9924V19.9889C21.012 18.952 20.0867 17.8732 18.8869 17.0725C18.002 16.4821 16.9561 15.9917 16 15.9917V18.9896C16 19.3817 15.7705 19.7376 15.4132 19.8996C15.0559 20.0616 14.6368 19.9998 14.3415 19.7416L6.3415 12.7465C6.12448 12.5568 6 12.2826 6 11.9945C6 11.7063 6.12448 11.4322 6.3415 11.2424L14.3415 4.24727C14.6368 3.98906 15.0559 3.9273 15.4132 4.08932ZM20 15.4121V14.9924C20 12.2329 17.7614 9.99584 15 9.99584H14V7.20156L8.51859 11.9945L14 16.7874V13.9931H16C17.5564 13.9931 19.0105 14.7518 19.9976 15.4105L20 15.4121Z" fill="black"/>
<path fill-rule="evenodd" clip-rule="evenodd" d="M1.34166 11.246L9.33617 4.25838C9.75203 3.89491 10.384 3.93707 10.7478 4.35256Lnan nanL10.7478 4.35256C11.1117 4.76817 11.0695 5.39991 10.6535 5.76349L3.51984 11.9984L10.6704 18.2476C11.0864 18.6112 11.1287 19.2429 10.7648 19.6586Lnan nanL10.7648 19.6586C10.401 20.074 9.76902 20.1162 9.35316 19.7528L1.34166 12.7509C1.12454 12.561 1 12.2867 1 11.9984C1 11.7101 1.12454 11.4359 1.34166 11.246Z" fill="black"/>
</svg>
