<svg width="24" height="24" viewBox="0 0 24 24" fill="none" xmlns="http://www.w3.org/2000/svg">
<path fill-rule="evenodd" clip-rule="evenodd" d="M15.2703 3L14.2805 4.54055L10.5888 10.2865C10.2642 10.7917 10.1838 11.416 10.3697 11.9869L12.4929 18.443L13 20L11.3833 19.74L8.87473 19.3365C7.97196 19.1913 7.1847 18.6423 6.73642 17.8453L3.38539 11.8181C2.70133 10.602 2.94599 9.07488 3.97572 8.13335L8.73027 3.78599C9.28324 3.28038 10.0054 3 10.7547 3H13.4392H15.2703ZM11.6081 5H10.7547C10.5049 5 10.2642 5.09346 10.0799 5.262L5.32531 9.60935C4.98207 9.92319 4.90052 10.4323 5.12854 10.8376L8.47957 16.8648C8.62899 17.1304 8.89141 17.3134 9.19234 17.3618L10.0841 17.5053L8.46803 12.6063C8.09613 11.4643 8.25698 10.2158 8.90615 9.20538L11.6081 5ZM13 8.99997L14.5 9C18.0898 9 21 11.9101 21 15.5C21 18.3501 19.1662 20.7694 16.6171 21.6471L15.9659 19.7561C17.7328 19.1477 19 17.4705 19 15.5C19 13.0147 16.9853 11 14.5 11L13 11V8.99997ZM14.5 13L13 13V15L14.5 15C14.7761 15 15 15.2239 15 15.5C15 15.6625 14.9236 15.8068 14.8004 15.8998C14.7614 15.9293 14.7184 15.9528 14.6729 15.9696L15.3643 17.8463C15.5967 17.7606 15.8124 17.6418 16.0057 17.4959C16.6077 17.0412 17 16.3163 17 15.5C17 14.1193 15.8807 13 14.5 13Z" fill="black"/>
</svg>
