<svg width="24" height="24" viewBox="0 0 24 24" fill="none" xmlns="http://www.w3.org/2000/svg">
<path fill-rule="evenodd" clip-rule="evenodd" d="M12.4097 3.08778C12.7689 3.2491 13 3.60623 13 4.00002V8.00002H15C18.866 8.00002 22 11.134 22 15V21L18.4301 17.4833C17.491 16.5341 16.2111 16 14.8758 16H13V20C13 20.3938 12.7689 20.7509 12.4097 20.9123C12.0504 21.0736 11.63 21.009 11.3356 20.7474L2.33564 12.7474C2.12215 12.5577 2 12.2857 2 12C2 11.7144 2.12215 11.4424 2.33564 11.2526L11.3356 3.25261C11.63 2.99099 12.0504 2.92646 12.4097 3.08778ZM4.5052 12L11 17.7732V14H14.8758C16.7453 14 18.537 14.7478 19.8518 16.0767L20 16.2264V15C20 12.2386 17.7614 10 15 10H11V6.22686L4.5052 12Z" fill="black"/>
</svg>
