<svg width="24" height="24" viewBox="0 0 24 24" fill="none" xmlns="http://www.w3.org/2000/svg">
<path fill-rule="evenodd" clip-rule="evenodd" d="M10 6.32886V4C10 4 3.02295 9.77652 1.3415 11.2478C1.12448 11.4377 1 11.712 1 12.0004C1 12.2887 1.12448 12.5631 1.3415 12.7529C3.02111 14.2226 10 20.0003 10 20.0003V17.668L3.5 12L10 6.32886ZM15 7.99994V4C15 4 8.02295 9.77652 6.3415 11.2478C6.12448 11.4377 6 11.712 6 12.0004C6 12.2887 6.12448 12.5631 6.3415 12.7529C8.02111 14.2226 15 20.0003 15 20.0003V15.9999C19 15.9999 22 20.0003 22 20.0003V15.0004C22 11.4739 18.3923 8.48517 15 7.99994Z" fill="black"/>
</svg>
