<svg width="24" height="24" viewBox="0 0 24 24" fill="none" xmlns="http://www.w3.org/2000/svg">
<path fill-rule="evenodd" clip-rule="evenodd" d="M15.2703 3L10.5888 10.2865C10.2642 10.7917 10.1838 11.416 10.3697 11.9869L13 20L8.87473 19.3365C7.97196 19.1913 7.1847 18.6423 6.73641 17.8453L3.38539 11.8181C2.70133 10.602 2.94599 9.07488 3.97572 8.13335L8.73027 3.78599C9.28324 3.28038 10.0054 3 10.7547 3H15.2703ZM13 9H14.5C18.0899 9 21 11.9101 21 15.5C21 18.3501 19.1662 20.7694 16.6171 21.6471L15.9659 19.7561C17.7328 19.1477 19 17.4705 19 15.5C19 13.0147 16.9853 11 14.5 11H13V9ZM14.5 13H13V15H14.5C14.7761 15 15 15.2239 15 15.5C15 15.6625 14.9236 15.8068 14.8004 15.8998C14.7614 15.9293 14.7184 15.9528 14.6729 15.9696L15.3643 17.8463C15.5967 17.7606 15.8124 17.6418 16.0057 17.4959C16.6077 17.0412 17 16.3163 17 15.5C17 14.1193 15.8807 13 14.5 13Z" fill="black"/>
</svg>
