<svg width="24" height="24" viewBox="0 0 24 24" fill="none" xmlns="http://www.w3.org/2000/svg">
<path fill-rule="evenodd" clip-rule="evenodd" d="M14 4.00415C14 4.74443 13.5978 5.39078 13 5.73659V8.00415H15C17.7614 8.00415 20 10.2427 20 13.0042V14.0042H22V17.0042H20V22.0042H4V17.0042H2V14.0042H4V13.0042C4 10.2427 6.23858 8.00415 9 8.00415H11V5.73659C10.4022 5.39078 10 4.74443 10 4.00415C10 2.89958 10.8954 2.00415 12 2.00415C13.1046 2.00415 14 2.89958 14 4.00415ZM10 13.0042C10 13.5564 9.55228 14.0042 9 14.0042C8.44772 14.0042 8 13.5564 8 13.0042C8 12.4519 8.44772 12.0042 9 12.0042C9.55228 12.0042 10 12.4519 10 13.0042ZM15 14.0042C15.5523 14.0042 16 13.5564 16 13.0042C16 12.4519 15.5523 12.0042 15 12.0042C14.4477 12.0042 14 12.4519 14 13.0042C14 13.5564 14.4477 14.0042 15 14.0042ZM15 18.0042H9V16.0042H15V18.0042Z" fill="black"/>
</svg>
