<svg width="24" height="24" viewBox="0 0 24 24" fill="none" xmlns="http://www.w3.org/2000/svg">
<path fill-rule="evenodd" clip-rule="evenodd" d="M13 5.73244C13.5978 5.38663 14 4.74028 14 4C14 2.89543 13.1046 2 12 2C10.8954 2 10 2.89543 10 4C10 4.74028 10.4022 5.38663 11 5.73244V8H9C6.23858 8 4 10.2386 4 13V14H2V17H4V22H20V17H22V14H20V13C20 10.2386 17.7614 8 15 8H13V5.73244ZM18 20H6V13C6 11.3431 7.34315 10 9 10H15C16.6569 10 18 11.3431 18 13V20ZM9 14C9.55228 14 10 13.5523 10 13C10 12.4477 9.55228 12 9 12C8.44772 12 8 12.4477 8 13C8 13.5523 8.44772 14 9 14ZM16 13C16 13.5523 15.5523 14 15 14C14.4477 14 14 13.5523 14 13C14 12.4477 14.4477 12 15 12C15.5523 12 16 12.4477 16 13ZM9 18H15V16H9V18Z" fill="black"/>
</svg>
