<svg width="24" height="24" viewBox="0 0 24 24" fill="none" xmlns="http://www.w3.org/2000/svg">
<path fill-rule="evenodd" clip-rule="evenodd" d="M14.9438 6.22902L10.5519 10.7721C11.07 11.1197 11.5622 11.5224 12.0201 11.9801C12.4779 12.4377 12.8806 12.9296 13.2284 13.4474L17.7734 9.05744C18.5912 8.23616 18.9015 7.10053 18.9808 6.06961C19.0114 5.67216 19.006 5.30895 18.988 5.01484C18.6938 4.99689 18.3305 4.99147 17.9328 5.02204C16.9015 5.10134 15.7654 5.41154 14.9438 6.22902ZM13.5234 4.82048C14.8235 3.52089 16.5141 3.12522 17.7794 3.02793C18.7873 2.95043 19.7541 3.06644 20.74 3.26354C20.9372 4.24904 21.0532 5.21553 20.9757 6.223C20.8784 7.4878 20.4826 9.17774 19.1825 10.4773L19.1764 10.4834L18.4197 11.2143C19.1411 13.8866 18.4537 16.8626 16.3528 18.9628C15.5252 19.79 14.7135 20.1772 13.7648 20.6297C13.5211 20.746 13.2683 20.8666 13.0039 21C13.0039 18.9628 12.8217 15.6098 10.6053 13.3943C8.38888 11.1788 5.03462 11 3 11C3.13601 10.7308 3.2585 10.4735 3.37659 10.2254C3.82562 9.28204 4.21106 8.47229 5.03462 7.64905C7.13555 5.54895 10.1127 4.8618 12.7861 5.58295L13.5173 4.82653L13.5234 4.82048ZM8.70581 9.80353L11.1069 7.31988C9.32124 7.19749 7.54499 7.8949 6.31903 9.19761C7.13153 9.29746 7.9341 9.49942 8.70581 9.80353ZM16.6821 12.8927L14.1973 15.2927C14.5016 16.0642 14.7037 16.8666 14.8036 17.6789C16.1069 16.4533 16.8046 14.6777 16.6821 12.8927ZM7.00158 13.1856C5.00079 15 4.00039 17.0001 3 21.0002C7.00158 20 9.00236 19 10.8177 17.0001C10.2958 15.1639 8.8385 13.7073 7.00158 13.1856Z" fill="black"/>
</svg>
