<svg width="24" height="24" viewBox="0 0 24 24" fill="none" xmlns="http://www.w3.org/2000/svg">
<path fill-rule="evenodd" clip-rule="evenodd" d="M13.5234 4.81682C14.8235 3.51722 16.5141 3.12156 17.7794 3.02427C18.7873 2.94677 19.7541 3.06278 20.74 3.25988C20.9372 4.24538 21.0532 5.21186 20.9757 6.21934C20.8784 7.48414 20.4826 9.17408 19.1825 10.4737L19.1764 10.4797L18.4197 11.2107C19.1411 13.8829 18.4537 16.859 16.3528 18.9591C15.5252 19.7863 14.7135 20.1735 13.7648 20.6261C13.5211 20.7423 13.2683 20.8629 13.0039 20.9964C13.0039 18.9591 12.8217 15.6062 10.6053 13.3906C8.38888 11.1751 5.03462 10.9964 3 10.9964C3.13601 10.7271 3.2585 10.4698 3.37659 10.2217C3.82562 9.27838 4.21106 8.46863 5.03462 7.64539C7.13555 5.54529 10.1127 4.85814 12.7861 5.57929L13.5173 4.82287L13.5234 4.81682ZM8.70581 9.79987L11.1069 7.31622C9.32124 7.19382 7.54499 7.89124 6.31903 9.19395C7.13153 9.2938 7.9341 9.49576 8.70581 9.79987ZM16.6821 12.889L14.1973 15.289C14.5016 16.0605 14.7037 16.8629 14.8036 17.6752C16.1069 16.4497 16.8046 14.674 16.6821 12.889ZM7.00158 13.1819C5.00079 14.9964 4.00039 16.9964 3 20.9966C7.00158 19.9964 9.00236 18.9964 10.8177 16.9964C10.2958 15.1603 8.8385 13.7036 7.00158 13.1819Z" fill="black"/>
</svg>
