<svg width="24" height="24" viewBox="0 0 24 24" fill="none" xmlns="http://www.w3.org/2000/svg">
<path fill-rule="evenodd" clip-rule="evenodd" d="M16.0064 8.00001C16.0064 6.1621 15.0912 4.8892 14.2657 3.92606C13.6081 3.15887 12.8427 2.55748 12.0064 2C11.1702 2.55748 10.4048 3.15887 9.74718 3.92606C8.92163 4.8892 8.00643 6.1621 8.00643 8.00001L8 8.95622C5.61038 10.3385 4 12.9232 4 15.8857C4 17.3282 4.47807 18.5974 4.97635 19.9204C4.98634 19.9469 4.99634 19.9734 5.00635 20C6.89178 17.8194 8.98898 16.0107 12 16.0107C15.0994 16.0107 17.1086 17.8302 19.0064 20C19.0217 19.9583 19.0371 19.9167 19.0524 19.8752C19.5347 18.5682 20 17.3073 20 15.8857C20 12.9232 18.3896 10.3385 16 8.95622L16.0064 8.00001ZM16 11.4133V14.8667C16.7161 15.1892 17.3859 15.5954 17.9971 16.0728C18.0509 14.3124 17.3128 12.5883 16 11.4133ZM8 14.8667V11.4133C6.68717 12.5883 5.9491 14.3124 6.00285 16.0728C6.61406 15.5954 7.2839 15.1892 8 14.8667ZM15.0063 19C13.6312 19.7071 12.412 20.5989 12.0063 22C11.6006 20.5989 10.3815 19.7071 9.00635 19C9.50635 18.5 10.9135 18 12.0063 18C13.0992 18 14.5063 18.5 15.0063 19Z" fill="black"/>
</svg>
