<svg width="24" height="24" viewBox="0 0 24 24" fill="none" xmlns="http://www.w3.org/2000/svg">
<path fill-rule="evenodd" clip-rule="evenodd" d="M17.2858 3.09894C18.4922 2.94162 19.6732 2.98876 20.8775 3.12264C21.0113 4.32694 21.0584 5.50799 20.901 6.71445C20.7123 8.16107 20.2132 10.0409 18.9031 11.4898L16.9781 19.0031L11.9859 21L10.1365 15.5705L8.42948 13.8635L3 12.014L4.99687 7.02173L12.5104 5.09673C13.9593 3.78665 15.8392 3.28756 17.2858 3.09894ZM9.90106 7.82259C9.00058 8.98643 8.5166 10.1035 8.26118 11.013C8.20392 11.2169 8.15829 11.4098 8.12203 11.5898L5.65188 10.7413L6.50495 8.69401L9.90106 7.82259ZM12.4102 15.8781L13.2556 18.3393L15.3089 17.4901L16.1744 14.1014C15.0116 15.0005 13.8956 15.4838 12.9869 15.739C12.783 15.7962 12.5902 15.8418 12.4102 15.8781ZM3 16.7776L5.83308 14.754L6.99374 16.3789L4.16066 18.4026L3 16.7776ZM6.42852 19.0031L7.63516 16.9918L9.34751 18.0191L8.14088 20.0304L6.42852 19.0031ZM16 9C16.5523 9 17 8.55228 17 8C17 7.44772 16.5523 7 16 7C15.4477 7 15 7.44772 15 8C15 8.55228 15.4477 9 16 9Z" fill="black"/>
</svg>
