<svg width="24" height="24" viewBox="0 0 24 24" fill="none" xmlns="http://www.w3.org/2000/svg">
<path fill-rule="evenodd" clip-rule="evenodd" d="M12 2C11.1143 2.59032 10.3432 3.24382 9.7 4.10122C8.89231 5.17782 8.07889 6.58257 8.00535 8.69315L4 15.0021L6 19.0009L11.1925 17.0015H12.8074L18 19.0009L20 15.0021L15.9946 8.69315C15.921 6.58257 15.1077 5.17782 14.3 4.10122C13.6568 3.24382 12.8858 2.59032 12 2ZM15.939 12.2143C15.7742 13.7869 15.2953 14.8899 14.778 15.6361L17 16.5017L17.6989 15.1405L15.939 12.2143ZM9.22192 15.6361C8.70465 14.8899 8.22574 13.7869 8.06092 12.2143L6.29428 15.1519L7 16.5017L9.22192 15.6361ZM9 21.6713L9.51356 18.8366L11.4863 19.1653L11 22L9 21.6713ZM13 22L12.5136 19.1653L14.4863 18.8366L14.9728 21.6713L13 22Z" fill="black"/>
</svg>
