<svg width="24" height="24" viewBox="0 0 24 24" fill="none" xmlns="http://www.w3.org/2000/svg">
<path fill-rule="evenodd" clip-rule="evenodd" d="M16.0001 8.00001C16.0001 6.1621 15.0849 4.8892 14.2593 3.92606C13.6017 3.15887 12.8363 2.55748 12.0001 2C11.1639 2.55748 10.3984 3.15887 9.74083 3.92606C8.91528 4.8892 8.00008 6.1621 8.00008 8.00001L7.99365 8.95622C5.60403 10.3385 3.99365 12.9232 3.99365 15.8857C3.99365 17.3282 4.47172 18.5974 4.97 19.9204C4.98 19.9469 4.99 19.9734 5 20C6.88543 17.8194 8.98263 16.0107 11.9937 16.0107C15.0931 16.0107 17.1022 17.8302 19 20C19.0154 19.9583 19.0307 19.9167 19.0461 19.8752C19.5283 18.5682 19.9937 17.3073 19.9937 15.8857C19.9937 12.9232 18.3833 10.3385 15.9937 8.95622L16.0001 8.00001ZM15.9937 11.4133V14.8667C16.7098 15.1892 17.3796 15.5954 17.9908 16.0728C18.0445 14.3124 17.3065 12.5883 15.9937 11.4133ZM13.9937 14.2163L14.0001 8.00001C14.0001 6.83791 13.4153 6.0145 12.7408 5.22764C12.4814 4.92498 12.2207 4.67199 12.0001 4.47672C11.7794 4.67199 11.5188 4.92498 11.2593 5.22764C10.5849 6.0145 10.0001 6.83791 10.0001 8.00001L9.99365 14.2163C10.6398 14.0815 11.3088 14.0107 11.9937 14.0107C12.6785 14.0107 13.3476 14.0815 13.9937 14.2163ZM7.99365 14.8667V11.4133C6.68082 12.5883 5.94275 14.3124 5.99651 16.0728C6.60771 15.5954 7.27755 15.1892 7.99365 14.8667ZM15 19C13.6249 19.7071 12.4057 20.5989 12 22C11.5943 20.5989 10.3751 19.7071 9 19C9.5 18.5 10.9071 18 12 18C13.0929 18 14.5 18.5 15 19Z" fill="black"/>
</svg>
