<svg width="24" height="24" viewBox="0 0 24 24" fill="none" xmlns="http://www.w3.org/2000/svg">
<path fill-rule="evenodd" clip-rule="evenodd" d="M8.33311 6.35739C9.78272 4.90264 11.7855 4.00415 14 4.00415C16.2146 4.00415 18.2174 4.90264 19.667 6.35739L21.0837 4.94568C19.2742 3.12974 16.7676 2.00415 14 2.00415C11.2325 2.00415 8.72592 3.12974 6.9164 4.94568L8.33311 6.35739ZM10.4569 8.47619C11.3634 7.56581 12.6152 7.00415 14 7.00415C15.3848 7.00415 16.6366 7.56581 17.5431 8.47619L18.9603 7.06499C17.6938 5.79313 15.9381 5.00415 14 5.00415C12.0619 5.00415 10.3062 5.79313 9.03968 7.06499L10.4569 8.47619ZM14 8.00415C14.5523 8.00415 15 8.45187 15 9.00415V12.0042H20C21.1046 12.0042 22 12.8996 22 14.0042V18.0042C22 19.1087 21.1046 20.0042 20 20.0042H4C2.89543 20.0042 2 19.1087 2 18.0042V14.0042C2 12.8996 2.89543 12.0042 4 12.0042H13V9.00415C13 8.45187 13.4477 8.00415 14 8.00415ZM14 17.0042C14.5523 17.0042 15 16.5564 15 16.0042C15 15.4519 14.5523 15.0042 14 15.0042C13.4477 15.0042 13 15.4519 13 16.0042C13 16.5564 13.4477 17.0042 14 17.0042ZM11 16.0042C11 16.5564 10.5523 17.0042 10 17.0042C9.44772 17.0042 9 16.5564 9 16.0042C9 15.4519 9.44772 15.0042 10 15.0042C10.5523 15.0042 11 15.4519 11 16.0042ZM6 17.0042C6.55228 17.0042 7 16.5564 7 16.0042C7 15.4519 6.55228 15.0042 6 15.0042C5.44772 15.0042 5 15.4519 5 16.0042C5 16.5564 5.44772 17.0042 6 17.0042Z" fill="black"/>
</svg>
