<svg width="24" height="24" viewBox="0 0 24 24" fill="none" xmlns="http://www.w3.org/2000/svg">
<path fill-rule="evenodd" clip-rule="evenodd" d="M8.33305 6.35324C9.78266 4.89849 11.7855 4 14 4C16.2145 4 18.2173 4.89849 19.6669 6.35324L21.0836 4.94153C19.2741 3.12559 16.7675 2 14 2C11.2324 2 8.72586 3.12559 6.91634 4.94153L8.33305 6.35324ZM10.4569 8.47204C11.3634 7.56166 12.6152 7 14 7C15.3848 7 16.6366 7.56166 17.5431 8.47204L18.9603 7.06084C17.6938 5.78898 15.9381 5 14 5C12.0619 5 10.3062 5.78898 9.03968 7.06084L10.4569 8.47204ZM15 9C15 8.44771 14.5523 8 14 8C13.4477 8 13 8.44771 13 9V12H4C2.89543 12 2 12.8954 2 14V18C2 19.1046 2.89543 20 4 20H20C21.1046 20 22 19.1046 22 18V14C22 12.8954 21.1046 12 20 12H15V9ZM20 14H4V18H20V14ZM14 17C14.5523 17 15 16.5523 15 16C15 15.4477 14.5523 15 14 15C13.4477 15 13 15.4477 13 16C13 16.5523 13.4477 17 14 17ZM11 16C11 16.5523 10.5523 17 10 17C9.44771 17 9 16.5523 9 16C9 15.4477 9.44771 15 10 15C10.5523 15 11 15.4477 11 16ZM6 17C6.55228 17 7 16.5523 7 16C7 15.4477 6.55228 15 6 15C5.44772 15 5 15.4477 5 16C5 16.5523 5.44772 17 6 17Z" fill="black"/>
</svg>
