<svg width="24" height="24" viewBox="0 0 24 24" fill="none" xmlns="http://www.w3.org/2000/svg">
<path fill-rule="evenodd" clip-rule="evenodd" d="M5 3C3.89543 3 3 3.89543 3 5V19C3 20.1046 3.89543 21 5 21H19C20.1046 21 21 20.1046 21 19V5C21 3.89543 20.1046 3 19 3H5ZM7.5 18C8.32843 18 9 17.3284 9 16.5C9 15.6716 8.32843 15 7.5 15C6.67157 15 6 15.6716 6 16.5C6 17.3284 6.67157 18 7.5 18ZM6.5 11H7.5C10.5376 11 13 13.4624 13 16.5V17.5H11V16.5C11 14.567 9.433 13 7.5 13H6.5V11ZM7.5 7H6.5V9H7.5C11.6421 9 15 12.3579 15 16.5V17.5H17V16.5C17 11.2533 12.7467 7 7.5 7Z" fill="black"/>
</svg>
