<svg width="24" height="24" viewBox="0 0 24 24" fill="none" xmlns="http://www.w3.org/2000/svg">
<path fill-rule="evenodd" clip-rule="evenodd" d="M5 3C3.34315 3 2 4.34315 2 6V16C2 17.6569 3.34315 19 5 19H5.94824V21H7.94824V19H15.9482V21H17.9482V19H19C20.6569 19 22 17.6569 22 16V6C22 4.34315 20.6569 3 19 3H5ZM12.9482 11C12.9482 10.4477 13.396 10 13.9482 10C14.5005 10 14.9482 10.4477 14.9482 11C14.9482 11.5523 14.5005 12 13.9482 12C13.396 12 12.9482 11.5523 12.9482 11ZM13.9482 8C13.4851 8 13.0465 8.10495 12.6548 8.29237L11.1553 6.79289L9.74114 8.20711L11.2406 9.70658C11.0532 10.0982 10.9482 10.5369 10.9482 11C10.9482 11.4631 11.0532 11.9018 11.2406 12.2934L9.74114 13.7929L11.1553 15.2071L12.6548 13.7076C13.0465 13.895 13.4851 14 13.9482 14C14.4114 14 14.85 13.895 15.2417 13.7076L16.7411 15.2071L18.1553 13.7929L16.6559 12.2934C16.8433 11.9018 16.9482 11.4631 16.9482 11C16.9482 10.5369 16.8433 10.0982 16.6559 9.70658L18.1553 8.20711L16.7411 6.79289L15.2417 8.29237C14.85 8.10495 14.4114 8 13.9482 8ZM6.94824 10C7.50053 10 7.94824 9.55228 7.94824 9C7.94824 8.44772 7.50053 8 6.94824 8C6.39596 8 5.94824 8.44772 5.94824 9C5.94824 9.55228 6.39596 10 6.94824 10ZM7.94824 13C7.94824 13.5523 7.50053 14 6.94824 14C6.39596 14 5.94824 13.5523 5.94824 13C5.94824 12.4477 6.39596 12 6.94824 12C7.50053 12 7.94824 12.4477 7.94824 13Z" fill="black"/>
</svg>
