<svg width="24" height="24" viewBox="0 0 24 24" fill="none" xmlns="http://www.w3.org/2000/svg">
<path fill-rule="evenodd" clip-rule="evenodd" d="M5.00778 3C3.34663 3 2 4.34315 2 6V16C2 17.6569 3.34663 19 5.00778 19H5.95849V21H7.96368V19H15.9844V21H17.9896V19H18.9922C20.6534 19 22 17.6569 22 16V6C22 4.34315 20.6534 3 18.9922 3H5.00778ZM4.00519 6C4.00519 5.44772 4.45407 5 5.00778 5H18.9922C19.5459 5 19.9948 5.44772 19.9948 6V16C19.9948 16.5523 19.5459 17 18.9922 17H5.00778C4.45407 17 4.00519 16.5523 4.00519 16V6ZM11.2646 9.70658L9.76122 8.20711L11.1791 6.79289L12.6825 8.29237C13.0751 8.10495 13.5149 8 13.9792 8C14.4436 8 14.8834 8.10495 15.276 8.29237L16.7794 6.79289L18.1973 8.20711L16.6939 9.70658C16.8818 10.0982 16.987 10.5369 16.987 11C16.987 11.4631 16.8818 11.9018 16.6939 12.2934L18.1973 13.7929L16.7794 15.2071L15.276 13.7076C14.8834 13.895 14.4436 14 13.9792 14C13.5149 14 13.0751 13.895 12.6825 13.7076L11.1791 15.2071L9.76122 13.7929L11.2646 12.2934C11.0767 11.9018 10.9715 11.4631 10.9715 11C10.9715 10.5369 11.0767 10.0982 11.2646 9.70658ZM12.9766 11C12.9766 10.4477 13.4255 10 13.9792 10C14.533 10 14.9818 10.4477 14.9818 11C14.9818 11.5523 14.533 12 13.9792 12C13.4255 12 12.9766 11.5523 12.9766 11ZM7.96368 9C7.96368 9.55228 7.5148 10 6.96108 10C6.40736 10 5.95849 9.55228 5.95849 9C5.95849 8.44771 6.40736 8 6.96108 8C7.5148 8 7.96368 8.44771 7.96368 9ZM6.96108 14C7.5148 14 7.96368 13.5523 7.96368 13C7.96368 12.4477 7.5148 12 6.96108 12C6.40736 12 5.95849 12.4477 5.95849 13C5.95849 13.5523 6.40736 14 6.96108 14Z" fill="black"/>
</svg>
