<svg width="24" height="24" viewBox="0 0 24 24" fill="none" xmlns="http://www.w3.org/2000/svg">
<path fill-rule="evenodd" clip-rule="evenodd" d="M7 2C5.34315 2 4 3.34315 4 5V17C4 18.2868 4.81017 19.3844 5.94824 19.8105V22H7.94824V20H15.9482V22H17.9482V19.8471C19.1404 19.4502 20 18.3255 20 17V5C20 3.34315 18.6569 2 17 2H7ZM6 5C6 4.44772 6.44772 4 7 4H17C17.5523 4 18 4.44772 18 5V17C18 17.5523 17.5523 18 17 18H7C6.44772 18 6 17.5523 6 17V5ZM13.2672 8.27998L14.802 6.78392L16.198 8.21608L14.6952 9.68097C14.8904 10.0791 15 10.5267 15 11C15 11.4733 14.8904 11.9209 14.6952 12.319L16.198 13.7839L14.802 15.2161L13.2672 13.72C12.8822 13.8997 12.4528 14 12 14C11.5265 14 11.0786 13.8903 10.6803 13.6949L9.21631 15.1978L7.78369 13.8022L9.27966 12.2665C9.10021 11.8817 9 11.4526 9 11C9 10.5474 9.10021 10.1183 9.27966 9.73349L7.78369 8.19778L9.21631 6.80222L10.6803 8.30511C11.0786 8.10971 11.5265 8 12 8C12.4528 8 12.8822 8.10033 13.2672 8.27998ZM11 11C11 10.4477 11.4477 10 12 10C12.5523 10 13 10.4477 13 11C13 11.5523 12.5523 12 12 12C11.4477 12 11 11.5523 11 11Z" fill="black"/>
</svg>
