<svg width="24" height="24" viewBox="0 0 24 24" fill="none" xmlns="http://www.w3.org/2000/svg">
<path fill-rule="evenodd" clip-rule="evenodd" d="M7 2C5.34315 2 4 3.34315 4 5V17C4 18.2868 4.81017 19.3844 5.94824 19.8105V22H7.94824V20H15.9482V22H17.9482V19.8471C19.1404 19.4502 20 18.3255 20 17V5C20 3.34315 18.6569 2 17 2H7ZM10.9482 11C10.9482 10.4477 11.396 10 11.9482 10C12.5005 10 12.9482 10.4477 12.9482 11C12.9482 11.5523 12.5005 12 11.9482 12C11.396 12 10.9482 11.5523 10.9482 11ZM11.9482 8C11.4851 8 11.0465 8.10495 10.6548 8.29237L9.15535 6.79289L7.74114 8.20711L9.24061 9.70658C9.05319 10.0982 8.94824 10.5369 8.94824 11C8.94824 11.4631 9.05319 11.9018 9.24061 12.2934L7.74114 13.7929L9.15535 15.2071L10.6548 13.7076C11.0465 13.895 11.4851 14 11.9482 14C12.4114 14 12.85 13.895 13.2417 13.7076L14.7411 15.2071L16.1553 13.7929L14.6559 12.2934C14.8433 11.9018 14.9482 11.4631 14.9482 11C14.9482 10.5369 14.8433 10.0982 14.6559 9.70658L16.1553 8.20711L14.7411 6.79289L13.2417 8.29237C12.85 8.10495 12.4114 8 11.9482 8Z" fill="black"/>
</svg>
