<svg width="24" height="24" viewBox="0 0 24 24" fill="none" xmlns="http://www.w3.org/2000/svg">
<path fill-rule="evenodd" clip-rule="evenodd" d="M7 5C5.89543 5 5 5.89543 5 7C5 8.10457 5.89543 9 7 9C8.10457 9 9 8.10457 9 7C9 5.89543 8.10457 5 7 5ZM3 7C3 4.79086 4.79086 3 7 3C9.20914 3 11 4.79086 11 7C11 7.63229 10.8533 8.23032 10.5921 8.7619L12.8333 10.6829L19.6984 4.7985L21 6.31701L14.3698 12L21 17.683L19.6984 19.2015L12.8333 13.3171L10.5921 15.2381C10.8533 15.7697 11 16.3677 11 17C11 19.2091 9.20914 21 7 21C4.79086 21 3 19.2091 3 17C3 14.7909 4.79086 13 7 13C7.85174 13 8.6413 13.2662 9.29002 13.72L11.2967 12L9.29002 10.28C8.6413 10.7338 7.85174 11 7 11C4.79086 11 3 9.20914 3 7ZM5 17C5 15.8954 5.89543 15 7 15C8.10457 15 9 15.8954 9 17C9 18.1046 8.10457 19 7 19C5.89543 19 5 18.1046 5 17Z" fill="black"/>
</svg>
