<svg width="24" height="24" viewBox="0 0 24 24" fill="none" xmlns="http://www.w3.org/2000/svg">
<path fill-rule="evenodd" clip-rule="evenodd" d="M13.7768 4.89125C14.5315 4.53929 15.271 4.15086 15.9941 3.73807L15.9987 3.73547L16 3.73471C16.0046 3.73203 15.0046 2.00001 15.0046 2.00001L15.0009 2.00214C13.055 3.11305 10.924 3.8851 8.74505 4.39152L8.7409 4.39248L8.73987 4.39272L9.18872 6.3417L9.19087 6.3412L9.19632 6.33994C10.1078 6.12641 11.0162 5.89125 11.91 5.61259L14.9667 12.7942C14.3723 13.3424 14 14.1277 14 15C14 15.0412 14.0008 15.0822 14.0025 15.123L9.25527 17.0216C8.70544 16.3953 7.89889 16 7 16C5.34315 16 4 17.3431 4 19C4 20.6569 5.34315 22 7 22H20V20H9.82929C9.93985 19.6872 10 19.3506 10 19C10 18.9594 9.99919 18.919 9.99759 18.8788L14.7459 16.9797C15.2957 17.6052 16.1017 18 17 18C18.6569 18 20 16.6569 20 15C20 13.3431 18.6569 12 17 12C16.9345 12 16.8694 12.0021 16.8049 12.0062L13.7768 4.89125ZM9.34189 11.0257L9 10L8.65811 11.0257C8.55858 11.3243 8.32426 11.5586 8.02566 11.6581L7 12L8.02566 12.3419C8.32426 12.4414 8.55858 12.6757 8.65811 12.9743L9 14L9.34189 12.9743C9.44142 12.6757 9.67574 12.4414 9.97434 12.3419L11 12L9.97434 11.6581C9.67574 11.5586 9.44142 11.3243 9.34189 11.0257Z" fill="black"/>
</svg>
