<svg width="24" height="24" viewBox="0 0 24 24" fill="none" xmlns="http://www.w3.org/2000/svg">
<path fill-rule="evenodd" clip-rule="evenodd" d="M13.7845 4.88546C14.5387 4.53334 15.2765 4.14372 16 3.73251L15.0009 1.99994C13.0376 3.12084 10.9401 3.87912 8.74508 4.38932L8.7399 4.39052L9.18875 6.3395C10.1057 6.12761 11.0191 5.88847 11.9176 5.60806L15.0235 12.7428C14.3498 13.3329 13.972 14.201 14.0013 15.098L9.27205 17.0398C8.46971 16.1105 7.14208 15.7348 5.92912 16.1986C4.38154 16.7903 3.60668 18.5246 4.19842 20.0722C4.66752 21.299 5.85462 22.0402 7.09753 22H20V20H9.82932C9.95252 19.6518 10.0121 19.28 9.99979 18.903L14.7291 16.9612C15.5314 17.8905 16.859 18.2662 18.072 17.8024C19.6196 17.2107 20.3944 15.4764 19.8027 13.9288C19.3309 12.695 18.133 11.9524 16.8824 12.0018L13.7845 4.88546ZM7.00003 20H7.04577C7.14989 19.9953 7.25503 19.9741 7.35771 19.9348C7.87357 19.7375 8.13186 19.1595 7.93461 18.6436C7.73737 18.1277 7.15928 17.8695 6.64342 18.0667C6.12756 18.2639 5.86927 18.842 6.06652 19.3579C6.21874 19.756 6.5978 20.0007 7.00003 20.001V20ZM17.9346 14.6431C17.7373 14.1273 17.1593 13.869 16.6434 14.0662C16.1275 14.2635 15.8692 14.8416 16.0665 15.3574C16.2637 15.8733 16.8418 16.1316 17.3577 15.9343C17.8736 15.7371 18.1318 15.159 17.9346 14.6431ZM9.34192 11.0257L9.00003 10L8.65814 11.0257C8.55861 11.3243 8.32429 11.5586 8.02569 11.6581L7.00003 12L8.02569 12.3419C8.32429 12.4414 8.55861 12.6757 8.65814 12.9743L9.00003 14L9.34192 12.9743C9.44145 12.6757 9.67577 12.4414 9.97437 12.3419L11 12L9.97437 11.6581C9.67577 11.5586 9.44145 11.3243 9.34192 11.0257Z" fill="black"/>
</svg>
