<svg width="24" height="24" viewBox="0 0 24 24" fill="none" xmlns="http://www.w3.org/2000/svg">
<path fill-rule="evenodd" clip-rule="evenodd" d="M4 9.5C4 6.46243 6.46243 4 9.5 4C12.5376 4 15 6.46243 15 9.5C15 12.5376 12.5376 15 9.5 15C6.46243 15 4 12.5376 4 9.5ZM9.5 2C5.35786 2 2 5.35786 2 9.5C2 13.6421 5.35786 17 9.5 17C11.2105 17 12.7873 16.4274 14.0491 15.4633L15 16.4142V18L19 22L21 21L22 19L18 15H16.4142L15.4633 14.0491C16.4274 12.7873 17 11.2105 17 9.5C17 5.35786 13.6421 2 9.5 2ZM9.49996 13C9.49996 13 6.80404 10.4049 6.49996 10.0002C6.29066 9.72162 6.16663 9.37532 6.16663 9.00004C6.16663 8.07957 6.91282 7.33337 7.83329 7.33337C8.53099 7.33337 9.01522 7.7964 9.50298 8.23417C9.98707 7.79366 10.4699 7.33337 11.1666 7.33337C12.0871 7.33337 12.8333 8.07957 12.8333 9.00004C12.8333 9.37532 12.7093 9.72162 12.5 10.0002C12.1959 10.4049 9.49996 13 9.49996 13Z" fill="black"/>
</svg>
