<svg width="24" height="24" viewBox="0 0 24 24" fill="none" xmlns="http://www.w3.org/2000/svg">
<path fill-rule="evenodd" clip-rule="evenodd" d="M14.0491 15.4633C12.7873 16.4274 11.2105 17 9.5 17C5.35786 17 2 13.6421 2 9.5C2 5.35786 5.35786 2 9.5 2C13.6421 2 17 5.35786 17 9.5C17 11.2105 16.4274 12.7873 15.4633 14.0491L16.4142 15H18L22 19L21 21L19 22L15 18V16.4142L14.0491 15.4633ZM6.5 10.0002C6.80408 10.4049 9.5 13 9.5 13C9.5 13 12.1959 10.4049 12.5 10.0002C12.7093 9.72158 12.8333 9.37527 12.8333 9C12.8333 8.07953 12.0871 7.33333 11.1667 7.33333C10.7914 7.33333 10.4451 7.45736 10.1665 7.66667C9.93774 7.83854 9.50302 8.23412 9.50302 8.23412C9.50302 8.23412 9.06226 7.83854 8.8335 7.66667C8.55491 7.45736 8.20861 7.33333 7.83333 7.33333C6.91286 7.33333 6.16667 8.07953 6.16667 9C6.16667 9.37527 6.2907 9.72158 6.5 10.0002Z" fill="black"/>
</svg>
