<svg width="24" height="24" viewBox="0 0 24 24" fill="none" xmlns="http://www.w3.org/2000/svg">
<path fill-rule="evenodd" clip-rule="evenodd" d="M21 2L2 9L8 13L14 8L15 9L9.5 14.5L11.5297 16.8988C11.8313 13.8674 14.3892 11.5 17.5 11.5C17.6662 11.5 17.8309 11.5068 17.9937 11.52L21 2ZM22 17.5C22 19.9853 19.9853 22 17.5 22C15.0147 22 13 19.9853 13 17.5C13 15.0147 15.0147 13 17.5 13C19.9853 13 22 15.0147 22 17.5ZM20.0303 16.5303L17.5303 19.0303L17 19.5607L16.4697 19.0303L14.9697 17.5303L16.0303 16.4697L17 17.4393L18.9697 15.4697L20.0303 16.5303Z" fill="black"/>
</svg>
