<svg width="24" height="24" viewBox="0 0 24 24" fill="none" xmlns="http://www.w3.org/2000/svg">
<path fill-rule="evenodd" clip-rule="evenodd" d="M10.0673 14.3469L11.64 16.2056C11.5483 16.6224 11.5 17.0556 11.5 17.5C11.5 18.2273 11.6294 18.9243 11.8664 19.5694L8 15L2 10V8L21 2L18.3054 11.5536C18.042 11.5182 17.7731 11.5 17.5 11.5C17.0546 11.5 16.6206 11.5485 16.2028 11.6406L17.55 6.8642L10.0673 14.3469ZM15.8677 5.71808L4.35029 9.35516L8.64866 12.9371L15.8677 5.71808ZM22 17.5C22 19.9853 19.9853 22 17.5 22C15.0147 22 13 19.9853 13 17.5C13 15.0147 15.0147 13 17.5 13C19.9853 13 22 15.0147 22 17.5ZM14.9697 18.9697L18.9697 14.9697L20.0303 16.0303L16.0303 20.0303L14.9697 18.9697Z" fill="black"/>
</svg>
