<svg width="24" height="24" viewBox="0 0 24 24" fill="none" xmlns="http://www.w3.org/2000/svg">
<path fill-rule="evenodd" clip-rule="evenodd" d="M6.26184 5.5347C6.03173 5.76787 6 5.92395 6 6C6 6.07605 6.03173 6.23213 6.26184 6.4653C6.4962 6.70277 6.8849 6.96249 7.44417 7.20218C8.55915 7.68002 10.1692 8 12 8C13.8308 8 15.4409 7.68002 16.5558 7.20218C17.1151 6.96249 17.5038 6.70277 17.7382 6.4653C17.9683 6.23213 18 6.07605 18 6C18 5.92395 17.9683 5.76787 17.7382 5.5347C17.5038 5.29723 17.1151 5.03751 16.5558 4.79782C15.4409 4.31998 13.8308 4 12 4C10.1692 4 8.55915 4.31998 7.44417 4.79782C6.8849 5.03751 6.4962 5.29723 6.26184 5.5347ZM18 8.72232C17.7906 8.8372 17.5708 8.94313 17.3437 9.04047C15.9251 9.6484 14.0352 10 12 10C9.96482 10 8.07486 9.6484 6.65633 9.04047C6.42923 8.94313 6.20944 8.8372 6 8.72232V12C6 12.076 6.03173 12.2321 6.26184 12.4653C6.4962 12.7028 6.8849 12.9625 7.44417 13.2022C8.55915 13.68 10.1692 14 12 14C13.8308 14 15.4409 13.68 16.5558 13.2022C17.1151 12.9625 17.5038 12.7028 17.7382 12.4653C17.9683 12.2321 18 12.076 18 12V8.72232ZM20 6C20 5.24762 19.64 4.61449 19.1617 4.12983C18.6876 3.64947 18.0512 3.26274 17.3437 2.95953C15.9251 2.3516 14.0352 2 12 2C9.96482 2 8.07486 2.3516 6.65633 2.95953C5.94885 3.26274 5.31243 3.64947 4.83835 4.12983C4.36003 4.61449 4 5.24762 4 6V18C4 18.7524 4.36003 19.3855 4.83835 19.8702C5.31243 20.3505 5.94885 20.7373 6.65633 21.0405C8.07486 21.6484 9.96482 22 12 22C14.0352 22 15.9251 21.6484 17.3437 21.0405C18.0512 20.7373 18.6876 20.3505 19.1617 19.8702C19.64 19.3855 20 18.7524 20 18V6ZM18 14.7223C17.7906 14.8372 17.5708 14.9431 17.3437 15.0405C15.9251 15.6484 14.0352 16 12 16C9.96482 16 8.07486 15.6484 6.65633 15.0405C6.42923 14.9431 6.20944 14.8372 6 14.7223V18C6 18.076 6.03173 18.2321 6.26184 18.4653C6.4962 18.7028 6.8849 18.9625 7.44417 19.2022C8.55915 19.68 10.1692 20 12 20C13.8308 20 15.4409 19.68 16.5558 19.2022C17.1151 18.9625 17.5038 18.7028 17.7382 18.4653C17.9683 18.2321 18 18.076 18 18V14.7223Z" fill="black"/>
</svg>
