<svg width="25" height="24" viewBox="0 0 25 24" fill="none" xmlns="http://www.w3.org/2000/svg">
<path fill-rule="evenodd" clip-rule="evenodd" d="M12.02 2C9.98484 2 8.09488 2.3516 6.67635 2.95953C5.96887 3.26274 5.33245 3.64947 4.85837 4.12983C4.38005 4.61449 4.02002 5.24762 4.02002 6C4.02002 6.85264 4.6539 7.83482 6.1417 8.66138C7.59563 9.46911 9.67197 10 12.02 10C14.3681 10 16.4444 9.46911 17.8983 8.66138C19.3861 7.83482 20.02 6.85264 20.02 6C20.02 5.24762 19.66 4.61449 19.1817 4.12983C18.7076 3.64947 18.0712 3.26274 17.3637 2.95953C15.9452 2.3516 14.0552 2 12.02 2ZM20.02 9.64574C19.6654 9.92767 19.2778 10.1829 18.8696 10.4097C17.0662 11.4116 14.6425 12 12.02 12C9.39751 12 6.97385 11.4116 5.17042 10.4097C4.7622 10.1829 4.37468 9.92767 4.02002 9.64574V12C4.02002 12.8526 4.6539 13.8348 6.1417 14.6614C7.59563 15.4691 9.67197 16 12.02 16C14.3681 16 16.4444 15.4691 17.8983 14.6614C19.3861 13.8348 20.02 12.8526 20.02 12V9.64574ZM20.02 15.6457C19.6654 15.9277 19.2778 16.1829 18.8696 16.4097C17.0662 17.4116 14.6425 18 12.02 18C9.39751 18 6.97385 17.4116 5.17042 16.4097C4.7622 16.1829 4.37468 15.9277 4.02002 15.6457V18C4.02002 18.7524 4.38004 19.3855 4.85837 19.8702C5.33245 20.3505 5.96887 20.7373 6.67635 21.0405C8.09488 21.6484 9.98484 22 12.02 22C14.0552 22 15.9452 21.6484 17.3637 21.0405C18.0712 20.7373 18.7076 20.3505 19.1817 19.8702C19.66 19.3855 20.02 18.7524 20.02 18V15.6457Z" fill="black"/>
</svg>
