<svg width="24" height="24" viewBox="0 0 24 24" fill="none" xmlns="http://www.w3.org/2000/svg">
<path fill-rule="evenodd" clip-rule="evenodd" d="M17 8C18.6569 8 20 6.65685 20 5C20 3.34315 18.6569 2 17 2C15.3431 2 14 3.34315 14 5C14 5.2782 14.0379 5.54755 14.1087 5.80318L8.74384 9.55861C8.25241 9.20696 7.65037 9 7 9C5.34315 9 4 10.3431 4 12C4 13.6569 5.34315 15 7 15C7.65037 15 8.25241 14.793 8.74384 14.4414L14.1087 18.1968C14.0379 18.4524 14 18.7218 14 19C14 20.6569 15.3431 22 17 22C18.6569 22 20 20.6569 20 19C20 17.3431 18.6569 16 17 16C16.3496 16 15.7475 16.207 15.2561 16.5587L9.89125 12.8033C9.96212 12.5476 10 12.2782 10 12C10 11.7218 9.96212 11.4524 9.89125 11.1967L15.2561 7.44134C15.7475 7.79302 16.3496 8 17 8Z" fill="black"/>
</svg>
