<svg width="24" height="24" viewBox="0 0 24 24" fill="none" xmlns="http://www.w3.org/2000/svg">
<path fill-rule="evenodd" clip-rule="evenodd" d="M20 5.34056L12 2L4 5.34056V5.99996C4 13.1984 6.07304 18.4438 11.4855 21.6913L12 22L12.5145 21.6913C17.927 18.4438 20 13.1984 20 5.99996V5.34056ZM12 19.6526C7.9251 16.9639 6.12336 12.8436 6.00614 6.65672L12 4.17594L17.9939 6.65672C17.8766 12.8436 16.0749 16.9639 12 19.6526ZM8.97546 9.40572L10.572 10.9975L8.9956 12.5802L10.4035 13.9905L11.9832 12.4045L13.5725 13.989L14.9755 12.5738L13.3895 10.9925L14.9724 9.40326L13.5646 7.99293L11.9783 9.58557L10.3784 7.99048L8.97546 9.40572Z" fill="black"/>
</svg>
