<svg width="24" height="24" viewBox="0 0 24 24" fill="none" xmlns="http://www.w3.org/2000/svg">
<path fill-rule="evenodd" clip-rule="evenodd" d="M20 5.38555L12 2L4 5.38555V6.03667C4 13.1448 6.07304 18.4884 11.4855 21.6952L12 22L12.5145 21.6952C17.927 18.4884 20 13.1448 20 6.03667V5.38555ZM10.5703 7.56202C10.5329 7.26359 10.7656 7 11.0664 7H12.9336C13.2344 7 13.4671 7.26359 13.4297 7.56202L13 11H11L10.5703 7.56202ZM13.5 13.5C13.5 14.3284 12.8284 15 12 15C11.1716 15 10.5 14.3284 10.5 13.5C10.5 12.6716 11.1716 12 12 12C12.8284 12 13.5 12.6716 13.5 13.5Z" fill="black"/>
</svg>
