<svg width="24" height="24" viewBox="0 0 24 24" fill="none" xmlns="http://www.w3.org/2000/svg">
<path fill-rule="evenodd" clip-rule="evenodd" d="M20 5.34056L12 2L4 5.34056V5.99996C4 13.1984 6.07304 18.4438 11.4855 21.6913L12 22L12.5145 21.6913C17.927 18.4438 20 13.1984 20 5.99996V5.34056ZM12 19.6526C7.9251 16.9639 6.12336 12.8436 6.00614 6.65672L12 4.17594L17.9939 6.65672C17.8766 12.8436 16.0749 16.9639 12 19.6526ZM14 10C14 10.8519 13.4674 11.5794 12.7169 11.8677L13.5 15H10.5L11.2831 11.8677C10.5326 11.5794 10 10.8519 10 10C10 8.89543 10.8954 8 12 8C13.1046 8 14 8.89543 14 10Z" fill="black"/>
</svg>
