<svg width="24" height="24" viewBox="0 0 24 24" fill="none" xmlns="http://www.w3.org/2000/svg">
<path fill-rule="evenodd" clip-rule="evenodd" d="M20 5.34056L12 2L4 5.34056V5.99996C4 13.1984 6.07304 18.4438 11.4855 21.6913L12 22L12.5145 21.6913C17.927 18.4438 20 13.1984 20 5.99996V5.34056ZM12 19.6526C7.9251 16.9639 6.12336 12.8436 6.00614 6.65672L12 4.17594L17.9939 6.65672C17.8766 12.8436 16.0749 16.9639 12 19.6526ZM10.5703 7.56202C10.5329 7.26359 10.7656 7 11.0664 7H12.9336C13.2344 7 13.4671 7.26359 13.4297 7.56202L13 11H11L10.5703 7.56202ZM13.5 13.5C13.5 14.3284 12.8284 15 12 15C11.1716 15 10.5 14.3284 10.5 13.5C10.5 12.6716 11.1716 12 12 12C12.8284 12 13.5 12.6716 13.5 13.5Z" fill="black"/>
</svg>
