<svg width="24" height="24" viewBox="0 0 24 24" fill="none" xmlns="http://www.w3.org/2000/svg">
<path fill-rule="evenodd" clip-rule="evenodd" d="M20.0062 5.34711L12.0062 2.00787L5.94955 4.53597L3.41421 2L2.70711 2.70683L2 3.41366L4.00624 5.42074V6.00625C4.00624 13.2019 6.07928 18.4452 11.4917 21.6914L12.0062 22L12.5207 21.6914C14.212 20.677 15.5773 19.4676 16.6551 18.0646L19.5882 21.0044L20.2953 20.2975L21.0024 19.5907L17.775 16.3568C19.3395 13.54 20.0062 10.0871 20.0062 6.00625V5.34711ZM16.2935 14.8759C17.3984 12.6593 17.9377 9.95344 18.0001 6.66276L12.0062 4.18295L7.47275 6.05857L16.2935 14.8759ZM6.03697 7.45066C6.28908 13.1994 8.10691 17.0816 12.0062 19.6535C13.3025 18.7986 14.3687 17.7988 15.2238 16.6339L6.03697 7.45066Z" fill="black"/>
</svg>
