<svg width="24" height="24" viewBox="0 0 24 24" fill="none" xmlns="http://www.w3.org/2000/svg">
<path fill-rule="evenodd" clip-rule="evenodd" d="M6 10C7.19469 10 8.26706 9.47623 9 8.64581C9.73294 9.47623 10.8053 10 12 10C13.1947 10 14.2671 9.47623 15 8.64581C15.7329 9.47623 16.8053 10 18 10C20.2091 10 22 8.20914 22 6L20 3H4L2 6C2 8.20914 3.79086 10 6 10ZM16 11.6581C16.6256 11.8794 17.2989 12 18 12C18.7013 12 19.3744 11.8797 20 11.6586V18H22V20H2V18H4V11.6586C4.62556 11.8797 5.29873 12 6 12C6.7011 12 7.3744 11.8794 8 11.6581V14.5391H16V11.6581Z" fill="black"/>
</svg>
