<svg width="24" height="24" viewBox="0 0 24 24" fill="none" xmlns="http://www.w3.org/2000/svg">
<path fill-rule="evenodd" clip-rule="evenodd" d="M5 3H4.46482L4.16795 3.4453L2.16795 6.4453L2 6.69722V7V8C2 9.48056 2.8044 10.7733 4 11.4649V18H2V20H5H19H22V18H20V16V15V11.4649C21.1956 10.7733 22 9.48056 22 8V7V6.69722L21.8321 6.4453L19.8321 3.4453L19.5352 3H19H5ZM18 12C16.8053 12 15.7329 11.4762 15 10.6458C14.4789 11.2362 13.7862 11.6716 13 11.874V14H18V12ZM11 11.874C10.2138 11.6716 9.5211 11.2362 9 10.6458C8.26706 11.4762 7.19469 12 6 12V18H18V16H12H11V15V11.874ZM10 8H8C8 9.10457 7.10457 10 6 10C4.89543 10 4 9.10457 4 8V7.30278L5.53518 5H18.4648L20 7.30278V8C20 9.10457 19.1046 10 18 10C16.8954 10 16 9.10457 16 8H14C14 9.10457 13.1046 10 12 10C10.8954 10 10 9.10457 10 8Z" fill="black"/>
</svg>
