<svg width="24" height="24" viewBox="0 0 24 24" fill="none" xmlns="http://www.w3.org/2000/svg">
<path fill-rule="evenodd" clip-rule="evenodd" d="M18 4V5.99981H17.2134C15.1826 5.99981 13.2896 7.02713 12.1828 8.72988L11.25 10.165L10.3172 8.73001C9.21044 7.02726 7.31742 5.99994 5.28657 5.99994H2V7.99994H5.28657C6.64047 7.99994 7.90248 8.68482 8.64035 9.81999L10.0573 11.9999L8.64035 14.1798C7.90248 15.3149 6.64047 15.9998 5.28657 15.9998H2V17.9998H5.28657C7.31742 17.9998 9.21044 16.9725 10.3172 15.2697L11.25 13.8348L12.1828 15.2699C13.2896 16.9726 15.1826 17.9999 17.2134 17.9999H18V19.9998H19L22 16.9998L19 13.9998H18V15.9999H17.2134C15.8595 15.9999 14.5975 15.3151 13.8597 14.1799L12.4426 11.9999L13.8597 9.81986C14.5975 8.68469 15.8595 7.99981 17.2134 7.99981H18V10H19L22 7L19 4H18Z" fill="black"/>
</svg>
