<svg width="24" height="24" viewBox="0 0 24 24" fill="none" xmlns="http://www.w3.org/2000/svg">
<path fill-rule="evenodd" clip-rule="evenodd" d="M12 4C10.4087 4 8.92587 4.46463 7.67984 5.26562L9.41421 7H13C15.5 7 17 9.067 17 11C17 11.9215 16.6591 12.8734 16.0315 13.6173L18.7344 16.3202C19.5354 15.0741 20 13.5913 20 12C20 7.58172 16.4183 4 12 4ZM14.6204 12.2062C14.8551 11.8898 15 11.4844 15 11C15 9.72772 14 9 13 9H11.4142L14.6204 12.2062ZM4 12C4 9.89622 4.81205 7.98211 6.13981 6.55402L17.446 17.8602C16.0179 19.1879 14.1038 20 12 20C7.58172 20 4 16.4183 4 12ZM2 12C2 6.47715 6.47715 2 12 2C17.5228 2 22 6.47715 22 12C22 17.5228 17.5228 22 12 22C6.47715 22 2 17.5228 2 12ZM9 11.0005V17.5863H11V14.5863H12.5858L9 11.0005Z" fill="black"/>
</svg>
