<svg width="24" height="24" viewBox="0 0 24 24" fill="none" xmlns="http://www.w3.org/2000/svg">
<path fill-rule="evenodd" clip-rule="evenodd" d="M4 12C4 7.58172 7.58172 4 12 4C14.1038 4 16.0179 4.81205 17.446 6.13981L14.3224 9.26339C13.4391 8.47747 12.2753 8 11 8H9V6L6 9L9 12V10H11C11.7229 10 12.3862 10.2557 12.9041 10.6816L6.13981 17.446C4.81205 16.0179 4 14.1038 4 12ZM13.9519 12.4623L7.67984 18.7344C8.92587 19.5354 10.4087 20 12 20C16.4183 20 20 16.4183 20 12C20 10.4087 19.5354 8.92587 18.7344 7.67984L15.5311 10.8831C15.8319 11.526 16 12.2434 16 13V17H14V13C14 12.8164 13.9835 12.6367 13.9519 12.4623ZM12 2C6.47715 2 2 6.47715 2 12C2 17.5228 6.47715 22 12 22C17.5228 22 22 17.5228 22 12C22 6.47715 17.5228 2 12 2Z" fill="black"/>
</svg>
