<svg width="24" height="24" viewBox="0 0 24 24" fill="none" xmlns="http://www.w3.org/2000/svg">
<path fill-rule="evenodd" clip-rule="evenodd" d="M13.371 2.56789C12.6138 1.81071 11.3862 1.8107 10.629 2.56789L2.56789 10.629C1.81071 11.3862 1.8107 12.6138 2.56789 13.371L10.629 21.4321C11.3862 22.1893 12.6138 22.1893 13.371 21.4321L21.4321 13.371C22.1893 12.6138 22.1893 11.3862 21.4321 10.629L13.371 2.56789ZM15 9L12 6L9 9H11V17H13V12.7068C13.0083 12.7153 13.0167 12.7238 13.0251 12.7322L15.6464 15.3536L16.3536 14.6464L13.7322 12.0251C13.2634 11.5563 13 10.9204 13 10.2574V10V9H15Z" fill="black"/>
</svg>
