<svg width="24" height="24" viewBox="0 0 24 24" fill="none" xmlns="http://www.w3.org/2000/svg">
<path fill-rule="evenodd" clip-rule="evenodd" d="M4.01832 5.02187L12.0001 18.9702L19.9818 5.02187L19.9899 5.00777L19.9947 5H4.00547L4.01025 5.00777L4.01832 5.02187ZM13.6812 20.0581C12.9074 21.314 11.0928 21.314 10.3189 20.0581L10.3104 20.0443L10.3023 20.0302L2.28921 6.02704C1.5018 4.72298 2.41049 3 3.98018 3H20.02C21.5896 3 22.4984 4.72297 21.7109 6.02702L13.6978 20.0302L13.6897 20.0443L13.6812 20.0581ZM7.90933 9.61366H8.45633V8.63738L9.3674 7H8.77512L8.19008 8.11574H8.1774L7.59055 7H7.00008L7.90933 8.63738V9.61366ZM9.63366 9.61366H10.1807V7H9.63366V9.61366ZM12.3469 9.61366H10.6154V7H12.3469V7.45101H11.1624V8.0777H12.2799V8.50516H11.1624V9.16265H12.3469V9.61366ZM12.7418 9.61366H14.4317V9.16265H13.2888V7H12.7418V9.61366ZM15.7539 9.61366H14.7559V7H15.7539C16.5364 7 17.0001 7.4655 17.0001 8.29324V8.29687C17.0001 9.12643 16.5382 9.61366 15.7539 9.61366ZM15.3029 7.45101V9.16084H15.6887C16.1778 9.16084 16.4422 8.86379 16.4422 8.29868V8.29506C16.4422 7.74986 16.1687 7.45101 15.6887 7.45101H15.3029Z" fill="black"/>
</svg>
