<svg width="24" height="24" viewBox="0 0 24 24" fill="none" xmlns="http://www.w3.org/2000/svg">
<path fill-rule="evenodd" clip-rule="evenodd" d="M13.6802 20.058C12.9064 21.3138 11.0918 21.3138 10.3179 20.058L10.3094 20.0442L2.28823 6.02692C1.50082 4.72287 2.40952 2.99989 3.97921 2.99989H20.019C21.5887 2.99989 22.4974 4.72285 21.71 6.02691L13.6888 20.0442L13.6802 20.058ZM7.90877 10.0004H8.45577V9.0241L9.36684 7.38672H8.77455L8.18951 8.50246H8.17683L7.58998 7.38672H6.99951L7.90877 9.0241V10.0004ZM9.63309 10.0004H10.1801V7.38672H9.63309V10.0004ZM12.3464 10.0004H10.6148V7.38672H12.3464V7.83772H11.1618V8.46442H12.2794V8.89188H11.1618V9.54937H12.3464V10.0004ZM12.7412 10.0004H14.4311V9.54937H13.2882V7.38672H12.7412V10.0004ZM15.7534 10.0004H14.7554V7.38672H15.7534C16.5358 7.38672 16.9995 7.85221 16.9995 8.67996V8.68358C16.9995 9.51314 16.5376 10.0004 15.7534 10.0004ZM15.3024 7.83772V9.54756H15.6882C16.1772 9.54756 16.4416 9.25051 16.4416 8.68539V8.68177C16.4416 8.13658 16.1681 7.83772 15.6882 7.83772H15.3024Z" fill="black"/>
</svg>
