<svg width="24" height="24" viewBox="0 0 24 24" fill="none" xmlns="http://www.w3.org/2000/svg">
<path fill-rule="evenodd" clip-rule="evenodd" d="M8.71976 7.30555L12 4.02531L15.2802 7.30555L12 10.5858L8.71976 7.30555ZM7.30555 8.71976L4.02531 12L7.30555 15.2802L10.5858 12L7.30555 8.71976ZM8.71976 16.6944L12 19.9747L15.2802 16.6944L12 13.4142L8.71976 16.6944ZM16.6944 15.2802L19.9747 12L16.6945 8.71976L13.4142 12L16.6944 15.2802ZM13.371 2.56789C12.6138 1.81071 11.3862 1.8107 10.629 2.56789L2.56789 10.629C1.81071 11.3862 1.8107 12.6138 2.56789 13.371L10.629 21.4321C11.3862 22.1893 12.6138 22.1893 13.371 21.4321L21.4321 13.371C22.1893 12.6138 22.1893 11.3862 21.4321 10.629L13.371 2.56789ZM6.62753 13.5H6V10.5H7.23844C7.91169 10.5 8.31065 10.8576 8.31065 11.4605V11.4647C8.31065 11.8597 8.10078 12.1881 7.76831 12.3191L8.4 13.5H7.68935L7.13039 12.4127H6.62753V13.5ZM6.62753 10.9906V11.9366H7.16987C7.48156 11.9366 7.66857 11.7599 7.66857 11.4647V11.4605C7.66857 11.1736 7.47117 10.9906 7.16156 10.9906H6.62753ZM15.5 13.5H16.1275V12.4127H16.6304L17.1894 13.5H17.9L17.2683 12.3191C17.6008 12.1881 17.8106 11.8597 17.8106 11.4647V11.4605C17.8106 10.8576 17.4117 10.5 16.7384 10.5H15.5V13.5ZM16.1275 11.9366V10.9906H16.6616C16.9712 10.9906 17.1686 11.1736 17.1686 11.4605V11.4647C17.1686 11.7599 16.9816 11.9366 16.6699 11.9366H16.1275Z" fill="black"/>
</svg>
