<svg width="24" height="24" viewBox="0 0 24 24" fill="none" xmlns="http://www.w3.org/2000/svg">
<path fill-rule="evenodd" clip-rule="evenodd" d="M20 12C20 7.58172 16.4183 4 12 4C9.89622 4 7.98211 4.81205 6.55402 6.13981L9.67761 9.26339C10.5609 8.47747 11.7247 8 13 8H15V6L18 9L15 12V10H13C12.2771 10 11.6138 10.2557 11.0959 10.6816L17.8602 17.446C19.1879 16.0179 20 14.1038 20 12ZM8.46891 10.8831C8.16807 11.526 8 12.2434 8 13V17H10V13C10 12.8164 10.0165 12.6367 10.0481 12.4623L16.3202 18.7344C15.0741 19.5354 13.5913 20 12 20C7.58172 20 4 16.4183 4 12C4 10.4087 4.46463 8.92587 5.26562 7.67984L8.46891 10.8831ZM12 2C17.5228 2 22 6.47715 22 12C22 17.5228 17.5228 22 12 22C6.47715 22 2 17.5228 2 12C2 6.47715 6.47715 2 12 2Z" fill="black"/>
</svg>
