<svg width="24" height="24" viewBox="0 0 24 24" fill="none" xmlns="http://www.w3.org/2000/svg">
<path fill-rule="evenodd" clip-rule="evenodd" d="M13.371 2.56781C12.6138 1.81063 11.3862 1.81063 10.629 2.56781L7.30552 5.89129L12 10.5858L16.6945 5.89131L13.371 2.56781ZM18.1087 7.30552L13.4142 12L18.1086 16.6944L21.4321 13.3709C22.1893 12.6137 22.1893 11.3861 21.4321 10.6289L18.1087 7.30552ZM16.6944 18.1086L12 13.4142L7.3056 18.1086L10.629 21.432C11.3862 22.1892 12.6138 22.1892 13.371 21.432L16.6944 18.1086ZM5.89138 16.6944L10.5858 12L5.89131 7.3055L2.56789 10.6289C1.81071 11.3861 1.8107 12.6137 2.56789 13.3709L5.89138 16.6944ZM4.50001 14H5.33672V12.5502H6.0072L6.75248 14H7.70001L6.85776 12.4255C7.30105 12.2509 7.58088 11.8129 7.58088 11.2862V11.2807C7.58088 10.4768 7.04893 10 6.15127 10H4.50001V14ZM5.33672 11.9155V10.6542H6.04876C6.46157 10.6542 6.72478 10.8981 6.72478 11.2807V11.2862C6.72478 11.6798 6.47543 11.9155 6.05984 11.9155H5.33672ZM17.3367 14H16.5V10H18.1513C19.0489 10 19.5809 10.4768 19.5809 11.2807V11.2862C19.5809 11.8129 19.3011 12.2509 18.8578 12.4255L19.7 14H18.7525L18.0072 12.5502H17.3367V14ZM17.3367 10.6542V11.9155H18.0598C18.4754 11.9155 18.7248 11.6798 18.7248 11.2862V11.2807C18.7248 10.8981 18.4616 10.6542 18.0488 10.6542H17.3367Z" fill="black"/>
</svg>
