<svg width="24" height="24" viewBox="0 0 24 24" fill="none" xmlns="http://www.w3.org/2000/svg">
<path fill-rule="evenodd" clip-rule="evenodd" d="M5 9.03895L9.03895 5H14.961L19 9.03895V14.961L14.961 19H9.03895L5 14.961V9.03895ZM8.21053 3H15.7895L21 8.21053V15.7895L15.7895 21H8.21053L3 15.7895V8.21053L8.21053 3ZM8.80613 12.3117C8.80613 12.9951 8.28614 13.4286 7.3941 13.4286C6.55585 13.4286 6.03586 13.0616 6.00224 12.408L6 12.3645H6.87411L6.8786 12.3851C6.9167 12.564 7.13635 12.6832 7.4053 12.6832C7.68995 12.6832 7.86477 12.564 7.86477 12.3989V12.3966C7.86477 12.2406 7.73478 12.1764 7.37617 12.1099L7.05118 12.0503C6.40792 11.9333 6.05603 11.6008 6.05603 11.0871V11.0848C6.05603 10.4197 6.61636 10 7.38289 10C8.24804 10 8.70751 10.3945 8.7344 11.0137L8.73665 11.0641H7.86253L7.86029 11.0412C7.84236 10.86 7.65409 10.7453 7.3941 10.7453C7.13186 10.7453 6.99739 10.8623 6.99739 11.0137V11.016C6.99739 11.165 7.13635 11.2361 7.4591 11.2957L7.78409 11.3554C8.47665 11.4838 8.80613 11.7728 8.80613 12.3094V12.3117ZM10.7493 13.3689H9.79903V10.8302H8.94733V10.0596H11.601V10.8302H10.7493V13.3689ZM13.3179 13.4286C14.3242 13.4286 14.9496 12.7704 14.9496 11.7154V11.7108C14.9496 10.6582 14.322 10 13.3179 10C12.3205 10 11.6907 10.6559 11.6907 11.7108V11.7154C11.6907 12.7727 12.316 13.4286 13.3179 13.4286ZM13.3179 12.6351C12.9189 12.6351 12.6589 12.2865 12.6589 11.7154V11.7108C12.6589 11.1398 12.9212 10.7935 13.3179 10.7935C13.7213 10.7935 13.9813 11.1421 13.9813 11.7108V11.7154C13.9813 12.2796 13.7281 12.6351 13.3179 12.6351ZM16.2697 13.3689H15.3194V10.0596H16.765C17.5226 10.0596 18 10.5321 18 11.2659V11.2705C18 12.0044 17.5226 12.4654 16.765 12.4654H16.2697V13.3689ZM17.0407 11.2659C17.0407 10.9495 16.8524 10.7912 16.5387 10.7912H16.2697V11.7475H16.5387C16.8524 11.7475 17.0407 11.587 17.0407 11.2705V11.2659Z" fill="black"/>
</svg>
