<svg width="24" height="24" viewBox="0 0 24 24" fill="none" xmlns="http://www.w3.org/2000/svg">
<path fill-rule="evenodd" clip-rule="evenodd" d="M10.629 2.56789C11.3862 1.81071 12.6138 1.8107 13.371 2.56789L21.4321 10.629C22.1893 11.3862 22.1893 12.6138 21.4321 13.371L13.371 21.4321C12.6138 22.1893 11.3862 22.1893 10.629 21.4321L2.56789 13.371C1.8107 12.6138 1.8107 11.3862 2.56789 10.629L10.629 2.56789ZM9 9L12 6L15 9H13V17H11V12.7068C10.9917 12.7153 10.9833 12.7238 10.9749 12.7322L8.35355 15.3536L7.64645 14.6464L10.2678 12.0251C10.7366 11.5563 11 10.9204 11 10.2574V10V9H9Z" fill="black"/>
</svg>
