<svg width="24" height="24" viewBox="0 0 24 24" fill="none" xmlns="http://www.w3.org/2000/svg">
<path fill-rule="evenodd" clip-rule="evenodd" d="M12 22C6.47715 22 2 17.5228 2 12C2 6.47715 6.47715 2 12 2C17.5228 2 22 6.47715 22 12C22 17.5228 17.5228 22 12 22ZM9.90167 9C10.5023 9 10.8756 8.61605 10.8756 8.00067V7.99799C10.8756 7.38395 10.501 7 9.90167 7C9.30635 7 8.93043 7.38261 8.93043 7.99799V8.00067C8.93043 8.61739 9.30368 9 9.90167 9ZM9.90167 8.53712C9.66355 8.53712 9.50836 8.33378 9.50836 8.00067V7.99799C9.50836 7.66488 9.66488 7.46288 9.90167 7.46288C10.1425 7.46288 10.2977 7.66622 10.2977 7.99799V8.00067C10.2977 8.32977 10.1465 8.53712 9.90167 8.53712ZM7 8.96522H7.82542C8.41003 8.96522 8.75518 8.60401 8.75518 7.98595V7.98328C8.75518 7.36656 8.41003 7.03478 7.82542 7.03478H7V8.96522ZM7.56722 8.51438V7.48562H7.74515C8.01538 7.48562 8.17726 7.65953 8.17726 7.98328V7.98595C8.17726 8.34181 8.02876 8.51438 7.74515 8.51438H7.56722ZM12.1853 8.96522H11.6181V7.03478H12.0903L12.7726 8.02207H12.7819V7.03478H13.3492V8.96522H12.8823L12.1946 7.96187H12.1853V8.96522ZM14.5411 9C15.1418 9 15.5151 8.61605 15.5151 8.00067V7.99799C15.5151 7.38395 15.1405 7 14.5411 7C13.9458 7 13.5699 7.38261 13.5699 7.99799V8.00067C13.5699 8.61739 13.9431 9 14.5411 9ZM14.5411 8.53712C14.303 8.53712 14.1478 8.33378 14.1478 8.00067V7.99799C14.1478 7.66488 14.3043 7.46288 14.5411 7.46288C14.7819 7.46288 14.9371 7.66622 14.9371 7.99799V8.00067C14.9371 8.32977 14.786 8.53712 14.5411 8.53712ZM16.6441 8.96522H16.0769V7.48428H15.5686V7.03478H17.1525V7.48428H16.6441V8.96522ZM8.91095 17H7.5V15H8.91095V15.4657H8.08766V15.7845H8.85967V16.2169H8.08766V16.5343H8.91095V17ZM9.77304 17H9.18538V15H9.67464L10.3815 16.0229H10.3912V15H10.9789V17H10.4951L9.78274 15.9605H9.77304V17ZM11.7065 17H12.2942V15.4657H12.8209V15H11.1798V15.4657H11.7065V17ZM14.4328 17H13.0218V15H14.4328V15.4657H13.6095V15.7845H14.3815V16.2169H13.6095V16.5343H14.4328V17ZM14.7072 17H15.2949V16.343H15.4875L15.8035 17H16.4605L16.0807 16.2557C16.2748 16.1615 16.4023 15.9369 16.4023 15.6875V15.6847C16.4023 15.2412 16.1223 15 15.6081 15H14.7072V17ZM15.2949 15.9286V15.4338H15.5402C15.6954 15.4338 15.8035 15.535 15.8035 15.6805V15.6833C15.8035 15.8302 15.6982 15.9286 15.5402 15.9286H15.2949ZM6 13H18V11H6V13Z" fill="black"/>
</svg>
