<svg width="20" height="20" viewBox="0 0 20 20" fill="none" xmlns="http://www.w3.org/2000/svg">
<path fill-rule="evenodd" clip-rule="evenodd" d="M2.02531 10L10 2.02531L17.9747 10L10 17.9747L2.02531 10ZM11.371 0.567888C10.6138 -0.189295 9.38618 -0.189297 8.629 0.567888L0.567888 8.629C-0.189295 9.38618 -0.189297 10.6138 0.567888 11.371L8.629 19.4321C9.38618 20.1893 10.6138 20.1893 11.371 19.4321L19.4321 11.371C20.1893 10.6138 20.1893 9.38618 19.4321 8.629L11.371 0.567888ZM8 6C8 5.44772 8.44771 5 9 5H11C11.5523 5 12 5.44772 12 6V14C12 14.5523 11.5523 15 11 15H9C8.44771 15 8 14.5523 8 14V6ZM11 7C11 7.55228 10.5523 8 10 8C9.44772 8 9 7.55228 9 7C9 6.44772 9.44772 6 10 6C10.5523 6 11 6.44772 11 7ZM10 11C10.5523 11 11 10.5523 11 10C11 9.44772 10.5523 9 10 9C9.44772 9 9 9.44772 9 10C9 10.5523 9.44772 11 10 11ZM11 13C11 13.5523 10.5523 14 10 14C9.44772 14 9 13.5523 9 13C9 12.4477 9.44772 12 10 12C10.5523 12 11 12.4477 11 13Z" fill="black"/>
</svg>
