<svg width="24" height="24" viewBox="0 0 24 24" fill="none" xmlns="http://www.w3.org/2000/svg">
<path fill-rule="evenodd" clip-rule="evenodd" d="M12 22C6.47715 22 2 17.5228 2 12C2 9.855 2.67535 7.86773 3.82503 6.23924L8.46891 10.8831C8.16807 11.526 8 12.2434 8 13V17H10V13C10 12.8164 10.0165 12.6367 10.0481 12.4623L17.7608 20.175C16.1323 21.3246 14.145 22 12 22ZM5.13905 4.72484L9.67761 9.26339C10.5609 8.47747 11.7247 8 13 8H15V6L18 9L15 12V10H13C12.2771 10 11.6138 10.2557 11.0959 10.6816L19.2752 18.8609C20.9645 17.0703 22 14.6561 22 12C22 6.47715 17.5228 2 12 2C9.34393 2 6.92972 3.03551 5.13905 4.72484Z" fill="black"/>
</svg>
