<svg width="24" height="24" viewBox="0 0 24 24" fill="none" xmlns="http://www.w3.org/2000/svg">
<path fill-rule="evenodd" clip-rule="evenodd" d="M4 12C4 7.58172 7.58172 4 12 4C16.4183 4 20 7.58172 20 12C20 16.4183 16.4183 20 12 20C7.58172 20 4 16.4183 4 12ZM12 2C6.47715 2 2 6.47715 2 12C2 17.5228 6.47715 22 12 22C17.5228 22 22 17.5228 22 12C22 6.47715 17.5228 2 12 2ZM9.90167 9.5C10.5023 9.5 10.8756 9.11605 10.8756 8.50067V8.49799C10.8756 7.88395 10.501 7.5 9.90167 7.5C9.30635 7.5 8.93043 7.88261 8.93043 8.49799V8.50067C8.93043 9.11739 9.30368 9.5 9.90167 9.5ZM9.90167 9.03712C9.66355 9.03712 9.50836 8.83378 9.50836 8.50067V8.49799C9.50836 8.16488 9.66488 7.96288 9.90167 7.96288C10.1425 7.96288 10.2977 8.16622 10.2977 8.49799V8.50067C10.2977 8.82977 10.1465 9.03712 9.90167 9.03712ZM7 9.46522H7.82542C8.41003 9.46522 8.75518 9.10401 8.75518 8.48595V8.48328C8.75518 7.86656 8.41003 7.53478 7.82542 7.53478H7V9.46522ZM7.56722 9.01438V7.98562H7.74515C8.01538 7.98562 8.17726 8.15953 8.17726 8.48328V8.48595C8.17726 8.84181 8.02876 9.01438 7.74515 9.01438H7.56722ZM12.1853 9.46522H11.6181V7.53478H12.0903L12.7726 8.52207H12.7819V7.53478H13.3492V9.46522H12.8823L12.1946 8.46187H12.1853V9.46522ZM14.5411 9.5C15.1418 9.5 15.5151 9.11605 15.5151 8.50067V8.49799C15.5151 7.88395 15.1405 7.5 14.5411 7.5C13.9458 7.5 13.5699 7.88261 13.5699 8.49799V8.50067C13.5699 9.11739 13.9431 9.5 14.5411 9.5ZM14.5411 9.03712C14.303 9.03712 14.1478 8.83378 14.1478 8.50067V8.49799C14.1478 8.16488 14.3043 7.96288 14.5411 7.96288C14.7819 7.96288 14.9371 8.16622 14.9371 8.49799V8.50067C14.9371 8.82977 14.786 9.03712 14.5411 9.03712ZM16.6441 9.46522H16.0769V7.98428H15.5686V7.53478H17.1525V7.98428H16.6441V9.46522ZM8.91095 16.5H7.5V14.5H8.91095V14.9657H8.08766V15.2845H8.85967V15.7169H8.08766V16.0343H8.91095V16.5ZM9.77304 16.5H9.18538V14.5H9.67464L10.3815 15.5229H10.3912V14.5H10.9789V16.5H10.4951L9.78274 15.4605H9.77304V16.5ZM11.7065 16.5H12.2942V14.9657H12.8209V14.5H11.1798V14.9657H11.7065V16.5ZM14.4328 16.5H13.0218V14.5H14.4328V14.9657H13.6095V15.2845H14.3815V15.7169H13.6095V16.0343H14.4328V16.5ZM14.7072 16.5H15.2949V15.843H15.4875L15.8035 16.5H16.4605L16.0807 15.7557C16.2748 15.6615 16.4023 15.4369 16.4023 15.1875V15.1847C16.4023 14.7412 16.1223 14.5 15.6081 14.5H14.7072V16.5ZM15.2949 15.4286V14.9338H15.5402C15.6954 14.9338 15.8035 15.035 15.8035 15.1805V15.1833C15.8035 15.3302 15.6982 15.4286 15.5402 15.4286H15.2949ZM6 13H18V11H6V13Z" fill="black"/>
</svg>
