<svg width="24" height="24" viewBox="0 0 24 24" fill="none" xmlns="http://www.w3.org/2000/svg">
<path fill-rule="evenodd" clip-rule="evenodd" d="M12 4.02531L19.9747 12L12 19.9747L4.02531 12L12 4.02531ZM13.371 2.56789C12.6138 1.8107 11.3862 1.81071 10.629 2.56789L2.56789 10.629C1.8107 11.3862 1.8107 12.6138 2.56789 13.371L10.629 21.4321C11.3862 22.1893 12.6138 22.1893 13.371 21.4321L21.4321 13.371C22.1893 12.6138 22.1893 11.3862 21.4321 10.629L13.371 2.56789ZM13.5 8.5H9V13L10.5429 11.4571L11.7071 12.6213C11.8946 12.8089 12 13.0632 12 13.3284V16H14V13.3284C14 12.5328 13.6839 11.7697 13.1213 11.2071L11.9571 10.0429L13.5 8.5Z" fill="black"/>
</svg>
