<svg width="20" height="20" viewBox="0 0 20 20" fill="none" xmlns="http://www.w3.org/2000/svg">
<path fill-rule="evenodd" clip-rule="evenodd" d="M11.371 0.567888C10.6138 -0.189297 9.38618 -0.189295 8.629 0.567888L0.567888 8.629C-0.189297 9.38618 -0.189297 10.6138 0.56789 11.371L8.629 19.4321C9.38618 20.1893 10.6138 20.1893 11.371 19.4321L19.4321 11.371C20.1893 10.6138 20.1893 9.38618 19.4321 8.629L11.371 0.567888ZM11.5 6H7V10.5L8.54289 8.95711L9.70711 10.1213C9.89464 10.3089 10 10.5632 10 10.8284V15H12V10.8284C12 10.0328 11.6839 9.26972 11.1213 8.70711L9.95711 7.54289L11.5 6Z" fill="black"/>
</svg>
