<svg width="24" height="24" viewBox="0 0 24 24" fill="none" xmlns="http://www.w3.org/2000/svg">
<path fill-rule="evenodd" clip-rule="evenodd" d="M13.371 2.56789C12.6138 1.8107 11.3862 1.81071 10.629 2.56789L2.56789 10.629C1.8107 11.3862 1.8107 12.6138 2.56789 13.371L10.629 21.4321C11.3862 22.1893 12.6138 22.1893 13.371 21.4321L21.4321 13.371C22.1893 12.6138 22.1893 11.3862 21.4321 10.629L13.371 2.56789ZM10 8L7 11L10 14V12H12C12.5523 12 13 12.4477 13 13V16H15V13C15 11.3431 13.6569 10 12 10H10V8Z" fill="black"/>
</svg>
