<svg width="24" height="24" viewBox="0 0 24 24" fill="none" xmlns="http://www.w3.org/2000/svg">
<path fill-rule="evenodd" clip-rule="evenodd" d="M12 4.02531L4.02531 12L12 19.9747L19.9747 12L12 4.02531ZM10.629 2.56789C11.3862 1.8107 12.6138 1.81071 13.371 2.56789L21.4321 10.629C22.1893 11.3862 22.1893 12.6138 21.4321 13.371L13.371 21.4321C12.6138 22.1893 11.3862 22.1893 10.629 21.4321L2.56789 13.371C1.8107 12.6138 1.81071 11.3862 2.56789 10.629L10.629 2.56789ZM11 8L8 11L11 14V12H12C12.5523 12 13 12.4477 13 13V15H15V13C15 11.3431 13.6569 10 12 10H11V8Z" fill="black"/>
</svg>
