<svg width="24" height="24" viewBox="0 0 24 24" fill="none" xmlns="http://www.w3.org/2000/svg">
<path fill-rule="evenodd" clip-rule="evenodd" d="M19.479 3.78356C18.0647 3.47925 15.3136 3 11.9973 3C8.68029 3 5.93094 3.48245 4.51784 3.7888C3.38021 4.03543 2.75022 5.20065 3.09357 6.27697C4.83408 11.7332 7.46101 16.7809 11.2398 21.1324L11.9932 22L12.7459 21.1318C16.5183 16.7802 19.168 11.7318 20.9067 6.27125C21.25 5.19342 20.6172 4.02846 19.479 3.78356ZM8.45626 10.6137H7.90926V9.63738L7 8H7.59047L8.17732 9.11574H8.19L8.77504 8H9.36732L8.45626 9.63738V10.6137ZM10.1806 10.6137H9.63358V8H10.1806V10.6137ZM10.6153 10.6137H12.3469V10.1627H11.1623V9.50516H12.2798V9.0777H11.1623V8.45101H12.3469V8H10.6153V10.6137ZM14.4316 10.6137H12.7417V8H13.2887V10.1627H14.4316V10.6137ZM14.7558 10.6137H15.7538C16.5381 10.6137 17 10.1264 17 9.29687V9.29324C17 8.4655 16.5363 8 15.7538 8H14.7558V10.6137ZM15.3028 10.1608V8.45101H15.6886C16.1686 8.45101 16.4421 8.74986 16.4421 9.29506V9.29868C16.4421 9.86379 16.1777 10.1608 15.6886 10.1608H15.3028Z" fill="black"/>
</svg>
