<svg width="24" height="24" viewBox="0 0 24 24" fill="none" xmlns="http://www.w3.org/2000/svg">
<path fill-rule="evenodd" clip-rule="evenodd" d="M4.02531 12L12 4.02531L19.9747 12L12 19.9747L4.02531 12ZM13.371 2.56789C12.6138 1.81071 11.3862 1.8107 10.629 2.56789L2.56789 10.629C1.81071 11.3862 1.8107 12.6138 2.56789 13.371L10.629 21.4321C11.3862 22.1893 12.6138 22.1893 13.371 21.4321L21.4321 13.371C22.1893 12.6138 22.1893 11.3862 21.4321 10.629L13.371 2.56789ZM11 8V11H8V13H11V16H13V13H16V11H13V8H11Z" fill="black"/>
</svg>
