<svg width="24" height="24" viewBox="0 0 24 24" fill="none" xmlns="http://www.w3.org/2000/svg">
<path fill-rule="evenodd" clip-rule="evenodd" d="M11.9921 18.9222C15.1552 15.0257 17.4379 10.5627 18.9859 5.72376C17.6403 5.43822 15.074 5.00062 11.9973 5.00062C8.92137 5.00062 6.35776 5.44093 5.01405 5.72821C6.56491 10.5681 8.82953 15.029 11.9921 18.9222ZM11.9973 3C15.3136 3 18.0647 3.47925 19.479 3.78356C20.6172 4.02846 21.25 5.19342 20.9067 6.27125C19.168 11.7318 16.5183 16.7802 12.7459 21.1318L11.9932 22L11.2398 21.1324C7.46101 16.7809 4.83408 11.7332 3.09357 6.27697C2.75022 5.20065 3.38021 4.03543 4.51784 3.7888C5.93094 3.48245 8.68029 3 11.9973 3ZM7.90926 10.6137H8.45626V9.63738L9.36732 8H8.77504L8.19 9.11574H8.17732L7.59047 8H7L7.90926 9.63738V10.6137ZM9.63358 10.6137H10.1806V8H9.63358V10.6137ZM12.3469 10.6137H10.6153V8H12.3469V8.45101H11.1623V9.0777H12.2798V9.50516H11.1623V10.1627H12.3469V10.6137ZM12.7417 10.6137H14.4316V10.1627H13.2887V8H12.7417V10.6137ZM15.7538 10.6137H14.7558V8H15.7538C16.5363 8 17 8.4655 17 9.29324V9.29687C17 10.1264 16.5381 10.6137 15.7538 10.6137ZM15.3028 8.45101V10.1608H15.6886C16.1777 10.1608 16.4421 9.86379 16.4421 9.29868V9.29506C16.4421 8.74986 16.1686 8.45101 15.6886 8.45101H15.3028Z" fill="black"/>
</svg>
