<svg width="24" height="24" viewBox="0 0 24 24" fill="none" xmlns="http://www.w3.org/2000/svg">
<path fill-rule="evenodd" clip-rule="evenodd" d="M13.371 2.56789C12.6138 1.81071 11.3862 1.81071 10.629 2.56789L2.56789 10.629C1.81071 11.3862 1.8107 12.6138 2.56789 13.371L10.629 21.4321C11.3862 22.1893 12.6138 22.1893 13.371 21.4321L21.4321 13.371C22.1893 12.6138 22.1893 11.3862 21.4321 10.629L13.371 2.56789ZM7 11.6047H8.11372C8.90253 11.6047 9.36823 11.1173 9.36823 10.2834V10.2798C9.36823 9.44766 8.90253 9 8.11372 9H7V11.6047ZM7.76534 10.9964V9.60831H8.00541C8.37004 9.60831 8.58845 9.84296 8.58845 10.2798V10.2834C8.58845 10.7635 8.38809 10.9964 8.00541 10.9964H7.76534ZM9.66787 11.6047H11.5054V10.9982H10.4332V10.5848H11.4386V10.0217H10.4332V9.6065H11.5054V9H9.66787V11.6047ZM12.5415 11.6047H11.7365L12.5866 9H13.5469L14.3971 11.6047H13.5921L13.4567 11.0866H12.6769L12.5415 11.6047ZM13.074 9.62094H13.0596L12.8177 10.5469H13.3159L13.074 9.62094ZM14.6318 11.6047H15.7455C16.5343 11.6047 17 11.1173 17 10.2834V10.2798C17 9.44766 16.5343 9 15.7455 9H14.6318V11.6047ZM15.3971 10.9964V9.60831H15.6372C16.0018 9.60831 16.2202 9.84296 16.2202 10.2798V10.2834C16.2202 10.7635 16.0199 10.9964 15.6372 10.9964H15.3971ZM10.2076 15.3014H8.37004V12.6968H10.2076V13.3033H9.13538V13.7184H10.1408V14.2816H9.13538V14.695H10.2076V15.3014ZM10.565 15.3014H11.3303V13.9477H11.343L12.2708 15.3014H12.9007V12.6968H12.1354V14.0289H12.1227L11.2022 12.6968H10.565V15.3014ZM14.3755 15.3014H13.2617V12.6968H14.3755C15.1643 12.6968 15.63 13.1444 15.63 13.9765V13.9801C15.63 14.8141 15.1643 15.3014 14.3755 15.3014ZM14.0271 13.3051V14.6931H14.2671C14.6498 14.6931 14.8502 14.4603 14.8502 13.9801V13.9765C14.8502 13.5397 14.6318 13.3051 14.2671 13.3051H14.0271Z" fill="black"/>
</svg>
