<svg width="24" height="24" viewBox="0 0 24 24" fill="none" xmlns="http://www.w3.org/2000/svg">
<path fill-rule="evenodd" clip-rule="evenodd" d="M12 22C17.5228 22 22 17.5228 22 12C22 9.855 21.3246 7.86773 20.175 6.23924L15.5311 10.8831C15.8319 11.526 16 12.2434 16 13V17H14V13C14 12.8164 13.9835 12.6367 13.9519 12.4623L6.23924 20.175C7.86773 21.3246 9.855 22 12 22ZM18.8609 4.72484L14.3224 9.26339C13.4391 8.47747 12.2753 8 11 8H9V6L6 9L9 12V10H11C11.7229 10 12.3862 10.2557 12.9041 10.6816L4.72484 18.8609C3.03551 17.0703 2 14.6561 2 12C2 6.47715 6.47715 2 12 2C14.6561 2 17.0703 3.03551 18.8609 4.72484Z" fill="black"/>
</svg>
