<svg width="24" height="24" viewBox="0 0 24 24" fill="none" xmlns="http://www.w3.org/2000/svg">
<path fill-rule="evenodd" clip-rule="evenodd" d="M10.629 2.56789C11.3862 1.81071 12.6138 1.81071 13.371 2.56789L21.4321 10.629C22.1893 11.3862 22.1893 12.6138 21.4321 13.371L13.371 21.4321C12.6138 22.1893 11.3862 22.1893 10.629 21.4321L2.56789 13.371C1.8107 12.6138 1.81071 11.3862 2.56789 10.629L10.629 2.56789ZM10.5 8H15V12.5L13.4571 10.9571L12.2929 12.1213C12.1054 12.3089 12 12.5632 12 12.8284V17H10V12.8284C10 12.0328 10.3161 11.2697 10.8787 10.7071L12.0429 9.5429L10.5 8Z" fill="black"/>
</svg>
