<svg width="24" height="24" viewBox="0 0 24 24" fill="none" xmlns="http://www.w3.org/2000/svg">
<path fill-rule="evenodd" clip-rule="evenodd" d="M4.02531 12L12 4.02531L19.9747 12L12 19.9747L4.02531 12ZM13.371 2.56789C12.6138 1.81071 11.3862 1.8107 10.629 2.56789L2.56789 10.629C1.81071 11.3862 1.8107 12.6138 2.56789 13.371L10.629 21.4321C11.3862 22.1893 12.6138 22.1893 13.371 21.4321L21.4321 13.371C22.1893 12.6138 22.1893 11.3862 21.4321 10.629L13.371 2.56789ZM8 12.0667H8.8837C9.5096 12.0667 9.87912 11.68 9.87912 11.0183V11.0155C9.87912 10.3552 9.5096 10 8.8837 10H8V12.0667ZM8.60728 11.5841V10.4827H8.79777C9.08708 10.4827 9.26038 10.6689 9.26038 11.0155V11.0183C9.26038 11.3993 9.1014 11.5841 8.79777 11.5841H8.60728ZM10.1169 12.0667H11.5749V11.5855H10.7241V11.2575H11.5219V10.8107H10.7241V10.4812H11.5749V10H10.1169V12.0667ZM12.397 12.0667H11.7582L12.4328 10H13.1948L13.8694 12.0667H13.2306L13.1232 11.6557H12.5044L12.397 12.0667ZM12.8195 10.4927H12.8081L12.6162 11.2274H13.0115L12.8195 10.4927ZM14.0556 12.0667H14.9393C15.5652 12.0667 15.9347 11.68 15.9347 11.0183V11.0155C15.9347 10.3552 15.5652 10 14.9393 10H14.0556V12.0667ZM14.6628 11.5841V10.4827H14.8533C15.1427 10.4827 15.316 10.6689 15.316 11.0155V11.0183C15.316 11.3993 15.157 11.5841 14.8533 11.5841H14.6628ZM10.5451 15H9.08708V12.9333H10.5451V13.4145H9.69436V13.7439H10.4921V14.1908H9.69436V14.5188H10.5451V15ZM10.8287 15H11.436V13.9258H11.446L12.1822 15H12.682V12.9333H12.0748V13.9903H12.0647L11.3343 12.9333H10.8287V15ZM13.8522 15H12.9685V12.9333H13.8522C14.4781 12.9333 14.8476 13.2885 14.8476 13.9487V13.9516C14.8476 14.6133 14.4781 15 13.8522 15ZM13.5758 13.4159V14.5173H13.7663C14.0699 14.5173 14.2289 14.3326 14.2289 13.9516V13.9487C14.2289 13.6021 14.0556 13.4159 13.7663 13.4159H13.5758Z" fill="black"/>
</svg>
