<svg width="24" height="24" viewBox="0 0 24 24" fill="none" xmlns="http://www.w3.org/2000/svg">
<path fill-rule="evenodd" clip-rule="evenodd" d="M12 22C6.47715 22 2 17.5228 2 12C2 9.08956 3.24335 6.46952 5.22786 4.64207L19.3579 18.7721C17.5305 20.7567 14.9104 22 12 22ZM20.5701 17.1559L16.8824 13.4681C17.5773 12.6766 18 11.6369 18 10.5C18 8.01472 15.9853 6 13.5 6H9.41421L6.84411 3.42989C8.34965 2.52219 10.1138 2 12 2C17.5228 2 22 6.47715 22 12C22 13.8862 21.4778 15.6503 20.5701 17.1559ZM16 10.5C16 11.0852 15.7999 11.6223 15.4628 12.0486L11.4142 8H13.5C14.8807 8 16 9.11929 16 10.5ZM11 19V15H13L11 13L9 11V19H11Z" fill="black"/>
</svg>
