<svg width="24" height="24" viewBox="0 0 24 24" fill="none" xmlns="http://www.w3.org/2000/svg">
<path fill-rule="evenodd" clip-rule="evenodd" d="M12.874 9C12.4299 10.7252 10.8638 12 9 12C7.13616 12 5.57006 10.7252 5.12602 9H2V7H5.12602C5.57006 5.27477 7.13616 4 9 4C10.8638 4 12.4299 5.27477 12.874 7H22V9H12.874ZM18.874 17C18.4299 18.7252 16.8638 20 15 20C13.1362 20 11.5701 18.7252 11.126 17H2V15H11.126C11.5701 13.2748 13.1362 12 15 12C16.8638 12 18.4299 13.2748 18.874 15H22V17H18.874Z" fill="black"/>
</svg>
