<svg width="24" height="24" viewBox="0 0 24 24" fill="none" xmlns="http://www.w3.org/2000/svg">
<path fill-rule="evenodd" clip-rule="evenodd" d="M16.7208 2H7.27925L6.22774 5.15455C5.5066 5.45668 5 6.16918 5 7V17C5 17.8308 5.5066 18.5433 6.22774 18.8455L7.27925 22H16.7208L17.7723 18.8454C18.4934 18.5433 19 17.8308 19 17V12H20V8H19V7C19 6.16919 18.4934 5.4567 17.7723 5.15456L16.7208 2ZM17 8V12V17H7V7H17V8ZM15.6126 5H8.38744L8.72077 4H15.2793L15.6126 5ZM8.72077 20L8.38744 19H15.6126L15.2793 20H8.72077ZM10.5 9.75C11.3278 9.75 12 10.7344 12 10.7344C12 10.7344 12.6722 9.75 13.5 9.75C14.3284 9.75 15 10.4845 15 11.3906C15 11.76 14.8884 12.1009 14.7 12.3752C14.4263 12.7736 12 15 12 15C12 15 9.57355 12.7735 9.29989 12.375C9.11158 12.1008 9 11.76 9 11.3906C9 10.4845 9.67157 9.75 10.5 9.75Z" fill="black"/>
</svg>
