<svg width="24" height="24" viewBox="0 0 24 24" fill="none" xmlns="http://www.w3.org/2000/svg">
<path fill-rule="evenodd" clip-rule="evenodd" d="M16.7207 2H7.2792L6.27667 5.13481C5.52961 5.42472 5 6.15051 5 7V17C5 17.8495 5.52963 18.5753 6.27669 18.8652L7.27919 22H16.7207L17.7233 18.8652C18.4704 18.5753 19 17.8495 19 17V12H20V8H19V7C19 6.1505 18.4704 5.4247 17.7233 5.1348L16.7207 2ZM17 7H7V17H17V7ZM12 10.5C12 11.3284 11.3284 12 10.5 12C9.67157 12 9 11.3284 9 10.5C9 9.67157 9.67157 9 10.5 9C11.3284 9 12 9.67157 12 10.5ZM11 14C11 14.5523 10.5523 15 10 15C9.44771 15 9 14.5523 9 14C9 13.4477 9.44771 13 10 13C10.5523 13 11 13.4477 11 14ZM13.5 15C14.3284 15 15 14.3284 15 13.5C15 12.6716 14.3284 12 13.5 12C12.6716 12 12 12.6716 12 13.5C12 14.3284 12.6716 15 13.5 15ZM15 10C15 10.5523 14.5523 11 14 11C13.4477 11 13 10.5523 13 10C13 9.44771 13.4477 9 14 9C14.5523 9 15 9.44771 15 10Z" fill="black"/>
</svg>
