<svg width="24" height="24" viewBox="0 0 24 24" fill="none" xmlns="http://www.w3.org/2000/svg">
<path fill-rule="evenodd" clip-rule="evenodd" d="M6 2H18V3.12602C19.7252 3.57006 21 5.13616 21 7H22V11H21V17C21 18.8638 19.7252 20.4299 18 20.874V22H6V20.874C4.27477 20.4299 3 18.8638 3 17V7C3 5.13616 4.27477 3.57006 6 3.12602V2ZM19 11V7C19 5.89543 18.1046 5 17 5H7C5.89543 5 5 5.89543 5 7V17C5 18.1046 5.89543 19 7 19H17C18.1046 19 19 18.1046 19 17V11ZM9 16C9 16.5523 8.55228 17 8 17C7.44772 17 7 16.5523 7 16C7 15.4477 7.44772 15 8 15C8.55228 15 9 15.4477 9 16ZM13 16C13 16.5523 12.5523 17 12 17C11.4477 17 11 16.5523 11 16C11 15.4477 11.4477 15 12 15C12.5523 15 13 15.4477 13 16ZM16 17C16.5523 17 17 16.5523 17 16C17 15.4477 16.5523 15 16 15C15.4477 15 15 15.4477 15 16C15 16.5523 15.4477 17 16 17ZM10.0073 9.8709C10.0073 10.5425 9.34379 11 8.36988 11C7.39597 11 6.73242 10.5425 6.73242 9.8709V9.86555C6.73242 9.35452 7.12573 8.99599 7.6555 8.90502V8.88629C7.19797 8.78462 6.87423 8.46087 6.87423 8.04615V8.0408C6.87423 7.4388 7.48159 7 8.36988 7C9.25817 7 9.86553 7.4388 9.86553 8.0408V8.04615C9.86553 8.46087 9.54446 8.78462 9.08694 8.88629V8.90502C9.6167 8.99599 10.0073 9.35452 10.0073 9.86555V9.8709ZM7.84279 8.1398C7.84279 8.41806 8.05951 8.60803 8.36988 8.60803C8.68025 8.60803 8.89965 8.41806 8.89965 8.1398V8.13445C8.89965 7.86154 8.67757 7.67425 8.36988 7.67425C8.06486 7.67425 7.84279 7.86154 7.84279 8.13445V8.1398ZM7.7545 9.80401C7.7545 10.1064 8.00868 10.3231 8.36988 10.3231C8.73376 10.3231 8.98526 10.1064 8.98526 9.80401V9.79866C8.98526 9.499 8.73911 9.2796 8.36988 9.2796C8.00332 9.2796 7.7545 9.499 7.7545 9.79866V9.80401ZM11.4174 8.09164C11.4174 8.37258 11.1953 8.59197 10.9144 8.59197C10.6361 8.59197 10.414 8.37258 10.414 8.09164C10.414 7.81338 10.6361 7.5913 10.9144 7.5913C11.1953 7.5913 11.4174 7.81338 11.4174 8.09164ZM11.4174 9.90836C11.4174 10.1866 11.1953 10.4087 10.9144 10.4087C10.6361 10.4087 10.414 10.1866 10.414 9.90836C10.414 9.62742 10.6361 9.40535 10.9144 9.40535C11.1953 9.40535 11.4174 9.62742 11.4174 9.90836ZM12.8221 10.9304H13.7986V7.06957H12.8194L11.8374 7.73846V8.5786L12.8033 7.9311H12.8221V10.9304ZM17.7264 9.62207C17.7264 10.4462 17.095 11 16.1719 11C15.2756 11 14.703 10.4943 14.6602 9.84147L14.6575 9.79599H15.5485L15.5538 9.81472C15.6154 10.0555 15.8481 10.2455 16.1719 10.2455C16.5411 10.2455 16.8006 9.99666 16.8006 9.6408V9.63545C16.8006 9.28227 16.5384 9.0388 16.1719 9.0388C16.0087 9.0388 15.8669 9.08428 15.7572 9.16455C15.6769 9.22074 15.6127 9.29298 15.5726 9.37057H14.7217L14.8876 7.06957H17.4856V7.82408H15.6609L15.5833 8.80067H15.602C15.7545 8.54114 16.0702 8.37258 16.4716 8.37258C17.1993 8.37258 17.7264 8.89431 17.7264 9.61672V9.62207Z" fill="black"/>
</svg>
