<svg width="24" height="24" viewBox="0 0 24 24" fill="none" xmlns="http://www.w3.org/2000/svg">
<path fill-rule="evenodd" clip-rule="evenodd" d="M16.7207 2H7.27919L6.27669 5.1348C5.52963 5.42471 5 6.1505 5 7V17C5 17.8495 5.52963 18.5753 6.27669 18.8652L7.27919 22H16.7207L17.7373 18.8597C18.477 18.5662 19 17.8442 19 17V12H20V8H19V7C19 6.15049 18.4704 5.42469 17.7233 5.13479L16.7207 2ZM17 8V12V17H7V7H17V8ZM10.5 9.75C11.3278 9.75 12 10.7344 12 10.7344C12 10.7344 12.6722 9.75 13.5 9.75C14.3284 9.75 15 10.4845 15 11.3906C15 11.76 14.8884 12.1009 14.7 12.3752C14.4263 12.7736 12 15 12 15C12 15 9.57355 12.7735 9.29989 12.375C9.11158 12.1008 9 11.76 9 11.3906C9 10.4845 9.67157 9.75 10.5 9.75Z" fill="black"/>
</svg>
