<svg width="24" height="24" viewBox="0 0 24 24" fill="none" xmlns="http://www.w3.org/2000/svg">
<path fill-rule="evenodd" clip-rule="evenodd" d="M16.7208 2H7.27925L6.22774 5.15455C5.5066 5.45668 5 6.16918 5 7V17C5 17.8308 5.5066 18.5433 6.22774 18.8455L7.27925 22H16.7208L17.7723 18.8454C18.4934 18.5433 19 17.8308 19 17V12H20V8H19V7C19 6.16919 18.4934 5.4567 17.7723 5.15456L16.7208 2ZM15.6126 5H8.38744L8.72077 4H15.2793L15.6126 5ZM8.72077 20L8.38744 19H15.6126L15.2793 20H8.72077ZM17 7V8V12V17H7V7H17ZM12 10.5C12 11.3284 11.3284 12 10.5 12C9.67157 12 9 11.3284 9 10.5C9 9.67157 9.67157 9 10.5 9C11.3284 9 12 9.67157 12 10.5ZM11 14C11 14.5523 10.5523 15 10 15C9.44771 15 9 14.5523 9 14C9 13.4477 9.44771 13 10 13C10.5523 13 11 13.4477 11 14ZM13.5 15C14.3284 15 15 14.3284 15 13.5C15 12.6716 14.3284 12 13.5 12C12.6716 12 12 12.6716 12 13.5C12 14.3284 12.6716 15 13.5 15ZM15 10C15 10.5523 14.5523 11 14 11C13.4477 11 13 10.5523 13 10C13 9.44771 13.4477 9 14 9C14.5523 9 15 9.44771 15 10Z" fill="black"/>
</svg>
