<svg width="24" height="24" viewBox="0 0 24 24" fill="none" xmlns="http://www.w3.org/2000/svg">
<path fill-rule="evenodd" clip-rule="evenodd" d="M11.2529 4.59861V2H12.7471V4.59861L14.5739 3.37596L15.4027 4.62404L12.7471 6.40139V8.56699L14.5879 9.63397L16.4561 8.55118L16.6615 5.35365L18.1525 5.45019L18.0112 7.64979L20.2529 6.35048L21 7.64952L18.7583 8.94882L20.7264 9.92577L20.0642 11.2704L17.2032 9.85021L15.335 10.933V13.067L17.2032 14.1498L20.0642 12.7296L20.7264 14.0742L18.7583 15.0512L21 16.3505L20.2529 17.6495L18.0112 16.3502L18.1525 18.5498L16.6615 18.6463L16.4561 15.4488L14.5879 14.366L12.7471 15.433V17.5986L15.4027 19.376L14.5739 20.624L12.7471 19.4014V22H11.2529V19.4014L9.42611 20.624L8.5973 19.376L11.2529 17.5986V15.433L9.41206 14.366L7.54391 15.4488L7.3385 18.6463L5.84745 18.5498L5.98876 16.3502L3.74707 17.6495L3 16.3505L5.24168 15.0512L3.27356 14.0742L3.93581 12.7296L6.79684 14.1498L8.66499 13.067V10.933L6.79684 9.85021L3.93581 11.2704L3.27356 9.92577L5.24168 8.94882L3 7.64952L3.74707 6.35048L5.98876 7.64979L5.84745 5.45019L7.3385 5.35365L7.54391 8.55117L9.41206 9.63397L11.2529 8.56699V6.40139L8.5973 4.62404L9.42611 3.37596L11.2529 4.59861ZM12 9.86603L10.1591 10.933V13.067L12 14.134L13.8409 13.067V10.933L12 9.86603Z" fill="black"/>
</svg>
