<svg width="24" height="24" viewBox="0 0 24 24" fill="none" xmlns="http://www.w3.org/2000/svg">
<path fill-rule="evenodd" clip-rule="evenodd" d="M11.2528 2V4.89872L9.48987 3.42383L8.53334 4.57617L11.2528 6.85128V7.30888C10.0773 7.49607 9.04589 8.1179 8.32713 9.0052L7.93201 8.77619L7.32914 5.27426L5.85682 5.52972L6.24764 7.79991L3.74707 6.35055L3 7.64959L5.50057 9.09895L3.34679 9.89425L3.86258 11.302L7.18494 10.0752L7.57907 10.3037C7.37838 10.8305 7.26844 11.4024 7.26844 12C7.26844 12.5977 7.3784 13.1696 7.57911 13.6964L7.18494 13.9249L3.86258 12.6981L3.34679 14.1059L5.50057 14.9012L3 16.3505L3.74707 17.6496L6.24764 16.2002L5.85682 18.4704L7.32914 18.7259L7.93201 15.2239L8.32721 14.9949C9.04596 15.8821 10.0773 16.5039 11.2528 16.6911V17.1487L8.53334 19.4238L9.48987 20.5762L11.2528 19.1013V22H12.747V19.1013L14.5099 20.5762L15.4665 19.4238L12.747 17.1487V16.6911C13.9225 16.5039 14.9539 15.8821 15.6727 14.9948L16.068 15.2239L16.6709 18.7259L18.1432 18.4704L17.7524 16.2002L20.2529 17.6496L21 16.3505L18.4994 14.9012L20.6532 14.1059L20.1374 12.6981L16.8151 13.9249L16.4207 13.6963C16.6214 13.1695 16.7314 12.5977 16.7314 12C16.7314 11.4024 16.6214 10.8306 16.4208 10.3038L16.8151 10.0752L20.1374 11.302L20.6532 9.89425L18.4994 9.09895L21 7.64959L20.2529 6.35055L17.7524 7.79991L18.1432 5.52972L16.6709 5.27426L16.068 8.77619L15.6727 9.00528C14.954 8.11793 13.9226 7.49608 12.747 7.30888V6.85128L15.4665 4.57617L14.5099 3.42383L12.747 4.89872V2H11.2528ZM12.747 8.83697C13.3724 8.98528 13.9277 9.31571 14.3544 9.76942L12.747 10.7011V8.83697ZM15.1022 11.068C15.19 11.3633 15.2372 11.6761 15.2372 12C15.2372 12.3239 15.19 12.6368 15.1021 12.9321L13.4941 12.0001L15.1022 11.068ZM14.3543 14.2307C13.9277 14.6843 13.3724 15.0147 12.747 15.163L12.747 13.2991L14.3543 14.2307ZM11.2528 15.163C10.6275 15.0147 10.0722 14.6844 9.64558 14.2307L11.2528 13.2992L11.2528 15.163ZM8.89771 12.9322C8.8098 12.6369 8.76258 12.324 8.76258 12C8.76258 11.6761 8.80979 11.3632 8.89768 11.068L10.5059 12.0001L8.89771 12.9322ZM9.6455 9.76935C10.0721 9.31567 10.6274 8.98527 11.2528 8.83697V10.701L9.6455 9.76935Z" fill="black"/>
</svg>
