<svg width="24" height="24" viewBox="0 0 24 24" fill="none" xmlns="http://www.w3.org/2000/svg">
<path fill-rule="evenodd" clip-rule="evenodd" d="M11.2528 4.59861V2H12.747V4.59861L14.5738 3.37596L15.4026 4.62404L12.747 6.40139V10.7009L16.4561 8.55111L16.6615 5.35359L18.1525 5.45012L18.0112 7.64972L20.2529 6.35041L21 7.64945L18.7583 8.94876L20.7264 9.9257L20.0642 11.2703L17.2032 9.85014L13.4941 11.9999L17.2032 14.1497L20.0642 12.7295L20.7264 14.0742L18.7583 15.0511L21 16.3504L20.2529 17.6495L18.0112 16.3501L18.1525 18.5497L16.6615 18.6463L16.4561 15.4488L12.747 13.2989L12.747 17.5986L15.4026 19.376L14.5738 20.624L12.747 19.4014V22H11.2528V19.4014L9.42601 20.624L8.59721 19.376L11.2528 17.5986L11.2528 13.299L7.54391 15.4488L7.3385 18.6463L5.84745 18.5497L5.98876 16.3501L3.74707 17.6495L3 16.3504L5.24168 15.0511L3.27356 14.0742L3.93581 12.7295L6.79684 14.1497L10.5059 11.9999L6.79684 9.85014L3.93581 11.2703L3.27356 9.9257L5.24168 8.94876L3 7.64945L3.74707 6.35041L5.98876 7.64972L5.84745 5.45012L7.3385 5.35359L7.54391 8.55111L11.2528 10.7008V6.40139L8.59721 4.62404L9.42601 3.37596L11.2528 4.59861Z" fill="black"/>
</svg>
