<svg width="24" height="24" viewBox="0 0 24 24" fill="none" xmlns="http://www.w3.org/2000/svg">
<path fill-rule="evenodd" clip-rule="evenodd" d="M6.99996 3L7.00006 17.1716L4.41421 14.5858L3 16L8.00005 21L13 16L11.5858 14.5858L9.00005 17.1716L8.99996 3H6.99996ZM18.5 4.75C18.0858 4.75 17.75 5.08579 17.75 5.5C17.75 5.91421 18.0858 6.25 18.5 6.25C18.9142 6.25 19.25 5.91421 19.25 5.5C19.25 5.08579 18.9142 4.75 18.5 4.75ZM18.5 3.25C19.7426 3.25 20.75 4.25736 20.75 5.5V8.5C20.75 9.74264 19.7426 10.75 18.5 10.75C17.2574 10.75 16.25 9.74264 16.25 8.5H17.75C17.75 8.91421 18.0858 9.25 18.5 9.25C18.9142 9.25 19.25 8.91421 19.25 8.5V7.62197C19.0154 7.70488 18.763 7.75 18.5 7.75C17.2574 7.75 16.25 6.74264 16.25 5.5C16.25 4.25736 17.2574 3.25 18.5 3.25ZM19.75 13.25H17V14.75H18.25V21H19.75V13.25Z" fill="black"/>
</svg>
