<svg width="24" height="24" viewBox="0 0 24 24" fill="none" xmlns="http://www.w3.org/2000/svg">
<path fill-rule="evenodd" clip-rule="evenodd" d="M7.00484 20.9989L7.00494 6.82733L4.4191 9.41311L3.00488 7.9989L8.00494 2.9989L13.0049 7.9989L11.5907 9.41311L9.00494 6.82733L9.00484 20.9989H7.00484ZM15.2466 3.06638H20.3256L21.0001 4.24858L17.2617 9.06638H20.7488V10.5664H15.6699L14.9954 9.38417L18.7337 4.56638H15.2466V3.06638ZM17.4041 18.0664L17.9977 15.9087L18.5913 18.0664H17.4041ZM16.9914 19.5664L16.5975 20.9983L14.9962 20.6345L17.197 12.6345H18.7984L20.9993 20.6345L19.3979 20.9983L19.004 19.5664H16.9914Z" fill="black"/>
</svg>
