<svg width="24" height="24" viewBox="0 0 24 24" fill="none" xmlns="http://www.w3.org/2000/svg">
<path fill-rule="evenodd" clip-rule="evenodd" d="M6.99996 3.00537L7.00006 17.1769L4.41421 14.5912L3 16.0054L8.00005 21.0054L13 16.0054L11.5858 14.5912L9.00005 17.1769L8.99996 3.00537H6.99996ZM19.75 3.25H17V4.75H18.25V11H19.75V3.25ZM20.75 18.5V15.5C20.75 14.2574 19.7426 13.25 18.5 13.25C17.2574 13.25 16.25 14.2574 16.25 15.5C16.25 16.7426 17.2574 17.75 18.5 17.75C18.763 17.75 19.0154 17.7049 19.25 17.622V18.5C19.25 18.9142 18.9142 19.25 18.5 19.25C18.0858 19.25 17.75 18.9142 17.75 18.5H16.25C16.25 19.7426 17.2574 20.75 18.5 20.75C19.7426 20.75 20.75 19.7426 20.75 18.5ZM18.5 14.75C18.0858 14.75 17.75 15.0858 17.75 15.5C17.75 15.9142 18.0858 16.25 18.5 16.25C18.9142 16.25 19.25 15.9142 19.25 15.5C19.25 15.0858 18.9142 14.75 18.5 14.75Z" fill="black"/>
</svg>
