<svg width="24" height="24" viewBox="0 0 24 24" fill="none" xmlns="http://www.w3.org/2000/svg">
<path fill-rule="evenodd" clip-rule="evenodd" d="M6.99996 3L7.00006 17.1716L4.41421 14.5858L3 16L8.00005 21L13 16L11.5858 14.5858L9.00005 17.1716L8.99996 3H6.99996ZM17.4069 8.43192L18 6.27423L18.5931 8.43192H17.4069ZM16.9945 9.93192L16.6009 11.3638L15.0008 11L17.1999 3H18.8001L20.9992 11L19.3991 11.3638L19.0055 9.93192H16.9945ZM15.2511 13.5H20.326L21 14.6822L17.2646 19.5H20.7489V21H18H15.674L15 19.8178L18.7354 15H15.2511V13.5Z" fill="black"/>
</svg>
