<svg width="24" height="24" viewBox="0 0 24 24" fill="none" xmlns="http://www.w3.org/2000/svg">
<path fill-rule="evenodd" clip-rule="evenodd" d="M6.99996 21L7.00006 6.82843L4.41421 9.41421L3 8L8.00005 3L13 8L11.5858 9.41421L9.00005 6.82843L8.99996 21H6.99996ZM17.4067 8.43192L18 6.27423L18.5933 8.43192H17.4067ZM16.9943 9.93192L16.6005 11.3638L15 11L17.1997 3H18.8003L21 11L19.3995 11.3638L19.0057 9.93192H16.9943ZM15.2511 13.25H20.326L21 14.4322L17.2646 19.25H20.7489V20.75H15.674L15 19.5678L18.7354 14.75H15.2511V13.25Z" fill="black"/>
</svg>
