<svg width="24" height="24" viewBox="0 0 24 24" fill="none" xmlns="http://www.w3.org/2000/svg">
<path fill-rule="evenodd" clip-rule="evenodd" d="M6.99996 3L7.00006 17.1716L4.41421 14.5858L3 16L8.00005 21L13 16L11.5858 14.5858L9.00005 17.1716L8.99996 3H6.99996ZM15.2511 3.06641H20.326L21 4.24861L17.2646 9.06641H20.7489V10.5664H15.674L15 9.3842L18.7354 4.56641H15.2511V3.06641ZM17.4069 18.0664L18.0001 15.9087L18.5932 18.0664H17.4069ZM16.9946 19.5664L16.601 20.9983L15.0009 20.6345L17.2 12.6345H18.8001L20.9993 20.6345L19.3992 20.9983L19.0055 19.5664H16.9946Z" fill="black"/>
</svg>
