<svg width="24" height="24" viewBox="0 0 24 24" fill="none" xmlns="http://www.w3.org/2000/svg">
<path fill-rule="evenodd" clip-rule="evenodd" d="M4 12C4 7.58172 7.58172 4 12 4C16.4183 4 20 7.58172 20 12C20 14.1177 19.1083 16.0581 17.7638 17.49C16.0747 16.5531 14.1399 16 12 16C9.8601 16 7.92529 16.5531 6.23615 17.49C4.89171 16.0581 4 14.1177 4 12ZM12 2C6.47715 2 2 6.47715 2 12C2 14.9738 3.36921 17.6611 5.42791 19.4914L6 20L6.64032 19.5805C8.12802 18.6059 9.93992 18 12 18C14.0601 18 15.872 18.6059 17.3597 19.5805L18 20L18.5721 19.4914C20.6308 17.6611 22 14.9738 22 12C22 6.47715 17.5228 2 12 2ZM12 6L11.9425 6.00027C11.3902 6.00548 10.9467 6.45739 10.9519 7.00965C10.9571 7.56191 11.409 8.00539 11.9613 8.00018L12 8L12.0387 8.00018C12.591 8.00539 13.0429 7.56191 13.0481 7.00965C13.0533 6.45739 12.6098 6.00548 12.0575 6.00027L12 6ZM16.283 7.79815L16.2019 7.71696C16.2019 7.71696 11.3121 9.87948 10.6061 10.5658C10.2323 10.9292 10.0001 11.4375 10.0001 12C10.0001 13.1046 10.8955 14 12.0001 14C12.5497 14 13.0476 13.7783 13.4091 13.4194C14.1091 12.7244 16.283 7.79815 16.283 7.79815ZM9.19884 9.14457C9.59306 8.75778 9.59909 8.12464 9.2123 7.73042C8.82551 7.33619 8.19237 7.33017 7.79815 7.71696C7.77083 7.74376 7.74376 7.77083 7.71696 7.79815C7.33017 8.19237 7.33619 8.82551 7.73042 9.2123C8.12464 9.59909 8.75778 9.59306 9.14457 9.19884C9.16248 9.18058 9.18057 9.16249 9.19884 9.14457ZM17.9997 11.9425C17.9945 11.3902 17.5426 10.9467 16.9903 10.9519C16.4381 10.9571 15.9946 11.409 15.9998 11.9613L16 12L15.9998 12.0387C15.9946 12.591 16.4381 13.0429 16.9903 13.0481C17.5426 13.0533 17.9945 12.6098 17.9997 12.0575L18 12L17.9997 11.9425ZM8.00018 11.9613C8.00539 11.409 7.56191 10.9571 7.00965 10.9519C6.45739 10.9467 6.00548 11.3902 6.00027 11.9425L6 12L6.00027 12.0575C6.00548 12.6098 6.45739 13.0533 7.00965 13.0481C7.56191 13.0429 8.00539 12.591 8.00018 12.0387L8 12L8.00018 11.9613Z" fill="black"/>
</svg>
