<svg width="24" height="24" viewBox="0 0 24 24" fill="none" xmlns="http://www.w3.org/2000/svg">
<path fill-rule="evenodd" clip-rule="evenodd" d="M12.7024 13.7202C14.3095 13.7202 15.3036 12.4702 15.3036 10.3988V10.3929C15.3036 8.31548 14.3095 7.07738 12.7083 7.07738C11.7976 7.07738 11.0893 7.54167 10.7381 8.31548H10.7024V5H8.96429V13.5893H10.7024V12.5H10.7381C11.0833 13.256 11.7857 13.7202 12.7024 13.7202ZM12.125 12.2798C11.2798 12.2798 10.7024 11.5536 10.7024 10.3988V10.3929C10.7024 9.24405 11.2857 8.51786 12.125 8.51786C12.9881 8.51786 13.5357 9.22619 13.5357 10.3929V10.3988C13.5357 11.5595 12.9881 12.2798 12.125 12.2798ZM4.14286 13.6905C4.98214 13.6905 5.66071 13.2917 6.02381 12.6369H6.05952V13.5893H7.79762V9.21429C7.79762 7.92857 6.73214 7.07738 5.08333 7.07738C3.39881 7.07738 2.3869 7.92262 2.29167 9.10119L2.28571 9.17262H3.875L3.8869 9.11905C3.97024 8.70833 4.3631 8.40476 5.0119 8.40476C5.69048 8.40476 6.05952 8.75595 6.05952 9.32143V9.71429L4.48214 9.80952C2.89881 9.91071 2 10.5893 2 11.75V11.7619C2 12.8869 2.8631 13.6905 4.14286 13.6905ZM3.72024 11.6726V11.6607C3.72024 11.2083 4.07143 10.9226 4.74405 10.881L6.05952 10.7976V11.256C6.05952 11.9226 5.4881 12.4226 4.70833 12.4226C4.10714 12.4226 3.72024 12.1429 3.72024 11.6726ZM17.7321 10.3988C17.7321 11.0742 17.8885 11.5914 18.1675 11.9242L17.0478 13.0519C16.3536 12.4803 15.9643 11.5648 15.9643 10.3929V10.3869C15.9643 8.34524 17.1845 7.07738 19.0952 7.07738C20.8274 7.07738 21.9286 8.14286 21.994 9.52381V9.56548H20.381L20.369 9.5119C20.2619 8.90476 19.8393 8.44048 19.119 8.44048C18.2679 8.44048 17.7321 9.17262 17.7321 10.3929V10.3988ZM22 13L20.5858 11.5858L15 17.1716L12.9142 15.0858L11.5 16.5L15 20L22 13Z" fill="black"/>
</svg>
