<svg width="24" height="24" viewBox="0 0 24 24" fill="none" xmlns="http://www.w3.org/2000/svg">
<path fill-rule="evenodd" clip-rule="evenodd" d="M12.8974 2.82532L12 1.00037L11.1026 2.82532L8.60081 7.91314L2.99908 8.7301L1 9.02165L2.44408 10.4344L6.5 14.4025L5.54332 20.0008L5.20163 22.0004L6.99571 21.0537L12 18.4131L17.0043 21.0537L18.7984 22.0004L18.4567 20.0008L17.5 14.4025L21.5559 10.4344L23 9.02165L21.0009 8.7301L15.3992 7.91314L12.8974 2.82532ZM12 5.5328V16.1518L12.4667 16.398L16.1436 18.3382L15.4403 14.2227L15.352 13.706L15.7267 13.3394L18.7132 10.4176L14.5897 9.81625L14.0689 9.74029L13.8367 9.26798L12 5.5328Z" fill="black"/>
</svg>
