<svg width="24" height="24" viewBox="0 0 24 24" fill="none" xmlns="http://www.w3.org/2000/svg">
<path fill-rule="evenodd" clip-rule="evenodd" d="M11 6.00002C9.95936 4.97029 9.40613 3.48276 9.16073 2H8.85771C8.63091 3.48932 8.09625 4.95634 7 6.00002C5.9948 6.95702 4.47516 7.53681 3 7.81022V8.16074C4.48276 8.40612 5.97026 8.95932 7 10C8.01065 11.0215 8.57359 12.5203 8.82902 14H9.15966C9.40401 12.5169 9.9562 11.0306 11 10C12.0206 8.99243 13.5206 8.42851 15 8.17205V7.82909C13.5203 7.57368 12.0215 7.01077 11 6.00002ZM15.3334 16.6667C14.6396 15.9802 14.2708 14.9885 14.1072 14H13.9052C13.754 14.9929 13.3975 15.9709 12.6667 16.6667C11.9965 17.3047 10.9834 17.6912 10 17.8735V18.1072C10.9885 18.2707 11.9802 18.6395 12.6667 19.3334C13.3405 20.0143 13.7157 21.0135 13.886 22H14.1065C14.2694 21.0113 14.6375 20.0204 15.3334 19.3334C16.0137 18.6616 17.0138 18.2857 18 18.1147V17.8861C17.0136 17.7158 16.0143 17.3405 15.3334 16.6667ZM18.0804 8C18.2031 8.74138 18.4797 9.48515 19 10C19.5107 10.5054 20.2602 10.7868 21 10.9145V11.086C20.2603 11.2143 19.5103 11.4962 19 12C18.4781 12.5153 18.202 13.2585 18.0798 14H17.9145C17.7868 13.2602 17.5053 12.5107 17 12C16.4851 11.4797 15.7414 11.2031 15 11.0804V10.9051C15.7376 10.7684 16.4974 10.4785 17 10C17.5481 9.47817 17.8155 8.74466 17.9289 8H18.0804Z" fill="black"/>
</svg>
