<svg width="24" height="24" viewBox="0 0 24 24" fill="none" xmlns="http://www.w3.org/2000/svg">
<path fill-rule="evenodd" clip-rule="evenodd" d="M7 4H11V6.06189C7.05369 6.55399 4 9.92038 4 14C4 18.4183 7.58172 22 12 22C16.4183 22 20 18.4183 20 14C20 9.92038 16.9463 6.55399 13 6.06189V4H17V2H7V4ZM6 14C6 10.6863 8.68629 8 12 8C15.3137 8 18 10.6863 18 14C18 17.3137 15.3137 20 12 20C8.68629 20 6 17.3137 6 14ZM11 13.5858V10H13V14V14.4142L12.7071 14.7071L10.2071 17.2071L8.79289 15.7929L11 13.5858ZM19 8C19.5523 8 20 7.55228 20 7C20 6.44772 19.5523 6 19 6C18.4477 6 18 6.44772 18 7C18 7.55228 18.4477 8 19 8Z" fill="black"/>
</svg>
