<svg width="24" height="24" viewBox="0 0 24 24" fill="none" xmlns="http://www.w3.org/2000/svg">
<path fill-rule="evenodd" clip-rule="evenodd" d="M6.80269 5C7.84012 3.2066 9.77915 2 12 2C14.2208 2 16.1599 3.2066 17.1973 5H20V7H17.917C17.9716 7.32521 18 7.65929 18 8V10H20V12H18V15H20V17H18V22H6V17H4V15H6V12H4V10H6V8C6 7.65929 6.0284 7.32521 6.08296 7H4V5H6.80269ZM14 12C14 13.1046 13.1046 14 12 14C10.8954 14 10 13.1046 10 12C10 10.8954 10.8954 10 12 10C13.1046 10 14 10.8954 14 12ZM12 9C13.1046 9 14 8.10457 14 7C14 5.89543 13.1046 5 12 5C10.8954 5 10 5.89543 10 7C10 8.10457 10.8954 9 12 9ZM14 17C14 18.1046 13.1046 19 12 19C10.8954 19 10 18.1046 10 17C10 15.8954 10.8954 15 12 15C13.1046 15 14 15.8954 14 17Z" fill="black"/>
</svg>
