<svg width="24" height="24" viewBox="0 0 24 24" fill="none" xmlns="http://www.w3.org/2000/svg">
<path fill-rule="evenodd" clip-rule="evenodd" d="M11 4H7V2H17V4H13V6.06189C16.9463 6.55399 20 9.92038 20 14C20 18.4183 16.4183 22 12 22C7.58172 22 4 18.4183 4 14C4 9.92038 7.05369 6.55399 11 6.06189V4ZM11 10V13.5858L8.79289 15.7929L10.2071 17.2071L12.7071 14.7071L13 14.4142V14V10H11ZM19 8C19.5523 8 20 7.55228 20 7C20 6.44772 19.5523 6 19 6C18.4477 6 18 6.44772 18 7C18 7.55228 18.4477 8 19 8Z" fill="black"/>
</svg>
