<svg width="24" height="24" viewBox="0 0 24 24" fill="none" xmlns="http://www.w3.org/2000/svg">
<path fill-rule="evenodd" clip-rule="evenodd" d="M7.76011 14L9.50001 7.73637L11.2399 14H7.76011ZM7.20456 16L6.07573 20H4L8.53648 4H9.5H10.4635L15 20H12.9243L11.7955 16H7.20456ZM19 15C18.4477 15 18 15.4477 18 16H16C16 14.3431 17.3432 13 19 13C20.6569 13 22 14.3431 22 16C22 16.8872 21.6358 17.5886 21.3122 18.0392C20.7507 18.821 19.2033 20 19.2033 20H22V22H16V20C16 20 18.7741 18.1446 19.6878 16.8724C19.8642 16.6268 20 16.3283 20 16C20 15.4477 19.5523 15 19 15Z" fill="black"/>
</svg>
