<svg width="24" height="24" viewBox="0 0 24 24" fill="none" xmlns="http://www.w3.org/2000/svg">
<path fill-rule="evenodd" clip-rule="evenodd" d="M4.48477 9.09292C3.91779 9.67715 3.27517 10.2569 2.80716 10.9279C2.29846 11.6572 2 12.5452 2 13.5C2 15.9853 4.01472 18 6.5 18C7.15211 18 7.77418 17.8607 8.336 17.6094L6.17833 21H17.8217L15.664 17.6094C16.2258 17.8607 16.8479 18 17.5 18C19.9853 18 22 15.9853 22 13.5C22 12.5452 21.7015 11.6572 21.1928 10.9279C20.7248 10.2569 20.0822 9.67715 19.5152 9.09292C19 8.56201 12 2 12 2M12 12.7377C10.5871 13.826 9.19078 14.9904 7.57091 15.7599C7.24752 15.9136 6.88525 16 6.5 16C5.11929 16 4 14.8807 4 13.5C4 12.692 4.38209 12.1167 4.90298 11.5533C7.13677 9.13704 12 4.82046 12 4.82046C12 4.82046 16.1395 8.48621 18.08 10.4858C18.8955 11.3261 20 12.2289 20 13.5C20 14.8807 18.8807 16 17.5 16C17.1147 16 16.7525 15.9136 16.4291 15.7599C14.8311 15.0008 13.3949 13.8122 12 12.7377ZM12 15.5769L9.82167 19H14.1783L12 15.5769Z" fill="black"/>
</svg>
