<svg width="24" height="24" viewBox="0 0 24 24" fill="none" xmlns="http://www.w3.org/2000/svg">
<path fill-rule="evenodd" clip-rule="evenodd" d="M7.5 5C5.567 5 4 6.567 4 8.5C4 10.3025 4.93405 11.4187 6.64925 12.8828C6.94443 13.1348 7.26103 13.3953 7.5937 13.669C8.91945 14.7598 10.5006 15.8606 12 17.6706C13.4994 15.8606 15.0805 14.7598 16.4063 13.669C16.739 13.3953 17.0556 13.1348 17.3507 12.8828C19.0659 11.4187 20 10.3025 20 8.5C20 6.567 18.433 5 16.5 5C14.567 5 13 6.567 13 8.5H11C11 6.567 9.433 5 7.5 5ZM12 5.33692C11.0046 3.92345 9.36016 3 7.5 3C4.46243 3 2 5.46243 2 8.5C2 11.2466 3.56595 12.8804 5.35075 14.404C5.683 14.6876 6.02537 14.9699 6.37474 15.2579C8.50096 17.011 10.3788 18.7708 12 21C13.6212 18.7708 15.499 17.011 17.6253 15.2579C17.9746 14.9699 18.317 14.6876 18.6493 14.404C20.4341 12.8804 22 11.2466 22 8.5C22 5.46243 19.5376 3 16.5 3C14.6398 3 12.9954 3.92345 12 5.33692Z" fill="black"/>
</svg>
