<svg width="24" height="24" viewBox="0 0 24 24" fill="none" xmlns="http://www.w3.org/2000/svg">
<path fill-rule="evenodd" clip-rule="evenodd" d="M9 7C9 5.34315 10.3431 4 12 4C13.6569 4 15 5.34315 15 7C15 7.69127 14.7674 8.3254 14.3757 8.83233L15.6258 10.3323C16.0364 10.1202 16.5027 10 17 10C18.6569 10 20 11.3431 20 13C20 14.6569 18.6569 16 17 16C16.661 16 16.2299 15.8805 15.7278 15.6338C15.2352 15.3917 14.7371 15.0584 14.2817 14.7077C13.8293 14.3593 13.438 14.0083 13.1592 13.7436C13.0204 13.6118 12.911 13.5028 12.8374 13.4279C12.8007 13.3905 12.773 13.3618 12.7551 13.3431L12.7359 13.3229L12.7322 13.3189L12.7321 13.3188L12.7319 13.3186L12.7318 13.3184L12.7316 13.3183L11.9803 12.5107L11.2508 13.3377L11.2506 13.3379L11.2505 13.338L11.2504 13.3382L11.2501 13.3384L11.2471 13.3418L11.2295 13.3613C11.2129 13.3795 11.187 13.4078 11.1524 13.4447C11.0831 13.5185 10.9795 13.6265 10.8472 13.7571C10.5813 14.0196 10.2057 14.3677 9.76522 14.7133C8.83032 15.4469 7.81384 16 7 16C5.34315 16 4 14.6569 4 13C4 11.3431 5.34315 10 7 10C7.49729 10 7.96357 10.1202 8.37418 10.3323L9.62434 8.83233C9.23258 8.32539 9 7.69127 9 7ZM8.2004 17.8225C7.80972 17.9339 7.40682 18 7 18C4.23858 18 2 15.7614 2 13C2 10.2386 4.23858 8 7 8C7.03354 8 7.06701 8.00033 7.1004 8.00099C7.03457 7.67742 7 7.34262 7 7C7 4.23858 9.23858 2 12 2C14.7614 2 17 4.23858 17 7C17 7.34262 16.9654 7.67742 16.8996 8.00099C16.933 8.00033 16.9665 8 17 8C19.7614 8 22 10.2386 22 13C22 15.7614 19.7614 18 17 18C16.5866 18 16.1788 17.9255 15.7899 17.8072L16.8437 19.4631L17.8217 21H16H8H6.17833L7.15634 19.4631L8.2004 17.8225ZM9.82167 19L12 15.5769L14.1783 19H9.82167Z" fill="black"/>
</svg>
