<svg width="24" height="24" viewBox="0 0 24 24" fill="none" xmlns="http://www.w3.org/2000/svg">
<path fill-rule="evenodd" clip-rule="evenodd" d="M12 5.33692C11.0046 3.92345 9.36016 3 7.5 3C4.46243 3 2 5.46243 2 8.5C2 11.2466 3.56595 12.8804 5.35075 14.404C5.683 14.6876 6.02537 14.9699 6.37474 15.2579C7.93319 16.5429 10.4397 18.8545 12 21C13.5603 18.8545 16.0668 16.5429 17.6253 15.2579C17.9746 14.9699 18.317 14.6876 18.6493 14.404C20.4341 12.8804 22 11.2466 22 8.5C22 5.46243 19.5376 3 16.5 3C14.6398 3 12.9954 3.92345 12 5.33692Z" fill="black"/>
</svg>
