<svg width="24" height="24" viewBox="0 0 24 24" fill="none" xmlns="http://www.w3.org/2000/svg">
<path fill-rule="evenodd" clip-rule="evenodd" d="M6.44444 17.5556C3.98985 17.5556 2 15.5657 2 13.1111C2 10.6565 3.98985 8.66667 6.44444 8.66667C7.17853 8.66667 7.87105 8.84464 8.48121 9.15979C7.90086 8.40882 7.55556 7.46696 7.55556 6.44444C7.55556 3.98985 9.5454 2 12 2C14.4546 2 16.4444 3.98985 16.4444 6.44444C16.4444 7.46696 16.0991 8.40883 15.5188 9.1598C16.1289 8.84464 16.8215 8.66667 17.5556 8.66667C20.0102 8.66667 22 10.6565 22 13.1111C22 15.5657 20.0102 17.5556 17.5556 17.5556C15.5609 17.5556 14.3263 16.5471 13.7329 15.8889C13.7329 15.8889 14.8333 18.7778 16.5 21H7.5C9.16667 18.7778 10.2564 15.8889 10.2564 15.8889C9.66921 16.5471 8.44336 17.5556 6.44444 17.5556Z" fill="black"/>
</svg>
