<svg width="24" height="24" viewBox="0 0 24 24" fill="none" xmlns="http://www.w3.org/2000/svg">
<path fill-rule="evenodd" clip-rule="evenodd" d="M17.9491 12.7887L21.9155 13.3061C21.9712 12.8786 22 12.4427 22 12C22 11.5573 21.9712 11.1214 21.9155 10.6939L17.9491 11.2113C17.9825 11.4677 18 11.7308 18 12C18 12.2692 17.9825 12.5323 17.9491 12.7887ZM16.7623 8.34947L19.934 5.91216C19.4016 5.2194 18.7806 4.59836 18.0878 4.06601L15.6505 7.23768C16.0676 7.5582 16.4418 7.93237 16.7623 8.34947ZM12.7887 6.05092L13.3061 2.08452C12.8786 2.02876 12.4427 2 12 2C11.5573 2 11.1214 2.02876 10.6939 2.08452L11.2113 6.05092C11.4677 6.01748 11.7308 6 12 6C12.2692 6 12.5323 6.01748 12.7887 6.05092ZM8.34947 7.23768L5.91216 4.06601C5.2194 4.59836 4.59836 5.21941 4.06601 5.91216L7.23768 8.34947C7.5582 7.93238 7.93237 7.5582 8.34947 7.23768ZM2 12C2 11.5573 2.02876 11.1214 2.08452 10.6939L6.05092 11.2113C6.01748 11.4677 6 11.7308 6 12C6 12.2692 6.01748 12.5323 6.05092 12.7887L2.08452 13.3061C2.02876 12.8786 2 12.4427 2 12ZM7.23768 15.6505L4.06601 18.0878C4.59836 18.7806 5.21941 19.4016 5.91216 19.934L8.34947 16.7623C7.93238 16.4418 7.5582 16.0676 7.23768 15.6505ZM11.2113 17.9491L10.6939 21.9155C11.1214 21.9712 11.5573 22 12 22C12.4427 22 12.8786 21.9712 13.3061 21.9155L12.7887 17.9491C12.5323 17.9825 12.2692 18 12 18C11.7308 18 11.4677 17.9825 11.2113 17.9491ZM15.6505 16.7623L18.0878 19.934C18.7806 19.4016 19.4016 18.7806 19.934 18.0878L16.7623 15.6505C16.4418 16.0676 16.0676 16.4418 15.6505 16.7623ZM12 17C14.7614 17 17 14.7614 17 12C17 9.23858 14.7614 7 12 7C9.23858 7 7 9.23858 7 12C7 14.7614 9.23858 17 12 17Z" fill="black"/>
</svg>
