<svg width="24" height="24" viewBox="0 0 24 24" fill="none" xmlns="http://www.w3.org/2000/svg">
<path fill-rule="evenodd" clip-rule="evenodd" d="M19 8C20.1046 8 21 8.89543 21 10V11H23V13H21V14C21 15.1046 20.1046 16 19 16H17.1231C15.2876 16 13.6877 14.7508 13.2425 12.9701C13.1626 12.6504 13.0559 12.328 13.0152 12H13C13 11.4477 12.5523 11 12 11C11.4477 11 11 11.4477 11 12H10.9848C10.9441 12.328 10.8374 12.6504 10.7575 12.9701C10.3123 14.7508 8.71237 16 6.87689 16H5C3.89543 16 3 15.1046 3 14V13H1V11H3V10C3 8.89543 3.89543 8 5 8H8C9.06226 8 9.99557 8.5521 10.5286 9.38499C10.9634 9.13986 11.4653 9 12 9C12.5347 9 13.0366 9.13986 13.4714 9.38499C14.0044 8.5521 14.9377 8 16 8H19ZM7.20671 9.5H6C5.17157 9.5 4.5 10.1716 4.5 11V12.2067C4.5 12.3687 4.63131 12.5 4.79329 12.5C4.93655 12.5 5.05731 12.396 5.09267 12.2572C5.36269 11.1972 6.19717 10.3627 7.25718 10.0927C7.396 10.0573 7.5 9.93655 7.5 9.79329C7.5 9.63131 7.36869 9.5 7.20671 9.5Z" fill="black"/>
</svg>
