<svg width="24" height="24" viewBox="0 0 24 24" fill="none" xmlns="http://www.w3.org/2000/svg">
<path fill-rule="evenodd" clip-rule="evenodd" d="M17.9491 14.7887L21.9155 15.3061C21.9712 14.8786 22 14.4427 22 14C22 13.5573 21.9712 13.1214 21.9155 12.6939L17.9491 13.2113C17.9825 13.4677 18 13.7308 18 14C18 14.2692 17.9825 14.5323 17.9491 14.7887ZM16.7623 10.3495L19.934 7.91216C19.4016 7.2194 18.7806 6.59836 18.0878 6.06601L15.6505 9.23768C16.0676 9.5582 16.4418 9.93237 16.7623 10.3495ZM13.1867 5H15L12 2L9 5H10.8133L11.2113 8.05092C11.4677 8.01748 11.7308 8 12 8C12.2692 8 12.5323 8.01748 12.7887 8.05092L13.1867 5ZM8.34947 9.23768L5.91216 6.06601C5.2194 6.59836 4.59836 7.21941 4.06601 7.91216L7.23768 10.3495C7.5582 9.93238 7.93237 9.5582 8.34947 9.23768ZM2 14C2 13.5573 2.02876 13.1214 2.08452 12.6939L6.05092 13.2113C6.01748 13.4677 6 13.7308 6 14C6 14.2692 6.01748 14.5323 6.05092 14.7887L2.08452 15.3061C2.02876 14.8786 2 14.4427 2 14ZM6.9264 16.7731C7.1368 16.6461 7.3582 16.5124 7.59831 16.3738C7.21666 15.6676 7 14.8591 7 14C7 11.2386 9.23858 9 12 9C14.7614 9 17 11.2386 17 14C17 14.8591 16.7833 15.6676 16.4016 16.3739C16.6417 16.5125 16.863 16.6461 17.0734 16.773C18.2669 17.4934 19.1063 18 21 18V20C18.5138 20 17.0833 19.137 15.7345 18.3233C15.2893 18.0547 14.8531 17.7916 14.3907 17.5665C12.8385 16.8112 11.1612 16.8112 9.60906 17.5665C9.14677 17.7915 8.71056 18.0547 8.26544 18.3232C6.91674 19.1369 5.48616 20 3 20V18C4.89362 18 5.733 17.4934 6.9264 16.7731Z" fill="black"/>
</svg>
