<svg width="24" height="24" viewBox="0 0 24 24" fill="none" xmlns="http://www.w3.org/2000/svg">
<path fill-rule="evenodd" clip-rule="evenodd" d="M17 4C16.4477 4 16 4.44772 16 5H14C14 3.34315 15.3432 2 17 2C18.6569 2 20 3.34315 20 5C20 5.88718 19.6358 6.58864 19.3122 7.03918C18.7507 7.82097 17.2033 9 17.2033 9H20V11H14V9C14 9 16.7741 7.14459 17.6878 5.87243C17.8642 5.62684 18 5.3283 18 5C18 4.44772 17.5523 4 17 4ZM7.76011 14L9.50001 7.73637L11.2399 14H7.76011ZM7.20456 16L6.07573 20H4L8.53648 4H9.5H10.4635L15 20H12.9243L11.7955 16H7.20456Z" fill="black"/>
</svg>
