<svg width="24" height="24" viewBox="0 0 24 24" fill="none" xmlns="http://www.w3.org/2000/svg">
<path fill-rule="evenodd" clip-rule="evenodd" d="M12.4139 3H3V12.4217L11.7044 21.122C12.8762 22.2932 14.7747 22.2926 15.9458 21.1207L21.1173 15.9452C22.2894 14.7722 22.2888 12.8702 21.116 11.698L12.4139 3ZM5 11.5919V5.00151H11.5861L19.7027 13.1142C20.0936 13.5049 20.0938 14.1389 19.7031 14.5299L14.5315 19.7054C14.1412 20.096 13.5084 20.0962 13.1178 19.7058L5 11.5919ZM9 11C10.1046 11 11 10.1046 11 9C11 7.89543 10.1046 7 9 7C7.89543 7 7 7.89543 7 9C7 10.1046 7.89543 11 9 11Z" fill="black"/>
</svg>
