<svg width="24" height="24" viewBox="0 0 24 24" fill="none" xmlns="http://www.w3.org/2000/svg">
<path fill-rule="evenodd" clip-rule="evenodd" d="M11.3565 9.27067C11.9119 9.01389 12.4328 8.69528 12.9105 8.32367L11.5896 7.00327H7.00191V11.5919L14.1189 18.7058C14.5096 19.0964 15.1429 19.0963 15.5334 18.7056L18.7062 15.532C19.097 15.1411 19.0969 14.5073 18.706 14.1166L14.3344 9.747C13.575 10.3687 12.7225 10.8809 11.801 11.2595C11.5411 11.7063 11.0572 12.0065 10.5033 12.0065C9.67451 12.0065 9.00268 11.3345 9.00268 10.5056C9.00268 9.67659 9.67451 9.00458 10.5033 9.00458C10.8202 9.00458 11.1142 9.10288 11.3565 9.27067ZM14.325 6.90828C15.3782 5.55258 16.0054 3.84926 16.0054 2H18.0061C18.0061 4.40276 17.1597 6.60717 15.7491 8.33177L20.1203 12.701C21.293 13.8732 21.2933 15.7745 20.121 16.9471L16.9482 20.1207C15.7764 21.2928 13.8768 21.2931 12.7046 20.1214L5.00115 12.4212V11.0059H2V9.00458H5.00115V5.00196H12.418L14.325 6.90828Z" fill="black"/>
</svg>
