<svg width="24" height="24" viewBox="0 0 24 24" fill="none" xmlns="http://www.w3.org/2000/svg">
<path fill-rule="evenodd" clip-rule="evenodd" d="M15.7443 8.32699L20.1203 12.701C21.293 13.8732 21.2933 15.7745 20.121 16.9471L16.9482 20.1207C15.7765 21.2928 13.8768 21.2931 12.7046 20.1214L5.00116 12.4212V11H2V9H5.00116V5.00195H12.418L14.321 6.90424C15.3738 5.54959 16 3.8492 16 2H18C18 4.38049 17.167 6.56914 15.7774 8.28638C15.7664 8.29995 15.7554 8.31348 15.7443 8.32699ZM12 10.5C12 11.3284 11.3284 12 10.5 12C9.67157 12 9 11.3284 9 10.5C9 9.67157 9.67157 9 10.5 9C11.3284 9 12 9.67157 12 10.5Z" fill="black"/>
</svg>
