<svg width="24" height="24" viewBox="0 0 24 24" fill="none" xmlns="http://www.w3.org/2000/svg">
<path fill-rule="evenodd" clip-rule="evenodd" d="M13.4188 3H6.0018V5.00001H2V12.4142L9.70237 20.1183C10.8743 21.2897 12.7743 21.2899 13.9462 20.1185L15.1459 18.9194C16.1213 19.1453 17.1878 18.8784 17.948 18.1185L21.121 14.9469C22.2931 13.7754 22.2929 11.8756 21.121 10.704L13.4188 3ZM11.1167 18.7042L4.00001 11.5859V7.00003H6.0018V10.4142L13.4113 17.8254L12.5323 18.704C12.1415 19.0947 11.5077 19.0947 11.1167 18.7042ZM8.00181 5.00001H12.5902L19.7069 12.1183C20.0975 12.5087 20.0978 13.1419 19.7071 13.5324L16.5341 16.704C16.1433 17.0947 15.5095 17.0947 15.1186 16.7042L8.00181 9.5859V5.00001ZM13.0001 8.50004C13.0001 9.32847 12.3285 10 11.5001 10C10.6716 10 10 9.32847 10 8.50004C10 7.6716 10.6716 7.00003 11.5001 7.00003C12.3285 7.00003 13.0001 7.6716 13.0001 8.50004Z" fill="black"/>
</svg>
