<svg width="24" height="24" viewBox="0 0 24 24" fill="none" xmlns="http://www.w3.org/2000/svg">
<path fill-rule="evenodd" clip-rule="evenodd" d="M8.85405 4C7.33896 4 5.95391 4.85601 5.27634 6.21115L3.71617 9.33148C3.21651 9.23745 2.71675 9.1349 2.21688 9.02381L1.55273 10.8944L2.44716 11.3416C2.78595 11.511 2.99995 11.8573 2.99995 12.2361V19C2.99995 19.5523 3.44766 20 3.99995 20H5.99995V18H17.9999V20H19.9999C20.5522 20 20.9999 19.5523 20.9999 19V12.2361C20.9999 11.8573 21.214 11.511 21.5527 11.3416L22.4472 10.8944L21.783 9.02381C21.2831 9.1349 20.7834 9.23745 20.2837 9.33148L18.7236 6.21115C18.046 4.85601 16.6609 4 15.1458 4H8.85405ZM18.9999 16V11.2361L16.9347 7.10557C16.5959 6.428 15.9034 6 15.1458 6H8.85405C8.09651 6 7.40398 6.428 7.0652 7.10557L4.99995 11.2361V16H18.9999ZM8.99995 10H10.9999V12H8.99995V10ZM8.99995 12V14H6.99995V12H8.99995ZM12.9999 12V14H10.9999V12H12.9999ZM14.9999 12H12.9999V10H14.9999V12ZM14.9999 12H16.9999V14H14.9999V12Z" fill="black"/>
</svg>
