<svg width="24" height="24" viewBox="0 0 24 24" fill="none" xmlns="http://www.w3.org/2000/svg">
<path fill-rule="evenodd" clip-rule="evenodd" d="M21 10H14V3.00001H16V6.5858L20.5898 1.99994L21.2969 2.70704L22.004 3.41415L17.4142 8.00001H21V10ZM3 10.0002C3 7.87895 3.59164 5.79678 5 4.00001L10 9.00001L8.41421 10.5858C7.63316 11.3668 7.63316 12.6332 8.41421 13.4142L10.5858 15.5858C11.3668 16.3668 12.6332 16.3668 13.4142 15.5858L15 14L20 19C18.2033 20.4084 16.1212 21.0002 14 21.0002C7.92487 21.0002 3 16.0753 3 10.0002Z" fill="black"/>
</svg>
