<svg width="24" height="24" viewBox="0 0 24 24" fill="none" xmlns="http://www.w3.org/2000/svg">
<path fill-rule="evenodd" clip-rule="evenodd" d="M13.0858 13.5859C13.4763 13.9764 14.1095 13.9764 14.5 13.5859L16.5 11.5001L22 17.0001C21.5162 17.4838 20.9942 17.9091 20.4475 18.276C18.7339 19.4257 16.7781 20.001 15 20.001C8.92487 20.001 4 15.0762 4 9.00104C4 7.22228 4.57473 5.26632 5.72419 3.55274C6.09078 3.00623 6.51649 2.48372 7 2.00012L12.5 7.5001L10.5 9.58589C10.1095 9.97641 10.1095 10.6096 10.5 11.0001L13.0858 13.5859ZM15.9291 14.9852L16.53 14.3585L18.9994 16.8279C17.6982 17.6152 16.268 18.001 15 18.001C10.0294 18.001 6 13.9716 6 9.00104C6 7.73207 6.38546 6.30182 7.17229 5.00083L9.70096 7.52949L9.06718 8.19045C7.91425 9.36345 7.92045 11.249 9.08578 12.4143L11.6716 15.0001C12.8431 16.1717 14.7426 16.1717 15.9142 15.0001L15.9291 14.9852Z" fill="black"/>
</svg>
