<svg width="24" height="24" viewBox="0 0 24 24" fill="none" xmlns="http://www.w3.org/2000/svg">
<path fill-rule="evenodd" clip-rule="evenodd" d="M21 9.99995H14V2.99995H16V6.58574L20.5898 1.99988L21.2969 2.70698L22.004 3.41409L17.4142 7.99995H21V9.99995ZM12.5 15.5858C12.1095 15.9764 11.4763 15.9764 11.0858 15.5858L8.5 13C8.10948 12.6095 8.10948 11.9764 8.5 11.5858L10.5 9.50006L5 4.00007C4.51649 4.48367 4.09078 5.00618 3.72419 5.55269C2.57473 7.26628 2 9.22223 2 11.001C2 17.0761 6.92487 22.001 13 22.001C14.7781 22.001 16.7339 21.4257 18.4475 20.2759C18.9942 19.9091 19.5162 19.4838 20 19L14.5 13.5L12.5 15.5858ZM14.53 16.3585L13.9291 16.9852L13.9142 17C12.7426 18.1716 10.8431 18.1716 9.67158 17L7.08578 14.4143C5.92045 13.2489 5.91425 11.3634 7.06718 10.1904L7.70096 9.52944L5.17229 7.00078C4.38546 8.30178 4 9.73202 4 11.001C4 15.9715 8.02944 20.001 13 20.001C14.268 20.001 15.6982 19.6152 16.9994 18.8279L14.53 16.3585Z" fill="black"/>
</svg>
