<svg width="24" height="24" viewBox="0 0 24 24" fill="none" xmlns="http://www.w3.org/2000/svg">
<path fill-rule="evenodd" clip-rule="evenodd" d="M12 7.99998H18.1716L15.5858 10.5858L17 12L22 6.99998L17 1.99994L15.5858 3.41415L18.1716 5.99998H12V7.99998ZM3 10.0001C3 7.87893 3.59164 5.79676 5 4L10 9L8.41421 10.5858C7.63316 11.3668 7.63316 12.6332 8.41421 13.4142L10.5858 15.5858C11.3668 16.3668 12.6332 16.3668 13.4142 15.5858L15 14L20 19C18.2033 20.4084 16.1212 21.0002 14 21.0002C7.92487 21.0002 3 16.0753 3 10.0001Z" fill="black"/>
</svg>
