<svg width="24" height="24" viewBox="0 0 24 24" fill="none" xmlns="http://www.w3.org/2000/svg">
<path fill-rule="evenodd" clip-rule="evenodd" d="M14 5C14 4.44772 14.4477 4 15 4H20V7C20 7.55228 19.5523 8 19 8H16C15.2951 8 14.6056 8.18622 14 8.53589V5ZM15 2C13.3431 2 12 3.34315 12 5V10.5V12.5L13.6 11.3L14.8 10.4C15.1462 10.1404 15.5673 10 16 10H19C20.6569 10 22 8.65685 22 7V3V2H21H15ZM12.5 15.5859C12.1095 15.9764 11.4763 15.9764 11.0858 15.5859L8.5 13.0001C8.10948 12.6096 8.10948 11.9764 8.5 11.5859L10.5 9.5001L5 4.00012C4.51649 4.48372 4.09078 5.00623 3.72419 5.55274C2.57473 7.26632 2 9.22228 2 11.001C2 17.0762 6.92487 22.001 13 22.001C14.7781 22.001 16.7339 21.4257 18.4475 20.276C18.9942 19.9091 19.5162 19.4838 20 19.0001L14.5 13.5001L12.5 15.5859ZM14.53 16.3585L13.9291 16.9852L13.9142 17.0001C12.7426 18.1717 10.8431 18.1717 9.67158 17.0001L7.08578 14.4143C5.92045 13.249 5.91425 11.3635 7.06718 10.1904L7.70096 9.52949L5.17229 7.00083C4.38546 8.30182 4 9.73207 4 11.001C4 15.9716 8.02944 20.001 13 20.001C14.268 20.001 15.6982 19.6152 16.9994 18.8279L14.53 16.3585Z" fill="black"/>
</svg>
