<svg width="24" height="24" viewBox="0 0 24 24" fill="none" xmlns="http://www.w3.org/2000/svg">
<path fill-rule="evenodd" clip-rule="evenodd" d="M15 2H22V9H20V5.41421L15.4102 10.0001L14.7031 9.29297L13.996 8.58586L18.5858 4H15V2ZM3 10.0002C3 7.87894 3.59164 5.79677 5 4L10 9L8.41421 10.5858C7.63316 11.3668 7.63316 12.6332 8.41421 13.4142L10.5858 15.5858C11.3668 16.3668 12.6332 16.3668 13.4142 15.5858L15 14L20 19C18.2033 20.4084 16.1212 21.0002 14 21.0002C7.92487 21.0002 3 16.0753 3 10.0002Z" fill="black"/>
</svg>
