<svg width="24" height="24" viewBox="0 0 24 24" fill="none" xmlns="http://www.w3.org/2000/svg">
<path fill-rule="evenodd" clip-rule="evenodd" d="M12 8.00005H18.1716L15.5858 10.5858L17 12.0001L22 7.00005L17 2L15.5858 3.41421L18.1716 6.00005H12V8.00005ZM12.5 15.5859C12.1095 15.9765 11.4763 15.9765 11.0858 15.5859L8.5 13.0001C8.10948 12.6096 8.10948 11.9765 8.5 11.5859L10.5 9.50016L5 4.00018C4.51649 4.48377 4.09078 5.00629 3.72419 5.55279C2.57473 7.26638 2 9.22233 2 11.0011C2 17.0762 6.92487 22.0011 13 22.0011C14.7781 22.0011 16.7339 21.4258 18.4475 20.276C18.9942 19.9092 19.5162 19.4839 20 19.0001L14.5 13.5001L12.5 15.5859ZM14.53 16.3586L13.9291 16.9853L13.9142 17.0001C12.7426 18.1717 10.8431 18.1717 9.67158 17.0001L7.08578 14.4144C5.92045 13.249 5.91425 11.3635 7.06718 10.1905L7.70096 9.52954L5.17229 7.00088C4.38546 8.30188 4 9.73213 4 11.0011C4 15.9716 8.02944 20.0011 13 20.0011C14.268 20.0011 15.6982 19.6153 16.9994 18.828L14.53 16.3586Z" fill="black"/>
</svg>
