<svg width="24" height="24" viewBox="0 0 24 24" fill="none" xmlns="http://www.w3.org/2000/svg">
<path fill-rule="evenodd" clip-rule="evenodd" d="M15 2H22V9H20V5.41421L15.4102 10.0001L14.7031 9.29297L13.996 8.58586L18.5858 4H15V2ZM13.5 14.5859C13.1095 14.9764 12.4763 14.9764 12.0858 14.5859L9.5 12.0001C9.10948 11.6096 9.10948 10.9764 9.5 10.5859L11.5 8.5001L6 3.00012C5.51649 3.48372 5.09078 4.00623 4.72419 4.55274C3.57473 6.26632 3 8.22228 3 10.001C3 16.0762 7.92487 21.001 14 21.001C15.7781 21.001 17.7339 20.4257 19.4475 19.276C19.9942 18.9091 20.5162 18.4838 21 18.0001L15.5 12.5001L13.5 14.5859ZM15.53 15.3585L14.9291 15.9852L14.9142 16.0001C13.7426 17.1717 11.8431 17.1717 10.6716 16.0001L8.08578 13.4143C6.92045 12.249 6.91425 10.3635 8.06718 9.19045L8.70096 8.52949L6.17229 6.00083C5.38546 7.30182 5 8.73207 5 10.001C5 14.9716 9.02944 19.001 14 19.001C15.268 19.001 16.6982 18.6152 17.9994 17.8279L15.53 15.3585Z" fill="black"/>
</svg>
