<svg width="24" height="24" viewBox="0 0 24 24" fill="none" xmlns="http://www.w3.org/2000/svg">
<path fill-rule="evenodd" clip-rule="evenodd" d="M14 5C14 4.44772 14.4477 4 15 4H20V7C20 7.55228 19.5523 8 19 8H16C15.2951 8 14.6056 8.18622 14 8.53589V5ZM15 2C13.3431 2 12 3.34315 12 5V10.5V12.5L13.6 11.3L14.8 10.4C15.1462 10.1404 15.5673 10 16 10H19C20.6569 10 22 8.65685 22 7V3V2H21H15ZM2 11.0002C2 8.87894 2.59164 6.79677 4 5L9 10L7.41421 11.5858C6.63316 12.3668 6.63316 13.6332 7.41421 14.4142L9.58579 16.5858C10.3668 17.3668 11.6332 17.3668 12.4142 16.5858L14 15L19 20C17.2033 21.4084 15.1212 22.0002 13 22.0002C6.92487 22.0002 2 17.0753 2 11.0002Z" fill="black"/>
</svg>
