<svg width="24" height="24" viewBox="0 0 24 24" fill="none" xmlns="http://www.w3.org/2000/svg">
<path fill-rule="evenodd" clip-rule="evenodd" d="M2 4C2 2.89543 2.89543 2 4 2H19C20.1046 2 21 2.89543 21 4V12.625H20.9985C20.4044 12.1979 19.729 11.8767 19 11.689V4L4 4V16H11.689C11.5656 16.4794 11.5 16.9821 11.5 17.5C11.5 17.6684 11.5069 17.8351 11.5205 18H4C2.89543 18 2 17.1046 2 16V4ZM6.29289 6.70711L8.08579 8.5L6.29289 10.2929L7.70711 11.7071L10.2071 9.20711L10.9142 8.5L10.2071 7.79289L7.70711 5.29289L6.29289 6.70711ZM22 17.5C22 19.9853 19.9853 22 17.5 22C15.0147 22 13 19.9853 13 17.5C13 15.0147 15.0147 13 17.5 13C19.9853 13 22 15.0147 22 17.5ZM16.75 16.75V15H18.25V16.75H20V18.25H18.25V20H16.75V18.25H15V16.75H16.75ZM15 12H11V10H15V12Z" fill="black"/>
</svg>
