<svg width="24" height="24" viewBox="0 0 24 24" fill="none" xmlns="http://www.w3.org/2000/svg">
<path fill-rule="evenodd" clip-rule="evenodd" d="M2 4C2 2.89543 2.89543 2 4 2H20C21.1046 2 22 2.89543 22 4V13.5313C20.9006 12.2856 19.292 11.5 17.5 11.5C14.1863 11.5 11.5 14.1863 11.5 17.5C11.5 17.6684 11.5069 17.8351 11.5205 18H4C2.89543 18 2 17.1046 2 16V4ZM6.08579 7.5L4.29289 5.70711L5.70711 4.29289L8.20711 6.79289L8.91421 7.5L8.20711 8.20711L5.70711 10.7071L4.29289 9.29289L6.08579 7.5ZM9 11H13V9H9V11ZM22 17.5C22 19.9853 19.9853 22 17.5 22C15.0147 22 13 19.9853 13 17.5C13 15.0147 15.0147 13 17.5 13C19.9853 13 22 15.0147 22 17.5ZM16.4393 17.5L14.9697 16.0303L16.0303 14.9697L17.5 16.4393L18.9697 14.9697L20.0303 16.0303L18.5607 17.5L20.0303 18.9697L18.9697 20.0303L17.5 18.5607L16.0303 20.0303L14.9697 18.9697L16.4393 17.5Z" fill="black"/>
</svg>
