<svg width="24" height="24" viewBox="0 0 24 24" fill="none" xmlns="http://www.w3.org/2000/svg">
<path fill-rule="evenodd" clip-rule="evenodd" d="M4 4C2.89543 4 2 4.89543 2 6V18C2 19.1046 2.89543 20 4 20H20C21.1046 20 22 19.1046 22 18V6C22 4.89543 21.1046 4 20 4H4ZM13 6L20 6V18H13V6ZM11 6L4 6V18H11V6ZM5.93934 9.5L4.96967 8.53033L6.03033 7.46967L7.53033 8.96967L8.06066 9.5L7.53033 10.0303L6.03033 11.5303L4.96967 10.4697L5.93934 9.5ZM13.9697 8.53033L14.9393 9.5L13.9697 10.4697L15.0303 11.5303L16.5303 10.0303L17.0607 9.5L16.5303 8.96967L15.0303 7.46967L13.9697 8.53033ZM10 12.75H8V11.25H10V12.75ZM17 12.75H19V11.25H17V12.75Z" fill="black"/>
</svg>
