<svg width="24" height="24" viewBox="0 0 24 24" fill="none" xmlns="http://www.w3.org/2000/svg">
<path fill-rule="evenodd" clip-rule="evenodd" d="M4 2C2.89543 2 2 2.89543 2 4V16C2 17.1046 2.89543 18 4 18H11.5205C11.5069 17.8351 11.5 17.6684 11.5 17.5C11.5 16.9821 11.5656 16.4794 11.689 16H4V4L19 4V11.689C19.729 11.8767 20.4044 12.1979 20.9985 12.625H21V4C21 2.89543 20.1046 2 19 2H4ZM6.29289 6.70711L8.08579 8.5L6.29289 10.2929L7.70711 11.7071L10.2071 9.20711L10.9142 8.5L10.2071 7.79289L7.70711 5.29289L6.29289 6.70711ZM11 12H15V10H11V12ZM22 17.5C22 19.9853 19.9853 22 17.5 22C15.0147 22 13 19.9853 13 17.5C13 15.0147 15.0147 13 17.5 13C19.9853 13 22 15.0147 22 17.5ZM16.4393 17.5L14.9697 16.0303L16.0303 14.9697L17.5 16.4393L18.9697 14.9697L20.0303 16.0303L18.5607 17.5L20.0303 18.9697L18.9697 20.0303L17.5 18.5607L16.0303 20.0303L14.9697 18.9697L16.4393 17.5Z" fill="black"/>
</svg>
