<svg width="24" height="24" viewBox="0 0 24 24" fill="none" xmlns="http://www.w3.org/2000/svg">
<path fill-rule="evenodd" clip-rule="evenodd" d="M4 4C2.89543 4 2 4.89543 2 6V18C2 19.1046 2.89543 20 4 20H11.25V4H4ZM12.75 4V20H20C21.1046 20 22 19.1046 22 18V6C22 4.89543 21.1046 4 20 4H12.75ZM3.96967 7.53033L4.93934 8.5L3.96967 9.46967L5.03033 10.5303L6.53033 9.03033L7.06066 8.5L6.53033 7.96967L5.03033 6.46967L3.96967 7.53033ZM15.9393 8.5L14.9697 7.53033L16.0303 6.46967L17.5303 7.96967L18.0607 8.5L17.5303 9.03033L16.0303 10.5303L14.9697 9.46967L15.9393 8.5ZM6.5 11.75H9V10.25H6.5V11.75ZM17.5 11.75H20V10.25H17.5V11.75Z" fill="black"/>
</svg>
