<svg width="24" height="24" viewBox="0 0 24 24" fill="none" xmlns="http://www.w3.org/2000/svg">
<path fill-rule="evenodd" clip-rule="evenodd" d="M6 2C4.89543 2 4 2.89543 4 4V9.17071C2.83481 9.58254 2 10.6938 2 12C2 13.3062 2.83481 14.4175 4 14.8293V20C4 21.1046 4.89543 22 6 22H18C19.1046 22 20 21.1046 20 20V14.8293C21.1652 14.4175 22 13.3062 22 12C22 10.6938 21.1652 9.58254 20 9.17071V4C20 2.89543 19.1046 2 18 2H6ZM18 9.17071V4H6V9.17071C7.16519 9.58254 8 10.6938 8 12C8 13.3062 7.16519 14.4175 6 14.8293V20H18V14.8293C16.8348 14.4175 16 13.3062 16 12C16 10.6938 16.8348 9.58254 18 9.17071Z" fill="black"/>
</svg>
