<svg width="24" height="24" viewBox="0 0 24 24" fill="none" xmlns="http://www.w3.org/2000/svg">
<path fill-rule="evenodd" clip-rule="evenodd" d="M4 4C4 2.89543 4.89543 2 6 2H18C19.1046 2 20 2.89543 20 4V9.17071C21.1652 9.58254 22 10.6938 22 12C22 13.3062 21.1652 14.4175 20 14.8293V20C20 21.1046 19.1046 22 18 22H6C4.89543 22 4 21.1046 4 20V14.8293C2.83481 14.4175 2 13.3062 2 12C2 10.6938 2.83481 9.58254 4 9.17071V4ZM18 14.8293C16.8348 14.4175 16 13.3062 16 12C16 10.6938 16.8348 9.58254 18 9.17071V4H6V9.17071C7.16519 9.58254 8 10.6938 8 12C8 13.3062 7.16519 14.4175 6 14.8293V20H18V14.8293ZM5 11C4.44772 11 4 11.4477 4 12C4 12.5523 4.44772 13 5 13C5.55228 13 6 12.5523 6 12C6 11.4477 5.55228 11 5 11ZM18 12C18 11.4477 18.4477 11 19 11C19.5523 11 20 11.4477 20 12C20 12.5523 19.5523 13 19 13C18.4477 13 18 12.5523 18 12Z" fill="black"/>
</svg>
