<svg width="24" height="24" viewBox="0 0 24 24" fill="none" xmlns="http://www.w3.org/2000/svg">
<path fill-rule="evenodd" clip-rule="evenodd" d="M4 4C4 2.89543 4.89543 2 6 2H18C19.1046 2 20 2.89543 20 4V9.17071C21.1652 9.58254 22 10.6938 22 12C22 13.3062 21.1652 14.4175 20 14.8293V20C20 21.1046 19.1046 22 18 22H6C4.89543 22 4 21.1046 4 20V14.8293C2.83481 14.4175 2 13.3062 2 12C2 10.6938 2.83481 9.58254 4 9.17071V4ZM18 4V9.17071C16.8348 9.58254 16 10.6938 16 12C16 13.3062 16.8348 14.4175 18 14.8293V20H6V14.8293C7.16519 14.4175 8 13.3062 8 12C8 10.6938 7.16519 9.58254 6 9.17071V4H18ZM9 10H11V16H13V10H15V8H9V10Z" fill="black"/>
</svg>
