<svg width="24" height="24" viewBox="0 0 24 24" fill="none" xmlns="http://www.w3.org/2000/svg">
<path fill-rule="evenodd" clip-rule="evenodd" d="M6 2C4.89543 2 4 2.89543 4 4V9.17071C2.83481 9.58254 2 10.6938 2 12C2 13.3062 2.83481 14.4175 4 14.8293V20C4 21.1046 4.89543 22 6 22H18C19.1046 22 20 21.1046 20 20V14.8293C21.1652 14.4175 22 13.3062 22 12C22 10.6938 21.1652 9.58254 20 9.17071V4C20 2.89543 19.1046 2 18 2H6ZM16 12C16 13.3062 16.8348 14.4175 18 14.8293V20H6V14.8293C7.16519 14.4175 8 13.3062 8 12C8 10.6938 7.16519 9.58254 6 9.17071V4H18V9.17071C16.8348 9.58254 16 10.6938 16 12ZM4 12C4 11.4477 4.44772 11 5 11C5.55228 11 6 11.4477 6 12C6 12.5523 5.55228 13 5 13C4.44772 13 4 12.5523 4 12ZM19 11C18.4477 11 18 11.4477 18 12C18 12.5523 18.4477 13 19 13C19.5523 13 20 12.5523 20 12C20 11.4477 19.5523 11 19 11ZM9 10H11V16H13V10H15V8H9V10Z" fill="black"/>
</svg>
