<svg width="24" height="24" viewBox="0 0 24 24" fill="none" xmlns="http://www.w3.org/2000/svg">
<path fill-rule="evenodd" clip-rule="evenodd" d="M20 5H4C2.89543 5 2 5.89543 2 7V17C2 18.1046 2.89543 19 4 19H20C21.1046 19 22 18.1046 22 17V7C22 5.89543 21.1046 5 20 5ZM18.9142 13.5L18.2071 14.2071L17.2071 15.2071L16.5 15.9142L15.0858 14.5L15.7929 13.7929L16.7929 12.7929L17.5 12.0858L18.9142 13.5ZM17.7071 10.7071L18.4142 10L17 8.58579L16.2929 9.29289L12.2929 13.2929L11.5858 14L13 15.4142L13.7071 14.7071L17.7071 10.7071Z" fill="black"/>
</svg>
