<svg width="24" height="24" viewBox="0 0 24 24" fill="none" xmlns="http://www.w3.org/2000/svg">
<path fill-rule="evenodd" clip-rule="evenodd" d="M7 4C5.89543 4 5 4.89543 5 6V14.7324L4.74974 15.0159C4.28243 15.5454 4 16.2385 4 17C4 18.6569 5.34315 20 7 20C8.65685 20 10 18.6569 10 17C10 16.2385 9.71757 15.5454 9.25026 15.0159L9 14.7324V6C9 4.89543 8.10457 4 7 4ZM3 6C3 3.79086 4.79086 2 7 2C9.20914 2 11 3.79086 11 6V13.9996C11.6274 14.8351 12 15.875 12 17C12 19.7614 9.76142 22 7 22C4.23858 22 2 19.7614 2 17C2 15.875 2.37256 14.8351 3 13.9996V6ZM7 5C7.55228 5 8 5.44772 8 6V15.2676C8.5978 15.6134 9 16.2597 9 17C9 18.1046 8.10457 19 7 19C5.89543 19 5 18.1046 5 17C5 16.2597 5.4022 15.6134 6 15.2676V6C6 5.44772 6.44772 5 7 5ZM17.5 8.5C18.0523 8.5 18.5 8.05228 18.5 7.5C18.5 6.94772 18.0523 6.5 17.5 6.5C16.9477 6.5 16.5 6.94772 16.5 7.5C16.5 8.05228 16.9477 8.5 17.5 8.5ZM17.5 10C18.8807 10 20 8.88071 20 7.5C20 6.11929 18.8807 5 17.5 5C16.1193 5 15 6.11929 15 7.5C15 8.88071 16.1193 10 17.5 10ZM21.9143 8.37823C21.9705 8.09419 22 7.80053 22 7.5C22 7.19947 21.9705 6.90581 21.9143 6.62177L20.4429 6.91287C20.4802 7.10156 20.5 7.29772 20.5 7.5C20.5 7.70228 20.4802 7.89844 20.4429 8.08713L21.9143 8.37823ZM21.242 4.99973C20.9135 4.509 20.491 4.08649 20.0003 3.75796L19.1658 5.00441C19.4936 5.22387 19.7761 5.50641 19.9956 5.83421L21.242 4.99973ZM18.3782 3.08565C18.0942 3.02946 17.8005 3 17.5 3C17.1995 3 16.9058 3.02946 16.6218 3.08565L16.9129 4.55714C17.1016 4.51981 17.2977 4.5 17.5 4.5C17.7023 4.5 17.8984 4.51981 18.0871 4.55714L18.3782 3.08565ZM14.9997 3.75796C14.509 4.08649 14.0865 4.509 13.758 4.99973L15.0044 5.83421C15.2239 5.50641 15.5064 5.22387 15.8342 5.00441L14.9997 3.75796ZM13 7.5C13 7.19947 13.0295 6.90581 13.0857 6.62177L14.5571 6.91287C14.5198 7.10156 14.5 7.29772 14.5 7.5C14.5 7.70228 14.5198 7.89844 14.5571 8.08713L13.0857 8.37823C13.0295 8.09419 13 7.80053 13 7.5ZM13.758 10.0003C14.0865 10.491 14.509 10.9135 14.9997 11.242L15.8342 9.99559C15.5064 9.77613 15.2239 9.49359 15.0044 9.16579L13.758 10.0003ZM16.6218 11.9143C16.9058 11.9705 17.1995 12 17.5 12C17.8005 12 18.0942 11.9705 18.3782 11.9143L18.0871 10.4429C17.8984 10.4802 17.7023 10.5 17.5 10.5C17.2977 10.5 17.1016 10.4802 16.9129 10.4429L16.6218 11.9143ZM20.0003 11.242C20.491 10.9135 20.9135 10.491 21.242 10.0003L19.9956 9.16579C19.7761 9.49359 19.4936 9.77613 19.1658 9.99559L20.0003 11.242Z" fill="black"/>
</svg>
