<svg width="24" height="24" viewBox="0 0 24 24" fill="none" xmlns="http://www.w3.org/2000/svg">
<path fill-rule="evenodd" clip-rule="evenodd" d="M6 6C6 4.89543 6.89543 4 8 4C9.10457 4 10 4.89543 10 6V14.3542V14.7324L10.2503 15.0159C10.7176 15.5454 11 16.2385 11 17C11 18.6569 9.65685 20 8 20C6.34315 20 5 18.6569 5 17C5 16.2385 5.28243 15.5454 5.74974 15.0159L6 14.7324V14.3542V6ZM8 2C5.79086 2 4 3.79086 4 6V13.9996C3.37256 14.8351 3 15.875 3 17C3 19.7614 5.23858 22 8 22C10.7614 22 13 19.7614 13 17C13 15.875 12.6274 14.8351 12 13.9996V6C12 3.79086 10.2091 2 8 2ZM6 17C6 16.2597 6.4022 15.6134 7 15.2676V13H9V15.2676C9.5978 15.6134 10 16.2597 10 17C10 18.1046 9.10457 19 8 19C6.89543 19 6 18.1046 6 17ZM17.3529 3V4.06574L16.6303 3.58397L16.0756 4.41603L17.3529 5.26759V6.63421L16.1696 5.95099L16.0708 4.41899L15.0728 4.48335L15.1287 5.35007L14.2058 4.8172L13.7058 5.68322L14.6287 6.21609L13.8502 6.60104L14.2934 7.49745L15.6696 6.81702L16.8529 7.5002L15.6695 8.1834L14.2934 7.50297L13.8501 8.39938L14.6287 8.78433L13.7057 9.3172L14.2057 10.1832L15.1287 9.65035L15.0728 10.5171L16.0707 10.5814L16.1695 9.04943L17.3529 8.36618V9.73241L16.0756 10.584L16.6303 11.416L17.3529 10.9343V12H18.3529V10.9343L19.0756 11.416L19.6303 10.584L18.3529 9.73241V8.36626L19.5362 9.04943L19.635 10.5814L20.6329 10.5171L20.577 9.65035L21.5 10.1832L22 9.3172L21.077 8.78433L21.8556 8.39938L21.4124 7.50297L20.0362 8.1834L18.8529 7.5002L20.0362 6.81702L21.4123 7.49745L21.8555 6.60104L21.077 6.21609L21.9999 5.68322L21.4999 4.8172L20.577 5.35007L20.6329 4.48335L19.635 4.41899L19.5362 5.95099L18.3529 6.63413V5.26759L19.6303 4.41603L19.0756 3.58397L18.3529 4.06574V3H17.3529Z" fill="black"/>
</svg>
