<svg width="24" height="24" viewBox="0 0 24 24" fill="none" xmlns="http://www.w3.org/2000/svg">
<path fill-rule="evenodd" clip-rule="evenodd" d="M12 4C10.8954 4 10 4.89543 10 6V14.7324L9.74974 15.0159C9.28243 15.5454 9 16.2385 9 17C9 18.6569 10.3431 20 12 20C13.6569 20 15 18.6569 15 17C15 16.2385 14.7176 15.5454 14.2503 15.0159L14 14.7324V6C14 4.89543 13.1046 4 12 4ZM8 6C8 3.79086 9.79086 2 12 2C14.2091 2 16 3.79086 16 6V13.9996C16.6274 14.8351 17 15.875 17 17C17 19.7614 14.7614 22 12 22C9.23858 22 7 19.7614 7 17C7 15.875 7.37256 14.8351 8 13.9996V6ZM11 15.2676C10.4022 15.6134 10 16.2597 10 17C10 18.1046 10.8954 19 12 19C13.1046 19 14 18.1046 14 17C14 16.2597 13.5978 15.6134 13 15.2676V9H11V15.2676Z" fill="black"/>
</svg>
