<svg width="24" height="24" viewBox="0 0 24 24" fill="none" xmlns="http://www.w3.org/2000/svg">
<path fill-rule="evenodd" clip-rule="evenodd" d="M10 6C10 4.89543 10.8954 4 12 4C13.1046 4 14 4.89543 14 6V14.7324L14.2503 15.0159C14.7176 15.5454 15 16.2385 15 17C15 18.6569 13.6569 20 12 20C10.3431 20 9 18.6569 9 17C9 16.2385 9.28243 15.5454 9.74974 15.0159L10 14.7324V6ZM12 2C9.79086 2 8 3.79086 8 6V13.9996C7.37256 14.8351 7 15.875 7 17C7 19.7614 9.23858 22 12 22C14.7614 22 17 19.7614 17 17C17 15.875 16.6274 14.8351 16 13.9996V6C16 3.79086 14.2091 2 12 2ZM12 19C13.1046 19 14 18.1046 14 17C14 15.8954 13.1046 15 12 15C10.8954 15 10 15.8954 10 17C10 18.1046 10.8954 19 12 19Z" fill="black"/>
</svg>
