<svg width="24" height="24" viewBox="0 0 24 24" fill="none" xmlns="http://www.w3.org/2000/svg">
<path fill-rule="evenodd" clip-rule="evenodd" d="M5 2H4V3V21V22H5H9H9.78078L9.96722 21.2542C9.9679 21.252 9.96892 21.2487 9.97029 21.2445C9.97117 21.2419 9.97218 21.2388 9.97335 21.2354C9.98219 21.2093 9.99912 21.1634 10.0263 21.1042C10.0813 20.9841 10.1731 20.8208 10.3151 20.6585C10.5763 20.36 11.0583 20 12 20C12.9417 20 13.4237 20.36 13.6849 20.6585C13.8269 20.8208 13.9187 20.9841 13.9737 21.1042C14.0009 21.1634 14.0178 21.2093 14.0267 21.2354C14.0296 21.2442 14.0317 21.2506 14.0328 21.2542L14.2192 22H15H19H20V21V3V2H19H15H14.2192L14.0328 2.74577C14.0317 2.74942 14.0297 2.75581 14.0267 2.76464C14.0178 2.79069 14.0009 2.83664 13.9737 2.89585C13.9187 3.01586 13.8269 3.17919 13.6849 3.3415C13.4237 3.63999 12.9417 4 12 4C11.0583 4 10.5763 3.63999 10.3151 3.3415C10.1731 3.17919 10.0813 3.01586 10.0263 2.89585C9.99912 2.83664 9.98219 2.79069 9.97335 2.76464C9.97035 2.75581 9.96834 2.74943 9.96722 2.74577L9.78078 2H9H5ZM6 20V4H8.34572C8.45889 4.20242 8.61018 4.43023 8.80992 4.6585C9.42374 5.36001 10.4417 6 12 6C13.5583 6 14.5763 5.36001 15.1901 4.6585C15.3898 4.43023 15.5411 4.20242 15.6543 4H18V20H15.6543C15.5411 19.7976 15.3898 19.5698 15.1901 19.3415C14.5763 18.64 13.5583 18 12 18C10.4417 18 9.42374 18.64 8.80992 19.3415C8.61018 19.5698 8.45889 19.7976 8.34572 20H6ZM8 9V11H16V9H8ZM9 13V15H15V13H9Z" fill="black"/>
</svg>
