<svg width="24" height="24" viewBox="0 0 24 24" fill="none" xmlns="http://www.w3.org/2000/svg">
<path fill-rule="evenodd" clip-rule="evenodd" d="M4 2V22H9C9 20.3431 10.3431 19 12 19C13.6569 19 15 20.3431 15 22H20V2H15C15 3.65685 13.6569 5 12 5C10.3431 5 9 3.65685 9 2H4ZM12.0804 9C12.2031 9.74138 12.4797 10.4851 13 11C13.5107 11.5054 14.2601 11.7868 15 11.9145V12.086C14.2603 12.2143 13.5103 12.4962 13 13C12.4781 13.5153 12.202 14.2585 12.0798 15H11.9145C11.7868 14.2602 11.5053 13.5107 11 13C10.4851 12.4797 9.74138 12.2031 9 12.0804V11.9051C9.73758 11.7684 10.4974 11.4785 11 11C11.5481 10.4782 11.8155 9.74466 11.9289 9H12.0804Z" fill="black"/>
</svg>
