<svg width="24" height="24" viewBox="0 0 24 24" fill="none" xmlns="http://www.w3.org/2000/svg">
<path fill-rule="evenodd" clip-rule="evenodd" d="M7.5 2C5.01472 2 3 4.01472 3 6.5C3 8.98528 5.01472 11 7.5 11H16.5C18.9853 11 21 8.98528 21 6.5C21 4.01472 18.9853 2 16.5 2H7.5ZM16.5 9H11.2422C11.7209 8.28495 12 7.42507 12 6.5C12 5.57493 11.7209 4.71505 11.2422 4H16.5C17.8807 4 19 5.11929 19 6.5C19 7.88071 17.8807 9 16.5 9ZM5 6.5C5 5.11929 6.11929 4 7.5 4C8.88071 4 10 5.11929 10 6.5C10 7.88071 8.88071 9 7.5 9C6.11929 9 5 7.88071 5 6.5ZM16.5 13C18.9853 13 21 15.0147 21 17.5C21 19.9853 18.9853 22 16.5 22H7.5C5.01472 22 3 19.9853 3 17.5C3 15.0147 5.01472 13 7.5 13H16.5ZM19 17.5C19 16.1193 17.8807 15 16.5 15C15.1193 15 14 16.1193 14 17.5C14 18.8807 15.1193 20 16.5 20C17.8807 20 19 18.8807 19 17.5Z" fill="black"/>
</svg>
