<svg width="24" height="24" viewBox="0 0 24 24" fill="none" xmlns="http://www.w3.org/2000/svg">
<path fill-rule="evenodd" clip-rule="evenodd" d="M8 4C9.65685 4 11 5.34315 11 7C11 8.65685 9.65685 10 8 10C6.34315 10 5 8.65685 5 7C5 5.34315 6.34315 4 8 4ZM8 12C9.63582 12 11.0882 11.2144 12.0004 10H18C19.6569 10 21 8.65685 21 7C21 5.34315 19.6569 4 18 4H12.0004C11.0882 2.78555 9.63582 2 8 2C5.23858 2 3 4.23858 3 7C3 9.76142 5.23858 12 8 12ZM18 8H12.9C12.9562 7.72321 12.9895 7.43811 12.9979 7.14677C12.9993 7.09802 13 7.04909 13 7C13 6.95685 12.9995 6.91383 12.9984 6.87095C12.9908 6.57345 12.9573 6.2824 12.9 6H18C18.5523 6 19 6.44772 19 7C19 7.55228 18.5523 8 18 8ZM11.9996 20C12.9118 21.2144 14.3642 22 16 22C18.7614 22 21 19.7614 21 17C21 14.2386 18.7614 12 16 12C14.3642 12 12.9118 12.7856 11.9996 14H6C4.34315 14 3 15.3431 3 17C3 18.6569 4.34315 20 6 20H11.9996ZM13 17C13 15.3431 14.3431 14 16 14C17.6569 14 19 15.3431 19 17C19 18.6569 17.6569 20 16 20C14.3431 20 13 18.6569 13 17Z" fill="black"/>
</svg>
