<svg width="24" height="24" viewBox="0 0 24 24" fill="none" xmlns="http://www.w3.org/2000/svg">
<path fill-rule="evenodd" clip-rule="evenodd" d="M12 12C12 9.79086 10.2091 8 8 8C5.79086 8 4 9.79086 4 12C4 14.2091 5.79086 16 8 16C10.2091 16 12 14.2091 12 12ZM12.4722 16C11.3736 17.2275 9.777 18 8 18C4.68629 18 2 15.3137 2 12C2 8.68629 4.68629 6 8 6C9.777 6 11.3736 6.7725 12.4722 8H18C20.2091 8 22 9.79086 22 12C22 14.2091 20.2091 16 18 16H12.4722ZM13.6586 14H18C19.1046 14 20 13.1046 20 12C20 10.8954 19.1046 10 18 10H13.6586C13.8634 10.5794 13.9817 11.1996 13.998 11.8451C13.9993 11.8966 14 11.9482 14 12C14 12.0649 13.999 12.1296 13.9969 12.194C13.9769 12.8255 13.8592 13.4324 13.6586 14Z" fill="black"/>
</svg>
