<svg width="24" height="24" viewBox="0 0 24 24" fill="none" xmlns="http://www.w3.org/2000/svg">
<path fill-rule="evenodd" clip-rule="evenodd" d="M9 5C5.13401 5 2 8.13401 2 12C2 15.866 5.13401 19 9 19H15C18.866 19 22 15.866 22 12C22 8.13401 18.866 5 15 5H9ZM4 12C4 9.23858 6.23858 7 9 7H15C17.7614 7 20 9.23858 20 12C20 14.7614 17.7614 17 15 17H9C6.23858 17 4 14.7614 4 12ZM7 12C7 10.8954 7.89543 10 9 10C10.1046 10 11 10.8954 11 12C11 13.1046 10.1046 14 9 14C7.89543 14 7 13.1046 7 12ZM9 8C6.79086 8 5 9.79086 5 12C5 14.2091 6.79086 16 9 16C11.2091 16 13 14.2091 13 12C13 9.79086 11.2091 8 9 8Z" fill="black"/>
</svg>
