<svg width="24" height="24" viewBox="0 0 24 24" fill="none" xmlns="http://www.w3.org/2000/svg">
<path fill-rule="evenodd" clip-rule="evenodd" d="M8.81854 3.15601C8.03863 2.37501 7.03224 2 6.00994 2C4.98764 2 3.95004 2.37501 3.17004 3.15601C1.61004 4.71801 1.60994 7.251 3.17004 8.812C4.16934 9.81299 5.62584 10.208 6.89824 9.888L9.79835 12.7875L6.58581 16H5.00003L2.00003 20L4.00003 22L8.00003 19V17.4142L11.2127 14.2015L14.0968 17.085C13.957 17.698 13.9532 18.384 14.1265 19.031C14.6947 21.155 16.8738 22.426 18.9949 21.875L16.9976 20L15.999 19L16.4983 16.531L18.9949 16L19.9935 17L21.8659 19C22.0369 18.349 22.0523 17.665 21.8659 16.969C21.4377 15.368 20.0998 14.246 18.558 14.031C18.0942 13.967 17.5705 13.98 17.088 14.088L15.0039 12H16H16.4142L16.7071 11.7071L21.7071 6.70711L22 6.41421V6H21C22 6 22 5.99951 22 5.99901V5.998L22 5.9959L22 5.9914L21.9999 5.98123L21.9993 5.95628C21.9987 5.93764 21.9976 5.91498 21.9959 5.88856C21.9923 5.83576 21.9859 5.76775 21.9743 5.6867C21.9512 5.52479 21.9072 5.30939 21.8237 5.05877C21.6555 4.55407 21.3293 3.91506 20.7071 3.29289C20.085 2.67073 19.446 2.34455 18.9413 2.17632C18.6906 2.09278 18.4752 2.04881 18.3133 2.02568C18.2323 2.0141 18.1643 2.00769 18.1115 2.00417C18.0851 2.00241 18.0624 2.00137 18.0437 2.00076L18.0188 2.00016L18.0086 2.00003L18.0041 2.00001L18.002 2L18.001 2C18.0005 2 18 2 18 3V2H17.5858L17.2929 2.29289L12.2929 7.29289L12 7.58579V8V8.99048L9.91244 6.899C10.206 5.57 9.81084 4.15001 8.81854 3.15601ZM3.60694 5.34399L5.35454 3.59399L7.75754 4.21899L8.41284 6.625L6.63404 8.406L4.23114 7.75L3.60694 5.34399ZM19.2929 4.70711C19.6588 5.07296 19.8333 5.42301 19.9183 5.66753L15.5858 10H14V8.41421L18.3325 4.08175C18.577 4.16668 18.9271 4.34126 19.2929 4.70711Z" fill="black"/>
</svg>
