<svg width="24" height="24" viewBox="0 0 24 24" fill="none" xmlns="http://www.w3.org/2000/svg">
<path fill-rule="evenodd" clip-rule="evenodd" d="M18.0876 7.77095C19.2801 7.15968 20 6.36662 20 5.5C20 3.567 16.4183 2 12 2C7.58173 2 4 3.567 4 5.5C4 6.36662 4.71994 7.15968 5.91245 7.77095C5.33173 8.28099 5 8.87112 5 9.5C5 10.5585 5.9397 11.5072 7.42471 12.149C7.15112 12.5647 7 13.0211 7 13.5C7 14.8988 8.28946 16.1059 10.1532 16.6663C11.8298 19.8384 15.1624 22 19 22H22C19.5048 20.2177 17.7719 18.1813 16.9827 15.5284C17.6232 14.9562 18 14.2561 18 13.5C18 12.878 17.745 12.2939 17.2979 11.7877C18.3585 11.1742 19 10.3745 19 9.5C19 8.87112 18.6683 8.28099 18.0876 7.77095Z" fill="black"/>
</svg>
