<svg width="24" height="24" viewBox="0 0 24 24" fill="none" xmlns="http://www.w3.org/2000/svg">
<path fill-rule="evenodd" clip-rule="evenodd" d="M6.00985 5.49337C6.88312 6.98095 10.5648 7.00001 11.9999 7.00001V9.00001C10.5836 9.00001 9.30359 8.84702 8.17246 8.59464C7.80898 8.72907 7 9.00742 7 9.49937C7 10.8047 11.1228 11 11.9999 11V13C11.5507 13 10.3936 12.9387 9.47126 12.7822C9.28981 12.9488 9 13.2341 9 13.5001C9 14.5947 10.9881 14.7906 11.8309 14.9605L11.9748 15.5902C12.146 16.3388 12.9198 17.4458 14.362 18.39C15.1679 18.9176 16.1477 19.3693 17.2698 19.6588L17.2381 19.6219C16.7136 19.0086 16.1677 18.2894 15.7483 17.5372C15.3375 16.8005 14.9961 15.9408 14.9961 15.0688V14.4295C15.4766 14.2073 15.9958 14.0197 15.9958 13.4005C15.9958 12.9125 15.3712 12.6407 15 12.5V10.5C15.5 10.5 16.9503 10.1741 16.9978 9.51415C16.6795 8.95035 15.5386 8.58638 15 8.5V6.5C15.8073 6.5 17.5499 6.37967 17.9926 5.49799C17.7619 5.05612 17.0361 4.82493 16.6134 4.67397C15.4804 4.26933 13.8494 4 12 4C10.1506 4 8.5196 4.26933 7.38659 4.67397C6.95807 4.82702 6.25162 5.05457 6.00985 5.49337ZM20 22H22C20.3979 20.3979 18.6103 18.5634 17.4951 16.5633C17.2794 16.1763 17.1364 15.8307 17.0608 15.5332C17.4917 15.1404 17.9958 14.4396 17.9958 13.4005C17.9958 12.7422 17.72 12.2225 17.3909 11.8348C18.2517 11.3446 18.9983 10.5487 18.9983 9.49937C18.9983 8.74826 18.6032 8.21491 18.142 7.8485C19.0626 7.38933 20 6.61906 20 5.5C20 4.03842 18.4792 3.2166 17.2861 2.79049C15.8856 2.29032 14.0166 2 12 2C9.98341 2 8.1144 2.29032 6.71392 2.79049C5.5208 3.2166 4 4.03842 4 5.5C4 6.56184 4.86718 7.30532 5.73685 7.7593C5.32884 8.17567 5 8.74856 5 9.49937C5 10.6341 5.86979 11.3588 6.5589 11.7642C6.82258 11.9193 7.1073 12.0566 7.39926 12.1776C7.17071 12.5577 7 13.0114 7 13.5001C7 14.4237 7.51267 15.173 8.192 15.6988C8.73666 16.1204 9.43246 16.4393 10.2204 16.6556C10.7152 17.8922 11.8236 19.1186 13.2665 20.0633C14.9865 21.1894 17.3009 22 20 22ZM16.9996 9.51758C17.0021 9.53232 17.0066 9.53115 16.9996 9.51758Z" fill="black"/>
</svg>
