<svg width="24" height="24" viewBox="0 0 24 24" fill="none" xmlns="http://www.w3.org/2000/svg">
<path fill-rule="evenodd" clip-rule="evenodd" d="M4.42576 5.11891C5.16383 4.25568 7.40827 2 11.9999 2C16.5916 2 18.836 4.25567 19.5741 5.1189C19.8852 5.48271 19.9999 5.91612 19.9999 6.30275L20 8L19.9999 11.6126L12.3162 9.05132L12 8.94591L11.6838 9.05132L3.99994 11.6126L4 8L3.99994 6.30274C3.99994 5.91612 4.11471 5.48272 4.42576 5.11891ZM12 11.0541L20.3636 13.842L20.9672 16.8993C21.1578 17.9302 20.502 18.9611 19.4153 19.1829C18.8818 19.2917 18.1466 19.4303 17.2823 19.5622L19.449 21.9998H16.7731L14.8707 19.8596C13.9508 19.9446 12.9766 20 12 20C11.0233 20 10.0492 19.9446 9.12925 19.8596L7.22681 21.9998H4.5509L6.71765 19.5622C5.85334 19.4303 5.11813 19.2917 4.58467 19.1829C3.49799 18.9611 2.84217 17.9302 3.03283 16.8993L3.63633 13.842L12 11.0541ZM16.896 17.584L16 14H15.5L15.0213 17.8295C15.6888 17.7592 16.322 17.6733 16.896 17.584ZM12.9979 17.9792L12.5 13H11.5L11.0021 17.9792C11.3334 17.9924 11.6668 17.9996 12 17.9996C12.3331 17.9996 12.6666 17.9924 12.9979 17.9792ZM8.97871 17.8296L8.50002 14H8.00002L7.104 17.584C7.67806 17.6733 8.31126 17.7593 8.97871 17.8296ZM8 6.5L11 5.5V7.5L8 8.5V6.5ZM12.9999 5.5L15.9999 6.5V8.5L12.9999 7.5V5.5Z" fill="black"/>
</svg>
