<svg width="24" height="24" viewBox="0 0 24 24" fill="none" xmlns="http://www.w3.org/2000/svg">
<path fill-rule="evenodd" clip-rule="evenodd" d="M11.9998 2C7.48545 2 5.14419 4.25576 4.41854 5.11897C4.11271 5.48277 3.99988 5.91617 3.99988 6.30278L3.99994 11.6126L11.9999 8.94591L20.0035 11.6138C20.0191 10.7328 20.0761 7.17082 19.9999 6.30278C19.9999 5.91616 19.887 5.48276 19.5812 5.11896C18.8555 4.25575 16.5142 2 11.9998 2ZM20.1621 13.7748L12.9999 11.3874V19.9806C13.6362 19.9569 14.2635 19.9125 14.8666 19.855L16.7731 21.9998H19.449L17.2711 19.5497C18.0872 19.4215 18.782 19.288 19.2904 19.1825C20.3588 18.9607 21.0036 17.9299 20.8162 16.899L20.1621 13.7748ZM10.9999 19.9806V11.3874L3.83772 13.7748L3.18364 16.899C2.9962 17.9299 3.64097 18.9607 4.70937 19.1825C5.21778 19.288 5.91258 19.4215 6.7287 19.5497L4.55084 21.9998H7.22675L9.13323 19.855C9.73632 19.9125 10.3636 19.9569 10.9999 19.9806ZM10.9999 5.5L7.99994 6.5V8.5L10.9999 7.5V5.5ZM15.9999 6.5L12.9999 5.5V7.5L15.9999 8.5V6.5Z" fill="black"/>
</svg>
