<svg width="24" height="24" viewBox="0 0 24 24" fill="none" xmlns="http://www.w3.org/2000/svg">
<path fill-rule="evenodd" clip-rule="evenodd" d="M6.08601 7.00708C6.29249 8.70166 6.97725 10.1531 8 11.5C7.29291 11.3894 6.64622 11.2063 6 10.9504V12.8453C7.00577 13.2476 9.26997 14 12 14C14.73 14 16.9942 13.2476 18 12.8453L18 10.9504C17.3538 11.2064 16.7071 11.3894 16 11.5C17.0228 10.1531 17.7075 8.70167 17.914 7.00708C17.7288 6.64316 17.3402 6.02069 16.6345 5.43967L15.8666 8.17555C15.3977 9.84575 13.8749 11 12.1401 11C10.4965 11 9.03213 9.96192 8.48795 8.411L7.42767 5.38919C6.68057 5.98595 6.27651 6.6326 6.08601 7.00708ZM10.3751 7.74882L9.20903 4.4254C9.95695 4.1686 10.8751 4 12 4C13.1483 4 14.0811 4.17569 14.8374 4.44155L13.941 7.63504C13.7144 8.44219 12.9785 9 12.1401 9C11.3458 9 10.6381 8.49833 10.3751 7.74882ZM18 14.9782L18 16.8453C16.9871 17.2504 14.7381 18 12 18C9.26185 18 7.01287 17.2504 6 16.8453V14.9782C7.32177 15.4344 9.46251 16 12 16C14.5374 16 16.6782 15.4344 18 14.9782ZM12 2C9.24325 2 7.35564 2.8614 6.10608 3.8859C4.87357 4.8964 4.31949 6.01704 4.13073 6.47363C4.02945 6.71862 4 6.95574 4 7.15676V16.882C4 17.6328 4.42881 18.3662 5.18833 18.6745C5.60021 18.8417 6.20704 19.0658 6.96665 19.2821L4.5509 21.9998H7.22681L9.20333 19.7762C10.0573 19.9115 10.9986 20 12 20C13.0014 20 13.9427 19.9115 14.7966 19.7762L16.7731 21.9998H19.449L17.0333 19.2821C17.7929 19.0658 18.3998 18.8417 18.8116 18.6745C19.5712 18.3662 20 17.6328 20 16.882L20 7.15678C20 6.95574 19.9705 6.7186 19.8693 6.4736C19.6805 6.01701 19.1264 4.89638 17.8939 3.88588C16.6443 2.86139 14.7567 2 12 2Z" fill="black"/>
</svg>
