<svg width="24" height="24" viewBox="0 0 24 24" fill="none" xmlns="http://www.w3.org/2000/svg">
<path fill-rule="evenodd" clip-rule="evenodd" d="M6 6.34713V11H18V6.34714C17.4616 5.73111 15.635 4 12 4C8.36497 4 6.53833 5.73111 6 6.34713ZM18 13H6V14H18V13ZM18 16H6V17.2457L12 18.96L18 17.2457V16ZM4.41866 5.11897C5.14431 4.25576 7.48558 2 12 2C16.5143 2 18.8557 4.25575 19.5813 5.11896C19.8872 5.48276 20 5.91616 20 6.30278V18.7543L17.2911 19.5283L19.4537 21.9998H16.7962L15.1651 20.1357L12 21.04L8.83483 20.1357L7.20373 21.9998H4.54619L6.70881 19.5282L4 18.7543V6.30278C4 5.91617 4.11284 5.48277 4.41866 5.11897ZM7.99999 8.99985H11V6.05664C9.50028 6.23265 8.53833 6.78242 7.99999 7.20315V8.99985ZM16 9H13V6.05679C14.4997 6.2328 15.4616 6.78257 16 7.20331V9Z" fill="black"/>
</svg>
