<svg width="24" height="24" viewBox="0 0 24 24" fill="none" xmlns="http://www.w3.org/2000/svg">
<path fill-rule="evenodd" clip-rule="evenodd" d="M8 4H11.2768L10.6765 5.05058C7.56905 5.29233 5.6314 6.34144 4.79905 6.90379C4.24398 7.2788 4 7.88684 4 8.44954L4.00003 16.882C4.00004 17.6328 4.42884 18.3662 5.18836 18.6745C5.60024 18.8417 6.20706 19.0658 6.96666 19.2821L4.5509 21.9998H7.22681L9.20334 19.7762C10.0573 19.9115 10.9986 20 12 20C13.0014 20 13.9427 19.9115 14.7966 19.7762L16.7731 21.9998H19.449L17.0333 19.2821C17.7929 19.0658 18.3998 18.8417 18.8117 18.6745C19.5712 18.3662 20 17.6328 20 16.882V8.44952C20 7.88684 19.756 7.27881 19.201 6.9038C18.3395 6.32175 16.2939 5.21825 12.9928 5.02821L13.5803 4H16V2H13H8V4ZM18 12.6388V8.50716C17.261 8.02725 15.2981 7 12 7C8.70199 7 6.73904 8.02726 6 8.50717L6.00002 12.6388C7.20227 12.7868 9.38791 13 12 13C14.6121 13 16.7977 12.7868 18 12.6388ZM12 17C12.5523 17 13 16.5523 13 16C13 15.4477 12.5523 15 12 15C11.4477 15 11 15.4477 11 16C11 16.5523 11.4477 17 12 17Z" fill="black"/>
</svg>
