<svg width="24" height="24" viewBox="0 0 24 24" fill="none" xmlns="http://www.w3.org/2000/svg">
<path fill-rule="evenodd" clip-rule="evenodd" d="M11.2768 4H8V2H13H16V4H13.5803L12.9928 5.02821C16.2939 5.21825 18.3395 6.32175 19.201 6.9038C19.756 7.27881 20 7.88684 20 8.44952V16.882C20 17.6328 19.5712 18.3662 18.8117 18.6745C18.3998 18.8417 17.7929 19.0658 17.0333 19.2821L19.449 21.9998H16.7731L14.7966 19.7762C13.9427 19.9115 13.0014 20 12 20C10.9986 20 10.0573 19.9115 9.20334 19.7762L7.22681 21.9998H4.5509L6.96665 19.2821C6.20706 19.0658 5.60024 18.8417 5.18836 18.6745C4.42884 18.3662 4.00004 17.6328 4.00003 16.882L4 8.44954C4 7.88684 4.24398 7.2788 4.79905 6.90379C5.6314 6.34144 7.56905 5.29233 10.6765 5.05058L11.2768 4ZM12 7C8.70199 7 6.73904 8.02726 6 8.50717L6.00001 11.6311C6.29755 11.6687 6.66768 11.7118 7.0995 11.755C8.32439 11.8775 10.0404 12 12 12C13.9596 12 15.6756 11.8775 16.9005 11.755C17.3323 11.7118 17.7025 11.6687 18 11.6311V8.50716C17.261 8.02725 15.2981 7 12 7ZM18 13.6462C17.7381 13.6776 17.4364 13.7114 17.0995 13.745C15.8244 13.8725 14.0404 14 12 14C9.95964 14 8.17561 13.8725 6.9005 13.745C6.56364 13.7114 6.26194 13.6776 6.00002 13.6462L6.00003 16.8453C7.0129 17.2504 9.26188 18 12 18C14.7381 18 16.9871 17.2504 18 16.8453V13.6462ZM12 17C12.5523 17 13 16.5523 13 16C13 15.4477 12.5523 15 12 15C11.4477 15 11 15.4477 11 16C11 16.5523 11.4477 17 12 17Z" fill="black"/>
</svg>
