<svg width="24" height="24" viewBox="0 0 24 24" fill="none" xmlns="http://www.w3.org/2000/svg">
<path fill-rule="evenodd" clip-rule="evenodd" d="M6.28874 11.56C5.28798 11.3249 4.49585 11.044 4 10.8456V13.4997C4.15447 13.5888 4.36713 13.6934 4.6485 13.8063C5.17136 14.0162 5.84459 14.221 6.62628 14.4003C8.18962 14.7591 10.1146 15 12 15C13.8854 15 15.8104 14.7591 17.3737 14.4003C18.1554 14.221 18.8287 14.0162 19.3515 13.8064C19.6329 13.6934 19.8455 13.5888 20 13.4997L20 10.8456C19.5042 11.044 18.712 11.3249 17.7113 11.5599C18.2309 11.0639 18.6374 10.4802 18.9592 9.86586C19.4128 8.99987 19.7391 7.99068 19.9835 6.90242C19.9654 6.76648 19.9304 6.62148 19.8693 6.4736C19.6805 6.01701 19.1264 4.89638 17.8939 3.88588C16.6443 2.86139 14.7567 2 12 2C9.24325 2 7.35564 2.8614 6.10608 3.8859C4.87357 4.8964 4.31949 6.01704 4.13073 6.47363C4.0696 6.62149 4.03464 6.76649 4.01653 6.90242C4.26086 7.99068 4.58722 8.99987 5.04084 9.86586C5.36262 10.4802 5.76914 11.064 6.28874 11.56ZM4 16.882V15.7006C4.62542 15.9442 5.36856 16.1637 6.17897 16.3497C7.88406 16.7409 9.95907 17 12 17C14.041 17 16.116 16.7409 17.8211 16.3497C18.6314 16.1637 19.3746 15.9442 20 15.7006L20 16.882C20 17.6328 19.5712 18.3662 18.8116 18.6745C18.3865 18.847 17.7538 19.0802 16.9598 19.3029L19.6569 22H16.8285L14.6303 19.8018C13.821 19.9225 12.9368 20 12 20C10.9475 20 9.9614 19.9022 9.07332 19.7552L6.82849 22H4.00006L6.77395 19.2261C6.10403 19.0276 5.56476 18.8273 5.18833 18.6745C4.42881 18.3662 4 17.6328 4 16.882ZM12 10C13.8516 10 14.8292 9.15992 15.7495 6.02072C15.0229 5.50398 13.8579 5 12 5C10.1469 5 8.98323 5.50134 8.25623 6.01665C9.16936 9.15919 10.1442 10 12 10Z" fill="black"/>
</svg>
