<svg width="24" height="24" viewBox="0 0 24 24" fill="none" xmlns="http://www.w3.org/2000/svg">
<path fill-rule="evenodd" clip-rule="evenodd" d="M6.01404 6.34656V11.08L11.9998 8.93789L17.9856 11.08V6.34657C17.4485 5.7307 15.6262 4 11.9998 4C8.37333 4 6.55107 5.7307 6.01404 6.34656ZM18.1253 13.2543L12.9998 11.42L12.9998 17.9765C15.3823 17.8683 17.7525 17.4127 18.9937 17.1554L18.1253 13.2543ZM10.9998 17.9765L10.9998 11.42L5.87428 13.2543L5.00598 17.1553C6.24711 17.4127 8.61725 17.8683 10.9998 17.9765ZM4.43169 5.11974C5.15581 4.25659 7.49297 2 11.9998 2C16.5066 2 18.8438 4.25657 19.5679 5.11972C19.8731 5.48353 19.9856 5.91666 19.9856 6.30278V12.4065L20.964 16.802L20.9675 16.8215C21.1542 17.8505 20.5122 18.8823 19.4436 19.1046C18.9164 19.2142 18.1558 19.3668 17.2564 19.5149L19.4651 21.9998H16.7892L14.8685 19.839C13.9393 19.9357 12.9619 20 11.9998 20C11.048 20 10.0812 19.9371 9.16091 19.8421L7.24293 21.9998H4.56702L6.77164 19.5196C5.85985 19.37 5.0888 19.2154 4.55603 19.1046C3.48739 18.8823 2.84544 17.8505 3.03215 16.8215L3.03568 16.802L4.01404 12.4064V6.30278C4.01404 5.91666 4.12648 5.48355 4.43169 5.11974ZM8.01611 6.5L11.0161 5.5V7.5L8.01611 8.5V6.5ZM13.0161 5.5L16.0161 6.5V8.5L13.0161 7.5V5.5Z" fill="black"/>
</svg>
