<svg width="24" height="24" viewBox="0 0 24 24" fill="none" xmlns="http://www.w3.org/2000/svg">
<path fill-rule="evenodd" clip-rule="evenodd" d="M6.00003 11.081V6.34713C6.53836 5.73111 8.365 4 12 4C15.635 4 17.4617 5.73111 18 6.34714V11.081L12 8.93814L6.00003 11.081ZM12 11.0619L18.1195 13.2474L18.8442 17.2329C18.3452 17.3359 17.6751 17.4632 16.8961 17.5844L16 14H15.5C15.2592 15.267 15.0778 16.5444 15.0185 17.8302C14.3538 17.9002 13.6552 17.9546 12.9473 17.9815C12.8188 16.1876 12.5 13 12.5 13H11.5C11.5 13 11.1813 16.1876 11.0528 17.9815C10.3494 17.9548 9.65524 17.9009 8.99442 17.8316C8.92942 16.2592 8.50003 14 8.50003 14H8.00003L7.10393 17.5844C6.32497 17.4632 5.6549 17.3359 5.15591 17.2329L5.88054 13.2474L12 11.0619ZM6.72851 19.55C5.91252 19.4218 5.21784 19.2884 4.70949 19.1829C3.6411 18.9611 2.99632 17.9303 3.18376 16.8993L4.00003 12.4098V6.30278C4.00003 5.91617 4.11287 5.48277 4.41869 5.11897C5.14434 4.25576 7.48561 2 12 2C16.5144 2 18.8557 4.25575 19.5814 5.11896C19.8872 5.48276 20 5.91616 20 6.30278V12.4098L20.8163 16.8993C21.0037 17.9303 20.359 18.9611 19.2906 19.1829C18.7822 19.2884 18.0875 19.4218 17.2715 19.55L19.4491 21.9998H16.7731L14.867 19.8554C13.9495 19.9427 12.976 20 12 20C11.024 20 10.0505 19.9427 9.13302 19.8554L7.22684 21.9998H4.55093L6.72851 19.55ZM8.00003 6.5L11 5.5V7.5L8.00003 8.5V6.5ZM13 5.5L16 6.5V8.5L13 7.5V5.5Z" fill="black"/>
</svg>
