<svg width="24" height="24" viewBox="0 0 24 24" fill="none" xmlns="http://www.w3.org/2000/svg">
<path fill-rule="evenodd" clip-rule="evenodd" d="M3 3H2V4V16V17H3H11.3L12.5 21H22V6H13.5308L12.9701 3.75746L12.7808 3H12H3ZM15.8442 15.2536L14.7808 11H15.8667V9H17.2667V11H20V12.326H19.1145C18.7497 13.2698 18.2782 14.0716 17.6987 14.756C18.2427 15.132 18.8723 15.4369 19.5971 15.6565C19.5971 15.6565 19.1333 16.0667 18.7357 17C17.5841 16.5592 16.6277 16.0227 15.8442 15.2536ZM4 15V5H11.2192L13.7192 15H4ZM15.68 12.326H17.4574C17.217 12.8676 16.9276 13.3398 16.5876 13.7521C16.2255 13.3277 15.9243 12.8503 15.68 12.326ZM5.5 13L7 7H9L10.5 13H9L8.75 12H7.25L7 13H5.5ZM8.375 10.5L8 9L7.625 10.5H8.375Z" fill="black"/>
</svg>
