<svg width="24" height="24" viewBox="0 0 24 24" fill="none" xmlns="http://www.w3.org/2000/svg">
<path fill-rule="evenodd" clip-rule="evenodd" d="M6.0113 5.49077C6.01266 5.49923 6.01403 5.50772 6.0154 5.51623C6.27614 5.94795 6.94896 6.16973 7.38659 6.32603C8.5196 6.73067 10.1506 7 12 7C13.8494 7 15.4804 6.73067 16.6134 6.32603C17.051 6.16973 17.7239 5.94795 17.9846 5.51623C17.986 5.50772 17.9873 5.49923 17.9887 5.49077C17.7413 5.05381 17.0448 4.82803 16.6134 4.67397C15.4804 4.26933 13.8494 4 12 4C10.1506 4 8.5196 4.26933 7.38659 4.67397C6.95525 4.82802 6.25868 5.05381 6.0113 5.49077ZM19.9294 6.0185C19.9746 5.85584 20 5.68295 20 5.5C20 4.03842 18.4792 3.2166 17.2861 2.79049C15.8856 2.29032 14.0166 2 12 2C9.98341 2 8.1144 2.29032 6.71392 2.79049C5.5208 3.2166 4 4.03842 4 5.5C4 5.68296 4.02537 5.85584 4.07057 6.0185C4.79022 10.468 5.56241 14.9089 6.33023 19.3503C6.87723 20.2788 7.70079 20.9294 8.68697 21.3551C9.64471 21.7685 10.7885 22 12 22C13.2115 22 14.3553 21.7685 15.313 21.3551C16.3116 20.9241 17.3147 20.2225 17.7009 19.1703C18.4573 14.7889 19.2195 10.4078 19.9294 6.0185ZM17.5579 8.10748C16.9719 11.6152 16.3695 15.1203 15.7655 18.625C14.9567 19.7103 13.2526 20 12 20C10.7474 20 9.04329 19.7103 8.23455 18.625C7.62963 15.1204 7.02812 11.6152 6.44211 8.10748C8.18936 8.79673 10.1354 9 12 9C13.8646 9 15.8106 8.79673 17.5579 8.10748Z" fill="black"/>
</svg>
