<svg width="24" height="24" viewBox="0 0 24 24" fill="none" xmlns="http://www.w3.org/2000/svg">
<path fill-rule="evenodd" clip-rule="evenodd" d="M17.9846 5.51623C17.7239 5.94795 17.051 6.16973 16.6134 6.32603C15.4804 6.73067 13.8494 7 12 7C10.1506 7 8.5196 6.73067 7.38659 6.32603C6.94896 6.16973 6.27614 5.94795 6.0154 5.51623C6.01403 5.50772 6.01266 5.49923 6.0113 5.49077C6.25868 5.05381 6.95525 4.82802 7.38659 4.67397C8.5196 4.26933 10.1506 4 12 4C13.8494 4 15.4804 4.26933 16.6134 4.67397C17.0448 4.82802 17.7413 5.05381 17.9887 5.49077C17.9873 5.49923 17.986 5.50772 17.9846 5.51623ZM19.9294 6.0185C19.9746 5.85584 20 5.68295 20 5.5C20 4.74631 19.5695 4.16346 19.0951 3.76283C18.616 3.35829 17.982 3.03902 17.2861 2.79049C15.8856 2.29032 14.0166 2 12 2C9.98341 2 8.1144 2.29032 6.71392 2.79049C6.01803 3.03902 5.38405 3.35829 4.90494 3.76283C4.43048 4.16346 4 4.74631 4 5.5C4 5.68296 4.02537 5.85584 4.07057 6.0185C4.79022 10.468 5.56241 14.9089 6.33023 19.3503C7.48538 21.3112 9.83747 22 12 22C14.1284 22 16.5279 21.2886 17.6698 19.3503C18.4376 14.9089 19.2098 10.468 19.9294 6.0185Z" fill="black"/>
</svg>
