<svg width="24" height="24" viewBox="0 0 24 24" fill="none" xmlns="http://www.w3.org/2000/svg">
<path fill-rule="evenodd" clip-rule="evenodd" d="M18.9859 18.2762C17.4379 13.4373 15.1552 8.97431 11.9921 5.07781C8.82952 8.97097 6.56491 13.4319 5.01405 18.2718C6.35776 18.5591 8.92137 18.9994 11.9973 18.9994C15.074 18.9994 17.6403 18.5618 18.9859 18.2762ZM19.479 20.2164C18.0647 20.5208 15.3136 21 11.9973 21C8.68029 21 5.93094 20.5175 4.51784 20.2112C3.38021 19.9646 2.75023 18.7994 3.09357 17.723C4.83409 12.2668 7.46101 7.2191 11.2398 2.86758L11.9932 2L12.7459 2.86821C16.5183 7.21977 19.168 12.2682 20.9067 17.7288C21.25 18.8066 20.6172 19.9715 19.479 20.2164Z" fill="black"/>
</svg>
