<svg width="24" height="24" viewBox="0 0 24 24" fill="none" xmlns="http://www.w3.org/2000/svg">
<path fill-rule="evenodd" clip-rule="evenodd" d="M10 4C5.58172 4 2 7.58172 2 12C2 13.5947 2.37401 15.1049 3.04001 16.445L4.83103 15.555C4.2994 14.4852 4 13.279 4 12C4 8.68629 6.68629 6 10 6C10.3407 6 10.6748 6.0284 11 6.08296C8.16229 6.55904 6 9.027 6 12C6 16.4183 9.58172 20 14 20C18.4183 20 22 16.4183 22 12C22 10.4053 21.626 8.89511 20.96 7.55497L19.169 8.44503C19.7006 9.5148 20 10.721 20 12C20 15.3137 17.3137 18 14 18C13.6593 18 13.3252 17.9716 13 17.917C15.8377 17.441 18 14.973 18 12C18 7.58172 14.4183 4 10 4ZM12 8C14.2091 8 16 9.79086 16 12C16 14.2091 14.2091 16 12 16C9.79086 16 8 14.2091 8 12C8 9.79086 9.79086 8 12 8ZM12 14C13.1046 14 14 13.1046 14 12C14 10.8954 13.1046 10 12 10C10.8954 10 10 10.8954 10 12C10 13.1046 10.8954 14 12 14Z" fill="black"/>
</svg>
