<svg width="24" height="24" viewBox="0 0 24 24" fill="none" xmlns="http://www.w3.org/2000/svg">
<path fill-rule="evenodd" clip-rule="evenodd" d="M8.00008 2C6.34338 2 5 3.34284 5 4.99984L5 9H3V11H4.89042C4.7459 11.6264 4.45347 12.1323 4 12.5858L4 18V21C4 21.5523 4.44772 22 5 22H7V20H17V22H19C19.5523 22 20 21.5523 20 21V18L20 12.6234C19.5814 12.1465 19.2818 11.6269 19.1236 11H21V9H19V4.99985C19 3.34285 17.6566 2 15.9999 2H8.00008ZM18 18L18 13.7273C17.7388 13.6534 17.3982 13.5663 16.9815 13.4785C15.8565 13.2417 14.1756 13 12 13C9.82441 13 8.14354 13.2417 7.01851 13.4785C6.60176 13.5663 6.26122 13.6534 6 13.7273L6.00001 18H7H17H18ZM7 4.99984C7 4.44771 7.44765 4 8.00008 4H15.9999C16.5524 4 17 4.44771 17 4.99985V6H7L7 4.99984ZM7 8H17V10C17 10.5468 17.0723 11.0419 17.1815 11.478C15.9413 11.2306 14.1962 11 12 11C9.81252 11 8.07254 11.2288 6.83331 11.475C6.93479 11.0439 7 10.5519 7 10V8ZM8.5 15C7.67157 15 7 15.6716 7 16.5H10C10 15.6716 9.32843 15 8.5 15ZM14 16.5C14 15.6716 14.6716 15 15.5 15C16.3284 15 17 15.6716 17 16.5H14Z" fill="black"/>
</svg>
