<svg width="24" height="24" viewBox="0 0 24 24" fill="none" xmlns="http://www.w3.org/2000/svg">
<path fill-rule="evenodd" clip-rule="evenodd" d="M8.00008 2C6.34338 2 5 3.34284 5 4.99984L5 9H3V11H4.89042C4.7459 11.6264 4.45349 12.1323 4 12.5858L4 21C4 21.5523 4.44772 22 5 22H7V20H17V22H19C19.5523 22 20 21.5523 20 21L20 12.6234C19.5814 12.1465 19.2818 11.6269 19.1236 11H21V9H19L19 4.99985C19 3.34285 17.6566 2 15.9999 2H8.00008ZM7 8H17L17 10C17 10.5468 17.0723 11.0419 17.1815 11.478C15.9413 11.2306 14.1962 11 12 11C9.81252 11 8.07254 11.2288 6.83331 11.475C6.93479 11.0439 7 10.5519 7 10V8ZM18 15.9976C17.9987 15.4464 17.5515 15 17 15C16.4477 15 16 15.4477 16 16C16 16.5523 16.4477 17 17 17C17.5515 17 17.9987 16.5536 18 16.0024V15.9976ZM6.00001 16.0037C6.00201 16.5543 6.44896 17 7 17C7.55228 17 8 16.5523 8 16C8 15.4477 7.55228 15 7 15C6.44896 15 6.00201 15.4457 6.00001 15.9963V16.0037ZM14 16C14 16.5523 13.5523 17 13 17H11C10.4477 17 10 16.5523 10 16C10 15.4477 10.4477 15 11 15H13C13.5523 15 14 15.4477 14 16Z" fill="black"/>
</svg>
