<svg width="24" height="24" viewBox="0 0 24 24" fill="none" xmlns="http://www.w3.org/2000/svg">
<path fill-rule="evenodd" clip-rule="evenodd" d="M16 3C16.5523 3 17 3.44772 17 4V6.08296C19.8377 6.55904 22 9.027 22 12V19H19.8293C19.4175 20.1652 18.3062 21 17 21C15.6938 21 14.5825 20.1652 14.1707 19H9.82929C9.41746 20.1652 8.30622 21 7 21C5.69378 21 4.58254 20.1652 4.17071 19H2V12H15V4C15 3.44772 15.4477 3 16 3ZM17 8.12602C18.7252 8.57006 20 10.1362 20 12H17V8.12602ZM6 18C6 17.4477 6.44772 17 7 17C7.55228 17 8 17.4477 8 18C8 18.5523 7.55228 19 7 19C6.44772 19 6 18.5523 6 18ZM16 18C16 17.4477 16.4477 17 17 17C17.5523 17 18 17.4477 18 18C18 18.5523 17.5523 19 17 19C16.4477 19 16 18.5523 16 18Z" fill="black"/>
</svg>
