<svg width="24" height="24" viewBox="0 0 24 24" fill="none" xmlns="http://www.w3.org/2000/svg">
<path fill-rule="evenodd" clip-rule="evenodd" d="M17 4C17 3.44772 16.5523 3 16 3C15.4477 3 15 3.44772 15 4V11H2V19H4.17071C4.58254 20.1652 5.69378 21 7 21C8.30622 21 9.41746 20.1652 9.82929 19H14.1707C14.5825 20.1652 15.6938 21 17 21C18.3062 21 19.4175 20.1652 19.8293 19H22V11C22 8.027 19.8377 5.55904 17 5.08296V4ZM19.8293 17H20V13H4V17H4.17071C4.58254 15.8348 5.69378 15 7 15C8.30622 15 9.41746 15.8348 9.82929 17H14.1707C14.5825 15.8348 15.6938 15 17 15C18.3062 15 19.4175 15.8348 19.8293 17ZM8 18C8 17.4477 7.55228 17 7 17C6.44772 17 6 17.4477 6 18C6 18.5523 6.44772 19 7 19C7.55228 19 8 18.5523 8 18ZM17 11V7.12602C18.7252 7.57006 20 9.13616 20 11H17ZM17 17C16.4477 17 16 17.4477 16 18C16 18.5523 16.4477 19 17 19C17.5523 19 18 18.5523 18 18C18 17.4477 17.5523 17 17 17Z" fill="black"/>
</svg>
