<svg width="24" height="24" viewBox="0 0 24 24" fill="none" xmlns="http://www.w3.org/2000/svg">
<path fill-rule="evenodd" clip-rule="evenodd" d="M2 3H15C16.1046 3 17 3.89543 17 5V6.08296C19.8377 6.55904 22 9.027 22 12V19H19.8293C19.4175 20.1652 18.3062 21 17 21C15.6938 21 14.5825 20.1652 14.1707 19H9.82929C9.41746 20.1652 8.30622 21 7 21C5.69378 21 4.58254 20.1652 4.17071 19H2V3ZM20 17H19.8293C19.4175 15.8348 18.3062 15 17 15C15.6938 15 14.5825 15.8348 14.1707 17H9.82929C9.41746 15.8348 8.30622 15 7 15C5.69378 15 4.58254 15.8348 4.17071 17H4V5H15V13H20V17ZM17 8.12602V11H19.874C19.5122 9.59439 18.4056 8.4878 17 8.12602ZM6 18C6 17.4477 6.44772 17 7 17C7.55228 17 8 17.4477 8 18C8 18.5523 7.55228 19 7 19C6.44772 19 6 18.5523 6 18ZM16 18C16 17.4477 16.4477 17 17 17C17.5523 17 18 17.4477 18 18C18 18.5523 17.5523 19 17 19C16.4477 19 16 18.5523 16 18ZM6 7V9H13V7H6ZM6 11V13H11V11H6Z" fill="black"/>
</svg>
