<svg width="24" height="24" viewBox="0 0 24 24" fill="none" xmlns="http://www.w3.org/2000/svg">
<path fill-rule="evenodd" clip-rule="evenodd" d="M7.56201 2C6.19082 2 4.95146 2.94579 4.71428 4.36713C4.68189 4.56122 4.64826 4.77229 4.61402 5H3V8H4.25853C4.11022 9.6483 4 11.6603 4 14V21C4 21.5523 4.44772 22 5 22H8V21H16V22H19C19.5523 22 20 21.5523 20 21L20 14C20 11.5674 19.9085 9.58545 19.7795 8H21V5H19.4367C19.3924 4.7123 19.3483 4.45371 19.306 4.22294C19.0534 2.84789 17.8444 2 16.5576 2H7.56201ZM6.36951 7H17.6777C17.5679 5.9633 17.4459 5.16703 17.3389 4.58427C17.2804 4.26592 16.9926 4 16.5576 4H7.56201C7.09772 4 6.75193 4.30722 6.68701 4.69632C6.58774 5.29118 6.47477 6.06266 6.36951 7ZM8 18C8.55228 18 9 17.5523 9 17C9 16.4477 8.55228 16 8 16C7.44772 16 7 16.4477 7 17C7 17.5523 7.44772 18 8 18ZM16 18C16.5523 18 17 17.5523 17 17C17 16.4477 16.5523 16 16 16C15.4477 16 15 16.4477 15 17C15 17.5523 15.4477 18 16 18ZM16 11C16 12.1046 15.1046 13 14 13H10C8.89543 13 8 12.1046 8 11H16ZM15 14C15 15.1046 14.1046 16 13 16H11C9.89543 16 9 15.1046 9 14H15Z" fill="black"/>
</svg>
