<svg width="24" height="24" viewBox="0 0 24 24" fill="none" xmlns="http://www.w3.org/2000/svg">
<path fill-rule="evenodd" clip-rule="evenodd" d="M14 2C10 2 7.30601 4.37299 6.31201 7.74998C6.29801 7.79898 5.61501 10.117 5.31201 10.656C4.00001 13 3.00001 13 3.00001 13V16.0001C3.14979 15.9184 3.30365 15.8252 3.46052 15.7302C4.28692 15.2294 5.19696 14.678 6.03536 15.4949C7.40353 16.828 9.60065 16.8139 10.9515 15.463C11.5305 14.8841 12.47 14.8844 13.043 15.4574C14.4 16.8144 16.6002 16.8144 17.9572 15.4574C18.5332 14.8814 19.467 14.8814 20.043 15.4574C20.5 16 21 15.985 21 15.985V13H20C18 13 13 11 13.188 7.18797C12.494 7.50197 12 8.18898 12 8.99998C12 9.55198 11.552 9.99998 11 9.99998C10.448 9.99998 10 9.55198 10 8.99998C10 6.79099 11.791 4.99999 14 4.99999C14.552 4.99999 15 5.44799 15 5.99999C15 7.10499 15.895 7.99998 17 7.99998C18.105 7.99998 19 7.10499 19 5.99999C19 3.791 17 2 14 2ZM17.9572 19.9719C18.5332 19.396 19.467 19.396 20.043 19.9719L20.5859 20.5148L22.0001 19.1006L21.4572 18.5577C20.1002 17.2007 17.9 17.2007 16.543 18.5577C15.967 19.1337 15.0332 19.1337 14.4572 18.5577C13.0972 17.1977 10.8914 17.2094 9.53732 18.5634C8.96045 19.1403 8.01551 19.1464 7.43112 18.577C6.05945 17.2405 3.85756 17.2431 2.49741 18.6033L2.00005 19.1006L3.41426 20.5148L3.91162 20.0175C4.49194 19.4372 5.44155 19.4308 6.03539 20.0094C6.71952 20.676 7.61092 21.0058 8.50014 21C9.38924 20.9942 10.2761 20.653 10.9515 19.9776C11.5305 19.3987 12.47 19.3989 13.043 19.9719C13.7215 20.6504 14.6108 20.9897 15.5001 20.9897C16.3894 20.9897 17.2787 20.6504 17.9572 19.9719Z" fill="black"/>
</svg>
