<svg width="24" height="24" viewBox="0 0 24 24" fill="none" xmlns="http://www.w3.org/2000/svg">
<path fill-rule="evenodd" clip-rule="evenodd" d="M14.0001 4C11.8187 4 9.90808 5.16348 8.8566 6.90852C8.17761 8.03536 7.85331 9.34064 7.49714 10.5948C7.23753 11.5079 6.94904 12.5021 6.50928 13.415C6.84134 13.5757 7.15324 13.7915 7.43107 14.0622C8.01546 14.6316 8.9604 14.6255 9.53727 14.0486C10.8913 12.6946 13.0972 12.6829 14.4572 14.0429C14.9646 14.5504 15.7499 14.6107 16.3235 14.224C14.9269 13.3372 14.0001 11.7768 14.0001 10C14.0001 9.75631 14.0176 9.51624 14.0515 9.2811C13.6961 8.97722 13.4126 8.59173 13.2299 8.15367C12.5077 8.45529 12.0001 9.16837 12.0001 10V11H10.0001V10C10.0001 7.79086 11.7909 6 14.0001 6H15.0001V7C15.0001 7.55228 15.4478 8 16.0001 8C16.5524 8 17.0001 7.55228 17.0001 7C17.0001 5.34315 15.6569 4 14.0001 4ZM19.0001 13.0251V13C17.3432 13 16.0001 11.6569 16.0001 10C17.6569 10 19.0001 8.65685 19.0001 7C19.0001 4.23858 16.7615 2 14.0001 2C11.0888 2 8.54186 3.55568 7.14355 5.8763C6.37063 7.15904 5.97818 8.61894 5.57339 10.0478C5.2223 11.2827 4.9011 12.3157 4.39866 13.1112C3.7023 13.2262 3.03425 13.5516 2.49736 14.0885L2.00012 14.5857L3.41434 15.9999L3.91158 15.5027C4.49189 14.9224 5.4415 14.916 6.03534 15.4946C7.40352 16.8277 9.60064 16.8136 10.9515 15.4628C11.5304 14.8838 12.47 14.8841 13.043 15.4571C14.4 16.8141 16.6002 16.8142 17.9572 15.4571C18.5332 14.8812 19.467 14.8812 20.043 15.4571L20.5858 16L22.0001 14.5858L21.4572 14.0429C20.7787 13.3644 19.8894 13.0251 19.0001 13.0251ZM20.0428 19.9719C19.4668 19.396 18.533 19.396 17.957 19.9719C17.2785 20.6504 16.3892 20.9897 15.4999 20.9897C14.6106 20.9897 13.7213 20.6504 13.0428 19.9719C12.4698 19.3989 11.5303 19.3987 10.9513 19.9776C10.2759 20.653 9.38903 20.9942 8.49994 21C7.61072 21.0058 6.71932 20.676 6.03518 20.0094C5.44134 19.4308 4.49174 19.4372 3.91142 20.0175L3.41415 20.5147L1.99994 19.1005L2.4972 18.6033C3.85736 17.2431 6.05924 17.2405 7.43091 18.577C8.0153 19.1464 8.96024 19.1403 9.53711 18.5634C10.8911 17.2094 13.097 17.1977 14.457 18.5577C15.033 19.1337 15.9668 19.1337 16.5428 18.5577C17.8998 17.2007 20.1 17.2007 21.457 18.5577L22 19.1007L20.5857 20.5149L20.0428 19.9719Z" fill="black"/>
</svg>
