<svg width="24" height="24" viewBox="0 0 24 24" fill="none" xmlns="http://www.w3.org/2000/svg">
<path d="M14 3C9.99999 3 7.30599 5.37299 6.31199 8.74999C6.29799 8.79899 5.61499 11.117 5.31199 11.656C4 14 3 14 3 14V18C3 19.374 4 21 6 21C7 21 7.791 20.49 8.188 20.094L8.21899 20.063C8.64799 19.633 9.352 19.633 9.781 20.063L9.81199 20.094C11.023 21.304 12.977 21.305 14.188 20.094L14.219 20.063C14.648 19.633 15.352 19.633 15.781 20.063L15.812 20.094C16.207 20.488 17 21 18 21C19.657 21 21 19.657 21 18V14C21 14 21 14 20 14C18 14 13 12 13.188 8.18798C12.494 8.50198 12 9.18899 12 9.99998C12 10.552 11.552 11 11 11C10.448 11 9.99999 10.552 9.99999 9.99998C9.99999 7.79099 11.791 5.99999 14 5.99999C14.552 5.99999 15 6.44799 15 6.99999C15 8.10499 15.895 8.99999 17 8.99999C18.105 8.99999 19 8.10499 19 6.99999C19 4.791 17 3 14 3C14.177 3 13.824 3 14 3Z" fill="black"/>
</svg>
