<svg width="24" height="24" viewBox="0 0 24 24" fill="none" xmlns="http://www.w3.org/2000/svg">
<path fill-rule="evenodd" clip-rule="evenodd" d="M14 5C11.8186 5 9.90801 6.16348 8.85652 7.90852C8.56679 8.38935 8.35679 8.94172 8.15882 9.58041C8.08796 9.80905 8.01013 10.0804 7.9282 10.3661C7.80714 10.7883 7.67709 11.2418 7.54724 11.6349C7.10737 12.9668 6.44876 14.3805 5 15.5109L5 17.775C5 18.122 5.18309 18.3723 5.41563 18.6048C5.78135 18.9705 6.36559 18.997 6.76292 18.6659L7.07945 18.4022C8.19198 17.4751 9.80801 17.4751 10.9206 18.4022L11.3598 18.7682C11.7307 19.0773 12.2693 19.0773 12.6402 18.7682L13.0794 18.4022C14.192 17.4751 15.808 17.4751 16.9206 18.4022L17.2371 18.6659C17.6344 18.997 18.2187 18.9705 18.5844 18.6048L18.7071 18.4821C18.8946 18.2946 19 18.0402 19 17.775L19 16C16.2386 16 14 13.7614 14 11C14 10.7563 14.0175 10.5162 14.0514 10.2811C13.696 9.97722 13.4125 9.59173 13.2298 9.15367C12.5076 9.45529 12 10.1684 12 11V12H10V11C10 8.79086 11.7909 7 14 7H15V8C15 8.55228 15.4477 9 16 9C16.5523 9 17 8.55228 17 8C17 6.34315 15.6569 5 14 5ZM16 11C17.6569 11 19 9.65685 19 8C19 5.23858 16.7614 3 14 3C11.0887 3 8.54178 4.55568 7.14348 6.8763C6.73013 7.5623 6.46359 8.29429 6.24848 8.9883C6.14415 9.32491 6.0603 9.62023 5.97944 9.90499C5.87625 10.2684 5.77794 10.6147 5.64814 11.0077C5.2323 12.2668 4.68131 13.3439 3.4453 14.1679L3 14.4648L3 17.775C3 20.2663 6.07719 21.8408 8.04329 20.2024L8.35982 19.9386C8.73066 19.6296 9.26934 19.6296 9.64018 19.9386L10.0794 20.3047C10.6357 20.7682 11.3179 21 12 21C12.6821 21 13.3643 20.7682 13.9206 20.3047L14.3598 19.9386C14.7307 19.6296 15.2693 19.6296 15.6402 19.9386L15.9567 20.2024C17.9118 21.8317 21 20.2448 21 17.775L21 14H19C17.3431 14 16 12.6569 16 11Z" fill="black"/>
</svg>
