<svg width="24" height="24" viewBox="0 0 24 24" fill="none" xmlns="http://www.w3.org/2000/svg">
<path fill-rule="evenodd" clip-rule="evenodd" d="M2 4V20H4V13H10V20H12V4H10V11H4V4H2ZM16 8C16 6.89543 16.8954 6 18 6C19.1046 6 20 6.89543 20 8C20 9.65685 18.6569 11 17 11V13H18C19.1046 13 20 13.8954 20 15V16C20 17.1046 19.1046 18 18 18C16.8954 18 16 17.1046 16 16H14C14 18.2091 15.7909 20 18 20C20.2091 20 22 18.2091 22 16V15C22 13.6551 21.3363 12.4652 20.3185 11.7401C21.35 10.8242 22 9.48798 22 8C22 5.79086 20.2091 4 18 4C15.7909 4 14 5.79086 14 8H16Z" fill="black"/>
</svg>
