<svg width="24" height="24" viewBox="0 0 24 24" fill="none" xmlns="http://www.w3.org/2000/svg">
<path fill-rule="evenodd" clip-rule="evenodd" d="M7.40002 8.24468C7.40002 5.78104 9.73201 4 12 4C13.5674 4 14.86 4.50742 15.7482 5.00084C16.2613 5.28592 16.7699 5.62137 17.1947 6.03064L17.196 6.0319C17.1981 6.03399 15.8035 7.46749 15.8035 7.46749L15.8047 7.46872L15.8059 7.46984C15.5006 7.185 15.1402 6.95102 14.7769 6.74916C14.0901 6.36758 13.1326 6 12 6C10.5817 6 9.40002 7.12434 9.40002 8.24468C9.40002 8.53338 9.44363 8.78101 9.5261 9H7.46304C7.42185 8.76227 7.40002 8.5108 7.40002 8.24468ZM8.4719 11H12.2556H19V13H15.5519C16.1829 13.688 16.6 14.581 16.6 15.7553C16.6 18.219 14.268 20 12 20C10.4326 20 9.14005 19.4926 8.25188 18.9992C7.73876 18.7141 7.22793 18.3786 6.80408 17.9681C6.80273 17.9668 7.09828 17.663 7.41728 17.3352C7.79128 16.9509 8.1975 16.5334 8.19532 16.5313L8.19417 16.5302C8.49949 16.815 8.8598 17.049 9.22317 17.2508C9.91 17.6324 10.8674 18 12 18C13.4184 18 14.6 16.8757 14.6 15.7553C14.6 15.0035 14.3138 14.5246 13.8284 14.1132C13.331 13.6916 12.6572 13.3679 11.8321 13H5V11H8.4719Z" fill="black"/>
</svg>
