<svg width="24" height="24" viewBox="0 0 24 24" fill="none" xmlns="http://www.w3.org/2000/svg">
<path fill-rule="evenodd" clip-rule="evenodd" d="M5.76011 14L7.50001 7.73637L9.2399 14H5.76011ZM5.20456 16L4.07573 20H2L6.53649 4H7.50001H8.46353L13 20H10.9243L9.79546 16H5.20456ZM18.5 8C16.567 8 15 9.567 15 11.5H16H17C17 10.6716 17.6716 10 18.5 10C19.3284 10 20 10.6716 20 11.5V13H17.5C15.567 13 14 14.567 14 16.5C14 18.433 15.567 20 17.5 20H17.5714C18.4682 20 19.3027 19.7335 20 19.2753V20H22V15.5714V14V11.5C22 9.567 20.433 8 18.5 8ZM20 15.5714V15H17.5C16.6716 15 16 15.6716 16 16.5C16 17.3284 16.6716 18 17.5 18H17.5714C18.9127 18 20 16.9127 20 15.5714Z" fill="black"/>
</svg>
