<svg width="24" height="24" viewBox="0 0 24 24" fill="none" xmlns="http://www.w3.org/2000/svg">
<path fill-rule="evenodd" clip-rule="evenodd" d="M2 4V20H4V13H10V20H12V4H10V11H4V4H2ZM16 8C16 6.89543 16.8954 6 18 6C19.1033 6 19.9979 6.89254 19.9999 7.9954C19.9807 8.18475 19.8921 8.37956 19.8116 8.5567C19.7987 8.5852 19.7859 8.61325 19.7737 8.64074C19.439 9.39389 18.8333 10.4017 18.467 10.9816C17.5316 12.4627 16.5892 13.9396 15.6468 15.4164C15.0974 16.2773 14.548 17.1382 14 18V20H22V18H16.3317L19.8392 12.544C20.4904 11.5589 21.1208 10.5342 21.6013 9.45301C21.7858 9.0379 22 8.48595 22 8C22 5.79086 20.2091 4 18 4C15.7909 4 14 5.79086 14 8V9H16V8Z" fill="black"/>
</svg>
