<svg width="24" height="24" viewBox="0 0 24 24" fill="none" xmlns="http://www.w3.org/2000/svg">
<path fill-rule="evenodd" clip-rule="evenodd" d="M3 5C3 3.89543 3.89543 3 5 3H9C10.1046 3 11 3.89543 11 5V11H5C3.89543 11 3 10.1046 3 9V5ZM9.35355 5.85355L6.85355 8.35355L6.5 8.70711L6.14645 8.35355L4.64645 6.85355L5.35355 6.14645L6.5 7.29289L8.64645 5.14645L9.35355 5.85355ZM15 9V5H19V9H15ZM13 5V9V11H15H19C20.1046 11 21 10.1046 21 9V5C21 3.89543 20.1046 3 19 3H15C13.8954 3 13 3.89543 13 5ZM15 19V15H19V19H15ZM13 15V19C13 20.1046 13.8954 21 15 21H19C20.1046 21 21 20.1046 21 19V15C21 13.8954 20.1046 13 19 13H15H13V15ZM9 15V19H5V15H9ZM11 19V15V13H9H5C3.89543 13 3 13.8954 3 15V19C3 20.1046 3.89543 21 5 21H9C10.1046 21 11 20.1046 11 19Z" fill="black"/>
</svg>
