<svg width="24" height="24" viewBox="0 0 24 24" fill="none" xmlns="http://www.w3.org/2000/svg">
<path fill-rule="evenodd" clip-rule="evenodd" d="M3 5C3 3.89543 3.89543 3 5 3H9C10.1046 3 11 3.89543 11 5V9C11 10.1046 10.1046 11 9 11H5C3.89543 11 3 10.1046 3 9V5ZM9.35355 5.85355L6.85355 8.35355L6.5 8.70711L6.14645 8.35355L4.64645 6.85355L5.35355 6.14645L6.5 7.29289L8.64645 5.14645L9.35355 5.85355ZM3 15C3 13.8954 3.89543 13 5 13H9C10.1046 13 11 13.8954 11 15V19C11 20.1046 10.1046 21 9 21H5C3.89543 21 3 20.1046 3 19V15ZM9.35355 15.8536L6.85355 18.3536L6.5 18.7071L6.14645 18.3536L4.64645 16.8536L5.35355 16.1464L6.5 17.2929L8.64645 15.1464L9.35355 15.8536ZM19 10H13V8H19V10ZM19 20H13V18H19V20ZM21 3H13V6H21V3ZM13 16H21V13H13V16Z" fill="black"/>
</svg>
