<svg width="24" height="24" viewBox="0 0 24 24" fill="none" xmlns="http://www.w3.org/2000/svg">
<path fill-rule="evenodd" clip-rule="evenodd" d="M11.1093 3.58629C10.6288 4.89173 10.2302 6.80079 9.99481 9.10176L8.00519 8.8982C8.21877 6.81066 8.56818 4.95125 9.02644 3.49997C5.72827 4.6468 3.30229 7.64698 3.00342 11.2493L3 13C4.00326 12.5 4.90865 12 6 12C7.38178 12 8.18612 13.0588 9.01954 14C9.62004 13.3218 10.1861 12.5826 10.9724 12.2224V19C10.9724 19.5523 10.5247 20 9.97241 20C9.42013 20 8.97241 19.5523 8.97241 19V17H6.97241V19C6.97241 20.6569 8.31556 22 9.97241 22C11.6293 22 12.9724 20.6569 12.9724 19V12.1953C13.7955 12.5444 14.384 13.3043 15 14C15.8334 13.0588 16.6394 12 18.0212 12C19.1107 12 20.0521 12.4983 20.9951 12.9974L21 13V11.2494C20.701 7.64561 18.2733 4.64448 14.9731 3.49864C15.4316 4.95012 15.7812 6.81002 15.9948 8.8982L14.0052 9.10176C13.7698 6.80079 13.3712 4.89173 12.8907 3.58629C12.6486 2.92833 12.4059 2.46112 12.1938 2.19645C12.104 2.08451 12.0391 2.02782 12 2C11.9609 2.02782 11.896 2.08451 11.8062 2.19645C11.5941 2.46112 11.3514 2.92833 11.1093 3.58629Z" fill="black"/>
</svg>
