<svg width="24" height="24" viewBox="0 0 24 24" fill="none" xmlns="http://www.w3.org/2000/svg">
<path fill-rule="evenodd" clip-rule="evenodd" d="M12.9985 3.05475C12.9995 3.03662 13 3.01837 13 3C13 2.44772 12.5523 2 12 2C11.4477 2 11 2.44772 11 3C11 3.01838 11.0005 3.03664 11.0015 3.05477C6.74641 3.5244 3.38571 6.96001 3.03099 11.2493L3 13C3.98721 12.4731 4.84634 12 6.00003 12C7.37733 12 8.16932 12.9242 9.00003 13.8654C9.58941 13.1976 10.1279 12.4786 11 12.1705V19C11 19.5523 10.5523 20 10 20C9.44772 20 9 19.5523 9 19V17H7V19C7 20.6569 8.34315 22 10 22C11.6569 22 13 20.6569 13 19V12.1705C13.8722 12.4785 14.4106 13.1976 15 13.8654C15.8307 12.9242 16.6227 12 18 12C19.1537 12 20.0128 12.4731 21 13L20.9692 11.2494C20.6145 6.95998 17.2537 3.52432 12.9985 3.05475ZM6.00003 10C5.75674 10 5.51616 10.0125 5.27894 10.0368C5.85021 8.07752 7.25546 6.47336 9.08455 5.63425C8.70054 6.54578 8.41178 7.64825 8.22937 8.84992L10.2067 9.15008C10.4187 7.75348 10.7735 6.62678 11.1814 5.87984C11.6264 5.06493 11.954 5 12 5C12.046 5 12.3735 5.06493 12.8185 5.87984C13.2264 6.62678 13.5812 7.75348 13.7932 9.15008L15.7706 8.84992C15.5882 7.6482 15.2994 6.54569 14.9153 5.63413C16.7446 6.47321 18.1499 8.07744 18.7212 10.0368C18.484 10.0125 18.2434 10 18 10C16.8745 10 15.8353 10.3726 15 10.9998C14.1648 10.3726 13.1256 10 12 10C10.8745 10 9.8353 10.3726 9.00003 10.9998C8.16477 10.3726 7.12556 10 6.00003 10Z" fill="black"/>
</svg>
