<svg width="24" height="24" viewBox="0 0 24 24" fill="none" xmlns="http://www.w3.org/2000/svg">
<path fill-rule="evenodd" clip-rule="evenodd" d="M12 22C17.5228 22 22 17.5228 22 12C22 6.47715 17.5228 2 12 2C6.47715 2 2 6.47715 2 12C2 17.5228 6.47715 22 12 22ZM12 7.66667C12.7364 7.66667 13.3333 7.06971 13.3333 6.33333C13.3333 5.59695 12.7364 5 12 5C11.2636 5 10.6667 5.59695 10.6667 6.33333C10.6667 7.06971 11.2636 7.66667 12 7.66667ZM6 9V10.3333H8.75597C9.5529 10.3333 10.1719 11.0278 10.0805 11.8195L9.33773 18.2569L10.0002 18.3334L10.6615 18.416L11.1628 14.4057C11.2156 13.9835 11.5745 13.6667 12 13.6667C12.4255 13.6667 12.7844 13.9835 12.8372 14.4057L13.3385 18.416L14.0003 18.3333L14.6623 18.2569L13.9195 11.8195C13.8281 11.0278 14.4471 10.3333 15.244 10.3333H18V9H6Z" fill="black"/>
</svg>
