<svg width="24" height="24" viewBox="0 0 24 24" fill="none" xmlns="http://www.w3.org/2000/svg">
<path fill-rule="evenodd" clip-rule="evenodd" d="M12 6C13.1046 6 14 5.10457 14 4C14 2.89543 13.1046 2 12 2C10.8954 2 10 2.89543 10 4C10 5.10457 10.8954 6 12 6ZM3 10V8H21V10H16.8661C15.6707 10 14.7422 11.0417 14.8792 12.2292L15.9857 21.7613L14 22L13.2558 16.1086C13.1766 15.4753 12.6383 15 12 15C11.3617 15 10.8234 15.4753 10.7442 16.1086L9.98456 22L7.99887 21.7613L9.12076 12.2292C9.25778 11.0417 8.32934 10 7.13394 10H3Z" fill="black"/>
</svg>
