<svg width="24" height="24" viewBox="0 0 24 24" fill="none" xmlns="http://www.w3.org/2000/svg">
<path fill-rule="evenodd" clip-rule="evenodd" d="M12 6C13.1046 6 14 5.10457 14 4C14 2.89543 13.1046 2 12 2C10.8954 2 10 2.89543 10 4C10 5.10457 10.8954 6 12 6ZM3 8V10H7.13394C8.32934 10 9.25778 11.0417 9.12076 12.2292L7.99887 21.7613L9.98456 22L10.7442 16.1086C10.8234 15.4753 11.3617 15 12 15C12.6383 15 13.1766 15.4753 13.2558 16.1086L14 22L15.9857 21.7613L14.8792 12.2292C14.7422 11.0417 15.6707 10 16.8661 10H21V8H3ZM11.1076 12.4585C11.2105 11.5662 11.0127 10.715 10.5987 10H13.4012C12.9873 10.715 12.7895 11.5662 12.8924 12.4585L12.9719 13.1474C12.6641 13.0515 12.3375 13 12 13C11.6625 13 11.3359 13.0515 11.0281 13.1474L11.1076 12.4585Z" fill="black"/>
</svg>
