<svg width="24" height="24" viewBox="0 0 24 24" fill="none" xmlns="http://www.w3.org/2000/svg">
<path fill-rule="evenodd" clip-rule="evenodd" d="M17.8248 2.59073C17.0431 1.80968 15.7757 1.80968 14.994 2.59073L11.2814 6.30017L11.1955 6.21437C10.8046 5.82385 10.1709 5.82385 9.78007 6.21437L7.48521 8.50727L5.98392 14.0073L3.9822 16.0073L5.28441 17.3084L2 20.5899L3.41543 22.0042L6.69984 18.7226L7.98564 20.0073L9.98736 18.0073L15.4726 16.4877L17.78 14.2144C18.1741 13.8244 18.1757 13.1886 17.7835 12.7967L17.7011 12.7144L21.4137 9.00494C22.1954 8.2239 22.1954 6.95757 21.4137 6.17652L17.8248 2.59073ZM13.7914 8.80807L12.6968 7.71438L16.4094 4.00494L19.9983 7.59073L16.2857 11.3002L15.2069 10.2223L17.7211 7.71021L16.3057 6.29599L13.7914 8.80807Z" fill="black"/>
</svg>
