<svg width="24" height="24" viewBox="0 0 24 24" fill="none" xmlns="http://www.w3.org/2000/svg">
<path fill-rule="evenodd" clip-rule="evenodd" d="M17.8444 2.58347C17.0627 1.80242 15.7952 1.80242 15.0135 2.58347L11.3009 6.2929L11.215 6.20711C10.8242 5.81659 10.1905 5.81659 9.79961 6.20711L7.50474 8.5L6.00345 14L4.00173 16L5.30394 17.3011L2.01953 20.5827L3.43496 21.9969L6.71937 18.7153L8.00517 20L10.0069 18L15.4921 16.4804L17.7995 14.2071C18.1937 13.8171 18.1952 13.1813 17.803 12.7894L17.7206 12.7071L21.4332 8.99768C22.215 8.21663 22.215 6.9503 21.4332 6.16925L17.8444 2.58347ZM13.811 8.80081L12.7163 7.70712L16.4289 3.99768L20.0178 7.58347L16.3052 11.2929L15.2264 10.215L17.7406 7.70294L16.3252 6.28873L13.811 8.80081ZM8.00517 17.1716L8.96415 16.2134L14.4544 14.6924L15.6764 13.4931L10.5073 8.32843L9.29606 9.53865L7.79477 15.0387L6.83259 16L8.00517 17.1716Z" fill="black"/>
</svg>
