<svg width="24" height="24" viewBox="0 0 24 24" fill="none" xmlns="http://www.w3.org/2000/svg">
<path fill-rule="evenodd" clip-rule="evenodd" d="M16 6.00003L12 2L8 6L11 6.00003V14.5978C10.5683 14.375 10.1302 14.2227 9.77007 14.0976L9.70385 14.0745C9.05755 13.8494 8.64977 13.6948 8.3716 13.4651C8.20288 13.3258 8.0509 13.1345 8.01048 12.7264C8.6025 12.3791 9 11.736 9 11C9 9.89546 8.10457 9.00003 7 9.00003C5.89543 9.00003 5 9.89546 5 11C5 11.7429 5.40499 12.3911 6.00622 12.736C6.05994 13.7386 6.4588 14.4793 7.0981 15.0072C7.68176 15.4892 8.42427 15.7472 8.97884 15.9399L9.04596 15.9632C9.73161 16.2021 10.1915 16.376 10.5148 16.6573C10.6651 16.7881 10.8099 16.9643 10.9016 17.2536C10.0715 17.6603 9.5 18.5134 9.5 19.5C9.5 20.8807 10.6193 22 12 22C13.3807 22 14.5 20.8807 14.5 19.5C14.5 18.4749 13.883 17.5938 13 17.2081V17C13 16.2369 13.2201 16.012 13.3726 15.9002C13.6291 15.7121 14.0152 15.6168 14.6961 15.4806L14.7735 15.4652C15.3415 15.3524 16.1593 15.19 16.8101 14.7127C17.5951 14.137 18 13.2369 18 12H19V8.00003H15V12H16C16 12.7631 15.7799 12.9881 15.6274 13.0999C15.3709 13.288 14.9848 13.3833 14.3039 13.5194L14.2265 13.5349C13.8793 13.6038 13.4387 13.6913 13 13.858V6.00003H16Z" fill="black"/>
</svg>
