<svg width="24" height="24" viewBox="0 0 24 24" fill="none" xmlns="http://www.w3.org/2000/svg">
<path fill-rule="evenodd" clip-rule="evenodd" d="M18.0276 12.399L21.4337 8.99585C22.2154 8.2148 22.2155 6.94847 21.4337 6.16742L17.8449 2.58164C17.0631 1.80059 15.7957 1.80059 15.014 2.58164L11.6171 5.97562C10.91 5.77844 10.1175 5.97816 9.58997 6.56542L2.02002 14.9917L9.02002 21.9917L17.4354 14.4062C18.0159 13.8829 18.2163 13.1006 18.0276 12.399ZM13.2133 7.20917L16.4294 3.99585L20.0183 7.58164L16.8007 10.7965L15.7223 9.71816L17.7411 7.70111L16.3257 6.2869L14.3075 8.30334L13.2133 7.20917ZM11.0778 7.90201L16.0964 12.9206L9.09147 19.2347L4.77477 14.918L11.0778 7.90201Z" fill="black"/>
</svg>
