<svg width="24" height="24" viewBox="0 0 24 24" fill="none" xmlns="http://www.w3.org/2000/svg">
<path fill-rule="evenodd" clip-rule="evenodd" d="M7.99986 3C4.62639 3 2 5.89733 2 9.33333C2 10.7424 2.43699 12.0514 3.18241 13.1097C5.49136 16.3879 10.5 20 11.9998 21C13.5 20 18.5086 16.3879 20.8176 13.1097C21.563 12.0514 22 10.7424 22 9.33333C22 5.89733 19.3736 3 16.0001 3C14.6221 3 13.2508 3.39664 11.9998 3.95791C10.7489 3.39669 9.37775 3 7.99986 3ZM12 14C12 14 9.30404 11.4049 8.99996 11.0002C8.79066 10.7216 8.66663 10.3753 8.66663 10C8.66663 9.07957 9.41282 8.33337 10.3333 8.33337C10.7086 8.33337 11.0549 8.4574 11.3335 8.66671C11.5622 8.83858 12.003 9.23416 12.003 9.23416C12.003 9.23416 12.4377 8.83858 12.6665 8.66671C12.945 8.4574 13.2914 8.33337 13.6666 8.33337C14.5871 8.33337 15.3333 9.07957 15.3333 10C15.3333 10.3753 15.2093 10.7216 15 11.0002C14.6959 11.4049 12 14 12 14Z" fill="black"/>
</svg>
