<svg width="24" height="24" viewBox="0 0 24 24" fill="none" xmlns="http://www.w3.org/2000/svg">
<path fill-rule="evenodd" clip-rule="evenodd" d="M2 9.33333C2 5.89733 4.62639 3 7.99986 3C9.37775 3 10.7489 3.39669 11.9998 3.95791C13.2508 3.39664 14.6221 3 16.0001 3C19.3736 3 22 5.89733 22 9.33333C22 10.7424 21.563 12.0514 20.8176 13.1097C18.5086 16.3879 13.5 20 11.9998 21C10.5 20 5.49136 16.3879 3.18241 13.1097C2.43699 12.0514 2 10.7424 2 9.33333ZM8.99996 11.0002C9.30404 11.4049 12 14 12 14C12 14 14.6959 11.4049 15 11.0002C15.2093 10.7216 15.3333 10.3753 15.3333 10C15.3333 9.07957 14.5871 8.33337 13.6666 8.33337C13.2914 8.33337 12.945 8.4574 12.6665 8.66671C12.4377 8.83858 12.003 9.23416 12.003 9.23416C12.003 9.23416 11.5622 8.83858 11.3335 8.66671C11.0549 8.4574 10.7086 8.33337 10.3333 8.33337C9.41282 8.33337 8.66663 9.07957 8.66663 10C8.66663 10.3753 8.79066 10.7216 8.99996 11.0002ZM11.7055 17.0387L11.0006 17.8215C10.7464 17.6288 10.4807 17.4237 10.2072 17.2082L10.9624 16.3695L11.7055 17.0387ZM10.2192 15.7004L9.42662 16.5807C9.34261 16.5117 9.25825 16.4421 9.17364 16.3717C9.00186 16.2288 8.83038 16.084 8.65985 15.9378L9.47606 15.0313L10.2192 15.7004ZM8.73292 14.3622L7.90858 15.2777C7.659 15.0527 7.4138 14.8256 7.17524 14.5976L7.98977 13.693L8.73292 14.3622ZM7.24663 13.0239L6.46353 13.8936C6.22415 13.6478 5.99514 13.4024 5.77929 13.159L6.50348 12.3548L7.24663 13.0239ZM5.72214 11.6297L4.98834 12.1936C4.92946 12.1146 4.87249 12.036 4.81753 11.958C4.65269 11.724 4.50904 11.4708 4.39009 11.2019L5.2648 10.8392C5.38234 11.1227 5.53658 11.3882 5.72214 11.6297ZM5.02969 9.95966L4.06007 10.0861C4.02063 9.84206 4 9.59056 4 9.33333C4 9.18962 4.00633 9.04791 4.01868 8.90846L5.02969 9.04034C5.01018 9.1899 5 9.34326 5 9.5C5 9.65674 5.01018 9.8101 5.02969 9.95966ZM5.2648 8.16077L4.27352 7.74971C4.41327 7.36342 4.60253 7.00634 4.83186 6.68619L5.72214 7.37034C5.53658 7.61181 5.38234 7.87732 5.2648 8.16077ZM6.37034 6.72214L5.67124 5.8124C5.99364 5.56264 6.3503 5.36392 6.72981 5.22553L7.16077 6.2648C6.87732 6.38234 6.61181 6.53658 6.37034 6.72214ZM8.04034 6.02969L7.90618 5.00119C7.93735 5.0004 7.96857 5 7.99986 5C8.3514 5 8.71265 5.03584 9.08049 5.10339L8.95966 6.02969C8.8101 6.01018 8.65674 6 8.5 6C8.34326 6 8.1899 6.01018 8.04034 6.02969ZM9.83923 6.26479L10.1993 5.39655C10.5246 5.5057 10.8526 5.63528 11.181 5.78266L11.3079 5.83957L10.6297 6.72214C10.3882 6.53658 10.1227 6.38234 9.83923 6.26479ZM12.9993 17.8215C13.2535 17.6287 13.5193 17.4236 13.7927 17.2082L13.0376 16.3695L12.2945 17.0387L12.9993 17.8215ZM14.8263 16.3716C14.9981 16.2287 15.1696 16.084 15.3401 15.9378L14.5239 15.0313L13.7808 15.7004L14.5733 16.5806C14.6574 16.5117 14.7417 16.442 14.8263 16.3716ZM16.0914 15.2777C16.341 15.0527 16.5862 14.8256 16.8248 14.5976L16.0102 13.693L15.2671 14.3622L16.0914 15.2777ZM17.5365 13.8936C17.7758 13.6478 18.0049 13.4024 18.2207 13.159L17.4965 12.3548L16.7534 13.0239L17.5365 13.8936ZM19.1825 11.958C19.3473 11.724 19.491 11.4708 19.6099 11.2019L18.7352 10.8392C18.6177 11.1227 18.4634 11.3882 18.2779 11.6297L19.0117 12.1936C19.0705 12.1146 19.1275 12.036 19.1825 11.958ZM20 9.33333C20 9.18962 19.9937 9.04791 19.9813 8.90846L18.9703 9.04034C18.9898 9.1899 19 9.34326 19 9.5C19 9.65674 18.9898 9.8101 18.9703 9.95966L19.9399 10.0861C19.9794 9.84206 20 9.59056 20 9.33333ZM19.7265 7.74971C19.5867 7.36342 19.3975 7.00634 19.1681 6.68619L18.2779 7.37034C18.4634 7.61181 18.6177 7.87732 18.7352 8.16077L19.7265 7.74971ZM18.3288 5.8124C18.0064 5.56264 17.6497 5.36392 17.2702 5.22553L16.8392 6.2648C17.1227 6.38234 17.3882 6.53658 17.6297 6.72214L18.3288 5.8124ZM16.0001 5C15.6486 5 15.2873 5.03583 14.9195 5.10335L15.0403 6.02969C15.1899 6.01018 15.3433 6 15.5 6C15.6567 6 15.8101 6.01018 15.9597 6.02969L16.0938 5.00119C16.0627 5.0004 16.0314 5 16.0001 5ZM12.8185 5.78267L12.692 5.83941L13.3703 6.72214C13.6118 6.53658 13.8773 6.38234 14.1608 6.26479L13.8007 5.39644C13.4752 5.5056 13.1471 5.63523 12.8185 5.78267Z" fill="black"/>
</svg>
