<svg width="24" height="24" viewBox="0 0 24 24" fill="none" xmlns="http://www.w3.org/2000/svg">
<path fill-rule="evenodd" clip-rule="evenodd" d="M4.01871 8.90847L5.02969 9.04034C5.01018 9.1899 5 9.34326 5 9.5C5 9.65674 5.01018 9.8101 5.02969 9.95966L4.06007 10.0861C4.12367 10.4798 4.23621 10.8541 4.39009 11.202L5.2648 10.8392C5.38234 11.1227 5.53658 11.3882 5.72214 11.6297L5.00152 12.1834C5.18691 12.3935 5.47778 12.6949 5.85904 13.0705L6.50348 12.3548L7.24663 13.0239L6.57941 13.7649C6.81301 13.9849 7.05973 14.2119 7.31471 14.4428L7.98977 13.693L8.73292 14.3622L8.06061 15.1088C8.30976 15.3287 8.56209 15.549 8.81359 15.767L9.47606 15.0313L10.2192 15.7004L9.57135 16.4199C9.83195 16.6433 10.0871 16.8609 10.332 17.0696L10.9624 16.3695L11.7055 17.0387L11.0934 17.7184C11.4421 18.0161 11.7509 18.2811 12 18.5C12.2491 18.2811 12.5579 18.016 12.9066 17.7184L12.2945 17.0387L13.0376 16.3695L13.668 17.0696C13.9129 16.8609 14.1681 16.6433 14.4287 16.4199L13.7808 15.7004L14.5239 15.0313L15.1864 15.767C15.4379 15.549 15.6903 15.3287 15.9394 15.1088L15.2671 14.3622L16.0102 13.693L16.6853 14.4428C16.9403 14.2119 17.187 13.9849 17.4206 13.7649L16.7534 13.0239L17.4965 12.3548L18.141 13.0705C18.5222 12.6949 18.8131 12.3935 18.9985 12.1834L18.2779 11.6297C18.4634 11.3882 18.6177 11.1227 18.7352 10.8392L19.6099 11.202C19.7638 10.8541 19.8763 10.4798 19.9399 10.0861L18.9703 9.95966C18.9898 9.8101 19 9.65674 19 9.5C19 9.34326 18.9898 9.1899 18.9703 9.04034L19.9813 8.90847C19.9452 8.50098 19.8576 8.11258 19.7263 7.74979L18.7352 8.16077C18.6177 7.87732 18.4634 7.61181 18.2779 7.37034L19.168 6.68628C18.9285 6.3518 18.6452 6.05749 18.3288 5.81229L17.6297 6.72214C17.3882 6.53658 17.1227 6.38234 16.8392 6.2648L17.2703 5.22536C16.8969 5.08926 16.5012 5.01155 16.0938 5.00119L15.9597 6.02969C15.8101 6.01018 15.6567 6 15.5 6C15.3433 6 15.1899 6.01018 15.0403 6.02969L14.9192 5.10136C14.5406 5.17059 14.1673 5.27241 13.8012 5.39779L14.1608 6.26479C13.8773 6.38234 13.6118 6.53658 13.3703 6.72214L12.6989 5.84843C12.4616 5.95996 12.2283 6.07809 11.9998 6.20001C11.7712 6.0782 11.5381 5.96016 11.3009 5.84869L10.6297 6.72214C10.3882 6.53658 10.1227 6.38234 9.83923 6.26479L10.1987 5.398C9.83261 5.27257 9.45941 5.1707 9.08074 5.10142L8.95966 6.02969C8.8101 6.01018 8.65674 6 8.5 6C8.34326 6 8.1899 6.01018 8.04034 6.02969L7.90618 5.00119C7.49883 5.01155 7.10312 5.08926 6.72974 5.22536L7.16077 6.2648C6.87732 6.38234 6.61181 6.53658 6.37034 6.72214L5.67116 5.81229C5.35475 6.05749 5.07147 6.3518 4.83196 6.68628L5.72214 7.37034C5.53658 7.61181 5.38234 7.87732 5.2648 8.16077L4.2737 7.74979C4.14242 8.11258 4.05484 8.50098 4.01871 8.90847ZM16.0001 3C14.6221 3 13.2508 3.39664 11.9998 3.95791C10.7489 3.39669 9.37775 3 7.99986 3C4.62639 3 2 5.89733 2 9.33333C2 10.7424 2.43699 12.0514 3.18241 13.1097C3.47787 13.5292 4.17225 14.2293 4.94249 14.9684C7.21692 17.1507 10.0024 19.3818 12.003 21C14.0025 19.3818 16.7832 17.1506 19.0576 14.9684C19.8278 14.2293 20.5221 13.5292 20.8176 13.1097C21.563 12.0514 22 10.7424 22 9.33333C22 5.89733 19.3736 3 16.0001 3ZM8.99996 11.0002C9.30404 11.4049 12 14 12 14C12 14 14.6959 11.4049 15 11.0002C15.2093 10.7216 15.3333 10.3753 15.3333 10C15.3333 9.07957 14.5871 8.33337 13.6666 8.33337C12.9915 8.33337 12.5171 8.76565 12.0479 9.19329C12.0329 9.20692 12.0179 9.22055 12.003 9.23416C11.9827 9.21595 11.9624 9.1977 11.9421 9.17944C11.4746 8.75868 11.002 8.33337 10.3333 8.33337C9.41282 8.33337 8.66663 9.07957 8.66663 10C8.66663 10.3753 8.79066 10.7216 8.99996 11.0002Z" fill="black"/>
</svg>
