<svg width="24" height="24" viewBox="0 0 24 24" fill="none" xmlns="http://www.w3.org/2000/svg">
<path fill-rule="evenodd" clip-rule="evenodd" d="M4 9.33333C4 6.8783 5.85064 5 7.99986 5C9.41184 5 10.7724 5.54582 11.9998 6.20001C13.2269 5.54549 14.5882 5 16.0001 5C18.1494 5 20 6.8783 20 9.33333C20 10.326 19.6928 11.2334 19.1825 11.958C19.0218 12.1861 18.4881 12.743 17.6729 13.5253C15.9139 15.213 13.2296 17.4196 12 18.5C10.7704 17.4196 8.08614 15.213 6.32717 13.5252C5.51187 12.743 4.97818 12.1861 4.81753 11.958C4.30717 11.2334 4 10.326 4 9.33333ZM11.9998 3.95791C13.2508 3.39664 14.6221 3 16.0001 3C19.3736 3 22 5.89733 22 9.33333C22 10.7424 21.563 12.0514 20.8176 13.1097C20.5221 13.5292 19.8278 14.2293 19.0576 14.9684C16.7832 17.1506 14.0025 19.3818 12.003 21C10.0025 19.3818 7.21692 17.1507 4.94249 14.9684C4.17225 14.2293 3.47787 13.5292 3.18241 13.1097C2.43699 12.0514 2 10.7424 2 9.33333C2 5.89733 4.62639 3 7.99986 3C9.37775 3 10.7489 3.39669 11.9998 3.95791ZM12 14C12 14 9.30404 11.4049 8.99996 11.0002C8.79066 10.7216 8.66663 10.3753 8.66663 10C8.66663 9.07957 9.41282 8.33337 10.3333 8.33337C11.031 8.33337 11.5152 8.7964 12.003 9.23416C12.4871 8.79366 12.9699 8.33337 13.6666 8.33337C14.5871 8.33337 15.3333 9.07957 15.3333 10C15.3333 10.3753 15.2093 10.7216 15 11.0002C14.6959 11.4049 12 14 12 14Z" fill="black"/>
</svg>
