<svg width="24" height="24" viewBox="0 0 24 24" fill="none" xmlns="http://www.w3.org/2000/svg">
<path fill-rule="evenodd" clip-rule="evenodd" d="M22 7L16.996 2L13.7688 5.22713C12.4528 4.8839 11.0556 4.92957 9.76009 5.36493C8.76843 5.69818 7.83641 6.25978 7.04611 7.05008C6.28325 7.81294 5.7319 8.71045 5.39447 9.66724L5.38203 9.7025L2 21.5L10.0708 12.5442C10.022 12.3712 9.9959 12.1886 9.9959 12C9.9959 10.8954 10.8913 10 11.9959 10C13.1005 10 14 10.8954 14 12C14 13.1046 13.1005 14 11.9959 14C11.8074 14 11.6249 13.9739 11.452 13.9251L2.5 22L14.2932 18.6137L14.3285 18.6012C15.2852 18.2638 16.1828 17.7126 16.9457 16.9498C18.7674 15.1281 19.3751 12.5521 18.7689 10.2271L22 7Z" fill="black"/>
</svg>
