<svg width="24" height="24" viewBox="0 0 24 24" fill="none" xmlns="http://www.w3.org/2000/svg">
<path fill-rule="evenodd" clip-rule="evenodd" d="M17 1.99997L13.8405 5.24527C11.4996 4.60968 8.89067 5.20983 7.05025 7.05025C6.28739 7.81312 5.73603 8.71061 5.3986 9.6674L5.38616 9.70267L1.99997 22L14.2973 18.6138L14.3326 18.6014C15.2894 18.264 16.1869 17.7126 16.9497 16.9497C18.7902 15.1093 19.3903 12.5004 18.7547 10.1595L22 6.99997L17 1.99997ZM17 4.8284L19.1715 6.99997L16.4531 9.63264L16.6801 10.236C17.3506 12.0187 16.9671 14.104 15.5355 15.5355C14.9974 16.0736 14.3695 16.4621 13.701 16.7033L6.85935 18.5549L11.482 13.9323C11.6472 13.9764 11.8208 14 12 14C13.1046 14 14 13.1046 14 12C14 10.8954 13.1046 10 12 10C10.8954 10 10 10.8954 10 12C10 12.1792 10.0236 12.3528 10.0677 12.518L5.44513 17.1407L7.29673 10.299C7.53788 9.63052 7.92636 9.00257 8.46447 8.46447C9.89604 7.03289 11.9813 6.64944 13.764 7.31994L14.3674 7.54686L17 4.8284Z" fill="black"/>
</svg>
