<svg width="24" height="24" viewBox="0 0 24 24" fill="none" xmlns="http://www.w3.org/2000/svg">
<path fill-rule="evenodd" clip-rule="evenodd" d="M12 20C16.4183 20 20 16.4183 20 12C20 7.58172 16.4183 4 12 4C7.58172 4 4 7.58172 4 12C4 16.4183 7.58172 20 12 20ZM12 22C17.5228 22 22 17.5228 22 12C22 6.47715 17.5228 2 12 2C6.47715 2 2 6.47715 2 12C2 17.5228 6.47715 22 12 22ZM5.62713 14.9001C5.22438 14.0165 5 13.0344 5 12C5 8.13401 8.13401 5 12 5C13.0344 5 14.0165 5.22438 14.9001 5.62713L14.3961 6.49757C13.6622 6.17751 12.8518 6 12 6C8.68629 6 6 8.68629 6 12C6 12.8518 6.17751 13.6622 6.49757 14.3961L5.62713 14.9001ZM7.36998 13.8911C7.13147 13.3077 7 12.6692 7 12C7 9.23858 9.23858 7 12 7C12.6692 7 13.3077 7.13147 13.8911 7.36998L13.384 8.24589C12.9527 8.08685 12.4865 8 12 8C9.79086 8 8 9.79086 8 12C8 12.4865 8.08685 12.9527 8.24589 13.384L7.36998 13.8911ZM10.616 15.7541L10.1089 16.63C10.6923 16.8685 11.3308 17 12 17C14.7614 17 17 14.7614 17 12C17 11.3308 16.8685 10.6923 16.63 10.1089L15.7541 10.616C15.9132 11.0473 16 11.5135 16 12C16 14.2091 14.2091 16 12 16C11.5135 16 11.0473 15.9132 10.616 15.7541ZM17.5024 9.60386C17.8225 10.3378 18 11.1482 18 12C18 15.3137 15.3137 18 12 18C11.1482 18 10.3378 17.8225 9.60386 17.5024L9.09992 18.3729C9.98353 18.7756 10.9656 19 12 19C15.866 19 19 15.866 19 12C19 10.9656 18.7756 9.98353 18.3729 9.09992L17.5024 9.60386ZM11 12C11 11.4477 11.4477 11 12 11C12.5523 11 13 11.4477 13 12C13 12.5523 12.5523 13 12 13C11.4477 13 11 12.5523 11 12ZM12 9C10.3431 9 9 10.3431 9 12C9 13.6569 10.3431 15 12 15C13.6569 15 15 13.6569 15 12C15 10.3431 13.6569 9 12 9Z" fill="black"/>
</svg>
