<svg width="24" height="24" viewBox="0 0 24 24" fill="none" xmlns="http://www.w3.org/2000/svg">
<path fill-rule="evenodd" clip-rule="evenodd" d="M13 3C13 2.44772 12.5523 2 12 2C11.4477 2 11 2.44772 11 3V4.06189C10.2629 4.1538 9.55701 4.34598 8.8963 4.62435L8.36608 3.70597C8.08994 3.22768 7.47835 3.06381 7.00006 3.33995C6.52176 3.61609 6.35789 4.22768 6.63403 4.70597L7.16509 5.62579C6.58482 6.06661 6.06658 6.58486 5.62576 7.16513L4.70577 6.63397C4.22748 6.35783 3.61589 6.52171 3.33975 7C3.0636 7.47829 3.22748 8.08988 3.70577 8.36603L4.62433 8.89635C4.34597 9.55704 4.1538 10.263 4.06189 11H3C2.44772 11 2 11.4477 2 12C2 12.5523 2.44772 13 3 13H4.06189C4.1538 13.737 4.34597 14.443 4.62433 15.1036L3.70577 15.634C3.22748 15.9101 3.0636 16.5217 3.33975 17C3.61589 17.4783 4.22748 17.6422 4.70577 17.366L5.62576 16.8349C6.06659 17.4152 6.58484 17.9334 7.16513 18.3742L6.63397 19.2942C6.35783 19.7725 6.52171 20.3841 7 20.6603C7.47829 20.9364 8.08988 20.7725 8.36603 20.2942L8.89635 19.3757C9.55705 19.654 10.263 19.8462 11 19.9381V21C11 21.5523 11.4477 22 12 22C12.5523 22 13 21.5523 13 21V19.9381C13.737 19.8462 14.4429 19.654 15.1036 19.3757L15.634 20.2944C15.9102 20.7727 16.5218 20.9366 17.0001 20.6605C17.4783 20.3843 17.6422 19.7727 17.3661 19.2944L16.8348 18.3743C17.4151 17.9334 17.9334 17.4152 18.3742 16.8349L19.2942 17.366C19.7725 17.6422 20.3841 17.4783 20.6603 17C20.9364 16.5217 20.7725 15.9101 20.2942 15.634L19.3757 15.1036C19.654 14.443 19.8462 13.737 19.9381 13H21C21.5523 13 22 12.5523 22 12C22 11.4477 21.5523 11 21 11H19.9381C19.8462 10.263 19.654 9.55704 19.3757 8.89635L20.2942 8.36603C20.7725 8.08988 20.9364 7.47829 20.6603 7C20.3841 6.52171 19.7725 6.35783 19.2942 6.63398L18.3742 7.16513C17.9334 6.58484 17.4152 6.06659 16.8349 5.62576L17.366 4.70577C17.6422 4.22748 17.4783 3.61589 17 3.33975C16.5217 3.0636 15.9101 3.22748 15.634 3.70577L15.1036 4.62433C14.443 4.34597 13.737 4.1538 13 4.06189V3ZM12 9.5C12 10.3284 11.3284 11 10.5 11C9.67157 11 9 10.3284 9 9.5C9 8.67157 9.67157 8 10.5 8C11.3284 8 12 8.67157 12 9.5ZM10 15C10.5523 15 11 14.5523 11 14C11 13.4477 10.5523 13 10 13C9.44772 13 9 13.4477 9 14C9 14.5523 9.44772 15 10 15ZM16 13C16 14.1046 15.1046 15 14 15C12.8954 15 12 14.1046 12 13C12 11.8954 12.8954 11 14 11C15.1046 11 16 11.8954 16 13Z" fill="black"/>
</svg>
