<svg width="24" height="24" viewBox="0 0 24 24" fill="none" xmlns="http://www.w3.org/2000/svg">
<path fill-rule="evenodd" clip-rule="evenodd" d="M10 4C10 2.89543 10.8954 2 12 2C13.1046 2 14 2.89543 14 4C14 4.74034 13.5977 5.38665 12.9999 5.73244V8.126C13.7149 8.31 14.3525 8.68671 14.8541 9.19745L17.0004 7.95826C17.0226 6.87296 17.9094 6 19 6C20.1046 6 21 6.89543 21 8C21 9.10457 20.1046 10 19 10C18.6208 10 18.2663 9.89449 17.9642 9.71122L15.855 10.929C15.9495 11.2699 16 11.629 16 12C16 12.371 15.9495 12.7301 15.855 13.071L17.9642 14.2888C18.2663 14.1055 18.6208 14 19 14C20.1046 14 21 14.8954 21 16C21 17.1046 20.1046 18 19 18C17.9094 18 17.0226 17.127 17.0004 16.0417L14.8541 14.8025C14.3525 15.3133 13.7149 15.69 12.9999 15.874V18.2676C13.5977 18.6133 14 19.2597 14 20C14 21.1046 13.1046 22 12 22C10.8954 22 10 21.1046 10 20C10 19.2598 10.4021 18.6134 10.9999 18.2676V15.874C10.285 15.6899 9.64742 15.3132 9.14587 14.8025L6.99957 16.0417C6.9774 17.127 6.09065 18 5 18C3.89543 18 3 17.1046 3 16C3 14.8954 3.89543 14 5 14C5.37913 14 5.73363 14.1055 6.03573 14.2887L8.14498 13.071C8.05049 12.7301 8 12.3709 8 12C8 11.6291 8.05049 11.2699 8.14498 10.929L6.03573 9.71127C5.73363 9.89451 5.37913 10 5 10C3.89543 10 3 9.10457 3 8C3 6.89543 3.89543 6 5 6C6.09065 6 6.9774 6.87301 6.99957 7.95835L9.14587 9.19751C9.64742 8.68677 10.285 8.31006 10.9999 8.12604V5.73243C10.4021 5.3866 10 4.74022 10 4ZM13 11.5C13 12.3284 12.3284 13 11.5 13C10.6716 13 10 12.3284 10 11.5C10 10.6716 10.6716 10 11.5 10C12.3284 10 13 10.6716 13 11.5Z" fill="black"/>
</svg>
