<svg width="24" height="24" viewBox="0 0 24 24" fill="none" xmlns="http://www.w3.org/2000/svg">
<path fill-rule="evenodd" clip-rule="evenodd" d="M8.5769 9.42909C9.37538 7.74826 10.7294 6.58896 12 6.17153V17.8285C10.7294 17.411 9.37538 16.2517 8.5769 14.5709L8.30569 14H6.00002L6.00005 10H8.30569L8.5769 9.42909ZM4 16H7.06741C8.37588 18.308 10.6846 20 13 20H14V4H13C10.6846 4 8.37588 5.69201 7.06741 8H4.00006L4 16ZM16.2874 8.7182C17.3248 9.44291 18 10.6427 18 12.0001C18 13.3575 17.3248 14.5573 16.2874 15.282L17.4328 16.9216C18.9827 15.8388 20 14.0383 20 12.0001C20 9.96194 18.9827 8.16148 17.4328 7.07867L16.2874 8.7182Z" fill="black"/>
</svg>
