<svg width="24" height="24" viewBox="0 0 24 24" fill="none" xmlns="http://www.w3.org/2000/svg">
<path fill-rule="evenodd" clip-rule="evenodd" d="M10 4C8 7 5.90564 8 2 8V16C5.90564 16 8 17 10 20H12V4H10ZM7.60233 15.0828C6.49673 14.5352 5.30213 14.2351 4 14.0968V9.90315C5.30213 9.76487 6.49673 9.46483 7.60234 8.91719C8.50658 8.4693 9.29172 7.88567 10 7.1773V16.8227C9.29172 16.1143 8.50658 15.5307 7.60233 15.0828ZM20.5738 8L17.9934 10.5827L15.4132 8.00327L14.0024 9.41888L16.583 11.9986L14 14.5917L15.4157 16.0024L17.9963 13.4117L20.5886 16.0046L22 14.5896L19.4067 11.9958L21.986 9.41421L20.5738 8Z" fill="black"/>
</svg>
