<svg width="24" height="24" viewBox="0 0 24 24" fill="none" xmlns="http://www.w3.org/2000/svg">
<path fill-rule="evenodd" clip-rule="evenodd" d="M2.00006 8L2 16H4.93121C6.23967 18.308 8.68457 20 11 20H12V4H11C8.68457 4 6.23967 5.69201 4.93121 8H2.00006ZM18 20.0014C20.4271 18.1785 22.0001 15.2734 22.0001 12.0007C22.0001 8.72804 20.4271 5.82382 18 4.00096L16.8005 5.60034C18.7452 7.06144 20.0001 9.38456 20.0001 12.0007C20.0001 14.6169 18.7451 16.9402 16.8002 18.4012L18 20.0014ZM15.6002 16.8012C17.0556 15.7081 18 13.9649 18 12.0011C18 10.0372 17.0555 8.29396 15.6001 7.20083L14.4001 8.80083C15.3734 9.53212 16 10.6935 16 12.0011C16 13.3086 15.3735 14.47 14.4002 15.2013L15.6002 16.8012Z" fill="black"/>
</svg>
