<svg width="24" height="24" viewBox="0 0 24 24" fill="none" xmlns="http://www.w3.org/2000/svg">
<path fill-rule="evenodd" clip-rule="evenodd" d="M12 4H10C8 7 5.90564 8 2 8V16C5.90564 16 8 17 10 20H12V4ZM22.0001 12.0007C22.0001 15.2734 20.4271 18.1785 18 20.0014V20.001L16.8002 18.4012C18.7451 16.9402 20.0001 14.6169 20.0001 12.0007C20.0001 9.38456 18.7452 7.06144 16.8005 5.60034L18 4.00096V4C20.4271 5.82286 22.0001 8.72804 22.0001 12.0007ZM18 12.0011C18 13.9649 17.0556 15.7081 15.6002 16.8012L14.4002 15.2013C15.3735 14.47 16 13.3086 16 12.0011C16 10.6935 15.3734 9.53212 14.4001 8.80082L15.6001 7.20083C17.0555 8.29396 18 10.0372 18 12.0011Z" fill="black"/>
</svg>
