<svg width="24" height="24" viewBox="0 0 24 24" fill="none" xmlns="http://www.w3.org/2000/svg">
<path fill-rule="evenodd" clip-rule="evenodd" d="M22.0001 11.9997C22.0001 15.2724 20.4271 18.1775 18 20.0004V20L16.8002 18.4003C18.7451 16.9392 20.0001 14.616 20.0001 11.9997C20.0001 9.38358 18.7452 7.06046 16.8005 5.59936L18 3.99998V3.99902C20.4271 5.82188 22.0001 8.72707 22.0001 11.9997ZM18 12.0001C18 13.964 17.0556 15.7071 15.6002 16.8003L14.4002 15.2003C15.3735 14.469 16 13.3076 16 12.0001C16 10.6925 15.3734 9.53114 14.4001 8.79985L15.6001 7.19985C17.0555 8.29298 18 10.0362 18 12.0001ZM10 3.99997C8 6.99997 5.90564 7.99997 2 7.99997V16C5.90564 16 8 17 10 20H12V3.99997H10ZM7.60233 15.0828C6.49673 14.5351 5.30213 14.2351 4 14.0968V9.90312C5.30213 9.76484 6.49673 9.4648 7.60234 8.91716C8.50658 8.46927 9.29172 7.88564 10 7.17727V16.8227C9.29172 16.1143 8.50658 15.5307 7.60233 15.0828Z" fill="black"/>
</svg>
