<svg width="24" height="24" viewBox="0 0 24 24" fill="none" xmlns="http://www.w3.org/2000/svg">
<path fill-rule="evenodd" clip-rule="evenodd" d="M12 4C10 7 7.90564 8 4 8V16C7.90564 16 10 17 12 20H14V4H12ZM9.60234 15.0828C8.49673 14.5352 7.30213 14.2351 6 14.0968V9.90315C7.30213 9.76487 8.49673 9.46483 9.60234 8.91719C10.5066 8.4693 11.2917 7.88567 12 7.1773V16.8227C11.2917 16.1143 10.5066 15.5307 9.60234 15.0828ZM16.2874 8.7182C17.3248 9.44291 18 10.6427 18 12.0001C18 13.3575 17.3248 14.5573 16.2874 15.282L17.4328 16.9216C18.9827 15.8388 20 14.0383 20 12.0001C20 9.96194 18.9827 8.16148 17.4328 7.07867L16.2874 8.7182Z" fill="black"/>
</svg>
