<svg width="24" height="24" viewBox="0 0 24 24" fill="none" xmlns="http://www.w3.org/2000/svg">
<path fill-rule="evenodd" clip-rule="evenodd" d="M12 3V21L5.64922 15.9645H2V8.03551H5.64922L12 3ZM10 7.1243L6.35078 10.0178H4V13.9822H6.35078L10 16.8757V7.1243ZM20.0001 11.9997C20.0001 9.29738 18.6611 6.90766 16.606 5.45774L17.7589 3.82352C20.3224 5.63208 22.0001 8.61994 22.0001 11.9997C22.0001 15.3923 20.3097 18.3899 17.7298 20.1964L16.5827 18.5581C18.651 17.1098 20.0001 14.7123 20.0001 11.9997ZM14.2874 8.7182C15.3248 9.44291 15.9999 10.6427 15.9999 12.0001C15.9999 13.3575 15.3248 14.5573 14.2874 15.282L15.4328 16.9216C16.9827 15.8388 17.9999 14.0383 17.9999 12.0001C17.9999 9.96194 16.9827 8.16148 15.4328 7.07867L14.2874 8.7182Z" fill="black"/>
</svg>
