<svg width="24" height="24" viewBox="0 0 24 24" fill="none" xmlns="http://www.w3.org/2000/svg">
<path fill-rule="evenodd" clip-rule="evenodd" d="M6.5769 9.42909C7.37538 7.74826 8.72942 6.58896 10 6.17153V17.8285C8.72942 17.411 7.37538 16.2517 6.5769 14.5709L6.30569 14H4.00002L4.00005 10H6.30569L6.5769 9.42909ZM2 16H5.06741C6.37588 18.308 8.68457 20 11 20H12V4H11C8.68457 4 6.37588 5.69201 5.06741 8H2.00006L2 16ZM22.0001 12.0007C22.0001 15.2734 20.4271 18.1785 18 20.0014L16.8002 18.4012C18.7451 16.9402 20.0001 14.6169 20.0001 12.0007C20.0001 9.38456 18.7452 7.06144 16.8005 5.60034L18 4.00096C20.4271 5.82382 22.0001 8.72804 22.0001 12.0007ZM18 12.0011C18 13.9649 17.0556 15.7081 15.6002 16.8012L14.4002 15.2013C15.3735 14.47 16 13.3086 16 12.0011C16 10.6935 15.3734 9.53212 14.4001 8.80082L15.6001 7.20083C17.0555 8.29396 18 10.0372 18 12.0011Z" fill="black"/>
</svg>
