<svg width="24" height="24" viewBox="0 0 24 24" fill="none" xmlns="http://www.w3.org/2000/svg">
<path fill-rule="evenodd" clip-rule="evenodd" d="M6.5769 9.42909C7.37538 7.74826 8.72942 6.58896 10 6.17153V17.8285C8.72942 17.411 7.37538 16.2517 6.5769 14.5709L6.30569 14H4.00002L4.00005 10H6.30569L6.5769 9.42909ZM2 16H5.06741C6.37588 18.308 8.68457 20 11 20H12V4H11C8.68457 4 6.37588 5.69201 5.06741 8H2.00006L2 16ZM14 14.5901L16.5887 12L14 9.40988L15.4135 8L18 10.5879L20.5865 8L22 9.40988L19.4113 12L22 14.5901L20.5865 16L18 13.4121L15.4135 16L14 14.5901Z" fill="black"/>
</svg>
