<svg width="24" height="24" viewBox="0 0 24 24" fill="none" xmlns="http://www.w3.org/2000/svg">
<path fill-rule="evenodd" clip-rule="evenodd" d="M3 5C3 3.89543 3.89543 3 5 3H18C19.1046 3 20 3.89543 20 5V7H21H22V8V16V17H21H20V19C20 20.1046 19.1046 21 18 21H5C3.89543 21 3 20.1046 3 19V5ZM18 5V7H17C14.2386 7 12 9.23858 12 12C12 14.7614 14.2386 17 17 17H18V19H5V5H18ZM17 9C15.3431 9 14 10.3431 14 12C14 13.6569 15.3431 15 17 15H20V9H17ZM17 13C17.5523 13 18 12.5523 18 12C18 11.4477 17.5523 11 17 11C16.4477 11 16 11.4477 16 12C16 12.5523 16.4477 13 17 13Z" fill="black"/>
</svg>
