<svg width="24" height="24" viewBox="0 0 24 24" fill="none" xmlns="http://www.w3.org/2000/svg">
<path fill-rule="evenodd" clip-rule="evenodd" d="M16.3743 2H7.58419L7.01706 7.10417C5.76983 8.3682 5 10.1045 5 12.0205C5 13.9392 5.77195 15.6776 7.02222 16.9421L7.58421 22.0002L16.3743 22.0005L16.9311 16.9888C18.2397 15.6899 19 13.8687 19 12.0205C19 10.1751 18.2412 8.35517 16.9362 7.05724L16.3743 2ZM12 5.02051C11.0029 5.02051 10.0545 5.22899 9.19597 5.60473L9.37428 4H14.5842L14.7604 5.58581C13.9134 5.22199 12.9802 5.02051 12 5.02051ZM9.37431 20.0003L9.20078 18.4384C10.058 18.8128 11.0048 19.0205 12 19.0205C12.9784 19.0205 13.91 18.8198 14.7557 18.4572L14.5842 20.0005L9.37431 20.0003ZM12 7.02051C9.23858 7.02051 7 9.25908 7 12.0205C7 14.7819 9.23858 17.0205 12 17.0205C14.7614 17.0205 17 14.7819 17 12.0205C17 9.25908 14.7614 7.02051 12 7.02051ZM11 9.02051V11.0205H9V13.0205H13V9.02051H11Z" fill="black"/>
</svg>
