<svg width="24" height="24" viewBox="0 0 24 24" fill="none" xmlns="http://www.w3.org/2000/svg">
<path fill-rule="evenodd" clip-rule="evenodd" d="M16.5 2H7.5L7.03995 7.06058C5.77925 8.32651 5 10.0723 5 12C5 13.9277 5.77925 15.6735 7.03995 16.9394L7.5 22H16.5L16.9601 16.9394C18.2207 15.6735 19 13.9277 19 12C19 10.0723 18.2207 8.32651 16.9601 7.06058L16.5 2ZM12 7C9.23858 7 7 9.23858 7 12C7 14.7614 9.23858 17 12 17C14.7614 17 17 14.7614 17 12C17 9.23858 14.7614 7 12 7ZM11 9V11H9V13H12H13V12V9H11Z" fill="black"/>
</svg>
