<svg width="24" height="24" viewBox="0 0 24 24" fill="none" xmlns="http://www.w3.org/2000/svg">
<path fill-rule="evenodd" clip-rule="evenodd" d="M5.19496 6.23024C5.36479 6.05078 5.51953 6 5.6 6C5.81019 6 5.90527 6.05228 5.97847 6.10803C6.46604 6.47938 6.71054 7.10285 7.20971 7.48303C7.62886 7.80228 8.14907 8 8.8 8C9.45093 8 9.97114 7.80228 10.3903 7.48303C10.7522 7.20739 11.0108 6.85665 11.181 6.62585C11.3901 6.34239 11.6047 6 12 6C12.3953 6 12.6099 6.34239 12.819 6.62585C12.9892 6.85665 13.2478 7.20739 13.6097 7.48303C14.0289 7.80228 14.5491 8 15.2 8C15.8509 8 16.3711 7.80228 16.7903 7.48303C17.2708 7.11705 17.7409 6 18.4 6C18.6505 6 18.9384 6.26898 19 6.5C18.9995 6.49682 19.0005 6.50318 19 6.5H21C21 5.19294 19.669 4 18.4 4C17.3551 4 16.6119 4.5701 16.019 5.37415C15.7996 5.67157 15.6064 6 15.2 6C14.8047 6 14.5901 5.65761 14.381 5.37415C13.7881 4.5701 13.0449 4 12 4C11.3491 4 10.8289 4.19772 10.4097 4.51697C9.91054 4.89715 9.66604 5.52062 9.17847 5.89197C9.10527 5.94772 9.01019 6 8.8 6C8.58981 6 8.49473 5.94772 8.42153 5.89197C7.93327 5.52009 7.69093 4.89827 7.19029 4.51697C6.77114 4.19772 6.25093 4 5.6 4C4.79681 4 4.15156 4.42308 3.7423 4.85555C3.35633 5.26341 3 5.87234 3 6.5H5C5 6.56248 5.136 6.29254 5.19496 6.23024Z" fill="black"/>
<path fill-rule="evenodd" clip-rule="evenodd" d="M5.19496 12.2302C5.36479 12.0508 5.51953 12 5.6 12C5.81019 12 5.90527 12.0523 5.97847 12.108C6.46604 12.4794 6.71054 13.1028 7.20971 13.483C7.62886 13.8023 8.14907 14 8.8 14C9.45093 14 9.97114 13.8023 10.3903 13.483C10.7522 13.2074 11.0108 12.8566 11.181 12.6259C11.3901 12.3424 11.6047 12 12 12C12.3953 12 12.6099 12.3424 12.819 12.6259C12.9892 12.8566 13.2478 13.2074 13.6097 13.483C14.0289 13.8023 14.5491 14 15.2 14C15.8509 14 16.3711 13.8023 16.7903 13.483C17.2708 13.1171 17.7409 12 18.4 12C18.6505 12 18.9384 12.269 19 12.5C18.9995 12.4968 19.0005 12.5032 19 12.5H21C21 11.1929 19.669 10 18.4 10C17.3551 10 16.6119 10.5701 16.019 11.3741C15.7996 11.6716 15.6064 12 15.2 12C14.8047 12 14.5901 11.6576 14.381 11.3741C13.7881 10.5701 13.0449 10 12 10C11.3491 10 10.8289 10.1977 10.4097 10.517C9.91054 10.8972 9.66604 11.5206 9.17847 11.892C9.10527 11.9477 9.01019 12 8.8 12C8.58981 12 8.49473 11.9477 8.42153 11.892C7.93327 11.5201 7.69093 10.8983 7.19029 10.517C6.77114 10.1977 6.25093 10 5.6 10C4.79681 10 4.15156 10.4231 3.7423 10.8555C3.35633 11.2634 3 11.8723 3 12.5H5C5 12.5625 5.136 12.2925 5.19496 12.2302Z" fill="black"/>
<path fill-rule="evenodd" clip-rule="evenodd" d="M5.19496 18.2302C5.36479 18.0508 5.51953 18 5.6 18C5.81019 18 5.90527 18.0523 5.97847 18.108C6.46604 18.4794 6.71054 19.1028 7.20971 19.483C7.62886 19.8023 8.14907 20 8.8 20C9.45093 20 9.97114 19.8023 10.3903 19.483C10.7522 19.2074 11.0108 18.8566 11.181 18.6259C11.3901 18.3424 11.6047 18 12 18C12.3953 18 12.6099 18.3424 12.819 18.6259C12.9892 18.8566 13.2478 19.2074 13.6097 19.483C14.0289 19.8023 14.5491 20 15.2 20C15.8509 20 16.3711 19.8023 16.7903 19.483C17.2708 19.1171 17.7409 18 18.4 18C18.6505 18 18.9384 18.269 19 18.5C18.9995 18.4968 19.0005 18.5032 19 18.5H21C21 17.1929 19.669 16 18.4 16C17.3551 16 16.6119 16.5701 16.019 17.3741C15.7996 17.6716 15.6064 18 15.2 18C14.8047 18 14.5901 17.6576 14.381 17.3741C13.7881 16.5701 13.0449 16 12 16C11.3491 16 10.8289 16.1977 10.4097 16.517C9.91054 16.8972 9.66604 17.5206 9.17847 17.892C9.10527 17.9477 9.01019 18 8.8 18C8.58981 18 8.49473 17.9477 8.42153 17.892C7.93327 17.5201 7.69093 16.8983 7.19029 16.517C6.77114 16.1977 6.25093 16 5.6 16C4.79681 16 4.15156 16.4231 3.7423 16.8555C3.35633 17.2634 3 17.8723 3 18.5H5C5 18.5625 5.136 18.2925 5.19496 18.2302Z" fill="black"/>
</svg>
