<svg width="24" height="24" viewBox="0 0 24 24" fill="none" xmlns="http://www.w3.org/2000/svg">
<path fill-rule="evenodd" clip-rule="evenodd" d="M12 4C8.68629 4 6 6.68629 6 10C6 13.3126 8.68444 15.9982 11.9966 16L12 16L12.0034 16C15.3156 15.9982 18 13.3126 18 10C18 6.68629 15.3137 4 12 4ZM4 10C4 13.403 6.12471 16.3097 9.1199 17.4659L6.29289 20.2929L7 22H17L17.7071 20.2929L14.8801 17.4659C17.8753 16.3097 20 13.403 20 10C20 5.58172 16.4183 2 12 2C7.58172 2 4 5.58172 4 10ZM11.4142 18H12H12.5858L14.5858 20H9.41421L11.4142 18ZM11 10C11 9.44772 11.4477 9 12 9C12.5523 9 13 9.44772 13 10C13 10.5523 12.5523 11 12 11C11.4477 11 11 10.5523 11 10ZM12 7C10.3431 7 9 8.34315 9 10C9 11.6569 10.3431 13 12 13C13.6569 13 15 11.6569 15 10C15 8.34315 13.6569 7 12 7Z" fill="black"/>
</svg>
