<svg width="25" height="24" viewBox="0 0 25 24" fill="none" xmlns="http://www.w3.org/2000/svg">
<path fill-rule="evenodd" clip-rule="evenodd" d="M13.8173 17.7973C17.3702 16.9817 20.02 13.8003 20.02 10C20.02 5.58172 16.4383 2 12.02 2C7.60174 2 4.02002 5.58172 4.02002 10C4.02002 13.8003 6.66988 16.9817 10.2227 17.7973L7.02002 21V22H17.02V21L13.8173 17.7973ZM12.02 8C10.9155 8 10.02 8.89543 10.02 10C10.02 11.1046 10.9155 12 12.02 12C13.1246 12 14.02 11.1046 14.02 10C14.02 8.89543 13.1246 8 12.02 8ZM8.02002 10C8.02002 7.79086 9.81088 6 12.02 6C14.2292 6 16.02 7.79086 16.02 10C16.02 12.2091 14.2292 14 12.02 14C9.81088 14 8.02002 12.2091 8.02002 10Z" fill="black"/>
</svg>
