<svg width="24" height="24" viewBox="0 0 24 24" fill="none" xmlns="http://www.w3.org/2000/svg">
<path fill-rule="evenodd" clip-rule="evenodd" d="M5 18.5881L5.70646 19.2953L6.41292 20.0024L11.3834 15.0315C11.5871 15.0107 11.7938 15 12.003 15C13.1943 15 14.3035 15.3459 15.2371 15.9436L16.5974 14.4477C15.6353 13.7731 14.5174 13.3043 13.3088 13.106L14.9685 11.4461C16.0536 11.782 17.0596 12.2974 17.9521 12.9579L19.3038 11.4715C18.461 10.8259 17.5299 10.2893 16.5317 9.88284L18.0481 8.36632C18.9781 8.81145 19.8512 9.35617 20.654 9.98674L22.003 8.50327C21.2355 7.88932 20.4101 7.34441 19.5363 6.87806L21 5.41421L20.2935 4.70711L19.5871 4L17.5871 6.00014C15.8483 5.35352 13.9667 5 12.003 5C8.22022 5 4.74264 6.31173 2.00299 8.50331L3.35199 9.98676C5.73448 8.11524 8.73773 7 12.003 7C13.3947 7 14.7387 7.20258 16.0074 7.57993L14.3569 9.23058C13.5956 9.07933 12.8085 9 12.003 9C9.25689 9 6.725 9.92191 4.70218 11.4715L6.05381 12.9579C7.71711 11.727 9.77445 11 12.003 11C12.1939 11 12.3835 11.0053 12.5717 11.0159C9.76725 13.8205 7.7808 15.8071 5 18.5881ZM12.003 17C12.6738 17 13.3061 17.1649 13.8615 17.4563L12.003 19.5L10.1445 17.4563C10.6999 17.1649 11.3322 17 12.003 17Z" fill="black"/>
</svg>
