<svg width="24" height="24" viewBox="0 0 24 24" fill="none" xmlns="http://www.w3.org/2000/svg">
<path fill-rule="evenodd" clip-rule="evenodd" d="M5.74993 12.191L4.5 10.6293C6.55435 8.98468 9.16283 8 12 8C14.837 8 17.4456 8.98463 19.5 10.6293L18.25 12.191C16.5373 10.8194 14.3652 10 12 10C9.63494 10 7.46273 10.8193 5.74993 12.191ZM8.24995 15.3146L7.00002 13.7529C8.36944 12.6567 10.1087 12 12 12C13.8912 12 15.6305 12.6566 17 13.7528L15.75 15.3145C14.7222 14.4913 13.4194 14 12 14C10.5808 14 9.27782 14.4913 8.24995 15.3146ZM11.9996 19.9995L9.50001 16.8765C10.1849 16.328 11.0542 16 12.0001 16C12.9459 16 13.8151 16.328 14.5 16.8764L11.9996 19.9995Z" fill="black"/>
</svg>
