<svg width="24" height="24" viewBox="0 0 24 24" fill="none" xmlns="http://www.w3.org/2000/svg">
<path fill-rule="evenodd" clip-rule="evenodd" d="M3.25456 9.06742C5.65231 7.14732 8.69375 6 12.0047 6C15.3157 6 18.357 7.14734 20.7547 9.06736L22.0046 7.50565C19.2653 5.31263 15.7875 4 12.0047 4C8.22163 4 4.74393 5.31269 2.00464 7.50572L3.25456 9.06742ZM5.75456 12.191L4.50463 10.6293C6.55898 8.98468 9.16746 8 12.0046 8C14.8416 8 17.4502 8.98463 19.5046 10.6293L18.2547 12.191C16.5419 10.8194 14.3699 10 12.0046 10C9.63957 10 7.46736 10.8193 5.75456 12.191ZM8.25458 15.3146L7.00465 13.7529C8.37407 12.6567 10.1133 12 12.0047 12C13.8958 12 15.6352 12.6566 17.0046 13.7528L15.7547 15.3145C14.7268 14.4913 13.424 14 12.0047 14C10.5855 14 9.28245 14.4913 8.25458 15.3146ZM12.0042 19.9995L9.50464 16.8765C10.1896 16.328 11.0588 16 12.0047 16C12.9505 16 13.8197 16.328 14.5046 16.8764L12.0047 20L12.0042 19.9995Z" fill="black"/>
</svg>
