<svg width="24" height="24" viewBox="0 0 24 24" fill="none" xmlns="http://www.w3.org/2000/svg">
<path fill-rule="evenodd" clip-rule="evenodd" d="M2 16C2 17.1046 2.89543 18 4 18V16V7C4 5.34315 5.34315 4 7 4H16H18C18 2.89543 17.1046 2 16 2H7C4.23858 2 2 4.23858 2 7V16ZM6 8C6 6.89543 6.89543 6 8 6H20C21.1046 6 22 6.89543 22 8V12H15H6V8ZM6 14V20C6 21.1046 6.89543 22 8 22H20C21.1046 22 22 21.1046 22 20V14H15H6ZM10 9C10 9.55228 9.55228 10 9 10C8.44771 10 8 9.55228 8 9C8 8.44771 8.44771 8 9 8C9.55228 8 10 8.44771 10 9ZM13 9C13 9.55228 12.5523 10 12 10C11.4477 10 11 9.55228 11 9C11 8.44771 11.4477 8 12 8C12.5523 8 13 8.44771 13 9Z" fill="black"/>
</svg>
