<svg width="24" height="24" viewBox="0 0 24 24" fill="none" xmlns="http://www.w3.org/2000/svg">
<path fill-rule="evenodd" clip-rule="evenodd" d="M9 5C8.63112 5 8.30758 5.19922 8.13317 5.50073L6.40196 4.49927C6.91916 3.60518 7.88832 3 9 3C10.6569 3 12 4.34315 12 6C12 7.65685 10.6569 9 9 9H2.00007V7H9C9.55228 7 10 6.55228 10 6C10 5.44772 9.55228 5 9 5ZM17 19C16.6311 19 16.3076 18.8008 16.1332 18.4993L14.402 19.5007C14.9192 20.3948 15.8883 21 17 21C18.6569 21 20 19.6569 20 18C20 16.3431 18.6569 15 17 15H2.00016C2.00016 15 2 15 2 16C2 17 2.00016 17 2.00016 17H17C17.5523 17 18 17.4477 18 18C18 18.5523 17.5523 19 17 19ZM15 8.5C15 7.11929 16.1193 6 17.5 6C18.8807 6 20 7.11929 20 8.5C20 9.88071 18.8807 11 17.5 11H2.00017C2.00017 11 2 11 2 12C2 13 2.00017 13 2.00017 13H17.5C19.9853 13 22 10.9853 22 8.5C22 6.01472 19.9853 4 17.5 4C15.0147 4 13 6.01472 13 8.5H15Z" fill="black"/>
</svg>
