<svg width="24" height="24" viewBox="0 0 24 24" fill="none" xmlns="http://www.w3.org/2000/svg">
<path fill-rule="evenodd" clip-rule="evenodd" d="M3 5C3 3.89543 3.89543 3 5 3H19C20.1046 3 21 3.89543 21 5V12.626C20.4055 12.1984 19.7296 11.8768 19 11.689V11H5V19H11.689C11.8768 19.7296 12.1984 20.4055 12.626 21H5C3.89543 21 3 20.1046 3 19V5ZM5 9H19V5H5V9ZM17.5 22C19.9853 22 22 19.9853 22 17.5C22 15.0147 19.9853 13 17.5 13C15.0147 13 13 15.0147 13 17.5C13 19.9853 15.0147 22 17.5 22ZM16.75 15V16.75H15V18.25H16.75V20H18.25V18.25H20V16.75H18.25V15H16.75ZM8 7C8 7.55228 7.55228 8 7 8C6.44772 8 6 7.55228 6 7C6 6.44772 6.44772 6 7 6C7.55228 6 8 6.44772 8 7ZM10 8C10.5523 8 11 7.55228 11 7C11 6.44772 10.5523 6 10 6C9.44771 6 9 6.44772 9 7C9 7.55228 9.44771 8 10 8Z" fill="black"/>
</svg>
