<svg width="24" height="24" viewBox="0 0 24 24" fill="none" xmlns="http://www.w3.org/2000/svg">
<path fill-rule="evenodd" clip-rule="evenodd" d="M5 3C3.89543 3 3 3.89543 3 5V9H12H21V5C21 3.89543 20.1046 3 19 3H5ZM3 19V11H12H16V11.1739C13.1333 11.8511 11 14.4264 11 17.5C11 18.7886 11.375 19.9897 12.0218 21H5C3.89543 21 3 20.1046 3 19ZM6 7C6.55228 7 7 6.55228 7 6C7 5.44771 6.55228 5 6 5C5.44771 5 5 5.44771 5 6C5 6.55228 5.44771 7 6 7ZM9 7C9.55228 7 10 6.55228 10 6C10 5.44771 9.55228 5 9 5C8.44772 5 8 5.44771 8 6C8 6.55228 8.44772 7 9 7ZM22 17.5C22 19.9853 19.9853 22 17.5 22C15.0147 22 13 19.9853 13 17.5C13 15.0147 15.0147 13 17.5 13C19.9853 13 22 15.0147 22 17.5ZM16.75 16.75V15H18.25V16.75H20V18.25H18.25V20H16.75V18.25H15V16.75H16.75Z" fill="black"/>
</svg>
