<svg width="24" height="24" viewBox="0 0 24 24" fill="none" xmlns="http://www.w3.org/2000/svg">
<path fill-rule="evenodd" clip-rule="evenodd" d="M5 3C3.89543 3 3 3.89543 3 5V19C3 20.1046 3.89543 21 5 21H12.626C12.1984 20.4055 11.8768 19.7296 11.689 19H5V11H19V11.689C19.7296 11.8768 20.4055 12.1984 21 12.626V5C21 3.89543 20.1046 3 19 3H5ZM19 9H5V5H19V9ZM8 7C8 7.55228 7.55228 8 7 8C6.44772 8 6 7.55228 6 7C6 6.44772 6.44772 6 7 6C7.55228 6 8 6.44772 8 7ZM10 8C10.5523 8 11 7.55228 11 7C11 6.44772 10.5523 6 10 6C9.44771 6 9 6.44772 9 7C9 7.55228 9.44771 8 10 8ZM22 17.5C22 19.9853 19.9853 22 17.5 22C15.0147 22 13 19.9853 13 17.5C13 15.0147 15.0147 13 17.5 13C19.9853 13 22 15.0147 22 17.5ZM16.4393 17.5L14.9697 16.0303L16.0303 14.9697L17.5 16.4393L18.9697 14.9697L20.0303 16.0303L18.5607 17.5L20.0303 18.9697L18.9697 20.0303L17.5 18.5607L16.0303 20.0303L14.9697 18.9697L16.4393 17.5Z" fill="black"/>
</svg>
