<svg width="24" height="24" viewBox="0 0 24 24" fill="none" xmlns="http://www.w3.org/2000/svg">
<path fill-rule="evenodd" clip-rule="evenodd" d="M6 18H4C2.89543 18 2 17.1046 2 16V4C2 2.89543 2.89543 2 4 2H16C17.1046 2 18 2.89543 18 4V6H20C21.1046 6 22 6.89543 22 8V20C22 21.1046 21.1046 22 20 22H8C6.89543 22 6 21.1046 6 20V18ZM6 16H4V4H16V6H8C6.89543 6 6 6.89543 6 8V16ZM8 14V20H20V14H8ZM20 8V12H8V8H20ZM11 10C11 10.5523 10.5523 11 10 11C9.44771 11 9 10.5523 9 10C9 9.44771 9.44771 9 10 9C10.5523 9 11 9.44771 11 10ZM13 11C13.5523 11 14 10.5523 14 10C14 9.44771 13.5523 9 13 9C12.4477 9 12 9.44771 12 10C12 10.5523 12.4477 11 13 11Z" fill="black"/>
</svg>
