<svg width="24" height="24" viewBox="0 0 24 24" fill="none" xmlns="http://www.w3.org/2000/svg">
<path d="M17.9901 2C16.9678 2 15.9614 2.37501 15.1815 3.15601C14.1892 4.15001 13.794 5.57 14.0876 6.899L6.91198 14.088C6.42948 13.98 5.90579 13.967 5.44199 14.031C3.90019 14.246 2.56229 15.368 2.13409 16.969C1.94769 17.665 1.96309 18.349 2.13409 19L4.00649 17L5.00509 16L7.50169 16.531L8.00099 19L7.00239 20L5.00509 21.875C7.12619 22.426 9.30529 21.155 9.87349 19.031C10.0468 18.384 10.043 17.698 9.90318 17.085L17.1018 9.888C18.3742 10.208 19.8307 9.81299 20.83 8.812C22.3901 7.251 22.39 4.71801 20.83 3.15601C20.05 2.37501 19.0124 2 17.9901 2ZM18.6455 3.59399L20.3931 5.34399L19.7689 7.75L17.366 8.406L15.5872 6.625L16.2425 4.21899L18.6455 3.59399Z" fill="black"/>
</svg>
