<svg width="24" height="24" viewBox="0 0 24 24" fill="none" xmlns="http://www.w3.org/2000/svg">
<path fill-rule="evenodd" clip-rule="evenodd" d="M16.3638 7.06005L21.1187 4.86799C21.0802 4.80529 21.0407 4.74335 21 4.6822C19.9251 3.06551 18.087 2 16 2C12.6863 2 10 4.68629 10 8C10 8.85164 10.1774 9.66184 10.4974 10.3956L2.95243 16.3345C2.36429 16.9346 2 17.7594 2 18.6672C2 20.5081 3.49238 22.0004 5.33333 22.0004C6.24123 22.0004 7.06604 21.6361 7.66623 21.048L13.6043 13.5026C14.3381 13.8226 15.1483 14 16 14C19.163 14 21.7708 11.6045 22 8.5L17.8082 10.2858L16.3638 7.06005ZM6 18.9996C6 19.5518 5.55228 19.9995 5 19.9995C4.44771 19.9995 4 19.5518 4 18.9996C4 18.4473 4.44771 17.9996 5 17.9996C5.55228 17.9996 6 18.4473 6 18.9996Z" fill="black"/>
</svg>
