<svg width="24" height="24" viewBox="0 0 24 24" fill="none" xmlns="http://www.w3.org/2000/svg">
<path fill-rule="evenodd" clip-rule="evenodd" d="M17.4137 4.2586C15.3472 3.47776 13.0389 4.52003 12.2581 6.58657C11.9071 7.51543 11.9241 8.49058 12.2367 9.35654C12.9798 11.4149 15.3233 12.5086 17.3746 11.7568L15.0304 6.56508L18.5956 4.95525C18.2545 4.66444 17.8581 4.4265 17.4137 4.2586ZM18.3082 8.9643L22.0023 7.29629C21.9499 8.26302 21.9586 9.20539 21.6126 10.1212C20.5318 12.9816 17.5002 14.5337 14.6025 13.836L7.67681 21.0372L7.66623 21.0476C7.06604 21.6357 6.24123 22 5.33333 22C3.49238 22 2 20.5076 2 18.6667C2 17.7588 2.36429 16.934 2.95243 16.3338L2.9628 16.3232L10.1643 9.39724C9.89312 8.26805 9.94602 7.04723 10.3872 5.87965C11.5585 2.77984 15.0208 1.21644 18.1206 2.3877C19.7998 3.02218 20.7636 4.30833 21.6819 5.75613L17.6763 7.56482L18.3082 8.9643ZM11.0206 11.3486L4.372 17.7428C4.14064 17.9834 4 18.3076 4 18.6667C4 19.4031 4.59695 20 5.33333 20C5.69239 20 6.01665 19.8594 6.25725 19.628L12.6508 12.9802C11.996 12.5405 11.4465 11.9829 11.0206 11.3486Z" fill="black"/>
</svg>
