<svg width="24" height="24" viewBox="0 0 24 24" fill="none" xmlns="http://www.w3.org/2000/svg">
<path fill-rule="evenodd" clip-rule="evenodd" d="M12 22C17.5228 22 22 17.5228 22 12C22 6.47715 17.5228 2 12 2C6.47715 2 2 6.47715 2 12C2 17.5228 6.47715 22 12 22ZM4.95361 15.7912C5.69632 17.1687 6.83114 18.3036 8.20861 19.0463L10.1099 16.6304C10.693 16.8687 11.3311 17 12 17C14.6358 17 16.7953 14.9604 16.9862 12.3734L13.5068 13.9049L12.3031 11.2167L16.2655 9.38999C16.2335 9.33774 16.2005 9.28613 16.1666 9.23517C15.2709 7.88792 13.7391 7 12 7C9.23856 7 6.99998 9.23858 6.99998 12C6.99998 12.6687 7.13124 13.3067 7.36941 13.8897L4.95361 15.7912Z" fill="black"/>
</svg>
