<svg width="24" height="24" viewBox="0 0 24 24" fill="none" xmlns="http://www.w3.org/2000/svg">
<path fill-rule="evenodd" clip-rule="evenodd" d="M12 4C7.58172 4 4 7.58172 4 12C4 13.0647 4.20752 14.0795 4.58414 15.0072L6.17242 13.4258C5.89375 12.2889 5.94388 11.0577 6.38865 9.8806C7.55992 6.78079 11.0223 5.21739 14.1221 6.38865C15.3847 6.86572 16.3944 7.72491 17.0663 8.78418L17.6834 9.75708L13.6777 11.5658L14.3097 12.9653L18.0002 11.2972C17.9497 12.2644 17.9603 13.2059 17.6141 14.1221C16.532 16.9859 13.4945 18.5383 10.5937 17.8345L9.00122 19.4193C9.92667 19.7937 10.9385 20 12 20C16.4183 20 20 16.4183 20 12C20 7.58172 16.4183 4 12 4ZM7.194 18.3961L10.0528 15.5512L10.6482 15.7655C11.5646 16.0954 12.525 16.0697 13.3761 15.7578L11.4434 11.4774L11.0319 10.566L14.5971 8.9562C14.256 8.66539 13.8595 8.42745 13.4152 8.25955C11.3487 7.47871 9.0404 8.52098 8.25955 10.5875C7.90704 11.5205 7.92567 12.5002 8.24233 13.369L8.46111 13.9693L5.60739 16.8107C6.05947 17.4104 6.594 17.9445 7.194 18.3961ZM2 12C2 6.47715 6.47715 2 12 2C17.5228 2 22 6.47715 22 12C22 17.5228 17.5228 22 12 22C6.48322 22 2 17.5168 2 12Z" fill="black"/>
</svg>
