<svg width="24" height="24" viewBox="0 0 24 24" fill="none" xmlns="http://www.w3.org/2000/svg">
<path fill-rule="evenodd" clip-rule="evenodd" d="M10.629 2.56781C11.3862 1.81063 12.6138 1.81063 13.371 2.56781L16.6945 5.89131L12 10.5858L7.30552 5.89129L10.629 2.56781ZM5.89131 7.3055L2.56789 10.6289C1.81071 11.3861 1.8107 12.6137 2.56789 13.3709L5.89138 16.6944L10.5858 12L5.89131 7.3055ZM12 13.4142L7.3056 18.1086L10.629 21.432C11.3862 22.1892 12.6138 22.1892 13.371 21.432L16.6944 18.1086L12 13.4142ZM18.1086 16.6944L21.4321 13.3709C22.1893 12.6137 22.1893 11.3861 21.4321 10.6289L18.1087 7.30552L13.4142 12L18.1086 16.6944Z" fill="black"/>
</svg>
