<svg width="24" height="24" viewBox="0 0 24 24" fill="none" xmlns="http://www.w3.org/2000/svg">
<path fill-rule="evenodd" clip-rule="evenodd" d="M12 4C7.58172 4 4 7.58172 4 12C4 14.9238 5.56848 17.4812 7.90992 18.8768C7.33666 18.0633 7 17.071 7 16.0001C7 13.2387 9.23858 10.9998 12 10.9998C14.2091 10.9998 16 9.20897 16 6.99983C16 6.14255 15.7303 5.34826 15.2711 4.69717C14.2725 4.24918 13.1654 4 12 4ZM2 12C2 6.47715 6.47715 2 12 2C17.5228 2 22 6.47715 22 12C22 17.5228 17.5228 22 12 22C6.47715 22 2 17.5228 2 12ZM12.5 18C13.3284 18 14 17.3284 14 16.5C14 15.6716 13.3284 15 12.5 15C11.6716 15 11 15.6716 11 16.5C11 17.3284 11.6716 18 12.5 18ZM12.5 9C13.3284 9 14 8.32843 14 7.5C14 6.67157 13.3284 6 12.5 6C11.6716 6 11 6.67157 11 7.5C11 8.32843 11.6716 9 12.5 9Z" fill="black"/>
</svg>
