<svg width="24" height="24" viewBox="0 0 24 24" fill="none" xmlns="http://www.w3.org/2000/svg">
<path fill-rule="evenodd" clip-rule="evenodd" d="M4 12C4 7.58172 7.58172 4 12 4C16.4183 4 20 7.58172 20 12C20 15.3317 17.9634 18.1876 15.0672 19.3909C15.4238 18.953 15.7702 18.4798 16.0923 17.9766C17.1592 16.3095 18 14.2485 18 12C18 8.68629 15.3137 6 12 6C8.68629 6 6 8.68629 6 12C6 14.6131 7.66969 16.8345 10 17.6583V19.748C6.54955 18.8599 4 15.7277 4 12ZM12 2C6.47715 2 2 6.47715 2 12C2 17.5228 6.47715 22 12 22C17.5228 22 22 17.5228 22 12C22 6.47715 17.5228 2 12 2ZM8 12C8 9.79086 9.79086 8 12 8C14.2091 8 16 9.79086 16 12C16 13.7515 15.3408 15.4405 14.4077 16.8984C13.6702 18.0509 12.7865 19.019 12 19.7105V16.9V16.0826L11.1989 15.92C9.37356 15.5494 8 13.934 8 12Z" fill="black"/>
</svg>
