<svg width="24" height="24" viewBox="0 0 24 24" fill="none" xmlns="http://www.w3.org/2000/svg">
<path fill-rule="evenodd" clip-rule="evenodd" d="M21.7061 14.4163C21.8981 13.6425 22 12.8332 22 12C22 6.47715 17.5228 2 12 2C6.47715 2 2 6.47715 2 12C2 17.5228 6.47715 22 12 22C15.7364 22 18.9941 19.9508 20.7108 16.915C18.186 16.6024 15.4785 15.5095 14.2801 15.0258C14.195 14.9914 14.1175 14.9601 14.0482 14.9324L14.0105 14.9173C13.9844 14.9509 13.9581 14.9842 13.9316 15.0174C12.5963 16.6864 10.6452 18.0002 8.37719 18.0002C7.20459 18.0002 6.21741 17.6021 5.52047 16.9052C4.83475 16.2194 4.5 15.3128 4.5 14.4212C4.5 13.5297 4.83475 12.623 5.52047 11.9373C6.21741 11.2404 7.20459 10.8423 8.37719 10.8423C9.45674 10.8423 10.5653 11.1098 11.6375 11.4607C12.0973 11.6112 12.5677 11.7831 13.0415 11.965C13.3386 11.3374 13.4432 10.6585 13.48 9.99985H13V10H11V9.99985H7.99995V8.99985H11V8H7.04322L7.04321 7H11V5H13V7H17.0111V8H13V8.99985H15V9.00008H16C16 10.2746 15.813 11.6389 15.2621 12.8476C17.3016 13.6556 19.7332 14.3516 21.7061 14.4163ZM6.55005 12.6488C6.81967 12.3699 7.30349 12.0902 8.14438 12.0902C8.98526 12.0902 10.4718 12.4529 12.2391 13.5423C10.8122 15.3619 8.30454 16.5156 6.55005 14.8955C6.26513 14.6008 6.11161 14.1971 6.11161 13.7721C6.11161 13.3472 6.26513 12.9435 6.55005 12.6488Z" fill="black"/>
</svg>
