<svg width="24" height="24" viewBox="0 0 24 24" fill="none" xmlns="http://www.w3.org/2000/svg">
<path fill-rule="evenodd" clip-rule="evenodd" d="M4 12C4 7.58172 7.58172 4 12 4C16.4183 4 20 7.58172 20 12C20 12.689 19.9129 13.3577 19.7491 13.9956C18.134 13.9398 16.4782 13.3572 14.7711 12.6809C15.1612 11.8253 15.4123 10.9081 15.4809 10H15.5V9.5V9H13V8H16V7H13V6H11V7H8V8H11V9H8.5V10H11H13H13.4728C13.4045 10.6413 13.2093 11.3084 12.9098 11.9411C12.5127 11.7886 12.1184 11.6445 11.7329 11.5184C10.8342 11.2242 9.90491 11 9 11C8.01708 11 7.1896 11.3337 6.60539 11.9179C6.0306 12.4927 5.75 13.2526 5.75 14C5.75 14.7474 6.0306 15.5073 6.60539 16.0821C7.1896 16.6663 8.01708 17 9 17C10.9011 17 12.5366 15.8988 13.6559 14.4997C13.6781 14.4719 13.7002 14.444 13.7221 14.4159L13.7536 14.4285C15.3199 15.055 17.1091 15.7427 18.9626 15.9426C17.5877 18.3654 14.9848 20 12 20C7.58172 20 4 16.4183 4 12ZM12 2C6.47715 2 2 6.47715 2 12C2 17.5228 6.47715 22 12 22C17.5228 22 22 17.5228 22 12C22 6.47715 17.5228 2 12 2ZM7.37142 12.4682C7.59743 12.2345 8.00298 12 8.70784 12C9.4127 12 10.6588 12.304 12.1402 13.2172C10.9441 14.7425 8.8421 15.7096 7.37142 14.3516C7.13259 14.1045 7.00391 13.7661 7.00391 13.4099C7.00391 13.0537 7.13259 12.7153 7.37142 12.4682Z" fill="black"/>
</svg>
