<svg width="24" height="24" viewBox="0 0 24 24" fill="none" xmlns="http://www.w3.org/2000/svg">
<path fill-rule="evenodd" clip-rule="evenodd" d="M5.41055 3H2.99634L4.70344 4.7059L8.29107 8.291L7.29291 9.28845L3.29291 13.2856L3.00002 13.5783V13.9922V19.988V20.9873H4.00002H10H10.4142L10.7071 20.6946L14.7071 16.6974L15.7008 15.7045L19.2929 19.2941L21 21V18.5875V3.99929V3H20H5.41055ZM15 14.9915V14.5903V8.99577H9.41055H9.00002V9.99506V14.9915H14H15ZM9.82477 6.99718L7.82477 4.99859H19V16.175L17 14.1764V7.99647V6.99718H16H9.82477ZM5.00002 18.9887V14.4062L7.00002 12.4076V15.9908V16.9901H8.00002H11.5858L9.5858 18.9887H5.00002Z" fill="black"/>
</svg>
