<svg width="24" height="24" viewBox="0 0 24 24" fill="none" xmlns="http://www.w3.org/2000/svg">
<path fill-rule="evenodd" clip-rule="evenodd" d="M7.55279 2.10555C8.04676 1.85856 8.64744 2.05878 8.89443 2.55276L9.41094 3.58578C10.1948 3.21028 11.0728 2.99997 12 2.99997C12.9272 2.99997 13.8052 3.21028 14.5891 3.58578L15.1056 2.55276C15.3526 2.05878 15.9532 1.85856 16.4472 2.10555C16.9412 2.35254 17.1414 2.95321 16.8944 3.44719L16.2404 4.75514C17.3275 5.8411 18 7.34201 18 8.99998V18V19H17H15V21V22H13V21V19H11V21V22H9V21V19H7H6V18V8.99998C6 7.34201 6.67248 5.8411 7.75955 4.75514L7.10557 3.44719C6.85858 2.95321 7.05881 2.35254 7.55279 2.10555ZM14.3786 5.7837C14.3918 5.79419 14.4054 5.80438 14.4193 5.81426C15.3799 6.54486 16 7.7 16 8.99998H8C8 7.7 8.62013 6.54487 9.58071 5.81426C9.59464 5.80435 9.60825 5.79413 9.62155 5.78361C10.2863 5.29119 11.1092 4.99997 12 4.99997C12.8909 4.99997 13.7138 5.29122 14.3786 5.7837ZM8 11V17L9 17H11H13H15L16 17V11H8ZM21 9.99998C21 9.44769 20.5523 8.99998 20 8.99998C19.4477 8.99998 19 9.44769 19 9.99998V15C19 15.5523 19.4477 16 20 16C20.5523 16 21 15.5523 21 15V9.99998ZM4 8.99998C4.55228 8.99998 5 9.44769 5 9.99998V15C5 15.5523 4.55228 16 4 16C3.44772 16 3 15.5523 3 15V9.99998C3 9.44769 3.44772 8.99998 4 8.99998ZM10 6.99997H11V7.99997H10V6.99997ZM14 6.99997H13V7.99997H14V6.99997Z" fill="black"/>
</svg>
