<svg width="24" height="24" viewBox="0 0 24 24" fill="none" xmlns="http://www.w3.org/2000/svg">
<path fill-rule="evenodd" clip-rule="evenodd" d="M7.55279 2.10555C8.04676 1.85856 8.64744 2.05878 8.89443 2.55276L9.39443 3.55276L9.41094 3.58578C10.1948 3.21028 11.0728 2.99997 12 2.99997C12.9272 2.99997 13.8052 3.21028 14.5891 3.58578L14.6056 3.55276L15.1056 2.55276C15.3526 2.05878 15.9532 1.85856 16.4472 2.10555C16.9412 2.35254 17.1414 2.95321 16.8944 3.44719L16.3944 4.44719L16.2404 4.75514C17.3275 5.8411 18 7.34201 18 8.99998H6C6 7.34201 6.67248 5.8411 7.75955 4.75514L7.60557 4.44719L7.10557 3.44719C6.85858 2.95321 7.05881 2.35254 7.55279 2.10555ZM10 5.99998H9V6.99998H10V5.99998ZM14 5.99998H15V6.99998H14V5.99998ZM6 19V9.99998H18V19H15V20V21V22H13V21V20V19H11V20V21V22H9V21V20V19H6ZM4 8.99998C4.55228 8.99998 5 9.44769 5 9.99998V15C5 15.5523 4.55228 16 4 16C3.44772 16 3 15.5523 3 15V9.99998C3 9.44769 3.44772 8.99998 4 8.99998ZM20 8.99998C20.5523 8.99998 21 9.44769 21 9.99998V15C21 15.5523 20.5523 16 20 16C19.4477 16 19 15.5523 19 15V9.99998C19 9.44769 19.4477 8.99998 20 8.99998Z" fill="black"/>
</svg>
