<svg width="24" height="24" viewBox="0 0 24 24" fill="none" xmlns="http://www.w3.org/2000/svg">
<path fill-rule="evenodd" clip-rule="evenodd" d="M4.55279 4.10555C5.04676 3.85856 5.64744 4.05878 5.89443 4.55276L7.62153 8.00696C8.94389 7.36193 10.4297 6.99997 12 6.99997C13.5703 6.99997 15.0561 7.36193 16.3785 8.00696L18.1056 4.55276C18.3526 4.05878 18.9532 3.85856 19.4472 4.10555C19.9412 4.35254 20.1414 4.95321 19.8944 5.44719L18.0858 9.06442C20.4658 10.8924 22 13.767 22 17V19H20H2.00004L2 17C2 13.767 3.53417 10.8924 5.91419 9.06442L4.10557 5.44719C3.85858 4.95321 4.05881 4.35254 4.55279 4.10555ZM12 8.99998C16.4183 8.99998 20 12.5817 20 17H19.9675H19.9289H19.8901H19.8512H19.812H19.7726H19.7331H19.6933H19.6534H19.6133H19.573H19.5326H19.4919H19.4511H19.41H19.3689H19.3275H19.2859H19.2442H19.2023H19.1603H19.1181H19.0757H19.0331H18.9904H18.9475H18.9044H18.8612H18.8178H18.7743H18.7306H18.6867H18.6427H18.5985H18.5542H18.5097H18.4651H18.4203H18.3754H18.3303H18.2851H18.2397H18.1942H18.1486H18.1028H18.0569H18.0108H17.9646H17.9182H17.8718H17.8252H17.7784H17.7315H17.6845H17.6374H17.5902H17.5428H17.4953H17.4476H17.3999H17.352H17.304H17.2559H17.2077H17.1593H17.1109H17.0623H17.0136H16.9648H16.9159H16.8669H16.8178H16.7685H16.7192H16.6698H16.6202H16.5706H16.5209H16.471H16.4211H16.3711H16.321H16.2707H16.2204H16.17H16.1196H16.069H16.0183H15.9676H15.9167H15.8658H15.8148H15.7638H15.7126H15.6614H15.6101H15.5587H15.5072H15.4557H15.4041H15.3524H15.3006H15.2488H15.197H15.145H15.093H15.0409H14.9888H14.9366H14.8843H14.832H14.7797H14.7272H14.6748H14.6222H14.5696H14.517H14.4643H14.4116H14.3588H14.306H14.2531H14.2002H14.1473H14.0943H14.0413H13.9882H13.9351H13.8819H13.8288H13.7756H13.7223H13.6691H13.6158H13.5624H13.5091H13.4557H13.4023H13.3489H13.2954H13.242H13.1885H13.135H13.0815H13.0279H12.9744H12.9208H12.8673H12.8137H12.7601H12.7065H12.6529H12.5993H12.5457H12.492H12.4384H12.3848H12.3312H12.2776H12.224H12.1704H12.1168H12.0632H12.0096H11.956H11.9025H11.8489H11.7954H11.7419H11.6884H11.6349H11.5814H11.528H11.4745H11.4211H11.3677H11.3144H11.2611H11.2078H11.1545H11.1012H11.048H10.9949H10.9417H10.8886H10.8355H10.7825H10.7295H10.6766H10.6236H10.5708H10.5179H10.4652H10.4124H10.3597H10.3071H10.2545H10.202H10.1495H10.0971H10.0447H9.99237H9.94011H9.88791H9.83577H9.78369H9.73168H9.67973H9.62784H9.57602H9.52427H9.47258H9.42097H9.36943H9.31796H9.26657H9.21525H9.16401H9.11284H9.06176H9.01075H8.95983H8.90899H8.85824H8.80757H8.75698H8.70649H8.65608H8.60577H8.55554H8.50541H8.45538H8.40544H8.35559H8.30585H8.2562H8.20666H8.15721H8.10787H8.05863H8.0095H7.96048H7.91156H7.86276H7.81406H7.76548H7.71701H7.66865H7.62041H7.57229H7.52428H7.47639H7.42863H7.38099H7.33347H7.28607H7.2388H7.19166H7.14464H7.09776H7.051H7.00438H6.95789H6.91154H6.86532H6.81924H6.77329H6.72749H6.68183H6.63631H6.59093H6.5457H6.50061H6.45567H6.41088H6.36624H6.32175H6.27741H6.23322H6.18919H6.14532H6.1016H6.05804H6.01464H5.9714H5.92833H5.88542H5.84267H5.80009H5.75767H5.71543H5.67335H5.63144H5.58971H5.54815H5.50677H5.46556H5.42453H5.38368H5.343H5.30251H5.2622H5.22208H5.18214H5.14238H5.10282H5.06344H5.02425H4.98525H4.94645H4.90784H4.86942H4.8312H4.79318H4.75535H4.71773H4.68031H4.64309H4.60607H4.56926H4.53265H4.49625H4.46007H4.42409H4.38832H4.35277H4.31742H4.2823H4.24739H4.2127H4.17822H4.14397H4.10994H4.07613H4.04254H4.00918H4C4 12.5817 7.58172 8.99998 12 8.99998ZM10 13.5C10 14.3284 9.32843 15 8.5 15C7.67157 15 7 14.3284 7 13.5C7 12.6715 7.67157 12 8.5 12C9.32843 12 10 12.6715 10 13.5ZM15.5 15C16.3284 15 17 14.3284 17 13.5C17 12.6715 16.3284 12 15.5 12C14.6716 12 14 12.6715 14 13.5C14 14.3284 14.6716 15 15.5 15Z" fill="black"/>
</svg>
