<svg width="24" height="24" viewBox="0 0 24 24" fill="none" xmlns="http://www.w3.org/2000/svg">
<path fill-rule="evenodd" clip-rule="evenodd" d="M4.55279 4.10555C5.04676 3.85856 5.64744 4.05878 5.89443 4.55276L7.62153 8.00696C8.94389 7.36193 10.4297 6.99997 12 6.99997C13.5703 6.99997 15.0561 7.36193 16.3785 8.00696L18.1056 4.55276C18.3526 4.05878 18.9532 3.85856 19.4472 4.10555C19.9412 4.35254 20.1414 4.95321 19.8944 5.44719L18.0858 9.06442C20.4658 10.8924 22 13.767 22 17H2C2 13.767 3.53417 10.8924 5.91419 9.06442L4.10557 5.44719C3.85858 4.95321 4.05881 4.35254 4.55279 4.10555ZM8.5 14C9.32843 14 10 13.3284 10 12.5C10 11.6715 9.32843 11 8.5 11C7.67157 11 7 11.6715 7 12.5C7 13.3284 7.67157 14 8.5 14ZM17 12.5C17 13.3284 16.3284 14 15.5 14C14.6716 14 14 13.3284 14 12.5C14 11.6715 14.6716 11 15.5 11C16.3284 11 17 11.6715 17 12.5Z" fill="black"/>
</svg>
