<svg width="24" height="24" viewBox="0 0 24 24" fill="none" xmlns="http://www.w3.org/2000/svg">
<path fill-rule="evenodd" clip-rule="evenodd" d="M15.985 1.99982C13.6658 2.18645 11.8481 4.41966 11.9972 6.73753C14.4126 6.54315 16.1382 4.38039 15.985 1.99982ZM11.9923 9.78562C13.6883 9.78562 15.1952 8.58336 16.9255 9.14687C16.3352 10.1254 15.9945 11.2729 15.9945 12.5C15.9945 14.3069 16.7323 15.9401 17.9192 17.1166C17.5607 17.9278 17.1451 18.6068 16.7211 19.1104C16.2589 19.6593 15.7419 20.1947 15.0474 19.8381C14.5469 19.581 13.7713 19.1835 12.5001 19.1835C11.234 19.1835 10.4648 19.578 9.96537 19.8351C9.81013 19.915 9.6717 20 9.49451 20C8.62425 20 7.79812 18.5895 7.43822 17.9741C6.56459 16.48 6 14.5648 6 12.96C6 10.1632 7.58508 9.00001 8.99451 9.00001C10.0508 9.00001 10.9483 9.66871 11.9923 9.78562ZM19.8719 8.84285C19.4377 8.31026 18.8959 7.86881 18.2798 7.55163C17.5948 7.19904 16.8179 7.00001 15.9945 7.00001C13.8475 7.00001 12.9983 7.78562 11.9923 7.78562C10.9522 7.54974 10.1096 7.00001 8.99451 7.00001C6.2331 7.00001 4 9.32345 4 12.96C4 16.9696 6.7331 22 9.49451 22C10.8112 22 10.9844 21.1835 12.5001 21.1835C14.0158 21.1835 14.2107 22 15.4945 22C17.4136 22 19.3217 19.5851 20.3072 16.4336C18.9276 15.6648 17.9945 14.1914 17.9945 12.5C17.9945 10.9933 18.735 9.65958 19.8719 8.84285Z" fill="black"/>
</svg>
