<svg width="24" height="24" viewBox="0 0 24 24" fill="none" xmlns="http://www.w3.org/2000/svg">
<path fill-rule="evenodd" clip-rule="evenodd" d="M11.9972 6.73771C11.8459 4.38651 13.6116 2.19099 15.9849 2C16.1381 4.38057 14.4125 6.54334 11.9972 6.73771ZM9.49448 22.0002C6.73308 22.0002 4 16.9698 4 12.9602C4 9.32364 6.23308 7.00019 8.99448 7.00019C9.70559 7.00019 10.382 7.14864 10.9945 7.41624C11.4233 7.60359 11.7013 7.71982 11.9923 7.7858C12.4011 7.7858 12.784 7.65608 13.2386 7.50206C13.9027 7.27705 14.7199 7.00019 15.9944 7.00019C17.5586 7.00019 18.9549 7.7184 19.8718 8.84303C18.7349 9.65977 17.9944 10.9935 17.9944 12.5002C17.9944 14.1916 18.9276 15.665 20.3071 16.4337C19.3216 19.5853 17.4135 22.0002 15.4944 22.0002C14.8791 22.0002 14.514 21.8126 14.1337 21.6173C13.7204 21.4051 13.2893 21.1837 12.5001 21.1837C11.7156 21.1837 11.2907 21.4024 10.8808 21.6135C10.4988 21.8102 10.1297 22.0002 9.49448 22.0002Z" fill="black"/>
</svg>
