<svg width="24" height="24" viewBox="0 0 24 24" fill="none" xmlns="http://www.w3.org/2000/svg">
<path fill-rule="evenodd" clip-rule="evenodd" d="M20 4H14V6H20V4ZM8.19973 5H2V20H8.74345C10.9409 20 12.2069 18.8276 12.5983 18.3764C13.5946 19.3791 14.9749 20 16.5001 20C19.0193 20 21.1361 18.3094 21.7911 16.0044C22.0002 15.2686 22.0002 13.6471 22.0002 12.5C22.0002 9.46243 19.5377 7 16.5001 7C15.2247 7 14.0507 7.43409 13.1178 8.16259C12.226 6.09661 10.3638 5 8.19973 5ZM10.8165 12.2461C11.5629 12.774 12.0074 13.879 12.0074 14.6791C12.0074 16.5048 10.5135 18 8.74345 18H4.00002V7H8.19973C9.8566 7 11.4912 8.27553 11.4912 10.2328C11.4912 10.9766 11.2813 11.6289 10.8165 12.2461ZM6.00003 16V13.5H8.74345C9.36577 13.5 10.0135 14.0044 10.0135 14.6791C10.0135 15.4157 9.57188 16 8.74345 16H6.00003ZM9.50146 10.2328C9.50146 10.8324 9.07558 11.5 8.19973 11.5H6.00003V9H8.19973C9.07558 9 9.50146 9.63326 9.50146 10.2328ZM16.5001 9C18.2649 9 19.7246 10.3061 19.9653 12.0044C19.9883 12.1663 20.0001 12.3318 20.0001 12.5V14.0044H15.0001V14.5C15.0001 15.3284 15.6717 16 16.5001 16C17.1525 16 17.7093 15.5827 17.9151 15H19.965C19.6681 16.6951 18.2545 18 16.5001 18C15.3098 18 14.2583 17.4058 13.626 16.4979C13.2314 15.9314 13.0001 15.2427 13.0001 14.5V12.5C13.0001 10.567 14.5671 9 16.5001 9ZM15.0001 12.5C15.0001 12.3263 15.0296 12.1595 15.0839 12.0044C15.2886 11.4195 15.8454 11 16.5001 11C17.1549 11 17.7116 11.4195 17.9163 12.0044C17.9706 12.1595 18.0001 12.3263 18.0001 12.5H15.0001Z" fill="black"/>
</svg>
