<svg width="24" height="24" viewBox="0 0 24 24" fill="none" xmlns="http://www.w3.org/2000/svg">
<path fill-rule="evenodd" clip-rule="evenodd" d="M4 4C2.89543 4 2 4.89543 2 6V18C2 19.1046 2.89543 20 4 20H20C21.1046 20 22 19.1046 22 18V6C22 4.89543 21.1046 4 20 4H4ZM10.8164 12.2461C11.5629 12.774 12.0074 13.879 12.0074 14.6791C12.0074 16.5048 10.5134 18 8.7434 18H4V7H8.19969C9.85655 7 11.4911 8.27553 11.4911 10.2328C11.4911 10.9766 11.2813 11.6289 10.8164 12.2461ZM6 16V13.5H8.7434C9.36572 13.5 10.0134 14.0044 10.0134 14.6791C10.0134 15.4157 9.57183 16 8.7434 16H6ZM9.5014 10.2328C9.5014 10.8324 9.07553 11.5 8.19969 11.5H6V9H8.19969C9.07553 9 9.5014 9.63326 9.5014 10.2328ZM13.0348 12.0044C13.0574 11.8449 13.0908 11.6889 13.1341 11.5372C13.5523 10.0724 14.9009 9 16.5 9C18.2648 9 19.7245 10.3061 19.9652 12.0044C19.9881 12.1663 20 12.3318 20 12.5V14.0044H15V14.5C15 15.3284 15.6716 16 16.5 16C17.1524 16 17.7092 15.5827 17.915 15H19.9648L19.93 15.1989C19.8975 15.3589 19.8542 15.5148 19.8008 15.666C19.7599 15.7817 19.7131 15.8946 19.6608 16.0044C19.5913 16.1502 19.512 16.2904 19.4238 16.4242C19.2863 16.6328 19.1271 16.8258 18.9494 17C18.3183 17.6186 17.4541 18 16.5 18C15.3097 18 14.2582 17.4058 13.6259 16.4979C13.2313 15.9314 13 15.2427 13 14.5V12.5C13 12.3318 13.0119 12.1663 13.0348 12.0044ZM15 12.5C15 12.3263 15.0295 12.1595 15.0838 12.0044C15.2885 11.4195 15.8452 11 16.5 11C17.1548 11 17.7115 11.4195 17.9162 12.0044C17.9705 12.1595 18 12.3263 18 12.5H15ZM19 6.5H14V8H19V6.5Z" fill="black"/>
</svg>
