<svg width="24" height="24" viewBox="0 0 24 24" fill="none" xmlns="http://www.w3.org/2000/svg">
<path fill-rule="evenodd" clip-rule="evenodd" d="M11.7802 2C7.86811 2 4.48593 4.82791 4.15884 8.72634C4.06365 9.86088 4 10.9952 4 12C4 13.0048 4.06365 14.1391 4.15884 15.2737C4.48593 19.1721 7.86811 22 11.7802 22H12.2198C16.1319 22 19.5141 19.1721 19.8412 15.2737C19.9363 14.1391 20 13.0048 20 12C20 10.9952 19.9363 9.86088 19.8412 8.72634C19.5141 4.82791 16.1319 2 12.2198 2H11.7802ZM12.6 5.2L11 4V6V10L8.6 8.2L7.4 9.8L10.3333 12L7.4 14.2L8.6 15.8L11 14V18V20L12.6 18.8L16.6 15.8L17.6667 15L16.6 14.2L13.6667 12L16.6 9.8L17.6667 9L16.6 8.2L12.6 5.2ZM13 8V10L14.3333 9L13 8ZM14.3333 15L13 14V16L14.3333 15Z" fill="black"/>
</svg>
