<svg width="24" height="24" viewBox="0 0 24 24" fill="none" xmlns="http://www.w3.org/2000/svg">
<path fill-rule="evenodd" clip-rule="evenodd" d="M16.0963 4.89916C16.0963 4.89916 14.5 3.80876 14.0266 2C9.82427 6.93298 15.4869 8.04239 15.4869 13.0074C15.4869 14.994 13.9883 16.5238 12 16.5238C10.5802 16.5238 9.30428 15.6438 9.30428 14.3623C9.30428 13.0808 11.2929 12.8717 12 12.8717C12.9392 12.8717 13.8268 12.2296 13.8268 11.3225L11.7984 10.3207C11.7984 10.3207 10.7122 8.90144 11.0743 6.4525C9.59811 6.70021 8.82212 7.85845 8.53974 8.02442C7.81559 7.51 7.14714 6.81427 6.31159 6.20204C4.11419 7.81878 3 10.0845 3 13.0074C3 17.9739 7.02946 22 12 22C16.9705 22 21 17.9739 21 13.0074C21 11.1644 20.4451 9.45079 19.493 8.02442C17.8797 5.60724 16.6446 4.00313 16.6446 4.00313C16.6446 4.00313 16.0963 4.47645 16.0963 4.89916Z" fill="black"/>
</svg>
