<svg width="24" height="24" viewBox="0 0 24 24" fill="none" xmlns="http://www.w3.org/2000/svg">
<path fill-rule="evenodd" clip-rule="evenodd" d="M15.186 6.73951C15.186 6.73951 13.9445 5.89417 13.5762 4.49192C12.7659 5.44005 12.5076 6.22389 12.5773 6.92527C12.7577 8.73944 14.7446 9.77649 15.2758 11.4954C15.4282 11.9887 15.5055 12.5368 15.5055 13.1826C15.5055 14.7847 14.1939 16.4726 12.2643 16.4726C11.0032 16.4726 9.8556 15.7859 9.3385 14.7079C8.655 13.283 10.1485 12.9848 11.6938 12.8277C12.5756 12.7381 13.5001 12.6377 13.5001 11.4954L11.5001 10.4959C11.5001 10.4959 10.5001 9.52533 11.0001 7.99712C9.85195 8.18916 9.27316 8.90524 9.05353 9.03391C9.05353 9.03391 8.22556 8.22422 7.57568 7.74958C5.86659 9.00297 5 10.7595 5 13.0255C5 16.8758 8.13402 19.9971 12 19.9971C15.866 19.9971 19 16.8758 19 13.0255C19 11.5967 18.5684 10.2682 17.8279 9.1624C16.5731 7.28846 15.6125 6.04486 15.6125 6.04486C15.6125 6.04486 15.186 6.4118 15.186 6.73951ZM15.9064 3.15428L15.4058 3.58503L14.004 1.99609C12.3561 3.00878 10.9543 3.94953 10.6187 6.03433C10.0732 6.13106 9.60726 6.3015 9.2172 6.49502C8.68955 6.06192 8.12421 5.67436 7.57324 5.27196C4.90343 7.22991 3 9.50429 3 13.0255C3 17.9866 7.03623 21.9961 12 21.9961C16.9638 21.9961 21 17.9866 21 13.0255C21 11.1882 20.4437 9.47468 19.49 8.0505C18.8455 7.088 18.2762 6.28686 17.8666 5.72446C17.2322 4.85328 16.5652 4.00712 15.9064 3.15428Z" fill="black"/>
</svg>
