<svg width="24" height="24" viewBox="0 0 24 24" fill="none" xmlns="http://www.w3.org/2000/svg">
<path fill-rule="evenodd" clip-rule="evenodd" d="M12.7862 6.05082L13.0449 4.06762C14.694 4.28273 16.1852 5.00007 17.3601 6.06111L10.5 10.5L6.06111 17.3601C5.00007 16.1852 4.28273 14.694 4.06762 13.0449L6.05082 12.7862C6.01737 12.5298 6 12.2674 6 12C6 11.7326 6.01737 11.4702 6.05082 11.2138L4.06762 10.9551C4.53494 7.37254 7.37254 4.53494 10.9551 4.06762L11.2138 6.05082C11.4702 6.01737 11.7326 6 12 6C12.2674 6 12.5298 6.01737 12.7862 6.05082ZM6.6399 17.9389C7.81478 18.9999 9.30603 19.7173 10.9551 19.9324L11.2138 17.9492C11.4702 17.9826 11.7326 18 12 18C12.2674 18 12.5298 17.9826 12.7862 17.9492L13.0449 19.9324L13.0189 19.9357C16.6137 19.4788 19.4639 16.6361 19.9324 13.0449L17.9492 12.7862C17.9826 12.5298 18 12.2674 18 12C18 11.7326 17.9826 11.4702 17.9492 11.2138L19.9324 10.9551L19.9357 10.9811C19.7248 9.32168 19.0055 7.82094 17.9389 6.6399L13.5 13.5L6.6399 17.9389ZM2 12C2 6.47715 6.47715 2 12 2C17.5228 2 22 6.47715 22 12C22 17.5228 17.5228 22 12 22C6.47715 22 2 17.5228 2 12ZM13 12C13 12.5523 12.5523 13 12 13C11.4477 13 11 12.5523 11 12C11 11.4477 11.4477 11 12 11C12.5523 11 13 11.4477 13 12Z" fill="black"/>
</svg>
