<svg width="24" height="24" viewBox="0 0 24 24" fill="none" xmlns="http://www.w3.org/2000/svg">
<path fill-rule="evenodd" clip-rule="evenodd" d="M4.75008 8.61602C4.8793 8.34019 5.02388 8.07285 5.18275 7.81509C5.33412 7.60995 5.53139 7.43195 5.89349 7.28974C6.30025 7.12999 6.9469 7.00391 8.00882 7.00391C9.05975 7.00391 10.1025 7.22925 11.0165 7.63085C9.71088 8.10513 8.55477 8.88992 7.63793 9.89481C6.26011 11.4049 5.41858 13.4165 5.41858 15.6223C5.41858 15.963 5.43866 16.299 5.4777 16.6294C4.54707 15.3225 4 13.7248 4 12C4 10.7886 4.2691 9.6427 4.75001 8.61616C4.75001 8.61615 4.75002 8.61615 4.75002 8.61614C4.75004 8.6161 4.75006 8.61606 4.75008 8.61602ZM3.84408 8.19176L3.84469 8.19204L3.84408 8.19176ZM8.1235 5.00461C10.0395 5.02813 11.9566 5.63972 13.4257 6.7221C14.9329 7.83252 16.0212 9.48787 16.0212 11.5273C16.0212 12.1747 15.9005 12.7472 15.7574 13.199C16.0995 13.376 16.5163 13.5086 17.039 13.5086C17.8816 13.5086 18.6231 13.1298 19.1677 12.5657C19.7279 11.9855 20 11.2938 20 10.7889C20 8.59917 19.1301 6.93806 17.7427 5.80503C16.3337 4.65446 14.3265 4 12.0159 4C10.6034 4 9.2762 4.36441 8.1235 5.00461ZM3.51868 6.70372C5.28732 3.88056 8.43157 2 12.0159 2C14.6846 2 17.1694 2.75471 19.0077 4.25594C20.8675 5.77471 22 8.00805 22 10.7889C22 11.9149 21.4483 13.083 20.6065 13.9549C19.749 14.843 18.51 15.5086 17.039 15.5086C15.4925 15.5086 14.4745 14.8082 13.9138 14.3741L13.2603 13.8681L13.6342 13.131C13.7653 12.8724 14.0212 12.2663 14.0212 11.5273C14.0212 10.6522 13.7038 9.85229 13.1361 9.16884C11.6858 9.34265 10.382 9.99408 9.38586 10.9635C9.5882 15.2948 13.102 18.7805 17.3929 17.989L18.1962 19.7555L17.5743 18.9724C18.1962 19.7555 18.196 19.7556 18.1958 19.7558L18.1952 19.7562L18.194 19.7572L18.1908 19.7597L18.1816 19.7669L18.1521 19.7897C18.1275 19.8085 18.0932 19.8343 18.0497 19.8662C17.9627 19.9299 17.8386 20.018 17.6816 20.1223C17.3681 20.3304 16.9195 20.6056 16.3693 20.8806C15.281 21.4247 13.7326 22 12.0159 22C6.48592 22 2 17.5245 2 12C2 10.4893 2.33621 9.0542 2.9389 7.7677L2.94564 7.75331C2.94564 7.75331 2.94564 7.7533 2.94565 7.7533C2.95018 7.74362 2.95475 7.73386 2.95935 7.72402C3.09831 7.42718 3.27283 7.05437 3.51868 6.70372ZM13.7521 19.7566C10.8368 18.8696 8.66269 16.3953 7.79284 13.4425C7.55044 14.1237 7.41858 14.8574 7.41858 15.6223C7.41858 16.9373 7.80807 18.1588 8.47814 19.1808C9.54501 19.7053 10.7458 20 12.0159 20C12.6149 20 13.2015 19.9052 13.7521 19.7566Z" fill="black"/>
</svg>
