<svg width="24" height="24" viewBox="0 0 24 24" fill="none" xmlns="http://www.w3.org/2000/svg">
<path d="M13.8528 13.6808C13.7667 13.7586 13.6407 13.8725 13.6407 14.0671C13.6407 14.2703 13.7736 14.4735 14.0159 14.6376C15.1113 15.4036 17.1677 15.3137 17.2564 15.3099L17.2593 15.3097C18.0925 15.3092 18.9102 15.0852 19.6274 14.6611C20.3494 14.2388 20.9485 13.6351 21.3652 12.9099C21.782 12.1847 22.0019 11.3631 22.0033 10.5267C22.0267 8.77611 21.3781 7.61154 21.1201 7.09569C19.4554 3.86008 15.8838 2 11.9995 2C9.37051 1.99974 6.84709 3.03438 4.975 4.88014C4.18564 5.6584 3.53883 6.55449 3.05193 7.52773C3.53849 7.20594 5.09361 6.01013 8.00347 6.01013C11.2402 6.01013 14.5129 8.43685 14.5129 12.0788L14.5082 12.0789L14.5082 12.082C14.5082 12.6093 14.237 13.3335 13.8528 13.6808Z" fill="black"/>
<path d="M2.00391 12.0921C2.02215 13.5276 2.34397 14.9439 2.94917 16.2476C3.99119 18.4664 5.81162 20.2254 8.06489 21.1907C9.02915 21.6038 8.73101 21.4839 8.73101 21.4839C6.49364 19.3961 5.99897 17.0343 6.00067 15.5218C6.00462 11.9951 8.20291 9.69636 10.4285 8.65878C9.57565 8.20193 8.74194 7.99778 8.00137 7.99778C5.49567 7.99778 2.94912 9.27537 2.00391 12.0921Z" fill="black"/>
<path d="M20.4715 17.3261C20.5421 17.209 20.5249 17.049 20.4309 16.9497C20.3369 16.8504 20.1781 16.8244 20.0572 16.8885C19.7889 17.0279 19.5123 17.1506 19.2288 17.2558C18.3312 17.5899 17.3808 17.7593 16.4231 17.756C12.7263 17.756 9.50636 15.216 9.50636 11.9491C9.50724 11.8691 9.51202 11.7893 9.52062 11.7102C8.95557 12.2541 7.98793 13.6646 7.98793 15.495C7.98793 17.3239 8.83148 18.9451 10.1133 20.0418C12.0001 21.6562 15.6204 21.8306 18.0001 20.0418C18.9776 19.3071 19.8224 18.3548 20.4715 17.3261Z" fill="black"/>
</svg>
