<svg width="24" height="24" viewBox="0 0 24 24" fill="none" xmlns="http://www.w3.org/2000/svg">
<path fill-rule="evenodd" clip-rule="evenodd" d="M15.7761 13.3316C15.9212 12.9174 16 12.4721 16 12.0084C16 11.2795 15.8052 10.5961 15.4649 10.0075H21.8C21.9311 10.654 22 11.3232 22 12.0084C22 16.9619 18.4014 21.0745 13.677 21.8725L15.7761 13.3316ZM13.0956 15.8581C12.7474 15.9571 12.3799 16.0101 12 16.0101C10.8767 16.0101 9.8615 15.5468 9.13494 14.8009L2.63935 8.48091C2.2261 9.57793 2 10.7667 2 12.0084C2 17.3945 6.25464 21.7865 11.5851 22.0042L13.0956 15.8581ZM8.12189 11.0242L3.58157 6.6066C5.36018 3.83811 8.46601 2.00415 12 2.00415C16.1006 2.00415 19.6248 4.47338 21.1679 8.00669H12C10.1303 8.00669 8.56027 9.28998 8.12189 11.0242ZM12 14.0092C13.1046 14.0092 14 13.1134 14 12.0084C14 10.9033 13.1046 10.0075 12 10.0075C10.8954 10.0075 10 10.9033 10 12.0084C10 13.1134 10.8954 14.0092 12 14.0092Z" fill="black"/>
</svg>
