<svg width="24" height="24" viewBox="0 0 24 24" fill="none" xmlns="http://www.w3.org/2000/svg">
<path fill-rule="evenodd" clip-rule="evenodd" d="M22 12C22 17.5228 17.5228 22 12 22C6.47715 22 2 17.5228 2 12C2 6.47715 6.47715 2 12 2C17.5228 2 22 6.47715 22 12ZM10.4462 10.5L5.27484 18.0552C5.48526 18.2885 5.71147 18.5147 5.94478 18.7252L13.4462 13.5L18.7252 5.94478C18.5147 5.71147 18.2885 5.48526 18.0552 5.27484L10.4462 10.5ZM16.5255 4.16101L15.519 5.90194C15.3055 5.77847 15.0868 5.66718 14.864 5.56805L15.6815 3.73077C15.9686 3.8585 16.2503 4.00191 16.5255 4.16101ZM13.8817 3.14744L13.4655 5.11484C13.2246 5.06387 12.9814 5.0256 12.737 5.00006L12.946 3C13.2598 3.03279 13.5721 3.08194 13.8817 3.14744ZM11.054 3L11.263 5.00006C11.0186 5.0256 10.7754 5.06387 10.5345 5.11484L10.1183 3.14744C10.4279 3.08194 10.7402 3.03279 11.054 3ZM8.31849 3.73077L9.13599 5.56805C8.9132 5.66718 8.69455 5.77847 8.481 5.90194L7.47448 4.16101C7.74966 4.00191 8.03143 3.8585 8.31849 3.73077ZM5.94478 5.27484L7.29161 6.76814C7.10957 6.93232 6.93232 7.10957 6.76814 7.29161L5.27484 5.94478C5.48526 5.71147 5.71147 5.48526 5.94478 5.27484ZM4.16101 7.47448L5.90194 8.481C5.77847 8.69455 5.66719 8.9132 5.56805 9.13599L3.73077 8.31849C3.8585 8.03143 4.00191 7.74966 4.16101 7.47448ZM3.14744 10.1183L5.11484 10.5345C5.06387 10.7754 5.0256 11.0186 5.00006 11.263L3 11.054C3.03279 10.7402 3.08194 10.4279 3.14744 10.1183ZM3 12.946L5.00006 12.737C5.0256 12.9814 5.06387 13.2246 5.11484 13.4655L3.14744 13.8817C3.08194 13.5721 3.03279 13.2598 3 12.946ZM3.73077 15.6815L5.56805 14.864C5.66719 15.0868 5.77847 15.3055 5.90194 15.519L4.16101 16.5255C4.00191 16.2503 3.8585 15.9686 3.73077 15.6815ZM7.47448 19.839L8.481 18.0981C8.69455 18.2215 8.9132 18.3328 9.13599 18.4319L8.31849 20.2692C8.03143 20.1415 7.74966 19.9981 7.47448 19.839ZM10.1183 20.8526L10.5345 18.8852C10.7754 18.9361 11.0186 18.9744 11.263 18.9999L11.054 21C10.7402 20.9672 10.4279 20.9181 10.1183 20.8526ZM12.946 21L12.737 18.9999C12.9814 18.9744 13.2246 18.9361 13.4655 18.8852L13.8817 20.8526C13.5721 20.9181 13.2598 20.9672 12.946 21ZM15.6815 20.2692L14.864 18.4319C15.0868 18.3328 15.3055 18.2215 15.519 18.0981L16.5255 19.839C16.2503 19.9981 15.9686 20.1415 15.6815 20.2692ZM18.0552 18.7252L16.7084 17.2319C16.8904 17.0677 17.0677 16.8904 17.2319 16.7084L18.7252 18.0552C18.5147 18.2885 18.2885 18.5147 18.0552 18.7252ZM19.839 16.5255L18.0981 15.519C18.2215 15.3055 18.3328 15.0868 18.4319 14.864L20.2692 15.6815C20.1415 15.9686 19.9981 16.2503 19.839 16.5255ZM20.8526 13.8817L18.8852 13.4655C18.9361 13.2246 18.9744 12.9814 18.9999 12.737L21 12.946C20.9672 13.2598 20.9181 13.5721 20.8526 13.8817ZM21 11.054L18.9999 11.263C18.9744 11.0186 18.9361 10.7754 18.8852 10.5345L20.8526 10.1183C20.9181 10.4279 20.9672 10.7402 21 11.054ZM20.2692 8.31849L18.4319 9.13599C18.3328 8.9132 18.2215 8.69455 18.0981 8.481L19.839 7.47448C19.9981 7.74966 20.1415 8.03143 20.2692 8.31849Z" fill="black"/>
</svg>
