<svg width="24" height="24" viewBox="0 0 24 24" fill="none" xmlns="http://www.w3.org/2000/svg">
<path fill-rule="evenodd" clip-rule="evenodd" d="M5.05528 8.02559L8.12115 11.0191C8.55852 9.28419 10.1293 8 12 8L18.93 7.99995C17.5463 5.60797 14.96 4 12 4C9.02973 4 6.43578 5.61875 5.05528 8.02559ZM19.7482 9.99995L15.4649 9.99998C15.8052 10.5883 16 11.2714 16 12C16 12.3981 15.9418 12.7827 15.8335 13.1456L14.2077 19.6917C17.552 18.7337 20 15.6523 20 12C20 11.3084 19.9125 10.6384 19.7482 9.99995ZM12.0705 19.9997L13.102 15.8463C12.752 15.9464 12.3822 16 12 16C10.9033 16 9.9097 15.5586 9.18711 14.8439L9.18148 14.8496L4.24437 10.0291C4.08485 10.659 4 11.3191 4 12C4 16.4183 7.58172 20 12 20C12.0235 20 12.047 19.9999 12.0705 19.9997ZM13.9139 12.5824L13.9127 12.5821L13.9077 12.6024C13.6521 13.4126 12.8947 14 12 14C10.8954 14 10 13.1046 10 12C10 10.8954 10.8954 10 12 10C13.1046 10 14 10.8954 14 12C14 12.2026 13.9699 12.3981 13.9139 12.5824ZM2.9202 7.80469C4.50518 4.37953 7.97367 2 12 2C16.3556 2 20.0584 4.7841 21.4307 8.66669C21.7997 9.71059 22 10.833 22 12C22 17.2001 18.0315 21.4722 12.9572 21.9547C12.6419 21.9847 12.3226 22 12 22C6.47715 22 2 17.5228 2 12C2 10.5038 2.32925 9.08175 2.9202 7.80469Z" fill="black"/>
</svg>
