<svg width="24" height="24" viewBox="0 0 24 24" fill="none" xmlns="http://www.w3.org/2000/svg">
<path fill-rule="evenodd" clip-rule="evenodd" d="M9.65791 19.1578L8.5 21C5.65006 20.3387 3.83333 18.7698 2 16.8764C2 13.4631 2.33237 10.0693 3.46436 6.87073C5.66511 4.8283 8.34187 4.24276 10 4V5.00391C7.00723 5.87044 5.99609 7.39453 5.99609 7.39453C7.31825 6.56008 9.5 5.87044 12 5.87044C14.5 5.87044 16.6412 6.53074 18 7.39062C18 7.39062 17.0228 5.87044 14 5.00781V4.00391C15.6739 4.22746 18.3079 4.83759 20.5623 6.87073C21.7165 10.0558 21.9997 13.4904 21.9997 16.8757C19.9977 18.8707 18.0882 20.3387 15.5 21L14.3419 19.1572C14.3419 19.1572 17.0302 17.8707 18.6987 15.8729C16.2703 17.7065 13 17.8707 12 17.8707C11 17.8707 7.93835 17.7784 5.26393 15.8528C6.99339 17.8707 9.65791 19.1578 9.65791 19.1578ZM10 12.8711C10 13.9757 9.32843 14.8711 8.5 14.8711C7.67157 14.8711 7 13.9757 7 12.8711C7 11.7665 7.67157 10.8711 8.5 10.8711C9.32843 10.8711 10 11.7665 10 12.8711ZM15.5 14.8711C16.3284 14.8711 17 13.9757 17 12.8711C17 11.7665 16.3284 10.8711 15.5 10.8711C14.6716 10.8711 14 11.7665 14 12.8711C14 13.9757 14.6716 14.8711 15.5 14.8711Z" fill="black"/>
</svg>
