<svg width="24" height="24" viewBox="0 0 24 24" fill="none" xmlns="http://www.w3.org/2000/svg">
<path fill-rule="evenodd" clip-rule="evenodd" d="M5.45755 6.63285C6.00134 6.44785 7.17467 6.09633 8.5 6L8.81691 6.72929C7.5 7.5 7 8.5 7 8.5L7.44534 9.32932C8.82012 8.63713 10.6492 8.33844 12 8.33844C13.3652 8.33844 15.1094 8.58329 16.5444 9.33327L17 8.5C17 8.5 16.5 7.5 15.1867 6.71476L15.5 6C16.8352 6.097 18.0168 6.45247 18.5574 6.63685C19.8448 9.41552 19.9671 13.2272 19.9977 16.5224C19.108 17.3525 17.9366 18.0615 16.5761 18.5569L16.2072 17.6514C17 17 18 15.5 18 15.5L17.4474 14.8122C15.6582 15.993 13.759 16.3387 12 16.3387C10.2399 16.3387 8.34304 15.9967 6.55535 14.8058L6 15.5C6 15.5 7 17 7.79299 17.651L7.42393 18.5569C6.06245 18.0612 4.89742 17.3573 4.00231 16.5225C4.03861 13.2498 4.22717 9.42716 5.45755 6.63285ZM9.74614 18.1578L8.58823 21C6.08721 20.2897 3.82457 19.2287 2 17.3444C2 13.1611 2.17408 8.843 4 5C5.5 4.5 7.93014 4 10 4L10.7807 6.33844H13.2193L14 4C16.0741 4 19 4.5 20 5C21.7912 8.96174 21.9997 13.0491 21.9997 17.3437C20.169 19.2387 17.9037 20.2922 15.4118 21L14.2536 18.1572C13.4775 18.2881 12.7203 18.3387 12 18.3387C11.2801 18.3387 10.5227 18.2886 9.74614 18.1578ZM11 12.5C11 13.3284 10.3284 14 9.5 14C8.67157 14 8 13.3284 8 12.5C8 11.6716 8.67157 11 9.5 11C10.3284 11 11 11.6716 11 12.5ZM14.5 14C15.3284 14 16 13.3284 16 12.5C16 11.6716 15.3284 11 14.5 11C13.6716 11 13 11.6716 13 12.5C13 13.3284 13.6716 14 14.5 14Z" fill="black"/>
</svg>
