<svg width="24" height="24" viewBox="0 0 24 24" fill="none" xmlns="http://www.w3.org/2000/svg">
<path fill-rule="evenodd" clip-rule="evenodd" d="M7.37349 3.13229C4.80486 4.47516 2.89215 6.90134 2.24179 9.80441C3.24022 10.0355 4.419 10.1989 5.75637 10.1989C7.84779 10.1989 9.85146 9.82474 11.7044 9.13959C10.6766 7.33287 9.48862 5.62895 8.15973 4.04713C7.89016 3.72626 7.62797 3.42153 7.37349 3.13229ZM12.5145 10.651C10.4165 11.457 8.13784 11.8989 5.75637 11.8989C4.34674 11.8989 3.09174 11.7344 2.01251 11.4955C2.0042 11.6626 2 11.8308 2 12C2 14.8705 3.20949 17.4586 5.14665 19.2823C5.18495 19.213 5.22413 19.1436 5.26419 19.0744C7.04146 16.002 9.96682 13.6744 13.4547 12.6796C13.1629 11.9916 12.8492 11.3151 12.5145 10.651ZM15.1433 12.3109C14.8143 11.5154 14.4576 10.7343 14.0743 9.96886C15.8386 9.09993 17.4471 7.96333 18.8467 6.61228C19.1701 6.30015 19.4722 5.99024 19.7541 5.68496C21.1581 7.4068 22 9.60508 22 12C22 12.3276 21.9842 12.6515 21.9535 12.971C21.8053 12.9144 21.6609 12.863 21.5221 12.8182C19.6829 12.224 18.7272 12.15 17.2608 12.15C16.5408 12.15 15.8336 12.205 15.1433 12.3109ZM14.0822 14.2699C10.9529 15.1158 8.32365 17.1806 6.73572 19.9256C6.65335 20.068 6.57528 20.2108 6.50131 20.3538C8.07894 21.3944 9.96874 22 12 22C13.3574 22 14.6516 21.7296 15.8316 21.2396C15.7751 20.8839 15.7147 20.519 15.6501 20.1451C15.3003 18.1201 14.7721 16.1561 14.0822 14.2699ZM17.4185 20.4062C17.3884 20.2248 17.3573 20.0413 17.3253 19.8557C16.9736 17.8199 16.4502 15.843 15.7707 13.9404C16.2591 13.8807 16.7564 13.85 17.2608 13.85C18.5856 13.85 19.3602 13.9063 20.9995 14.4358C21.1923 14.4981 21.4076 14.5795 21.6381 14.6754C20.9765 17.064 19.4507 19.0935 17.4185 20.4062ZM13.2768 8.46662C12.1762 6.50757 10.897 4.66253 9.46136 2.95362C9.31608 2.78069 9.17277 2.61217 9.03146 2.44798C9.96935 2.15682 10.9664 2 12 2C14.5149 2 16.8129 2.92833 18.5701 4.46101C18.2914 4.76563 17.9905 5.07599 17.666 5.38918C16.3796 6.63096 14.9001 7.67327 13.2768 8.46662Z" fill="black"/>
</svg>
