<svg width="24" height="24" viewBox="0 0 24 24" fill="none" xmlns="http://www.w3.org/2000/svg">
<path fill-rule="evenodd" clip-rule="evenodd" d="M5 3C3.89543 3 3 3.89543 3 5V19C3 20.1046 3.89543 21 5 21H19C20.1046 21 21 20.1046 21 19V5C21 3.89543 20.1046 3 19 3H5ZM12.8688 9.50571C12.3197 8.53894 11.7054 7.61412 11.0319 6.73724C11.3456 6.67996 11.6691 6.65 12 6.65C13.2786 6.65 14.4518 7.09792 15.3724 7.84645C14.6082 8.51579 13.7656 9.06912 12.8688 9.50571ZM13.4803 10.6541C14.4797 10.1631 15.4207 9.53984 16.2755 8.78341C16.9504 9.67889 17.35 10.7923 17.35 12C17.35 12.068 17.3487 12.1357 17.3462 12.203C16.2846 11.9967 15.2055 11.9804 14.1574 12.1385C13.9481 11.6348 13.7222 11.1397 13.4803 10.6541ZM14.6351 13.386C15.4623 13.2907 16.308 13.321 17.1406 13.4875C16.8395 14.5301 16.2292 15.4427 15.4147 16.1188C15.2079 15.1862 14.9469 14.2742 14.6351 13.386ZM13.3458 13.6405C13.7206 14.6802 14.0215 15.7552 14.2423 16.859C13.5608 17.1741 12.8016 17.35 12 17.35C10.9346 17.35 9.94293 17.0391 9.10943 16.5028C10.1808 15.0933 11.6873 14.1079 13.3458 13.6405ZM12.8677 12.4256C11.0112 12.9761 9.32587 14.0898 8.10854 15.6715C7.2043 14.7135 6.6508 13.4231 6.65 12.0031C8.57467 12.1104 10.4994 11.8336 12.2842 11.1688C12.491 11.5807 12.6857 11.9998 12.8677 12.4256ZM11.6608 10.0122C10.1247 10.5584 8.47162 10.7919 6.80655 10.7096C7.19544 9.13923 8.27887 7.84112 9.71292 7.16193C10.4315 8.05887 11.0833 9.01148 11.6608 10.0122ZM12 5.35C11.1859 5.35 10.4045 5.4966 9.68183 5.7654C7.38408 6.62006 5.68589 8.70834 5.39436 11.2283C5.36504 11.4817 5.35 11.7392 5.35 12C5.35 14.0806 6.3063 15.9384 7.80087 17.1568C8.94562 18.09 10.4083 18.65 12 18.65C13.1969 18.65 14.3217 18.3332 15.2932 17.7785C16.9894 16.8099 18.2192 15.115 18.557 13.1143C18.6182 12.7515 18.65 12.3792 18.65 12C18.65 10.2125 17.9439 8.5885 16.7967 7.39408C15.5874 6.13497 13.8848 5.35 12 5.35Z" fill="black"/>
</svg>
