<svg width="24" height="24" viewBox="0 0 24 24" fill="none" xmlns="http://www.w3.org/2000/svg">
<path fill-rule="evenodd" clip-rule="evenodd" d="M10.5926 4.12323C11.5989 5.43654 12.5168 6.82131 13.3375 8.26861C14.6773 7.59993 15.9165 6.75943 17.0264 5.7758C15.6523 4.66447 13.9044 4 12 4C11.5193 4 11.0491 4.04228 10.5926 4.12323ZM18.4142 7.21803C17.171 8.32925 15.7804 9.27945 14.2753 10.0356C14.6177 10.7266 14.9386 11.43 15.2371 12.1452C15.8978 12.0495 16.5735 12 17.2608 12C18.196 12 19.1105 12.0918 19.9956 12.2672C19.9985 12.1785 20 12.0894 20 12C20 10.2066 19.4108 8.55228 18.4142 7.21803ZM19.6812 14.244C18.9001 14.0841 18.0907 14 17.2608 14C16.8265 14 16.3976 14.0231 15.9752 14.068C16.4392 15.3893 16.8284 16.7459 17.1375 18.1327C18.3346 17.1287 19.2329 15.7814 19.6812 14.244ZM15.335 19.2741C15.0032 17.6201 14.5512 16.0093 13.9887 14.4514C11.4512 15.1689 9.25499 16.7002 7.69969 18.7473C8.94148 19.5406 10.4162 20 12 20C13.1917 20 14.3207 19.74 15.335 19.2741ZM6.16028 17.468C7.93004 15.1688 10.3994 13.434 13.2505 12.583C12.9967 11.9927 12.7267 11.4111 12.441 10.8386C10.3615 11.6204 8.10868 12.0481 5.75637 12.0481H4.00014C4.01248 14.1435 4.82959 16.0477 6.16028 17.468ZM4.23982 10.0481H5.75637C7.76693 10.0481 9.69562 9.69937 11.4855 9.05885C10.6192 7.55434 9.64095 6.12229 8.56209 4.77402C6.43338 5.78865 4.8246 7.71577 4.23982 10.0481ZM8.51386 2.62473C9.60066 2.22046 10.7757 2 12 2C14.8294 2 17.3858 3.17638 19.2037 5.06405C20.9343 6.86106 22 9.30711 22 12C22 12.5701 21.9522 13.1298 21.8601 13.6752C21.3523 16.684 19.503 19.2329 16.9522 20.6895C15.4913 21.5237 13.7997 22 12 22C9.60657 22 7.40713 21.1579 5.68573 19.7547C3.43817 17.9227 2 15.1289 2 12C2 7.70167 4.71144 4.03915 8.51386 2.62473Z" fill="black"/>
</svg>
