<svg width="24" height="24" viewBox="0 0 24 24" fill="none" xmlns="http://www.w3.org/2000/svg">
<path fill-rule="evenodd" clip-rule="evenodd" d="M12 6.88973L7.87181 4L2 8.11027L6.12818 11L2 13.8897L7.87181 18L12 15.1103L16.1282 18L22 13.8897L17.8718 11L22 8.11027L16.1282 4L12 6.88973ZM5.48726 13.8897L7.87181 12.2205L10.2564 13.8897L7.87181 15.5589L5.48726 13.8897ZM9.61545 11L12 12.6692L14.3846 11L12 9.33081L9.61545 11ZM16.1282 15.5589L13.7436 13.8897L16.1282 12.2205L18.5127 13.8897L16.1282 15.5589ZM18.5127 8.11027L16.1282 9.77946L13.7436 8.11027L16.1282 6.44108L18.5127 8.11027ZM7.87181 9.77946L10.2564 8.11027L7.87181 6.44108L5.48726 8.11027L7.87181 9.77946ZM14.9999 19L12 17L8.99994 19L12 21L14.9999 19Z" fill="black"/>
</svg>
