<svg width="24" height="24" viewBox="0 0 24 24" fill="none" xmlns="http://www.w3.org/2000/svg">
<path fill-rule="evenodd" clip-rule="evenodd" d="M7.86822 4L12 6.91069L16.1318 4L22 8.13396L17.8682 11.0447L22 13.9553L12 21L2 13.9553L6.13178 11.0447L2 8.13396L7.86822 4ZM7.86822 12.2679L5.47288 13.9553L7.86822 15.6428L10.2636 13.9553L7.86822 12.2679ZM12 12.7321L9.60466 11.0447L12 9.35722L14.3953 11.0447L12 12.7321ZM12 15.1786L9.60466 16.866L12 18.5535L14.3953 16.866L12 15.1786ZM16.1318 15.6428L13.7364 13.9553L16.1318 12.2679L18.5271 13.9553L16.1318 15.6428ZM16.1318 9.82139L18.5271 8.13396L16.1318 6.44653L13.7364 8.13396L16.1318 9.82139ZM10.2636 8.13396L7.86822 9.82139L5.47288 8.13396L7.86822 6.44653L10.2636 8.13396Z" fill="black"/>
</svg>
