<svg width="24" height="24" viewBox="0 0 24 24" fill="none" xmlns="http://www.w3.org/2000/svg">
<path fill-rule="evenodd" clip-rule="evenodd" d="M4 12C4 7.58172 7.58172 4 12 4C16.4183 4 20 7.58172 20 12C20 16.0796 16.9463 19.446 13 19.9381V15H15V12H13V11C13 10.4477 13.4477 10 14 10H15V7L12.9998 7.00011C11.343 7.0002 10 8.34332 10 10.0001V12H8V15H10V19.748C6.54955 18.8599 4 15.7277 4 12ZM12 2C6.47715 2 2 6.47715 2 12C2 17.5228 6.47715 22 12 22C17.5228 22 22 17.5228 22 12C22 6.47715 17.5228 2 12 2Z" fill="black"/>
</svg>
