<svg width="24" height="24" viewBox="0 0 24 24" fill="none" xmlns="http://www.w3.org/2000/svg">
<path fill-rule="evenodd" clip-rule="evenodd" d="M2.29325 11.2926L7.99837 5.58721L10.5609 8.14989C10.5292 8.27088 10.5123 8.39788 10.5123 8.52884C10.5123 9.0772 10.8087 9.55628 11.25 9.81443V15.1779C10.8087 15.4361 10.5123 15.9152 10.5123 16.4635C10.5123 17.2854 11.1782 17.9517 11.9995 17.9517C12.8209 17.9517 13.4868 17.2854 13.4868 16.4635C13.4868 15.9155 13.1907 15.4367 12.75 15.1784V10.339L14.5281 12.1172C14.4964 12.2382 14.4795 12.3652 14.4795 12.4962C14.4795 13.3181 15.1453 13.9843 15.9667 13.9843C16.7881 13.9843 17.4539 13.3181 17.4539 12.4962C17.4539 11.6743 16.7881 11.0081 15.9667 11.0081C15.8361 11.0081 15.7094 11.0249 15.5888 11.0565L13.4385 8.90622C13.47 8.78571 13.4868 8.65923 13.4868 8.52884C13.4868 7.70696 12.8209 7.0407 11.9995 7.0407C11.8689 7.0407 11.7423 7.05755 11.6216 7.08918L9.05901 4.52653L11.293 2.29248C11.6835 1.90194 12.3167 1.90194 12.7072 2.29248L21.7069 11.2926C22.0974 11.6831 22.0974 12.3162 21.7069 12.7067L12.7072 21.7068C12.3167 22.0974 11.6835 22.0974 11.293 21.7068L2.29325 12.7067C1.90274 12.3162 1.90274 11.6831 2.29325 11.2926Z" fill="black"/>
</svg>
