<svg width="24" height="24" viewBox="0 0 24 24" fill="none" xmlns="http://www.w3.org/2000/svg">
<path fill-rule="evenodd" clip-rule="evenodd" d="M10.5861 2.58579C11.3671 1.80474 12.6335 1.80474 13.4145 2.58579L21.4148 10.5861C22.1958 11.3671 22.1958 12.6335 21.4148 13.4145L13.4145 21.4148C12.6335 22.1958 11.3671 22.1958 10.5861 21.4148L2.58579 13.4145C1.80474 12.6335 1.80474 11.3671 2.58579 10.5861L10.5861 2.58579ZM9.20406 6.79623L4 12.0003L12.0003 20.0006L20.0006 12.0003L12.0003 4L10.2647 5.73557L11.6227 7.09359C11.7433 7.06203 11.8698 7.04523 12.0002 7.04523C12.8212 7.04523 13.4867 7.71076 13.4867 8.53173C13.4867 8.66217 13.4699 8.78868 13.4384 8.90922L15.0913 10.5621C15.2118 10.5306 15.3383 10.5138 15.4687 10.5138C16.2897 10.5138 16.9552 11.1793 16.9552 12.0003C16.9552 12.8212 16.2897 13.4868 15.4687 13.4868C14.6478 13.4868 13.9822 12.8212 13.9822 12.0003C13.9822 11.8698 13.999 11.7433 14.0306 11.6228L12.7503 10.3424V14.1851C13.1908 14.443 13.4868 14.9213 13.4868 15.4688C13.4868 16.2897 12.8212 16.9553 12.0003 16.9553C11.1793 16.9553 10.5138 16.2897 10.5138 15.4688C10.5138 14.9213 10.8097 14.443 11.2503 14.185V9.81546C10.8096 9.5575 10.5137 9.07917 10.5137 8.53173C10.5137 8.4013 10.5305 8.27479 10.5621 8.15425L9.20406 6.79623Z" fill="black"/>
</svg>
