<svg width="24" height="24" viewBox="0 0 24 24" fill="none" xmlns="http://www.w3.org/2000/svg">
<path fill-rule="evenodd" clip-rule="evenodd" d="M10 19.748V17.5H8.87337C8.0602 17.5 7.32908 17.005 7.02708 16.25L6.71277 15.4642C6.54261 15.0389 5.5 14.5 5.5 14.5H6.36231C6.75128 14.5 7.1028 14.7282 7.31881 15.0517C7.66132 15.5646 8.25786 16.25 9.00003 16.25C9.73809 16.25 9.86669 15.9276 10.0414 15.4895C10.103 15.3352 10.1702 15.1666 10.2718 14.9927C8.44518 14.8751 7 13.3563 7 11.5C7 10.7798 7.21752 10.1104 7.59044 9.55397C7.49661 8.83041 7.53596 7.91521 8.00001 7C9.0141 7 9.90143 7.5 10.5352 8H13.4648C14.0986 7.5 14.9859 7 16 7C16.464 7.91521 16.5034 8.83041 16.4096 9.55397C16.7825 10.1104 17 10.7798 17 11.5C17 13.3563 15.5548 14.8751 13.7282 14.9927C13.901 15.2885 14 15.6327 14 16V19.748C17.4505 18.8599 20 15.7277 20 12C20 7.58172 16.4183 4 12 4C7.58172 4 4 7.58172 4 12C4 15.7277 6.54955 18.8599 10 19.748ZM22 12C22 17.5228 17.5228 22 12 22C6.47715 22 2 17.5228 2 12C2 6.47715 6.47715 2 12 2C17.5228 2 22 6.47715 22 12Z" fill="black"/>
</svg>
