<svg width="24" height="24" viewBox="0 0 24 24" fill="none" xmlns="http://www.w3.org/2000/svg">
<path fill-rule="evenodd" clip-rule="evenodd" d="M14 21.8C18.5645 20.8734 22 16.8379 22 12C22 6.47715 17.5228 2 12 2C6.47715 2 2 6.47715 2 12C2 16.8379 5.43552 20.8734 10 21.8V19H8.34629C7.53318 19 6.80198 18.505 6.5 17.75L6.1857 16.9642C6.0159 16.5398 5 16 5 16C5 15.9975 5.2815 15.9972 5.60061 15.9976C6.16275 15.9984 6.68702 16.2805 6.99885 16.7483C7.31194 17.2179 7.83923 17.5 8.40367 17.5H8.54715H9C9.55228 17.5 9.96484 17.0078 10.0586 16.5H10.063C10.1092 16.3204 10.1798 16.1506 10.2709 15.9943C7.89207 15.875 6 13.9084 6 11.5C6 10.6154 6.25526 9.79036 6.69615 9.0946C6.5126 8.32485 6.41687 7.16243 7.00627 6C8.07555 6 9.0039 6.55591 9.64269 7.08157C11.2093 6.77939 12.8371 6.77199 14.4021 7.09044C15.0412 6.56219 15.974 6 17.0493 6C17.6553 7.19516 17.537 8.39032 17.3437 9.15868C17.7601 9.84079 18 10.6424 18 11.5C18 13.9084 16.1079 15.875 13.7291 15.9943C13.9013 16.2897 14 16.6333 14 17V21.8Z" fill="black"/>
</svg>
