<svg width="24" height="24" viewBox="0 0 24 24" fill="none" xmlns="http://www.w3.org/2000/svg">
<path fill-rule="evenodd" clip-rule="evenodd" d="M13.5 19.8596C13.0141 19.9518 12.5127 20 12 20C7.58172 20 4 16.4183 4 12C4 7.58172 7.58172 4 12 4C16.4183 4 20 7.58172 20 12C20 15.1631 18.1642 17.8975 15.5 19.1958V16.5195C15.5 16.1775 15.4562 15.8717 15.3894 15.6046C16.9302 14.8907 18 13.3311 18 11.5195C18 10.7298 17.7958 9.98557 17.4372 9.33907C17.4919 8.535 17.393 7.55557 16.8919 6.5673L16.6141 6.01953H16C14.8306 6.01953 13.8395 6.51837 13.1325 7.01953H10.8675C10.1605 6.51837 9.16944 6.01953 8.00001 6.01953H7.38585L7.10811 6.5673C6.60701 7.55557 6.50809 8.535 6.56283 9.33907C6.20422 9.98557 6 10.7298 6 11.5195C6 13.1345 6.74886 14.6173 8.53484 15.5758C8.03225 15.539 7.77376 15.4021 7.52625 15.2711C7.26413 15.1323 7.01434 15 6.5 15L6.50005 16.0195C7.07519 16.0195 7.27754 16.2967 7.52315 16.633C7.90228 17.1523 8.38446 17.8127 10.5 17.8127V16.5196C10.5 15.0195 11 14.1169 11 14.1169L10.1416 13.9942C8.931 13.821 8 12.7781 8 11.5195C8 11.0037 8.15514 10.5271 8.42115 10.1302L8.6305 9.81783L8.58214 9.4449C8.52995 9.04248 8.53106 8.58615 8.65009 8.11678C9.10556 8.24976 9.53756 8.50619 9.91586 8.80464L10.1883 9.01953H13.8117L14.0841 8.80464C14.4624 8.50619 14.8944 8.24976 15.3499 8.11678C15.4689 8.58615 15.47 9.04248 15.4179 9.44489L15.3695 9.81782L15.5789 10.1302C15.8449 10.5271 16 11.0037 16 11.5195C16 12.6506 15.2481 13.6086 14.2148 13.9161C14.0994 13.9505 13.9804 13.9767 13.8584 13.9942L13 14.1169C13 14.1169 13.5 15.0195 13.5 16.5195V19.8596ZM22 12C22 17.5228 17.5228 22 12 22C6.47715 22 2 17.5228 2 12C2 6.47715 6.47715 2 12 2C17.5228 2 22 6.47715 22 12Z" fill="black"/>
</svg>
