<svg width="24" height="24" viewBox="0 0 24 24" fill="none" xmlns="http://www.w3.org/2000/svg">
<path fill-rule="evenodd" clip-rule="evenodd" d="M6.34315 6.34311C8.98265 3.70361 13.0088 3.29392 16.0779 5.11485C15.7164 5.478 15.3703 5.82494 15.2983 5.89473L14.5998 6.59138C12.3672 5.51839 9.6087 5.9064 7.75736 7.75774C5.41421 10.1009 5.41421 13.8999 7.75736 16.243C9.89727 18.3829 13.2497 18.5682 15.6009 16.8005C16.7411 15.9433 17.2005 15.0012 17.2005 15.0012L14 15.0012V12.9998L19.9379 12.9987C19.7249 14.7024 18.9647 16.349 17.6569 17.6568C14.5327 20.781 9.46734 20.781 6.34315 17.6568C3.21895 14.5326 3.21895 9.4673 6.34315 6.34311ZM12 16.0004V11.0001L21.9998 10.9983L22 11.9983C22.0004 14.5565 21.0239 17.1182 19.0711 19.071C15.1658 22.9763 8.83418 22.9763 4.92893 19.071C1.02369 15.1658 1.02369 8.83414 4.92893 4.9289C8.57217 1.28566 14.3258 1.04146 18.2532 4.19525C18.5057 4.39801 19.0745 4.93135 19.0745 4.93135C19.0745 4.93135 16.248 7.77706 14.8357 9.18324C14.8357 9.18324 14.6976 8.98993 14.2134 8.66741C12.6599 7.63281 10.5415 7.80205 9.17157 9.17196C7.60948 10.7341 7.60948 13.2667 9.17157 14.8288C9.9524 15.6096 10.9762 16.0003 12 16.0004Z" fill="black"/>
</svg>
