<svg width="24" height="24" viewBox="0 0 24 24" fill="none" xmlns="http://www.w3.org/2000/svg">
<path fill-rule="evenodd" clip-rule="evenodd" d="M6 4.23936V4.5738L11.7776 10.56L13.4425 8.83506L6 4.23936ZM15.1932 9.90108L13.1674 12L15.1932 14.099L18.717 12L15.1932 9.90108ZM13.4425 15.165L11.7776 13.44L6 19.4262V19.7607L13.4425 15.165ZM6 16.5463L10.3878 12L6 7.45375V16.5463ZM15.5426 16.2187L6.57598 21.7556L6.56912 21.7597C5.43113 22.4375 4 21.6114 4 20.2967V3.70332C4 2.38866 5.43113 1.56253 6.56912 2.24037L6.57598 2.24445L15.5426 7.78131L20.1691 10.5371C20.723 10.867 21 11.441 21 12C21 12.559 20.7231 13.133 20.1691 13.463L15.5426 16.2187Z" fill="black"/>
</svg>
