<svg width="24" height="24" viewBox="0 0 24 24" fill="none" xmlns="http://www.w3.org/2000/svg">
<path fill-rule="evenodd" clip-rule="evenodd" d="M6.16746 2.20743C7.60045 2.09743 9.55877 2 12 2C14.4412 2 16.3995 2.09743 17.8325 2.20743C19.9718 2.37163 21.6467 4.00521 21.8083 6.16543C21.9119 7.54975 22 9.47039 22 12C22 14.1728 21.935 15.8963 21.8511 17.2165C21.6897 19.7537 19.7481 21.6839 17.2165 21.8472C15.8862 21.933 14.1569 22 12 22C9.45233 22 7.5012 21.9065 6.09963 21.799C3.98596 21.6369 2.35806 20.0209 2.19667 17.9011C2.09092 16.512 2 14.5704 2 12C2 9.47039 2.08806 7.54975 2.19165 6.16543C2.35331 4.00521 4.02821 2.37163 6.16746 2.20743ZM17 12C17 14.7614 14.7614 17 12 17C9.23858 17 7 14.7614 7 12C7 9.23858 9.23858 7 12 7C14.7614 7 17 9.23858 17 12ZM12 15C13.6569 15 15 13.6569 15 12C15 10.3431 13.6569 9 12 9C10.3431 9 9 10.3431 9 12C9 13.6569 10.3431 15 12 15ZM18 7C18.5523 7 19 6.55228 19 6C19 5.44772 18.5523 5 18 5C17.4477 5 17 5.44772 17 6C17 6.55228 17.4477 7 18 7Z" fill="black"/>
</svg>
