<svg width="24" height="24" viewBox="0 0 24 24" fill="none" xmlns="http://www.w3.org/2000/svg">
<path fill-rule="evenodd" clip-rule="evenodd" d="M12 4C9.61198 4 7.70476 4.09531 6.32053 4.20156C5.14581 4.29173 4.27245 5.16046 4.18608 6.31468C4.08645 7.64595 4 9.51667 4 12C4 14.5233 4.08926 16.4142 4.1909 17.7493C4.27689 18.8787 5.1172 19.7178 6.2526 19.8049C7.60119 19.9083 9.50124 20 12 20C14.1155 20 15.8019 19.9343 17.0878 19.8513C18.621 19.7525 19.7579 18.6174 19.8551 17.0896C19.9362 15.8141 20 14.133 20 12C20 9.51668 19.9135 7.64595 19.8139 6.31468C19.7275 5.16046 18.8542 4.29173 17.6795 4.20156C16.2952 4.09531 14.388 4 12 4ZM6.16746 2.20743C7.60045 2.09743 9.55877 2 12 2C14.4412 2 16.3995 2.09743 17.8325 2.20743C19.9718 2.37163 21.6467 4.00521 21.8083 6.16543C21.9119 7.54975 22 9.47039 22 12C22 14.1728 21.935 15.8963 21.8511 17.2165C21.6897 19.7537 19.7481 21.6839 17.2165 21.8472C15.8862 21.933 14.1569 22 12 22C9.45233 22 7.5012 21.9065 6.09963 21.799C3.98596 21.6369 2.35806 20.0209 2.19667 17.9011C2.09092 16.512 2 14.5704 2 12C2 9.47039 2.08806 7.54975 2.19165 6.16543C2.35331 4.00521 4.02821 2.37163 6.16746 2.20743ZM17 12C17 14.7614 14.7614 17 12 17C9.23858 17 7 14.7614 7 12C7 9.23858 9.23858 7 12 7C14.7614 7 17 9.23858 17 12ZM12 15C13.6569 15 15 13.6569 15 12C15 10.3431 13.6569 9 12 9C10.3431 9 9 10.3431 9 12C9 13.6569 10.3431 15 12 15ZM17 8C17.5523 8 18 7.55228 18 7C18 6.44772 17.5523 6 17 6C16.4477 6 16 6.44772 16 7C16 7.55228 16.4477 8 17 8Z" fill="black"/>
</svg>
