<svg width="24" height="24" viewBox="0 0 24 24" fill="none" xmlns="http://www.w3.org/2000/svg">
<path fill-rule="evenodd" clip-rule="evenodd" d="M4 10C4 6.90561 7.33328 4 12 4C16.6667 4 20 6.90561 20 10C20 10.8654 19.6616 11.8014 19.02 12.7924C18.3803 13.7803 17.4784 14.762 16.4512 15.6985C15.4381 16.6223 14.3346 17.4746 13.2942 18.2226C13.2821 18.1577 13.2672 18.0928 13.2494 18.0279C12.888 16.7133 11.5357 16.1191 10.1674 15.8868C6.43939 15.254 4 12.9079 4 10ZM12 2C6.7256 2 2 5.3624 2 10C2 14.2409 5.54465 17.1307 9.83265 17.8586C10.4859 17.9695 10.8569 18.1311 11.0655 18.2734C12.0115 18.9188 11.5353 21.1763 11.0674 22C11.0674 22 15.6068 19.175 17.7988 17.1765C18.8966 16.1755 19.9322 15.0635 20.6988 13.8794C21.4634 12.6986 22 11.3846 22 10C22 5.3624 17.2744 2 12 2ZM11.9961 8L10.9961 8.00013V12.5H11.9961V9.92691L13.5 12.5L14.5 12.5V8H13.5V10.5731L11.9961 8ZM7 8H6V12.5H8.99605V11.5H7V8ZM10.4961 12.5V8H9.49605V12.5H10.4961ZM18 8H15V12.5H18V11.5H16V10.7896H18V9.78957H16V9H18V8Z" fill="black"/>
</svg>
