<svg width="24" height="24" viewBox="0 0 24 24" fill="none" xmlns="http://www.w3.org/2000/svg">
<path fill-rule="evenodd" clip-rule="evenodd" d="M5.5 5C6.32843 5 7 4.32843 7 3.5C7 2.67157 6.32843 2 5.5 2C4.67157 2 4 2.67157 4 3.5C4 4.32843 4.67157 5 5.5 5ZM2 19.9998L14 19.9992V12.4996C14 12.2037 14.201 11.9996 14.5 11.9996C14.8038 11.9996 15.0088 12.2121 15.0137 12.5113V19.9992H22V11.9996C22 9.19535 19.8827 5.49957 15.5 5.49957C14.5373 5.49957 13.7034 5.70827 13.01 5.99923L2 6.00002V19.9998ZM7.01367 17.9998H7H4V8.00002H7H7.01367V17.9998ZM9.01367 17.9992H9V8.00002L9.01367 7.99923H12V9.16775C12 9.16775 13.2343 7.49957 15.5 7.49957C18.5 7.49957 20 9.99957 20 11.9996V17.9992H17.0137V12.4996C17 10.9996 15.8253 9.99957 14.5 9.99957C13.1749 9.99957 12 10.9998 12 12.4996V12.5302V17.9992H9.01367Z" fill="black"/>
</svg>
