<svg width="24" height="24" viewBox="0 0 24 24" fill="none" xmlns="http://www.w3.org/2000/svg">
<path fill-rule="evenodd" clip-rule="evenodd" d="M5 3C3.89543 3 3 3.89543 3 5V19C3 20.1046 3.89543 21 5 21H19C20.1046 21 21 20.1046 21 19V5C21 3.89543 20.1046 3 19 3H5ZM8 6.5C8 7.32843 7.32843 8 6.5 8C5.67157 8 5 7.32843 5 6.5C5 5.67157 5.67157 5 6.5 5C7.32843 5 8 5.67157 8 6.5ZM10 18.9997H13V13.5C13 12.675 13.6328 12 14.5 12C15.3672 12 16.0137 12.675 16.0137 13.5V18.9997H19V13C19 11 17.5 9.5 15.5 9.5C14 9.5 13 10.5839 13 10.5839V9.99965H10V18.9997ZM5 19.0002H8.01367V10.0004H5V19.0002Z" fill="black"/>
</svg>
