<svg width="24" height="24" viewBox="0 0 24 24" fill="none" xmlns="http://www.w3.org/2000/svg">
<path fill-rule="evenodd" clip-rule="evenodd" d="M16.5298 2.49018C17.8441 2.8178 19.1329 3.36118 19.8689 4.26954C20.6 5.17212 21.0006 6.31918 21.0006 7.47505L21.0006 11.9839C21.0006 13.3528 20.4398 14.6088 19.5349 15.5181C18.2618 16.7974 16.2317 17.3776 14.3167 17.5863C12.8921 17.7415 11.4109 17.7041 10.1159 17.5269C10.2424 18.1587 10.4657 18.6824 10.75 19.0763C11.1831 19.6764 11.7672 20 12.5006 20C13.506 20 14.5909 19.7128 15.4445 19.1669L15.447 19.1654L15.4457 19.1663L16.5555 20.8301L16.5537 20.8312L16.5509 20.8331C15.3255 21.6384 13.7906 21.9998 12.34 22C10.3494 22.0005 8.4481 22.001 6.9063 21.2796C5.19624 20.4794 4.09468 18.9045 3.39607 16.2448C3.16339 15.359 3.07478 13.7312 3.03425 12.134C2.99809 10.7095 2.99935 9.1907 3.00034 8.00052C3.00111 6.64857 3.26556 5.34774 4.15337 4.27733C4.88443 3.39603 6.16494 2.8566 7.47316 2.52432C8.83091 2.17945 10.4247 2.0074 11.9978 2.00023C13.5706 1.99307 15.1672 2.15052 16.5298 2.49018ZM8.8457 19.8087C8.27862 18.8231 8.00061 17.602 8.00061 16.303V15.0302L9.23728 15.3314C10.5396 15.6486 12.3649 15.787 14.1001 15.598C15.8732 15.4048 17.3346 14.8937 18.1173 14.1073C18.6669 13.555 19.0006 12.7994 19.0006 11.9838L19.0006 7.47499C19.0006 6.77204 18.7541 6.07068 18.3148 5.52844C18.0051 5.14619 17.2598 4.73329 16.046 4.43073C14.8805 4.1402 13.4552 3.99355 12.0069 4.00015C10.5589 4.00675 9.1324 4.16632 7.9655 4.4627C6.74911 4.77166 6.00051 5.18313 5.69276 5.55407C5.10326 6.26487 5.00082 7.12174 5.00033 8.0056C4.99937 9.19772 4.99816 10.6873 5.03359 12.0832C5.07568 13.7419 5.1684 15.1197 5.33044 15.7366C5.9476 18.0862 6.78775 19.0159 7.75394 19.468C8.08218 19.6216 8.44248 19.7309 8.8457 19.8087ZM9.00061 8.9668C9.00061 8.41451 9.44833 7.9668 10.0006 7.9668C10.5529 7.9668 11.0006 8.41451 11.0006 8.9668V11.4668H13.0006V8.9668C13.0006 8.41451 13.4483 7.9668 14.0006 7.9668C14.5529 7.9668 15.0006 8.41451 15.0006 8.9668V12.9668H17.0006V8.9668C17.0006 7.30994 15.6575 5.9668 14.0006 5.9668C13.2323 5.9668 12.5314 6.25565 12.0006 6.73069C11.4699 6.25565 10.769 5.9668 10.0006 5.9668C8.34376 5.9668 7.00061 7.30994 7.00061 8.9668V12.9668H9.00061V8.9668Z" fill="black"/>
</svg>
