<svg width="24" height="24" viewBox="0 0 24 24" fill="none" xmlns="http://www.w3.org/2000/svg">
<path fill-rule="evenodd" clip-rule="evenodd" d="M21.0006 7.47604C21.0006 6.31949 20.5997 5.17201 19.8683 4.2693C18.1632 2.16504 14.4632 1.98924 11.9978 2.00047C9.54407 2.01164 5.86833 2.21078 4.15395 4.27708C3.6941 4.8314 3.00065 5.98731 3.00064 7.47603C3.00064 7.64231 3.00049 7.81794 3.00034 8.00138C2.99935 9.19133 2.99809 10.7099 3.03425 12.1341C3.07478 13.731 3.16338 15.3588 3.39619 16.245C4.09501 18.9049 5.19698 20.4798 6.90694 21.2798C8.44847 22.001 10.3494 22.0005 12.3401 22C13.3831 21.9997 15 21.5324 16 21.0316V19.5291C15.4547 19.7476 13.3377 19.9966 12.5006 19.9966C10.4056 19.9966 8.97758 19.6141 8.94211 17.2288C11.5421 17.6396 14.4037 17.688 16.9516 16.9303C19.2281 16.2534 21.0006 14.49 21.0006 11.984L21.0006 7.47604ZM8 8.50016C8 7.67174 8.67157 7.00017 9.5 7.00017C10.3284 7.00017 11 7.67174 11 8.50016V12.0001H13V8.50016C13 7.67174 13.6716 7.00017 14.5 7.00017C15.3284 7.00017 16 7.67174 16 8.50016V14.0001H18V8.50016C18 6.56718 16.433 5.0002 14.5 5.0002C13.5207 5.0002 12.6353 5.40242 12 6.05069C11.3647 5.40242 10.4793 5.0002 9.5 5.0002C7.567 5.0002 6 6.56718 6 8.50016V14.0001H8V8.50016Z" fill="black"/>
</svg>
