<svg width="24" height="24" viewBox="0 0 24 24" fill="none" xmlns="http://www.w3.org/2000/svg">
<path fill-rule="evenodd" clip-rule="evenodd" d="M12 2C6.53177 2 2 6.20021 2 11.5C2 14.1677 3.15713 16.5685 5 18.2848V22L9.08501 20.5899C10.0087 20.8569 10.9877 21 12 21C17.4682 21 22 16.7998 22 11.5C22 6.20021 17.4682 2 12 2ZM11.3124 8.60957C11.1134 8.45041 10.8266 8.4663 10.6465 8.64645L6.14646 13.1465C5.98004 13.3129 5.95221 13.5728 6.07962 13.7707C6.20704 13.9686 6.4552 14.0508 6.67557 13.9682L10.4095 12.5679L12.6877 14.3904C12.8866 14.5496 13.1734 14.5337 13.3536 14.3536L17.8536 9.85356C18.02 9.68714 18.0478 9.42719 17.9204 9.22931C17.793 9.03143 17.5448 8.9492 17.3244 9.03184L13.5905 10.4321L11.3124 8.60957Z" fill="black"/>
</svg>
