<svg width="24" height="24" viewBox="0 0 24 24" fill="none" xmlns="http://www.w3.org/2000/svg">
<path fill-rule="evenodd" clip-rule="evenodd" d="M12 22C17.5228 22 22 17.5228 22 12C22 6.47715 17.5228 2 12 2C6.47715 2 2 6.47715 2 12C2 17.5228 6.47715 22 12 22ZM15.4823 6.11719C14.1705 6.11719 13.1449 7.10531 12.2167 8.3605C11.8977 7.95441 11.5919 7.61117 11.2925 7.32472C10.3944 6.46537 9.55486 6.11719 8.59729 6.11719C5.99442 6.11719 4 9.50469 4 13.0902C4 15.3339 5.08551 16.749 6.90354 16.749C8.2121 16.749 9.15323 16.1323 10.8267 13.2075C10.8267 13.2075 11.524 11.9762 12.0037 11.1278C12.1718 11.3991 12.3484 11.6911 12.5348 12.005L12.6527 12.2023L13.3199 13.3248C14.8483 15.8823 15.6998 16.749 17.2431 16.749C19.0142 16.749 20 15.3145 20 13.0242C19.999 9.27005 17.9595 6.11719 15.4823 6.11719ZM13.0001 9.44344C13.2349 9.79126 13.4782 10.1707 13.732 10.5835L14.6701 12.148C16.137 14.5083 16.5061 15.0186 17.2788 15.0189C18.0849 15.0189 18.4739 14.3296 18.4739 13.1418C18.4739 10.0256 17.0954 7.48869 15.3724 7.48869C14.5429 7.48869 13.8456 8.1385 13.0001 9.44344ZM11.1856 9.87418C10.2472 8.53075 9.59397 7.99235 8.88403 7.87874C8.78261 7.86252 8.68001 7.85496 8.57529 7.85495C7.02825 7.85495 5.73043 10.5165 5.73043 13.1195C5.73043 14.3362 6.19238 15.0186 6.96957 15.0186C7.72474 15.0186 8.19403 14.5419 9.55054 12.4156C9.55054 12.4156 10.1674 11.436 11.1856 9.87418Z" fill="black"/>
</svg>
