<svg width="24" height="24" viewBox="0 0 24 24" fill="none" xmlns="http://www.w3.org/2000/svg">
<path fill-rule="evenodd" clip-rule="evenodd" d="M5.39973 6.71592C5.98308 6.27251 6.71371 6 7.5 6C8.28629 6 9.01692 6.27251 9.60027 6.71592C10.4531 7.36417 11.2495 8.16525 11.9964 9.03708C12.745 8.16494 13.5423 7.36392 14.3939 6.71612C14.9792 6.27092 15.7119 6 16.5 6C17.3023 6 18.0409 6.26696 18.63 6.71811C19.8467 7.6499 20.6695 9.31801 21.1879 10.8927C21.718 12.5033 22 14.2351 22 15.5C22 17.4172 20.4412 19 18.5 19C17.3562 19 16.3389 18.4555 15.7006 17.6067C14.4926 16.0003 13.279 14.053 11.9944 12.2816C10.7067 14.0525 9.49003 15.9997 8.2904 17.6044C7.66089 18.4465 6.65427 19 5.5 19C3.53144 19 1.99994 17.3883 2 15.5C2.00004 14.2287 2.2853 12.4961 2.82081 10.8861C3.34468 9.311 4.17524 7.64667 5.39973 6.71592ZM10.7252 10.6326C9.97002 9.72006 9.19588 8.92073 8.38999 8.30815C8.13002 8.11055 7.81917 8 7.5 8C7.18083 8 6.86998 8.11055 6.61001 8.30815C5.88047 8.86269 5.20863 10.0439 4.71859 11.5173C4.24019 12.9557 4.00004 14.4744 4 15.5C3.99997 16.3113 4.66334 17 5.5 17C5.99532 17 6.4193 16.767 6.68853 16.4069C7.90807 14.7755 9.22529 12.639 10.7252 10.6326ZM13.2658 10.6342C14.7618 12.6409 16.0748 14.7767 17.299 16.4046C17.5715 16.7669 18.0045 17 18.5 17C19.3284 17 20 16.3209 20 15.5C20 14.4785 19.7623 12.9586 19.2881 11.518C18.8021 10.0415 18.1359 8.85887 17.414 8.30596C17.165 8.11529 16.8516 8 16.5 8C16.1753 8 15.8632 8.11134 15.6048 8.30795C14.7993 8.92062 14.0234 9.72073 13.2658 10.6342Z" fill="black"/>
</svg>
