<svg width="24" height="24" viewBox="0 0 24 24" fill="none" xmlns="http://www.w3.org/2000/svg">
<path fill-rule="evenodd" clip-rule="evenodd" d="M11 6C11 4.89543 11.8954 4 13 4C14.1046 4 15 4.89543 15 6C15 6.74028 14.5978 7.38663 14 7.73244V7V6H13H11ZM9 6H3H2V7V17V18H3H8.10002C8.56329 20.2822 10.581 22 13 22C14.6833 22 16.1724 21.1681 17.0785 19.8931C17.375 19.9631 17.6837 20 18 20C20.2091 20 22 18.2091 22 16V12C22 11.4477 21.5523 11 21 11H17H16H14V9.87398C14.9405 9.63191 15.7472 9.05635 16.2864 8.28087C16.7669 9.29703 17.8014 10 19 10C20.6569 10 22 8.65685 22 7C22 5.34315 20.6569 4 19 4C18.1565 4 17.3943 4.34811 16.8493 4.90851C16.3742 3.22989 14.8307 2 13 2C10.7909 2 9 3.79086 9 6ZM19 6C18.4477 6 18 6.44772 18 7C18 7.55228 18.4477 8 19 8C19.5523 8 20 7.55228 20 7C20 6.44772 19.5523 6 19 6ZM16 17V13H14V17V18H13H10.1707C10.5825 19.1652 11.6938 20 13 20C14.6569 20 16 18.6569 16 17ZM18 13V17C18 17.3416 17.9657 17.6752 17.9005 17.9976C17.9334 17.9992 17.9666 18 18 18C19.1046 18 20 17.1046 20 16V13H18ZM12 16H10H8H4V8H12V11V13V16ZM6.5 9.5H5.5V11.5H6.5H7V13.5V14.5H9V13.5V11.5H9.5H10.5V9.5H9.5H8H6.5Z" fill="black"/>
</svg>
