<svg width="24" height="24" viewBox="0 0 24 24" fill="none" xmlns="http://www.w3.org/2000/svg">
<path fill-rule="evenodd" clip-rule="evenodd" d="M13 9C14.6569 9 16 7.65685 16 6C16 4.34315 14.6569 3 13 3C11.3431 3 10 4.34315 10 6C10 6.17036 10.0142 6.3374 10.0415 6.5H10.5C11.6046 6.5 12.5 7.39543 12.5 8.5V8.95852C12.6626 8.9858 12.8296 9 13 9ZM22 7C22 8.10457 21.1046 9 20 9C18.8954 9 18 8.10457 18 7C18 5.89543 18.8954 5 20 5C21.1046 5 22 5.89543 22 7ZM3 8H10C10.5523 8 11 8.44771 11 9V16C11 16.5523 10.5523 17 10 17H3C2.44772 17 2 16.5523 2 16V9C2 8.44771 2.44772 8 3 8ZM4.5 9.75H3.75V11.25H4.5H5.75V14.5V15.25H7.25V14.5V11.25H8.5H9.25V9.75H8.5H6.5H4.5ZM9.29297 18.5H10.5C11.6046 18.5 12.5 17.6046 12.5 16.5L12.5 10.5H17L17 17C17 19.2091 15.2092 21 13 21C11.5195 21 10.2268 20.1956 9.53516 19C9.53516 19 9.35376 18.7083 9.29297 18.5ZM21.9999 10.5H18.5017V17C18.5017 18.5205 17.8413 19.6966 17.5977 19.9961C17.7461 20.0156 18.1767 19.9433 18.1767 19.9433C20.0644 19.6225 21.9999 17.9791 21.9999 16V10.5Z" fill="black"/>
</svg>
