<svg width="24" height="24" viewBox="0 0 24 24" fill="none" xmlns="http://www.w3.org/2000/svg">
<path fill-rule="evenodd" clip-rule="evenodd" d="M3 8C3 5.23858 5.23858 3 8 3H11H12V4V20V21H11H8C5.23858 21 3 18.7614 3 16V8ZM8 5C6.34315 5 5 6.34315 5 8V16C5 17.6569 6.34315 19 8 19H10V5H8ZM9 8.5C9 9.32843 8.32843 10 7.5 10C6.67157 10 6 9.32843 6 8.5C6 7.67157 6.67157 7 7.5 7C8.32843 7 9 7.67157 9 8.5ZM14 3H16C18.7614 3 21 5.23858 21 8V16C21 18.7614 18.7614 21 16 21H14V3ZM16 12.5C16 11.6716 16.6716 11 17.5 11C18.3284 11 19 11.6716 19 12.5C19 13.3284 18.3284 14 17.5 14C16.6716 14 16 13.3284 16 12.5Z" fill="black"/>
</svg>
