<svg width="24" height="24" viewBox="0 0 24 24" fill="none" xmlns="http://www.w3.org/2000/svg">
<path fill-rule="evenodd" clip-rule="evenodd" d="M22 4H9V7.08926C6.32299 7.43683 3.97411 8.78553 2 10.8889C3.49799 14.4897 6.08954 16.4478 9 16.8985V20H22V4ZM9 15.7441C9.43358 15.8407 9.87857 15.8889 10.3333 15.8889C13.8238 15.8889 16.6364 13.9278 18.1111 12.5556L20.3333 13.6667C16.4444 16.4444 12.5555 17 10.3333 17C9.88342 17 9.4381 16.9663 9 16.8985V15.7441ZM9 8.22129V7.08926C9.45518 7.03016 9.91985 7 10.3938 7C13.902 7 16.3296 9.54693 17.5556 10.8889C15.4655 13.2762 12.5121 14.7778 10.3333 14.7778C9.89837 14.7778 9.44806 14.7331 9 14.6235V13.4365C9.39697 13.5882 9.842 13.6667 10.3333 13.6667C13.0191 13.6667 14.3817 11.9931 15.3333 10.8889C14.1115 9.42583 12.1111 8.11111 10.3333 8.11111C9.87884 8.11111 9.43345 8.15018 9 8.22129ZM9 9.28728C7.46695 9.5333 5.96678 10.4167 5.33333 10.8889C6.14395 13.2499 7.56042 14.2716 9 14.6235V15.7441C6.88956 15.2742 5.04927 13.6595 3.66667 10.8889C4.88058 9.78603 6.78431 8.58484 9 8.22129V9.28728ZM9 9.28728C9.25967 9.24561 9.52028 9.22222 9.77778 9.22222C11.5556 9.22222 12.7407 10.3368 13.1111 10.8889L11 12C11 12 11 10.3023 9.53049 10.2752C9.33588 10.2752 9.16042 10.2843 9 10.3023V9.28728ZM9 10.3023V13.4365C8.09783 13.0917 7.4439 12.3689 7.0588 11.3301C7.70108 10.7583 8.12865 10.3999 9 10.3023Z" fill="black"/>
</svg>
