<svg width="24" height="24" viewBox="0 0 24 24" fill="none" xmlns="http://www.w3.org/2000/svg">
<path fill-rule="evenodd" clip-rule="evenodd" d="M20.0012 5H10.0075V3H22V21H10.0075V19H20.0012V5ZM4.74225 8.20457C6.09506 7.17321 8.06693 6 10.1574 6C12.5147 6 14.253 7.1839 15.3613 8.29289C16.1972 9.1293 16.8144 10.0862 17.3398 11.1378C16.673 11.9384 15.9656 12.6724 15.1293 13.3C14.0619 14.1011 12.4745 15 10.6571 15C8.24958 15 6.76636 13.2096 5.94694 11.1598C7.11 10.287 8.60084 9 10.1574 9C11.5501 9 12.4578 9.86766 13.05 11.0528L11.2623 11.9472C11.0137 11.4497 10.7606 11 10.1574 11C9.59868 11 8.92911 11.5171 8.48604 11.8011C9.00371 12.5017 9.7623 13 10.6571 13C11.8378 13 12.9987 12.3989 13.9301 11.7C14.3245 11.404 14.656 11.1067 14.9043 10.8657C14.6824 10.5396 14.3628 10.1222 13.9479 9.70711C13.0575 8.8161 11.7976 8 10.1574 8C7.9314 8 5.8663 9.68635 4.35905 11.1915C4.63455 11.7291 5.10872 12.5603 5.75671 13.3793C6.88311 14.803 8.37471 16 10.1574 16C13.1098 16 15.6352 14.5643 16.835 13.7385L17.9677 15.3863C16.6435 16.2977 13.7096 18 10.1574 18C6.12885 18 3.39896 14.1696 2 10.81C2.8349 9.85522 3.73172 8.97498 4.74225 8.20457Z" fill="black"/>
</svg>
