<svg width="24" height="24" viewBox="0 0 24 24" fill="none" xmlns="http://www.w3.org/2000/svg">
<path fill-rule="evenodd" clip-rule="evenodd" d="M5.83333 2L3 19H7L6.5 22H12.5217L13.3906 16.9998H14.3921C17.4795 16.9998 20.1622 14.8781 20.8736 11.8738C21.4331 9.51085 20.1392 7.22416 18.0576 6.36116C17.8583 3.9744 15.8576 2 13.3087 2H5.83333ZM15.9659 6C15.6383 4.86485 14.5936 4 13.3087 4H7.52759L5.36092 17H7.33333L9.16667 6H15.9659ZM10.3609 11L10.8609 8H15.8161C15.1418 9.78387 13.6047 11 11.6523 11H10.3609ZM10.0276 13H11.6523C14.5322 13 16.8743 11.1504 17.7722 8.46802C18.6907 9.08552 19.2069 10.2329 18.9274 11.4129C18.4297 13.5152 16.5525 14.9998 14.3921 14.9998H11.7082L10.8392 20H8.86092L10.0276 13Z" fill="black"/>
</svg>
