<svg width="24" height="24" viewBox="0 0 24 24" fill="none" xmlns="http://www.w3.org/2000/svg">
<path fill-rule="evenodd" clip-rule="evenodd" d="M13.3394 2H5.81225L3 19H6.81954L6.51361 20.8356L6.31954 22H7.5H11.5H12.3412L12.4852 21.1712L13.2101 16.9998H14.3921C17.4795 16.9998 20.1622 14.8781 20.8736 11.8738C21.4341 9.5066 20.1357 7.22059 18.0515 6.35939C17.87 3.96759 15.8699 2 13.3394 2ZM17.7611 8.4598C16.8793 11.1365 14.3662 13 11.4802 13H9.84835L9.55919 14.7276L8.68046 20H10.6588L11.3837 15.8286L11.5277 14.9998H12.3689H14.3921C16.5525 14.9998 18.4296 13.5152 18.9274 11.4129C19.2076 10.2297 18.6871 9.07593 17.7611 8.4598Z" fill="black"/>
</svg>
