<svg width="24" height="24" viewBox="0 0 24 24" fill="none" xmlns="http://www.w3.org/2000/svg">
<path fill-rule="evenodd" clip-rule="evenodd" d="M5.83333 2L3 19H7L6.5 22H7.68046H11.6805H12.5217L12.6657 21.1712L13.3906 16.9998H14.3921C17.4795 16.9998 20.1622 14.8781 20.8736 11.8738C21.4336 9.5089 20.1383 7.22505 18.0576 6.36191C17.8587 3.97482 15.8579 2 13.3087 2H5.83333ZM17.7724 8.46736C16.8748 11.1501 14.352 13 11.4718 13H10.0276L8.86092 20H10.8392L11.7082 14.9998H14.3921C16.5525 14.9998 18.4297 13.5152 18.9274 11.4129C19.2065 10.2345 18.6913 9.08533 17.7724 8.46736ZM11.4718 11C13.6489 11 15.5339 9.48793 16.0061 7.36271C16.3896 5.63701 15.0765 4 13.3087 4H7.52759L5.36092 17H7.33333L8.19407 11.8356L8.33333 11C9.43967 11 10.3655 11 11.4718 11Z" fill="black"/>
</svg>
