<svg width="24" height="24" viewBox="0 0 24 24" fill="none" xmlns="http://www.w3.org/2000/svg">
<path fill-rule="evenodd" clip-rule="evenodd" d="M4 12C4 7.58172 7.58172 4 12 4C16.4183 4 20 7.58172 20 12C20 16.115 16.8922 19.5056 12.8963 19.9504L13.1176 21.9382C18.1149 21.3818 22 17.1453 22 12C22 6.47715 17.5228 2 12 2C6.47715 2 2 6.47715 2 12C2 16.5815 5.11208 20.3348 9.38355 21.6584C9.79119 20.9942 10.4423 20.093 10.6681 19.2244C10.7896 18.7565 11.2911 16.8472 11.2911 16.8472C11.6171 17.4691 11.9867 18 13 18C15.5 18 18 15 18 12C18 8.69644 15.469 6 12 6C8.53102 6 6 8.89698 6 12.0514C6 13.5181 6.78087 15.3441 8.0298 15.9254C8.21932 16.0136 8.32063 15.9748 8.36424 15.7917C8.39736 15.6527 8.56606 14.9735 8.64197 14.6577C8.66631 14.5566 8.65434 14.4699 8.57262 14.3708C8.15948 13.8698 8 12.8595 8 12C8 9.79445 9.94909 8 12 8C14.4566 8 15.5 9.60567 15.5 12C15.5 14.7052 14.323 16 13 16C12.2057 16 11.7644 14.9953 12 14C12.1129 13.524 12.2515 13.1275 12.3773 12.768C12.5655 12.2297 12.7247 11.7745 12.7247 11.2601C12.7247 10.492 12.3126 9.85147 11.4594 9.85147C10.4559 9.85147 9.64998 10.8896 9.64998 12.2801C9.64998 13.1657 9.94909 13.7647 9.94909 13.7647C9.94909 13.7647 8.95821 17.9549 8.77648 18.7354C8.7356 18.911 8.70569 19.0949 8.68472 19.2832C5.92054 18.0229 4 15.2348 4 12Z" fill="black"/>
</svg>
