<svg width="24" height="24" viewBox="0 0 24 24" fill="none" xmlns="http://www.w3.org/2000/svg">
<path fill-rule="evenodd" clip-rule="evenodd" d="M13.1745 16.0639C12.3617 15.9195 11.6598 15.4686 11.3875 14.9527C11.3875 14.9527 10.8782 16.8804 10.7546 17.353C10.5253 18.23 9.2804 20 9.2804 20H8.93408C8.84531 19.2011 8.62867 17.7313 8.83294 16.8592L8.83352 16.8567C8.95668 16.3311 9.43824 14.3045 9.74993 12.9935L10.0242 11.8402C10.0242 11.8402 9.94876 11.6897 9.87316 11.429C9.75314 11.0149 9.70209 10.5784 9.72557 10.1479C9.7968 8.84202 10.5865 7.8889 11.5586 7.8889L11.5676 7.88893C12.4282 7.89338 12.844 8.53835 12.844 9.31121C12.844 10.1775 12.289 11.4729 12.0026 12.6731C11.8373 13.3674 12.1424 13.9731 12.6756 14.2814C12.9143 14.4193 13.1986 14.4977 13.507 14.4977C14.4373 14.4977 15.2568 13.9954 15.8326 13.1348C16.3744 12.325 16.7006 11.1981 16.7006 9.87395C16.7006 8.57749 16.198 7.49017 15.3469 6.76052C14.6683 6.17875 13.7682 5.82435 12.7248 5.77263C10.1402 5.6445 7.72588 7.63951 7.87517 10.3411C7.90953 10.9629 8.10453 11.5983 8.36919 12.0719C8.48306 12.2756 8.75866 12.4845 8.69629 12.7418C8.61918 13.0607 8.44779 13.7466 8.41414 13.8869C8.36984 14.0718 8.26691 14.111 8.07437 14.0219C7.49501 13.7539 7.01431 13.2232 6.66361 12.5852C6.25286 11.8381 6.01961 10.9431 6.01244 10.1479C5.97935 6.47569 9.21453 4 12.7248 4C14.2045 4 15.5457 4.44 16.6038 5.1974C18.066 6.24394 18.9877 7.8965 18.9877 9.83166C18.9877 11.6271 18.4 13.2418 17.4102 14.3842C16.3951 15.5559 14.7507 16.3439 13.1745 16.0639ZM10.3289 22C11.1981 20.7626 12.212 19.4645 12.6607 18.0017C13.0009 18.0732 13.355 18.1121 13.7161 18.1121C18.2494 18.1121 21 14.0231 21 9.83166C21 5.25876 17.222 2 12.7248 2C10.0621 2 7.84898 2.90007 6.2977 4.45039C4.76171 5.98544 4 8.03436 4 10.1103C4 11.1747 4.2772 12.3072 4.76273 13.2858C5.21044 14.1882 5.94149 15.1666 7.03047 15.739C6.96028 16.0354 6.90478 16.2704 6.87308 16.4057C6.69824 17.1522 6.72464 17.9929 6.76605 18.5937C6.84446 19.7313 7.0059 20.8668 7.13182 22H10.3289Z" fill="black"/>
</svg>
