<svg width="24" height="24" viewBox="0 0 24 24" fill="none" xmlns="http://www.w3.org/2000/svg">
<path fill-rule="evenodd" clip-rule="evenodd" d="M3 5C3 3.89543 3.89543 3 5 3H19C20.1046 3 21 3.89543 21 5V19C21 20.1046 20.1046 21 19 21H9.42931C9.42931 21 10.1737 19.2419 10.3859 18.4259C10.5001 17.9863 10.9712 16.1924 10.9712 16.1924C11.2775 16.7766 12.1726 17.2712 13.1246 17.2712C15.9584 17.2712 18 14.6653 18 11.4273C18 8.32348 15.4672 6.00098 12.2079 6.00098C8.15338 6.00098 6 8.72281 6 11.6866C6 13.0645 6.73366 14.7801 7.90708 15.3263C8.08514 15.4092 8.18033 15.3727 8.22131 15.2007C8.23488 15.1438 8.27269 14.9902 8.31693 14.8105C8.37411 14.5783 8.44203 14.3025 8.48224 14.1352C8.50511 14.0403 8.49387 13.9588 8.41708 13.8657C8.02892 13.395 7.71785 12.5291 7.71785 11.7216C7.71785 9.6494 9.28698 7.64428 11.9603 7.64428C14.2684 7.64428 15.8848 9.2171 15.8848 11.4667C15.8848 14.0083 14.6012 15.769 12.9313 15.769C12.009 15.769 11.3187 15.0064 11.54 14.0713C11.6358 13.6672 11.7642 13.2515 11.889 12.8474C12.1091 12.1345 12.3181 11.4575 12.3181 10.943C12.3181 10.2214 11.931 9.61959 11.1294 9.61959C10.1865 9.61959 9.42931 10.5949 9.42931 11.9014C9.42931 12.7334 9.71034 13.2963 9.71034 13.2963C9.71034 13.2963 8.77937 17.2331 8.60862 17.9664C8.4197 18.7779 8.5 21 8.5 21H5C3.89543 21 3 20.1046 3 19V5Z" fill="black"/>
</svg>
