<svg width="24" height="24" viewBox="0 0 24 24" fill="none" xmlns="http://www.w3.org/2000/svg">
<path fill-rule="evenodd" clip-rule="evenodd" d="M9 2L15.2314 3.51712C17.471 4.06316 19.047 6.0696 19.047 8.37483V11.0814C19.047 11.742 18.864 12.3599 18.5459 12.887C18.6166 12.9107 18.6862 12.936 18.7543 12.9632L20.0209 13.4684C22.6557 14.5192 22.6609 18.2469 20.0291 19.305L13.3361 21.9961L9.00716 19.8303C8.87766 19.855 8.73224 19.8781 8.57289 19.8963C7.96635 19.9653 7.12574 19.9659 6.18809 19.6884L4.02449 18.8572C1.34827 17.8201 1.32218 14.0514 3.9652 12.9695L9 11V2ZM10.9815 18.5817L12.9998 19.5915V8.03948C12.9998 7.48814 13.4467 7.04118 13.9981 7.04118C14.5494 7.04118 14.9964 7.48814 14.9964 8.03948V12.5814C15.2726 12.5814 15.5609 12.6068 15.8338 12.554C16.3981 12.4447 16.8496 12.0192 16.9964 11.4693C17.0294 11.3455 17.047 11.2155 17.047 11.0814V8.37483C17.047 8.16469 17.0252 7.95869 16.9835 7.75927C16.7505 6.64611 15.8972 5.73805 14.7576 5.46021L10.9815 4.53956V18.5817ZM14.9964 19.1729L19.283 17.4494C20.0253 17.1509 20.191 16.2687 19.7812 15.7091C18.8758 14.473 16.3008 14.4927 14.9998 14.5798C14.9975 14.5799 14.9964 14.58 14.9964 14.58V15.9942L16.2647 15.508C16.5002 15.4177 16.7502 15.3821 16.9964 15.4005C17.2155 15.4167 17.5266 15.4659 17.6945 15.6202C17.8402 15.754 17.806 16.0103 17.6052 16.0894L14.9964 17.1173V19.1729ZM4.73949 14.8137C4.0012 15.1058 3.81639 15.9604 4.1821 16.5354C4.30664 16.7312 4.49502 16.8946 4.74713 16.9923L6.75578 17.7706C7.21274 17.9059 7.63629 17.9421 7.98962 17.9336C8.60092 17.9189 9.00201 17.7706 9.00201 17.7706L9.00716 15.8079L7.49351 16.4379C7.12555 16.5788 6.71837 16.578 6.35098 16.4356C6.12507 16.3481 6.12546 16.0283 6.35157 15.9414L9.00716 14.8137L9 13L4.73949 14.8137Z" fill="black"/>
</svg>
