<svg width="24" height="24" viewBox="0 0 24 24" fill="none" xmlns="http://www.w3.org/2000/svg">
<path fill-rule="evenodd" clip-rule="evenodd" d="M10.0085 3L15.2189 4.29992C17.4459 4.85552 19.0085 6.85598 19.0085 9.15121V11.5C19.0085 12.8807 17.8893 14 16.5085 14C15.5085 14 15.0085 13.5 15.0085 13.5V6.5C15.0085 6.22386 14.7847 6 14.5085 6C14.2324 6 14.0085 6.22386 14.0085 6.5V21L10.0085 19.5V3ZM21.1849 18.1986L15.0046 20.6034V18.1282L18.9969 16.6336C19.2699 16.5261 19.2867 16.1461 19.0243 16.0149C18.5137 15.7596 17.9193 15.7306 17.3862 15.9349L15.0046 16.7716V15.0062C16.3988 14.5265 18.1179 14.5631 19.4874 15.1093L21.1816 15.785C21.7298 16.0036 22.0027 16.5025 21.9999 17C21.9972 17.4913 21.7257 17.9812 21.1849 18.1986ZM2.83016 18.2003L5.49533 19.233C6.54242 19.6388 7.97139 19.625 9.00854 19.1945V16.9493L6.37561 17.8555C5.93346 18.0248 5.4442 18.0238 5.00273 17.8528C4.73128 17.7476 4.73174 17.3634 5.00345 17.2588L9.00854 15.8204V13.437L2.82168 15.7793C2.26905 15.9979 1.99547 16.5001 1.99993 17C2.00435 17.495 2.28142 17.9877 2.83016 18.2003Z" fill="black"/>
</svg>
