<svg width="24" height="24" viewBox="0 0 24 24" fill="none" xmlns="http://www.w3.org/2000/svg">
<path d="M12.9133 17.5951C12.2203 16.2312 11.4074 14.8535 9.82168 14.8535C9.51855 14.8535 9.21578 14.9038 8.93795 15.0306L8.39925 13.9525C9.05573 13.3892 10.1165 12.9426 11.48 12.9426C13.385 12.9426 14.4572 13.7667 15.2819 14.8794C15.795 13.7659 15.9937 12.5 15.9937 10.7967C15.9937 7 14.5 3.7429 11.4551 3.7429C8.64526 3.7429 6.98375 7 6.98375 10.8661C6.98375 15.0306 8.81556 17.7829 11.4551 17.7829C11.9877 17.7829 12.47 17.7244 12.9133 17.5951ZM13.7439 19.2195C13.0094 19.4164 12.229 19.5251 11.4551 19.5251C6.99344 19.5251 2.95203 16.0435 2.95203 10.8661C2.95203 5.6396 6.99344 2 11.4551 2C15.9916 2 20.0008 5.54455 20.0008 10.7967C20.0008 13.7182 18.9549 16.083 16.9736 17.6175C17.6138 18.5767 18.2728 19.2137 19.1905 19.2137C20.192 19.2137 20.5959 18.4398 20.6635 17.8328H21.9678C22.044 18.641 21.6397 22 17.9946 22C15.7867 22 14.6194 20.7203 13.7439 19.2195Z" fill="black"/>
</svg>
