<svg width="24" height="24" viewBox="0 0 24 24" fill="none" xmlns="http://www.w3.org/2000/svg">
<path fill-rule="evenodd" clip-rule="evenodd" d="M13.9469 17.7254C14.2197 18.3682 14.593 18.9613 15.1225 19.3805C15.6047 19.7623 16.2165 20 17 20C18.644 20 20 18.7003 20 17.0141H19C19 17.6669 18.412 18.0352 17.8169 17.9938C17.0059 17.9374 16.4889 17.5002 16.0469 16.7891C17.3262 16.0589 18.9892 13.9972 19 11.0035C19.0151 6.80173 15.629 4 11.9999 4C8.43058 4 5 6.82222 5 11.0035C5 15.1454 8.43058 18.024 11.9999 18.024C12.6152 18.024 13.3734 17.9265 13.9365 17.7291C13.94 17.7279 13.9434 17.7266 13.9469 17.7254ZM12.9362 19.9726C12.6061 20.0079 12.2873 20.024 11.9999 20.024C7.42582 20.024 3 16.3472 3 11.0035C3 5.60678 7.44024 2 11.9999 2C16.6192 2 21.0195 5.58785 21 11.0106C20.9945 12.5261 20.65 13.8748 20.1157 15.0141H22V17.0141C22 19.8354 19.7178 22 17 22C15.3864 22 13.9005 21.2555 12.9362 19.9726ZM11.9999 5.00391C9.31937 5.00391 8.00411 7.28805 8.00411 11.0117C8.00411 14.4759 9.15457 16.6998 11.4964 16.9732C12.1812 17.0532 12.8937 16.9687 13.5352 16.7148C13.2375 15.9191 12.8537 14.7771 12.0003 14.2643C11.5652 14.0029 11.0264 13.9381 10.5352 14.0547C10.423 13.845 10.3562 13.612 10.2836 13.3866C10.8493 13.055 11.6162 12.9634 12.2632 13.0057C12.8293 13.0427 13.3036 13.2004 13.7099 13.4535C14.3263 13.8374 14.7858 14.4408 15.1709 15.1752C15.7643 14.1071 15.9897 12.4952 15.9897 11.0041C15.9897 7.28039 14.72 5.00391 11.9999 5.00391ZM13.9847 11.3608C13.988 11.2435 13.9897 11.1245 13.9897 11.0041C13.9897 9.31382 13.692 8.25483 13.3269 7.68029C13.0462 7.23864 12.6942 7.00391 11.9999 7.00391C11.3351 7.00391 10.9738 7.23296 10.681 7.69015C10.3093 8.27034 10.0041 9.3332 10.0041 11.0117C10.0041 11.1228 10.0055 11.2313 10.0081 11.337C10.1719 11.2816 10.3342 11.235 10.4844 11.1969C10.9063 11.0899 11.4415 10.9973 12.0003 10.9973C12.7171 10.9973 13.3803 11.1211 13.9847 11.3608Z" fill="black"/>
</svg>
