<svg width="24" height="24" viewBox="0 0 24 24" fill="none" xmlns="http://www.w3.org/2000/svg">
<path fill-rule="evenodd" clip-rule="evenodd" d="M18 6C19.1046 6 20 5.10457 20 4C20 2.89543 19.1046 2 18 2C17.319 2 16.7175 2.34035 16.3563 2.86023L13.5323 2.3251L12.6251 2.15319L12.3816 3.04386L11.2958 7.01473C9.55639 7.08841 7.90442 7.442 6.53018 8.15435C6.20379 8.05393 5.8576 8 5.5 8C3.567 8 2 9.567 2 11.5C2 12.4542 2.38252 13.3191 3.00015 13.9495L3 14C3 16.0422 4.10601 17.8148 5.74315 19.0426C7.37998 20.2703 9.59541 21 12 21C14.4046 21 16.62 20.2703 18.2569 19.0426C19.894 17.8148 21 16.0422 21 14L20.9998 13.9496C21.6175 13.3191 22 12.4542 22 11.5C22 9.567 20.433 8 18.5 8C18.1424 8 17.7962 8.05393 17.4698 8.15435C16.2689 7.53186 14.8559 7.18332 13.3579 7.05613L14.0672 4.46205L16.1965 4.86553C16.5192 5.53671 17.2055 6 18 6ZM7.12298 10.1133C8.3372 9.38002 10.0313 9 12 9C13.9687 9 15.6628 9.38003 16.877 10.1133L17.3459 10.3965L17.837 10.1539C18.0357 10.0557 18.2599 10 18.5 10C19.3284 10 20 10.6716 20 11.5C20 11.9945 19.7617 12.4332 19.3894 12.7081L18.9476 13.0342L18.9858 13.582C18.9951 13.717 19 13.8563 19 14C19 15.2715 18.3151 16.4989 17.0569 17.4426C15.7983 18.3866 14.0137 19 12 19C9.98631 19 8.20174 18.3866 6.94315 17.4426C5.68486 16.4989 5 15.2715 5 14C5 13.8563 5.00485 13.717 5.01425 13.582L5.05238 13.0342L4.6106 12.7081C4.23828 12.4332 4 11.9945 4 11.5C4 10.6716 4.67157 10 5.5 10C5.74006 10 5.96427 10.0557 6.16302 10.1539L6.6541 10.3965L7.12298 10.1133ZM9.4507 15.4015C9.11962 15.1526 8.64944 15.2192 8.40052 15.5503C8.15161 15.8814 8.21822 16.3515 8.5493 16.6005C10.5883 18.1334 13.4117 18.1334 15.4507 16.6005C15.7818 16.3516 15.8484 15.8814 15.5995 15.5503C15.3506 15.2192 14.8804 15.1526 14.5493 15.4015C13.0442 16.5331 10.9558 16.5331 9.4507 15.4015ZM9.5 14C10.3284 14 11 13.3284 11 12.5C11 11.6716 10.3284 11 9.5 11C8.67157 11 8 11.6716 8 12.5C8 13.3284 8.67157 14 9.5 14ZM15.9967 12.5985C15.9423 13.4251 15.2281 14.0511 14.4015 13.9967C13.5749 13.9423 12.9489 13.2281 13.0033 12.4015C13.0577 11.5749 13.7719 10.9489 14.5985 11.0033C15.4251 11.0577 16.0511 11.7719 15.9967 12.5985Z" fill="black"/>
</svg>
