<svg width="24" height="24" viewBox="0 0 24 24" fill="none" xmlns="http://www.w3.org/2000/svg">
<path fill-rule="evenodd" clip-rule="evenodd" d="M22 12C22 17.5228 17.5228 22 12 22C6.47715 22 2 17.5228 2 12C2 6.47715 6.47715 2 12 2C17.5228 2 22 6.47715 22 12ZM18 14C18 16.2091 15.3137 18 12 18C8.68629 18 6 16.2091 6 14C6 13.7303 6.04003 13.4669 6.11634 13.2122C5.74273 12.9394 5.5 12.498 5.5 12C5.5 11.1716 6.17157 10.5 7 10.5C7.42819 10.5 7.81446 10.6794 8.08777 10.9672C9.04554 10.4176 10.2665 10.0661 11.6075 10.0084L12.5149 6.37873L12.6269 5.93092L13.0822 6.0068L15.2279 6.36442C15.4113 6.14188 15.6891 6 16 6C16.5523 6 17 6.44772 17 7C17 7.55228 16.5523 8 16 8C15.5711 8 15.2053 7.73003 15.0632 7.35077L13.3731 7.06908L12.6349 10.0221C13.8804 10.1095 15.0125 10.4509 15.9122 10.9672C16.1855 10.6794 16.5718 10.5 17 10.5C17.8284 10.5 18.5 11.1716 18.5 12C18.5 12.498 18.2573 12.9394 17.8837 13.2122C17.96 13.4669 18 13.7303 18 14ZM10 14C10.5523 14 11 13.5523 11 13C11 12.4477 10.5523 12 10 12C9.44771 12 9 12.4477 9 13C9 13.5523 9.44771 14 10 14ZM10.0244 15.1901C9.80639 15.0205 9.49225 15.0598 9.32271 15.2778C9.15316 15.4957 9.19242 15.8099 9.41039 15.9794C10.0627 16.4868 10.9928 16.7839 11.9962 16.7839C12.9995 16.7839 13.9296 16.4868 14.5819 15.9794C14.7999 15.8099 14.8391 15.4957 14.6696 15.2778C14.5001 15.0598 14.1859 15.0205 13.968 15.1901C13.5198 15.5387 12.8164 15.7839 11.9962 15.7839C11.176 15.7839 10.4725 15.5387 10.0244 15.1901ZM14.9979 13.0657C14.9616 13.6168 14.4855 14.0342 13.9344 13.9979C13.3833 13.9616 12.9659 13.4855 13.0022 12.9344C13.0385 12.3833 13.5146 11.9659 14.0657 12.0022C14.6168 12.0385 15.0342 12.5146 14.9979 13.0657Z" fill="black"/>
</svg>
