<svg width="24" height="24" viewBox="0 0 24 24" fill="none" xmlns="http://www.w3.org/2000/svg">
<path fill-rule="evenodd" clip-rule="evenodd" d="M3.85732 19.0249L3.5 20.5L4.99916 20.1578L5.22168 21.1328L2.14785 21.8343L2.88543 18.7895L3.85732 19.0249ZM5.74874 19.9867L5.97126 20.9617L7.08107 20.7084C7.60121 21.0027 8.15053 21.252 8.72369 21.4507L9.0512 20.5058C8.41463 20.2852 7.81051 19.9951 7.2479 19.6446L5.74874 19.9867ZM10.0136 20.7801L9.79385 21.7556C10.5045 21.9157 11.243 22 12 22C12.7118 22 13.4074 21.9255 14.0788 21.7834L13.8719 20.8051C13.268 20.9328 12.6419 21 12 21C11.3175 21 10.6527 20.924 10.0136 20.7801ZM14.7821 20.5617L15.091 21.5129C16.4405 21.0746 17.6632 20.3578 18.6916 19.4313L18.0222 18.6884C17.096 19.5229 15.9956 20.1677 14.7821 20.5617ZM18.6884 18.0222L19.4313 18.6916C20.3578 17.6632 21.0746 16.4405 21.5129 15.091L20.5617 14.7821C20.1677 15.9956 19.5229 17.096 18.6884 18.0222ZM20.8051 13.8719L21.7834 14.0788C21.9255 13.4074 22 12.7118 22 12C22 11.2882 21.9255 10.5926 21.7834 9.92116L20.8051 10.1281C20.9328 10.732 21 11.3581 21 12C21 12.6419 20.9328 13.268 20.8051 13.8719ZM20.5617 9.21787L21.5129 8.90903C21.0746 7.55948 20.3578 6.3368 19.4313 5.30845L18.6884 5.97781C19.5229 6.904 20.1677 8.00441 20.5617 9.21787ZM18.0222 5.31161L18.6916 4.56867C17.6632 3.64215 16.4405 2.92537 15.091 2.48714L14.7821 3.43825C15.9956 3.83229 17.096 4.47713 18.0222 5.31161ZM13.8719 3.19493L14.0788 2.21658C13.4074 2.07454 12.7118 2 12 2C11.2882 2 10.5926 2.07454 9.92116 2.21658L10.1281 3.19493C10.732 3.06719 11.3581 3 12 3C12.6419 3 13.268 3.06719 13.8719 3.19493ZM9.21787 3.43825L8.90903 2.48714C7.55948 2.92537 6.3368 3.64215 5.30845 4.56867L5.97781 5.31161C6.904 4.47713 8.00441 3.83229 9.21787 3.43825ZM5.31161 5.97781L4.56867 5.30845C3.64215 6.3368 2.92537 7.55949 2.48714 8.90903L3.43825 9.21787C3.83229 8.00441 4.47713 6.904 5.31161 5.97781ZM3.19493 10.1281L2.21658 9.92116C2.07454 10.5926 2 11.2882 2 12C2 12.7679 2.08675 13.5169 2.25139 14.237L3.22624 14.0142C3.0782 13.3666 3 12.6924 3 12C3 11.3581 3.06719 10.732 3.19493 10.1281ZM3.50828 14.9891L2.56501 15.3211C2.76853 15.8993 3.02359 16.453 3.32457 16.9767L3.06409 18.052L4.03598 18.2874L4.3933 16.8124C4.03331 16.2445 3.73514 15.6336 3.50828 14.9891ZM12 18C15.3137 18 18 15.3137 18 12C18 8.68629 15.3137 6 12 6C8.68629 6 6 8.68629 6 12C6 13.3081 6.41627 14.513 7.1239 15.4973C8.2164 17.0169 9.99337 18 12 18ZM12 20C16.4183 20 20 16.4183 20 12C20 7.58172 16.4183 4 12 4C7.58172 4 4 7.58172 4 12C4 13.7248 4.54586 15.3222 5.47426 16.6287L5 19L7.37129 18.5257C8.67782 19.4541 10.2752 20 12 20Z" fill="black"/>
</svg>
