<svg width="24" height="24" viewBox="0 0 24 24" fill="none" xmlns="http://www.w3.org/2000/svg">
<path fill-rule="evenodd" clip-rule="evenodd" d="M3.85732 19.0249L2.88543 18.7895L2.14785 21.8343L5.22168 21.1328L4.99916 20.1578L3.5 20.5L3.85732 19.0249ZM5.74874 19.9867L7.2479 19.6446C7.81051 19.9951 8.41463 20.2852 9.0512 20.5058L8.72369 21.4507C8.15053 21.252 7.60121 21.0027 7.08107 20.7084L5.97126 20.9617L5.74874 19.9867ZM10.0136 20.7801C10.6527 20.924 11.3175 21 12 21C12.6419 21 13.268 20.9328 13.8719 20.8051L14.0788 21.7834C13.4074 21.9255 12.7118 22 12 22C11.243 22 10.5045 21.9157 9.79385 21.7556L10.0136 20.7801ZM14.7821 20.5617C15.9956 20.1677 17.096 19.5229 18.0222 18.6884L18.6916 19.4313C17.6632 20.3578 16.4405 21.0746 15.091 21.5129L14.7821 20.5617ZM18.6884 18.0222C19.5229 17.096 20.1677 15.9956 20.5617 14.7821L21.5129 15.091C21.0746 16.4405 20.3578 17.6632 19.4313 18.6916L18.6884 18.0222ZM20.8051 13.8719C20.9328 13.268 21 12.6419 21 12C21 11.3581 20.9328 10.732 20.8051 10.1281L21.7834 9.92116C21.9255 10.5926 22 11.2882 22 12C22 12.7118 21.9255 13.4074 21.7834 14.0788L20.8051 13.8719ZM20.5617 9.21787C20.1677 8.00441 19.5229 6.904 18.6884 5.97781L19.4313 5.30845C20.3578 6.3368 21.0746 7.55948 21.5129 8.90903L20.5617 9.21787ZM18.0222 5.31161C17.096 4.47713 15.9956 3.83229 14.7821 3.43825L15.091 2.48714C16.4405 2.92537 17.6632 3.64215 18.6916 4.56867L18.0222 5.31161ZM13.8719 3.19493C13.268 3.06719 12.6419 3 12 3C11.3581 3 10.732 3.06719 10.1281 3.19493L9.92116 2.21658C10.5926 2.07454 11.2882 2 12 2C12.7118 2 13.4074 2.07454 14.0788 2.21658L13.8719 3.19493ZM9.21787 3.43825C8.00441 3.83229 6.904 4.47713 5.97781 5.31161L5.30845 4.56867C6.3368 3.64215 7.55948 2.92537 8.90903 2.48714L9.21787 3.43825ZM5.31161 5.97781C4.47713 6.904 3.83229 8.00441 3.43825 9.21787L2.48714 8.90903C2.92537 7.55949 3.64215 6.3368 4.56867 5.30845L5.31161 5.97781ZM3.19493 10.1281C3.06719 10.732 3 11.3581 3 12C3 12.6924 3.0782 13.3666 3.22624 14.0142L2.25139 14.237C2.08675 13.5169 2 12.7679 2 12C2 11.2882 2.07454 10.5926 2.21658 9.92116L3.19493 10.1281ZM3.50828 14.9891C3.73514 15.6336 4.03331 16.2445 4.3933 16.8124L4.03598 18.2874L3.06409 18.052L3.32457 16.9767C3.02359 16.453 2.76853 15.8993 2.56501 15.3211L3.50828 14.9891ZM20 12C20 16.4183 16.4183 20 12 20C10.2752 20 8.67782 19.4541 7.37129 18.5257L5 19L5.47426 16.6287C4.54586 15.3222 4 13.7248 4 12C4 7.58172 7.58172 4 12 4C16.4183 4 20 7.58172 20 12Z" fill="black"/>
</svg>
