<svg width="24" height="24" viewBox="0 0 24 24" fill="none" xmlns="http://www.w3.org/2000/svg">
<path fill-rule="evenodd" clip-rule="evenodd" d="M16.1098 5.02141C16.2376 5.00729 16.3677 5 16.5 5C18.433 5 20 6.567 20 8.5C20 8.63223 19.9927 8.76237 19.9786 8.89012C19.9179 9.43907 20.3137 9.93326 20.8626 9.99395C21.4116 10.0546 21.9058 9.65882 21.9664 9.10988C21.9886 8.90929 22 8.70578 22 8.5C22 5.46243 19.5375 3 16.5 3C16.2942 3 16.0907 3.01135 15.8901 3.03352C15.3411 3.0942 14.9453 3.5884 15.006 4.13734C15.0667 4.68628 15.5609 5.08209 16.1098 5.02141ZM16.5 6C15.9477 6 15.5 6.44772 15.5 7C15.5 7.55228 15.9477 8 16.5 8C16.7761 8 17 8.22386 17 8.5C17 9.05228 17.4477 9.5 18 9.5C18.5523 9.5 19 9.05228 19 8.5C19 7.11929 17.8807 6 16.5 6ZM6.77412 13.3726C7.45854 11.9844 9.23859 11.1979 10.8144 11.6091C12.4454 12.0314 13.2789 13.5685 12.611 15.0643C11.9349 16.5905 9.992 17.4074 8.34167 16.8747C6.75204 16.3614 6.0759 14.7884 6.77412 13.3726ZM10.0969 14.0819C10.2956 14.1646 10.5522 14.0708 10.6681 13.8721C10.7785 13.6706 10.7068 13.4471 10.5081 13.3754C10.3121 13.2981 10.0665 13.3919 9.95061 13.5851C9.83746 13.7783 9.89817 14.0018 10.0969 14.0819ZM8.08777 15.7239C8.60384 15.9585 9.29102 15.735 9.61116 15.2244C9.92577 14.7083 9.76018 14.1205 9.24135 13.8969C8.72803 13.6817 8.06569 13.9025 7.74832 14.3992C7.42818 14.8987 7.57997 15.4921 8.08777 15.7239ZM16.7415 10.6971C17.656 11.3056 18.5393 12.3263 18.5369 13.9291C18.5358 15.7496 17.303 17.2974 15.8915 18.2805C14.3967 19.3217 12.3653 20 10.0285 20C8.25097 20 6.38415 19.5755 4.89273 18.7101C3.40971 17.8495 2 16.343 2 14.1787C2 12.1544 3.223 10.2334 4.72749 8.72892C5.78094 7.67546 6.98701 6.83822 8.15378 6.38276C8.73418 6.15619 9.39677 5.98817 10.0772 6.00065C11.2384 6.02195 12.3397 6.63983 12.8479 7.69839C14.8637 7.47035 16.7038 8.64303 16.7415 10.6971ZM10.7692 8.22518C9.9165 7.56669 7.88877 8.39606 6.1417 10.1431C4.78727 11.4976 4 12.9353 4 14.1787C4 16.5544 7.04796 18 10.0285 18C13.9371 18 16.5369 15.7294 16.5369 13.9268C16.5389 12.8361 15.6207 12.2174 14.7958 11.9616L14.7907 11.9601C14.5912 11.8994 14.4556 11.8582 14.5598 11.5947C14.7898 11.0177 14.8136 10.5199 14.5637 10.163C14.0977 9.49666 12.8207 9.53233 11.3571 10.1451C11.3571 10.1451 10.8971 10.3454 11.0161 9.9825C11.258 9.20113 11.1896 8.54983 10.7692 8.22518Z" fill="black"/>
</svg>
