<svg width="24" height="24" viewBox="0 0 24 24" fill="none" xmlns="http://www.w3.org/2000/svg">
<path d="M15.5974 4.1151C17.3857 3.73902 19.323 4.28678 20.6367 5.72566C21.9503 7.16181 22.3063 9.1212 21.7433 10.8353V10.838C21.6136 11.2332 21.1831 11.4512 20.7802 11.3231C20.3773 11.195 20.1565 10.7699 20.2862 10.372C20.6864 9.15117 20.4325 7.75862 19.4997 6.73669C18.5669 5.71476 17.1897 5.32506 15.9175 5.59213C15.5035 5.67933 15.0978 5.42044 15.0095 5.01167C14.9212 4.60562 15.1834 4.2023 15.5974 4.1151Z" fill="black"/>
<path fill-rule="evenodd" clip-rule="evenodd" d="M6.6916 14.4489C7.37602 13.0781 9.15606 12.3014 10.7319 12.7075C12.3629 13.1244 13.1964 14.6424 12.5285 16.1194C11.8524 17.6264 9.90948 18.433 8.25914 17.9071C6.66952 17.4002 5.99338 15.8469 6.6916 14.4489ZM10.0144 15.1492C10.2131 15.231 10.4697 15.1383 10.5856 14.9421C10.696 14.7432 10.6243 14.5224 10.4256 14.4516C10.2296 14.3753 9.98399 14.4679 9.86808 14.6587C9.75493 14.8495 9.81565 15.0702 10.0144 15.1492ZM8.00524 16.7707C8.52132 17.0023 9.2085 16.7816 9.52863 16.2774C9.84325 15.7678 9.67766 15.1874 9.15882 14.9666C8.64551 14.7541 7.98317 14.9721 7.66579 15.4626C7.34566 15.9559 7.49745 16.5418 8.00524 16.7707Z" fill="black"/>
<path fill-rule="evenodd" clip-rule="evenodd" d="M17.0171 11.6998L17.0241 11.7019C18.1722 12.0535 19.45 12.9037 19.4472 14.4025C19.4472 16.8797 15.8292 20 10.3897 20C6.24176 20 2 18.0134 2 14.7486C2 13.04 3.09563 11.0642 4.98054 9.20295C7.50021 6.71489 10.4394 5.58123 11.5433 6.67401C12.029 7.15636 12.0759 7.98753 11.764 8.98221C11.5985 9.48092 12.2387 9.20568 12.2387 9.20568C14.2754 8.36361 16.0527 8.31455 16.7013 9.2302C17.049 9.72073 17.0159 10.4047 16.6957 11.1978C16.5507 11.5599 16.7394 11.6165 17.0171 11.6998ZM4.01739 15.528C4.23265 17.6727 7.09176 19.1525 10.4035 18.8282C13.7124 18.5066 16.2238 16.5036 16.0058 14.3562C15.7933 12.2115 12.9342 10.7318 9.62247 11.0561C6.31351 11.3803 3.80212 13.3806 4.01739 15.528Z" fill="black"/>
<path d="M18.6193 7.52426C17.979 6.8239 17.0352 6.55683 16.1659 6.74214C15.8099 6.81572 15.5836 7.16454 15.6581 7.51608C15.7353 7.86763 16.0858 8.09109 16.4391 8.01479C16.8641 7.92486 17.3277 8.05566 17.6396 8.39631C17.9514 8.73968 18.037 9.20568 17.9018 9.61445C17.7914 9.95509 17.979 10.323 18.3268 10.4347C18.6745 10.5437 19.0443 10.3584 19.1574 10.015C19.4307 9.17843 19.2596 8.22462 18.6193 7.52426Z" fill="black"/>
</svg>
