<svg width="24" height="24" viewBox="0 0 24 24" fill="none" xmlns="http://www.w3.org/2000/svg">
<path fill-rule="evenodd" clip-rule="evenodd" d="M8 2C4.68629 2 2 4.68629 2 8C2 9.24032 2.37733 10.3948 3.02302 11.352C3.00775 11.5661 3 11.7822 3 12C3 16.9706 7.02944 21 12 21C12.2178 21 12.4339 20.9922 12.648 20.977C13.6052 21.6227 14.7597 22 16 22C19.3137 22 22 19.3137 22 16C22 14.7597 21.6227 13.6052 20.977 12.648C20.9922 12.4339 21 12.2178 21 12C21 7.02944 16.9706 3 12 3C11.7822 3 11.5661 3.00775 11.352 3.02302C10.3948 2.37733 9.24032 2 8 2ZM4 8C4 5.79086 5.79086 4 8 4C9.07386 4 9.95608 4.453 10.7787 5.09387C11.1852 5.04683 11.59 5 12 5C15.866 5 19 8.13401 19 12C19 12.41 18.9532 12.8148 18.9061 13.2213C19.547 14.0439 20 14.9261 20 16C20 18.2091 18.2091 20 16 20C14.9261 20 14.0439 19.547 13.2213 18.9061C12.8148 18.9532 12.41 19 12 19C8.13401 19 5 15.866 5 12C5 11.59 5.04683 11.1852 5.09387 10.7787C4.453 9.95608 4 9.07386 4 8ZM12 7C10.5233 7 9 8.18325 9 9.8541C9 10.7988 9.40847 11.4832 9.9721 11.9691C10.4556 12.3858 11.0667 12.6633 11.5265 12.8721C12.0818 13.1244 13 13.4022 13 14.1459C13 14.523 12.5713 15 12 15C11.4738 15 11.0201 14.824 10.6836 14.6318C10.3939 14.4662 10.2123 14.2977 10.2013 14.2871C10.2156 14.3012 8.78898 15.7032 8.79342 15.7076C9.05743 15.9708 9.36868 16.1839 9.69136 16.3682C10.2299 16.676 11.0262 17 12 17C13.4767 17 15 15.8168 15 14.1459C15 13.1986 14.5959 12.5094 14.0322 12.0179C13.5434 11.5917 12.9253 11.3109 12.4617 11.1003C12.059 10.9172 11.617 10.7465 11.2779 10.4542C10.6371 9.90181 11.251 9 12 9C12.5262 9 12.9799 9.176 13.3164 9.36824C13.6061 9.53379 13.7877 9.70234 13.7987 9.71291C13.7847 9.69902 15.2111 8.29688 15.2066 8.29236L15.2048 8.29063C14.9407 8.0289 14.6306 7.81573 14.3086 7.63176C13.7701 7.324 12.9738 7 12 7Z" fill="black"/>
</svg>
