<svg width="24" height="24" viewBox="0 0 24 24" fill="none" xmlns="http://www.w3.org/2000/svg">
<path fill-rule="evenodd" clip-rule="evenodd" d="M16 22C14.7585 22 13.605 21.6229 12.6479 20.977C12.4339 20.9923 12.2179 21 12 21C7.02944 21 3 16.9706 3 12C3 11.7821 3.00774 11.5661 3.02297 11.3521C2.37708 10.395 2 9.24153 2 8C2 4.68629 4.68629 2 8 2C9.24153 2 10.395 2.37708 11.3521 3.02297C11.5661 3.00774 11.7821 3 12 3C16.9706 3 21 7.02944 21 12C21 12.2179 20.9923 12.4339 20.977 12.6479C21.6229 13.605 22 14.7585 22 16C22 19.3137 19.3137 22 16 22ZM12 7C10.5233 7 9 8.18325 9 9.8541C9 10.7988 9.40847 11.4832 9.9721 11.9691C10.4556 12.3858 11.0667 12.6633 11.5265 12.8721C11.9325 13.0565 12.3777 13.2289 12.7178 13.5254C12.9041 13.6878 13 13.8496 13 14.1459C13 14.523 12.5713 15 12 15C11.4738 15 11.0201 14.824 10.6836 14.6318C10.3939 14.4662 10.2123 14.2977 10.2013 14.2871L10.2036 14.2894L10.2052 14.291L10.2061 14.2919C10.2077 14.2934 8.79342 15.7076 8.79342 15.7076L8.79516 15.7094L8.79782 15.712C9.06106 15.9705 9.37217 16.1858 9.69136 16.3682C10.2299 16.676 11.0262 17 12 17C13.4767 17 15 15.8168 15 14.1459C15 13.1986 14.5959 12.5094 14.0322 12.0179C13.5576 11.6042 12.9821 11.3368 12.4141 11.0786C11.8796 10.8355 11.5233 10.6657 11.2779 10.4542C11.0915 10.2936 11 10.138 11 9.8541C11 9.47697 11.4287 9 12 9C12.5262 9 12.9799 9.176 13.3164 9.36824C13.6061 9.53379 13.7877 9.70234 13.7987 9.71291L13.7964 9.71055L13.7948 9.709C13.7904 9.70461 15.2085 8.29432 15.2066 8.29236L15.2048 8.29063L15.2022 8.288C14.9382 8.02871 14.6291 7.8149 14.3086 7.63176C13.7701 7.324 12.9738 7 12 7Z" fill="black"/>
</svg>
