<svg width="24" height="24" viewBox="0 0 24 24" fill="none" xmlns="http://www.w3.org/2000/svg">
<path fill-rule="evenodd" clip-rule="evenodd" d="M13 5.25C13 4.55964 13.5596 4 14.25 4C14.9404 4 15.5 4.55964 15.5 5.25V9.75C15.5 10.4404 14.9404 11 14.25 11C13.5596 11 13 10.4404 13 9.75V5.25ZM17.5 6.74908V5.25C17.5 3.45507 16.0449 2 14.25 2C13.3768 2 12.5839 2.3444 12 2.90479C11.4161 2.3444 10.6232 2 9.75 2C7.95507 2 6.5 3.45507 6.5 5.25C6.5 5.69295 6.58861 6.1152 6.74908 6.5H5.25C3.45507 6.5 2 7.95507 2 9.75C2 10.6232 2.3444 11.4161 2.90479 12C2.3444 12.5839 2 13.3768 2 14.25C2 16.0449 3.45507 17.5 5.25 17.5C5.69295 17.5 6.1152 17.4114 6.5 17.2509V18.75C6.5 20.5449 7.95507 22 9.75 22C10.6232 22 11.4161 21.6556 12 21.0952C12.5839 21.6556 13.3768 22 14.25 22C16.0449 22 17.5 20.5449 17.5 18.75C17.5 18.307 17.4114 17.8848 17.2509 17.5H18.75C20.5449 17.5 22 16.0449 22 14.25C22 13.3768 21.6556 12.5839 21.0952 12C21.6556 11.4161 22 10.6232 22 9.75C22 7.95507 20.5449 6.5 18.75 6.5C18.307 6.5 17.8848 6.58861 17.5 6.74908ZM17.5 11H18.75C19.4404 11 20 10.4404 20 9.75C20 9.05964 19.4404 8.5 18.75 8.5C18.0596 8.5 17.5 9.05964 17.5 9.75V11ZM18.75 13H14.25C13.5596 13 13 13.5596 13 14.25C13 14.9404 13.5596 15.5 14.25 15.5H18.75C19.4404 15.5 20 14.9404 20 14.25C20 13.5596 19.4404 13 18.75 13ZM11 18.75C11 19.4404 10.4404 20 9.75 20C9.05964 20 8.5 19.4404 8.5 18.75V14.25C8.5 13.5596 9.05964 13 9.75 13C10.4404 13 11 13.5596 11 14.25V18.75ZM14.25 17.5H13V18.75C13 19.4404 13.5596 20 14.25 20C14.9404 20 15.5 19.4404 15.5 18.75C15.5 18.0596 14.9404 17.5 14.25 17.5ZM6.5 13H5.25C4.55964 13 4 13.5596 4 14.25C4 14.9404 4.55964 15.5 5.25 15.5C5.94036 15.5 6.5 14.9404 6.5 14.25V13ZM5.25 11H9.75C10.4404 11 11 10.4404 11 9.75C11 9.05964 10.4404 8.5 9.75 8.5H5.25C4.55964 8.5 4 9.05964 4 9.75C4 10.4404 4.55964 11 5.25 11ZM8.5 5.25C8.5 5.94036 9.05964 6.5 9.75 6.5H11V5.25C11 4.55964 10.4404 4 9.75 4C9.05964 4 8.5 4.55964 8.5 5.25Z" fill="black"/>
</svg>
