<svg width="24" height="24" viewBox="0 0 24 24" fill="none" xmlns="http://www.w3.org/2000/svg">
<path fill-rule="evenodd" clip-rule="evenodd" d="M8.0226 8C8.0226 5.79086 9.81139 4 12.018 4C14.2246 4 16.0134 5.79086 16.0134 8V10.4757L17.2358 10.1959C17.6423 10.1041 18.0687 10.0044 18.4862 9.99709C18.6477 9.99425 18.8174 10.0725 18.9172 10.2164C19.0433 10.3982 19.0413 10.7622 18.8324 10.8913C17.9421 11.4416 17.0367 11.9674 16.1349 12.4987C16.1344 12.5008 16.1337 12.503 16.1329 12.5052C16.7223 14.6401 18.1262 15.5632 20.0088 16.3994C20.0088 16.9248 19.5473 17.0363 19.0808 17.149C18.837 17.2079 18.5919 17.2672 18.4107 17.386C18.0339 17.6331 17.9959 18.0752 17.6863 18.3994C17.4672 18.629 17.2037 18.7994 16.8125 18.7994C15.8137 18.7994 15.1145 19.0994 14.4153 19.3994C13.7161 19.6994 13.0169 19.9994 12.0179 19.9994C11.0191 19.9994 10.3199 19.6994 9.62074 19.3994C8.92156 19.0994 8.22233 18.7994 7.2235 18.7994C6.65847 18.7994 6.29113 18.4054 6.05211 17.9399C5.94459 17.7306 5.83987 17.5267 5.62535 17.386C5.09739 17.0398 4.0272 17.1994 4.0272 16.3994C5.91118 15.5626 7.31572 14.6387 7.90433 12.5006C7.00165 11.9686 6.09488 11.4422 5.20354 10.8913C4.99463 10.7622 4.99262 10.3982 5.11873 10.2164C5.21855 10.0725 5.38828 9.99425 5.54976 9.99709C6.37815 10.0117 7.21948 10.2919 8.0226 10.4757V8ZM18.011 8C18.011 8.05498 18.378 7.99868 18.4511 7.9974C19.2274 7.98375 20.0491 8.34182 20.5581 9.0756C21.3595 10.231 21.0278 11.8848 19.8819 12.5931C19.5542 12.7956 19.048 13.0985 18.6281 13.3481C19.0627 14.1276 19.6058 14.5304 20.0757 14.7882C20.5447 15.0456 21.1021 15.1809 21.5214 15.5231C21.7159 15.6819 22 16.0006 22 16.4925C22 17.5269 21.1766 18.493 20.0001 18.493C19.8081 18.493 19.6276 18.5541 19.5195 18.6246L19.5082 18.6322C19.4313 19.6582 18.5549 20.4886 17.513 20.4886C16.5208 20.4886 15.968 20.7696 15.2489 21.1357C14.4723 21.531 13.5454 22 12.018 22C10.5006 22 9.57884 21.5537 8.79876 21.1754C8.07818 20.826 7.50844 20.5508 6.487 20.5508C5.44508 20.5508 4.56868 19.7205 4.49176 18.6944L4.48047 18.6868C4.37237 18.6163 4.19193 18.5552 3.99989 18.5552C2.82339 18.5552 2 17.5891 2 16.5547C2 16.0956 2.25121 15.7842 2.406 15.6302C2.81845 15.2197 3.38869 14.9953 3.87539 14.6854C4.37861 14.3651 4.91383 13.9448 5.34634 13.3116C4.93943 13.0694 4.46589 12.7858 4.15408 12.5931C3.00817 11.8848 2.67643 10.231 3.47789 9.0756C3.98687 8.34182 4.80855 7.98375 5.58484 7.9974C5.65792 7.99868 6.02491 8.05498 6.02491 8C6.02491 4.68629 8.7081 2 12.018 2C15.3279 2 18.011 4.68629 18.011 8Z" fill="black"/>
</svg>
