<svg width="24" height="24" viewBox="0 0 24 24" fill="none" xmlns="http://www.w3.org/2000/svg">
<path fill-rule="evenodd" clip-rule="evenodd" d="M6.5 10V7.5C6.5 4.46243 8.96243 2 12 2C15.0377 2 17.5001 4.46243 17.5001 7.5V10C17.5001 10 18.6828 9.49515 19.0001 9.5C19.6962 9.51064 20.0001 10 20.0001 10.5C20.0001 10.6736 19.9398 10.8473 19.8401 11C19.5001 11.521 17.6588 13 17.6588 13C18.0409 14.2287 19.0506 15.3326 20.0001 16C20.3745 16.2631 20.7395 16.4413 21.053 16.5943C21.6069 16.8647 22.0001 17.0566 22.0001 17.5C22.0001 18.1567 21.4225 18.2961 20.8388 18.437C20.5337 18.5107 20.2269 18.5847 20.0001 18.7333C19.7317 18.9091 19.6006 19.164 19.4661 19.4257C19.3643 19.6236 19.2605 19.8255 19.0937 20C18.8194 20.287 18.4897 20.5 18.0001 20.5C16.7501 20.5 15.8751 20.875 15.0001 21.25C14.1251 21.625 13.2501 22 12 22C10.75 22 9.875 21.625 9 21.25C8.125 20.875 7.25 20.5 6 20.5C5.51047 20.5 5.18069 20.287 4.90643 20C4.73962 19.8255 4.63583 19.6236 4.53406 19.4257C4.39951 19.164 4.26846 18.9091 4 18.7333C3.77319 18.5847 3.4664 18.5107 3.16129 18.437C2.57758 18.2961 2 18.1567 2 17.5C2 17.0566 2.39319 16.8647 2.94708 16.5943C3.26062 16.4413 3.62564 16.2631 4 16C4.94955 15.3326 5.95923 14.2287 6.34128 13C6.34128 13 4.5 11.521 4.15997 11C4.0603 10.8473 4 10.6736 4 10.5C4 10 4.30392 9.51064 5 9.5C5.31735 9.49515 6.5 10 6.5 10Z" fill="black"/>
</svg>
