<svg width="24" height="24" viewBox="0 0 24 24" fill="none" xmlns="http://www.w3.org/2000/svg">
<path fill-rule="evenodd" clip-rule="evenodd" d="M19.957 12.837C19.4951 17.2311 15.5587 20.4188 11.1646 19.957C6.77051 19.4951 3.5828 15.5587 4.04463 11.1646C4.50647 6.77051 8.44296 3.5828 12.837 4.04463C17.2311 4.50647 20.4188 8.44296 19.957 12.837ZM21.946 13.0461C21.3687 18.5387 16.4481 22.5233 10.9555 21.946C5.46293 21.3687 1.4783 16.4481 2.05559 10.9555C2.63288 5.46293 7.5535 1.4783 13.0461 2.05559C18.5387 2.63288 22.5233 7.5535 21.946 13.0461ZM7.46079 10.0223C8.95684 9.69006 10.587 9.58808 12.2758 9.76558C13.9646 9.94308 15.5379 10.3818 16.9322 11.0177C17.309 11.1896 17.7539 11.0235 17.9258 10.6466C18.0977 10.2698 17.9315 9.82491 17.5547 9.65301C16.0107 8.94873 14.2798 8.46795 12.4326 8.27379C10.5853 8.07964 8.79236 8.19005 7.13564 8.55792C6.73128 8.64771 6.47626 9.0483 6.56605 9.45267C6.65584 9.85703 7.05643 10.112 7.46079 10.0223ZM8.12937 13.3101C9.33813 13.0263 10.5206 12.9328 11.9274 13.0807C13.3341 13.2285 14.4712 13.5658 15.5946 14.0947C15.9693 14.2712 16.4161 14.1105 16.5926 13.7357C16.7691 13.361 16.6083 12.9141 16.2336 12.7377C14.9615 12.1386 13.6617 11.7547 12.0841 11.5889C10.5066 11.4231 9.1553 11.5284 7.78644 11.8498C7.3832 11.9445 7.13307 12.3482 7.22777 12.7514C7.32246 13.1547 7.72612 13.4048 8.12937 13.3101ZM8.49602 16.1292C9.40314 15.9261 10.4774 15.861 11.6225 15.9813C12.7676 16.1017 13.8048 16.3888 14.6499 16.776C15.0264 16.9486 15.4716 16.7832 15.6441 16.4066C15.8167 16.0301 15.6513 15.5849 15.2747 15.4124C14.2688 14.9514 13.0717 14.6254 11.7793 14.4896C10.4868 14.3537 9.24807 14.4237 8.16832 14.6655C7.76411 14.756 7.50979 15.157 7.60028 15.5612C7.69077 15.9654 8.09181 16.2197 8.49602 16.1292Z" fill="black"/>
</svg>
