<svg width="24" height="24" viewBox="0 0 24 24" fill="none" xmlns="http://www.w3.org/2000/svg">
<path fill-rule="evenodd" clip-rule="evenodd" d="M10.9555 21.946C16.4481 22.5233 21.3687 18.5387 21.946 13.0461C22.5233 7.5535 18.5387 2.63288 13.0461 2.05559C7.5535 1.4783 2.63288 5.46293 2.05559 10.9555C1.4783 16.4481 5.46293 21.3687 10.9555 21.946ZM6.56854 9.32343C8.35308 8.92718 10.2984 8.80535 12.3144 9.01724C14.3304 9.22913 16.2079 9.75275 17.871 10.5114C18.3735 10.7406 18.9667 10.519 19.1959 10.0166C19.4251 9.51407 19.2035 8.92093 18.701 8.69173C16.8382 7.84203 14.7507 7.26229 12.5235 7.0282C10.2962 6.79411 8.13377 6.92716 6.135 7.37099C5.59585 7.49071 5.25583 8.02483 5.37555 8.56398C5.49526 9.10313 6.02938 9.44315 6.56854 9.32343ZM11.9067 12.8959C10.2127 12.7178 8.59323 12.8284 7.14847 13.1676C6.66458 13.2813 6.18019 12.9811 6.06655 12.4972C5.95292 12.0133 6.25307 11.5289 6.73696 11.4153C8.38535 11.0282 10.2078 10.9074 12.0949 11.1057C13.982 11.3041 15.7395 11.8012 17.2714 12.5225C17.7211 12.7343 17.9139 13.2705 17.7022 13.7202C17.4904 14.1699 16.9542 14.3628 16.5045 14.151C15.1619 13.5188 13.6008 13.0739 11.9067 12.8959ZM7.75636 16.4078C8.86217 16.1602 10.1677 16.0816 11.5566 16.2275C12.9454 16.3735 14.2061 16.7219 15.2362 17.194C15.6128 17.3665 16.058 17.2011 16.2305 16.8246C16.4031 16.448 16.2377 16.0029 15.8611 15.8303C14.6701 15.2846 13.2495 14.8972 11.7134 14.7357C10.1772 14.5743 8.7071 14.6578 7.42866 14.944C7.02445 15.0345 6.77013 15.4356 6.86062 15.8398C6.95112 16.244 7.35215 16.4983 7.75636 16.4078Z" fill="black"/>
</svg>
