<svg width="24" height="24" viewBox="0 0 24 24" fill="none" xmlns="http://www.w3.org/2000/svg">
<path fill-rule="evenodd" clip-rule="evenodd" d="M4 4C4 2.89543 4.89543 2 6 2H18C19.1046 2 20 2.89543 20 4V20C20 21.1046 19.1046 22 18 22H6C4.89543 22 4 21.1046 4 20V4ZM6 19V14H8V18H16V14H18V19V20H17H7H6V19ZM18.2999 7.32267L16.2067 3.91406C15.625 4.2713 15.0735 4.67304 14.5571 5.11454L17.1563 8.15496C17.5147 7.84852 17.8971 7.57002 18.2999 7.32267ZM16.1549 9.15634L13.1145 6.55714C12.673 7.07359 12.2712 7.62505 11.914 8.20678L15.3226 10.3C15.57 9.89717 15.8485 9.5148 16.1549 9.15634ZM14.6814 11.556L10.9864 10.0238C10.7278 10.6475 10.5163 11.2957 10.3564 11.964L14.2467 12.8947C14.357 12.4336 14.5028 11.9865 14.6814 11.556ZM10 15.0001C10 14.6565 10.0133 14.316 10.0395 13.9791L14.0275 14.2889C14.0093 14.5228 14 14.76 14 15.0001C14 15.2402 14.0093 15.4773 14.0275 15.7112L10.0395 16.021C10.0133 15.6841 10 15.3437 10 15.0001Z" fill="black"/>
</svg>
