<svg width="24" height="24" viewBox="0 0 24 24" fill="none" xmlns="http://www.w3.org/2000/svg">
<path fill-rule="evenodd" clip-rule="evenodd" d="M15.9998 5C13.7902 5 11.9998 6.79023 11.9998 8.99756V9.2998L11.8324 9.55144L9.83164 12.5589L9.53935 12.9983L9.01169 13.005C8.3473 13.0134 7.78775 13.2009 7.33949 13.4939L6.85854 13.8083L6.34476 13.5511L4 12.3774V14.6097L5.44879 15.3318L5.96697 15.5901L6.00097 16.1681C6.09261 17.7259 7.44319 19 9.00381 19C10.5024 19 11.9899 17.7613 11.9943 15.994L11.9956 15.4601L12.44 15.1642L15.4455 13.1628L15.6973 12.9951H15.9998C18.2094 12.9951 19.9998 11.2049 19.9998 8.99756C19.9998 6.79023 18.2094 5 15.9998 5ZM10.0079 8.68314C10.1715 5.51652 12.792 3 15.9998 3C19.313 3 21.9998 5.68474 21.9998 8.99756C21.9998 12.2049 19.4815 14.8234 16.3145 14.987L13.9637 16.5524C13.6716 19.2225 11.339 21 9.00381 21C6.58643 21 4.50503 19.2124 4.07657 16.8825L2.55391 16.1236L2 15.8475V15.2286V10.7585V9.13963L3.44762 9.86427L6.76393 11.5243C7.2715 11.2748 7.83428 11.107 8.44071 11.0389L10.0079 8.68314ZM15.9999 10C16.5522 10 16.9999 9.55228 16.9999 9C16.9999 8.44772 16.5522 8 15.9999 8C15.4476 8 14.9999 8.44772 14.9999 9C14.9999 9.55228 15.4476 10 15.9999 10ZM15.9999 12C17.6567 12 18.9999 10.6569 18.9999 9C18.9999 7.34315 17.6567 6 15.9999 6C14.343 6 12.9999 7.34315 12.9999 9C12.9999 10.6569 14.343 12 15.9999 12ZM8.99995 18C7.93664 18 7.06714 17.1702 7.00366 16.1229L7.65321 16.4548C8.14501 16.7061 8.74741 16.5112 8.99873 16.0194C9.25004 15.5276 9.0551 14.9252 8.56331 14.6739L7.89528 14.3325C8.2118 14.1224 8.59158 14 8.99995 14C10.1045 14 11 14.8954 11 16C11 17.1046 10.1045 18 8.99995 18Z" fill="black"/>
</svg>
