<svg width="24" height="24" viewBox="0 0 24 24" fill="none" xmlns="http://www.w3.org/2000/svg">
<path fill-rule="evenodd" clip-rule="evenodd" d="M12 22C17.5228 22 22 17.5228 22 12C22 6.47715 17.5228 2 12 2C7.05308 2 2.94514 5.59207 2.14217 10.3102L7.23477 12.5741C7.54868 12.3453 7.9087 12.1759 8.29826 12.0826L10.0042 9.69387C10.0015 9.62959 10.0001 9.56496 10.0001 9.5C10.0001 7.01472 12.0148 5 14.5001 5C16.9854 5 19.0001 7.01472 19.0001 9.5C19.0001 11.9853 16.9854 14 14.5001 14C14.4348 14 14.3699 13.9986 14.3053 13.9959L11.9177 15.7012C11.602 17.0198 10.4155 18 9.00013 18C7.44988 18 6.17428 16.8241 6.01654 15.3157L2.12502 13.5857C2.88486 18.355 7.01676 22 12 22ZM2.00007 12.037C2.00007 12.0125 2.00007 11.9879 2.00007 11.9633C2.00002 11.9755 2 11.9878 2 12C2 12.0124 2.00002 12.0247 2.00007 12.037ZM7.814 15.9183C8.34572 15.8772 8.83857 15.5532 9.07041 15.0317C9.30238 14.5099 9.21249 13.9266 8.88629 13.5043C8.92387 13.5014 8.96183 13.5 9.00013 13.5C9.82855 13.5 10.5001 14.1716 10.5001 15C10.5001 15.8284 9.82855 16.5 9.00013 16.5C8.51766 16.5 8.08839 16.2722 7.814 15.9183ZM17.5001 9.5C17.5001 11.1569 16.157 12.5 14.5001 12.5C12.8433 12.5 11.5001 11.1569 11.5001 9.5C11.5001 7.84315 12.8433 6.5 14.5001 6.5C16.157 6.5 17.5001 7.84315 17.5001 9.5ZM16.0001 9.5C16.0001 10.3284 15.3286 11 14.5001 11C13.6717 11 13.0001 10.3284 13.0001 9.5C13.0001 8.67157 13.6717 8 14.5001 8C15.3286 8 16.0001 8.67157 16.0001 9.5Z" fill="black"/>
</svg>
