<svg width="24" height="24" viewBox="0 0 24 24" fill="none" xmlns="http://www.w3.org/2000/svg">
<path fill-rule="evenodd" clip-rule="evenodd" d="M5 3C3.89543 3 3 3.89543 3 5V19C3 20.1046 3.89543 21 5 21H19C20.1046 21 21 20.1046 21 19V5C21 3.89543 20.1046 3 19 3H5ZM11.3468 9.57363C11.3468 9.05934 11.7701 8.86154 12.4712 8.86154C13.4765 8.86154 14.7465 9.16483 15.7518 9.70549V6.60659C14.6539 6.17143 13.5691 6 12.4712 6C9.78583 6 8 7.3978 8 9.73187C8 11.9288 9.83164 12.5882 11.2836 13.1109C12.237 13.4542 13.0268 13.7385 13.0268 14.3604C13.0268 14.967 12.4976 15.1648 11.7569 15.1648C10.6589 15.1648 9.25669 14.7165 8.14551 14.1099V17.2484C9.37575 17.7758 10.6192 18 11.7569 18C14.5083 18 16.4 16.6418 16.4 14.2813C16.3918 11.8457 14.4525 11.1882 12.9791 10.6886C12.0753 10.3821 11.3468 10.1351 11.3468 9.57363Z" fill="black"/>
</svg>
