<svg width="24" height="24" viewBox="0 0 24 24" fill="none" xmlns="http://www.w3.org/2000/svg">
<path fill-rule="evenodd" clip-rule="evenodd" d="M5 5H19V19H5L5 5ZM3 5C3 3.89543 3.89543 3 5 3H19C20.1046 3 21 3.89543 21 5V19C21 20.1046 20.1046 21 19 21H5C3.89543 21 3 20.1046 3 19V5ZM14.5 7.62841C13.9683 7.22428 12.268 6.80511 10.8634 7.22428C9.89613 7.51292 8.95855 8.13692 8.62841 9.18016C8.4636 9.70096 8.48682 10.2278 8.64277 10.7131C8.8973 11.5053 9.45342 12 10.0293 12.321C10.5629 12.6184 11.1813 12.8024 11.6708 12.9481C11.7299 12.9657 11.7893 12.9831 11.849 13.0005C12.2261 13.1104 12.6113 13.2227 12.9525 13.4129C13.2414 13.5739 13.5174 13.8806 13.4069 14.2295C13.3501 14.4091 13.127 14.6851 12.5305 14.8631C11.953 15.0354 11.1648 15.0613 10.3245 14.8466C9.85939 14.7278 9.44984 14.5534 9.11233 14.3496C8.86138 14.198 8.65725 14.0345 8.50009 13.8721C8.49992 14.1482 8.50004 15.7597 8.50008 16.2141L8.50009 16.3041C8.90199 16.501 9.34053 16.6626 9.80582 16.7815C10.9647 17.0775 12.1432 17.0701 13.1295 16.7757C14.0967 16.4871 15.0343 15.8631 15.3644 14.8199C15.5262 14.3086 15.5069 13.7912 15.3582 13.3128C15.1073 12.5053 14.5528 12.0018 13.9683 11.6761C13.4463 11.3851 12.8406 11.2052 12.3624 11.0631C11.7855 10.8917 11.3665 10.7633 11.0451 10.5841C10.7554 10.4227 10.4746 10.1223 10.5859 9.77048C10.6427 9.59094 10.8658 9.31492 11.4623 9.13691C12.3624 8.86831 13.4765 9.29313 14.5 9.77048V7.62841Z" fill="black"/>
</svg>
