<svg width="24" height="24" viewBox="0 0 24 24" fill="none" xmlns="http://www.w3.org/2000/svg">
<path fill-rule="evenodd" clip-rule="evenodd" d="M22 12L3 2V3.61803C3 5.55697 3.14265 7.49369 3.62735 9.3749C3.83791 10.1921 4 10.8212 4 12C4 13.1788 3.83792 13.8079 3.62736 14.6251C3.14265 16.5063 3 18.443 3 20.382V22L22 12ZM5.04365 5.25789L17.5279 12L5.04365 18.3602C5.10761 17.2626 5.28745 16.1946 5.56229 15.1323C5.72481 14.5042 5.88776 13.8744 5.96056 13L11 12.5V11.5L5.96056 11C5.88776 10.1256 5.72481 9.49585 5.56229 8.86771C5.2568 7.68703 5.11454 6.47425 5.04365 5.25789Z" fill="black"/>
</svg>
