<svg width="24" height="24" viewBox="0 0 24 24" fill="none" xmlns="http://www.w3.org/2000/svg">
<path d="M11.1479 6.14946C11.1758 6.49557 10.984 6.803 10.7199 6.83652C10.4554 6.87023 10.2186 6.61701 10.1905 6.27071C10.1629 5.9244 10.3545 5.61698 10.618 5.58365C10.8831 5.54975 11.1203 5.80335 11.1479 6.14946Z" fill="black"/>
<path d="M14.0115 5.84918C13.2497 5.66588 12.8816 6.16944 12.8276 6.26521C12.7939 6.32536 12.8173 6.41174 12.8745 6.45445C12.9314 6.49697 12.9916 6.48472 13.0253 6.4489C13.4819 5.96125 13.9749 6.23428 14.0729 6.28855C14.0798 6.29237 14.0848 6.29513 14.0876 6.29643C14.1538 6.32708 14.2735 6.33129 14.3314 6.1748C14.3606 6.09589 14.3527 6.03728 14.3238 5.9961C14.3043 5.96832 14.2117 5.89745 14.0115 5.84918Z" fill="black"/>
<path fill-rule="evenodd" clip-rule="evenodd" d="M18.3279 10.3969C18.3287 10.3702 18.3399 9.9285 18.3399 9.70051C18.3399 5.85974 16.3118 2.00019 11.8045 2C7.2975 2.00019 5.66023 5.85974 5.66023 9.70051C5.66023 9.92855 5.67146 10.3704 5.67224 10.3969L4.76267 12.6429C4.51349 13.2857 4.26741 13.9551 4.08716 14.5289C3.22753 17.2657 3.50613 18.3982 3.71814 18.4237C4.17312 18.4781 5.48927 16.3635 5.48927 16.3635C5.48927 17.5879 6.12597 19.1859 7.50457 20.3397C6.98896 20.4971 6.35727 20.739 5.95147 21.0357C5.58633 21.3023 5.63182 21.5741 5.69765 21.6839C5.98652 22.1662 10.6533 21.9919 12.0006 21.8417C13.3479 21.9919 18.0147 22.1662 18.3035 21.6839C18.3694 21.5741 18.4149 21.3023 18.0499 21.0357C17.6437 20.7388 17.0115 20.4968 16.4959 20.3394C17.8743 19.1856 18.5108 17.5878 18.5108 16.3635C18.5108 16.3635 19.827 18.4781 20.282 18.4237C20.494 18.3982 20.7726 17.2657 19.913 14.5289C19.7327 13.9551 19.4866 13.2858 19.2375 12.643L18.3279 10.3969ZM15.8571 8.91156C15.6937 8.55357 14.0482 8.15459 12.0111 8.15459H11.9892C9.95202 8.15459 8.30653 8.55357 8.14313 8.91156C8.13577 8.92708 8.13112 8.94432 8.13112 8.96251C8.13112 8.98837 8.14003 9.01155 8.15358 9.03147C8.29143 9.2299 10.1185 10.2112 11.9892 10.2112H12.0111C13.8817 10.2112 15.7088 9.23009 15.8464 9.03147C15.8602 9.01174 15.8689 8.98818 15.8689 8.96232C15.8689 8.94412 15.8645 8.92708 15.8571 8.91156ZM10.3963 7.67444C9.78488 7.70183 9.26252 7.01267 9.22961 6.13676C9.1965 5.26027 9.66484 4.52762 10.2763 4.50023C10.8871 4.47322 11.4093 5.162 11.4424 6.0383C11.4759 6.91479 11.0073 7.64744 10.3963 7.67444ZM13.6039 7.67444C14.2153 7.70183 14.7377 7.01267 14.7704 6.13676C14.8037 5.26027 14.3353 4.52762 13.7239 4.50023C13.1131 4.47322 12.5909 5.162 12.5578 6.0383C12.5243 6.91479 12.9929 7.64724 13.6039 7.67444ZM7.20301 13.2387C7.0802 14.0165 7.0119 14.9722 7.07976 16.0962C7.26466 19.1601 9.10394 21.086 11.9428 21.114H12.0582C14.8973 21.086 16.7364 19.1601 16.9215 16.0962C16.9894 14.972 16.9209 14.0164 16.798 13.2385C15.1394 13.5638 13.4241 13.7502 12.0108 13.7334H11.9893C11.6137 13.7378 11.2168 13.728 10.8052 13.7049V16.3921C9.40638 16.585 8.01026 16.3065 8.01026 16.3065V13.3852C7.74071 13.3402 7.47112 13.2912 7.20301 13.2387Z" fill="black"/>
</svg>
