<svg width="24" height="24" viewBox="0 0 24 24" fill="none" xmlns="http://www.w3.org/2000/svg">
<path fill-rule="evenodd" clip-rule="evenodd" d="M18.4212 10.63C18.4492 10.4233 18.5072 9.96112 18.5072 9.73301C18.5072 5.98504 16.1911 2 11.9827 2C7.77428 2 5.48704 5.95043 5.48704 9.67745C5.48704 10.019 5.5342 10.3695 5.57373 10.6338L4.76261 12.6378C4.51344 13.2809 4.26735 13.9507 4.0871 14.5248C3.22747 17.2631 3.50608 18.3963 3.71808 18.4218C4.17306 18.4762 5.48921 16.3604 5.48921 16.3604C5.48921 17.5855 6.12591 19.1843 7.50452 20.3388C6.9889 20.4963 6.35721 20.7383 5.95141 21.0352C5.58627 21.3019 5.63177 21.5739 5.69759 21.6837C5.98646 22.1663 10.6532 21.9919 12.0005 21.8416C13.3479 21.9919 18.0146 22.1663 18.3035 21.6837C18.3693 21.5739 18.4148 21.3019 18.0499 21.0352C17.6436 20.7382 17.0114 20.496 16.4958 20.3385C17.8742 19.1841 18.5108 17.5854 18.5108 16.3604C18.5108 16.3604 19.8269 18.4762 20.2819 18.4218C20.4939 18.3963 20.7725 17.2631 19.9129 14.5248C19.7327 13.9507 19.4866 13.281 19.2374 12.6379L18.4212 10.63ZM16.5 9.49337C16.5 6.45414 14.4853 3.99035 12 3.99035C9.51471 3.99035 7.5 6.45414 7.5 9.49337V12.2797C10.5047 13.2338 13.4953 13.2338 16.5 12.2797V9.49337ZM16.5 14.3666C14.8352 14.8323 13.1674 15.0393 11.5 14.9875V16.9975H9.5V14.8014C8.833 14.6979 8.16626 14.553 7.5 14.3666V15.9969C7.5 18.2073 9.51471 19.9991 12 19.9991C14.4853 19.9991 16.5 18.2073 16.5 15.9969V14.3666ZM10.5537 7.99206C10.0023 8.00932 9.53117 7.57506 9.50149 7.02314C9.47163 6.47085 9.89401 6.0092 10.4454 5.99194C10.9963 5.97492 11.4672 6.40893 11.4971 6.9611C11.5273 7.51339 11.1047 7.97504 10.5537 7.99206ZM13.4465 7.99206C13.9979 8.00932 14.469 7.57506 14.4985 7.02314C14.5285 6.47085 14.1061 6.0092 13.5547 5.99194C13.0038 5.97492 12.5329 6.40893 12.5031 6.9611C12.4729 7.51339 12.8954 7.97492 13.4465 7.99206ZM12.01 8.9931C13.8529 8.9931 15.3415 9.38132 15.4893 9.72965C15.496 9.74475 15.5 9.76134 15.5 9.77904C15.5 9.8042 15.4921 9.82713 15.4797 9.84632C15.3552 10.0396 13.7023 10.9942 12.01 10.9942H11.9902C10.2979 10.9942 8.64502 10.0394 8.52032 9.84632C8.50806 9.82694 8.5 9.80439 8.5 9.77923C8.5 9.76152 8.5042 9.74475 8.51086 9.72965C8.65869 9.38132 10.1473 8.9931 11.9902 8.9931H12.01Z" fill="black"/>
</svg>
