<svg width="24" height="24" viewBox="0 0 24 24" fill="none" xmlns="http://www.w3.org/2000/svg">
<path fill-rule="evenodd" clip-rule="evenodd" d="M12 2H18V3C18 4.05648 18.9084 5 20 5H21V11H20C19.3101 11 18.6398 10.9125 18 10.7477V15C18 18.866 14.866 22 11 22C7.13401 22 4 18.866 4 15C4 11.134 7.13401 8 11 8H12V2ZM12 10H11C8.23858 10 6 12.2386 6 15C6 17.7614 8.23858 20 11 20C13.7614 20 16 17.7614 16 15V7.74422L17.4291 8.42311C17.9193 8.656 18.4464 8.82445 19 8.9172V6.87055C17.5966 6.49995 16.4984 5.37276 16.1318 4H14V15C14 16.6569 12.6569 18 11 18C9.34315 18 8 16.6569 8 15C8 13.3431 9.34315 12 11 12H12V10ZM12 14H11C10.4477 14 10 14.4477 10 15C10 15.5523 10.4477 16 11 16C11.5523 16 12 15.5523 12 15V14Z" fill="black"/>
</svg>
