<svg width="24" height="24" viewBox="0 0 24 24" fill="none" xmlns="http://www.w3.org/2000/svg">
<path fill-rule="evenodd" clip-rule="evenodd" d="M10.15 7.55089C10.4059 5.46646 12.2963 3 15.4479 3C16.2506 3 17.2555 3.10164 18.5879 3.97085C19.5803 3.97085 21.9572 3.98255 21.9572 3.98255L22 7.01764C22 8.35891 20.9613 9.54967 20.9613 9.54967C20.9613 16.6094 15.7752 21 9.49973 21C3.22424 21 2 16.9891 2 16.9891C4.00561 16.9891 4.38555 16.2184 4.38555 16.2184C4.38555 16.2184 3.22424 14.7027 3.22424 13.8484C2.60053 13.0321 2.08689 11.9997 2.05114 10.7662C2.01743 9.60268 1.98279 8.38871 2.05987 7.22724C2.21023 4.96174 4.00561 3.02088 4.00561 3.02088C4.00561 3.02088 6.7962 6.44469 10.15 7.55089ZM15.4116 5.00424C12.9575 5.00424 11.9018 7.23052 11.9802 9.01341V9.99952C7.91866 9.7391 4.3788 5.94268 4.3788 5.94268C4.3788 5.94268 2.98088 8.58447 5.65167 10.48C4.98483 10.5675 4.01125 10.3008 4.01125 10.3008C4.01125 10.3008 3.77589 12.9471 6.50648 13.8672C6.00419 14.0063 5.31958 13.9408 5.31958 13.9408C5.31958 13.9408 6.17109 16.152 8.72375 16.0051C7.49923 18.0264 5.00644 18.0264 5.00644 18.0264C5.00644 18.0264 7.45876 19.029 9.49345 19.029C14.5759 19.029 19.2818 14.9443 18.973 8.4473C18.973 8.4473 19.9643 8.00765 20.5607 7.00504C20.5607 7.00504 19.6711 7.36512 18.7963 7.36512C18.7963 7.36512 19.7688 6.80845 19.9643 5.56993C19.9643 5.56993 18.9503 6.04175 18.1211 6.20345C17.4692 5.46723 16.4993 5.00424 15.4116 5.00424ZM14.9776 8.0003C14.9776 7.4496 15.424 6.99768 15.9747 6.99768C16.5254 6.99768 16.9718 7.4496 16.9718 8.0003C16.9718 8.55099 16.5254 9.00291 15.9747 9.00291C15.424 9.00291 14.9776 8.55099 14.9776 8.0003Z" fill="black"/>
</svg>
