<svg width="24" height="24" viewBox="0 0 24 24" fill="none" xmlns="http://www.w3.org/2000/svg">
<path fill-rule="evenodd" clip-rule="evenodd" d="M11.6337 8.82156C11.5389 6.6774 12.8144 4 15.7793 4C17.0933 4 18.2651 4.55681 19.0527 5.44221C20.0545 5.24774 21.2796 4.68032 21.2796 4.68032C21.0434 6.1698 19.8684 6.83927 19.8684 6.83927C20.9253 6.83927 22 6.40623 22 6.40623C21.2796 7.612 20.0819 8.14074 20.0819 8.14074C20.455 15.9543 14.6402 21 8.5 21C5.55281 21 4 20.015 4 20.015C4 20.015 7.30053 19.2968 8.5 17.0122C5 17.5127 3.58678 14.7474 3.58678 14.7474C3.58678 14.7474 4.41388 14.8262 5.02071 14.6588C1.7218 13.5523 2.00615 10.3698 2.00615 10.3698C2.00615 10.3698 3.18235 10.6905 3.98798 10.5854C0.761321 8.3057 2.45019 5.12859 2.45019 5.12859C2.45019 5.12859 6.59312 8.69151 11.5 9.00469L11.6337 8.82156ZM17 6.00188C16.4477 6.00188 16 6.45001 16 7.00282C16 7.55562 16.4477 8.00375 17 8.00375C17.5523 8.00375 18 7.55562 18 7.00282C18 6.45001 17.5523 6.00188 17 6.00188Z" fill="black"/>
</svg>
