<svg width="24" height="24" viewBox="0 0 24 24" fill="none" xmlns="http://www.w3.org/2000/svg">
<path fill-rule="evenodd" clip-rule="evenodd" d="M17 4C16.4477 4 16 4.44772 16 5C16 5.55228 16.4477 6 17 6C17.5523 6 18 5.55228 18 5C18 4.44772 17.5523 4 17 4ZM14.6389 3.14906C15.1881 2.44944 16.0416 2 17 2C18.6569 2 20 3.34315 20 5C20 5.38698 19.9267 5.75684 19.7933 6.09647C20.9624 7.44086 21.7398 9.13706 21.9455 11.0048L19.9298 11.0048C19.7493 9.73525 19.2283 8.57572 18.4613 7.62068C18.0289 7.8623 17.5305 8 17 8C15.3668 8 14.0385 6.695 14.0008 5.07089C13.6743 5.0242 13.3401 5 12.9999 5C12.2348 5 11.4983 5.1228 10.809 5.34977L9.79206 3.58843C10.7884 3.20824 11.8698 3 12.9999 3C13.559 3 14.1069 3.0511 14.6389 3.14906ZM4 12C4 11.4477 4.44772 11 5 11C5.55228 11 6 11.4477 6 12C6 12.5523 5.55228 13 5 13C4.44772 13 4 12.5523 4 12ZM4.49766 9.04187C3.07995 9.28088 2 10.5143 2 12C2 13.4857 3.07995 14.7191 4.49766 14.9581C5.14819 16.8279 6.39779 18.4172 8.0169 19.4958L9.01963 17.759C7.89701 16.9818 7.01252 15.8848 6.49823 14.5997C7.39591 14.0812 8 13.1112 8 12C8 10.8888 7.39591 9.91879 6.49823 9.40033C7.01192 8.1167 7.89494 7.0208 9.01569 6.24372L8.01291 4.50686C6.39574 5.58542 5.14766 7.17365 4.49766 9.04187ZM16 19C16 18.4477 16.4477 18 17 18C17.5523 18 18 18.4477 18 19C18 19.5523 17.5523 20 17 20C16.4477 20 16 19.5523 16 19ZM14.6389 20.8509C14.1069 20.9489 13.559 21 12.9999 21C11.8715 21 10.7917 20.7924 9.79658 20.4133L10.8136 18.6518C11.5016 18.8778 12.2365 19 12.9999 19C13.3401 19 13.6743 18.9758 14.0008 18.9291C14.0385 17.305 15.3668 16 17 16C17.5305 16 18.0289 16.1377 18.4613 16.3793C19.2263 15.4267 19.7466 14.2706 19.9284 13.0048L21.9444 13.0048C21.7372 14.8688 20.9604 16.5614 19.7933 17.9035C19.9267 18.2432 20 18.613 20 19C20 20.6569 18.6569 22 17 22C16.0416 22 15.1881 21.5506 14.6389 20.8509Z" fill="black"/>
</svg>
