<svg width="24" height="24" viewBox="0 0 24 24" fill="none" xmlns="http://www.w3.org/2000/svg">
<path fill-rule="evenodd" clip-rule="evenodd" d="M18.5 6C19.6046 6 20.5 5.10457 20.5 4C20.5 2.89543 19.6046 2 18.5 2C17.3954 2 16.5 2.89543 16.5 4C16.5 5.10457 17.3954 6 18.5 6ZM4 14C5.10457 14 6 13.1046 6 12C6 10.8954 5.10457 10 4 10C2.89543 10 2 10.8954 2 12C2 13.1046 2.89543 14 4 14ZM20.5 20C20.5 21.1046 19.6046 22 18.5 22C17.3954 22 16.5 21.1046 16.5 20C16.5 18.8954 17.3954 18 18.5 18C19.6046 18 20.5 18.8954 20.5 20ZM15.4613 4.24219C15.4819 4.29629 15.5037 4.34974 15.5268 4.40252C15.7235 5.86904 16.9797 7 18.5 7C18.8806 7 19.2446 6.92914 19.5796 6.79991C20.5726 7.95979 21.2395 9.40718 21.4381 11H18.4C17.9367 8.71776 15.9189 7 13.5 7C12.9512 7 12.423 7.08843 11.9289 7.25181L10.4089 4.61906C11.3599 4.22031 12.4042 4 13.5 4C14.1767 4 14.8337 4.08402 15.4613 4.24219ZM10.1948 8.24819L8.67596 5.61754C7.35436 6.618 6.35317 8.01949 5.85352 9.64088C6.55169 10.1902 7.00005 11.0427 7.00005 12C7.00005 12.9573 6.55169 13.8098 5.85352 14.3591C6.35183 15.9762 7.34899 17.3745 8.66531 18.3744L10.1846 15.7429C9.15129 14.8269 8.49999 13.4895 8.49999 12C8.49999 10.5056 9.15555 9.16441 10.1948 8.24819ZM11.9161 16.7439L10.3966 19.3758C11.3509 19.7778 12.3995 20 13.5 20C14.1945 20 14.8683 19.9115 15.5107 19.7452C15.64 18.2076 16.929 17 18.5 17C18.8806 17 19.2446 17.0709 19.5796 17.2001C20.5726 16.0402 21.2395 14.5928 21.4381 13H18.4C17.9367 15.2822 15.919 17 13.5 17C12.9464 17 12.4138 16.91 11.9161 16.7439Z" fill="black"/>
</svg>
