<svg width="24" height="24" viewBox="0 0 24 24" fill="none" xmlns="http://www.w3.org/2000/svg">
<path d="M13.0121 2L13.0203 4.33581L17.4737 6.92876C17.6062 7.00594 17.6073 7.19706 17.4757 7.27576L12.1104 10.4825C12.0465 10.5207 11.9668 10.5206 11.903 10.4821L6.57377 7.26702C6.44279 7.188 6.44422 6.99756 6.57637 6.92051L11.0059 4.3381L10.9977 2.01115L3.1853 6.56574V15.6401L5.19972 14.468V9.14746C5.19972 8.99067 5.37096 8.89398 5.50522 8.97498L10.8996 12.2293C10.96 12.2658 10.997 12.3312 10.997 12.4018V18.7166C10.997 18.8724 10.8277 18.9692 10.6934 18.8903L6.17199 16.2329L4.1742 17.3953L12.0089 22L19.8313 17.4125L17.8446 16.2423L13.3147 18.8989C13.1804 18.9777 13.0114 18.8808 13.0114 18.7252V12.4051C13.0114 12.3342 13.0486 12.2686 13.1095 12.2322L18.4955 9.013C18.6298 8.93275 18.8003 9.02949 18.8003 9.18591V14.4673L20.8147 15.6538V6.54308L13.0121 2Z" fill="black"/>
<path d="M13.0121 2L13.0203 4.33581L17.4737 6.92876C17.6062 7.00594 17.6073 7.19706 17.4757 7.27576L12.1104 10.4825C12.0465 10.5207 11.9668 10.5206 11.903 10.4821L6.57377 7.26702C6.44279 7.188 6.44422 6.99756 6.57637 6.92051L11.0059 4.3381L10.9977 2.01115L3.1853 6.56574V15.6401L5.19972 14.468V9.14746C5.19972 8.99067 5.37096 8.89398 5.50522 8.97498L10.8996 12.2293C10.96 12.2658 10.997 12.3312 10.997 12.4018V18.7166C10.997 18.8724 10.8277 18.9692 10.6934 18.8903L6.17199 16.2329L4.1742 17.3953L12.0089 22L19.8313 17.4125L17.8446 16.2423L13.3147 18.8989C13.1804 18.9777 13.0114 18.8808 13.0114 18.7252V12.4051C13.0114 12.3342 13.0486 12.2686 13.1095 12.2322L18.4955 9.013C18.6298 8.93275 18.8003 9.02949 18.8003 9.18591V14.4673L20.8147 15.6538V6.54308L13.0121 2Z" stroke="black"/>
</svg>
