<svg width="24" height="24" viewBox="0 0 24 24" fill="none" xmlns="http://www.w3.org/2000/svg">
<path d="M20.75 16V6.66667L12.7618 2V5.58333L15.8912 7.41667C16.0147 7.5 16.0147 7.66667 15.8912 7.70833L12.1853 9.875C12.0618 9.95833 11.9382 9.91667 11.8559 9.875L8.15 7.70833C8.02647 7.66667 8.02647 7.45833 8.15 7.41667L11.2794 5.58333V2L3.25 6.66667V16V15.9583V16L6.29706 14.2083V10.5417C6.29706 10.4167 6.46177 10.3333 6.54412 10.375L10.25 12.5417C10.3735 12.625 10.4147 12.7083 10.4147 12.8333V17.1667C10.4147 17.2917 10.25 17.375 10.1676 17.3333L7.03824 15.5L3.99118 17.2917L11.9794 22L19.9676 17.3333L16.9206 15.5417L13.7912 17.375C13.6676 17.4583 13.5441 17.375 13.5441 17.2083V12.875C13.5441 12.75 13.6265 12.625 13.7088 12.5833L17.4147 10.4167C17.5382 10.3333 17.6618 10.4167 17.6618 10.5833V14.25L20.75 16Z" fill="black"/>
</svg>
