<svg width="24" height="24" viewBox="0 0 24 24" fill="none" xmlns="http://www.w3.org/2000/svg">
<path d="M21.9903 7.00466C21.9012 8.94957 20.5316 11.3132 17.9025 14.6957C15.1827 18.2319 12.8819 20 11 20C9.83305 20 8.84676 18.9238 8.04112 16.7713L6.42676 11.8535C5.82715 9.70105 5.19489 7.92484 4.50917 7.92484C4.36157 7.92484 3.83806 8.2408 2.94094 8.86809L2 7.65502C2.98706 6.78788 3.95952 5.92074 4.91737 5.0536C6.23499 3.9174 7.22359 3.31855 7.88317 3.25705C9.43756 3.1033 10.3954 4.16724 10.7567 6.44886C11.1442 8.90883 11.4028 11.1363 11.5535 11.7313C12.004 13.77 12.5 14 13 14C14.3656 14 16.1678 10.3849 16.2778 9.08487C16.3977 7.94406 15.9488 7.37289 14.931 7.37135C14.4204 7.37932 13.9167 7.49072 13.4504 7.69883C14.4359 4.48242 16.314 2.91727 19.0845 3.00337C21.1401 3.0664 22.1087 4.40017 21.9903 7.00466Z" fill="black"/>
</svg>
