<svg width="24" height="24" viewBox="0 0 24 24" fill="none" xmlns="http://www.w3.org/2000/svg">
<path fill-rule="evenodd" clip-rule="evenodd" d="M18.3447 5.00252C17.307 4.97033 16.5099 5.24334 15.8785 5.76958C15.5034 6.08213 15.202 6.46842 14.9398 6.94059C15.778 7.04693 16.5198 7.55552 16.7648 8.39701C17.1892 9.85453 16.5182 11.2178 16.0902 11.9458C15.6644 12.6701 15.1373 13.3258 14.598 13.9674C14.1487 14.5022 13.1903 15.1063 12.5 15C11.8096 14.8937 11.4873 14.0925 11.2196 13.4473C10.7599 12.3394 10.5501 11.1571 10.3881 10.2438C10.212 9.25116 10.0502 8.2562 9.89335 7.26032C9.74407 6.31825 9.49192 5.78636 9.24743 5.51479C9.05203 5.29775 8.8122 5.18533 8.39451 5.22636L8.38747 5.22705C8.31314 5.23408 8.09674 5.29232 7.70045 5.53238C7.32253 5.7613 6.85319 6.11072 6.2877 6.59777C5.93155 6.92015 5.5744 7.24086 5.21673 7.56016C5.86176 7.55773 6.49475 7.86716 6.88194 8.43892C7.62699 9.53915 7.94607 10.9095 8.15034 11.7867C8.18219 11.9235 8.21126 12.0483 8.2387 12.1582C8.52232 13.294 8.85259 14.6012 9.29908 15.6831C9.67528 16.5947 10.3271 18 11.5 18C13.5739 18 15.6101 15.3166 16.706 13.8921L16.712 13.8843C19.0644 10.8574 19.9275 8.97246 19.9923 7.55838C20.0409 6.48887 19.8526 5.86993 19.6083 5.53347C19.4006 5.2476 19.0489 5.02418 18.3447 5.00252ZM21.9903 7.64998C21.8946 9.73646 20.6682 12.0531 18.2912 15.1116C17.0241 16.7586 15.7969 17.9601 14.673 18.7586C13.5688 19.5432 12.477 20 11.5 20C10.4181 20 9.557 19.5118 8.90367 18.8311C8.26946 18.1704 7.80549 17.3066 7.45033 16.4461C6.93806 15.2048 6.57516 13.7515 6.29829 12.6428C6.20039 12.2507 6.10999 11.8427 6.00266 11.4385C5.82598 10.7731 5.60342 10.1178 5.22592 9.56035C4.68272 9.89947 4.53128 9.95697 4.00668 10.3238L2 7.73673C2.98995 6.86585 3.97701 5.99181 4.9545 5.10689L4.96345 5.09879L4.97259 5.0909C5.58887 4.55948 6.15436 4.1306 6.66423 3.82175C7.15479 3.52459 7.67936 3.28512 8.199 3.23593C9.18042 3.13953 10.0691 3.43827 10.7338 4.17663C11.3512 4.86235 11.6929 5.83717 11.8689 6.94838C11.9681 7.5785 12.0581 8.13612 12.1388 8.62276C12.4889 7.48009 12.8912 6.33773 13.5655 5.3688C13.8541 4.95419 14.1925 4.57117 14.598 4.23318C15.6563 3.35127 16.9506 2.95832 18.4067 3.00349C19.5563 3.03883 20.5644 3.44654 21.2265 4.35824C21.8535 5.22161 22.0482 6.37499 21.9903 7.64998ZM14.8446 8.95613C14.0566 8.73549 13.018 9.45225 12.3331 9.75791C12.5079 10.7391 12.6834 11.7566 13.0669 12.6807C13.814 11.7917 15.1918 10.1486 14.8446 8.95613Z" fill="black"/>
</svg>
