<svg width="24" height="24" viewBox="0 0 24 24" fill="none" xmlns="http://www.w3.org/2000/svg">
<path fill-rule="evenodd" clip-rule="evenodd" d="M4 10C4 7.37764 6.53612 5 10 5C12.5393 5 14.6018 6.29293 15.5045 8.01576C14.6468 7.96212 13.7747 8.04924 12.9657 8.26073C12.9881 8.1776 13 8.0902 13 8C13 7.44772 12.5523 7 12 7C11.4477 7 11 7.44772 11 8C11 8.34733 11.1771 8.65329 11.4459 8.83256C9.42485 9.84968 8 11.7198 8 14C8 14.248 8.01686 14.4912 8.04951 14.729C7.30807 14.5159 6.635 14.1851 6.06229 13.7686C4.76559 12.8258 4 11.4661 4 10ZM8.88076 16.9321C8.06922 16.8328 7.29449 16.627 6.57671 16.3298L3.28774 17.9748L4.30588 14.9201C2.90215 13.6759 2 11.9465 2 10C2 5.99494 5.7319 3 10 3C13.7321 3 17.0201 5.26832 17.8188 8.51024C20.2209 9.41612 22 11.452 22 14C22 15.8053 21.0814 17.3761 19.7033 18.4477L20.5 21L17.1751 19.7056C16.4883 19.8972 15.7569 20 15 20C12.4648 20 10.1069 18.8073 8.88076 16.9321ZM10 14C10 11.9538 12.0601 10 15 10C17.9399 10 20 11.9538 20 14C20 15.2493 19.2671 16.4302 18.0001 17.1953C17.6774 17.3903 17.3227 17.5557 16.9421 17.685C16.3477 17.887 15.6922 18 15 18C12.0601 18 10 16.0462 10 14ZM18 13C18 13.5523 17.5523 14 17 14C16.4477 14 16 13.5523 16 13C16 12.4477 16.4477 12 17 12C17.5523 12 18 12.4477 18 13ZM13 14C13.5523 14 14 13.5523 14 13C14 12.4477 13.5523 12 13 12C12.4477 12 12 12.4477 12 13C12 13.5523 12.4477 14 13 14ZM8 8C8 8.55228 7.55228 9 7 9C6.44772 9 6 8.55228 6 8C6 7.44772 6.44772 7 7 7C7.55228 7 8 7.44772 8 8Z" fill="black"/>
</svg>
