<svg width="24" height="24" viewBox="0 0 24 24" fill="none" xmlns="http://www.w3.org/2000/svg">
<path fill-rule="evenodd" clip-rule="evenodd" d="M19.7917 18.8752C21.1395 17.9583 22 16.5629 22 15C22 12.2386 19.3137 10 16 10C12.6863 10 10 12.2386 10 15C10 17.7614 12.6863 20 16 20C16.5886 20 17.1573 19.9294 17.6948 19.7978L20.5 21L19.7917 18.8752ZM18 14C18.5523 14 19 13.5523 19 13C19 12.4477 18.5523 12 18 12C17.4477 12 17 12.4477 17 13C17 13.5523 17.4477 14 18 14ZM15 13C15 13.5523 14.5523 14 14 14C13.4477 14 13 13.5523 13 13C13 12.4477 13.4477 12 14 12C14.5523 12 15 12.4477 15 13Z" fill="black"/>
<path fill-rule="evenodd" clip-rule="evenodd" d="M16 8C16.5806 8 17.1588 8.0574 17.7232 8.16803C16.803 5.19056 13.6939 3 10 3C5.58172 3 2 6.13401 2 10C2 11.9209 2.88423 13.661 4.31597 14.9259L3.5 17.5L6.47993 16.2877C7.04171 16.529 7.64056 16.7143 8.26698 16.8353C8.09366 16.2599 8 15.6464 8 15C8 10.8081 11.9386 8 16 8ZM7 8C7.55228 8 8 7.55228 8 7C8 6.44772 7.55228 6 7 6C6.44772 6 6 6.44772 6 7C6 7.55228 6.44772 8 7 8ZM13 7C13 7.55228 12.5523 8 12 8C11.4477 8 11 7.55228 11 7C11 6.44772 11.4477 6 12 6C12.5523 6 13 6.44772 13 7Z" fill="black"/>
</svg>
