<svg width="24" height="24" viewBox="0 0 24 24" fill="none" xmlns="http://www.w3.org/2000/svg">
<path fill-rule="evenodd" clip-rule="evenodd" d="M12 2C6.47715 2 2 6.47715 2 12C2 13.8102 2.48184 15.5104 3.32457 16.9767L2.14785 21.8343L7.08107 20.7084C8.53417 21.5307 10.2136 22 12 22C17.5228 22 22 17.5228 22 12C22 6.47715 17.5228 2 12 2ZM17.011 16C15.011 18 11.9634 16.8282 9.51099 14.5C7.22403 12.0915 6.01097 9 8.01101 7H10.0111L11.0111 9.5L9.51099 10.5C9.51099 10.5 9.79192 11.6293 11.0832 12.9166C12.3745 14.204 13.511 14.5 13.511 14.5L14.5111 13L17.0111 14L17.011 16Z" fill="black"/>
</svg>
