<svg width="24" height="24" viewBox="0 0 24 24" fill="none" xmlns="http://www.w3.org/2000/svg">
<path fill-rule="evenodd" clip-rule="evenodd" d="M4 12C4 7.58172 7.58172 4 12 4C16.4183 4 20 7.58172 20 12C20 16.4183 16.4183 20 12 20C10.4478 20 9.00172 19.559 7.77664 18.7958L7.42699 18.578L7.02538 18.6696L4.85215 19.1657L5.36519 17.0478L5.4651 16.6353L5.23787 16.2769C4.454 15.0405 4 13.5748 4 12ZM12 2C6.47715 2 2 6.47715 2 12C2 13.8102 2.48184 15.5104 3.32457 16.9767L2.52811 20.2646L2.14785 21.8343L3.72252 21.4749L7.08107 20.7084C8.53417 21.5307 10.2136 22 12 22C17.5228 22 22 17.5228 22 12C22 6.47715 17.5228 2 12 2ZM17.0001 16C15 18 11.9524 16.8282 9.5 14.5C7.21304 12.0915 5.99998 9 8.00002 7H10.0001L11.0001 9.5L9.5 10.5C9.5 10.5 9.78094 11.6293 11.0722 12.9166C12.3635 14.204 13.5 14.5 13.5 14.5L14.5001 13L17.0001 14L17.0001 16Z" fill="black"/>
</svg>
