<svg width="24" height="24" viewBox="0 0 24 24" fill="none" xmlns="http://www.w3.org/2000/svg">
<path fill-rule="evenodd" clip-rule="evenodd" d="M2 5H6.5V6H6.25445C5.89649 6 5.65449 6.36515 5.79396 6.69482L9.80434 16.1739L11.3696 12.7826L8.75823 6.61036C8.6017 6.24039 8.23898 6 7.83726 6H7.5V5H12V6H11.7544C11.3965 6 11.1545 6.36515 11.294 6.69482L12.6739 9.95651L14.1725 6.70953C14.3254 6.37822 14.0834 6 13.7185 6H13V5H17V6H16.6398C16.2498 6 15.8953 6.22679 15.7319 6.58094L13.3913 11.6522L15.25 16.0454L19.206 6.69482C19.3455 6.36515 19.1035 6 18.7456 6H18V5H22V6H21.6627C21.261 6 20.8983 6.24039 20.7418 6.61036L15.5 19H14L12.087 14.4783L10 19H8.5L3.25823 6.61036C3.1017 6.24039 2.73898 6 2.33726 6H2V5Z" fill="black"/>
</svg>
