<svg width="24" height="24" viewBox="0 0 24 24" fill="none" xmlns="http://www.w3.org/2000/svg">
<path fill-rule="evenodd" clip-rule="evenodd" d="M5 3C3.89543 3 3 3.89543 3 5V19C3 20.1046 3.89543 21 5 21H19C20.1046 21 21 20.1046 21 19V5C21 3.89543 20.1046 3 19 3H5ZM8.29412 8H5V8.81818H5.51541C5.70433 8.81818 5.87712 8.92466 5.96204 9.09341L9.94118 17H10.7647L12.4118 13.7273L14.0588 17H14.8824L18.0503 9.13144C18.1266 8.94216 18.3101 8.81818 18.5142 8.81818H19V8H16.5294V8.81818H17.0568C17.1985 8.81818 17.2953 8.96145 17.2423 9.09288L14.7908 15.1818L13.2353 12.0909L14.7438 9.09341C14.8288 8.92466 15.0016 8.81818 15.1905 8.81818H15.7059V8H13.2353V8.81818H13.7343C13.8832 8.81818 13.9799 8.97508 13.9129 9.10809L12.8235 11.2727L11.7341 9.10809C11.6672 8.97508 11.7639 8.81818 11.9128 8.81818H12.4118V8H9.11765V8.81818H9.63306C9.82198 8.81818 9.99476 8.92466 10.0797 9.09341L12 12.9091L10.7647 15.3636L7.61649 9.10809C7.54955 8.97508 7.64624 8.81818 7.79514 8.81818H8.29412V8Z" fill="black"/>
</svg>
