<svg width="24" height="24" viewBox="0 0 24 24" fill="none" xmlns="http://www.w3.org/2000/svg">
<path fill-rule="evenodd" clip-rule="evenodd" d="M5.07642 7.98937C6.46116 5.60403 9.04326 4 12 4C14.0449 4 15.9106 4.76723 17.3249 6.02954C17.223 6.01002 17.1161 5.99999 17.0045 6C16.1533 6.0001 15.5087 6.68191 15.5087 7.45849C15.5087 8.17937 15.7956 8.62827 16.0948 9.09638C16.5276 9.77356 16.9861 10.4909 16.6389 12.13L15.5605 16.0658L13.3377 9.93389C13.1712 9.47457 13.5114 8.98937 14 8.98937V7.98937H9.5V8.98937H9.79997C10.2203 8.98937 10.5957 9.2522 10.7396 9.64713L11.3594 11.3487L10.0745 16.0658L7.84189 9.92911C7.67572 9.47236 8.01396 8.98937 8.5 8.98937V7.98937H5.07642ZM4.57084 9.0265C4.20259 9.94573 4 10.9492 4 12C4 15.2706 5.9626 18.0827 8.77433 19.3231L5.23996 9.64629C5.12775 9.33908 4.87537 9.11197 4.57084 9.0265ZM10.0633 19.764C10.6834 19.9182 11.3322 20 12 20C12.8257 20 13.6221 19.8749 14.3715 19.6427L11.9258 12.9112L10.0633 19.764ZM15.7514 19.0677C18.279 17.7233 20 15.0626 20 12C20 10.3271 19.4865 8.77409 18.6085 7.49005C18.6957 7.92234 18.6959 8.43043 18.5966 8.98937C18.3719 10.2528 18.0871 11.0429 17.7809 11.8923C17.665 12.2138 17.546 12.5438 17.4261 12.9112C17.0786 14.1818 16.7417 15.4228 16.4077 16.6532C16.1884 17.4609 15.9704 18.2639 15.7514 19.0677ZM12 2C6.47715 2 2 6.47715 2 12C2 17.5228 6.47715 22 12 22C17.5228 22 22 17.5228 22 12C22 6.47715 17.5228 2 12 2Z" fill="black"/>
</svg>
