<svg width="24" height="24" viewBox="0 0 24 24" fill="none" xmlns="http://www.w3.org/2000/svg">
<path fill-rule="evenodd" clip-rule="evenodd" d="M12 22C17.5228 22 22 17.5228 22 12C22 6.47715 17.5228 2 12 2C6.47715 2 2 6.47715 2 12C2 17.5228 6.47715 22 12 22ZM21 12C21 16.9706 16.9706 21 12 21C7.02944 21 3 16.9706 3 12C3 7.02944 7.02944 3 12 3C16.9706 3 21 7.02944 21 12ZM20 12C20 15.0611 18.2807 17.7207 15.7551 19.0657C15.9721 18.2691 16.1882 17.4731 16.4055 16.6727L16.4076 16.6649L16.4081 16.6631C16.742 15.4333 17.0788 14.1928 17.4261 12.9228C17.546 12.5554 17.665 12.2254 17.7809 11.9039C18.0871 11.0545 18.3719 10.2644 18.5966 9.00096C18.6972 8.43487 18.6957 7.92096 18.6051 7.48511C19.4852 8.7701 20 10.3249 20 12ZM11.9258 12.9228L14.3677 19.6438C13.6195 19.8753 12.8243 20 12 20C11.3332 20 10.6855 19.9184 10.0662 19.7647L11.9258 12.9228ZM4 12C4 15.2686 5.96025 18.0794 8.76929 19.3208L5.23996 9.65788C5.12724 9.34927 4.87307 9.12149 4.56668 9.03693C4.20106 9.95332 4 10.9532 4 12ZM8.5 8.00096H5.0697C6.45281 5.60922 9.03848 4 12 4C14.0529 4 15.9252 4.77326 17.3415 6.0444C17.2346 6.02273 17.1222 6.01158 17.0045 6.01159C16.1533 6.01168 15.5087 6.6935 15.5087 7.47008C15.5087 8.19096 15.7956 8.63986 16.0948 9.10797C16.5276 9.78515 16.9861 10.5025 16.6389 12.1416L15.5605 16.0774L13.3377 9.94548C13.1712 9.48616 13.5114 9.00096 14 9.00096V8.00096H9.5V9.00096H9.79997C10.2203 9.00096 10.5957 9.26378 10.7396 9.65871L11.3594 11.3603L10.0745 16.0774L7.84189 9.9407C7.67572 9.48395 8.01396 9.00096 8.5 9.00096V8.00096Z" fill="black"/>
</svg>
