<svg width="24" height="24" viewBox="0 0 24 24" fill="none" xmlns="http://www.w3.org/2000/svg">
<path fill-rule="evenodd" clip-rule="evenodd" d="M8.11078 5.00735C9.2621 4.36563 10.5884 4 12 4C13.4089 4 14.7327 4.36419 15.8824 5.00357H15.8583C15.0859 4.96458 13.9604 5.27641 12.752 5.86416C12.3875 6.04147 12.0705 6.18304 12.0474 6.17882C12.0243 6.17457 11.7271 6.02992 11.3871 5.85729C10.7105 5.51393 9.66686 5.14537 9.09032 5.0462C8.88823 5.01143 8.54347 4.99205 8.32419 5.00311C8.28098 5.00529 8.20506 5.00662 8.11078 5.00735ZM6.53084 6.16144C4.97322 7.62111 4 9.6969 4 12C4 13.8591 4.63413 15.57 5.6979 16.9284C5.67419 16.8431 5.65799 16.7855 5.65462 16.7756L5.6526 16.7697C5.64542 16.7487 5.63966 16.7318 5.63509 16.7198C5.49841 16.3605 5.62653 15.4974 5.94424 14.6377C6.52861 13.0561 8.0791 10.4998 9.54792 8.69632L9.86434 8.3078L9.28491 7.78414C8.29179 6.88662 7.65144 6.44461 7.0518 6.2427C6.79117 6.15496 6.65803 6.11638 6.53084 6.16144ZM6.90898 18.1713C8.29218 19.3137 10.0659 20 12 20C14.1729 20 16.1435 19.1337 17.5852 17.7276C17.7933 17.0327 17.1257 15.6511 15.7668 13.9853C14.8542 12.8665 12.4163 10.4899 12.1114 10.4217C11.9546 10.3867 10.5042 11.6814 9.46292 12.786C7.62951 14.7308 6.55793 16.4369 6.55793 17.4109C6.55793 17.7103 6.63593 17.9175 6.90898 18.1713ZM18.558 16.583C19.4668 15.285 20 13.7048 20 12C20 9.68878 19.0199 7.60647 17.4527 6.14603C17.1805 6.19667 16.7333 6.38088 16.4057 6.58499C15.9172 6.88927 15.4645 7.24755 14.8125 7.84592L14.3131 8.3042L14.7747 8.88412C16.2409 10.7263 17.8377 13.4358 18.3154 14.8923C18.5337 15.5577 18.6281 16.2175 18.558 16.583ZM12 2C6.47715 2 2 6.47715 2 12C2 17.5228 6.47715 22 12 22C17.5228 22 22 17.5228 22 12C22 6.47715 17.5228 2 12 2Z" fill="black"/>
</svg>
