<svg width="24" height="24" viewBox="0 0 24 24" fill="none" xmlns="http://www.w3.org/2000/svg">
<path fill-rule="evenodd" clip-rule="evenodd" d="M10.3107 14.0085L6.94938 15.1069C6.47193 15.2629 5.98428 14.8981 6.00044 14.3969L6.07525 12.0738C6.09103 11.5836 6.58107 11.2511 7.04358 11.4169L10.3307 12.5948C11.0018 12.8353 10.9883 13.7871 10.3107 14.0085ZM10.6991 15.2729L8.48262 17.9668C8.17076 18.3459 8.31976 18.9183 8.77701 19.0979L10.944 19.9491C11.4115 20.1328 11.9196 19.7971 11.9329 19.2958L12.0263 15.767C12.0452 15.0556 11.1516 14.723 10.6991 15.2729ZM13.2743 15.4978L15.2802 18.3515C15.5624 18.753 16.1549 18.7633 16.4508 18.3718L17.8535 16.5165C18.1562 16.1162 17.9684 15.5375 17.4882 15.3903L14.1071 14.3541C13.4255 14.1453 12.8648 14.9153 13.2743 15.4978ZM14.0981 12.9728L17.4652 12.0466C17.9389 11.9162 18.1477 11.3628 17.8778 10.9529L16.5986 9.0107C16.3227 8.59171 15.7135 8.57368 15.4132 8.97566L13.2989 11.8056C12.8727 12.376 13.4108 13.1619 14.0981 12.9728ZM12.1296 10.8542L11.6597 4.89727C11.6865 4.31603 11.1377 3.87754 10.5753 4.03084L7.91013 4.7573C7.33516 4.91402 7.09097 5.59325 7.43492 6.07907L10.4934 11.3677C10.9388 12.1376 12.2012 11.7613 12.1296 10.8542ZM7.03532 9.3831C5.53025 9.24891 4.1281 10.4003 4.07628 12.0094L4.00148 14.3325C3.95115 15.895 5.19492 17.0991 6.63753 17.1435C5.8854 18.5421 6.49795 20.3514 8.0457 20.9594L10.2127 21.8107C11.8234 22.4434 13.5711 21.434 13.8839 19.7979C15.013 21.0105 17.0107 20.9475 18.0462 19.5779L19.4489 17.7227C20.4665 16.3767 20.0125 14.4998 18.6257 13.7147C19.9479 12.9631 20.4374 11.2033 19.5481 9.85287L18.2689 7.91063C17.2528 6.36778 15.039 6.26993 13.8857 7.68299L13.6606 4.83052C13.6465 2.96854 11.8644 1.6065 10.0493 2.10124L7.38416 2.8277C5.51037 3.33844 4.68655 5.52389 5.73711 7.13827L7.03532 9.3831Z" fill="black"/>
</svg>
