<svg width="24" height="24" viewBox="0 0 24 24" fill="none" xmlns="http://www.w3.org/2000/svg">
<path d="M10.377 16.0911L7.61167 19.4586C7.22259 19.9323 7.40848 20.6478 7.97894 20.8724L10.6825 21.9364C11.2657 22.166 11.8997 21.7463 11.9163 21.1198L12.0328 16.7087C12.0563 15.8195 10.9415 15.4037 10.377 16.0911Z" fill="black"/>
<path d="M9.9174 12.7435L5.81632 11.2711C5.23929 11.0639 4.62792 11.4795 4.60822 12.0923L4.51489 14.9961C4.49474 15.6226 5.10312 16.0787 5.69879 15.8836L9.89233 14.5106C10.7377 14.2339 10.7545 13.0441 9.9174 12.7435Z" fill="black"/>
<path d="M14.6175 13.216L18.8183 12.0582C19.4093 11.8953 19.6699 11.2035 19.3331 10.6912L17.7372 8.26337C17.393 7.73965 16.6329 7.7171 16.2583 8.21958L13.6205 11.7569C13.0887 12.47 13.7601 13.4524 14.6175 13.216Z" fill="black"/>
<path d="M11.5754 3.12158C11.6088 2.39503 10.9242 1.84693 10.2225 2.03855L6.89742 2.94663C6.1801 3.14252 5.87545 3.99156 6.30456 4.59884L10.1203 11.2096C10.1513 11.2633 10.1855 11.3153 10.2256 11.3625C10.7907 12.0266 11.8516 11.7805 12.1131 11.0032C12.16 10.8635 12.1733 10.7147 12.1617 10.5678L11.5754 3.12158Z" fill="black"/>
<path d="M18.847 16.2379L14.6287 14.9427C13.7785 14.6816 13.0789 15.6441 13.5898 16.3723L16.0923 19.9394C16.4444 20.4413 17.1836 20.4541 17.5528 19.9647L19.3029 17.6456C19.6804 17.1453 19.4461 16.4219 18.847 16.2379Z" fill="black"/>
</svg>
