<svg width="24" height="24" viewBox="0 0 24 24" fill="none" xmlns="http://www.w3.org/2000/svg">
<path fill-rule="evenodd" clip-rule="evenodd" d="M4.14129 8.47041C4.19612 7.80726 4.70669 7.27577 5.4608 7.22116C7.02722 7.10771 9.24106 7 12 7C14.7589 7 16.9728 7.10771 18.5392 7.22116C19.2933 7.27577 19.8039 7.80726 19.8587 8.47041C19.9377 9.4259 20 10.6178 20 12C20 13.3822 19.9377 14.5741 19.8587 15.5296C19.8039 16.1927 19.2933 16.7242 18.5392 16.7788C16.9728 16.8923 14.7589 17 12 17C9.24106 17 7.02722 16.8923 5.4608 16.7788C4.70669 16.7242 4.19612 16.1927 4.14129 15.5296C4.0623 14.5741 4 13.3822 4 12C4 10.6178 4.0623 9.4259 4.14129 8.47041ZM5.31633 5.22638C3.62483 5.34889 2.28783 6.61545 2.14809 8.30562C2.06498 9.3109 2 10.558 2 12C2 13.442 2.06498 14.6891 2.14809 15.6944C2.28783 17.3845 3.62483 18.6511 5.31633 18.7736C6.92702 18.8903 9.18918 19 12 19C14.8108 19 17.073 18.8903 18.6837 18.7736C20.3752 18.6511 21.7122 17.3845 21.8519 15.6944C21.935 14.6891 22 13.442 22 12C22 10.558 21.935 9.3109 21.8519 8.30562C21.7122 6.61546 20.3752 5.34889 18.6837 5.22638C17.073 5.10973 14.8108 5 12 5C9.18918 5 6.92701 5.10973 5.31633 5.22638ZM16 12L10 9V15L16 12Z" fill="black"/>
</svg>
